<svg width="476" height="54" viewBox="0 0 476 54" fill="none" xmlns="http://www.w3.org/2000/svg">
<path d="M231.59 6.74884H219.084C218.902 6.75149 218.728 6.82407 218.6 6.95092C218.472 7.07776 218.4 7.24869 218.4 7.42676C218.4 7.60484 218.472 7.77576 218.6 7.90261C218.728 8.02946 218.902 8.10204 219.084 8.10468H231.59C232.695 8.1035 233.755 7.67459 234.536 6.91203C235.318 6.14948 235.758 5.11558 235.759 4.03716C235.562 -1.34658 227.617 -1.34489 227.421 4.03723C227.424 4.21537 227.498 4.38535 227.628 4.51042C227.758 4.63549 227.934 4.7056 228.116 4.70558C228.299 4.70557 228.474 4.63544 228.604 4.51035C228.734 4.38526 228.808 4.21527 228.811 4.03714C228.811 3.50082 228.974 2.97654 229.279 2.53061C229.585 2.08468 230.019 1.73711 230.527 1.53187C231.034 1.32663 231.593 1.27293 232.132 1.37756C232.671 1.48219 233.167 1.74045 233.555 2.11969C233.944 2.49893 234.209 2.9821 234.316 3.50811C234.423 4.03413 234.368 4.57936 234.158 5.07485C233.947 5.57035 233.591 5.99385 233.134 6.29182C232.677 6.58978 232.14 6.74884 231.59 6.74884ZM236.801 15.9008C236.525 15.9005 236.26 15.7932 236.064 15.6026C235.869 15.412 235.759 15.1535 235.759 14.8839C235.756 14.7057 235.682 14.5358 235.552 14.4107C235.422 14.2856 235.247 14.2155 235.064 14.2155C234.881 14.2155 234.706 14.2856 234.576 14.4107C234.446 14.5358 234.372 14.7057 234.369 14.8839C234.37 15.5129 234.626 16.116 235.082 16.5608C235.538 17.0056 236.156 17.2558 236.801 17.2566C240.042 17.2285 240.051 12.1991 236.801 12.1722H227.422C227.239 12.1748 227.065 12.2474 226.937 12.3743C226.809 12.5011 226.737 12.672 226.737 12.8501C226.737 13.0282 226.809 13.1991 226.937 13.326C227.065 13.4528 227.239 13.5254 227.422 13.528H236.801C238.204 13.5111 238.221 15.9154 236.801 15.9008ZM226.727 10.1384C226.727 10.0494 226.709 9.96123 226.674 9.87895C226.639 9.79668 226.588 9.72193 226.523 9.65897C226.459 9.59601 226.382 9.54607 226.298 9.51202C226.214 9.47797 226.123 9.46047 226.032 9.46052H217.695C217.511 9.46052 217.334 9.53195 217.203 9.65908C217.073 9.78622 217 9.95865 217 10.1384C217 10.3182 217.073 10.4907 217.203 10.6178C217.334 10.7449 217.511 10.8164 217.695 10.8164H226.032C226.123 10.8164 226.214 10.7989 226.298 10.7649C226.382 10.7308 226.459 10.6809 226.523 10.6179C226.588 10.555 226.639 10.4802 226.674 10.3979C226.709 10.3157 226.727 10.2275 226.727 10.1384ZM228.116 10.1384C228.116 10.2275 228.134 10.3157 228.169 10.3979C228.204 10.4802 228.255 10.555 228.32 10.6179C228.384 10.6809 228.461 10.7308 228.545 10.7649C228.629 10.7989 228.72 10.8164 228.811 10.8164H237.843C238.027 10.8164 238.204 10.7449 238.334 10.6178C238.465 10.4907 238.538 10.3182 238.538 10.1384C238.538 9.95865 238.465 9.78622 238.334 9.65908C238.204 9.53195 238.027 9.46052 237.843 9.46052H228.811C228.72 9.46047 228.629 9.47797 228.545 9.51202C228.461 9.54607 228.384 9.59601 228.32 9.65897C228.255 9.72193 228.204 9.79668 228.169 9.87895C228.134 9.96123 228.116 10.0494 228.116 10.1384ZM219.084 13.528H224.642C224.825 13.5255 224.999 13.453 225.127 13.3261C225.256 13.1993 225.327 13.0283 225.327 12.8501C225.327 12.672 225.256 12.501 225.127 12.3741C224.999 12.2473 224.825 12.1747 224.642 12.1722H219.084C218.902 12.1747 218.728 12.2473 218.599 12.3741C218.471 12.501 218.399 12.672 218.399 12.8501C218.399 13.0283 218.471 13.1993 218.599 13.3261C218.728 13.453 218.902 13.5255 219.084 13.528ZM253.861 20.3059C253.121 20.2844 252.384 20.4111 251.695 20.678C251.007 20.945 250.382 21.3467 249.859 21.8584C249.748 21.9655 249.677 22.1062 249.658 22.2576C249.639 22.4089 249.673 22.5621 249.755 22.6922C249.834 22.8237 249.958 22.9244 250.105 22.9775C250.252 23.0306 250.413 23.0328 250.561 22.9837C251.876 22.525 252.394 23.9252 252.437 24.4548C252.61 25.8513 250.971 27.2546 249.977 27.8715C248.592 28.6688 246.962 28.9595 245.378 28.6918C248.994 23.1265 241.845 17.4917 237.353 21.8584C237.246 21.9666 237.178 22.1065 237.161 22.2563C237.143 22.4061 237.178 22.5573 237.258 22.686C237.338 22.8148 237.46 22.9139 237.604 22.9678C237.749 23.0217 237.907 23.0272 238.055 22.9837C239.374 22.5253 239.887 23.9273 239.931 24.4548C240.105 25.8513 238.465 27.2546 237.471 27.8715C236.087 28.6688 234.456 28.9595 232.872 28.6918C236.45 23.1701 229.417 17.4631 224.847 21.8584C224.74 21.9665 224.672 22.1065 224.655 22.2563C224.637 22.4061 224.672 22.5573 224.752 22.6861C224.832 22.8149 224.954 22.914 225.098 22.9679C225.243 23.0217 225.401 23.0273 225.549 22.9837C226.876 22.5278 227.378 23.9267 227.425 24.4548C227.599 25.8513 225.959 27.2546 224.966 27.8715C224.108 28.3428 223.162 28.6387 222.183 28.7413C221.205 28.8438 220.216 28.7509 219.275 28.468C219.172 28.4396 219.064 28.4348 218.958 28.4542C218.853 28.4735 218.754 28.5163 218.668 28.5794C218.583 28.6424 218.514 28.724 218.466 28.8176C218.418 28.9112 218.393 29.0143 218.393 29.1188V31.3221C218.393 31.4112 218.41 31.4995 218.445 31.5819C218.48 31.6643 218.531 31.7391 218.596 31.8021C218.66 31.8651 218.737 31.9151 218.822 31.949C218.906 31.983 218.996 32.0003 219.088 32H255.299C257.752 31.0701 259.867 27.5277 258.641 24.1429C258.585 23.987 257.217 20.4754 253.861 20.3059ZM230.905 29.1661C230.907 29.2 230.913 29.2312 230.917 29.2641C230.911 29.2318 230.907 29.199 230.905 29.1661ZM243.411 29.1661C243.413 29.2 243.419 29.2312 243.423 29.2641C243.417 29.2318 243.412 29.199 243.411 29.1661Z" fill="#D8A353"/>
</svg>
