<svg width="218" height="67" viewBox="0 0 218 67" fill="none" xmlns="http://www.w3.org/2000/svg">
<path d="M27.4545 19.1602V17.9842L29.2785 17.9842C29.5825 17.9842 29.8465 17.9442 30.0705 17.8642C30.2945 17.7682 30.4625 17.6082 30.5745 17.3842C30.7025 17.1442 30.7665 16.8082 30.7665 16.3762L30.7665 4.11216C30.3665 4.60816 29.9905 5.04816 29.6385 5.43216C29.2865 5.80016 28.9505 6.08816 28.6305 6.29616C28.3105 6.50416 27.9905 6.60816 27.6705 6.60816C27.3025 6.60816 26.9905 6.46416 26.7345 6.17616C26.4785 5.88816 26.3505 5.50416 26.3505 5.02416C26.6705 4.94416 27.0065 4.84016 27.3585 4.71215C27.7265 4.56816 28.1185 4.37616 28.5345 4.13616C28.9665 3.88016 29.4465 3.56016 29.9745 3.17616L31.6545 1.92815H33.9105L33.9105 16.3762C33.9105 16.7602 33.9585 17.0722 34.0545 17.3122C34.1665 17.5522 34.3345 17.7282 34.5585 17.8402C34.7825 17.9362 35.0705 17.9842 35.4225 17.9842H37.0545V19.1602L27.4545 19.1602ZM45.2527 19.4002C43.8447 19.4002 42.7167 19.0322 41.8687 18.2962C41.0207 17.5602 40.4047 16.5282 40.0207 15.2002C39.6367 13.8722 39.4447 12.3202 39.4447 10.5442C39.4447 8.76816 39.6367 7.22416 40.0207 5.91216C40.4047 4.60016 41.0207 3.58416 41.8687 2.86416C42.7167 2.14416 43.8527 1.78416 45.2767 1.78416C46.6207 1.78416 47.7087 2.14416 48.5407 2.86416C49.3887 3.58416 50.0127 4.60816 50.4127 5.93616C50.8287 7.24816 51.0367 8.79216 51.0367 10.5682C51.0367 12.3442 50.8287 13.8962 50.4127 15.2242C50.0127 16.5362 49.3887 17.5602 48.5407 18.2962C47.6927 19.0322 46.5967 19.4002 45.2527 19.4002ZM45.2527 17.9362C45.7487 17.9362 46.1567 17.7762 46.4767 17.4562C46.8127 17.1202 47.0687 16.6402 47.2447 16.0162C47.4367 15.3762 47.5727 14.6002 47.6527 13.6882C47.7327 12.7762 47.7727 11.7362 47.7727 10.5682C47.7727 9.40016 47.7327 8.36816 47.6527 7.47216C47.5887 6.56016 47.4607 5.79216 47.2687 5.16816C47.0767 4.54416 46.8127 4.07216 46.4767 3.75216C46.1567 3.41616 45.7567 3.24816 45.2767 3.24816C44.7807 3.24816 44.3647 3.41616 44.0287 3.75216C43.6927 4.07216 43.4287 4.54416 43.2367 5.16816C43.0447 5.79216 42.9087 6.56016 42.8287 7.47216C42.7487 8.36816 42.7087 9.40016 42.7087 10.5682C42.7087 11.7362 42.7487 12.7762 42.8287 13.6882C42.9087 14.6002 43.0447 15.3762 43.2367 16.0162C43.4287 16.6402 43.6847 17.1202 44.0047 17.4562C44.3407 17.7762 44.7567 17.9362 45.2527 17.9362ZM57.819 19.4002C56.619 19.4002 55.667 19.2642 54.963 18.9922C54.275 18.7202 53.779 18.3762 53.475 17.9602C53.187 17.5442 53.043 17.1202 53.043 16.6882C53.043 16.1602 53.195 15.7682 53.499 15.5122C53.819 15.2402 54.251 15.1042 54.795 15.1042C54.795 15.5522 54.891 15.9922 55.083 16.4242C55.275 16.8402 55.571 17.1762 55.971 17.4322C56.371 17.6882 56.891 17.8162 57.531 17.8162C58.107 17.8162 58.635 17.6962 59.115 17.4562C59.595 17.2162 59.971 16.8162 60.243 16.2562C60.531 15.6802 60.675 14.8962 60.675 13.9042C60.675 13.0882 60.539 12.4082 60.267 11.8642C59.995 11.3202 59.603 10.9202 59.091 10.6642C58.579 10.4082 57.971 10.2802 57.267 10.2802C56.819 10.2802 56.427 10.3042 56.091 10.3522C55.755 10.3842 55.459 10.4402 55.203 10.5202C54.963 10.5842 54.723 10.6562 54.483 10.7362L53.595 10.4002L54.363 2.02416L63.027 2.02416L63.147 6.10416H61.923L61.755 5.33616C61.723 5.12816 61.667 4.96016 61.587 4.83216C61.523 4.68816 61.411 4.58416 61.251 4.52016C61.091 4.44016 60.867 4.40016 60.579 4.40016L55.731 4.40016L55.299 9.15216C55.475 9.08816 55.699 9.03216 55.971 8.98416C56.243 8.92016 56.555 8.87216 56.907 8.84016C57.275 8.80816 57.643 8.79216 58.011 8.79216C59.179 8.79216 60.203 8.98416 61.083 9.36816C61.979 9.73616 62.667 10.2962 63.147 11.0482C63.643 11.8002 63.891 12.7522 63.891 13.9042C63.891 14.6722 63.779 15.3522 63.555 15.9442C63.347 16.5362 63.051 17.0482 62.667 17.4802C62.299 17.9122 61.851 18.2722 61.323 18.5602C60.811 18.8482 60.251 19.0562 59.643 19.1842C59.051 19.3282 58.443 19.4002 57.819 19.4002ZM71.8972 19.4002C70.6172 19.4002 69.5532 19.1922 68.7052 18.7762C67.8732 18.3602 67.2492 17.8082 66.8332 17.1202C66.4172 16.4322 66.2092 15.6642 66.2092 14.8162C66.2092 14.0962 66.3612 13.4802 66.6652 12.9682C66.9692 12.4402 67.3852 11.9842 67.9132 11.6002C68.4572 11.2002 69.0812 10.8322 69.7852 10.4962C69.1612 10.1282 68.6252 9.73616 68.1772 9.32016C67.7292 8.88816 67.3772 8.40816 67.1212 7.88016C66.8812 7.35216 66.7612 6.76816 66.7612 6.12816C66.7612 5.37616 66.9372 4.67216 67.2892 4.01616C67.6412 3.36016 68.2092 2.82416 68.9932 2.40816C69.7932 1.99216 70.8572 1.78416 72.1852 1.78416C73.2732 1.78416 74.1852 1.96816 74.9212 2.33616C75.6572 2.68816 76.2092 3.17616 76.5772 3.80016C76.9612 4.42416 77.1532 5.14416 77.1532 5.96016C77.1532 6.95216 76.8572 7.73616 76.2652 8.31216C75.6892 8.87216 74.9052 9.40816 73.9132 9.92016C74.8092 10.3362 75.5532 10.7842 76.1452 11.2642C76.7372 11.7282 77.1772 12.2322 77.4652 12.7762C77.7532 13.3202 77.8972 13.9282 77.8972 14.6002C77.8972 16.1202 77.3612 17.3042 76.2892 18.1522C75.2332 18.9842 73.7692 19.4002 71.8972 19.4002ZM72.0172 18.1282C72.9132 18.1282 73.6332 17.8402 74.1772 17.2642C74.7212 16.6882 74.9932 15.9522 74.9932 15.0562C74.9932 14.6562 74.9212 14.2962 74.7772 13.9762C74.6332 13.6402 74.4092 13.3282 74.1052 13.0402C73.8172 12.7522 73.4332 12.4722 72.9532 12.2002C72.4732 11.9122 71.8972 11.6162 71.2252 11.3122C70.6012 11.6802 70.0892 12.1602 69.6892 12.7522C69.3052 13.3282 69.1132 14.0482 69.1132 14.9122C69.1132 15.8722 69.3692 16.6482 69.8812 17.2402C70.3932 17.8322 71.1052 18.1282 72.0172 18.1282ZM72.5452 9.20016C73.0252 8.94416 73.4012 8.67216 73.6732 8.38416C73.9612 8.08016 74.1612 7.72816 74.2732 7.32816C74.4012 6.92816 74.4652 6.45616 74.4652 5.91216C74.4652 5.43216 74.3772 4.98416 74.2012 4.56816C74.0412 4.13616 73.7772 3.78416 73.4092 3.51216C73.0572 3.22416 72.6012 3.08016 72.0412 3.08016C71.2892 3.08016 70.7132 3.34416 70.3132 3.87216C69.9132 4.38416 69.7132 5.04016 69.7132 5.84016C69.7132 6.40016 69.8172 6.88016 70.0252 7.28016C70.2492 7.66416 70.5692 8.00816 70.9852 8.31216C71.4172 8.61616 71.9372 8.91216 72.5452 9.20016ZM85.4418 19.1602V17.9842H85.5618C85.9298 17.9842 86.2498 17.9442 86.5218 17.8642C86.8098 17.7842 87.0418 17.6242 87.2178 17.3842C87.3938 17.1442 87.4818 16.7842 87.4818 16.3042L87.4578 3.60816C87.4578 3.16016 87.3618 2.83216 87.1698 2.62416C86.9778 2.40016 86.7458 2.25616 86.4738 2.19216C86.2018 2.12816 85.9298 2.09616 85.6578 2.09616H85.3938V0.920155H90.5778V5.38416C90.5778 5.75216 90.5618 6.14416 90.5298 6.56016C90.5138 6.96016 90.4898 7.31216 90.4578 7.61616C90.4418 7.90416 90.4338 8.04816 90.4338 8.04816H90.6018C90.8898 7.48816 91.2178 7.06416 91.5858 6.77616C91.9538 6.47216 92.3538 6.27216 92.7858 6.17616C93.2338 6.06416 93.7138 6.00816 94.2258 6.00816C95.5058 6.00816 96.4978 6.37616 97.2018 7.11216C97.9218 7.84816 98.2818 9.03216 98.2818 10.6642V16.2802C98.2818 16.7762 98.3458 17.1442 98.4738 17.3842C98.6178 17.6242 98.8178 17.7842 99.0738 17.8642C99.3298 17.9442 99.6338 17.9842 99.9858 17.9842H100.058V19.1602H95.1618V11.1202C95.1618 10.0802 95.0018 9.28016 94.6818 8.72016C94.3618 8.14416 93.7938 7.85616 92.9778 7.85616C92.4018 7.85616 91.9378 8.02416 91.5858 8.36016C91.2338 8.69616 90.9778 9.15216 90.8178 9.72816C90.6578 10.3042 90.5778 10.9442 90.5778 11.6482L90.6018 16.4002C90.6018 16.8642 90.6738 17.2082 90.8178 17.4322C90.9778 17.6562 91.1938 17.8082 91.4658 17.8882C91.7378 17.9522 92.0498 17.9842 92.4018 17.9842H92.4738V19.1602H85.4418ZM107.888 19.4002C105.968 19.4002 104.488 18.8242 103.448 17.6722C102.424 16.5042 101.912 14.8802 101.912 12.8002C101.912 10.5602 102.408 8.87216 103.4 7.73616C104.408 6.58416 105.816 6.00816 107.624 6.00816C109.304 6.00816 110.616 6.49616 111.56 7.47216C112.52 8.43216 113 9.86416 113 11.7682V12.9442L105.08 12.9442C105.112 14.0642 105.256 14.9762 105.512 15.6802C105.784 16.3682 106.16 16.8802 106.64 17.2162C107.136 17.5522 107.736 17.7202 108.44 17.7202C109 17.7202 109.496 17.6402 109.928 17.4802C110.376 17.3042 110.76 17.0802 111.08 16.8082C111.4 16.5202 111.656 16.2082 111.848 15.8722C112.024 15.9522 112.16 16.0882 112.256 16.2802C112.368 16.4562 112.424 16.6642 112.424 16.9042C112.424 17.3042 112.256 17.6962 111.92 18.0802C111.6 18.4642 111.104 18.7842 110.432 19.0402C109.776 19.2802 108.928 19.4002 107.888 19.4002ZM109.808 11.5042C109.808 10.6882 109.736 9.97616 109.592 9.36816C109.448 8.76016 109.216 8.29616 108.896 7.97616C108.592 7.64016 108.176 7.47216 107.648 7.47216C107.136 7.47216 106.696 7.62416 106.328 7.92816C105.976 8.23216 105.696 8.68816 105.488 9.29616C105.296 9.88816 105.176 10.6242 105.128 11.5042H109.808ZM121.032 19.4002C119.912 19.4002 118.92 19.1842 118.056 18.7522C117.192 18.3202 116.512 17.6242 116.016 16.6642C115.52 15.6882 115.272 14.3922 115.272 12.7762C115.272 11.0642 115.52 9.72016 116.016 8.74416C116.528 7.75216 117.208 7.04816 118.056 6.63216C118.92 6.21616 119.888 6.00816 120.96 6.00816C121.856 6.00816 122.64 6.11216 123.312 6.32016C124 6.52816 124.536 6.81616 124.92 7.18416C125.304 7.55216 125.496 7.99216 125.496 8.50416C125.496 8.85616 125.408 9.17616 125.232 9.46416C125.072 9.73616 124.792 9.95216 124.392 10.1122C123.992 10.2722 123.448 10.3522 122.76 10.3522C122.76 9.80816 122.704 9.31216 122.592 8.86416C122.496 8.41616 122.32 8.05616 122.064 7.78416C121.824 7.51216 121.472 7.37616 121.008 7.37616C120.496 7.37616 120.04 7.53616 119.64 7.85616C119.256 8.16016 118.96 8.70416 118.752 9.48816C118.544 10.2722 118.44 11.3602 118.44 12.7522C118.44 13.8562 118.552 14.7762 118.776 15.5122C119 16.2322 119.336 16.7762 119.784 17.1442C120.248 17.5122 120.856 17.6962 121.608 17.6962C122.136 17.6962 122.616 17.6162 123.048 17.4562C123.496 17.2962 123.88 17.0802 124.2 16.8082C124.536 16.5202 124.792 16.2002 124.968 15.8482C125.128 15.9602 125.248 16.1042 125.328 16.2802C125.424 16.4562 125.472 16.6562 125.472 16.8802C125.472 17.2802 125.312 17.6722 124.992 18.0562C124.672 18.4402 124.184 18.7602 123.528 19.0162C122.888 19.2722 122.056 19.4002 121.032 19.4002ZM132.208 19.4002C131.072 19.4002 130.2 19.1202 129.592 18.5602C129 18.0002 128.704 17.0242 128.704 15.6322V7.83216H126.88V6.70415C127.312 6.70415 127.72 6.61616 128.104 6.44016C128.488 6.26416 128.808 6.04816 129.064 5.79216C129.304 5.52016 129.52 5.18416 129.712 4.78416C129.904 4.38416 130.056 3.89616 130.168 3.32016H131.824V6.29616H134.92V7.83216H131.824V15.5122C131.824 16.2642 131.96 16.8242 132.232 17.1922C132.52 17.5442 132.936 17.7202 133.48 17.7202C133.8 17.7202 134.088 17.7042 134.344 17.6722C134.616 17.6242 134.88 17.5682 135.136 17.5042V18.8722C134.896 18.9842 134.512 19.0962 133.984 19.2082C133.472 19.3362 132.88 19.4002 132.208 19.4002ZM140.506 19.4002C139.802 19.4002 139.162 19.2642 138.586 18.9922C138.026 18.7042 137.578 18.2722 137.242 17.6962C136.922 17.1202 136.762 16.3922 136.762 15.5122C136.762 14.2322 137.21 13.2802 138.106 12.6562C139.002 12.0322 140.354 11.6882 142.162 11.6242L144.154 11.5522V10.1842C144.154 9.64016 144.114 9.16016 144.034 8.74416C143.954 8.31216 143.786 7.97616 143.53 7.73616C143.29 7.49616 142.906 7.37616 142.378 7.37616C141.898 7.37616 141.522 7.48816 141.25 7.71216C140.978 7.93616 140.794 8.24816 140.698 8.64816C140.602 9.03216 140.554 9.47216 140.554 9.96816C139.626 9.96816 138.93 9.85616 138.466 9.63216C138.002 9.39216 137.77 8.98416 137.77 8.40816C137.77 7.83216 137.978 7.36816 138.394 7.01616C138.826 6.66416 139.402 6.40816 140.122 6.24816C140.842 6.08816 141.626 6.00816 142.474 6.00816C144.074 6.00816 145.274 6.32016 146.074 6.94416C146.874 7.55216 147.274 8.60816 147.274 10.1122V16.2802C147.274 16.7122 147.314 17.0562 147.394 17.3122C147.49 17.5522 147.65 17.7282 147.874 17.8402C148.098 17.9362 148.386 17.9842 148.738 17.9842H148.81V19.1602H144.826L144.346 17.3602H144.154C143.802 17.7922 143.466 18.1602 143.146 18.4642C142.842 18.7682 142.482 19.0002 142.066 19.1602C141.666 19.3202 141.146 19.4002 140.506 19.4002ZM141.538 17.7442C142.082 17.7442 142.546 17.6162 142.93 17.3602C143.314 17.1042 143.61 16.7362 143.818 16.2562C144.042 15.7762 144.154 15.2162 144.154 14.5762V12.7282L142.906 12.8002C142.154 12.8322 141.562 12.9602 141.13 13.1842C140.714 13.4082 140.41 13.7202 140.218 14.1202C140.042 14.5202 139.954 15.0162 139.954 15.6082C139.954 16.0882 140.01 16.4882 140.122 16.8082C140.234 17.1122 140.41 17.3442 140.65 17.5042C140.89 17.6642 141.186 17.7442 141.538 17.7442ZM150.273 19.1602V17.9842H150.345C150.713 17.9842 151.033 17.9442 151.305 17.8642C151.593 17.7842 151.817 17.6242 151.977 17.3842C152.153 17.1282 152.241 16.7522 152.241 16.2562V9.10416C152.241 8.62416 152.161 8.27216 152.001 8.04816C151.841 7.80816 151.625 7.65616 151.353 7.59216C151.081 7.51216 150.769 7.47216 150.417 7.47216H150.345V6.29616L154.761 6.29616L155.217 8.36016H155.337C155.545 7.88016 155.777 7.46416 156.033 7.11216C156.305 6.76016 156.649 6.49616 157.065 6.32016C157.481 6.12816 158.025 6.03216 158.697 6.03216C159.609 6.03216 160.281 6.19216 160.713 6.51216C161.161 6.83216 161.385 7.29616 161.385 7.90416C161.385 8.54416 161.153 9.05616 160.689 9.44016C160.225 9.80816 159.545 9.99216 158.649 9.99216C158.649 9.54416 158.609 9.18416 158.529 8.91216C158.465 8.62416 158.345 8.40816 158.169 8.26416C157.993 8.12016 157.753 8.04816 157.449 8.04816C157.017 8.04816 156.665 8.20816 156.393 8.52816C156.121 8.83216 155.905 9.21616 155.745 9.68016C155.601 10.1442 155.497 10.6242 155.433 11.1202C155.385 11.6162 155.361 12.0322 155.361 12.3682V16.3762C155.361 16.8402 155.441 17.1922 155.601 17.4322C155.761 17.6562 155.977 17.8082 156.249 17.8882C156.521 17.9522 156.817 17.9842 157.137 17.9842H157.881V19.1602L150.273 19.1602ZM168.92 19.4002C167 19.4002 165.52 18.8242 164.48 17.6722C163.456 16.5042 162.944 14.8802 162.944 12.8002C162.944 10.5602 163.44 8.87216 164.432 7.73616C165.44 6.58416 166.848 6.00816 168.656 6.00816C170.336 6.00816 171.648 6.49616 172.592 7.47216C173.552 8.43216 174.032 9.86416 174.032 11.7682V12.9442H166.112C166.144 14.0642 166.288 14.9762 166.544 15.6802C166.816 16.3682 167.192 16.8802 167.672 17.2162C168.168 17.5522 168.768 17.7202 169.472 17.7202C170.032 17.7202 170.528 17.6402 170.96 17.4802C171.408 17.3042 171.792 17.0802 172.112 16.8082C172.432 16.5202 172.688 16.2082 172.88 15.8722C173.056 15.9522 173.192 16.0882 173.288 16.2802C173.4 16.4562 173.456 16.6642 173.456 16.9042C173.456 17.3042 173.288 17.6962 172.952 18.0802C172.632 18.4642 172.136 18.7842 171.464 19.0402C170.808 19.2802 169.96 19.4002 168.92 19.4002ZM170.84 11.5042C170.84 10.6882 170.768 9.97616 170.624 9.36816C170.48 8.76016 170.248 8.29616 169.928 7.97616C169.624 7.64016 169.208 7.47216 168.68 7.47216C168.168 7.47216 167.728 7.62416 167.36 7.92816C167.008 8.23216 166.728 8.68816 166.52 9.29616C166.328 9.88816 166.208 10.6242 166.16 11.5042H170.84ZM180.455 19.4002C179.431 19.4002 178.583 19.2882 177.911 19.0642C177.255 18.8402 176.767 18.5282 176.447 18.1282C176.127 17.7122 175.967 17.2322 175.967 16.6882C175.967 16.1922 176.079 15.8242 176.303 15.5842C176.527 15.3282 176.791 15.1602 177.095 15.0802C177.399 14.9842 177.671 14.9362 177.911 14.9362C177.911 15.5602 178.007 16.1122 178.199 16.5922C178.407 17.0562 178.703 17.4242 179.087 17.6962C179.471 17.9522 179.943 18.0802 180.503 18.0802C181.351 18.0802 181.975 17.9042 182.375 17.5522C182.775 17.2002 182.975 16.7602 182.975 16.2322C182.975 15.8642 182.887 15.5522 182.711 15.2962C182.551 15.0402 182.255 14.7922 181.823 14.5522C181.391 14.3122 180.791 14.0482 180.023 13.7602C179.191 13.4402 178.487 13.1042 177.911 12.7522C177.335 12.3842 176.903 11.9602 176.615 11.4802C176.327 11.0002 176.183 10.4002 176.183 9.68016C176.183 8.48016 176.631 7.57616 177.527 6.96816C178.423 6.34416 179.607 6.03216 181.079 6.03216C182.007 6.03216 182.759 6.13616 183.335 6.34416C183.911 6.55216 184.335 6.83216 184.607 7.18416C184.879 7.52016 185.015 7.88016 185.015 8.26416C185.015 8.76016 184.839 9.14416 184.487 9.41616C184.151 9.68816 183.607 9.82416 182.855 9.82416C182.855 9.02416 182.679 8.40816 182.327 7.97616C181.975 7.52816 181.447 7.30416 180.743 7.30416C180.343 7.30416 179.983 7.36816 179.663 7.49616C179.359 7.62416 179.119 7.81616 178.943 8.07216C178.767 8.31216 178.679 8.60816 178.679 8.96016C178.679 9.31216 178.775 9.62416 178.967 9.89616C179.159 10.1522 179.487 10.4002 179.951 10.6402C180.415 10.8802 181.047 11.1442 181.847 11.4322C182.615 11.7202 183.263 12.0402 183.791 12.3922C184.335 12.7282 184.751 13.1362 185.039 13.6162C185.327 14.0962 185.471 14.6722 185.471 15.3442C185.471 16.6402 185.023 17.6402 184.127 18.3442C183.247 19.0482 182.023 19.4002 180.455 19.4002ZM6.75503 61.4002C4.91503 61.4002 3.45903 60.8482 2.38703 59.7442C1.33103 58.6402 0.803027 56.9522 0.803027 54.6802C0.803027 52.4402 1.30703 50.7682 2.31503 49.6642C3.33903 48.5602 4.84303 48.0082 6.82703 48.0082C8.68303 48.0082 10.139 48.5602 11.195 49.6642C12.251 50.7682 12.779 52.4402 12.779 54.6802C12.779 56.9522 12.267 58.6402 11.243 59.7442C10.235 60.8482 8.73903 61.4002 6.75503 61.4002ZM6.80303 59.9842C7.49103 59.9842 8.03503 59.7922 8.43503 59.4082C8.85103 59.0082 9.14703 58.4082 9.32303 57.6082C9.49903 56.8082 9.58703 55.8322 9.58703 54.6802C9.58703 53.5122 9.49103 52.5442 9.29903 51.7762C9.12303 51.0082 8.82703 50.4322 8.41103 50.0482C8.01103 49.6482 7.46703 49.4482 6.77903 49.4482C6.10703 49.4482 5.56303 49.6482 5.14703 50.0482C4.73103 50.4322 4.43503 51.0082 4.25903 51.7762C4.08303 52.5442 3.99503 53.5122 3.99503 54.6802C3.99503 55.8482 4.08303 56.8242 4.25903 57.6082C4.45103 58.3922 4.74703 58.9842 5.14703 59.3842C5.56303 59.7842 6.11503 59.9842 6.80303 59.9842ZM14.4982 61.1602V59.9842H14.9542C15.2422 59.9842 15.5222 59.9522 15.7942 59.8882C16.0662 59.8082 16.2902 59.6562 16.4662 59.4322C16.6582 59.1922 16.7542 58.8402 16.7542 58.3762V49.7362H14.5942V48.2962H16.7542V47.2882C16.7542 45.8322 17.1382 44.7042 17.9062 43.9042C18.6902 43.1042 19.8582 42.7042 21.4102 42.7042C22.3702 42.7042 23.1142 42.7762 23.6422 42.9202C24.1862 43.0642 24.5702 43.2642 24.7942 43.5202C25.0342 43.7762 25.1542 44.0722 25.1542 44.4082C25.1542 44.7442 25.0582 45.0242 24.8662 45.2482C24.6742 45.4562 24.3782 45.6162 23.9782 45.7282C23.5942 45.8402 23.1302 45.8962 22.5862 45.8962C22.5862 45.6242 22.5382 45.3362 22.4422 45.0322C22.3622 44.7282 22.2262 44.4722 22.0342 44.2642C21.8422 44.0562 21.5782 43.9522 21.2422 43.9522C20.7302 43.9522 20.3702 44.1922 20.1622 44.6722C19.9702 45.1522 19.8742 45.9042 19.8742 46.9282V48.2962H23.2102V49.7362H19.8742V58.3762C19.8742 58.8402 19.9622 59.1922 20.1382 59.4322C20.3142 59.6562 20.5462 59.8082 20.8342 59.8882C21.1222 59.9522 21.4022 59.9842 21.6742 59.9842H22.7302V61.1602H14.4982ZM29.9865 61.1602V59.9842H30.2985C30.5865 59.9842 30.8665 59.9522 31.1385 59.8882C31.4105 59.8082 31.6345 59.6562 31.8105 59.4322C32.0025 59.1922 32.0985 58.8402 32.0985 58.3762V45.6082C32.0985 45.1602 32.0025 44.8322 31.8105 44.6242C31.6185 44.4002 31.3865 44.2562 31.1145 44.1922C30.8425 44.1282 30.5705 44.0962 30.2985 44.0962H29.9865V42.9202H35.2185V58.3762C35.2185 58.8402 35.3065 59.1922 35.4825 59.4322C35.6745 59.6562 35.9065 59.8082 36.1785 59.8882C36.4665 59.9522 36.7465 59.9842 37.0185 59.9842H37.3305V61.1602H29.9865ZM42.561 61.4002C41.857 61.4002 41.217 61.2642 40.641 60.9922C40.081 60.7042 39.633 60.2722 39.297 59.6962C38.977 59.1202 38.817 58.3922 38.817 57.5122C38.817 56.2322 39.265 55.2802 40.161 54.6562C41.057 54.0322 42.409 53.6882 44.217 53.6242L46.209 53.5522V52.1842C46.209 51.6402 46.169 51.1602 46.089 50.7442C46.009 50.3122 45.841 49.9762 45.585 49.7362C45.345 49.4962 44.961 49.3762 44.433 49.3762C43.953 49.3762 43.577 49.4882 43.305 49.7122C43.033 49.9362 42.849 50.2482 42.753 50.6482C42.657 51.0322 42.609 51.4722 42.609 51.9682C41.681 51.9682 40.985 51.8562 40.521 51.6322C40.057 51.3922 39.825 50.9842 39.825 50.4082C39.825 49.8322 40.033 49.3682 40.449 49.0162C40.881 48.6642 41.457 48.4082 42.177 48.2482C42.897 48.0882 43.681 48.0082 44.529 48.0082C46.129 48.0082 47.329 48.3202 48.129 48.9442C48.929 49.5522 49.329 50.6082 49.329 52.1122V58.2802C49.329 58.7122 49.369 59.0562 49.449 59.3122C49.545 59.5522 49.705 59.7282 49.929 59.8402C50.153 59.9362 50.441 59.9842 50.793 59.9842H50.865V61.1602H46.881L46.401 59.3602H46.209C45.857 59.7922 45.521 60.1602 45.201 60.4642C44.897 60.7682 44.537 61.0002 44.121 61.1602C43.721 61.3202 43.201 61.4002 42.561 61.4002ZM43.593 59.7442C44.137 59.7442 44.601 59.6162 44.985 59.3602C45.369 59.1042 45.665 58.7362 45.873 58.2562C46.097 57.7762 46.209 57.2162 46.209 56.5762V54.7282L44.961 54.8002C44.209 54.8322 43.617 54.9602 43.185 55.1842C42.769 55.4082 42.465 55.7202 42.273 56.1202C42.097 56.5202 42.009 57.0162 42.009 57.6082C42.009 58.0882 42.065 58.4882 42.177 58.8082C42.289 59.1122 42.465 59.3442 42.705 59.5042C42.945 59.6642 43.241 59.7442 43.593 59.7442ZM52.28 61.1602V59.9842H52.376C52.744 59.9842 53.072 59.9442 53.36 59.8642C53.648 59.7842 53.872 59.6242 54.032 59.3842C54.208 59.1442 54.296 58.7842 54.296 58.3042V51.0562C54.296 50.5922 54.216 50.2482 54.056 50.0242C53.896 49.8002 53.68 49.6562 53.408 49.5922C53.152 49.5122 52.848 49.4722 52.496 49.4722H52.4V48.2962H57.008L57.32 50.0962H57.44C57.76 49.4882 58.104 49.0402 58.472 48.7522C58.856 48.4482 59.264 48.2482 59.696 48.1522C60.144 48.0562 60.624 48.0082 61.136 48.0082C62.384 48.0082 63.36 48.3762 64.064 49.1122C64.768 49.8482 65.12 51.0322 65.12 52.6642V58.2802C65.12 58.7762 65.184 59.1442 65.312 59.3842C65.456 59.6242 65.648 59.7842 65.888 59.8642C66.144 59.9442 66.448 59.9842 66.8 59.9842H66.896V61.1602H62V53.1202C62 52.0802 61.832 51.2802 61.496 50.7202C61.176 50.1442 60.616 49.8562 59.816 49.8562C59.208 49.8562 58.728 50.0322 58.376 50.3842C58.04 50.7362 57.792 51.2002 57.632 51.7762C57.488 52.3522 57.416 52.9762 57.416 53.6482V58.4002C57.416 58.8642 57.488 59.2082 57.632 59.4322C57.792 59.6562 58.008 59.8082 58.28 59.8882C58.552 59.9522 58.864 59.9842 59.216 59.9842H59.312V61.1602H52.28ZM73.6203 61.4002C72.5803 61.4002 71.6923 61.1682 70.9563 60.7042C70.2363 60.2402 69.6843 59.5202 69.3003 58.5442C68.9163 57.5522 68.7243 56.2882 68.7243 54.7522C68.7243 53.2002 68.9083 51.9282 69.2763 50.9362C69.6603 49.9442 70.2123 49.2162 70.9323 48.7522C71.6683 48.2722 72.5563 48.0322 73.5963 48.0322C74.5083 48.0322 75.2523 48.2162 75.8283 48.5842C76.4043 48.9522 76.8683 49.4322 77.2203 50.0242H77.3643C77.3323 49.7362 77.3003 49.4242 77.2683 49.0882C77.2523 48.7522 77.2363 48.4162 77.2203 48.0802C77.2043 47.7442 77.1963 47.4482 77.1963 47.1922V45.6322C77.1963 45.1682 77.1083 44.8322 76.9323 44.6242C76.7563 44.4002 76.5163 44.2562 76.2123 44.1922C75.9243 44.1282 75.6043 44.0962 75.2523 44.0962H75.0603V42.9202H80.3163V58.3282C80.3163 58.8082 80.4043 59.1682 80.5803 59.4082C80.7723 59.6482 81.0123 59.8082 81.3003 59.8882C81.6043 59.9522 81.9403 59.9842 82.3083 59.9842H82.4283V61.1602H78.0123L77.4843 59.1682H77.3163C76.9643 59.8562 76.5003 60.4002 75.9243 60.8002C75.3483 61.2002 74.5803 61.4002 73.6203 61.4002ZM74.4363 59.6962C75.4923 59.6962 76.2123 59.2882 76.5963 58.4722C76.9963 57.6562 77.1963 56.4082 77.1963 54.7282C77.1963 53.6402 77.1083 52.7282 76.9323 51.9922C76.7723 51.2402 76.4923 50.6722 76.0923 50.2882C75.6923 49.9042 75.1323 49.7122 74.4123 49.7122C73.8203 49.7122 73.3403 49.9122 72.9723 50.3122C72.6043 50.6962 72.3323 51.2642 72.1563 52.0162C71.9963 52.7522 71.9163 53.6642 71.9163 54.7522C71.9163 55.8562 71.9963 56.7762 72.1563 57.5122C72.3323 58.2322 72.6043 58.7762 72.9723 59.1442C73.3403 59.5122 73.8283 59.6962 74.4363 59.6962ZM89.4005 61.1602V59.9842H89.7125C90.0005 59.9842 90.2805 59.9522 90.5525 59.8882C90.8245 59.8082 91.0485 59.6562 91.2245 59.4322C91.4165 59.1922 91.5125 58.8402 91.5125 58.3762V45.6082C91.5125 45.1602 91.4165 44.8322 91.2245 44.6242C91.0325 44.4002 90.8005 44.2562 90.5285 44.1922C90.2565 44.1282 89.9845 44.0962 89.7125 44.0962H89.4005V42.9202H94.6325V58.3762C94.6325 58.8402 94.7205 59.1922 94.8965 59.4322C95.0885 59.6562 95.3205 59.8082 95.5925 59.8882C95.8805 59.9522 96.1605 59.9842 96.4325 59.9842H96.7445V61.1602H89.4005ZM104.255 61.4002C102.415 61.4002 100.959 60.8482 99.887 59.7442C98.831 58.6402 98.303 56.9522 98.303 54.6802C98.303 52.4402 98.807 50.7682 99.815 49.6642C100.839 48.5602 102.343 48.0082 104.327 48.0082C106.183 48.0082 107.639 48.5602 108.695 49.6642C109.751 50.7682 110.279 52.4402 110.279 54.6802C110.279 56.9522 109.767 58.6402 108.743 59.7442C107.735 60.8482 106.239 61.4002 104.255 61.4002ZM104.303 59.9842C104.991 59.9842 105.535 59.7922 105.935 59.4082C106.351 59.0082 106.647 58.4082 106.823 57.6082C106.999 56.8082 107.087 55.8322 107.087 54.6802C107.087 53.5122 106.991 52.5442 106.799 51.7762C106.623 51.0082 106.327 50.4322 105.911 50.0482C105.511 49.6482 104.967 49.4482 104.279 49.4482C103.607 49.4482 103.063 49.6482 102.647 50.0482C102.231 50.4322 101.935 51.0082 101.759 51.7762C101.583 52.5442 101.495 53.5122 101.495 54.6802C101.495 55.8482 101.583 56.8242 101.759 57.6082C101.951 58.3922 102.247 58.9842 102.647 59.3842C103.063 59.7842 103.615 59.9842 104.303 59.9842ZM116.822 61.4002C115.798 61.4002 114.95 61.2882 114.278 61.0642C113.622 60.8402 113.134 60.5282 112.814 60.1282C112.494 59.7122 112.334 59.2322 112.334 58.6882C112.334 58.1922 112.446 57.8242 112.67 57.5842C112.894 57.3282 113.158 57.1602 113.462 57.0802C113.766 56.9842 114.038 56.9362 114.278 56.9362C114.278 57.5602 114.374 58.1122 114.566 58.5922C114.774 59.0562 115.07 59.4242 115.454 59.6962C115.838 59.9522 116.31 60.0802 116.87 60.0802C117.718 60.0802 118.342 59.9042 118.742 59.5522C119.142 59.2002 119.342 58.7602 119.342 58.2322C119.342 57.8642 119.254 57.5522 119.078 57.2962C118.918 57.0402 118.622 56.7922 118.19 56.5522C117.758 56.3122 117.158 56.0482 116.39 55.7602C115.558 55.4402 114.854 55.1042 114.278 54.7522C113.702 54.3842 113.27 53.9602 112.982 53.4802C112.694 53.0002 112.55 52.4002 112.55 51.6802C112.55 50.4802 112.998 49.5762 113.894 48.9682C114.79 48.3442 115.974 48.0322 117.446 48.0322C118.374 48.0322 119.126 48.1362 119.702 48.3442C120.278 48.5522 120.702 48.8322 120.974 49.1842C121.246 49.5202 121.382 49.8802 121.382 50.2642C121.382 50.7602 121.206 51.1442 120.854 51.4162C120.518 51.6882 119.974 51.8242 119.222 51.8242C119.222 51.0242 119.046 50.4082 118.694 49.9762C118.342 49.5282 117.814 49.3042 117.11 49.3042C116.71 49.3042 116.35 49.3682 116.03 49.4962C115.726 49.6242 115.486 49.8162 115.31 50.0722C115.134 50.3122 115.046 50.6082 115.046 50.9602C115.046 51.3122 115.142 51.6242 115.334 51.8962C115.526 52.1522 115.854 52.4002 116.318 52.6402C116.782 52.8802 117.414 53.1442 118.214 53.4322C118.982 53.7202 119.63 54.0402 120.158 54.3922C120.702 54.7282 121.118 55.1362 121.406 55.6162C121.694 56.0962 121.838 56.6722 121.838 57.3442C121.838 58.6402 121.39 59.6402 120.494 60.3442C119.614 61.0482 118.39 61.4002 116.822 61.4002ZM128.189 61.4002C127.165 61.4002 126.317 61.2882 125.645 61.0642C124.989 60.8402 124.501 60.5282 124.181 60.1282C123.861 59.7122 123.701 59.2322 123.701 58.6882C123.701 58.1922 123.813 57.8242 124.037 57.5842C124.261 57.3282 124.525 57.1602 124.829 57.0802C125.133 56.9842 125.405 56.9362 125.645 56.9362C125.645 57.5602 125.741 58.1122 125.933 58.5922C126.141 59.0562 126.437 59.4242 126.821 59.6962C127.205 59.9522 127.677 60.0802 128.237 60.0802C129.085 60.0802 129.709 59.9042 130.109 59.5522C130.509 59.2002 130.709 58.7602 130.709 58.2322C130.709 57.8642 130.621 57.5522 130.445 57.2962C130.285 57.0402 129.989 56.7922 129.557 56.5522C129.125 56.3122 128.525 56.0482 127.757 55.7602C126.925 55.4402 126.221 55.1042 125.645 54.7522C125.069 54.3842 124.637 53.9602 124.349 53.4802C124.061 53.0002 123.917 52.4002 123.917 51.6802C123.917 50.4802 124.365 49.5762 125.261 48.9682C126.157 48.3442 127.341 48.0322 128.813 48.0322C129.741 48.0322 130.493 48.1362 131.069 48.3442C131.645 48.5522 132.069 48.8322 132.341 49.1842C132.613 49.5202 132.749 49.8802 132.749 50.2642C132.749 50.7602 132.573 51.1442 132.221 51.4162C131.885 51.6882 131.341 51.8242 130.589 51.8242C130.589 51.0242 130.413 50.4082 130.061 49.9762C129.709 49.5282 129.181 49.3042 128.477 49.3042C128.077 49.3042 127.717 49.3682 127.397 49.4962C127.093 49.6242 126.853 49.8162 126.677 50.0722C126.501 50.3122 126.413 50.6082 126.413 50.9602C126.413 51.3122 126.509 51.6242 126.701 51.8962C126.893 52.1522 127.221 52.4002 127.685 52.6402C128.149 52.8802 128.781 53.1442 129.581 53.4322C130.349 53.7202 130.997 54.0402 131.525 54.3922C132.069 54.7282 132.485 55.1362 132.773 55.6162C133.061 56.0962 133.205 56.6722 133.205 57.3442C133.205 58.6402 132.757 59.6402 131.861 60.3442C130.981 61.0482 129.757 61.4002 128.189 61.4002ZM147.615 61.4002C145.695 61.4002 144.215 60.8242 143.175 59.6722C142.151 58.5042 141.639 56.8802 141.639 54.8002C141.639 52.5602 142.135 50.8722 143.127 49.7362C144.135 48.5842 145.543 48.0082 147.351 48.0082C149.031 48.0082 150.343 48.4962 151.287 49.4722C152.247 50.4322 152.727 51.8642 152.727 53.7682V54.9442H144.807C144.839 56.0642 144.983 56.9762 145.239 57.6802C145.511 58.3682 145.887 58.8802 146.367 59.2162C146.863 59.5522 147.463 59.7202 148.167 59.7202C148.727 59.7202 149.223 59.6402 149.655 59.4802C150.103 59.3042 150.487 59.0802 150.807 58.8082C151.127 58.5202 151.383 58.2082 151.575 57.8722C151.751 57.9522 151.887 58.0882 151.983 58.2802C152.095 58.4562 152.151 58.6642 152.151 58.9042C152.151 59.3042 151.983 59.6962 151.647 60.0802C151.327 60.4642 150.831 60.7842 150.159 61.0402C149.503 61.2802 148.655 61.4002 147.615 61.4002ZM149.535 53.5042C149.535 52.6882 149.463 51.9762 149.319 51.3682C149.175 50.7602 148.943 50.2962 148.623 49.9762C148.319 49.6402 147.903 49.4722 147.375 49.4722C146.863 49.4722 146.423 49.6242 146.055 49.9282C145.703 50.2322 145.423 50.6882 145.215 51.2962C145.023 51.8882 144.903 52.6242 144.855 53.5042H149.535ZM160.926 66.9202V65.7442H161.502C161.854 65.7442 162.174 65.7042 162.462 65.6242C162.766 65.5602 163.006 65.4162 163.182 65.1922C163.358 64.9682 163.446 64.6242 163.446 64.1602V62.2882C163.446 61.9842 163.454 61.6482 163.47 61.2802C163.486 60.9122 163.502 60.5522 163.518 60.2002C163.55 59.8482 163.582 59.5442 163.614 59.2882H163.47C163.23 59.7042 162.942 60.0722 162.606 60.3922C162.286 60.6962 161.902 60.9442 161.454 61.1362C161.006 61.3122 160.47 61.4002 159.846 61.4002C158.278 61.4002 157.07 60.8642 156.222 59.7922C155.39 58.7202 154.974 57.0322 154.974 54.7282C154.974 53.1762 155.158 51.9122 155.526 50.9362C155.91 49.9442 156.47 49.2162 157.206 48.7522C157.942 48.2882 158.83 48.0562 159.87 48.0562C160.814 48.0562 161.574 48.2482 162.15 48.6322C162.742 49.0162 163.214 49.5282 163.566 50.1682H163.758L164.214 48.2962H168.678V49.4722H168.558C168.206 49.4722 167.878 49.5122 167.574 49.5922C167.27 49.6722 167.022 49.8322 166.83 50.0722C166.654 50.2962 166.566 50.6642 166.566 51.1762V64.2082C166.566 64.6562 166.654 64.9922 166.83 65.2162C167.006 65.4402 167.238 65.5842 167.526 65.6482C167.83 65.7122 168.158 65.7442 168.51 65.7442H168.87V66.9202H160.926ZM160.686 59.7202C161.214 59.7202 161.654 59.6162 162.006 59.4082C162.358 59.2002 162.638 58.8882 162.846 58.4722C163.07 58.0402 163.222 57.5202 163.302 56.9122C163.398 56.2882 163.446 55.5682 163.446 54.7522C163.446 53.6482 163.358 52.7282 163.182 51.9922C163.022 51.2402 162.742 50.6802 162.342 50.3122C161.942 49.9442 161.382 49.7602 160.662 49.7602C160.07 49.7602 159.59 49.9522 159.222 50.3362C158.854 50.7042 158.582 51.2562 158.406 51.9922C158.246 52.7282 158.166 53.6482 158.166 54.7522C158.166 55.8402 158.246 56.7522 158.406 57.4882C158.582 58.2242 158.854 58.7842 159.222 59.1682C159.59 59.5362 160.078 59.7202 160.686 59.7202ZM175.369 61.4002C174.105 61.4002 173.137 61.0242 172.465 60.2722C171.793 59.5042 171.457 58.3042 171.457 56.6722V51.1522C171.457 50.6722 171.385 50.3122 171.241 50.0722C171.097 49.8322 170.889 49.6722 170.617 49.5922C170.361 49.5122 170.049 49.4722 169.681 49.4722H169.633V48.2962H174.577V56.1922C174.577 56.8962 174.633 57.4962 174.745 57.9922C174.873 58.4882 175.089 58.8722 175.393 59.1442C175.697 59.4162 176.113 59.5522 176.641 59.5522C177.233 59.5522 177.713 59.4002 178.081 59.0962C178.449 58.7762 178.721 58.3362 178.897 57.7762C179.073 57.2162 179.161 56.5602 179.161 55.8082V51.0802C179.161 50.6002 179.073 50.2482 178.897 50.0242C178.737 49.8002 178.521 49.6562 178.249 49.5922C177.977 49.5122 177.673 49.4722 177.337 49.4722H177.265V48.2962H182.281V58.4482C182.281 58.9122 182.353 59.2562 182.497 59.4802C182.657 59.6882 182.873 59.8242 183.145 59.8882C183.417 59.9522 183.713 59.9842 184.033 59.9842H184.177V61.1602H179.761L179.305 59.3602H179.185C178.945 59.7922 178.681 60.1442 178.393 60.4162C178.105 60.6722 177.801 60.8722 177.481 61.0162C177.161 61.1602 176.825 61.2562 176.473 61.3042C176.121 61.3682 175.753 61.4002 175.369 61.4002ZM189.631 61.4002C188.927 61.4002 188.287 61.2642 187.711 60.9922C187.151 60.7042 186.703 60.2722 186.367 59.6962C186.047 59.1202 185.887 58.3922 185.887 57.5122C185.887 56.2322 186.335 55.2802 187.231 54.6562C188.127 54.0322 189.479 53.6882 191.287 53.6242L193.279 53.5522V52.1842C193.279 51.6402 193.239 51.1602 193.159 50.7442C193.079 50.3122 192.911 49.9762 192.655 49.7362C192.415 49.4962 192.031 49.3762 191.503 49.3762C191.023 49.3762 190.647 49.4882 190.375 49.7122C190.103 49.9362 189.919 50.2482 189.823 50.6482C189.727 51.0322 189.679 51.4722 189.679 51.9682C188.751 51.9682 188.055 51.8562 187.591 51.6322C187.127 51.3922 186.895 50.9842 186.895 50.4082C186.895 49.8322 187.103 49.3682 187.519 49.0162C187.951 48.6642 188.527 48.4082 189.247 48.2482C189.967 48.0882 190.751 48.0082 191.599 48.0082C193.199 48.0082 194.399 48.3202 195.199 48.9442C195.999 49.5522 196.399 50.6082 196.399 52.1122V58.2802C196.399 58.7122 196.439 59.0562 196.519 59.3122C196.615 59.5522 196.775 59.7282 196.999 59.8402C197.223 59.9362 197.511 59.9842 197.863 59.9842H197.935V61.1602H193.951L193.471 59.3602H193.279C192.927 59.7922 192.591 60.1602 192.271 60.4642C191.967 60.7682 191.607 61.0002 191.191 61.1602C190.791 61.3202 190.271 61.4002 189.631 61.4002ZM190.663 59.7442C191.207 59.7442 191.671 59.6162 192.055 59.3602C192.439 59.1042 192.735 58.7362 192.943 58.2562C193.167 57.7762 193.279 57.2162 193.279 56.5762V54.7282L192.031 54.8002C191.279 54.8322 190.687 54.9602 190.255 55.1842C189.839 55.4082 189.535 55.7202 189.343 56.1202C189.167 56.5202 189.079 57.0162 189.079 57.6082C189.079 58.0882 189.135 58.4882 189.247 58.8082C189.359 59.1122 189.535 59.3442 189.775 59.5042C190.015 59.6642 190.311 59.7442 190.663 59.7442ZM199.158 61.1602V59.9842H199.47C199.758 59.9842 200.038 59.9522 200.31 59.8882C200.582 59.8082 200.806 59.6562 200.982 59.4322C201.174 59.1922 201.27 58.8402 201.27 58.3762V45.6082C201.27 45.1602 201.174 44.8322 200.982 44.6242C200.79 44.4002 200.558 44.2562 200.286 44.1922C200.014 44.1282 199.742 44.0962 199.47 44.0962H199.158V42.9202H204.39V58.3762C204.39 58.8402 204.478 59.1922 204.654 59.4322C204.846 59.6562 205.078 59.8082 205.35 59.8882C205.638 59.9522 205.918 59.9842 206.19 59.9842H206.502V61.1602H199.158ZM212.213 61.4002C211.189 61.4002 210.341 61.2882 209.669 61.0642C209.013 60.8402 208.525 60.5282 208.205 60.1282C207.885 59.7122 207.725 59.2322 207.725 58.6882C207.725 58.1922 207.837 57.8242 208.061 57.5842C208.285 57.3282 208.549 57.1602 208.853 57.0802C209.157 56.9842 209.429 56.9362 209.669 56.9362C209.669 57.5602 209.765 58.1122 209.957 58.5922C210.165 59.0562 210.461 59.4242 210.845 59.6962C211.229 59.9522 211.701 60.0802 212.261 60.0802C213.109 60.0802 213.733 59.9042 214.133 59.5522C214.533 59.2002 214.733 58.7602 214.733 58.2322C214.733 57.8642 214.645 57.5522 214.469 57.2962C214.309 57.0402 214.013 56.7922 213.581 56.5522C213.149 56.3122 212.549 56.0482 211.781 55.7602C210.949 55.4402 210.245 55.1042 209.669 54.7522C209.093 54.3842 208.661 53.9602 208.373 53.4802C208.085 53.0002 207.941 52.4002 207.941 51.6802C207.941 50.4802 208.389 49.5762 209.285 48.9682C210.181 48.3442 211.365 48.0322 212.837 48.0322C213.765 48.0322 214.517 48.1362 215.093 48.3442C215.669 48.5522 216.093 48.8322 216.365 49.1842C216.637 49.5202 216.773 49.8802 216.773 50.2642C216.773 50.7602 216.597 51.1442 216.245 51.4162C215.909 51.6882 215.365 51.8242 214.613 51.8242C214.613 51.0242 214.437 50.4082 214.085 49.9762C213.733 49.5282 213.205 49.3042 212.501 49.3042C212.101 49.3042 211.741 49.3682 211.421 49.4962C211.117 49.6242 210.877 49.8162 210.701 50.0722C210.525 50.3122 210.437 50.6082 210.437 50.9602C210.437 51.3122 210.533 51.6242 210.725 51.8962C210.917 52.1522 211.245 52.4002 211.709 52.6402C212.173 52.8802 212.805 53.1442 213.605 53.4322C214.373 53.7202 215.021 54.0402 215.549 54.3922C216.093 54.7282 216.509 55.1362 216.797 55.6162C217.085 56.0962 217.229 56.6722 217.229 57.3442C217.229 58.6402 216.781 59.6402 215.885 60.3442C215.005 61.0482 213.781 61.4002 212.213 61.4002Z" fill="white"/>
</svg>
