<svg width="245" height="68" viewBox="0 0 245 68" fill="none" xmlns="http://www.w3.org/2000/svg">
<path d="M42.104 25V23.432H44.536C44.9413 23.432 45.2933 23.3787 45.592 23.272C45.8907 23.144 46.1147 22.9307 46.264 22.632C46.4347 22.312 46.52 21.864 46.52 21.288L46.52 4.936C45.9867 5.59733 45.4853 6.184 45.016 6.696C44.5467 7.18667 44.0987 7.57067 43.672 7.848C43.2453 8.12533 42.8187 8.264 42.392 8.264C41.9013 8.264 41.4853 8.072 41.144 7.688C40.8027 7.304 40.632 6.792 40.632 6.152C41.0587 6.04533 41.5067 5.90667 41.976 5.736C42.4667 5.544 42.9893 5.288 43.544 4.968C44.12 4.62667 44.76 4.2 45.464 3.688L47.704 2.024L50.712 2.024L50.712 21.288C50.712 21.8 50.776 22.216 50.904 22.536C51.0533 22.856 51.2773 23.0907 51.576 23.24C51.8747 23.368 52.2587 23.432 52.728 23.432H54.904V25L42.104 25ZM64.715 25.32C63.115 25.32 61.8457 25.1387 60.907 24.776C59.9897 24.4133 59.3283 23.9547 58.923 23.4C58.539 22.8453 58.347 22.28 58.347 21.704C58.347 21 58.5497 20.4773 58.955 20.136C59.3817 19.7733 59.9577 19.592 60.683 19.592C60.683 20.1893 60.811 20.776 61.067 21.352C61.323 21.9067 61.7177 22.3547 62.251 22.696C62.7843 23.0373 63.4777 23.208 64.331 23.208C65.099 23.208 65.803 23.048 66.443 22.728C67.083 22.408 67.5843 21.8747 67.947 21.128C68.331 20.36 68.523 19.3147 68.523 17.992C68.523 16.904 68.3417 15.9973 67.979 15.272C67.6163 14.5467 67.0937 14.0133 66.411 13.672C65.7283 13.3307 64.9177 13.16 63.979 13.16C63.3817 13.16 62.859 13.192 62.411 13.256C61.963 13.2987 61.5683 13.3733 61.227 13.48C60.907 13.5653 60.587 13.6613 60.267 13.768L59.083 13.32L60.107 2.152L71.659 2.152L71.819 7.592H70.187L69.963 6.568C69.9203 6.29067 69.8457 6.06667 69.739 5.896C69.6537 5.704 69.5043 5.56533 69.291 5.48C69.0777 5.37333 68.779 5.32 68.395 5.32L61.931 5.32L61.355 11.656C61.5897 11.5707 61.8883 11.496 62.251 11.432C62.6137 11.3467 63.0297 11.2827 63.499 11.24C63.9897 11.1973 64.4803 11.176 64.971 11.176C66.5283 11.176 67.8937 11.432 69.067 11.944C70.2617 12.4347 71.179 13.1813 71.819 14.184C72.4803 15.1867 72.811 16.456 72.811 17.992C72.811 19.016 72.6617 19.9227 72.363 20.712C72.0857 21.5013 71.691 22.184 71.179 22.76C70.6883 23.336 70.091 23.816 69.387 24.2C68.7043 24.584 67.9577 24.8613 67.147 25.032C66.3577 25.224 65.547 25.32 64.715 25.32ZM77.854 25V23.432H80.286C80.6913 23.432 81.0433 23.3787 81.342 23.272C81.6407 23.144 81.8647 22.9307 82.014 22.632C82.1847 22.312 82.27 21.864 82.27 21.288V4.936C81.7367 5.59733 81.2353 6.184 80.766 6.696C80.2967 7.18667 79.8487 7.57067 79.422 7.848C78.9953 8.12533 78.5687 8.264 78.142 8.264C77.6513 8.264 77.2353 8.072 76.894 7.688C76.5527 7.304 76.382 6.792 76.382 6.152C76.8087 6.04533 77.2567 5.90667 77.726 5.736C78.2167 5.544 78.7393 5.288 79.294 4.968C79.87 4.62667 80.51 4.2 81.214 3.688L83.454 2.024H86.462V21.288C86.462 21.8 86.526 22.216 86.654 22.536C86.8033 22.856 87.0273 23.0907 87.326 23.24C87.6247 23.368 88.0087 23.432 88.478 23.432H90.654V25L77.854 25ZM95.729 25V23.432H98.161C98.5663 23.432 98.9183 23.3787 99.217 23.272C99.5157 23.144 99.7397 22.9307 99.889 22.632C100.06 22.312 100.145 21.864 100.145 21.288V4.936C99.6117 5.59733 99.1103 6.184 98.641 6.696C98.1717 7.18667 97.7237 7.57067 97.297 7.848C96.8703 8.12533 96.4437 8.264 96.017 8.264C95.5263 8.264 95.1103 8.072 94.769 7.688C94.4277 7.304 94.257 6.792 94.257 6.152C94.6837 6.04533 95.1317 5.90667 95.601 5.736C96.0917 5.544 96.6143 5.288 97.169 4.968C97.745 4.62667 98.385 4.2 99.089 3.688L101.329 2.024H104.337V21.288C104.337 21.8 104.401 22.216 104.529 22.536C104.678 22.856 104.902 23.0907 105.201 23.24C105.5 23.368 105.884 23.432 106.353 23.432H108.529V25H95.729ZM126.557 25.32C125.042 25.32 123.879 24.9467 123.069 24.2C122.279 23.4533 121.885 22.152 121.885 20.296V9.896L119.453 9.896V8.392C120.029 8.392 120.573 8.27467 121.085 8.04C121.597 7.80533 122.023 7.51733 122.365 7.176C122.685 6.81333 122.973 6.36533 123.229 5.832C123.485 5.29867 123.687 4.648 123.837 3.88L126.045 3.88V7.848H130.173V9.896H126.045V20.136C126.045 21.1387 126.226 21.8853 126.589 22.376C126.973 22.8453 127.527 23.08 128.253 23.08C128.679 23.08 129.063 23.0587 129.405 23.016C129.767 22.952 130.119 22.8773 130.461 22.792V24.616C130.141 24.7653 129.629 24.9147 128.925 25.064C128.242 25.2347 127.453 25.32 126.557 25.32ZM131.733 25V23.432H132.149C132.512 23.432 132.874 23.3893 133.237 23.304C133.621 23.1973 133.93 22.9947 134.165 22.696C134.421 22.3973 134.549 21.9493 134.549 21.352V11.432C134.549 10.8347 134.421 10.3973 134.165 10.12C133.909 9.82133 133.6 9.62933 133.237 9.544C132.874 9.45867 132.512 9.416 132.149 9.416H131.861V7.848L138.709 7.848V21.288C138.709 21.9067 138.826 22.376 139.061 22.696C139.296 22.9947 139.605 23.1973 139.989 23.304C140.373 23.3893 140.746 23.432 141.109 23.432H141.493V25H131.733ZM136.469 4.84C135.808 4.84 135.242 4.66933 134.773 4.328C134.325 3.98667 134.101 3.432 134.101 2.664C134.101 1.87467 134.325 1.32 134.773 0.999998C135.242 0.658665 135.818 0.487999 136.501 0.487999C137.141 0.487999 137.696 0.658665 138.165 0.999998C138.634 1.32 138.869 1.87467 138.869 2.664C138.869 3.432 138.634 3.98667 138.165 4.328C137.696 4.66933 137.13 4.84 136.469 4.84ZM142.736 25V23.432H142.928C143.419 23.432 143.845 23.3787 144.208 23.272C144.592 23.1653 144.891 22.952 145.104 22.632C145.317 22.312 145.424 21.832 145.424 21.192V11.464C145.424 10.8453 145.317 10.3867 145.104 10.088C144.912 9.78933 144.635 9.59733 144.272 9.512C143.931 9.40533 143.525 9.352 143.056 9.352H142.96V7.848H149.04L149.456 10.248H149.616C150.043 9.43733 150.501 8.84 150.992 8.456C151.483 8.05067 152.016 7.784 152.592 7.656C153.189 7.528 153.819 7.464 154.48 7.464C155.227 7.464 155.909 7.56 156.528 7.752C157.147 7.944 157.691 8.24267 158.16 8.648C158.629 9.032 158.992 9.56533 159.248 10.248H159.504C159.931 9.43733 160.411 8.84 160.944 8.456C161.477 8.05067 162.043 7.784 162.64 7.656C163.259 7.528 163.909 7.464 164.592 7.464C166.235 7.464 167.515 7.95467 168.432 8.936C169.371 9.91733 169.84 11.496 169.84 13.672V21.16C169.84 21.8213 169.925 22.312 170.096 22.632C170.288 22.952 170.555 23.1653 170.896 23.272C171.237 23.3787 171.643 23.432 172.112 23.432H172.208V25H165.68V14.28C165.68 12.8933 165.467 11.8267 165.04 11.08C164.613 10.312 163.877 9.928 162.832 9.928C162.085 9.928 161.477 10.1413 161.008 10.568C160.56 10.9947 160.229 11.56 160.016 12.264C159.824 12.968 159.728 13.736 159.728 14.568V21.16C159.728 21.8 159.813 22.2907 159.984 22.632C160.176 22.952 160.443 23.1653 160.784 23.272C161.125 23.3787 161.531 23.432 162 23.432H162.096V25H155.568V14.28C155.568 12.8933 155.355 11.8267 154.928 11.08C154.501 10.312 153.765 9.928 152.72 9.928C151.931 9.928 151.301 10.1627 150.832 10.632C150.384 11.1013 150.064 11.72 149.872 12.488C149.68 13.256 149.584 14.088 149.584 14.984V21.32C149.584 21.9387 149.691 22.3973 149.904 22.696C150.117 22.9947 150.405 23.1973 150.768 23.304C151.131 23.3893 151.547 23.432 152.016 23.432H152.112V25L142.736 25ZM182.599 25.32C180.039 25.32 178.066 24.552 176.679 23.016C175.314 21.4587 174.631 19.2933 174.631 16.52C174.631 13.5333 175.293 11.2827 176.615 9.768C177.959 8.232 179.837 7.464 182.247 7.464C184.487 7.464 186.237 8.11467 187.495 9.416C188.775 10.696 189.415 12.6053 189.415 15.144V16.712L178.855 16.712C178.898 18.2053 179.09 19.4213 179.431 20.36C179.794 21.2773 180.295 21.96 180.935 22.408C181.597 22.856 182.397 23.08 183.335 23.08C184.082 23.08 184.743 22.9733 185.319 22.76C185.917 22.5253 186.429 22.2267 186.855 21.864C187.282 21.48 187.623 21.064 187.879 20.616C188.114 20.7227 188.295 20.904 188.423 21.16C188.573 21.3947 188.647 21.672 188.647 21.992C188.647 22.5253 188.423 23.048 187.975 23.56C187.549 24.072 186.887 24.4987 185.991 24.84C185.117 25.16 183.986 25.32 182.599 25.32ZM185.159 14.792C185.159 13.704 185.063 12.7547 184.871 11.944C184.679 11.1333 184.37 10.5147 183.943 10.088C183.538 9.64 182.983 9.416 182.279 9.416C181.597 9.416 181.01 9.61867 180.519 10.024C180.05 10.4293 179.677 11.0373 179.399 11.848C179.143 12.6373 178.983 13.6187 178.919 14.792H185.159ZM197.98 25.32C196.614 25.32 195.484 25.1707 194.588 24.872C193.713 24.5733 193.062 24.1573 192.636 23.624C192.209 23.0693 191.996 22.4293 191.996 21.704C191.996 21.0427 192.145 20.552 192.444 20.232C192.742 19.8907 193.094 19.6667 193.5 19.56C193.905 19.432 194.268 19.368 194.588 19.368C194.588 20.2 194.716 20.936 194.972 21.576C195.249 22.1947 195.644 22.6853 196.156 23.048C196.668 23.3893 197.297 23.56 198.044 23.56C199.174 23.56 200.006 23.3253 200.54 22.856C201.073 22.3867 201.34 21.8 201.34 21.096C201.34 20.6053 201.222 20.1893 200.988 19.848C200.774 19.5067 200.38 19.176 199.804 18.856C199.228 18.536 198.428 18.184 197.404 17.8C196.294 17.3733 195.356 16.9253 194.588 16.456C193.82 15.9653 193.244 15.4 192.86 14.76C192.476 14.12 192.284 13.32 192.284 12.36C192.284 10.76 192.881 9.55467 194.076 8.744C195.27 7.912 196.849 7.496 198.812 7.496C200.049 7.496 201.052 7.63467 201.82 7.912C202.588 8.18933 203.153 8.56267 203.516 9.032C203.878 9.48 204.06 9.96 204.06 10.472C204.06 11.1333 203.825 11.6453 203.356 12.008C202.908 12.3707 202.182 12.552 201.18 12.552C201.18 11.4853 200.945 10.664 200.476 10.088C200.006 9.49067 199.302 9.192 198.364 9.192C197.83 9.192 197.35 9.27733 196.924 9.448C196.518 9.61867 196.198 9.87467 195.964 10.216C195.729 10.536 195.612 10.9307 195.612 11.4C195.612 11.8693 195.74 12.2853 195.996 12.648C196.252 12.9893 196.689 13.32 197.308 13.64C197.926 13.96 198.769 14.312 199.836 14.696C200.86 15.08 201.724 15.5067 202.428 15.976C203.153 16.424 203.708 16.968 204.092 17.608C204.476 18.248 204.668 19.016 204.668 19.912C204.668 21.64 204.07 22.9733 202.876 23.912C201.702 24.8507 200.07 25.32 197.98 25.32ZM4.60638 67.24C3.90238 67.24 3.26238 67.104 2.68638 66.832C2.12638 66.544 1.67838 66.112 1.34238 65.536C1.02238 64.96 0.862375 64.232 0.862375 63.352C0.862375 62.072 1.31038 61.12 2.20638 60.496C3.10238 59.872 4.45438 59.528 6.26238 59.464L8.25438 59.392V58.024C8.25438 57.48 8.21438 57 8.13438 56.584C8.05438 56.152 7.88638 55.816 7.63038 55.576C7.39038 55.336 7.00638 55.216 6.47838 55.216C5.99838 55.216 5.62238 55.328 5.35038 55.552C5.07838 55.776 4.89438 56.088 4.79838 56.488C4.70238 56.872 4.65438 57.312 4.65438 57.808C3.72638 57.808 3.03038 57.696 2.56638 57.472C2.10238 57.232 1.87038 56.824 1.87038 56.248C1.87038 55.672 2.07838 55.208 2.49438 54.856C2.92638 54.504 3.50238 54.248 4.22238 54.088C4.94238 53.928 5.72638 53.848 6.57438 53.848C8.17438 53.848 9.37438 54.16 10.1744 54.784C10.9744 55.392 11.3744 56.448 11.3744 57.952L11.3744 64.12C11.3744 64.552 11.4144 64.896 11.4944 65.152C11.5904 65.392 11.7504 65.568 11.9744 65.68C12.1984 65.776 12.4864 65.824 12.8384 65.824H12.9104V67H8.92638L8.44638 65.2H8.25438C7.90238 65.632 7.56638 66 7.24638 66.304C6.94238 66.608 6.58238 66.84 6.16638 67C5.76638 67.16 5.24638 67.24 4.60638 67.24ZM5.63838 65.584C6.18238 65.584 6.64638 65.456 7.03038 65.2C7.41438 64.944 7.71038 64.576 7.91838 64.096C8.14238 63.616 8.25438 63.056 8.25438 62.416V60.568L7.00638 60.64C6.25438 60.672 5.66238 60.8 5.23038 61.024C4.81438 61.248 4.51038 61.56 4.31838 61.96C4.14238 62.36 4.05438 62.856 4.05438 63.448C4.05438 63.928 4.11038 64.328 4.22238 64.648C4.33438 64.952 4.51038 65.184 4.75038 65.344C4.99038 65.504 5.28638 65.584 5.63838 65.584ZM14.3734 67V65.824H14.4454C14.8134 65.824 15.1334 65.784 15.4054 65.704C15.6934 65.624 15.9174 65.464 16.0774 65.224C16.2534 64.968 16.3414 64.592 16.3414 64.096L16.3414 56.944C16.3414 56.464 16.2614 56.112 16.1014 55.888C15.9414 55.648 15.7254 55.496 15.4534 55.432C15.1814 55.352 14.8694 55.312 14.5174 55.312H14.4454V54.136H18.8614L19.3174 56.2H19.4374C19.6454 55.72 19.8774 55.304 20.1334 54.952C20.4054 54.6 20.7494 54.336 21.1654 54.16C21.5814 53.968 22.1254 53.872 22.7974 53.872C23.7094 53.872 24.3814 54.032 24.8134 54.352C25.2614 54.672 25.4854 55.136 25.4854 55.744C25.4854 56.384 25.2534 56.896 24.7894 57.28C24.3254 57.648 23.6454 57.832 22.7494 57.832C22.7494 57.384 22.7094 57.024 22.6294 56.752C22.5654 56.464 22.4454 56.248 22.2694 56.104C22.0934 55.96 21.8534 55.888 21.5494 55.888C21.1174 55.888 20.7654 56.048 20.4934 56.368C20.2214 56.672 20.0054 57.056 19.8454 57.52C19.7014 57.984 19.5974 58.464 19.5334 58.96C19.4854 59.456 19.4614 59.872 19.4614 60.208L19.4614 64.216C19.4614 64.68 19.5414 65.032 19.7014 65.272C19.8614 65.496 20.0774 65.648 20.3494 65.728C20.6214 65.792 20.9174 65.824 21.2374 65.824H21.9814V67H14.3734ZM33.0198 67.24C31.0998 67.24 29.6198 66.664 28.5798 65.512C27.5558 64.344 27.0438 62.72 27.0438 60.64C27.0438 58.4 27.5398 56.712 28.5318 55.576C29.5398 54.424 30.9478 53.848 32.7558 53.848C34.4358 53.848 35.7478 54.336 36.6918 55.312C37.6518 56.272 38.1318 57.704 38.1318 59.608V60.784H30.2118C30.2438 61.904 30.3878 62.816 30.6438 63.52C30.9158 64.208 31.2918 64.72 31.7718 65.056C32.2678 65.392 32.8678 65.56 33.5718 65.56C34.1318 65.56 34.6278 65.48 35.0598 65.32C35.5078 65.144 35.8918 64.92 36.2118 64.648C36.5318 64.36 36.7878 64.048 36.9798 63.712C37.1558 63.792 37.2918 63.928 37.3878 64.12C37.4998 64.296 37.5558 64.504 37.5558 64.744C37.5558 65.144 37.3878 65.536 37.0518 65.92C36.7318 66.304 36.2358 66.624 35.5638 66.88C34.9078 67.12 34.0598 67.24 33.0198 67.24ZM34.9398 59.344C34.9398 58.528 34.8678 57.816 34.7238 57.208C34.5798 56.6 34.3478 56.136 34.0278 55.816C33.7238 55.48 33.3078 55.312 32.7798 55.312C32.2678 55.312 31.8278 55.464 31.4598 55.768C31.1078 56.072 30.8278 56.528 30.6198 57.136C30.4278 57.728 30.3078 58.464 30.2598 59.344H34.9398ZM44.0751 67.24C43.3711 67.24 42.7311 67.104 42.1551 66.832C41.5951 66.544 41.1471 66.112 40.8111 65.536C40.4911 64.96 40.3311 64.232 40.3311 63.352C40.3311 62.072 40.7791 61.12 41.6751 60.496C42.5711 59.872 43.9231 59.528 45.7311 59.464L47.7231 59.392V58.024C47.7231 57.48 47.6831 57 47.6031 56.584C47.5231 56.152 47.3551 55.816 47.0991 55.576C46.8591 55.336 46.4751 55.216 45.9471 55.216C45.4671 55.216 45.0911 55.328 44.8191 55.552C44.5471 55.776 44.3631 56.088 44.2671 56.488C44.1711 56.872 44.1231 57.312 44.1231 57.808C43.1951 57.808 42.4991 57.696 42.0351 57.472C41.5711 57.232 41.3391 56.824 41.3391 56.248C41.3391 55.672 41.5471 55.208 41.9631 54.856C42.3951 54.504 42.9711 54.248 43.6911 54.088C44.4111 53.928 45.1951 53.848 46.0431 53.848C47.6431 53.848 48.8431 54.16 49.6431 54.784C50.4431 55.392 50.8431 56.448 50.8431 57.952V64.12C50.8431 64.552 50.8831 64.896 50.9631 65.152C51.0591 65.392 51.2191 65.568 51.4431 65.68C51.6671 65.776 51.9551 65.824 52.3071 65.824H52.3791V67H48.3951L47.9151 65.2H47.7231C47.3711 65.632 47.0351 66 46.7151 66.304C46.4111 66.608 46.0511 66.84 45.6351 67C45.2351 67.16 44.7151 67.24 44.0751 67.24ZM45.1071 65.584C45.6511 65.584 46.1151 65.456 46.4991 65.2C46.8831 64.944 47.1791 64.576 47.3871 64.096C47.6111 63.616 47.7231 63.056 47.7231 62.416V60.568L46.4751 60.64C45.7231 60.672 45.1311 60.8 44.6991 61.024C44.2831 61.248 43.9791 61.56 43.7871 61.96C43.6111 62.36 43.5231 62.856 43.5231 63.448C43.5231 63.928 43.5791 64.328 43.6911 64.648C43.8031 64.952 43.9791 65.184 44.2191 65.344C44.4591 65.504 44.7551 65.584 45.1071 65.584ZM66.6286 67.24C64.7886 67.24 63.3326 66.688 62.2606 65.584C61.2046 64.48 60.6766 62.792 60.6766 60.52C60.6766 58.28 61.1806 56.608 62.1886 55.504C63.2126 54.4 64.7166 53.848 66.7006 53.848C68.5566 53.848 70.0126 54.4 71.0686 55.504C72.1246 56.608 72.6526 58.28 72.6526 60.52C72.6526 62.792 72.1406 64.48 71.1166 65.584C70.1086 66.688 68.6126 67.24 66.6286 67.24ZM66.6766 65.824C67.3646 65.824 67.9086 65.632 68.3086 65.248C68.7246 64.848 69.0206 64.248 69.1966 63.448C69.3726 62.648 69.4606 61.672 69.4606 60.52C69.4606 59.352 69.3646 58.384 69.1726 57.616C68.9966 56.848 68.7006 56.272 68.2846 55.888C67.8846 55.488 67.3406 55.288 66.6526 55.288C65.9806 55.288 65.4366 55.488 65.0206 55.888C64.6046 56.272 64.3086 56.848 64.1326 57.616C63.9566 58.384 63.8686 59.352 63.8686 60.52C63.8686 61.688 63.9566 62.664 64.1326 63.448C64.3246 64.232 64.6206 64.824 65.0206 65.224C65.4366 65.624 65.9886 65.824 66.6766 65.824ZM74.3718 67V65.824H74.8278C75.1158 65.824 75.3958 65.792 75.6678 65.728C75.9398 65.648 76.1638 65.496 76.3398 65.272C76.5318 65.032 76.6278 64.68 76.6278 64.216V55.576H74.4678V54.136H76.6278V53.128C76.6278 51.672 77.0118 50.544 77.7798 49.744C78.5638 48.944 79.7318 48.544 81.2838 48.544C82.2438 48.544 82.9878 48.616 83.5158 48.76C84.0598 48.904 84.4438 49.104 84.6678 49.36C84.9078 49.616 85.0278 49.912 85.0278 50.248C85.0278 50.584 84.9318 50.864 84.7398 51.088C84.5478 51.296 84.2518 51.456 83.8518 51.568C83.4678 51.68 83.0038 51.736 82.4598 51.736C82.4598 51.464 82.4118 51.176 82.3158 50.872C82.2358 50.568 82.0998 50.312 81.9078 50.104C81.7158 49.896 81.4518 49.792 81.1158 49.792C80.6038 49.792 80.2438 50.032 80.0358 50.512C79.8438 50.992 79.7478 51.744 79.7478 52.768V54.136H83.0838V55.576H79.7478V64.216C79.7478 64.68 79.8358 65.032 80.0117 65.272C80.1878 65.496 80.4198 65.648 80.7078 65.728C80.9958 65.792 81.2758 65.824 81.5478 65.824H82.6038V67H74.3718ZM94.372 67.24C93.668 67.24 93.028 67.104 92.452 66.832C91.892 66.544 91.444 66.112 91.108 65.536C90.788 64.96 90.628 64.232 90.628 63.352C90.628 62.072 91.076 61.12 91.972 60.496C92.868 59.872 94.22 59.528 96.028 59.464L98.02 59.392V58.024C98.02 57.48 97.98 57 97.9 56.584C97.82 56.152 97.652 55.816 97.396 55.576C97.156 55.336 96.772 55.216 96.244 55.216C95.764 55.216 95.388 55.328 95.116 55.552C94.844 55.776 94.66 56.088 94.564 56.488C94.468 56.872 94.42 57.312 94.42 57.808C93.492 57.808 92.796 57.696 92.332 57.472C91.868 57.232 91.636 56.824 91.636 56.248C91.636 55.672 91.844 55.208 92.26 54.856C92.692 54.504 93.268 54.248 93.988 54.088C94.708 53.928 95.492 53.848 96.34 53.848C97.94 53.848 99.14 54.16 99.94 54.784C100.74 55.392 101.14 56.448 101.14 57.952V64.12C101.14 64.552 101.18 64.896 101.26 65.152C101.356 65.392 101.516 65.568 101.74 65.68C101.964 65.776 102.252 65.824 102.604 65.824H102.676V67H98.692L98.212 65.2H98.02C97.668 65.632 97.332 66 97.012 66.304C96.708 66.608 96.348 66.84 95.932 67C95.532 67.16 95.012 67.24 94.372 67.24ZM95.404 65.584C95.948 65.584 96.412 65.456 96.796 65.2C97.18 64.944 97.476 64.576 97.684 64.096C97.908 63.616 98.02 63.056 98.02 62.416V60.568L96.772 60.64C96.02 60.672 95.428 60.8 94.996 61.024C94.58 61.248 94.276 61.56 94.084 61.96C93.908 62.36 93.82 62.856 93.82 63.448C93.82 63.928 93.876 64.328 93.988 64.648C94.1 64.952 94.276 65.184 94.516 65.344C94.756 65.504 95.052 65.584 95.404 65.584ZM115.125 67.24C114.101 67.24 113.253 67.128 112.581 66.904C111.925 66.68 111.437 66.368 111.117 65.968C110.797 65.552 110.637 65.072 110.637 64.528C110.637 64.032 110.749 63.664 110.973 63.424C111.197 63.168 111.461 63 111.765 62.92C112.069 62.824 112.341 62.776 112.581 62.776C112.581 63.4 112.677 63.952 112.869 64.432C113.077 64.896 113.373 65.264 113.757 65.536C114.141 65.792 114.613 65.92 115.173 65.92C116.021 65.92 116.645 65.744 117.045 65.392C117.445 65.04 117.645 64.6 117.645 64.072C117.645 63.704 117.557 63.392 117.381 63.136C117.221 62.88 116.925 62.632 116.493 62.392C116.061 62.152 115.461 61.888 114.693 61.6C113.861 61.28 113.157 60.944 112.581 60.592C112.005 60.224 111.573 59.8 111.285 59.32C110.997 58.84 110.853 58.24 110.853 57.52C110.853 56.32 111.301 55.416 112.197 54.808C113.093 54.184 114.277 53.872 115.749 53.872C116.677 53.872 117.429 53.976 118.005 54.184C118.581 54.392 119.005 54.672 119.277 55.024C119.549 55.36 119.685 55.72 119.685 56.104C119.685 56.6 119.509 56.984 119.157 57.256C118.821 57.528 118.277 57.664 117.525 57.664C117.525 56.864 117.349 56.248 116.997 55.816C116.645 55.368 116.117 55.144 115.413 55.144C115.013 55.144 114.653 55.208 114.333 55.336C114.029 55.464 113.789 55.656 113.613 55.912C113.437 56.152 113.349 56.448 113.349 56.8C113.349 57.152 113.445 57.464 113.637 57.736C113.829 57.992 114.157 58.24 114.621 58.48C115.085 58.72 115.717 58.984 116.517 59.272C117.285 59.56 117.933 59.88 118.461 60.232C119.005 60.568 119.421 60.976 119.709 61.456C119.997 61.936 120.141 62.512 120.141 63.184C120.141 64.48 119.693 65.48 118.797 66.184C117.917 66.888 116.693 67.24 115.125 67.24ZM128.293 67.24C126.453 67.24 124.997 66.688 123.925 65.584C122.869 64.48 122.341 62.792 122.341 60.52C122.341 58.28 122.845 56.608 123.853 55.504C124.877 54.4 126.381 53.848 128.365 53.848C130.221 53.848 131.677 54.4 132.733 55.504C133.789 56.608 134.317 58.28 134.317 60.52C134.317 62.792 133.805 64.48 132.781 65.584C131.773 66.688 130.277 67.24 128.293 67.24ZM128.341 65.824C129.029 65.824 129.573 65.632 129.973 65.248C130.389 64.848 130.685 64.248 130.861 63.448C131.037 62.648 131.125 61.672 131.125 60.52C131.125 59.352 131.029 58.384 130.837 57.616C130.661 56.848 130.365 56.272 129.949 55.888C129.549 55.488 129.005 55.288 128.317 55.288C127.645 55.288 127.101 55.488 126.685 55.888C126.269 56.272 125.973 56.848 125.797 57.616C125.621 58.384 125.533 59.352 125.533 60.52C125.533 61.688 125.621 62.664 125.797 63.448C125.989 64.232 126.285 64.824 126.685 65.224C127.101 65.624 127.653 65.824 128.341 65.824ZM142.468 67.24C141.348 67.24 140.356 67.024 139.492 66.592C138.628 66.16 137.948 65.464 137.452 64.504C136.956 63.528 136.708 62.232 136.708 60.616C136.708 58.904 136.956 57.56 137.452 56.584C137.964 55.592 138.644 54.888 139.492 54.472C140.356 54.056 141.324 53.848 142.396 53.848C143.292 53.848 144.076 53.952 144.748 54.16C145.436 54.368 145.972 54.656 146.356 55.024C146.74 55.392 146.932 55.832 146.932 56.344C146.932 56.696 146.844 57.016 146.668 57.304C146.508 57.576 146.228 57.792 145.828 57.952C145.428 58.112 144.884 58.192 144.196 58.192C144.196 57.648 144.14 57.152 144.028 56.704C143.932 56.256 143.756 55.896 143.5 55.624C143.26 55.352 142.908 55.216 142.444 55.216C141.932 55.216 141.476 55.376 141.076 55.696C140.692 56 140.396 56.544 140.188 57.328C139.98 58.112 139.876 59.2 139.876 60.592C139.876 61.696 139.988 62.616 140.212 63.352C140.436 64.072 140.772 64.616 141.22 64.984C141.684 65.352 142.292 65.536 143.044 65.536C143.572 65.536 144.052 65.456 144.484 65.296C144.932 65.136 145.316 64.92 145.636 64.648C145.972 64.36 146.228 64.04 146.404 63.688C146.564 63.8 146.684 63.944 146.764 64.12C146.86 64.296 146.908 64.496 146.908 64.72C146.908 65.12 146.748 65.512 146.428 65.896C146.108 66.28 145.62 66.6 144.964 66.856C144.324 67.112 143.492 67.24 142.468 67.24ZM154.796 67.24C153.676 67.24 152.684 67.024 151.82 66.592C150.956 66.16 150.276 65.464 149.78 64.504C149.284 63.528 149.036 62.232 149.036 60.616C149.036 58.904 149.284 57.56 149.78 56.584C150.292 55.592 150.972 54.888 151.82 54.472C152.684 54.056 153.652 53.848 154.724 53.848C155.62 53.848 156.404 53.952 157.076 54.16C157.764 54.368 158.3 54.656 158.684 55.024C159.068 55.392 159.26 55.832 159.26 56.344C159.26 56.696 159.172 57.016 158.996 57.304C158.836 57.576 158.556 57.792 158.156 57.952C157.756 58.112 157.212 58.192 156.524 58.192C156.524 57.648 156.468 57.152 156.356 56.704C156.26 56.256 156.084 55.896 155.828 55.624C155.588 55.352 155.236 55.216 154.772 55.216C154.26 55.216 153.804 55.376 153.404 55.696C153.02 56 152.724 56.544 152.516 57.328C152.308 58.112 152.204 59.2 152.204 60.592C152.204 61.696 152.316 62.616 152.54 63.352C152.764 64.072 153.1 64.616 153.548 64.984C154.012 65.352 154.62 65.536 155.372 65.536C155.9 65.536 156.38 65.456 156.812 65.296C157.26 65.136 157.644 64.92 157.964 64.648C158.3 64.36 158.556 64.04 158.732 63.688C158.892 63.8 159.012 63.944 159.092 64.12C159.188 64.296 159.236 64.496 159.236 64.72C159.236 65.12 159.076 65.512 158.756 65.896C158.436 66.28 157.948 66.6 157.292 66.856C156.652 67.112 155.82 67.24 154.796 67.24ZM167.34 67.24C165.42 67.24 163.94 66.664 162.9 65.512C161.876 64.344 161.364 62.72 161.364 60.64C161.364 58.4 161.86 56.712 162.852 55.576C163.86 54.424 165.268 53.848 167.076 53.848C168.756 53.848 170.068 54.336 171.012 55.312C171.972 56.272 172.452 57.704 172.452 59.608V60.784H164.532C164.564 61.904 164.708 62.816 164.964 63.52C165.236 64.208 165.612 64.72 166.092 65.056C166.588 65.392 167.188 65.56 167.892 65.56C168.452 65.56 168.948 65.48 169.38 65.32C169.828 65.144 170.212 64.92 170.532 64.648C170.852 64.36 171.108 64.048 171.3 63.712C171.476 63.792 171.612 63.928 171.708 64.12C171.82 64.296 171.876 64.504 171.876 64.744C171.876 65.144 171.708 65.536 171.372 65.92C171.052 66.304 170.556 66.624 169.884 66.88C169.228 67.12 168.38 67.24 167.34 67.24ZM169.26 59.344C169.26 58.528 169.188 57.816 169.044 57.208C168.9 56.6 168.668 56.136 168.348 55.816C168.044 55.48 167.628 55.312 167.1 55.312C166.588 55.312 166.148 55.464 165.78 55.768C165.428 56.072 165.148 56.528 164.94 57.136C164.748 57.728 164.628 58.464 164.58 59.344H169.26ZM174.123 67V65.824H174.195C174.563 65.824 174.883 65.784 175.155 65.704C175.443 65.624 175.667 65.464 175.827 65.224C176.003 64.968 176.091 64.592 176.091 64.096V56.944C176.091 56.464 176.011 56.112 175.851 55.888C175.691 55.648 175.475 55.496 175.203 55.432C174.931 55.352 174.619 55.312 174.267 55.312H174.195V54.136H178.611L179.067 56.2H179.187C179.395 55.72 179.627 55.304 179.883 54.952C180.155 54.6 180.499 54.336 180.915 54.16C181.331 53.968 181.875 53.872 182.547 53.872C183.459 53.872 184.131 54.032 184.563 54.352C185.011 54.672 185.235 55.136 185.235 55.744C185.235 56.384 185.003 56.896 184.539 57.28C184.075 57.648 183.395 57.832 182.499 57.832C182.499 57.384 182.459 57.024 182.379 56.752C182.315 56.464 182.195 56.248 182.019 56.104C181.843 55.96 181.603 55.888 181.299 55.888C180.867 55.888 180.515 56.048 180.243 56.368C179.971 56.672 179.755 57.056 179.595 57.52C179.451 57.984 179.347 58.464 179.283 58.96C179.235 59.456 179.211 59.872 179.211 60.208V64.216C179.211 64.68 179.291 65.032 179.451 65.272C179.611 65.496 179.827 65.648 180.099 65.728C180.371 65.792 180.667 65.824 180.987 65.824H181.731V67H174.123ZM192.356 67V65.824H192.812C193.1 65.824 193.38 65.792 193.652 65.728C193.924 65.648 194.148 65.496 194.324 65.272C194.516 65.032 194.612 64.68 194.612 64.216V55.576H192.452V54.136H194.612V53.776C194.612 52.688 194.828 51.752 195.26 50.968C195.708 50.168 196.388 49.56 197.3 49.144C198.212 48.712 199.38 48.496 200.804 48.496C201.7 48.496 202.468 48.544 203.108 48.64C203.748 48.736 204.26 48.872 204.644 49.048C205.044 49.224 205.332 49.44 205.508 49.696C205.7 49.952 205.796 50.24 205.796 50.56C205.796 51.104 205.548 51.552 205.052 51.904C204.572 52.24 203.812 52.408 202.772 52.408C202.772 52.104 202.7 51.744 202.556 51.328C202.428 50.912 202.188 50.552 201.836 50.248C201.484 49.928 200.988 49.768 200.348 49.768C199.724 49.768 199.212 49.904 198.812 50.176C198.428 50.448 198.148 50.84 197.972 51.352C197.812 51.864 197.732 52.464 197.732 53.152V54.136H206.108V64.216C206.108 64.68 206.196 65.032 206.372 65.272C206.548 65.496 206.78 65.648 207.068 65.728C207.356 65.792 207.636 65.824 207.908 65.824H208.196V67H200.972V65.824H201.188C201.46 65.824 201.732 65.792 202.004 65.728C202.292 65.648 202.524 65.496 202.7 65.272C202.892 65.048 202.988 64.704 202.988 64.24V55.576H197.732V64.216C197.732 64.68 197.82 65.032 197.996 65.272C198.172 65.496 198.404 65.648 198.692 65.728C198.98 65.792 199.26 65.824 199.532 65.824H200.108V67H192.356ZM215.762 67.24C213.842 67.24 212.362 66.664 211.322 65.512C210.298 64.344 209.786 62.72 209.786 60.64C209.786 58.4 210.282 56.712 211.274 55.576C212.282 54.424 213.69 53.848 215.498 53.848C217.178 53.848 218.49 54.336 219.434 55.312C220.394 56.272 220.874 57.704 220.874 59.608V60.784H212.954C212.986 61.904 213.13 62.816 213.386 63.52C213.658 64.208 214.034 64.72 214.514 65.056C215.01 65.392 215.61 65.56 216.314 65.56C216.874 65.56 217.37 65.48 217.802 65.32C218.25 65.144 218.634 64.92 218.954 64.648C219.274 64.36 219.53 64.048 219.722 63.712C219.898 63.792 220.034 63.928 220.13 64.12C220.242 64.296 220.298 64.504 220.298 64.744C220.298 65.144 220.13 65.536 219.794 65.92C219.474 66.304 218.978 66.624 218.306 66.88C217.65 67.12 216.802 67.24 215.762 67.24ZM217.682 59.344C217.682 58.528 217.61 57.816 217.466 57.208C217.322 56.6 217.09 56.136 216.77 55.816C216.466 55.48 216.05 55.312 215.522 55.312C215.01 55.312 214.57 55.464 214.202 55.768C213.85 56.072 213.57 56.528 213.362 57.136C213.17 57.728 213.05 58.464 213.002 59.344H217.682ZM222.305 67V65.824H222.617C222.905 65.824 223.185 65.792 223.457 65.728C223.729 65.648 223.953 65.496 224.129 65.272C224.321 65.032 224.417 64.68 224.417 64.216V51.448C224.417 51 224.321 50.672 224.129 50.464C223.937 50.24 223.705 50.096 223.433 50.032C223.161 49.968 222.889 49.936 222.617 49.936H222.305V48.76H227.537V64.216C227.537 64.68 227.625 65.032 227.801 65.272C227.993 65.496 228.225 65.648 228.497 65.728C228.785 65.792 229.065 65.824 229.337 65.824H229.649V67H222.305ZM236.08 67.24C235.04 67.24 234.152 67.008 233.416 66.544C232.696 66.08 232.144 65.36 231.76 64.384C231.376 63.392 231.184 62.128 231.184 60.592C231.184 59.04 231.368 57.768 231.736 56.776C232.12 55.784 232.672 55.056 233.392 54.592C234.128 54.112 235.016 53.872 236.056 53.872C236.968 53.872 237.712 54.056 238.288 54.424C238.864 54.792 239.328 55.272 239.68 55.864H239.824C239.792 55.576 239.76 55.264 239.728 54.928C239.712 54.592 239.696 54.256 239.68 53.92C239.664 53.584 239.656 53.288 239.656 53.032V51.472C239.656 51.008 239.568 50.672 239.392 50.464C239.216 50.24 238.976 50.096 238.672 50.032C238.384 49.968 238.064 49.936 237.712 49.936H237.52V48.76H242.776V64.168C242.776 64.648 242.864 65.008 243.04 65.248C243.232 65.488 243.472 65.648 243.76 65.728C244.064 65.792 244.4 65.824 244.768 65.824H244.888V67H240.472L239.944 65.008H239.776C239.424 65.696 238.96 66.24 238.384 66.64C237.808 67.04 237.04 67.24 236.08 67.24ZM236.896 65.536C237.952 65.536 238.672 65.128 239.056 64.312C239.456 63.496 239.656 62.248 239.656 60.568C239.656 59.48 239.568 58.568 239.392 57.832C239.232 57.08 238.952 56.512 238.552 56.128C238.152 55.744 237.592 55.552 236.872 55.552C236.28 55.552 235.8 55.752 235.432 56.152C235.064 56.536 234.792 57.104 234.616 57.856C234.456 58.592 234.376 59.504 234.376 60.592C234.376 61.696 234.456 62.616 234.616 63.352C234.792 64.072 235.064 64.616 235.432 64.984C235.8 65.352 236.288 65.536 236.896 65.536Z" fill="#F1AE12"/>
</svg>
