<svg width="52" height="19" viewBox="0 0 52 19" fill="none" xmlns="http://www.w3.org/2000/svg">
<path d="M0.0237123 17.9971L0.0237123 15.7891L3.74371 11.7811C4.44771 11.0451 5.03171 10.3731 5.49571 9.76507C5.95971 9.15707 6.31971 8.58907 6.57571 8.06107C6.84771 7.51707 7.03971 6.98107 7.15171 6.45307C7.27971 5.92507 7.34371 5.36507 7.34371 4.77307C7.34371 4.16507 7.25571 3.65307 7.07971 3.23707C6.91971 2.82107 6.68771 2.50907 6.38371 2.30107C6.07971 2.09307 5.69571 1.98907 5.23171 1.98907C4.62371 1.98907 4.14371 2.14907 3.79171 2.46907C3.45571 2.78907 3.21571 3.24507 3.07171 3.83707C2.94371 4.41307 2.87971 5.10907 2.87971 5.92507C2.35171 5.92507 1.87971 5.86107 1.46371 5.73307C1.06371 5.58907 0.751712 5.36507 0.527712 5.06107C0.303712 4.75707 0.191712 4.35707 0.191712 3.86107C0.191712 3.25307 0.375712 2.70907 0.743712 2.22907C1.12771 1.73307 1.69571 1.34107 2.44771 1.05307C3.19971 0.765069 4.12771 0.621069 5.23171 0.621069C6.36771 0.621069 7.32771 0.781069 8.11171 1.10107C8.89571 1.42107 9.48771 1.88507 9.88771 2.49307C10.3037 3.08507 10.5117 3.78907 10.5117 4.60507C10.5117 5.05307 10.4477 5.49307 10.3197 5.92507C10.1917 6.35707 9.99971 6.79707 9.74371 7.24507C9.48771 7.69307 9.15171 8.18107 8.73571 8.70907C8.31971 9.22107 7.80771 9.78907 7.19971 10.4131C6.60771 11.0371 5.91971 11.7331 5.13571 12.5011L2.11171 15.6211H7.67971C8.25571 15.6211 8.69571 15.4691 8.99971 15.1651C9.31971 14.8451 9.55171 14.4291 9.69571 13.9171L9.83971 13.2931L11.1117 13.2931L10.9917 17.9971L0.0237123 17.9971ZM19.07 18.2371C17.662 18.2371 16.534 17.8691 15.686 17.1331C14.838 16.3971 14.222 15.3651 13.838 14.0371C13.454 12.7091 13.262 11.1571 13.262 9.38107C13.262 7.60507 13.454 6.06107 13.838 4.74907C14.222 3.43707 14.838 2.42107 15.686 1.70107C16.534 0.98107 17.67 0.621069 19.094 0.621069C20.438 0.621069 21.526 0.98107 22.358 1.70107C23.206 2.42107 23.83 3.44507 24.23 4.77307C24.646 6.08507 24.854 7.62907 24.854 9.40507C24.854 11.1811 24.646 12.7331 24.23 14.0611C23.83 15.3731 23.206 16.3971 22.358 17.1331C21.51 17.8691 20.414 18.2371 19.07 18.2371ZM19.07 16.7731C19.566 16.7731 19.974 16.6131 20.294 16.2931C20.63 15.9571 20.886 15.4771 21.062 14.8531C21.254 14.2131 21.39 13.4371 21.47 12.5251C21.55 11.6131 21.59 10.5731 21.59 9.40507C21.59 8.23707 21.55 7.20507 21.47 6.30907C21.406 5.39707 21.278 4.62907 21.086 4.00507C20.894 3.38107 20.63 2.90907 20.294 2.58907C19.974 2.25307 19.574 2.08507 19.094 2.08507C18.598 2.08507 18.182 2.25307 17.846 2.58907C17.51 2.90907 17.246 3.38107 17.054 4.00507C16.862 4.62907 16.726 5.39707 16.646 6.30907C16.566 7.20507 16.526 8.23707 16.526 9.40507C16.526 10.5731 16.566 11.6131 16.646 12.5251C16.726 13.4371 16.862 14.2131 17.054 14.8531C17.246 15.4771 17.502 15.9571 17.822 16.2931C18.158 16.6131 18.574 16.7731 19.07 16.7731ZM28.0842 17.9971V16.8211H29.9082C30.2122 16.8211 30.4762 16.7811 30.7002 16.7011C30.9242 16.6051 31.0922 16.4451 31.2042 16.2211C31.3322 15.9811 31.3962 15.6451 31.3962 15.2131L31.3962 2.94907C30.9962 3.44507 30.6202 3.88507 30.2682 4.26907C29.9162 4.63707 29.5802 4.92507 29.2602 5.13307C28.9402 5.34107 28.6202 5.44507 28.3002 5.44507C27.9322 5.44507 27.6202 5.30107 27.3642 5.01307C27.1082 4.72507 26.9802 4.34107 26.9802 3.86107C27.3002 3.78107 27.6362 3.67707 27.9882 3.54907C28.3562 3.40507 28.7482 3.21307 29.1642 2.97307C29.5962 2.71707 30.0762 2.39707 30.6042 2.01307L32.2842 0.765069L34.5402 0.765069L34.5402 15.2131C34.5402 15.5971 34.5882 15.9091 34.6842 16.1491C34.7962 16.3891 34.9642 16.5651 35.1882 16.6771C35.4122 16.7731 35.7002 16.8211 36.0522 16.8211L37.6842 16.8211V17.9971L28.0842 17.9971ZM40.2425 17.9971V15.7891L43.9625 11.7811C44.6665 11.0451 45.2505 10.3731 45.7145 9.76507C46.1785 9.15707 46.5385 8.58907 46.7945 8.06107C47.0665 7.51707 47.2585 6.98107 47.3705 6.45307C47.4985 5.92507 47.5625 5.36507 47.5625 4.77307C47.5625 4.16507 47.4745 3.65307 47.2985 3.23707C47.1385 2.82107 46.9065 2.50907 46.6025 2.30107C46.2985 2.09307 45.9145 1.98907 45.4505 1.98907C44.8425 1.98907 44.3625 2.14907 44.0105 2.46907C43.6745 2.78907 43.4345 3.24507 43.2905 3.83707C43.1625 4.41307 43.0985 5.10907 43.0985 5.92507C42.5705 5.92507 42.0985 5.86107 41.6825 5.73307C41.2825 5.58907 40.9705 5.36507 40.7465 5.06107C40.5225 4.75707 40.4105 4.35707 40.4105 3.86107C40.4105 3.25307 40.5945 2.70907 40.9625 2.22907C41.3465 1.73307 41.9145 1.34107 42.6665 1.05307C43.4185 0.765069 44.3465 0.621069 45.4505 0.621069C46.5865 0.621069 47.5465 0.781069 48.3305 1.10107C49.1145 1.42107 49.7065 1.88507 50.1065 2.49307C50.5225 3.08507 50.7305 3.78907 50.7305 4.60507C50.7305 5.05307 50.6665 5.49307 50.5385 5.92507C50.4105 6.35707 50.2185 6.79707 49.9625 7.24507C49.7065 7.69307 49.3705 8.18107 48.9545 8.70907C48.5385 9.22107 48.0265 9.78907 47.4185 10.4131C46.8265 11.0371 46.1385 11.7331 45.3545 12.5011L42.3305 15.6211H47.8985C48.4745 15.6211 48.9145 15.4691 49.2185 15.1651C49.5385 14.8451 49.7705 14.4291 49.9145 13.9171L50.0585 13.2931H51.3305L51.2105 17.9971H40.2425Z" fill="#F1AE12"/>
</svg>
