<svg width="188" height="65" viewBox="0 0 188 65" fill="none" xmlns="http://www.w3.org/2000/svg">
<path d="M38.8078 19L38.8078 17.248L42.8158 12.616C43.4558 11.88 43.9918 11.216 44.4238 10.624C44.8558 10.032 45.1998 9.48 45.4558 8.968C45.7278 8.456 45.9198 7.952 46.0318 7.456C46.1598 6.944 46.2238 6.416 46.2238 5.872C46.2238 5.264 46.1358 4.736 45.9598 4.288C45.7838 3.824 45.5118 3.464 45.1438 3.208C44.7918 2.952 44.3358 2.824 43.7758 2.824C43.0558 2.824 42.5038 2.992 42.1198 3.328C41.7358 3.664 41.4718 4.104 41.3278 4.648C41.1998 5.176 41.1358 5.76 41.1358 6.4C40.7518 6.4 40.3998 6.36 40.0798 6.28C39.7758 6.184 39.5278 6.024 39.3358 5.8C39.1598 5.56 39.0718 5.24 39.0718 4.84C39.0718 4.216 39.2478 3.664 39.5998 3.184C39.9518 2.704 40.4798 2.328 41.1838 2.056C41.8878 1.768 42.7518 1.624 43.7758 1.624C44.7838 1.624 45.6478 1.792 46.3678 2.128C47.1038 2.448 47.6638 2.912 48.0478 3.52C48.4478 4.112 48.6478 4.816 48.6478 5.632C48.6478 6.08 48.5838 6.52 48.4558 6.952C48.3438 7.384 48.1758 7.816 47.9518 8.248C47.7278 8.68 47.4558 9.128 47.1358 9.592C46.8158 10.04 46.4478 10.512 46.0318 11.008C45.6158 11.504 45.1518 12.032 44.6398 12.592L40.5838 17.08H46.1278C46.8478 17.08 47.3358 16.896 47.5918 16.528C47.8478 16.16 48.0318 15.744 48.1438 15.28L48.2398 14.848H49.2478L49.1278 19L38.8078 19ZM57.47 19.24C56.158 19.24 55.086 18.872 54.254 18.136C53.422 17.4 52.806 16.368 52.406 15.04C52.022 13.712 51.83 12.16 51.83 10.384C51.83 8.608 52.022 7.064 52.406 5.752C52.806 4.44 53.422 3.424 54.254 2.704C55.086 1.984 56.166 1.624 57.494 1.624C58.742 1.624 59.782 1.984 60.614 2.704C61.446 3.424 62.062 4.448 62.462 5.776C62.878 7.088 63.086 8.632 63.086 10.408C63.086 12.184 62.878 13.736 62.462 15.064C62.046 16.376 61.422 17.4 60.59 18.136C59.774 18.872 58.734 19.24 57.47 19.24ZM57.47 17.944C58.046 17.944 58.534 17.776 58.934 17.44C59.334 17.104 59.654 16.616 59.894 15.976C60.134 15.32 60.31 14.528 60.422 13.6C60.534 12.656 60.59 11.592 60.59 10.408C60.59 9.224 60.534 8.168 60.422 7.24C60.326 6.312 60.15 5.528 59.894 4.888C59.654 4.248 59.334 3.76 58.934 3.424C58.55 3.088 58.07 2.92 57.494 2.92C56.902 2.92 56.406 3.088 56.006 3.424C55.606 3.76 55.278 4.248 55.022 4.888C54.782 5.528 54.606 6.312 54.494 7.24C54.382 8.168 54.326 9.224 54.326 10.408C54.326 11.592 54.382 12.656 54.494 13.6C54.606 14.528 54.782 15.32 55.022 15.976C55.262 16.616 55.582 17.104 55.982 17.44C56.398 17.776 56.894 17.944 57.47 17.944ZM66.4603 19V17.992H68.0683C68.4363 17.992 68.7643 17.952 69.0523 17.872C69.3563 17.792 69.5963 17.632 69.7723 17.392C69.9483 17.136 70.0363 16.76 70.0363 16.264V3.664C69.6363 4.16 69.2603 4.6 68.9083 4.984C68.5563 5.352 68.2203 5.64 67.9003 5.848C67.5803 6.056 67.2603 6.16 66.9403 6.16C66.5883 6.16 66.3003 6.04 66.0763 5.8C65.8523 5.56 65.7402 5.248 65.7402 4.864C66.0603 4.784 66.3883 4.68 66.7243 4.552C67.0603 4.408 67.4283 4.216 67.8283 3.976C68.2443 3.72 68.7163 3.4 69.2443 3.016L70.9243 1.768H72.4603V16.264C72.4603 16.76 72.5483 17.136 72.7243 17.392C72.9003 17.632 73.1403 17.792 73.4443 17.872C73.7483 17.952 74.0763 17.992 74.4283 17.992L75.6043 17.992V19L66.4603 19ZM83.4905 19.24C82.4345 19.24 81.5705 19.12 80.8985 18.88C80.2265 18.624 79.7305 18.296 79.4105 17.896C79.1065 17.48 78.9545 17.04 78.9545 16.576C78.9545 16.096 79.0905 15.72 79.3625 15.448C79.6505 15.176 80.0185 15.04 80.4665 15.04C80.4665 15.6 80.5865 16.104 80.8265 16.552C81.0665 16.984 81.4105 17.328 81.8585 17.584C82.3225 17.824 82.8745 17.944 83.5145 17.944C84.1545 17.944 84.7385 17.824 85.2665 17.584C85.8105 17.328 86.2505 16.92 86.5865 16.36C86.9225 15.8 87.0905 15.04 87.0905 14.08C87.0905 13.408 86.9145 12.824 86.5625 12.328C86.2105 11.816 85.7065 11.424 85.0505 11.152C84.4105 10.88 83.6425 10.744 82.7465 10.744H81.9785V9.52H82.7465C83.4505 9.52 84.0825 9.368 84.6425 9.064C85.2185 8.76 85.6745 8.328 86.0105 7.768C86.3465 7.208 86.5145 6.552 86.5145 5.8C86.5145 4.856 86.3145 4.128 85.9145 3.616C85.5305 3.088 84.8745 2.824 83.9465 2.824C83.2265 2.824 82.6745 2.992 82.2905 3.328C81.9065 3.664 81.6425 4.104 81.4985 4.648C81.3705 5.176 81.3065 5.76 81.3065 6.4C80.7305 6.4 80.2425 6.296 79.8425 6.088C79.4425 5.864 79.2425 5.448 79.2425 4.84C79.2425 4.216 79.4185 3.664 79.7705 3.184C80.1225 2.704 80.6505 2.328 81.3545 2.056C82.0585 1.768 82.9225 1.624 83.9465 1.624C85.4665 1.624 86.6825 1.96 87.5945 2.632C88.5225 3.288 88.9865 4.224 88.9865 5.44C88.9865 6.16 88.8185 6.824 88.4825 7.432C88.1465 8.024 87.6905 8.536 87.1145 8.968C86.5385 9.384 85.8825 9.68 85.1465 9.856C85.5945 9.904 86.0745 10.008 86.5865 10.168C87.0985 10.312 87.5785 10.544 88.0265 10.864C88.4905 11.184 88.8665 11.608 89.1545 12.136C89.4425 12.648 89.5865 13.304 89.5865 14.104C89.5865 15.064 89.4025 15.88 89.0345 16.552C88.6665 17.208 88.1785 17.736 87.5705 18.136C86.9625 18.52 86.2985 18.8 85.5785 18.976C84.8745 19.152 84.1785 19.24 83.4905 19.24ZM106.107 19.24C104.411 19.24 103.003 18.872 101.883 18.136C100.763 17.4 99.9231 16.368 99.3631 15.04C98.8191 13.712 98.5471 12.16 98.5471 10.384C98.5471 8.608 98.8191 7.064 99.3631 5.752C99.9231 4.44 100.763 3.424 101.883 2.704C103.019 1.968 104.435 1.6 106.131 1.6C107.747 1.6 109.107 1.968 110.211 2.704C111.331 3.424 112.179 4.448 112.755 5.776C113.347 7.088 113.643 8.632 113.643 10.408C113.643 12.184 113.347 13.736 112.755 15.064C112.179 16.376 111.331 17.4 110.211 18.136C109.091 18.872 107.723 19.24 106.107 19.24ZM106.107 17.944C107.003 17.944 107.755 17.776 108.363 17.44C108.987 17.104 109.491 16.616 109.875 15.976C110.259 15.32 110.539 14.528 110.715 13.6C110.891 12.656 110.979 11.592 110.979 10.408C110.979 9.224 110.891 8.168 110.715 7.24C110.539 6.312 110.259 5.528 109.875 4.888C109.507 4.232 109.011 3.736 108.387 3.4C107.779 3.064 107.027 2.896 106.131 2.896C105.235 2.896 104.475 3.064 103.851 3.4C103.227 3.736 102.715 4.232 102.315 4.888C101.931 5.528 101.651 6.312 101.475 7.24C101.299 8.168 101.211 9.224 101.211 10.408C101.211 11.592 101.299 12.656 101.475 13.6C101.651 14.528 101.931 15.32 102.315 15.976C102.715 16.616 103.227 17.104 103.851 17.44C104.475 17.776 105.227 17.944 106.107 17.944ZM121.808 19.24C120.752 19.24 119.808 19.016 118.976 18.568C118.16 18.12 117.512 17.416 117.032 16.456C116.568 15.48 116.336 14.208 116.336 12.64C116.336 10.928 116.568 9.584 117.032 8.608C117.512 7.616 118.152 6.92 118.952 6.52C119.768 6.104 120.68 5.896 121.688 5.896C122.36 5.896 123.016 5.984 123.656 6.16C124.296 6.336 124.824 6.608 125.24 6.976C125.656 7.328 125.864 7.784 125.864 8.344C125.864 8.712 125.784 9.008 125.624 9.232C125.464 9.456 125.224 9.616 124.904 9.712C124.6 9.808 124.208 9.856 123.728 9.856C123.728 9.344 123.664 8.88 123.536 8.464C123.424 8.048 123.224 7.72 122.936 7.48C122.648 7.224 122.232 7.096 121.688 7.096C121.08 7.096 120.544 7.256 120.08 7.576C119.632 7.896 119.28 8.456 119.024 9.256C118.784 10.056 118.664 11.176 118.664 12.616C118.664 13.752 118.784 14.696 119.024 15.448C119.28 16.2 119.672 16.76 120.2 17.128C120.728 17.496 121.424 17.68 122.288 17.68C122.784 17.68 123.24 17.608 123.656 17.464C124.072 17.32 124.432 17.12 124.736 16.864C125.056 16.608 125.304 16.32 125.48 16C125.608 16.096 125.704 16.224 125.768 16.384C125.848 16.528 125.888 16.712 125.888 16.936C125.888 17.304 125.736 17.664 125.432 18.016C125.128 18.368 124.672 18.664 124.064 18.904C123.472 19.128 122.72 19.24 121.808 19.24ZM132.588 19.24C131.372 19.24 130.484 18.968 129.924 18.424C129.38 17.864 129.108 16.896 129.108 15.52V7.504H127.284V6.544C127.572 6.544 127.892 6.488 128.244 6.376C128.596 6.248 128.9 6.048 129.156 5.776C129.428 5.488 129.652 5.136 129.828 4.72C130.004 4.304 130.148 3.792 130.26 3.184H131.364V6.136H134.508V7.504H131.364V15.592C131.364 16.408 131.532 17.008 131.868 17.392C132.204 17.776 132.644 17.968 133.188 17.968C133.476 17.968 133.74 17.952 133.98 17.92C134.22 17.888 134.468 17.848 134.724 17.8V18.856C134.516 18.952 134.204 19.04 133.788 19.12C133.372 19.2 132.972 19.24 132.588 19.24ZM142.154 19.24C140.426 19.24 139.066 18.688 138.074 17.584C137.082 16.48 136.586 14.8 136.586 12.544C136.586 10.304 137.058 8.64 138.002 7.552C138.962 6.448 140.37 5.896 142.226 5.896C143.954 5.896 145.314 6.448 146.306 7.552C147.298 8.64 147.794 10.304 147.794 12.544C147.794 14.8 147.314 16.48 146.354 17.584C145.41 18.688 144.01 19.24 142.154 19.24ZM142.202 17.992C143.002 17.992 143.642 17.792 144.122 17.392C144.602 16.976 144.946 16.36 145.154 15.544C145.362 14.728 145.466 13.728 145.466 12.544C145.466 11.344 145.354 10.352 145.13 9.568C144.922 8.768 144.578 8.168 144.098 7.768C143.618 7.368 142.978 7.168 142.178 7.168C141.378 7.168 140.738 7.368 140.258 7.768C139.778 8.168 139.434 8.768 139.226 9.568C139.018 10.352 138.914 11.344 138.914 12.544C138.914 13.728 139.018 14.728 139.226 15.544C139.45 16.36 139.802 16.976 140.282 17.392C140.762 17.792 141.402 17.992 142.202 17.992ZM157.637 19.24C156.709 19.24 155.949 19.048 155.357 18.664C154.781 18.264 154.317 17.752 153.965 17.128H153.821L153.389 19H149.549V17.992H149.741C150.109 17.992 150.437 17.952 150.725 17.872C151.029 17.792 151.269 17.632 151.445 17.392C151.621 17.136 151.709 16.76 151.709 16.264V3.4C151.709 2.92 151.613 2.568 151.421 2.344C151.245 2.104 151.005 1.952 150.701 1.888C150.413 1.808 150.093 1.768 149.741 1.768H149.549V0.759999H153.965V5.176C153.965 5.448 153.957 5.8 153.941 6.232C153.941 6.648 153.933 7.056 153.917 7.456C153.901 7.84 153.885 8.12 153.869 8.296H153.965C154.333 7.56 154.805 6.976 155.381 6.544C155.957 6.112 156.709 5.896 157.637 5.896C159.221 5.896 160.429 6.432 161.261 7.504C162.109 8.56 162.533 10.24 162.533 12.544C162.533 14.08 162.341 15.344 161.957 16.336C161.589 17.328 161.037 18.064 160.301 18.544C159.581 19.008 158.693 19.24 157.637 19.24ZM157.253 17.704C157.957 17.704 158.525 17.504 158.957 17.104C159.389 16.704 159.701 16.12 159.893 15.352C160.101 14.584 160.205 13.64 160.205 12.52C160.205 11.384 160.101 10.44 159.893 9.688C159.701 8.936 159.389 8.376 158.957 8.008C158.525 7.624 157.949 7.432 157.229 7.432C155.981 7.432 155.125 7.856 154.661 8.704C154.197 9.536 153.965 10.816 153.965 12.544C153.965 13.648 154.061 14.584 154.253 15.352C154.461 16.12 154.805 16.704 155.285 17.104C155.765 17.504 156.421 17.704 157.253 17.704ZM170.747 19.24C169.003 19.24 167.635 18.664 166.643 17.512C165.667 16.36 165.179 14.744 165.179 12.664C165.179 10.424 165.643 8.736 166.571 7.6C167.499 6.464 168.811 5.896 170.507 5.896C172.059 5.896 173.275 6.376 174.155 7.336C175.051 8.296 175.499 9.728 175.499 11.632V12.736H167.507C167.539 13.904 167.691 14.856 167.963 15.592C168.235 16.328 168.627 16.872 169.139 17.224C169.667 17.56 170.315 17.728 171.083 17.728C171.643 17.728 172.139 17.648 172.571 17.488C173.019 17.328 173.403 17.12 173.723 16.864C174.059 16.608 174.323 16.336 174.515 16.048C174.627 16.096 174.731 16.192 174.827 16.336C174.923 16.48 174.971 16.656 174.971 16.864C174.971 17.184 174.819 17.528 174.515 17.896C174.211 18.264 173.747 18.584 173.123 18.856C172.499 19.112 171.707 19.24 170.747 19.24ZM173.075 11.44C173.075 10.592 172.987 9.848 172.811 9.208C172.651 8.568 172.379 8.072 171.995 7.72C171.611 7.368 171.099 7.192 170.459 7.192C169.867 7.192 169.363 7.36 168.947 7.696C168.547 8.016 168.227 8.488 167.987 9.112C167.763 9.736 167.619 10.512 167.555 11.44H173.075ZM177.495 19V17.992H177.567C177.935 17.992 178.263 17.952 178.551 17.872C178.855 17.792 179.095 17.632 179.271 17.392C179.447 17.136 179.535 16.76 179.535 16.264V8.776C179.535 8.296 179.439 7.944 179.247 7.72C179.071 7.48 178.831 7.328 178.527 7.264C178.239 7.184 177.919 7.144 177.567 7.144H177.495V6.136H181.191L181.647 8.512H181.767C181.975 8.032 182.199 7.592 182.439 7.192C182.679 6.792 182.999 6.48 183.399 6.256C183.799 6.016 184.351 5.896 185.055 5.896C185.935 5.896 186.583 6.048 186.999 6.352C187.431 6.656 187.647 7.088 187.647 7.648C187.647 8.144 187.471 8.552 187.119 8.872C186.783 9.192 186.215 9.352 185.415 9.352C185.415 8.904 185.375 8.544 185.295 8.272C185.215 8 185.079 7.8 184.887 7.672C184.711 7.544 184.463 7.48 184.143 7.48C183.695 7.48 183.319 7.656 183.015 8.008C182.711 8.36 182.471 8.808 182.295 9.352C182.119 9.896 181.991 10.464 181.911 11.056C181.831 11.632 181.791 12.152 181.791 12.616V16.384C181.791 16.848 181.879 17.2 182.055 17.44C182.247 17.664 182.487 17.816 182.775 17.896C183.079 17.96 183.407 17.992 183.759 17.992H184.431V19H177.495Z" fill="white"/>
<path d="M8.48 45.416C7.936 45.416 7.448 45.536 7.016 45.776C6.584 46 6.216 46.336 5.912 46.784C5.608 47.216 5.376 47.744 5.216 48.368C5.056 48.992 4.976 49.704 4.976 50.504C4.976 51.576 5.112 52.48 5.384 53.216C5.656 53.952 6.072 54.512 6.632 54.896C7.192 55.264 7.896 55.448 8.744 55.448C9.496 55.448 10.224 55.344 10.928 55.136C11.648 54.928 12.368 54.672 13.088 54.368V58.28C12.336 58.616 11.56 58.856 10.76 59C9.976 59.16 9.136 59.24 8.24 59.24C6.384 59.24 4.864 58.872 3.68 58.136C2.496 57.4 1.624 56.376 1.064 55.064C0.504 53.736 0.224 52.208 0.224 50.48C0.224 49.184 0.4 48 0.752 46.928C1.12 45.84 1.656 44.904 2.36 44.12C3.064 43.32 3.928 42.704 4.952 42.272C5.992 41.84 7.184 41.624 8.528 41.624C9.36 41.624 10.232 41.72 11.144 41.912C12.056 42.104 12.952 42.408 13.832 42.824L12.416 46.472C11.792 46.168 11.16 45.92 10.52 45.728C9.88 45.52 9.2 45.416 8.48 45.416ZM14.5619 45.728H19.3859L21.6419 53.336C21.6739 53.448 21.7059 53.584 21.7379 53.744C21.7699 53.904 21.7939 54.072 21.8099 54.248C21.8419 54.424 21.8579 54.6 21.8579 54.776H21.9539C21.9859 54.456 22.0259 54.184 22.0739 53.96C22.1379 53.72 22.1939 53.52 22.2419 53.36L24.5459 45.728H29.2259L23.9699 59.84C23.5699 60.912 23.0979 61.816 22.5539 62.552C22.0259 63.288 21.3699 63.84 20.5859 64.208C19.8019 64.576 18.8259 64.76 17.6579 64.76C17.2419 64.76 16.8819 64.736 16.5779 64.688C16.2739 64.656 16.0099 64.616 15.7859 64.568V60.968C15.9619 61 16.1699 61.032 16.4099 61.064C16.6659 61.096 16.9299 61.112 17.2019 61.112C17.7139 61.112 18.1219 61.008 18.4259 60.8C18.7459 60.592 19.0099 60.32 19.2179 59.984C19.4259 59.664 19.6019 59.312 19.7459 58.928L19.7939 58.808L14.5619 45.728ZM36.8664 59.24C35.5224 59.24 34.3544 59 33.3624 58.52C32.3704 58.04 31.6024 57.296 31.0584 56.288C30.5144 55.28 30.2424 53.992 30.2424 52.424C30.2424 50.808 30.5464 49.496 31.1544 48.488C31.7624 47.464 32.5864 46.712 33.6264 46.232C34.6824 45.736 35.8824 45.488 37.2264 45.488C38.0424 45.488 38.8104 45.576 39.5304 45.752C40.2664 45.928 40.9464 46.176 41.5704 46.496L40.2264 49.88C39.6824 49.64 39.1704 49.448 38.6904 49.304C38.2264 49.16 37.7384 49.088 37.2264 49.088C36.7624 49.088 36.3544 49.208 36.0024 49.448C35.6504 49.688 35.3784 50.056 35.1864 50.552C34.9944 51.032 34.8984 51.648 34.8984 52.4C34.8984 53.168 34.9944 53.784 35.1864 54.248C35.3944 54.712 35.6744 55.056 36.0264 55.28C36.3784 55.488 36.7864 55.592 37.2504 55.592C37.9064 55.592 38.5624 55.488 39.2184 55.28C39.8904 55.072 40.5224 54.784 41.1144 54.416V58.064C40.5704 58.416 39.9544 58.704 39.2664 58.928C38.5784 59.136 37.7784 59.24 36.8664 59.24ZM48.3399 59H43.7559V40.76H48.3399L48.3399 59ZM64.1857 52.328C64.1857 53.432 64.0337 54.416 63.7297 55.28C63.4257 56.144 62.9857 56.872 62.4097 57.464C61.8337 58.04 61.1377 58.48 60.3217 58.784C59.5057 59.088 58.5777 59.24 57.5377 59.24C56.5777 59.24 55.6897 59.088 54.8737 58.784C54.0737 58.48 53.3777 58.04 52.7857 57.464C52.2097 56.872 51.7537 56.144 51.4177 55.28C51.0977 54.416 50.9377 53.432 50.9377 52.328C50.9377 50.856 51.2017 49.616 51.7297 48.608C52.2737 47.584 53.0417 46.808 54.0337 46.28C55.0257 45.752 56.2177 45.488 57.6097 45.488C58.8897 45.488 60.0177 45.752 60.9937 46.28C61.9857 46.808 62.7617 47.584 63.3217 48.608C63.8977 49.616 64.1857 50.856 64.1857 52.328ZM55.5937 52.328C55.5937 53.08 55.6577 53.72 55.7857 54.248C55.9137 54.776 56.1217 55.176 56.4097 55.448C56.7137 55.704 57.1057 55.832 57.5857 55.832C58.0657 55.832 58.4417 55.704 58.7137 55.448C59.0017 55.176 59.2097 54.776 59.3377 54.248C59.4657 53.72 59.5297 53.08 59.5297 52.328C59.5297 51.576 59.4657 50.944 59.3377 50.432C59.2097 49.92 59.0017 49.536 58.7137 49.28C58.4257 49.024 58.0417 48.896 57.5617 48.896C56.8737 48.896 56.3697 49.184 56.0497 49.76C55.7457 50.336 55.5937 51.192 55.5937 52.328ZM75.0989 45.488C76.4749 45.488 77.5949 45.872 78.4589 46.64C79.3229 47.408 79.7549 48.648 79.7549 50.36V59H75.1709V51.752C75.1709 50.872 75.0429 50.208 74.7869 49.76C74.5309 49.312 74.1229 49.088 73.5629 49.088C72.6989 49.088 72.1149 49.44 71.8109 50.144C71.5229 50.848 71.3789 51.864 71.3789 53.192V59H66.7949L66.7949 45.728H70.2509L70.8749 47.48H71.0429C71.3309 47.064 71.6669 46.712 72.0509 46.424C72.4509 46.12 72.8989 45.888 73.3949 45.728C73.9069 45.568 74.4749 45.488 75.0989 45.488ZM88.8491 45.488C90.1451 45.488 91.2571 45.712 92.1851 46.16C93.1291 46.608 93.8491 47.28 94.3451 48.176C94.8571 49.072 95.1131 50.2 95.1131 51.56V53.6H86.9291C86.9611 54.288 87.2171 54.856 87.6971 55.304C88.1931 55.752 88.9051 55.976 89.8331 55.976C90.6651 55.976 91.4251 55.896 92.1131 55.736C92.8011 55.576 93.5131 55.32 94.2491 54.968V58.256C93.6091 58.592 92.9051 58.84 92.1371 59C91.3851 59.16 90.4331 59.24 89.2811 59.24C87.9371 59.24 86.7371 59.008 85.6811 58.544C84.6411 58.064 83.8171 57.32 83.2091 56.312C82.6011 55.304 82.2971 54.016 82.2971 52.448C82.2971 50.848 82.5691 49.536 83.1131 48.512C83.6731 47.488 84.4411 46.728 85.4171 46.232C86.4091 45.736 87.5531 45.488 88.8491 45.488ZM89.0171 48.608C88.4731 48.608 88.0171 48.776 87.6491 49.112C87.2971 49.448 87.0891 49.984 87.0251 50.72H90.9611C90.9611 50.32 90.8811 49.968 90.7211 49.664C90.5771 49.344 90.3611 49.088 90.0731 48.896C89.7851 48.704 89.4331 48.608 89.0171 48.608ZM110.135 41.864C112.311 41.864 113.935 42.336 115.007 43.28C116.095 44.224 116.639 45.568 116.639 47.312C116.639 48.096 116.527 48.848 116.303 49.568C116.079 50.272 115.711 50.912 115.199 51.488C114.703 52.048 114.039 52.496 113.207 52.832C112.375 53.152 111.351 53.312 110.135 53.312H108.839V59H104.207L104.207 41.864H110.135ZM110.039 45.608H108.839L108.839 49.544H109.751C110.151 49.544 110.519 49.48 110.855 49.352C111.207 49.208 111.487 48.984 111.695 48.68C111.903 48.36 112.007 47.944 112.007 47.432C112.007 46.888 111.847 46.448 111.527 46.112C111.207 45.776 110.711 45.608 110.039 45.608ZM123.691 43.352C123.691 44.328 123.667 45.152 123.619 45.824C123.571 46.496 123.531 47.008 123.499 47.36H123.715C124.003 46.896 124.323 46.528 124.675 46.256C125.043 45.984 125.451 45.792 125.899 45.68C126.347 45.552 126.835 45.488 127.363 45.488C128.243 45.488 129.035 45.656 129.739 45.992C130.443 46.328 131.003 46.856 131.419 47.576C131.851 48.28 132.067 49.208 132.067 50.36V59H127.459V51.752C127.459 50.872 127.331 50.208 127.075 49.76C126.819 49.312 126.419 49.088 125.875 49.088C125.331 49.088 124.899 49.248 124.579 49.568C124.259 49.888 124.027 50.352 123.883 50.96C123.755 51.552 123.691 52.288 123.691 53.168V59H119.107V40.76H123.691V43.352ZM141.666 45.488C143.346 45.488 144.658 45.904 145.602 46.736C146.546 47.568 147.018 48.752 147.018 50.288V59H143.85L142.962 57.248H142.866C142.498 57.712 142.114 58.096 141.714 58.4C141.33 58.688 140.882 58.896 140.37 59.024C139.858 59.168 139.234 59.24 138.498 59.24C137.73 59.24 137.042 59.088 136.434 58.784C135.826 58.464 135.346 57.992 134.994 57.368C134.642 56.728 134.466 55.92 134.466 54.944C134.466 53.52 134.954 52.464 135.93 51.776C136.922 51.088 138.354 50.704 140.226 50.624L142.434 50.552V50.36C142.434 49.768 142.29 49.352 142.002 49.112C141.714 48.856 141.322 48.728 140.826 48.728C140.298 48.728 139.714 48.824 139.074 49.016C138.434 49.192 137.786 49.424 137.13 49.712L135.81 46.688C136.578 46.288 137.442 45.992 138.402 45.8C139.378 45.592 140.466 45.488 141.666 45.488ZM141.402 53.12C140.57 53.152 139.978 53.304 139.626 53.576C139.29 53.832 139.122 54.2 139.122 54.68C139.122 55.128 139.242 55.464 139.482 55.688C139.722 55.896 140.042 56 140.442 56C141.002 56 141.474 55.824 141.858 55.472C142.258 55.12 142.458 54.664 142.458 54.104V53.072L141.402 53.12ZM154.747 45.728V59L150.163 59V45.728H154.747ZM152.467 40.376C153.123 40.376 153.691 40.512 154.171 40.784C154.667 41.056 154.915 41.6 154.915 42.416C154.915 43.2 154.667 43.736 154.171 44.024C153.691 44.296 153.123 44.432 152.467 44.432C151.795 44.432 151.219 44.296 150.739 44.024C150.275 43.736 150.043 43.2 150.043 42.416C150.043 41.6 150.275 41.056 150.739 40.784C151.219 40.512 151.795 40.376 152.467 40.376ZM162.527 59H157.943V40.76H162.527V59ZM170.309 45.728V59H165.725V45.728L170.309 45.728ZM168.029 40.376C168.685 40.376 169.253 40.512 169.733 40.784C170.229 41.056 170.477 41.6 170.477 42.416C170.477 43.2 170.229 43.736 169.733 44.024C169.253 44.296 168.685 44.432 168.029 44.432C167.357 44.432 166.781 44.296 166.301 44.024C165.837 43.736 165.605 43.2 165.605 42.416C165.605 41.6 165.837 41.056 166.301 40.784C166.781 40.512 167.357 40.376 168.029 40.376ZM181.81 45.488C183.186 45.488 184.306 45.872 185.17 46.64C186.034 47.408 186.466 48.648 186.466 50.36V59H181.882V51.752C181.882 50.872 181.754 50.208 181.498 49.76C181.242 49.312 180.834 49.088 180.274 49.088C179.41 49.088 178.826 49.44 178.522 50.144C178.234 50.848 178.09 51.864 178.09 53.192V59H173.506V45.728H176.962L177.586 47.48H177.754C178.042 47.064 178.378 46.712 178.762 46.424C179.162 46.12 179.61 45.888 180.106 45.728C180.618 45.568 181.186 45.488 181.81 45.488Z" fill="#F1AE12"/>
</svg>
