<svg width="117" height="25" viewBox="0 0 117 25" fill="none" xmlns="http://www.w3.org/2000/svg">
<path d="M0.464 19L0.464 17.248L4.472 12.616C5.112 11.88 5.648 11.216 6.08 10.624C6.512 10.032 6.856 9.48 7.112 8.968C7.384 8.456 7.576 7.952 7.688 7.456C7.816 6.944 7.88 6.416 7.88 5.872C7.88 5.264 7.792 4.736 7.616 4.288C7.44 3.824 7.168 3.464 6.8 3.208C6.448 2.952 5.992 2.824 5.432 2.824C4.712 2.824 4.16 2.992 3.776 3.328C3.392 3.664 3.128 4.104 2.984 4.648C2.856 5.176 2.792 5.76 2.792 6.4C2.408 6.4 2.056 6.36 1.736 6.28C1.432 6.184 1.184 6.024 0.992 5.8C0.816 5.56 0.728 5.24 0.728 4.84C0.728 4.216 0.904 3.664 1.256 3.184C1.608 2.704 2.136 2.328 2.84 2.056C3.544 1.768 4.408 1.624 5.432 1.624C6.44 1.624 7.304 1.792 8.024 2.128C8.76 2.448 9.32 2.912 9.704 3.52C10.104 4.112 10.304 4.816 10.304 5.632C10.304 6.08 10.24 6.52 10.112 6.952C10 7.384 9.832 7.816 9.608 8.248C9.384 8.68 9.112 9.128 8.792 9.592C8.472 10.04 8.104 10.512 7.688 11.008C7.272 11.504 6.808 12.032 6.296 12.592L2.24 17.08L7.784 17.08C8.504 17.08 8.992 16.896 9.248 16.528C9.504 16.16 9.688 15.744 9.8 15.28L9.896 14.848H10.904L10.784 19L0.464 19ZM19.1263 19.24C17.8143 19.24 16.7423 18.872 15.9103 18.136C15.0783 17.4 14.4623 16.368 14.0623 15.04C13.6783 13.712 13.4863 12.16 13.4863 10.384C13.4863 8.608 13.6783 7.064 14.0623 5.752C14.4623 4.44 15.0783 3.424 15.9103 2.704C16.7423 1.984 17.8223 1.624 19.1503 1.624C20.3983 1.624 21.4383 1.984 22.2703 2.704C23.1023 3.424 23.7183 4.448 24.1183 5.776C24.5343 7.088 24.7422 8.632 24.7422 10.408C24.7422 12.184 24.5343 13.736 24.1183 15.064C23.7023 16.376 23.0783 17.4 22.2463 18.136C21.4303 18.872 20.3903 19.24 19.1263 19.24ZM19.1263 17.944C19.7023 17.944 20.1903 17.776 20.5903 17.44C20.9903 17.104 21.3103 16.616 21.5503 15.976C21.7903 15.32 21.9663 14.528 22.0783 13.6C22.1903 12.656 22.2463 11.592 22.2463 10.408C22.2463 9.224 22.1903 8.168 22.0783 7.24C21.9823 6.312 21.8063 5.528 21.5503 4.888C21.3103 4.248 20.9903 3.76 20.5903 3.424C20.2063 3.088 19.7263 2.92 19.1503 2.92C18.5583 2.92 18.0623 3.088 17.6623 3.424C17.2623 3.76 16.9343 4.248 16.6783 4.888C16.4383 5.528 16.2623 6.312 16.1503 7.24C16.0383 8.168 15.9823 9.224 15.9823 10.408C15.9823 11.592 16.0383 12.656 16.1503 13.6C16.2623 14.528 16.4383 15.32 16.6783 15.976C16.9183 16.616 17.2383 17.104 17.6383 17.44C18.0543 17.776 18.5503 17.944 19.1263 17.944ZM28.1165 19V17.992H29.7245C30.0925 17.992 30.4205 17.952 30.7085 17.872C31.0125 17.792 31.2525 17.632 31.4285 17.392C31.6045 17.136 31.6925 16.76 31.6925 16.264V3.664C31.2925 4.16 30.9165 4.6 30.5645 4.984C30.2125 5.352 29.8765 5.64 29.5565 5.848C29.2365 6.056 28.9165 6.16 28.5965 6.16C28.2445 6.16 27.9565 6.04 27.7325 5.8C27.5085 5.56 27.3965 5.248 27.3965 4.864C27.7165 4.784 28.0445 4.68 28.3805 4.552C28.7165 4.408 29.0845 4.216 29.4845 3.976C29.9005 3.72 30.3725 3.4 30.9005 3.016L32.5805 1.768H34.1165V16.264C34.1165 16.76 34.2045 17.136 34.3805 17.392C34.5565 17.632 34.7965 17.792 35.1005 17.872C35.4045 17.952 35.7325 17.992 36.0845 17.992H37.2605V19H28.1165ZM45.1468 19.24C44.0908 19.24 43.2268 19.12 42.5548 18.88C41.8828 18.624 41.3868 18.296 41.0668 17.896C40.7628 17.48 40.6108 17.04 40.6108 16.576C40.6108 16.096 40.7468 15.72 41.0188 15.448C41.3068 15.176 41.6748 15.04 42.1228 15.04C42.1228 15.6 42.2428 16.104 42.4828 16.552C42.7228 16.984 43.0668 17.328 43.5148 17.584C43.9788 17.824 44.5308 17.944 45.1708 17.944C45.8108 17.944 46.3948 17.824 46.9228 17.584C47.4668 17.328 47.9068 16.92 48.2428 16.36C48.5788 15.8 48.7468 15.04 48.7468 14.08C48.7468 13.408 48.5708 12.824 48.2188 12.328C47.8668 11.816 47.3628 11.424 46.7068 11.152C46.0668 10.88 45.2988 10.744 44.4028 10.744H43.6348V9.52H44.4028C45.1068 9.52 45.7388 9.368 46.2988 9.064C46.8748 8.76 47.3308 8.328 47.6668 7.768C48.0028 7.208 48.1708 6.552 48.1708 5.8C48.1708 4.856 47.9708 4.128 47.5708 3.616C47.1868 3.088 46.5308 2.824 45.6028 2.824C44.8828 2.824 44.3308 2.992 43.9468 3.328C43.5628 3.664 43.2988 4.104 43.1548 4.648C43.0268 5.176 42.9628 5.76 42.9628 6.4C42.3868 6.4 41.8988 6.296 41.4988 6.088C41.0988 5.864 40.8988 5.448 40.8988 4.84C40.8988 4.216 41.0748 3.664 41.4268 3.184C41.7788 2.704 42.3068 2.328 43.0108 2.056C43.7148 1.768 44.5788 1.624 45.6028 1.624C47.1228 1.624 48.3388 1.96 49.2508 2.632C50.1788 3.288 50.6428 4.224 50.6428 5.44C50.6428 6.16 50.4748 6.824 50.1388 7.432C49.8028 8.024 49.3468 8.536 48.7708 8.968C48.1948 9.384 47.5388 9.68 46.8028 9.856C47.2508 9.904 47.7308 10.008 48.2428 10.168C48.7548 10.312 49.2348 10.544 49.6828 10.864C50.1468 11.184 50.5228 11.608 50.8108 12.136C51.0988 12.648 51.2428 13.304 51.2428 14.104C51.2428 15.064 51.0588 15.88 50.6908 16.552C50.3228 17.208 49.8348 17.736 49.2268 18.136C48.6188 18.52 47.9548 18.8 47.2348 18.976C46.5308 19.152 45.8348 19.24 45.1468 19.24ZM58.8594 19V17.992H59.3154C59.6354 17.992 59.8914 17.944 60.0834 17.848C60.2754 17.752 60.4514 17.568 60.6114 17.296C60.7714 17.024 60.9474 16.632 61.1394 16.12L66.4674 1.864H68.3394L73.7634 16.72C73.8914 17.056 74.0274 17.32 74.1714 17.512C74.3154 17.688 74.4914 17.816 74.6994 17.896C74.9074 17.96 75.1634 17.992 75.4674 17.992L75.7794 17.992V19L69.1794 19V17.992H69.7314C70.2114 17.992 70.5714 17.904 70.8114 17.728C71.0514 17.536 71.1714 17.24 71.1714 16.84C71.1714 16.744 71.1634 16.656 71.1474 16.576C71.1314 16.48 71.1074 16.384 71.0754 16.288C71.0594 16.176 71.0274 16.064 70.9794 15.952L70.0194 13.264H63.7074L62.7954 15.784C62.7474 15.912 62.7074 16.04 62.6754 16.168C62.6434 16.296 62.6194 16.416 62.6034 16.528C62.5874 16.624 62.5794 16.72 62.5794 16.816C62.5794 17.216 62.7074 17.512 62.9634 17.704C63.2354 17.896 63.6354 17.992 64.1634 17.992H64.7154V19H58.8594ZM64.1634 12.064H69.5874L68.0994 7.864C67.9394 7.384 67.7794 6.928 67.6194 6.496C67.4754 6.064 67.3394 5.648 67.2114 5.248C67.0994 4.848 66.9954 4.456 66.8994 4.072C66.8354 4.36 66.7634 4.64 66.6834 4.912C66.6194 5.184 66.5394 5.464 66.4434 5.752C66.3634 6.024 66.2674 6.32 66.1554 6.64C66.0594 6.944 65.9394 7.28 65.7954 7.648L64.1634 12.064ZM76.2133 24.76V23.752H76.4053C76.7733 23.752 77.1013 23.712 77.3893 23.632C77.6933 23.552 77.9333 23.384 78.1093 23.128C78.2853 22.888 78.3733 22.52 78.3733 22.024V8.776C78.3733 8.296 78.2773 7.944 78.0853 7.72C77.9093 7.48 77.6693 7.328 77.3652 7.264C77.0773 7.184 76.7573 7.144 76.4053 7.144H76.0933V6.136L80.2933 6.136L80.5333 8.296H80.6293C80.9973 7.56 81.4693 6.976 82.0453 6.544C82.6213 6.112 83.3733 5.896 84.3013 5.896C85.8853 5.896 87.0933 6.432 87.9253 7.504C88.7733 8.56 89.1973 10.24 89.1973 12.544C89.1973 14.864 88.7733 16.56 87.9253 17.632C87.0933 18.704 85.8853 19.24 84.3013 19.24C83.3733 19.24 82.6133 19.048 82.0213 18.664C81.4453 18.264 80.9813 17.752 80.6293 17.128H80.5333C80.5653 17.432 80.5813 17.76 80.5813 18.112C80.5973 18.448 80.6053 18.768 80.6053 19.072C80.6213 19.376 80.6293 19.632 80.6293 19.84V22.144C80.6293 22.608 80.7173 22.952 80.8933 23.176C81.0853 23.416 81.3253 23.568 81.6133 23.632C81.9173 23.712 82.2453 23.752 82.5973 23.752H82.6693V24.76H76.2133ZM83.9173 17.704C84.6213 17.704 85.1893 17.504 85.6213 17.104C86.0533 16.704 86.3653 16.12 86.5573 15.352C86.7653 14.584 86.8693 13.64 86.8693 12.52C86.8693 11.384 86.7653 10.44 86.5573 9.688C86.3653 8.936 86.0533 8.376 85.6213 8.008C85.1893 7.624 84.6133 7.432 83.8933 7.432C83.0613 7.432 82.4053 7.616 81.9253 7.984C81.4613 8.352 81.1253 8.92 80.9173 9.688C80.7253 10.44 80.6293 11.392 80.6293 12.544C80.6293 13.648 80.7253 14.584 80.9173 15.352C81.1253 16.12 81.4693 16.704 81.9492 17.104C82.4293 17.504 83.0853 17.704 83.9173 17.704ZM91.3154 19V17.992H91.3874C91.7554 17.992 92.0834 17.952 92.3714 17.872C92.6754 17.792 92.9154 17.632 93.0914 17.392C93.2674 17.136 93.3554 16.76 93.3554 16.264V8.776C93.3554 8.296 93.2594 7.944 93.0674 7.72C92.8914 7.48 92.6514 7.328 92.3474 7.264C92.0594 7.184 91.7394 7.144 91.3874 7.144H91.3154V6.136H95.0114L95.4674 8.512H95.5874C95.7954 8.032 96.0194 7.592 96.2594 7.192C96.4994 6.792 96.8194 6.48 97.2194 6.256C97.6194 6.016 98.1714 5.896 98.8754 5.896C99.7554 5.896 100.403 6.048 100.819 6.352C101.251 6.656 101.467 7.088 101.467 7.648C101.467 8.144 101.291 8.552 100.939 8.872C100.603 9.192 100.035 9.352 99.2354 9.352C99.2354 8.904 99.1954 8.544 99.1154 8.272C99.0354 8 98.8994 7.8 98.7074 7.672C98.5314 7.544 98.2834 7.48 97.9634 7.48C97.5154 7.48 97.1394 7.656 96.8354 8.008C96.5314 8.36 96.2914 8.808 96.1154 9.352C95.9394 9.896 95.8114 10.464 95.7314 11.056C95.6514 11.632 95.6114 12.152 95.6114 12.616V16.384C95.6114 16.848 95.6994 17.2 95.8754 17.44C96.0674 17.664 96.3074 17.816 96.5954 17.896C96.8994 17.96 97.2274 17.992 97.5794 17.992H98.2514V19L91.3154 19ZM102.372 19V17.992H102.684C103.036 17.992 103.356 17.96 103.644 17.896C103.948 17.816 104.188 17.664 104.364 17.44C104.556 17.2 104.652 16.848 104.652 16.384V8.776C104.652 8.296 104.556 7.944 104.364 7.72C104.188 7.48 103.948 7.328 103.644 7.264C103.356 7.184 103.036 7.144 102.684 7.144H102.612V6.136L106.908 6.136V16.264C106.908 16.76 106.996 17.136 107.172 17.392C107.348 17.632 107.588 17.792 107.892 17.872C108.196 17.952 108.524 17.992 108.876 17.992H109.188V19H102.372ZM105.684 3.736C105.3 3.736 104.972 3.624 104.7 3.4C104.444 3.176 104.316 2.792 104.316 2.248C104.316 1.688 104.444 1.304 104.7 1.096C104.972 0.871999 105.3 0.759999 105.684 0.759999C106.052 0.759999 106.372 0.871999 106.644 1.096C106.916 1.304 107.052 1.688 107.052 2.248C107.052 2.792 106.916 3.176 106.644 3.4C106.372 3.624 106.052 3.736 105.684 3.736ZM109.82 19V17.992H110.132C110.5 17.992 110.828 17.952 111.116 17.872C111.42 17.792 111.66 17.632 111.836 17.392C112.012 17.136 112.1 16.76 112.1 16.264V3.4C112.1 2.92 112.004 2.568 111.812 2.344C111.636 2.104 111.396 1.952 111.092 1.888C110.804 1.808 110.484 1.768 110.132 1.768H109.82V0.759999L114.356 0.759999V16.264C114.356 16.76 114.444 17.136 114.62 17.392C114.796 17.632 115.036 17.792 115.34 17.872C115.644 17.952 115.972 17.992 116.324 17.992H116.636V19H109.82Z" fill="white"/>
</svg>
