<svg width="53" height="18" viewBox="0 0 53 18" fill="none" xmlns="http://www.w3.org/2000/svg">
<path d="M0.533117 17.5443V15.3363L4.25312 11.3283C4.95712 10.5923 5.54112 9.92031 6.00512 9.31231C6.46912 8.70431 6.82912 8.13631 7.08512 7.60831C7.35712 7.06431 7.54912 6.52831 7.66112 6.00031C7.78912 5.47231 7.85312 4.91231 7.85312 4.32031C7.85312 3.71231 7.76512 3.20031 7.58912 2.78431C7.42912 2.36831 7.19712 2.05631 6.89312 1.84831C6.58912 1.64031 6.20512 1.53631 5.74112 1.53631C5.13312 1.53631 4.65312 1.69631 4.30112 2.01631C3.96512 2.33631 3.72512 2.79231 3.58112 3.38431C3.45312 3.96031 3.38912 4.65631 3.38912 5.47231C2.86112 5.47231 2.38912 5.40831 1.97312 5.28031C1.57312 5.13631 1.26112 4.91231 1.03712 4.60831C0.813117 4.30431 0.701117 3.90431 0.701117 3.40831C0.701117 2.80031 0.885117 2.25631 1.25312 1.77631C1.63712 1.28031 2.20512 0.888311 2.95712 0.600311C3.70912 0.312311 4.63712 0.168311 5.74112 0.168311C6.87712 0.168311 7.83712 0.32831 8.62112 0.64831C9.40512 0.968311 9.99712 1.43231 10.3971 2.04031C10.8131 2.63231 11.0211 3.33631 11.0211 4.15231C11.0211 4.60031 10.9571 5.04031 10.8291 5.47231C10.7011 5.90431 10.5091 6.34431 10.2531 6.79231C9.99712 7.24031 9.66112 7.72831 9.24512 8.25631C8.82912 8.76831 8.31712 9.33631 7.70912 9.96031C7.11712 10.5843 6.42912 11.2803 5.64512 12.0483L2.62112 15.1683L8.18912 15.1683C8.76512 15.1683 9.20512 15.0163 9.50912 14.7123C9.82912 14.3923 10.0611 13.9763 10.2051 13.4643L10.3491 12.8403H11.6211L11.5011 17.5443L0.533117 17.5443ZM19.5794 17.7843C18.1714 17.7843 17.0434 17.4163 16.1954 16.6803C15.3474 15.9443 14.7314 14.9123 14.3474 13.5843C13.9634 12.2563 13.7714 10.7043 13.7714 8.92831C13.7714 7.15231 13.9634 5.60831 14.3474 4.29631C14.7314 2.98431 15.3474 1.96831 16.1954 1.24831C17.0434 0.528311 18.1794 0.168311 19.6034 0.168311C20.9474 0.168311 22.0354 0.528311 22.8674 1.24831C23.7154 1.96831 24.3394 2.99231 24.7394 4.32031C25.1554 5.63231 25.3634 7.17631 25.3634 8.95231C25.3634 10.7283 25.1554 12.2803 24.7394 13.6083C24.3394 14.9203 23.7154 15.9443 22.8674 16.6803C22.0194 17.4163 20.9234 17.7843 19.5794 17.7843ZM19.5794 16.3203C20.0754 16.3203 20.4834 16.1603 20.8034 15.8403C21.1394 15.5043 21.3954 15.0243 21.5714 14.4003C21.7634 13.7603 21.8994 12.9843 21.9794 12.0723C22.0594 11.1603 22.0994 10.1203 22.0994 8.95231C22.0994 7.78431 22.0594 6.75231 21.9794 5.85631C21.9154 4.94431 21.7874 4.17631 21.5954 3.55231C21.4034 2.92831 21.1394 2.45631 20.8034 2.13631C20.4834 1.80031 20.0834 1.63231 19.6034 1.63231C19.1074 1.63231 18.6914 1.80031 18.3554 2.13631C18.0194 2.45631 17.7554 2.92831 17.5634 3.55231C17.3714 4.17631 17.2354 4.94431 17.1554 5.85631C17.0754 6.75231 17.0354 7.78431 17.0354 8.95231C17.0354 10.1203 17.0754 11.1603 17.1554 12.0723C17.2354 12.9843 17.3714 13.7603 17.5634 14.4003C17.7554 15.0243 18.0114 15.5043 18.3314 15.8403C18.6674 16.1603 19.0834 16.3203 19.5794 16.3203ZM28.5936 17.5443V16.3683H30.4176C30.7216 16.3683 30.9856 16.3283 31.2096 16.2483C31.4336 16.1523 31.6016 15.9923 31.7136 15.7683C31.8416 15.5283 31.9056 15.1923 31.9056 14.7603V2.49631C31.5056 2.99231 31.1296 3.43231 30.7776 3.81631C30.4256 4.18431 30.0896 4.47231 29.7696 4.68031C29.4496 4.88831 29.1296 4.99231 28.8096 4.99231C28.4416 4.99231 28.1296 4.84831 27.8736 4.56031C27.6176 4.27231 27.4896 3.88831 27.4896 3.40831C27.8096 3.32831 28.1456 3.22431 28.4976 3.09631C28.8656 2.95231 29.2576 2.76031 29.6736 2.52031C30.1056 2.26431 30.5856 1.94431 31.1136 1.56031L32.7936 0.31231H35.0496V14.7603C35.0496 15.1443 35.0976 15.4563 35.1936 15.6963C35.3056 15.9363 35.4736 16.1123 35.6976 16.2243C35.9216 16.3203 36.2096 16.3683 36.5616 16.3683L38.1936 16.3683V17.5443L28.5936 17.5443ZM44.3039 17.5443V16.3683H44.9759C45.3439 16.3683 45.6719 16.3283 45.9599 16.2483C46.2639 16.1683 46.5039 16.0083 46.6799 15.7683C46.8559 15.5123 46.9439 15.1363 46.9439 14.6403V12.9843H40.0319V11.7123L47.0639 0.40831L49.9919 0.40831V11.4963H52.6799V12.9843H49.9919V14.6403C49.9919 15.1363 50.0799 15.5123 50.2559 15.7683C50.4319 16.0083 50.6719 16.1683 50.9759 16.2483C51.2799 16.3283 51.6079 16.3683 51.9599 16.3683H52.2719V17.5443H44.3039ZM41.7119 11.4963H46.9439V7.20031C46.9439 6.84831 46.9439 6.48031 46.9439 6.09631C46.9599 5.69631 46.9679 5.28831 46.9679 4.87231C46.9839 4.45631 46.9999 4.04831 47.0159 3.64831C47.0479 3.23231 47.0799 2.84031 47.1119 2.47231C47.0319 2.64831 46.9039 2.89631 46.7279 3.21631C46.5679 3.53631 46.3839 3.88031 46.1759 4.24831C45.9679 4.61631 45.7679 4.96031 45.5759 5.28031C45.3839 5.58431 45.2319 5.82431 45.1199 6.00031L41.7119 11.4963Z" fill="#F1AE12"/>
</svg>
