<svg width="200" height="65" viewBox="0 0 200 65" fill="none" xmlns="http://www.w3.org/2000/svg">
<path d="M50.8078 19V17.248L54.8158 12.616C55.4558 11.88 55.9918 11.216 56.4238 10.624C56.8558 10.032 57.1998 9.48 57.4558 8.968C57.7278 8.456 57.9198 7.952 58.0318 7.456C58.1598 6.944 58.2238 6.416 58.2238 5.872C58.2238 5.264 58.1358 4.736 57.9598 4.288C57.7838 3.824 57.5118 3.464 57.1438 3.208C56.7918 2.952 56.3358 2.824 55.7758 2.824C55.0558 2.824 54.5038 2.992 54.1198 3.328C53.7358 3.664 53.4718 4.104 53.3278 4.648C53.1998 5.176 53.1358 5.76 53.1358 6.4C52.7518 6.4 52.3998 6.36 52.0798 6.28C51.7758 6.184 51.5278 6.024 51.3358 5.8C51.1598 5.56 51.0718 5.24 51.0718 4.84C51.0718 4.216 51.2478 3.664 51.5998 3.184C51.9518 2.704 52.4798 2.328 53.1838 2.056C53.8878 1.768 54.7518 1.624 55.7758 1.624C56.7838 1.624 57.6478 1.792 58.3678 2.128C59.1038 2.448 59.6638 2.912 60.0478 3.52C60.4478 4.112 60.6478 4.816 60.6478 5.632C60.6478 6.08 60.5838 6.52 60.4558 6.952C60.3438 7.384 60.1758 7.816 59.9518 8.248C59.7278 8.68 59.4558 9.128 59.1358 9.592C58.8158 10.04 58.4478 10.512 58.0318 11.008C57.6158 11.504 57.1518 12.032 56.6398 12.592L52.5838 17.08H58.1278C58.8478 17.08 59.3358 16.896 59.5918 16.528C59.8478 16.16 60.0318 15.744 60.1438 15.28L60.2398 14.848L61.2478 14.848L61.1278 19L50.8078 19ZM69.47 19.24C68.158 19.24 67.086 18.872 66.254 18.136C65.422 17.4 64.806 16.368 64.406 15.04C64.022 13.712 63.83 12.16 63.83 10.384C63.83 8.608 64.022 7.064 64.406 5.752C64.806 4.44 65.422 3.424 66.254 2.704C67.086 1.984 68.166 1.624 69.494 1.624C70.742 1.624 71.782 1.984 72.614 2.704C73.446 3.424 74.062 4.448 74.462 5.776C74.878 7.088 75.086 8.632 75.086 10.408C75.086 12.184 74.878 13.736 74.462 15.064C74.046 16.376 73.422 17.4 72.59 18.136C71.774 18.872 70.734 19.24 69.47 19.24ZM69.47 17.944C70.046 17.944 70.534 17.776 70.934 17.44C71.334 17.104 71.654 16.616 71.894 15.976C72.134 15.32 72.31 14.528 72.422 13.6C72.534 12.656 72.59 11.592 72.59 10.408C72.59 9.224 72.534 8.168 72.422 7.24C72.326 6.312 72.15 5.528 71.894 4.888C71.654 4.248 71.334 3.76 70.934 3.424C70.55 3.088 70.07 2.92 69.494 2.92C68.902 2.92 68.406 3.088 68.006 3.424C67.606 3.76 67.278 4.248 67.022 4.888C66.782 5.528 66.606 6.312 66.494 7.24C66.382 8.168 66.326 9.224 66.326 10.408C66.326 11.592 66.382 12.656 66.494 13.6C66.606 14.528 66.782 15.32 67.022 15.976C67.262 16.616 67.582 17.104 67.982 17.44C68.398 17.776 68.894 17.944 69.47 17.944ZM78.4603 19V17.992H80.0683C80.4363 17.992 80.7643 17.952 81.0523 17.872C81.3563 17.792 81.5963 17.632 81.7723 17.392C81.9483 17.136 82.0363 16.76 82.0363 16.264V3.664C81.6363 4.16 81.2603 4.6 80.9083 4.984C80.5563 5.352 80.2203 5.64 79.9003 5.848C79.5803 6.056 79.2603 6.16 78.9403 6.16C78.5883 6.16 78.3003 6.04 78.0763 5.8C77.8523 5.56 77.7402 5.248 77.7402 4.864C78.0603 4.784 78.3883 4.68 78.7243 4.552C79.0603 4.408 79.4283 4.216 79.8283 3.976C80.2443 3.72 80.7163 3.4 81.2443 3.016L82.9243 1.768H84.4603V16.264C84.4603 16.76 84.5483 17.136 84.7243 17.392C84.9003 17.632 85.1403 17.792 85.4443 17.872C85.7483 17.952 86.0763 17.992 86.4283 17.992H87.6043V19H78.4603ZM94.7225 19V17.992H95.3945C95.7625 17.992 96.0905 17.952 96.3785 17.872C96.6825 17.792 96.9225 17.632 97.0985 17.392C97.2745 17.136 97.3625 16.76 97.3625 16.264V14.296L89.9705 14.296V13.312L97.3865 1.864L99.6665 1.864V12.952H102.643V14.296H99.6665V16.264C99.6665 16.76 99.7545 17.136 99.9305 17.392C100.107 17.632 100.347 17.792 100.651 17.872C100.955 17.952 101.283 17.992 101.635 17.992H101.947V19H94.7225ZM91.6985 12.952L97.3625 12.952V8.512C97.3625 8.16 97.3625 7.776 97.3625 7.36C97.3785 6.944 97.3865 6.512 97.3865 6.064C97.4025 5.616 97.4185 5.176 97.4345 4.744C97.4665 4.312 97.4985 3.912 97.5305 3.544C97.4505 3.704 97.3225 3.944 97.1465 4.264C96.9705 4.584 96.7705 4.936 96.5465 5.32C96.3225 5.688 96.1065 6.048 95.8985 6.4C95.6905 6.736 95.5145 7.016 95.3705 7.24L91.6985 12.952ZM118.107 19.24C116.411 19.24 115.003 18.872 113.883 18.136C112.763 17.4 111.923 16.368 111.363 15.04C110.819 13.712 110.547 12.16 110.547 10.384C110.547 8.608 110.819 7.064 111.363 5.752C111.923 4.44 112.763 3.424 113.883 2.704C115.019 1.968 116.435 1.6 118.131 1.6C119.747 1.6 121.107 1.968 122.211 2.704C123.331 3.424 124.179 4.448 124.755 5.776C125.347 7.088 125.643 8.632 125.643 10.408C125.643 12.184 125.347 13.736 124.755 15.064C124.179 16.376 123.331 17.4 122.211 18.136C121.091 18.872 119.723 19.24 118.107 19.24ZM118.107 17.944C119.003 17.944 119.755 17.776 120.363 17.44C120.987 17.104 121.491 16.616 121.875 15.976C122.259 15.32 122.539 14.528 122.715 13.6C122.891 12.656 122.979 11.592 122.979 10.408C122.979 9.224 122.891 8.168 122.715 7.24C122.539 6.312 122.259 5.528 121.875 4.888C121.507 4.232 121.011 3.736 120.387 3.4C119.779 3.064 119.027 2.896 118.131 2.896C117.235 2.896 116.475 3.064 115.851 3.4C115.227 3.736 114.715 4.232 114.315 4.888C113.931 5.528 113.651 6.312 113.475 7.24C113.299 8.168 113.211 9.224 113.211 10.408C113.211 11.592 113.299 12.656 113.475 13.6C113.651 14.528 113.931 15.32 114.315 15.976C114.715 16.616 115.227 17.104 115.851 17.44C116.475 17.776 117.227 17.944 118.107 17.944ZM133.808 19.24C132.752 19.24 131.808 19.016 130.976 18.568C130.16 18.12 129.512 17.416 129.032 16.456C128.568 15.48 128.336 14.208 128.336 12.64C128.336 10.928 128.568 9.584 129.032 8.608C129.512 7.616 130.152 6.92 130.952 6.52C131.768 6.104 132.68 5.896 133.688 5.896C134.36 5.896 135.016 5.984 135.656 6.16C136.296 6.336 136.824 6.608 137.24 6.976C137.656 7.328 137.864 7.784 137.864 8.344C137.864 8.712 137.784 9.008 137.624 9.232C137.464 9.456 137.224 9.616 136.904 9.712C136.6 9.808 136.208 9.856 135.728 9.856C135.728 9.344 135.664 8.88 135.536 8.464C135.424 8.048 135.224 7.72 134.936 7.48C134.648 7.224 134.232 7.096 133.688 7.096C133.08 7.096 132.544 7.256 132.08 7.576C131.632 7.896 131.28 8.456 131.024 9.256C130.784 10.056 130.664 11.176 130.664 12.616C130.664 13.752 130.784 14.696 131.024 15.448C131.28 16.2 131.672 16.76 132.2 17.128C132.728 17.496 133.424 17.68 134.288 17.68C134.784 17.68 135.24 17.608 135.656 17.464C136.072 17.32 136.432 17.12 136.736 16.864C137.056 16.608 137.304 16.32 137.48 16C137.608 16.096 137.704 16.224 137.768 16.384C137.848 16.528 137.888 16.712 137.888 16.936C137.888 17.304 137.736 17.664 137.432 18.016C137.128 18.368 136.672 18.664 136.064 18.904C135.472 19.128 134.72 19.24 133.808 19.24ZM144.588 19.24C143.372 19.24 142.484 18.968 141.924 18.424C141.38 17.864 141.108 16.896 141.108 15.52V7.504H139.284V6.544C139.572 6.544 139.892 6.488 140.244 6.376C140.596 6.248 140.9 6.048 141.156 5.776C141.428 5.488 141.652 5.136 141.828 4.72C142.004 4.304 142.148 3.792 142.26 3.184H143.364V6.136L146.508 6.136V7.504L143.364 7.504V15.592C143.364 16.408 143.532 17.008 143.868 17.392C144.204 17.776 144.644 17.968 145.188 17.968C145.476 17.968 145.74 17.952 145.98 17.92C146.22 17.888 146.468 17.848 146.724 17.8V18.856C146.516 18.952 146.204 19.04 145.788 19.12C145.372 19.2 144.972 19.24 144.588 19.24ZM154.154 19.24C152.426 19.24 151.066 18.688 150.074 17.584C149.082 16.48 148.586 14.8 148.586 12.544C148.586 10.304 149.058 8.64 150.002 7.552C150.962 6.448 152.37 5.896 154.226 5.896C155.954 5.896 157.314 6.448 158.306 7.552C159.298 8.64 159.794 10.304 159.794 12.544C159.794 14.8 159.314 16.48 158.354 17.584C157.41 18.688 156.01 19.24 154.154 19.24ZM154.202 17.992C155.002 17.992 155.642 17.792 156.122 17.392C156.602 16.976 156.946 16.36 157.154 15.544C157.362 14.728 157.466 13.728 157.466 12.544C157.466 11.344 157.354 10.352 157.13 9.568C156.922 8.768 156.578 8.168 156.098 7.768C155.618 7.368 154.978 7.168 154.178 7.168C153.378 7.168 152.738 7.368 152.258 7.768C151.778 8.168 151.434 8.768 151.226 9.568C151.018 10.352 150.914 11.344 150.914 12.544C150.914 13.728 151.018 14.728 151.226 15.544C151.45 16.36 151.802 16.976 152.282 17.392C152.762 17.792 153.402 17.992 154.202 17.992ZM169.637 19.24C168.709 19.24 167.949 19.048 167.357 18.664C166.781 18.264 166.317 17.752 165.965 17.128H165.821L165.389 19L161.549 19V17.992H161.741C162.109 17.992 162.437 17.952 162.725 17.872C163.029 17.792 163.269 17.632 163.445 17.392C163.621 17.136 163.709 16.76 163.709 16.264V3.4C163.709 2.92 163.613 2.568 163.421 2.344C163.245 2.104 163.005 1.952 162.701 1.888C162.413 1.808 162.093 1.768 161.741 1.768H161.549V0.759999H165.965V5.176C165.965 5.448 165.957 5.8 165.941 6.232C165.941 6.648 165.933 7.056 165.917 7.456C165.901 7.84 165.885 8.12 165.869 8.296H165.965C166.333 7.56 166.805 6.976 167.381 6.544C167.957 6.112 168.709 5.896 169.637 5.896C171.221 5.896 172.429 6.432 173.261 7.504C174.109 8.56 174.533 10.24 174.533 12.544C174.533 14.08 174.341 15.344 173.957 16.336C173.589 17.328 173.037 18.064 172.301 18.544C171.581 19.008 170.693 19.24 169.637 19.24ZM169.253 17.704C169.957 17.704 170.525 17.504 170.957 17.104C171.389 16.704 171.701 16.12 171.893 15.352C172.101 14.584 172.205 13.64 172.205 12.52C172.205 11.384 172.101 10.44 171.893 9.688C171.701 8.936 171.389 8.376 170.957 8.008C170.525 7.624 169.949 7.432 169.229 7.432C167.981 7.432 167.125 7.856 166.661 8.704C166.197 9.536 165.965 10.816 165.965 12.544C165.965 13.648 166.061 14.584 166.253 15.352C166.461 16.12 166.805 16.704 167.285 17.104C167.765 17.504 168.421 17.704 169.253 17.704ZM182.747 19.24C181.003 19.24 179.635 18.664 178.643 17.512C177.667 16.36 177.179 14.744 177.179 12.664C177.179 10.424 177.643 8.736 178.571 7.6C179.499 6.464 180.811 5.896 182.507 5.896C184.059 5.896 185.275 6.376 186.155 7.336C187.051 8.296 187.499 9.728 187.499 11.632V12.736H179.507C179.539 13.904 179.691 14.856 179.963 15.592C180.235 16.328 180.627 16.872 181.139 17.224C181.667 17.56 182.315 17.728 183.083 17.728C183.643 17.728 184.139 17.648 184.571 17.488C185.019 17.328 185.403 17.12 185.723 16.864C186.059 16.608 186.323 16.336 186.515 16.048C186.627 16.096 186.731 16.192 186.827 16.336C186.923 16.48 186.971 16.656 186.971 16.864C186.971 17.184 186.819 17.528 186.515 17.896C186.211 18.264 185.747 18.584 185.123 18.856C184.499 19.112 183.707 19.24 182.747 19.24ZM185.075 11.44C185.075 10.592 184.987 9.848 184.811 9.208C184.651 8.568 184.379 8.072 183.995 7.72C183.611 7.368 183.099 7.192 182.459 7.192C181.867 7.192 181.363 7.36 180.947 7.696C180.547 8.016 180.227 8.488 179.987 9.112C179.763 9.736 179.619 10.512 179.555 11.44H185.075ZM189.495 19V17.992H189.567C189.935 17.992 190.263 17.952 190.551 17.872C190.855 17.792 191.095 17.632 191.271 17.392C191.447 17.136 191.535 16.76 191.535 16.264V8.776C191.535 8.296 191.439 7.944 191.247 7.72C191.071 7.48 190.831 7.328 190.527 7.264C190.239 7.184 189.919 7.144 189.567 7.144H189.495V6.136H193.191L193.647 8.512H193.767C193.975 8.032 194.199 7.592 194.439 7.192C194.679 6.792 194.999 6.48 195.399 6.256C195.799 6.016 196.351 5.896 197.055 5.896C197.935 5.896 198.583 6.048 198.999 6.352C199.431 6.656 199.647 7.088 199.647 7.648C199.647 8.144 199.471 8.552 199.119 8.872C198.783 9.192 198.215 9.352 197.415 9.352C197.415 8.904 197.375 8.544 197.295 8.272C197.215 8 197.079 7.8 196.887 7.672C196.711 7.544 196.463 7.48 196.143 7.48C195.695 7.48 195.319 7.656 195.015 8.008C194.711 8.36 194.471 8.808 194.295 9.352C194.119 9.896 193.991 10.464 193.911 11.056C193.831 11.632 193.791 12.152 193.791 12.616V16.384C193.791 16.848 193.879 17.2 194.055 17.44C194.247 17.664 194.487 17.816 194.775 17.896C195.079 17.96 195.407 17.992 195.759 17.992H196.431V19H189.495Z" fill="white"/>
<path d="M8.6675 45.416C8.1235 45.416 7.6355 45.536 7.2035 45.776C6.7715 46 6.4035 46.336 6.0995 46.784C5.7955 47.216 5.5635 47.744 5.4035 48.368C5.2435 48.992 5.1635 49.704 5.1635 50.504C5.1635 51.576 5.2995 52.48 5.5715 53.216C5.8435 53.952 6.2595 54.512 6.8195 54.896C7.3795 55.264 8.0835 55.448 8.9315 55.448C9.6835 55.448 10.4115 55.344 11.1155 55.136C11.8355 54.928 12.5555 54.672 13.2755 54.368V58.28C12.5235 58.616 11.7475 58.856 10.9475 59C10.1635 59.16 9.3235 59.24 8.4275 59.24C6.5715 59.24 5.0515 58.872 3.8675 58.136C2.6835 57.4 1.8115 56.376 1.2515 55.064C0.6915 53.736 0.4115 52.208 0.4115 50.48C0.4115 49.184 0.5875 48 0.9395 46.928C1.3075 45.84 1.8435 44.904 2.5475 44.12C3.2515 43.32 4.1155 42.704 5.1395 42.272C6.1795 41.84 7.3715 41.624 8.7155 41.624C9.5475 41.624 10.4195 41.72 11.3315 41.912C12.2435 42.104 13.1395 42.408 14.0195 42.824L12.6035 46.472C11.9795 46.168 11.3475 45.92 10.7075 45.728C10.0675 45.52 9.3875 45.416 8.6675 45.416ZM14.7494 45.728H19.5734L21.8294 53.336C21.8614 53.448 21.8934 53.584 21.9254 53.744C21.9574 53.904 21.9814 54.072 21.9974 54.248C22.0294 54.424 22.0454 54.6 22.0454 54.776H22.1414C22.1734 54.456 22.2134 54.184 22.2614 53.96C22.3254 53.72 22.3814 53.52 22.4294 53.36L24.7334 45.728H29.4134L24.1574 59.84C23.7574 60.912 23.2854 61.816 22.7414 62.552C22.2134 63.288 21.5574 63.84 20.7734 64.208C19.9894 64.576 19.0134 64.76 17.8454 64.76C17.4294 64.76 17.0694 64.736 16.7654 64.688C16.4614 64.656 16.1974 64.616 15.9734 64.568V60.968C16.1494 61 16.3574 61.032 16.5974 61.064C16.8534 61.096 17.1174 61.112 17.3894 61.112C17.9014 61.112 18.3094 61.008 18.6134 60.8C18.9334 60.592 19.1974 60.32 19.4054 59.984C19.6134 59.664 19.7894 59.312 19.9334 58.928L19.9814 58.808L14.7494 45.728ZM37.0539 59.24C35.7099 59.24 34.5419 59 33.5499 58.52C32.5579 58.04 31.7899 57.296 31.2459 56.288C30.7019 55.28 30.4299 53.992 30.4299 52.424C30.4299 50.808 30.7339 49.496 31.3419 48.488C31.9499 47.464 32.7739 46.712 33.8139 46.232C34.8699 45.736 36.0699 45.488 37.4139 45.488C38.2299 45.488 38.9979 45.576 39.7179 45.752C40.4539 45.928 41.1339 46.176 41.7579 46.496L40.4139 49.88C39.8699 49.64 39.3579 49.448 38.8779 49.304C38.4139 49.16 37.9259 49.088 37.4139 49.088C36.9499 49.088 36.5419 49.208 36.1899 49.448C35.8379 49.688 35.5659 50.056 35.3739 50.552C35.1819 51.032 35.0859 51.648 35.0859 52.4C35.0859 53.168 35.1819 53.784 35.3739 54.248C35.5819 54.712 35.8619 55.056 36.2139 55.28C36.5659 55.488 36.9739 55.592 37.4379 55.592C38.0939 55.592 38.7499 55.488 39.4059 55.28C40.0779 55.072 40.7099 54.784 41.3019 54.416V58.064C40.7579 58.416 40.1419 58.704 39.4539 58.928C38.7659 59.136 37.9659 59.24 37.0539 59.24ZM48.5274 59H43.9434L43.9434 40.76H48.5274V59ZM64.3732 52.328C64.3732 53.432 64.2212 54.416 63.9172 55.28C63.6132 56.144 63.1732 56.872 62.5972 57.464C62.0212 58.04 61.3252 58.48 60.5092 58.784C59.6932 59.088 58.7652 59.24 57.7252 59.24C56.7652 59.24 55.8772 59.088 55.0612 58.784C54.2612 58.48 53.5652 58.04 52.9732 57.464C52.3972 56.872 51.9412 56.144 51.6052 55.28C51.2852 54.416 51.1252 53.432 51.1252 52.328C51.1252 50.856 51.3892 49.616 51.9172 48.608C52.4612 47.584 53.2292 46.808 54.2212 46.28C55.2132 45.752 56.4052 45.488 57.7972 45.488C59.0772 45.488 60.2052 45.752 61.1812 46.28C62.1732 46.808 62.9492 47.584 63.5092 48.608C64.0852 49.616 64.3732 50.856 64.3732 52.328ZM55.7812 52.328C55.7812 53.08 55.8452 53.72 55.9732 54.248C56.1012 54.776 56.3092 55.176 56.5972 55.448C56.9012 55.704 57.2932 55.832 57.7732 55.832C58.2532 55.832 58.6292 55.704 58.9012 55.448C59.1892 55.176 59.3972 54.776 59.5252 54.248C59.6532 53.72 59.7172 53.08 59.7172 52.328C59.7172 51.576 59.6532 50.944 59.5252 50.432C59.3972 49.92 59.1892 49.536 58.9012 49.28C58.6132 49.024 58.2292 48.896 57.7492 48.896C57.0612 48.896 56.5572 49.184 56.2372 49.76C55.9332 50.336 55.7812 51.192 55.7812 52.328ZM75.2864 45.488C76.6624 45.488 77.7824 45.872 78.6464 46.64C79.5104 47.408 79.9424 48.648 79.9424 50.36V59H75.3584V51.752C75.3584 50.872 75.2304 50.208 74.9744 49.76C74.7184 49.312 74.3104 49.088 73.7504 49.088C72.8864 49.088 72.3024 49.44 71.9984 50.144C71.7104 50.848 71.5664 51.864 71.5664 53.192V59H66.9824V45.728L70.4384 45.728L71.0624 47.48H71.2304C71.5184 47.064 71.8544 46.712 72.2384 46.424C72.6384 46.12 73.0864 45.888 73.5824 45.728C74.0944 45.568 74.6624 45.488 75.2864 45.488ZM89.0366 45.488C90.3326 45.488 91.4446 45.712 92.3726 46.16C93.3166 46.608 94.0366 47.28 94.5326 48.176C95.0446 49.072 95.3006 50.2 95.3006 51.56V53.6H87.1166C87.1486 54.288 87.4046 54.856 87.8846 55.304C88.3806 55.752 89.0926 55.976 90.0206 55.976C90.8526 55.976 91.6126 55.896 92.3006 55.736C92.9886 55.576 93.7006 55.32 94.4366 54.968V58.256C93.7966 58.592 93.0926 58.84 92.3246 59C91.5726 59.16 90.6206 59.24 89.4686 59.24C88.1246 59.24 86.9246 59.008 85.8686 58.544C84.8286 58.064 84.0046 57.32 83.3966 56.312C82.7886 55.304 82.4846 54.016 82.4846 52.448C82.4846 50.848 82.7566 49.536 83.3006 48.512C83.8606 47.488 84.6286 46.728 85.6046 46.232C86.5966 45.736 87.7406 45.488 89.0366 45.488ZM89.2046 48.608C88.6606 48.608 88.2046 48.776 87.8366 49.112C87.4846 49.448 87.2766 49.984 87.2126 50.72H91.1486C91.1486 50.32 91.0686 49.968 90.9086 49.664C90.7646 49.344 90.5486 49.088 90.2606 48.896C89.9726 48.704 89.6206 48.608 89.2046 48.608ZM119.083 59H114.427V52.016H109.051V59H104.395V41.864H109.051V48.224H114.427V41.864H119.083V59ZM135.418 45.728V59H131.962L131.386 57.344H131.122C130.85 57.792 130.498 58.16 130.066 58.448C129.65 58.72 129.186 58.92 128.674 59.048C128.178 59.176 127.658 59.24 127.114 59.24C126.25 59.24 125.466 59.072 124.762 58.736C124.058 58.4 123.498 57.872 123.082 57.152C122.682 56.432 122.482 55.504 122.482 54.368V45.728H127.066V52.976C127.066 53.84 127.186 54.496 127.426 54.944C127.682 55.392 128.09 55.616 128.65 55.616C129.226 55.616 129.674 55.464 129.994 55.16C130.314 54.84 130.53 54.376 130.642 53.768C130.77 53.16 130.834 52.416 130.834 51.536V45.728H135.418ZM142.712 59.24C141.352 59.24 140.224 58.656 139.328 57.488C138.448 56.32 138.008 54.616 138.008 52.376C138.008 50.104 138.456 48.392 139.352 47.24C140.264 46.072 141.44 45.488 142.88 45.488C143.472 45.488 143.984 45.576 144.416 45.752C144.848 45.912 145.224 46.144 145.544 46.448C145.864 46.736 146.136 47.064 146.36 47.432H146.456C146.392 47.096 146.336 46.632 146.288 46.04C146.256 45.448 146.24 44.872 146.24 44.312V40.76H150.848V59H147.392L146.408 57.32H146.24C146.032 57.672 145.768 57.992 145.448 58.28C145.128 58.568 144.744 58.8 144.296 58.976C143.848 59.152 143.32 59.24 142.712 59.24ZM144.584 55.616C145.32 55.616 145.84 55.384 146.144 54.92C146.448 54.456 146.608 53.744 146.624 52.784V52.424C146.624 51.384 146.472 50.584 146.168 50.024C145.88 49.464 145.336 49.184 144.536 49.184C143.992 49.184 143.536 49.448 143.168 49.976C142.816 50.504 142.64 51.328 142.64 52.448C142.64 53.552 142.816 54.36 143.168 54.872C143.536 55.368 144.008 55.616 144.584 55.616ZM158.59 43.352C158.59 44.328 158.566 45.152 158.518 45.824C158.47 46.496 158.43 47.008 158.398 47.36H158.614C158.902 46.896 159.222 46.528 159.574 46.256C159.942 45.984 160.35 45.792 160.798 45.68C161.246 45.552 161.734 45.488 162.262 45.488C163.142 45.488 163.934 45.656 164.638 45.992C165.342 46.328 165.902 46.856 166.318 47.576C166.75 48.28 166.966 49.208 166.966 50.36V59H162.358V51.752C162.358 50.872 162.23 50.208 161.974 49.76C161.718 49.312 161.318 49.088 160.774 49.088C160.23 49.088 159.798 49.248 159.478 49.568C159.158 49.888 158.926 50.352 158.782 50.96C158.654 51.552 158.59 52.288 158.59 53.168V59H154.006V40.76H158.59V43.352ZM182.996 45.728V59H179.54L178.964 57.344H178.7C178.428 57.792 178.076 58.16 177.644 58.448C177.228 58.72 176.764 58.92 176.252 59.048C175.756 59.176 175.236 59.24 174.692 59.24C173.828 59.24 173.044 59.072 172.34 58.736C171.636 58.4 171.076 57.872 170.66 57.152C170.26 56.432 170.06 55.504 170.06 54.368V45.728L174.644 45.728V52.976C174.644 53.84 174.764 54.496 175.004 54.944C175.26 55.392 175.668 55.616 176.228 55.616C176.804 55.616 177.252 55.464 177.572 55.16C177.892 54.84 178.108 54.376 178.22 53.768C178.348 53.16 178.412 52.416 178.412 51.536V45.728H182.996ZM190.29 59.24C188.93 59.24 187.802 58.656 186.906 57.488C186.026 56.32 185.586 54.616 185.586 52.376C185.586 50.104 186.034 48.392 186.93 47.24C187.842 46.072 189.018 45.488 190.458 45.488C191.05 45.488 191.562 45.576 191.994 45.752C192.426 45.912 192.802 46.144 193.122 46.448C193.442 46.736 193.714 47.064 193.938 47.432H194.034C193.97 47.096 193.914 46.632 193.866 46.04C193.834 45.448 193.818 44.872 193.818 44.312V40.76H198.426V59H194.97L193.986 57.32H193.818C193.61 57.672 193.346 57.992 193.026 58.28C192.706 58.568 192.322 58.8 191.874 58.976C191.426 59.152 190.898 59.24 190.29 59.24ZM192.162 55.616C192.898 55.616 193.418 55.384 193.722 54.92C194.026 54.456 194.186 53.744 194.202 52.784V52.424C194.202 51.384 194.05 50.584 193.746 50.024C193.458 49.464 192.914 49.184 192.114 49.184C191.57 49.184 191.114 49.448 190.746 49.976C190.394 50.504 190.218 51.328 190.218 52.448C190.218 53.552 190.394 54.36 190.746 54.872C191.114 55.368 191.586 55.616 192.162 55.616Z" fill="#F1AE12"/>
</svg>
