<svg width="165" height="25" viewBox="0 0 165 25" fill="none" xmlns="http://www.w3.org/2000/svg">
<path d="M0.464 19L0.464 17.248L4.472 12.616C5.112 11.88 5.648 11.216 6.08 10.624C6.512 10.032 6.856 9.48 7.112 8.968C7.384 8.456 7.576 7.952 7.688 7.456C7.816 6.944 7.88 6.416 7.88 5.872C7.88 5.264 7.792 4.736 7.616 4.288C7.44 3.824 7.168 3.464 6.8 3.208C6.448 2.952 5.992 2.824 5.432 2.824C4.712 2.824 4.16 2.992 3.776 3.328C3.392 3.664 3.128 4.104 2.984 4.648C2.856 5.176 2.792 5.76 2.792 6.4C2.408 6.4 2.056 6.36 1.736 6.28C1.432 6.184 1.184 6.024 0.992 5.8C0.816 5.56 0.728 5.24 0.728 4.84C0.728 4.216 0.904 3.664 1.256 3.184C1.608 2.704 2.136 2.328 2.84 2.056C3.544 1.768 4.408 1.624 5.432 1.624C6.44 1.624 7.304 1.792 8.024 2.128C8.76 2.448 9.32 2.912 9.704 3.52C10.104 4.112 10.304 4.816 10.304 5.632C10.304 6.08 10.24 6.52 10.112 6.952C10 7.384 9.832 7.816 9.608 8.248C9.384 8.68 9.112 9.128 8.792 9.592C8.472 10.04 8.104 10.512 7.688 11.008C7.272 11.504 6.808 12.032 6.296 12.592L2.24 17.08L7.784 17.08C8.504 17.08 8.992 16.896 9.248 16.528C9.504 16.16 9.688 15.744 9.8 15.28L9.896 14.848H10.904L10.784 19L0.464 19ZM19.1263 19.24C17.8143 19.24 16.7423 18.872 15.9103 18.136C15.0783 17.4 14.4623 16.368 14.0623 15.04C13.6783 13.712 13.4863 12.16 13.4863 10.384C13.4863 8.608 13.6783 7.064 14.0623 5.752C14.4623 4.44 15.0783 3.424 15.9103 2.704C16.7423 1.984 17.8223 1.624 19.1503 1.624C20.3983 1.624 21.4383 1.984 22.2703 2.704C23.1023 3.424 23.7183 4.448 24.1183 5.776C24.5343 7.088 24.7422 8.632 24.7422 10.408C24.7422 12.184 24.5343 13.736 24.1183 15.064C23.7023 16.376 23.0783 17.4 22.2463 18.136C21.4303 18.872 20.3903 19.24 19.1263 19.24ZM19.1263 17.944C19.7023 17.944 20.1903 17.776 20.5903 17.44C20.9903 17.104 21.3103 16.616 21.5503 15.976C21.7903 15.32 21.9663 14.528 22.0783 13.6C22.1903 12.656 22.2463 11.592 22.2463 10.408C22.2463 9.224 22.1903 8.168 22.0783 7.24C21.9823 6.312 21.8063 5.528 21.5503 4.888C21.3103 4.248 20.9903 3.76 20.5903 3.424C20.2063 3.088 19.7263 2.92 19.1503 2.92C18.5583 2.92 18.0623 3.088 17.6623 3.424C17.2623 3.76 16.9343 4.248 16.6783 4.888C16.4383 5.528 16.2623 6.312 16.1503 7.24C16.0383 8.168 15.9823 9.224 15.9823 10.408C15.9823 11.592 16.0383 12.656 16.1503 13.6C16.2623 14.528 16.4383 15.32 16.6783 15.976C16.9183 16.616 17.2383 17.104 17.6383 17.44C18.0543 17.776 18.5503 17.944 19.1263 17.944ZM28.1165 19V17.992H29.7245C30.0925 17.992 30.4205 17.952 30.7085 17.872C31.0125 17.792 31.2525 17.632 31.4285 17.392C31.6045 17.136 31.6925 16.76 31.6925 16.264V3.664C31.2925 4.16 30.9165 4.6 30.5645 4.984C30.2125 5.352 29.8765 5.64 29.5565 5.848C29.2365 6.056 28.9165 6.16 28.5965 6.16C28.2445 6.16 27.9565 6.04 27.7325 5.8C27.5085 5.56 27.3965 5.248 27.3965 4.864C27.7165 4.784 28.0445 4.68 28.3805 4.552C28.7165 4.408 29.0845 4.216 29.4845 3.976C29.9005 3.72 30.3725 3.4 30.9005 3.016L32.5805 1.768H34.1165V16.264C34.1165 16.76 34.2045 17.136 34.3805 17.392C34.5565 17.632 34.7965 17.792 35.1005 17.872C35.4045 17.952 35.7325 17.992 36.0845 17.992H37.2605V19H28.1165ZM46.2508 19.24C45.1948 19.24 44.2428 18.944 43.3948 18.352C42.5628 17.744 41.8988 16.792 41.4028 15.496C40.9228 14.184 40.6828 12.472 40.6828 10.36C40.6828 9.224 40.8108 8.136 41.0668 7.096C41.3228 6.04 41.7068 5.104 42.2188 4.288C42.7308 3.456 43.3788 2.808 44.1628 2.344C44.9628 1.864 45.8908 1.624 46.9468 1.624C47.8428 1.624 48.5788 1.744 49.1548 1.984C49.7468 2.224 50.1868 2.536 50.4748 2.92C50.7628 3.304 50.9068 3.712 50.9068 4.144C50.9068 4.592 50.7468 4.944 50.4268 5.2C50.1228 5.456 49.6668 5.584 49.0588 5.584C49.0588 5.056 48.9868 4.584 48.8428 4.168C48.7148 3.736 48.4908 3.4 48.1708 3.16C47.8668 2.904 47.4588 2.776 46.9468 2.776C46.1468 2.776 45.4748 3.048 44.9308 3.592C44.3868 4.12 43.9708 4.904 43.6828 5.944C43.3948 6.984 43.2188 8.28 43.1548 9.832C43.4268 9.608 43.7228 9.408 44.0428 9.232C44.3788 9.04 44.7548 8.888 45.1708 8.776C45.6028 8.648 46.0748 8.584 46.5868 8.584C48.0588 8.584 49.2268 9.024 50.0908 9.904C50.9708 10.768 51.4108 11.968 51.4108 13.504C51.4108 14.624 51.2028 15.616 50.7868 16.48C50.3868 17.344 49.8028 18.024 49.0348 18.52C48.2668 19 47.3388 19.24 46.2508 19.24ZM46.3228 17.92C46.8988 17.92 47.3788 17.776 47.7628 17.488C48.1628 17.184 48.4588 16.728 48.6508 16.12C48.8588 15.496 48.9628 14.704 48.9628 13.744C48.9628 12.832 48.8508 12.088 48.6268 11.512C48.4188 10.92 48.0988 10.488 47.6668 10.216C47.2508 9.944 46.7308 9.808 46.1068 9.808C45.6908 9.808 45.2988 9.88 44.9308 10.024C44.5628 10.152 44.2268 10.328 43.9228 10.552C43.6188 10.76 43.3548 10.976 43.1308 11.2C43.1468 12.4 43.2268 13.424 43.3708 14.272C43.5308 15.12 43.7468 15.816 44.0188 16.36C44.3068 16.904 44.6428 17.304 45.0268 17.56C45.4108 17.8 45.8428 17.92 46.3228 17.92ZM59.7714 19V17.992H60.0834C60.4354 17.992 60.7554 17.96 61.0434 17.896C61.3474 17.816 61.5874 17.664 61.7634 17.44C61.9554 17.2 62.0514 16.848 62.0514 16.384V4.504C62.0514 4.024 61.9554 3.672 61.7634 3.448C61.5874 3.208 61.3474 3.056 61.0434 2.992C60.7554 2.912 60.4354 2.872 60.0834 2.872H59.7714V1.864L71.8674 1.864L71.9874 6.064L70.7394 6.064L70.6194 5.032C70.5874 4.664 70.4914 4.336 70.3314 4.048C70.1714 3.744 69.9394 3.504 69.6354 3.328C69.3314 3.152 68.9234 3.064 68.4114 3.064H64.4754V10H70.2594V11.176H64.4754V16.264C64.4754 16.76 64.5634 17.136 64.7394 17.392C64.9154 17.632 65.1554 17.792 65.4594 17.872C65.7634 17.952 66.0914 17.992 66.4434 17.992H67.2354V19H59.7714ZM78.9427 19.24C77.1987 19.24 75.8307 18.664 74.8387 17.512C73.8627 16.36 73.3747 14.744 73.3747 12.664C73.3747 10.424 73.8387 8.736 74.7667 7.6C75.6947 6.464 77.0067 5.896 78.7027 5.896C80.2547 5.896 81.4707 6.376 82.3507 7.336C83.2467 8.296 83.6947 9.728 83.6947 11.632V12.736H75.7027C75.7347 13.904 75.8867 14.856 76.1587 15.592C76.4307 16.328 76.8227 16.872 77.3347 17.224C77.8627 17.56 78.5107 17.728 79.2787 17.728C79.8387 17.728 80.3347 17.648 80.7667 17.488C81.2147 17.328 81.5987 17.12 81.9187 16.864C82.2547 16.608 82.5187 16.336 82.7107 16.048C82.8227 16.096 82.9267 16.192 83.0227 16.336C83.1187 16.48 83.1667 16.656 83.1667 16.864C83.1667 17.184 83.0147 17.528 82.7107 17.896C82.4067 18.264 81.9427 18.584 81.3187 18.856C80.6947 19.112 79.9027 19.24 78.9427 19.24ZM81.2707 11.44C81.2707 10.592 81.1827 9.848 81.0067 9.208C80.8467 8.568 80.5747 8.072 80.1907 7.72C79.8067 7.368 79.2947 7.192 78.6547 7.192C78.0627 7.192 77.5587 7.36 77.1427 7.696C76.7427 8.016 76.4227 8.488 76.1827 9.112C75.9587 9.736 75.8147 10.512 75.7507 11.44H81.2707ZM93.4184 19.24C92.4904 19.24 91.7304 19.048 91.1384 18.664C90.5624 18.264 90.0984 17.752 89.7464 17.128H89.6024L89.1704 19H85.3304V17.992H85.5224C85.8904 17.992 86.2184 17.952 86.5064 17.872C86.8104 17.792 87.0504 17.632 87.2264 17.392C87.4024 17.136 87.4904 16.76 87.4904 16.264V3.4C87.4904 2.92 87.3944 2.568 87.2024 2.344C87.0264 2.104 86.7864 1.952 86.4824 1.888C86.1944 1.808 85.8744 1.768 85.5224 1.768H85.3304V0.759999L89.7464 0.759999V5.176C89.7464 5.448 89.7384 5.8 89.7224 6.232C89.7224 6.648 89.7144 7.056 89.6984 7.456C89.6824 7.84 89.6664 8.12 89.6504 8.296H89.7464C90.1144 7.56 90.5864 6.976 91.1624 6.544C91.7384 6.112 92.4904 5.896 93.4184 5.896C95.0024 5.896 96.2104 6.432 97.0424 7.504C97.8904 8.56 98.3144 10.24 98.3144 12.544C98.3144 14.08 98.1224 15.344 97.7384 16.336C97.3704 17.328 96.8184 18.064 96.0824 18.544C95.3624 19.008 94.4744 19.24 93.4184 19.24ZM93.0344 17.704C93.7384 17.704 94.3064 17.504 94.7384 17.104C95.1704 16.704 95.4824 16.12 95.6744 15.352C95.8824 14.584 95.9864 13.64 95.9864 12.52C95.9864 11.384 95.8824 10.44 95.6744 9.688C95.4824 8.936 95.1704 8.376 94.7384 8.008C94.3064 7.624 93.7304 7.432 93.0104 7.432C91.7624 7.432 90.9064 7.856 90.4424 8.704C89.9784 9.536 89.7464 10.816 89.7464 12.544C89.7464 13.648 89.8424 14.584 90.0344 15.352C90.2424 16.12 90.5864 16.704 91.0664 17.104C91.5464 17.504 92.2024 17.704 93.0344 17.704ZM100.433 19V17.992H100.505C100.873 17.992 101.201 17.952 101.489 17.872C101.793 17.792 102.033 17.632 102.209 17.392C102.385 17.136 102.473 16.76 102.473 16.264V8.776C102.473 8.296 102.377 7.944 102.185 7.72C102.009 7.48 101.769 7.328 101.465 7.264C101.177 7.184 100.857 7.144 100.505 7.144H100.433V6.136H104.129L104.585 8.512H104.705C104.913 8.032 105.137 7.592 105.377 7.192C105.617 6.792 105.937 6.48 106.337 6.256C106.737 6.016 107.289 5.896 107.993 5.896C108.873 5.896 109.521 6.048 109.937 6.352C110.369 6.656 110.585 7.088 110.585 7.648C110.585 8.144 110.409 8.552 110.057 8.872C109.721 9.192 109.153 9.352 108.353 9.352C108.353 8.904 108.313 8.544 108.233 8.272C108.153 8 108.017 7.8 107.825 7.672C107.649 7.544 107.401 7.48 107.081 7.48C106.633 7.48 106.257 7.656 105.953 8.008C105.649 8.36 105.409 8.808 105.233 9.352C105.057 9.896 104.929 10.464 104.849 11.056C104.769 11.632 104.729 12.152 104.729 12.616V16.384C104.729 16.848 104.817 17.2 104.993 17.44C105.185 17.664 105.425 17.816 105.713 17.896C106.017 17.96 106.345 17.992 106.697 17.992H107.369V19H100.433ZM117.49 19.24C116.226 19.24 115.25 18.872 114.562 18.136C113.874 17.384 113.53 16.184 113.53 14.536V8.776C113.53 8.296 113.434 7.944 113.242 7.72C113.066 7.48 112.826 7.328 112.521 7.264C112.234 7.184 111.914 7.144 111.562 7.144H111.49V6.136L115.786 6.136V14.416C115.786 15.104 115.858 15.696 116.002 16.192C116.162 16.688 116.426 17.064 116.794 17.32C117.162 17.576 117.666 17.704 118.306 17.704C119.01 17.704 119.586 17.544 120.034 17.224C120.482 16.888 120.81 16.432 121.018 15.856C121.226 15.264 121.33 14.584 121.33 13.816V8.872C121.33 8.36 121.242 7.984 121.066 7.744C120.89 7.504 120.65 7.344 120.346 7.264C120.058 7.184 119.73 7.144 119.362 7.144H119.29V6.136L123.586 6.136V16.384C123.586 16.848 123.674 17.2 123.85 17.44C124.042 17.664 124.282 17.816 124.57 17.896C124.874 17.96 125.202 17.992 125.554 17.992H125.626V19H121.81L121.498 17.056H121.378C121.138 17.504 120.866 17.872 120.562 18.16C120.274 18.448 119.97 18.672 119.65 18.832C119.33 18.976 118.986 19.08 118.618 19.144C118.25 19.208 117.874 19.24 117.49 19.24ZM131.092 19.24C130.388 19.24 129.748 19.104 129.172 18.832C128.612 18.544 128.172 18.12 127.852 17.56C127.532 16.984 127.372 16.264 127.372 15.4C127.372 14.12 127.82 13.176 128.716 12.568C129.628 11.96 131.004 11.624 132.844 11.56L134.836 11.488V10.048C134.836 9.472 134.788 8.968 134.692 8.536C134.596 8.088 134.388 7.736 134.068 7.48C133.748 7.224 133.26 7.096 132.604 7.096C131.996 7.096 131.532 7.208 131.212 7.432C130.892 7.656 130.676 7.968 130.564 8.368C130.468 8.752 130.42 9.2 130.42 9.712C129.748 9.712 129.236 9.6 128.884 9.376C128.548 9.136 128.38 8.744 128.38 8.2C128.38 7.64 128.572 7.192 128.956 6.856C129.356 6.52 129.884 6.28 130.54 6.136C131.196 5.976 131.916 5.896 132.7 5.896C134.172 5.896 135.268 6.208 135.988 6.832C136.724 7.456 137.092 8.528 137.092 10.048V16.264C137.092 16.712 137.14 17.064 137.236 17.32C137.332 17.56 137.492 17.736 137.716 17.848C137.94 17.944 138.228 17.992 138.58 17.992H138.652V19H135.412L135.028 16.936H134.836C134.5 17.384 134.172 17.784 133.852 18.136C133.532 18.472 133.156 18.744 132.724 18.952C132.308 19.144 131.764 19.24 131.092 19.24ZM131.644 17.752C132.3 17.752 132.86 17.616 133.324 17.344C133.804 17.072 134.172 16.688 134.428 16.192C134.7 15.68 134.836 15.088 134.836 14.416V12.472L133.3 12.544C132.388 12.576 131.668 12.712 131.14 12.952C130.628 13.192 130.26 13.528 130.036 13.96C129.812 14.376 129.7 14.896 129.7 15.52C129.7 16.016 129.772 16.432 129.916 16.768C130.06 17.088 130.276 17.336 130.564 17.512C130.852 17.672 131.212 17.752 131.644 17.752ZM140.487 19V17.992H140.559C140.927 17.992 141.255 17.952 141.543 17.872C141.847 17.792 142.087 17.632 142.263 17.392C142.439 17.136 142.527 16.76 142.527 16.264V8.776C142.527 8.296 142.431 7.944 142.239 7.72C142.063 7.48 141.823 7.328 141.519 7.264C141.231 7.184 140.911 7.144 140.559 7.144H140.487V6.136H144.183L144.639 8.512H144.759C144.967 8.032 145.191 7.592 145.431 7.192C145.671 6.792 145.991 6.48 146.391 6.256C146.791 6.016 147.343 5.896 148.047 5.896C148.927 5.896 149.575 6.048 149.991 6.352C150.423 6.656 150.639 7.088 150.639 7.648C150.639 8.144 150.463 8.552 150.111 8.872C149.775 9.192 149.207 9.352 148.407 9.352C148.407 8.904 148.367 8.544 148.287 8.272C148.207 8 148.071 7.8 147.879 7.672C147.703 7.544 147.455 7.48 147.135 7.48C146.687 7.48 146.311 7.656 146.007 8.008C145.703 8.36 145.463 8.808 145.287 9.352C145.111 9.896 144.983 10.464 144.903 11.056C144.823 11.632 144.783 12.152 144.783 12.616V16.384C144.783 16.848 144.871 17.2 145.047 17.44C145.239 17.664 145.479 17.816 145.767 17.896C146.071 17.96 146.399 17.992 146.751 17.992H147.423V19L140.487 19ZM151.904 23.632C152.72 23.632 153.424 23.512 154.016 23.272C154.608 23.032 155.112 22.696 155.528 22.264C155.944 21.848 156.296 21.352 156.584 20.776C156.872 20.2 157.112 19.576 157.304 18.904L152.864 8.416C152.72 8.08 152.576 7.824 152.432 7.648C152.288 7.456 152.12 7.328 151.928 7.264C151.736 7.184 151.48 7.144 151.16 7.144H151.088V6.136L156.848 6.136V7.144H156.776C156.296 7.144 155.936 7.24 155.696 7.432C155.456 7.608 155.336 7.896 155.336 8.296C155.336 8.424 155.352 8.56 155.384 8.704C155.416 8.848 155.464 9.008 155.528 9.184L157.28 13.456C157.392 13.728 157.504 14.024 157.616 14.344C157.744 14.664 157.864 14.984 157.976 15.304C158.088 15.624 158.184 15.928 158.264 16.216C158.344 16.504 158.4 16.744 158.432 16.936C158.544 16.472 158.688 15.992 158.864 15.496C159.056 15 159.232 14.512 159.392 14.032L161 9.352C161.08 9.16 161.136 8.976 161.168 8.8C161.2 8.608 161.216 8.448 161.216 8.32C161.216 7.904 161.08 7.608 160.808 7.432C160.552 7.24 160.16 7.144 159.632 7.144H159.56V6.136H164.552V7.144H164.48C164.176 7.144 163.92 7.192 163.712 7.288C163.504 7.384 163.32 7.568 163.16 7.84C163.016 8.112 162.848 8.504 162.656 9.016L159.008 19.096C158.592 20.264 158.192 21.216 157.808 21.952C157.424 22.688 156.992 23.256 156.512 23.656C156.048 24.072 155.464 24.36 154.76 24.52C154.056 24.68 153.176 24.76 152.12 24.76H151.904V23.632Z" fill="white"/>
</svg>
