<svg width="179" height="20" viewBox="0 0 179 20" fill="none" xmlns="http://www.w3.org/2000/svg">
<path d="M0.464 19L0.464 17.248L4.472 12.616C5.112 11.88 5.648 11.216 6.08 10.624C6.512 10.032 6.856 9.48 7.112 8.968C7.384 8.456 7.576 7.952 7.688 7.456C7.816 6.944 7.88 6.416 7.88 5.872C7.88 5.264 7.792 4.736 7.616 4.288C7.44 3.824 7.168 3.464 6.8 3.208C6.448 2.952 5.992 2.824 5.432 2.824C4.712 2.824 4.16 2.992 3.776 3.328C3.392 3.664 3.128 4.104 2.984 4.648C2.856 5.176 2.792 5.76 2.792 6.4C2.408 6.4 2.056 6.36 1.736 6.28C1.432 6.184 1.184 6.024 0.992 5.8C0.816 5.56 0.728 5.24 0.728 4.84C0.728 4.216 0.904 3.664 1.256 3.184C1.608 2.704 2.136 2.328 2.84 2.056C3.544 1.768 4.408 1.624 5.432 1.624C6.44 1.624 7.304 1.792 8.024 2.128C8.76 2.448 9.32 2.912 9.704 3.52C10.104 4.112 10.304 4.816 10.304 5.632C10.304 6.08 10.24 6.52 10.112 6.952C10 7.384 9.832 7.816 9.608 8.248C9.384 8.68 9.112 9.128 8.792 9.592C8.472 10.04 8.104 10.512 7.688 11.008C7.272 11.504 6.808 12.032 6.296 12.592L2.24 17.08L7.784 17.08C8.504 17.08 8.992 16.896 9.248 16.528C9.504 16.16 9.688 15.744 9.8 15.28L9.896 14.848H10.904L10.784 19L0.464 19ZM19.1263 19.24C17.8143 19.24 16.7423 18.872 15.9103 18.136C15.0783 17.4 14.4623 16.368 14.0623 15.04C13.6783 13.712 13.4863 12.16 13.4863 10.384C13.4863 8.608 13.6783 7.064 14.0623 5.752C14.4623 4.44 15.0783 3.424 15.9103 2.704C16.7423 1.984 17.8223 1.624 19.1503 1.624C20.3983 1.624 21.4383 1.984 22.2703 2.704C23.1023 3.424 23.7183 4.448 24.1183 5.776C24.5343 7.088 24.7422 8.632 24.7422 10.408C24.7422 12.184 24.5343 13.736 24.1183 15.064C23.7023 16.376 23.0783 17.4 22.2463 18.136C21.4303 18.872 20.3903 19.24 19.1263 19.24ZM19.1263 17.944C19.7023 17.944 20.1903 17.776 20.5903 17.44C20.9903 17.104 21.3103 16.616 21.5503 15.976C21.7903 15.32 21.9663 14.528 22.0783 13.6C22.1903 12.656 22.2463 11.592 22.2463 10.408C22.2463 9.224 22.1903 8.168 22.0783 7.24C21.9823 6.312 21.8063 5.528 21.5503 4.888C21.3103 4.248 20.9903 3.76 20.5903 3.424C20.2063 3.088 19.7263 2.92 19.1503 2.92C18.5583 2.92 18.0623 3.088 17.6623 3.424C17.2623 3.76 16.9343 4.248 16.6783 4.888C16.4383 5.528 16.2623 6.312 16.1503 7.24C16.0383 8.168 15.9823 9.224 15.9823 10.408C15.9823 11.592 16.0383 12.656 16.1503 13.6C16.2623 14.528 16.4383 15.32 16.6783 15.976C16.9183 16.616 17.2383 17.104 17.6383 17.44C18.0543 17.776 18.5503 17.944 19.1263 17.944ZM28.1165 19V17.992H29.7245C30.0925 17.992 30.4205 17.952 30.7085 17.872C31.0125 17.792 31.2525 17.632 31.4285 17.392C31.6045 17.136 31.6925 16.76 31.6925 16.264V3.664C31.2925 4.16 30.9165 4.6 30.5645 4.984C30.2125 5.352 29.8765 5.64 29.5565 5.848C29.2365 6.056 28.9165 6.16 28.5965 6.16C28.2445 6.16 27.9565 6.04 27.7325 5.8C27.5085 5.56 27.3965 5.248 27.3965 4.864C27.7165 4.784 28.0445 4.68 28.3805 4.552C28.7165 4.408 29.0845 4.216 29.4845 3.976C29.9005 3.72 30.3725 3.4 30.9005 3.016L32.5805 1.768H34.1165V16.264C34.1165 16.76 34.2045 17.136 34.3805 17.392C34.5565 17.632 34.7965 17.792 35.1005 17.872C35.4045 17.952 35.7325 17.992 36.0845 17.992H37.2605V19H28.1165ZM43.4428 19L49.1068 3.784L43.1308 3.784C42.6988 3.784 42.3628 3.888 42.1228 4.096C41.8988 4.304 41.7708 4.608 41.7388 5.008L41.6428 6.208H40.6348L40.7548 1.864L51.4828 1.864V2.56L45.5788 19H43.4428ZM59.7714 19V17.992H60.0834C60.4514 17.992 60.7794 17.952 61.0674 17.872C61.3714 17.792 61.6114 17.632 61.7874 17.392C61.9634 17.136 62.0514 16.76 62.0514 16.264V4.504C62.0514 4.024 61.9554 3.672 61.7634 3.448C61.5874 3.208 61.3474 3.056 61.0434 2.992C60.7554 2.912 60.4354 2.872 60.0834 2.872H59.7714V1.864L64.1634 1.864L72.7554 15.136V4.504C72.7554 4.024 72.6594 3.672 72.4674 3.448C72.2914 3.208 72.0514 3.056 71.7474 2.992C71.4594 2.912 71.1394 2.872 70.7874 2.872H70.4754V1.864L76.4994 1.864V2.872H76.1874C75.8354 2.872 75.5074 2.912 75.2034 2.992C74.8994 3.072 74.6594 3.232 74.4834 3.472C74.3074 3.712 74.2194 4.088 74.2194 4.6V19H72.5154L63.5154 5.176V16.264C63.5154 16.76 63.6034 17.136 63.7794 17.392C63.9554 17.632 64.1954 17.792 64.4994 17.872C64.8034 17.952 65.1314 17.992 65.4834 17.992H65.7954V19H59.7714ZM84.0521 19.24C82.3241 19.24 80.9641 18.688 79.9721 17.584C78.9801 16.48 78.4841 14.8 78.4841 12.544C78.4841 10.304 78.9561 8.64 79.9001 7.552C80.8601 6.448 82.2681 5.896 84.1241 5.896C85.8521 5.896 87.2121 6.448 88.2041 7.552C89.1961 8.64 89.6921 10.304 89.6921 12.544C89.6921 14.8 89.2121 16.48 88.2521 17.584C87.3081 18.688 85.9081 19.24 84.0521 19.24ZM84.1001 17.992C84.9001 17.992 85.5401 17.792 86.0201 17.392C86.5001 16.976 86.8441 16.36 87.0521 15.544C87.2601 14.728 87.3641 13.728 87.3641 12.544C87.3641 11.344 87.2521 10.352 87.0281 9.568C86.8201 8.768 86.4761 8.168 85.9961 7.768C85.5161 7.368 84.8761 7.168 84.0761 7.168C83.2761 7.168 82.6361 7.368 82.1561 7.768C81.6761 8.168 81.3321 8.768 81.1241 9.568C80.9161 10.352 80.8121 11.344 80.8121 12.544C80.8121 13.728 80.9161 14.728 81.1241 15.544C81.3481 16.36 81.7001 16.976 82.1801 17.392C82.6601 17.792 83.3001 17.992 84.1001 17.992ZM92.8876 8.416C92.7756 8.08 92.6396 7.824 92.4796 7.648C92.3356 7.456 92.1516 7.328 91.9276 7.264C91.7196 7.184 91.4476 7.144 91.1116 7.144V6.136L97.1116 6.136V7.144H96.7996C96.3196 7.144 95.9596 7.24 95.7196 7.432C95.4796 7.608 95.3596 7.896 95.3596 8.296C95.3596 8.424 95.3756 8.56 95.4076 8.704C95.4396 8.848 95.4876 9.008 95.5516 9.184L97.1836 13.72C97.3276 14.104 97.4716 14.528 97.6156 14.992C97.7596 15.44 97.8876 15.872 97.9996 16.288C98.1276 16.688 98.2316 17.032 98.3116 17.32C98.3756 17.096 98.4716 16.8 98.5996 16.432C98.7276 16.064 98.8716 15.672 99.0316 15.256C99.2076 14.824 99.3676 14.416 99.5116 14.032L101.24 9.352C101.32 9.16 101.376 8.976 101.408 8.8C101.44 8.608 101.456 8.448 101.456 8.32C101.456 7.904 101.32 7.608 101.048 7.432C100.792 7.24 100.4 7.144 99.8716 7.144H99.7036V6.136H104.84V7.144H104.552C104.248 7.144 103.992 7.192 103.784 7.288C103.592 7.384 103.416 7.568 103.256 7.84C103.096 8.112 102.92 8.504 102.728 9.016L98.9356 19H96.7516L92.8876 8.416ZM111.802 19.24C110.058 19.24 108.69 18.664 107.698 17.512C106.722 16.36 106.234 14.744 106.234 12.664C106.234 10.424 106.698 8.736 107.626 7.6C108.554 6.464 109.866 5.896 111.562 5.896C113.114 5.896 114.33 6.376 115.21 7.336C116.106 8.296 116.554 9.728 116.554 11.632V12.736L108.562 12.736C108.594 13.904 108.746 14.856 109.018 15.592C109.29 16.328 109.682 16.872 110.194 17.224C110.722 17.56 111.37 17.728 112.138 17.728C112.698 17.728 113.194 17.648 113.626 17.488C114.074 17.328 114.458 17.12 114.778 16.864C115.114 16.608 115.378 16.336 115.57 16.048C115.682 16.096 115.786 16.192 115.882 16.336C115.978 16.48 116.026 16.656 116.026 16.864C116.026 17.184 115.874 17.528 115.57 17.896C115.266 18.264 114.802 18.584 114.178 18.856C113.554 19.112 112.762 19.24 111.802 19.24ZM114.13 11.44C114.13 10.592 114.042 9.848 113.866 9.208C113.706 8.568 113.434 8.072 113.05 7.72C112.666 7.368 112.154 7.192 111.514 7.192C110.922 7.192 110.418 7.36 110.002 7.696C109.602 8.016 109.282 8.488 109.042 9.112C108.818 9.736 108.674 10.512 108.61 11.44L114.13 11.44ZM118.43 19V17.992H118.742C119.11 17.992 119.43 17.952 119.702 17.872C119.974 17.792 120.19 17.632 120.35 17.392C120.51 17.136 120.59 16.76 120.59 16.264V8.776C120.59 8.296 120.51 7.944 120.35 7.72C120.19 7.48 119.966 7.328 119.678 7.264C119.406 7.184 119.094 7.144 118.742 7.144H118.67V6.136L122.438 6.136L122.75 8.08H122.87C123.19 7.472 123.534 7.016 123.902 6.712C124.27 6.392 124.67 6.176 125.102 6.064C125.534 5.952 125.998 5.896 126.494 5.896C127.006 5.896 127.486 5.968 127.934 6.112C128.398 6.256 128.806 6.488 129.158 6.808C129.51 7.112 129.782 7.536 129.974 8.08H130.166C130.486 7.472 130.838 7.016 131.222 6.712C131.622 6.392 132.046 6.176 132.494 6.064C132.958 5.952 133.438 5.896 133.934 5.896C135.166 5.896 136.126 6.272 136.814 7.024C137.502 7.76 137.846 8.952 137.846 10.6V16.264C137.846 16.76 137.926 17.136 138.086 17.392C138.246 17.632 138.462 17.792 138.734 17.872C139.022 17.952 139.342 17.992 139.694 17.992H139.766V19H135.59V10.72C135.59 9.68 135.398 8.872 135.014 8.296C134.646 7.72 133.998 7.432 133.07 7.432C132.414 7.432 131.886 7.6 131.486 7.936C131.102 8.256 130.822 8.688 130.646 9.232C130.486 9.776 130.406 10.368 130.406 11.008V16.264C130.406 16.76 130.486 17.136 130.646 17.392C130.806 17.632 131.022 17.792 131.294 17.872C131.582 17.952 131.902 17.992 132.254 17.992H132.326V19H128.15V10.72C128.15 9.68 127.958 8.872 127.574 8.296C127.206 7.72 126.558 7.432 125.63 7.432C124.942 7.432 124.39 7.616 123.974 7.984C123.574 8.336 123.286 8.808 123.11 9.4C122.934 9.992 122.846 10.632 122.846 11.32V16.384C122.846 16.848 122.934 17.2 123.11 17.44C123.302 17.664 123.542 17.816 123.83 17.896C124.134 17.96 124.462 17.992 124.814 17.992H124.886V19H118.43ZM148.965 19.24C148.037 19.24 147.277 19.048 146.685 18.664C146.109 18.264 145.645 17.752 145.293 17.128H145.149L144.717 19L140.877 19V17.992H141.069C141.437 17.992 141.765 17.952 142.053 17.872C142.357 17.792 142.597 17.632 142.773 17.392C142.949 17.136 143.037 16.76 143.037 16.264V3.4C143.037 2.92 142.941 2.568 142.749 2.344C142.573 2.104 142.333 1.952 142.029 1.888C141.741 1.808 141.421 1.768 141.069 1.768H140.877V0.759999L145.293 0.759999V5.176C145.293 5.448 145.285 5.8 145.269 6.232C145.269 6.648 145.261 7.056 145.245 7.456C145.229 7.84 145.213 8.12 145.197 8.296H145.293C145.661 7.56 146.133 6.976 146.709 6.544C147.285 6.112 148.037 5.896 148.965 5.896C150.549 5.896 151.757 6.432 152.589 7.504C153.437 8.56 153.861 10.24 153.861 12.544C153.861 14.08 153.669 15.344 153.285 16.336C152.917 17.328 152.365 18.064 151.629 18.544C150.909 19.008 150.021 19.24 148.965 19.24ZM148.581 17.704C149.285 17.704 149.853 17.504 150.285 17.104C150.717 16.704 151.029 16.12 151.221 15.352C151.429 14.584 151.533 13.64 151.533 12.52C151.533 11.384 151.429 10.44 151.221 9.688C151.029 8.936 150.717 8.376 150.285 8.008C149.853 7.624 149.277 7.432 148.557 7.432C147.309 7.432 146.453 7.856 145.989 8.704C145.525 9.536 145.293 10.816 145.293 12.544C145.293 13.648 145.389 14.584 145.581 15.352C145.789 16.12 146.133 16.704 146.613 17.104C147.093 17.504 147.749 17.704 148.581 17.704ZM162.076 19.24C160.332 19.24 158.964 18.664 157.972 17.512C156.996 16.36 156.508 14.744 156.508 12.664C156.508 10.424 156.972 8.736 157.9 7.6C158.828 6.464 160.14 5.896 161.836 5.896C163.388 5.896 164.604 6.376 165.484 7.336C166.38 8.296 166.828 9.728 166.828 11.632V12.736L158.836 12.736C158.868 13.904 159.02 14.856 159.292 15.592C159.564 16.328 159.956 16.872 160.468 17.224C160.996 17.56 161.644 17.728 162.412 17.728C162.972 17.728 163.468 17.648 163.9 17.488C164.348 17.328 164.732 17.12 165.052 16.864C165.388 16.608 165.652 16.336 165.844 16.048C165.956 16.096 166.06 16.192 166.156 16.336C166.252 16.48 166.3 16.656 166.3 16.864C166.3 17.184 166.148 17.528 165.844 17.896C165.54 18.264 165.076 18.584 164.452 18.856C163.828 19.112 163.036 19.24 162.076 19.24ZM164.404 11.44C164.404 10.592 164.316 9.848 164.14 9.208C163.98 8.568 163.708 8.072 163.324 7.72C162.94 7.368 162.428 7.192 161.788 7.192C161.196 7.192 160.692 7.36 160.276 7.696C159.876 8.016 159.556 8.488 159.316 9.112C159.092 9.736 158.948 10.512 158.884 11.44L164.404 11.44ZM168.823 19V17.992H168.895C169.263 17.992 169.591 17.952 169.879 17.872C170.183 17.792 170.423 17.632 170.599 17.392C170.775 17.136 170.863 16.76 170.863 16.264V8.776C170.863 8.296 170.767 7.944 170.575 7.72C170.399 7.48 170.159 7.328 169.855 7.264C169.567 7.184 169.247 7.144 168.895 7.144H168.823V6.136H172.519L172.975 8.512H173.095C173.303 8.032 173.527 7.592 173.767 7.192C174.007 6.792 174.327 6.48 174.727 6.256C175.127 6.016 175.679 5.896 176.383 5.896C177.263 5.896 177.911 6.048 178.327 6.352C178.759 6.656 178.975 7.088 178.975 7.648C178.975 8.144 178.799 8.552 178.447 8.872C178.111 9.192 177.543 9.352 176.743 9.352C176.743 8.904 176.703 8.544 176.623 8.272C176.543 8 176.407 7.8 176.215 7.672C176.039 7.544 175.791 7.48 175.471 7.48C175.023 7.48 174.647 7.656 174.343 8.008C174.039 8.36 173.799 8.808 173.623 9.352C173.447 9.896 173.319 10.464 173.239 11.056C173.159 11.632 173.119 12.152 173.119 12.616V16.384C173.119 16.848 173.207 17.2 173.383 17.44C173.575 17.664 173.815 17.816 174.103 17.896C174.407 17.96 174.735 17.992 175.087 17.992H175.759V19H168.823Z" fill="white"/>
</svg>
