<svg width="151" height="65" viewBox="0 0 151 65" fill="none" xmlns="http://www.w3.org/2000/svg">
<path d="M1.80775 19V17.248L5.81575 12.616C6.45575 11.88 6.99175 11.216 7.42375 10.624C7.85575 10.032 8.19975 9.48 8.45575 8.968C8.72775 8.456 8.91975 7.952 9.03175 7.456C9.15975 6.944 9.22375 6.416 9.22375 5.872C9.22375 5.264 9.13575 4.736 8.95975 4.288C8.78375 3.824 8.51175 3.464 8.14375 3.208C7.79175 2.952 7.33575 2.824 6.77575 2.824C6.05575 2.824 5.50375 2.992 5.11975 3.328C4.73575 3.664 4.47175 4.104 4.32775 4.648C4.19975 5.176 4.13575 5.76 4.13575 6.4C3.75175 6.4 3.39975 6.36 3.07975 6.28C2.77575 6.184 2.52775 6.024 2.33575 5.8C2.15975 5.56 2.07175 5.24 2.07175 4.84C2.07175 4.216 2.24775 3.664 2.59975 3.184C2.95175 2.704 3.47975 2.328 4.18375 2.056C4.88775 1.768 5.75175 1.624 6.77575 1.624C7.78375 1.624 8.64775 1.792 9.36775 2.128C10.1038 2.448 10.6638 2.912 11.0478 3.52C11.4478 4.112 11.6478 4.816 11.6478 5.632C11.6478 6.08 11.5838 6.52 11.4558 6.952C11.3438 7.384 11.1758 7.816 10.9518 8.248C10.7278 8.68 10.4558 9.128 10.1358 9.592C9.81575 10.04 9.44775 10.512 9.03175 11.008C8.61575 11.504 8.15175 12.032 7.63975 12.592L3.58375 17.08H9.12775C9.84775 17.08 10.3358 16.896 10.5918 16.528C10.8478 16.16 11.0318 15.744 11.1438 15.28L11.2398 14.848L12.2478 14.848L12.1278 19L1.80775 19ZM20.47 19.24C19.158 19.24 18.086 18.872 17.254 18.136C16.422 17.4 15.806 16.368 15.406 15.04C15.022 13.712 14.83 12.16 14.83 10.384C14.83 8.608 15.022 7.064 15.406 5.752C15.806 4.44 16.422 3.424 17.254 2.704C18.086 1.984 19.166 1.624 20.494 1.624C21.742 1.624 22.782 1.984 23.614 2.704C24.446 3.424 25.062 4.448 25.462 5.776C25.878 7.088 26.086 8.632 26.086 10.408C26.086 12.184 25.878 13.736 25.462 15.064C25.046 16.376 24.422 17.4 23.59 18.136C22.774 18.872 21.734 19.24 20.47 19.24ZM20.47 17.944C21.046 17.944 21.534 17.776 21.934 17.44C22.334 17.104 22.654 16.616 22.894 15.976C23.134 15.32 23.31 14.528 23.422 13.6C23.534 12.656 23.59 11.592 23.59 10.408C23.59 9.224 23.534 8.168 23.422 7.24C23.326 6.312 23.15 5.528 22.894 4.888C22.654 4.248 22.334 3.76 21.934 3.424C21.55 3.088 21.07 2.92 20.494 2.92C19.902 2.92 19.406 3.088 19.006 3.424C18.606 3.76 18.278 4.248 18.022 4.888C17.782 5.528 17.606 6.312 17.494 7.24C17.382 8.168 17.326 9.224 17.326 10.408C17.326 11.592 17.382 12.656 17.494 13.6C17.606 14.528 17.782 15.32 18.022 15.976C18.262 16.616 18.582 17.104 18.982 17.44C19.398 17.776 19.894 17.944 20.47 17.944ZM29.4603 19V17.992H31.0683C31.4363 17.992 31.7643 17.952 32.0523 17.872C32.3563 17.792 32.5963 17.632 32.7723 17.392C32.9483 17.136 33.0363 16.76 33.0363 16.264V3.664C32.6363 4.16 32.2603 4.6 31.9083 4.984C31.5563 5.352 31.2203 5.64 30.9003 5.848C30.5803 6.056 30.2603 6.16 29.9403 6.16C29.5883 6.16 29.3003 6.04 29.0763 5.8C28.8523 5.56 28.7402 5.248 28.7402 4.864C29.0603 4.784 29.3883 4.68 29.7243 4.552C30.0603 4.408 30.4283 4.216 30.8283 3.976C31.2443 3.72 31.7163 3.4 32.2443 3.016L33.9243 1.768H35.4603V16.264C35.4603 16.76 35.5483 17.136 35.7243 17.392C35.9003 17.632 36.1403 17.792 36.4443 17.872C36.7483 17.952 37.0763 17.992 37.4283 17.992H38.6043V19H29.4603ZM47.1145 19.24C45.9145 19.24 44.9065 19.04 44.0905 18.64C43.2905 18.224 42.6825 17.672 42.2665 16.984C41.8665 16.296 41.6665 15.536 41.6665 14.704C41.6665 13.936 41.8265 13.288 42.1465 12.76C42.4665 12.232 42.8985 11.776 43.4425 11.392C44.0025 11.008 44.6265 10.648 45.3145 10.312C44.7065 9.96 44.1705 9.576 43.7065 9.16C43.2425 8.744 42.8745 8.272 42.6025 7.744C42.3465 7.2 42.2185 6.592 42.2185 5.92C42.2185 5.184 42.3945 4.488 42.7465 3.832C43.0985 3.176 43.6505 2.648 44.4025 2.248C45.1705 1.832 46.1705 1.624 47.4025 1.624C48.4105 1.624 49.2665 1.8 49.9705 2.152C50.6745 2.504 51.2105 2.992 51.5785 3.616C51.9465 4.24 52.1305 4.952 52.1305 5.752C52.1305 6.808 51.8345 7.632 51.2425 8.224C50.6505 8.8 49.8665 9.328 48.8905 9.808C49.6905 10.176 50.3865 10.584 50.9785 11.032C51.5705 11.48 52.0345 11.984 52.3705 12.544C52.7065 13.088 52.8745 13.712 52.8745 14.416C52.8745 15.936 52.3545 17.12 51.3145 17.968C50.2745 18.816 48.8745 19.24 47.1145 19.24ZM47.2345 18.136C48.2745 18.136 49.1065 17.84 49.7305 17.248C50.3705 16.64 50.6905 15.872 50.6905 14.944C50.6905 14.528 50.6105 14.152 50.4505 13.816C50.3065 13.464 50.0665 13.128 49.7305 12.808C49.4105 12.488 48.9785 12.176 48.4345 11.872C47.8905 11.552 47.2345 11.224 46.4665 10.888C45.7145 11.288 45.1145 11.816 44.6665 12.472C44.2185 13.128 43.9945 13.904 43.9945 14.8C43.9945 15.792 44.2665 16.6 44.8105 17.224C45.3545 17.832 46.1625 18.136 47.2345 18.136ZM47.7145 9.256C48.3225 8.952 48.7865 8.64 49.1065 8.32C49.4425 7.984 49.6745 7.608 49.8025 7.192C49.9305 6.76 49.9945 6.264 49.9945 5.704C49.9945 5.208 49.9065 4.736 49.7305 4.288C49.5545 3.84 49.2665 3.472 48.8665 3.184C48.4665 2.896 47.9305 2.752 47.2585 2.752C46.3625 2.752 45.6745 3.024 45.1945 3.568C44.7145 4.112 44.4745 4.8 44.4745 5.632C44.4745 6.208 44.5945 6.704 44.8345 7.12C45.0745 7.536 45.4345 7.912 45.9145 8.248C46.3945 8.584 46.9945 8.92 47.7145 9.256ZM69.1071 19.24C67.4111 19.24 66.0031 18.872 64.8831 18.136C63.7631 17.4 62.9231 16.368 62.3631 15.04C61.8191 13.712 61.5471 12.16 61.5471 10.384C61.5471 8.608 61.8191 7.064 62.3631 5.752C62.9231 4.44 63.7631 3.424 64.8831 2.704C66.0191 1.968 67.4351 1.6 69.1311 1.6C70.7471 1.6 72.1071 1.968 73.2111 2.704C74.3311 3.424 75.1791 4.448 75.7551 5.776C76.3471 7.088 76.6431 8.632 76.6431 10.408C76.6431 12.184 76.3471 13.736 75.7551 15.064C75.1791 16.376 74.3311 17.4 73.2111 18.136C72.0911 18.872 70.7231 19.24 69.1071 19.24ZM69.1071 17.944C70.0031 17.944 70.7551 17.776 71.3631 17.44C71.9871 17.104 72.4911 16.616 72.8751 15.976C73.2591 15.32 73.5391 14.528 73.7151 13.6C73.8911 12.656 73.9791 11.592 73.9791 10.408C73.9791 9.224 73.8911 8.168 73.7151 7.24C73.5391 6.312 73.2591 5.528 72.8751 4.888C72.5071 4.232 72.0111 3.736 71.3871 3.4C70.7791 3.064 70.0271 2.896 69.1311 2.896C68.2351 2.896 67.4751 3.064 66.8511 3.4C66.2271 3.736 65.7151 4.232 65.3151 4.888C64.9311 5.528 64.6511 6.312 64.4751 7.24C64.2991 8.168 64.2111 9.224 64.2111 10.408C64.2111 11.592 64.2991 12.656 64.4751 13.6C64.6511 14.528 64.9311 15.32 65.3151 15.976C65.7151 16.616 66.2271 17.104 66.8511 17.44C67.4751 17.776 68.2271 17.944 69.1071 17.944ZM84.8076 19.24C83.7516 19.24 82.8076 19.016 81.9756 18.568C81.1596 18.12 80.5116 17.416 80.0316 16.456C79.5676 15.48 79.3356 14.208 79.3356 12.64C79.3356 10.928 79.5676 9.584 80.0316 8.608C80.5116 7.616 81.1516 6.92 81.9516 6.52C82.7676 6.104 83.6796 5.896 84.6876 5.896C85.3596 5.896 86.0156 5.984 86.6556 6.16C87.2956 6.336 87.8236 6.608 88.2396 6.976C88.6556 7.328 88.8636 7.784 88.8636 8.344C88.8636 8.712 88.7836 9.008 88.6236 9.232C88.4636 9.456 88.2236 9.616 87.9036 9.712C87.5996 9.808 87.2076 9.856 86.7276 9.856C86.7276 9.344 86.6636 8.88 86.5356 8.464C86.4236 8.048 86.2236 7.72 85.9356 7.48C85.6476 7.224 85.2316 7.096 84.6876 7.096C84.0796 7.096 83.5436 7.256 83.0796 7.576C82.6316 7.896 82.2796 8.456 82.0236 9.256C81.7836 10.056 81.6636 11.176 81.6636 12.616C81.6636 13.752 81.7836 14.696 82.0236 15.448C82.2796 16.2 82.6716 16.76 83.1996 17.128C83.7276 17.496 84.4236 17.68 85.2876 17.68C85.7836 17.68 86.2396 17.608 86.6556 17.464C87.0716 17.32 87.4316 17.12 87.7356 16.864C88.0556 16.608 88.3036 16.32 88.4796 16C88.6076 16.096 88.7036 16.224 88.7676 16.384C88.8476 16.528 88.8876 16.712 88.8876 16.936C88.8876 17.304 88.7356 17.664 88.4316 18.016C88.1276 18.368 87.6716 18.664 87.0636 18.904C86.4716 19.128 85.7196 19.24 84.8076 19.24ZM95.5881 19.24C94.3721 19.24 93.4841 18.968 92.9241 18.424C92.3801 17.864 92.1081 16.896 92.1081 15.52V7.504H90.2841V6.544C90.5721 6.544 90.8921 6.488 91.2441 6.376C91.5961 6.248 91.9001 6.048 92.1561 5.776C92.4281 5.488 92.6521 5.136 92.8281 4.72C93.0041 4.304 93.1481 3.792 93.2601 3.184H94.3641V6.136L97.5081 6.136V7.504L94.3641 7.504V15.592C94.3641 16.408 94.5321 17.008 94.8681 17.392C95.2041 17.776 95.6441 17.968 96.1881 17.968C96.4761 17.968 96.7401 17.952 96.9801 17.92C97.2201 17.888 97.4681 17.848 97.7241 17.8V18.856C97.5161 18.952 97.2041 19.04 96.7881 19.12C96.3721 19.2 95.9721 19.24 95.5881 19.24ZM105.154 19.24C103.426 19.24 102.066 18.688 101.074 17.584C100.082 16.48 99.5856 14.8 99.5856 12.544C99.5856 10.304 100.058 8.64 101.002 7.552C101.962 6.448 103.37 5.896 105.226 5.896C106.954 5.896 108.314 6.448 109.306 7.552C110.298 8.64 110.794 10.304 110.794 12.544C110.794 14.8 110.314 16.48 109.354 17.584C108.41 18.688 107.01 19.24 105.154 19.24ZM105.202 17.992C106.002 17.992 106.642 17.792 107.122 17.392C107.602 16.976 107.946 16.36 108.154 15.544C108.362 14.728 108.466 13.728 108.466 12.544C108.466 11.344 108.354 10.352 108.13 9.568C107.922 8.768 107.578 8.168 107.098 7.768C106.618 7.368 105.978 7.168 105.178 7.168C104.378 7.168 103.738 7.368 103.258 7.768C102.778 8.168 102.434 8.768 102.226 9.568C102.018 10.352 101.914 11.344 101.914 12.544C101.914 13.728 102.018 14.728 102.226 15.544C102.45 16.36 102.802 16.976 103.282 17.392C103.762 17.792 104.402 17.992 105.202 17.992ZM120.637 19.24C119.709 19.24 118.949 19.048 118.357 18.664C117.781 18.264 117.317 17.752 116.965 17.128H116.821L116.389 19L112.549 19V17.992H112.741C113.109 17.992 113.437 17.952 113.725 17.872C114.029 17.792 114.269 17.632 114.445 17.392C114.621 17.136 114.709 16.76 114.709 16.264V3.4C114.709 2.92 114.613 2.568 114.421 2.344C114.245 2.104 114.005 1.952 113.701 1.888C113.413 1.808 113.093 1.768 112.741 1.768H112.549V0.759999H116.965V5.176C116.965 5.448 116.957 5.8 116.941 6.232C116.941 6.648 116.933 7.056 116.917 7.456C116.901 7.84 116.885 8.12 116.869 8.296H116.965C117.333 7.56 117.805 6.976 118.381 6.544C118.957 6.112 119.709 5.896 120.637 5.896C122.221 5.896 123.429 6.432 124.261 7.504C125.109 8.56 125.533 10.24 125.533 12.544C125.533 14.08 125.341 15.344 124.957 16.336C124.589 17.328 124.037 18.064 123.301 18.544C122.581 19.008 121.693 19.24 120.637 19.24ZM120.253 17.704C120.957 17.704 121.525 17.504 121.957 17.104C122.389 16.704 122.701 16.12 122.893 15.352C123.101 14.584 123.205 13.64 123.205 12.52C123.205 11.384 123.101 10.44 122.893 9.688C122.701 8.936 122.389 8.376 121.957 8.008C121.525 7.624 120.949 7.432 120.229 7.432C118.981 7.432 118.125 7.856 117.661 8.704C117.197 9.536 116.965 10.816 116.965 12.544C116.965 13.648 117.061 14.584 117.253 15.352C117.461 16.12 117.805 16.704 118.285 17.104C118.765 17.504 119.421 17.704 120.253 17.704ZM133.747 19.24C132.003 19.24 130.635 18.664 129.643 17.512C128.667 16.36 128.179 14.744 128.179 12.664C128.179 10.424 128.643 8.736 129.571 7.6C130.499 6.464 131.811 5.896 133.507 5.896C135.059 5.896 136.275 6.376 137.155 7.336C138.051 8.296 138.499 9.728 138.499 11.632V12.736H130.507C130.539 13.904 130.691 14.856 130.963 15.592C131.235 16.328 131.627 16.872 132.139 17.224C132.667 17.56 133.315 17.728 134.083 17.728C134.643 17.728 135.139 17.648 135.571 17.488C136.019 17.328 136.403 17.12 136.723 16.864C137.059 16.608 137.323 16.336 137.515 16.048C137.627 16.096 137.731 16.192 137.827 16.336C137.923 16.48 137.971 16.656 137.971 16.864C137.971 17.184 137.819 17.528 137.515 17.896C137.211 18.264 136.747 18.584 136.123 18.856C135.499 19.112 134.707 19.24 133.747 19.24ZM136.075 11.44C136.075 10.592 135.987 9.848 135.811 9.208C135.651 8.568 135.379 8.072 134.995 7.72C134.611 7.368 134.099 7.192 133.459 7.192C132.867 7.192 132.363 7.36 131.947 7.696C131.547 8.016 131.227 8.488 130.987 9.112C130.763 9.736 130.619 10.512 130.555 11.44H136.075ZM140.495 19V17.992H140.567C140.935 17.992 141.263 17.952 141.551 17.872C141.855 17.792 142.095 17.632 142.271 17.392C142.447 17.136 142.535 16.76 142.535 16.264V8.776C142.535 8.296 142.439 7.944 142.247 7.72C142.071 7.48 141.831 7.328 141.527 7.264C141.239 7.184 140.919 7.144 140.567 7.144H140.495V6.136H144.191L144.647 8.512H144.767C144.975 8.032 145.199 7.592 145.439 7.192C145.679 6.792 145.999 6.48 146.399 6.256C146.799 6.016 147.351 5.896 148.055 5.896C148.935 5.896 149.583 6.048 149.999 6.352C150.431 6.656 150.647 7.088 150.647 7.648C150.647 8.144 150.471 8.552 150.119 8.872C149.783 9.192 149.215 9.352 148.415 9.352C148.415 8.904 148.375 8.544 148.295 8.272C148.215 8 148.079 7.8 147.887 7.672C147.711 7.544 147.463 7.48 147.143 7.48C146.695 7.48 146.319 7.656 146.015 8.008C145.711 8.36 145.471 8.808 145.295 9.352C145.119 9.896 144.991 10.464 144.911 11.056C144.831 11.632 144.791 12.152 144.791 12.616V16.384C144.791 16.848 144.879 17.2 145.055 17.44C145.247 17.664 145.487 17.816 145.775 17.896C146.079 17.96 146.407 17.992 146.759 17.992H147.431V19H140.495Z" fill="white"/>
<path d="M8.53469 45.416C7.99069 45.416 7.50269 45.536 7.07069 45.776C6.63869 46 6.27069 46.336 5.96669 46.784C5.66269 47.216 5.43069 47.744 5.27069 48.368C5.11069 48.992 5.03069 49.704 5.03069 50.504C5.03069 51.576 5.16669 52.48 5.43869 53.216C5.71069 53.952 6.12669 54.512 6.68669 54.896C7.24669 55.264 7.95069 55.448 8.79869 55.448C9.55069 55.448 10.2787 55.344 10.9827 55.136C11.7027 54.928 12.4227 54.672 13.1427 54.368V58.28C12.3907 58.616 11.6147 58.856 10.8147 59C10.0307 59.16 9.19069 59.24 8.29469 59.24C6.43869 59.24 4.91869 58.872 3.73469 58.136C2.55069 57.4 1.67869 56.376 1.11869 55.064C0.558688 53.736 0.278688 52.208 0.278688 50.48C0.278688 49.184 0.454688 48 0.806688 46.928C1.17469 45.84 1.71069 44.904 2.41469 44.12C3.11869 43.32 3.98269 42.704 5.00669 42.272C6.04669 41.84 7.23869 41.624 8.58269 41.624C9.41469 41.624 10.2867 41.72 11.1987 41.912C12.1107 42.104 13.0067 42.408 13.8867 42.824L12.4707 46.472C11.8467 46.168 11.2147 45.92 10.5747 45.728C9.93469 45.52 9.25469 45.416 8.53469 45.416ZM14.6166 45.728H19.4406L21.6966 53.336C21.7286 53.448 21.7606 53.584 21.7926 53.744C21.8246 53.904 21.8486 54.072 21.8646 54.248C21.8966 54.424 21.9126 54.6 21.9126 54.776H22.0086C22.0406 54.456 22.0806 54.184 22.1286 53.96C22.1926 53.72 22.2486 53.52 22.2966 53.36L24.6006 45.728H29.2806L24.0246 59.84C23.6246 60.912 23.1526 61.816 22.6086 62.552C22.0806 63.288 21.4246 63.84 20.6406 64.208C19.8566 64.576 18.8806 64.76 17.7126 64.76C17.2966 64.76 16.9366 64.736 16.6326 64.688C16.3286 64.656 16.0646 64.616 15.8406 64.568V60.968C16.0166 61 16.2246 61.032 16.4646 61.064C16.7206 61.096 16.9846 61.112 17.2566 61.112C17.7686 61.112 18.1766 61.008 18.4806 60.8C18.8006 60.592 19.0646 60.32 19.2726 59.984C19.4806 59.664 19.6566 59.312 19.8006 58.928L19.8486 58.808L14.6166 45.728ZM36.9211 59.24C35.5771 59.24 34.4091 59 33.4171 58.52C32.4251 58.04 31.6571 57.296 31.1131 56.288C30.5691 55.28 30.2971 53.992 30.2971 52.424C30.2971 50.808 30.6011 49.496 31.2091 48.488C31.8171 47.464 32.6411 46.712 33.6811 46.232C34.7371 45.736 35.9371 45.488 37.2811 45.488C38.0971 45.488 38.8651 45.576 39.5851 45.752C40.3211 45.928 41.0011 46.176 41.6251 46.496L40.2811 49.88C39.7371 49.64 39.2251 49.448 38.7451 49.304C38.2811 49.16 37.7931 49.088 37.2811 49.088C36.8171 49.088 36.4091 49.208 36.0571 49.448C35.7051 49.688 35.4331 50.056 35.2411 50.552C35.0491 51.032 34.9531 51.648 34.9531 52.4C34.9531 53.168 35.0491 53.784 35.2411 54.248C35.4491 54.712 35.7291 55.056 36.0811 55.28C36.4331 55.488 36.8411 55.592 37.3051 55.592C37.9611 55.592 38.6171 55.488 39.2731 55.28C39.9451 55.072 40.5771 54.784 41.1691 54.416V58.064C40.6251 58.416 40.0091 58.704 39.3211 58.928C38.6331 59.136 37.8331 59.24 36.9211 59.24ZM48.3946 59H43.8106V40.76H48.3946V59ZM64.2404 52.328C64.2404 53.432 64.0884 54.416 63.7844 55.28C63.4804 56.144 63.0404 56.872 62.4644 57.464C61.8884 58.04 61.1924 58.48 60.3764 58.784C59.5604 59.088 58.6324 59.24 57.5924 59.24C56.6324 59.24 55.7444 59.088 54.9284 58.784C54.1284 58.48 53.4324 58.04 52.8404 57.464C52.2644 56.872 51.8084 56.144 51.4724 55.28C51.1524 54.416 50.9924 53.432 50.9924 52.328C50.9924 50.856 51.2564 49.616 51.7844 48.608C52.3284 47.584 53.0964 46.808 54.0884 46.28C55.0804 45.752 56.2724 45.488 57.6644 45.488C58.9444 45.488 60.0724 45.752 61.0484 46.28C62.0404 46.808 62.8164 47.584 63.3764 48.608C63.9524 49.616 64.2404 50.856 64.2404 52.328ZM55.6484 52.328C55.6484 53.08 55.7124 53.72 55.8404 54.248C55.9684 54.776 56.1764 55.176 56.4644 55.448C56.7684 55.704 57.1604 55.832 57.6404 55.832C58.1204 55.832 58.4964 55.704 58.7684 55.448C59.0564 55.176 59.2644 54.776 59.3924 54.248C59.5204 53.72 59.5844 53.08 59.5844 52.328C59.5844 51.576 59.5204 50.944 59.3924 50.432C59.2644 49.92 59.0564 49.536 58.7684 49.28C58.4804 49.024 58.0964 48.896 57.6164 48.896C56.9284 48.896 56.4244 49.184 56.1044 49.76C55.8004 50.336 55.6484 51.192 55.6484 52.328ZM75.1536 45.488C76.5296 45.488 77.6496 45.872 78.5136 46.64C79.3776 47.408 79.8096 48.648 79.8096 50.36V59H75.2256V51.752C75.2256 50.872 75.0976 50.208 74.8416 49.76C74.5856 49.312 74.1776 49.088 73.6176 49.088C72.7536 49.088 72.1696 49.44 71.8656 50.144C71.5776 50.848 71.4336 51.864 71.4336 53.192V59H66.8496V45.728H70.3056L70.9296 47.48H71.0976C71.3856 47.064 71.7216 46.712 72.1056 46.424C72.5056 46.12 72.9536 45.888 73.4496 45.728C73.9616 45.568 74.5296 45.488 75.1536 45.488ZM88.9038 45.488C90.1998 45.488 91.3118 45.712 92.2398 46.16C93.1838 46.608 93.9038 47.28 94.3998 48.176C94.9118 49.072 95.1678 50.2 95.1678 51.56V53.6L86.9838 53.6C87.0158 54.288 87.2718 54.856 87.7518 55.304C88.2478 55.752 88.9598 55.976 89.8878 55.976C90.7198 55.976 91.4798 55.896 92.1678 55.736C92.8558 55.576 93.5678 55.32 94.3038 54.968V58.256C93.6638 58.592 92.9598 58.84 92.1918 59C91.4398 59.16 90.4878 59.24 89.3358 59.24C87.9918 59.24 86.7918 59.008 85.7358 58.544C84.6958 58.064 83.8718 57.32 83.2638 56.312C82.6558 55.304 82.3518 54.016 82.3518 52.448C82.3518 50.848 82.6238 49.536 83.1678 48.512C83.7278 47.488 84.4958 46.728 85.4718 46.232C86.4638 45.736 87.6078 45.488 88.9038 45.488ZM89.0718 48.608C88.5278 48.608 88.0718 48.776 87.7038 49.112C87.3518 49.448 87.1438 49.984 87.0798 50.72L91.0158 50.72C91.0158 50.32 90.9358 49.968 90.7758 49.664C90.6318 49.344 90.4158 49.088 90.1278 48.896C89.8398 48.704 89.4878 48.608 89.0718 48.608ZM111.822 59H107.19V45.656H103.014V41.864H115.998V45.656H111.822V59ZM122.786 45.728V59H118.202V45.728L122.786 45.728ZM120.506 40.376C121.162 40.376 121.73 40.512 122.21 40.784C122.706 41.056 122.954 41.6 122.954 42.416C122.954 43.2 122.706 43.736 122.21 44.024C121.73 44.296 121.162 44.432 120.506 44.432C119.834 44.432 119.258 44.296 118.778 44.024C118.314 43.736 118.082 43.2 118.082 42.416C118.082 41.6 118.314 41.056 118.778 40.784C119.258 40.512 119.834 40.376 120.506 40.376ZM132.486 55.616C132.902 55.616 133.278 55.576 133.614 55.496C133.966 55.4 134.326 55.288 134.694 55.16V58.496C134.198 58.704 133.67 58.88 133.11 59.024C132.55 59.168 131.838 59.24 130.974 59.24C130.11 59.24 129.35 59.104 128.694 58.832C128.054 58.56 127.55 58.096 127.182 57.44C126.814 56.768 126.63 55.832 126.63 54.632V49.16H125.022V47.288L127.062 45.848L128.238 43.064H131.238V45.728H134.502V49.16H131.238V54.32C131.238 54.752 131.342 55.08 131.55 55.304C131.774 55.512 132.086 55.616 132.486 55.616ZM141.605 59H137.021V40.76H141.605V59ZM149.387 45.728V59H144.803V45.728H149.387ZM147.107 40.376C147.763 40.376 148.331 40.512 148.811 40.784C149.307 41.056 149.555 41.6 149.555 42.416C149.555 43.2 149.307 43.736 148.811 44.024C148.331 44.296 147.763 44.432 147.107 44.432C146.435 44.432 145.859 44.296 145.379 44.024C144.915 43.736 144.683 43.2 144.683 42.416C144.683 41.6 144.915 41.056 145.379 40.784C145.859 40.512 146.435 40.376 147.107 40.376Z" fill="#F1AE12"/>
</svg>
