<svg width="52" height="19" viewBox="0 0 52 19" fill="none" xmlns="http://www.w3.org/2000/svg">
<path d="M0.0237123 17.9971L0.0237123 15.7891L3.74371 11.7811C4.44771 11.0451 5.03171 10.3731 5.49571 9.76507C5.95971 9.15707 6.31971 8.58907 6.57571 8.06107C6.84771 7.51707 7.03971 6.98107 7.15171 6.45307C7.27971 5.92507 7.34371 5.36507 7.34371 4.77307C7.34371 4.16507 7.25571 3.65307 7.07971 3.23707C6.91971 2.82107 6.68771 2.50907 6.38371 2.30107C6.07971 2.09307 5.69571 1.98907 5.23171 1.98907C4.62371 1.98907 4.14371 2.14907 3.79171 2.46907C3.45571 2.78907 3.21571 3.24507 3.07171 3.83707C2.94371 4.41307 2.87971 5.10907 2.87971 5.92507C2.35171 5.92507 1.87971 5.86107 1.46371 5.73307C1.06371 5.58907 0.751712 5.36507 0.527712 5.06107C0.303712 4.75707 0.191712 4.35707 0.191712 3.86107C0.191712 3.25307 0.375712 2.70907 0.743712 2.22907C1.12771 1.73307 1.69571 1.34107 2.44771 1.05307C3.19971 0.765069 4.12771 0.621069 5.23171 0.621069C6.36771 0.621069 7.32771 0.781069 8.11171 1.10107C8.89571 1.42107 9.48771 1.88507 9.88771 2.49307C10.3037 3.08507 10.5117 3.78907 10.5117 4.60507C10.5117 5.05307 10.4477 5.49307 10.3197 5.92507C10.1917 6.35707 9.99971 6.79707 9.74371 7.24507C9.48771 7.69307 9.15171 8.18107 8.73571 8.70907C8.31971 9.22107 7.80771 9.78907 7.19971 10.4131C6.60771 11.0371 5.91971 11.7331 5.13571 12.5011L2.11171 15.6211H7.67971C8.25571 15.6211 8.69571 15.4691 8.99971 15.1651C9.31971 14.8451 9.55171 14.4291 9.69571 13.9171L9.83971 13.2931L11.1117 13.2931L10.9917 17.9971L0.0237123 17.9971ZM19.07 18.2371C17.662 18.2371 16.534 17.8691 15.686 17.1331C14.838 16.3971 14.222 15.3651 13.838 14.0371C13.454 12.7091 13.262 11.1571 13.262 9.38107C13.262 7.60507 13.454 6.06107 13.838 4.74907C14.222 3.43707 14.838 2.42107 15.686 1.70107C16.534 0.98107 17.67 0.621069 19.094 0.621069C20.438 0.621069 21.526 0.98107 22.358 1.70107C23.206 2.42107 23.83 3.44507 24.23 4.77307C24.646 6.08507 24.854 7.62907 24.854 9.40507C24.854 11.1811 24.646 12.7331 24.23 14.0611C23.83 15.3731 23.206 16.3971 22.358 17.1331C21.51 17.8691 20.414 18.2371 19.07 18.2371ZM19.07 16.7731C19.566 16.7731 19.974 16.6131 20.294 16.2931C20.63 15.9571 20.886 15.4771 21.062 14.8531C21.254 14.2131 21.39 13.4371 21.47 12.5251C21.55 11.6131 21.59 10.5731 21.59 9.40507C21.59 8.23707 21.55 7.20507 21.47 6.30907C21.406 5.39707 21.278 4.62907 21.086 4.00507C20.894 3.38107 20.63 2.90907 20.294 2.58907C19.974 2.25307 19.574 2.08507 19.094 2.08507C18.598 2.08507 18.182 2.25307 17.846 2.58907C17.51 2.90907 17.246 3.38107 17.054 4.00507C16.862 4.62907 16.726 5.39707 16.646 6.30907C16.566 7.20507 16.526 8.23707 16.526 9.40507C16.526 10.5731 16.566 11.6131 16.646 12.5251C16.726 13.4371 16.862 14.2131 17.054 14.8531C17.246 15.4771 17.502 15.9571 17.822 16.2931C18.158 16.6131 18.574 16.7731 19.07 16.7731ZM28.0842 17.9971V16.8211H29.9082C30.2122 16.8211 30.4762 16.7811 30.7002 16.7011C30.9242 16.6051 31.0922 16.4451 31.2042 16.2211C31.3322 15.9811 31.3962 15.6451 31.3962 15.2131L31.3962 2.94907C30.9962 3.44507 30.6202 3.88507 30.2682 4.26907C29.9162 4.63707 29.5802 4.92507 29.2602 5.13307C28.9402 5.34107 28.6202 5.44507 28.3002 5.44507C27.9322 5.44507 27.6202 5.30107 27.3642 5.01307C27.1082 4.72507 26.9802 4.34107 26.9802 3.86107C27.3002 3.78107 27.6362 3.67707 27.9882 3.54907C28.3562 3.40507 28.7482 3.21307 29.1642 2.97307C29.5962 2.71707 30.0762 2.39707 30.6042 2.01307L32.2842 0.765069L34.5402 0.765069L34.5402 15.2131C34.5402 15.5971 34.5882 15.9091 34.6842 16.1491C34.7962 16.3891 34.9642 16.5651 35.1882 16.6771C35.4122 16.7731 35.7002 16.8211 36.0522 16.8211L37.6842 16.8211V17.9971L28.0842 17.9971ZM45.7145 18.2371C44.4345 18.2371 43.3705 18.0291 42.5225 17.6131C41.6905 17.1971 41.0665 16.6451 40.6505 15.9571C40.2345 15.2691 40.0265 14.5011 40.0265 13.6531C40.0265 12.9331 40.1785 12.3171 40.4825 11.8051C40.7865 11.2771 41.2025 10.8211 41.7305 10.4371C42.2745 10.0371 42.8985 9.66907 43.6025 9.33307C42.9785 8.96507 42.4425 8.57307 41.9945 8.15707C41.5465 7.72507 41.1945 7.24507 40.9385 6.71707C40.6985 6.18907 40.5785 5.60507 40.5785 4.96507C40.5785 4.21307 40.7545 3.50907 41.1065 2.85307C41.4585 2.19707 42.0265 1.66107 42.8105 1.24507C43.6105 0.82907 44.6745 0.621069 46.0025 0.621069C47.0905 0.621069 48.0025 0.805069 48.7385 1.17307C49.4745 1.52507 50.0265 2.01307 50.3945 2.63707C50.7785 3.26107 50.9705 3.98107 50.9705 4.79707C50.9705 5.78907 50.6745 6.57307 50.0825 7.14907C49.5065 7.70907 48.7225 8.24507 47.7305 8.75707C48.6265 9.17307 49.3705 9.62107 49.9625 10.1011C50.5545 10.5651 50.9945 11.0691 51.2825 11.6131C51.5705 12.1571 51.7145 12.7651 51.7145 13.4371C51.7145 14.9571 51.1785 16.1411 50.1065 16.9891C49.0505 17.8211 47.5865 18.2371 45.7145 18.2371ZM45.8345 16.9651C46.7305 16.9651 47.4505 16.6771 47.9945 16.1011C48.5385 15.5251 48.8105 14.7891 48.8105 13.8931C48.8105 13.4931 48.7385 13.1331 48.5945 12.8131C48.4505 12.4771 48.2265 12.1651 47.9225 11.8771C47.6345 11.5891 47.2505 11.3091 46.7705 11.0371C46.2905 10.7491 45.7145 10.4531 45.0425 10.1491C44.4185 10.5171 43.9065 10.9971 43.5065 11.5891C43.1225 12.1651 42.9305 12.8851 42.9305 13.7491C42.9305 14.7091 43.1865 15.4851 43.6985 16.0771C44.2105 16.6691 44.9225 16.9651 45.8345 16.9651ZM46.3625 8.03707C46.8425 7.78107 47.2185 7.50907 47.4905 7.22107C47.7785 6.91707 47.9785 6.56507 48.0905 6.16507C48.2185 5.76507 48.2825 5.29307 48.2825 4.74907C48.2825 4.26907 48.1945 3.82107 48.0185 3.40507C47.8585 2.97307 47.5945 2.62107 47.2265 2.34907C46.8745 2.06107 46.4185 1.91707 45.8585 1.91707C45.1065 1.91707 44.5305 2.18107 44.1305 2.70907C43.7305 3.22107 43.5305 3.87707 43.5305 4.67707C43.5305 5.23707 43.6345 5.71707 43.8425 6.11707C44.0665 6.50107 44.3865 6.84507 44.8025 7.14907C45.2345 7.45307 45.7545 7.74907 46.3625 8.03707Z" fill="#F1AE12"/>
</svg>
