<svg width="176" height="20" viewBox="0 0 176 20" fill="none" xmlns="http://www.w3.org/2000/svg">
<path d="M0.464 19L0.464 17.248L4.472 12.616C5.112 11.88 5.648 11.216 6.08 10.624C6.512 10.032 6.856 9.48 7.112 8.968C7.384 8.456 7.576 7.952 7.688 7.456C7.816 6.944 7.88 6.416 7.88 5.872C7.88 5.264 7.792 4.736 7.616 4.288C7.44 3.824 7.168 3.464 6.8 3.208C6.448 2.952 5.992 2.824 5.432 2.824C4.712 2.824 4.16 2.992 3.776 3.328C3.392 3.664 3.128 4.104 2.984 4.648C2.856 5.176 2.792 5.76 2.792 6.4C2.408 6.4 2.056 6.36 1.736 6.28C1.432 6.184 1.184 6.024 0.992 5.8C0.816 5.56 0.728 5.24 0.728 4.84C0.728 4.216 0.904 3.664 1.256 3.184C1.608 2.704 2.136 2.328 2.84 2.056C3.544 1.768 4.408 1.624 5.432 1.624C6.44 1.624 7.304 1.792 8.024 2.128C8.76 2.448 9.32 2.912 9.704 3.52C10.104 4.112 10.304 4.816 10.304 5.632C10.304 6.08 10.24 6.52 10.112 6.952C10 7.384 9.832 7.816 9.608 8.248C9.384 8.68 9.112 9.128 8.792 9.592C8.472 10.04 8.104 10.512 7.688 11.008C7.272 11.504 6.808 12.032 6.296 12.592L2.24 17.08L7.784 17.08C8.504 17.08 8.992 16.896 9.248 16.528C9.504 16.16 9.688 15.744 9.8 15.28L9.896 14.848H10.904L10.784 19L0.464 19ZM19.1263 19.24C17.8143 19.24 16.7423 18.872 15.9103 18.136C15.0783 17.4 14.4623 16.368 14.0623 15.04C13.6783 13.712 13.4863 12.16 13.4863 10.384C13.4863 8.608 13.6783 7.064 14.0623 5.752C14.4623 4.44 15.0783 3.424 15.9103 2.704C16.7423 1.984 17.8223 1.624 19.1503 1.624C20.3983 1.624 21.4383 1.984 22.2703 2.704C23.1023 3.424 23.7183 4.448 24.1183 5.776C24.5343 7.088 24.7422 8.632 24.7422 10.408C24.7422 12.184 24.5343 13.736 24.1183 15.064C23.7023 16.376 23.0783 17.4 22.2463 18.136C21.4303 18.872 20.3903 19.24 19.1263 19.24ZM19.1263 17.944C19.7023 17.944 20.1903 17.776 20.5903 17.44C20.9903 17.104 21.3103 16.616 21.5503 15.976C21.7903 15.32 21.9663 14.528 22.0783 13.6C22.1903 12.656 22.2463 11.592 22.2463 10.408C22.2463 9.224 22.1903 8.168 22.0783 7.24C21.9823 6.312 21.8063 5.528 21.5503 4.888C21.3103 4.248 20.9903 3.76 20.5903 3.424C20.2063 3.088 19.7263 2.92 19.1503 2.92C18.5583 2.92 18.0623 3.088 17.6623 3.424C17.2623 3.76 16.9343 4.248 16.6783 4.888C16.4383 5.528 16.2623 6.312 16.1503 7.24C16.0383 8.168 15.9823 9.224 15.9823 10.408C15.9823 11.592 16.0383 12.656 16.1503 13.6C16.2623 14.528 16.4383 15.32 16.6783 15.976C16.9183 16.616 17.2383 17.104 17.6383 17.44C18.0543 17.776 18.5503 17.944 19.1263 17.944ZM28.1165 19V17.992H29.7245C30.0925 17.992 30.4205 17.952 30.7085 17.872C31.0125 17.792 31.2525 17.632 31.4285 17.392C31.6045 17.136 31.6925 16.76 31.6925 16.264V3.664C31.2925 4.16 30.9165 4.6 30.5645 4.984C30.2125 5.352 29.8765 5.64 29.5565 5.848C29.2365 6.056 28.9165 6.16 28.5965 6.16C28.2445 6.16 27.9565 6.04 27.7325 5.8C27.5085 5.56 27.3965 5.248 27.3965 4.864C27.7165 4.784 28.0445 4.68 28.3805 4.552C28.7165 4.408 29.0845 4.216 29.4845 3.976C29.9005 3.72 30.3725 3.4 30.9005 3.016L32.5805 1.768H34.1165V16.264C34.1165 16.76 34.2045 17.136 34.3805 17.392C34.5565 17.632 34.7965 17.792 35.1005 17.872C35.4045 17.952 35.7325 17.992 36.0845 17.992H37.2605V19H28.1165ZM45.7708 19.24C44.5708 19.24 43.5628 19.04 42.7467 18.64C41.9468 18.224 41.3388 17.672 40.9228 16.984C40.5228 16.296 40.3228 15.536 40.3228 14.704C40.3228 13.936 40.4828 13.288 40.8027 12.76C41.1228 12.232 41.5548 11.776 42.0988 11.392C42.6588 11.008 43.2828 10.648 43.9708 10.312C43.3628 9.96 42.8268 9.576 42.3628 9.16C41.8988 8.744 41.5308 8.272 41.2588 7.744C41.0028 7.2 40.8748 6.592 40.8748 5.92C40.8748 5.184 41.0508 4.488 41.4028 3.832C41.7548 3.176 42.3068 2.648 43.0588 2.248C43.8268 1.832 44.8268 1.624 46.0588 1.624C47.0668 1.624 47.9228 1.8 48.6268 2.152C49.3308 2.504 49.8668 2.992 50.2348 3.616C50.6028 4.24 50.7868 4.952 50.7868 5.752C50.7868 6.808 50.4908 7.632 49.8988 8.224C49.3068 8.8 48.5228 9.328 47.5468 9.808C48.3468 10.176 49.0428 10.584 49.6348 11.032C50.2268 11.48 50.6908 11.984 51.0268 12.544C51.3628 13.088 51.5308 13.712 51.5308 14.416C51.5308 15.936 51.0108 17.12 49.9708 17.968C48.9308 18.816 47.5308 19.24 45.7708 19.24ZM45.8908 18.136C46.9308 18.136 47.7628 17.84 48.3868 17.248C49.0268 16.64 49.3468 15.872 49.3468 14.944C49.3468 14.528 49.2668 14.152 49.1068 13.816C48.9628 13.464 48.7228 13.128 48.3868 12.808C48.0668 12.488 47.6348 12.176 47.0908 11.872C46.5468 11.552 45.8908 11.224 45.1228 10.888C44.3708 11.288 43.7708 11.816 43.3228 12.472C42.8748 13.128 42.6508 13.904 42.6508 14.8C42.6508 15.792 42.9228 16.6 43.4668 17.224C44.0108 17.832 44.8188 18.136 45.8908 18.136ZM46.3708 9.256C46.9788 8.952 47.4428 8.64 47.7628 8.32C48.0988 7.984 48.3308 7.608 48.4588 7.192C48.5868 6.76 48.6508 6.264 48.6508 5.704C48.6508 5.208 48.5628 4.736 48.3868 4.288C48.2108 3.84 47.9228 3.472 47.5228 3.184C47.1228 2.896 46.5868 2.752 45.9148 2.752C45.0188 2.752 44.3308 3.024 43.8508 3.568C43.3708 4.112 43.1308 4.8 43.1308 5.632C43.1308 6.208 43.2508 6.704 43.4908 7.12C43.7308 7.536 44.0908 7.912 44.5708 8.248C45.0508 8.584 45.6508 8.92 46.3708 9.256ZM59.7714 19V17.992H60.0834C60.4514 17.992 60.7794 17.952 61.0674 17.872C61.3714 17.792 61.6114 17.632 61.7874 17.392C61.9634 17.136 62.0514 16.76 62.0514 16.264V4.504C62.0514 4.024 61.9554 3.672 61.7634 3.448C61.5874 3.208 61.3474 3.056 61.0434 2.992C60.7554 2.912 60.4354 2.872 60.0834 2.872H59.7714V1.864L67.1154 1.864C68.7634 1.864 70.1714 2.2 71.3394 2.872C72.5074 3.528 73.3954 4.496 74.0034 5.776C74.6274 7.04 74.9394 8.584 74.9394 10.408C74.9394 12.152 74.6434 13.672 74.0514 14.968C73.4754 16.248 72.6114 17.24 71.4594 17.944C70.3074 18.648 68.8594 19 67.1154 19H59.7714ZM66.5634 17.776C67.8434 17.776 68.8994 17.496 69.7314 16.936C70.5794 16.36 71.2114 15.528 71.6274 14.44C72.0594 13.336 72.2754 11.992 72.2754 10.408C72.2754 8.824 72.0594 7.488 71.6274 6.4C71.2114 5.312 70.5794 4.488 69.7314 3.928C68.8994 3.352 67.8514 3.064 66.5874 3.064H64.4754V17.776H66.5634ZM83.1849 19.24C81.4409 19.24 80.0729 18.664 79.0809 17.512C78.1049 16.36 77.6169 14.744 77.6169 12.664C77.6169 10.424 78.0809 8.736 79.0089 7.6C79.9369 6.464 81.2489 5.896 82.9449 5.896C84.4969 5.896 85.7129 6.376 86.5929 7.336C87.4889 8.296 87.9369 9.728 87.9369 11.632V12.736H79.9449C79.9769 13.904 80.1289 14.856 80.4009 15.592C80.6729 16.328 81.0649 16.872 81.5769 17.224C82.1049 17.56 82.7529 17.728 83.5209 17.728C84.0809 17.728 84.5769 17.648 85.0089 17.488C85.4569 17.328 85.8409 17.12 86.1609 16.864C86.4969 16.608 86.7609 16.336 86.9529 16.048C87.0649 16.096 87.1689 16.192 87.2649 16.336C87.3609 16.48 87.4089 16.656 87.4089 16.864C87.4089 17.184 87.2569 17.528 86.9529 17.896C86.6489 18.264 86.1849 18.584 85.5609 18.856C84.9369 19.112 84.1449 19.24 83.1849 19.24ZM85.5129 11.44C85.5129 10.592 85.4249 9.848 85.2489 9.208C85.0889 8.568 84.8169 8.072 84.4329 7.72C84.0489 7.368 83.5369 7.192 82.8969 7.192C82.3049 7.192 81.8009 7.36 81.3849 7.696C80.9849 8.016 80.6649 8.488 80.4249 9.112C80.2009 9.736 80.0569 10.512 79.9929 11.44H85.5129ZM95.9326 19.24C94.8766 19.24 93.9326 19.016 93.1006 18.568C92.2846 18.12 91.6366 17.416 91.1566 16.456C90.6926 15.48 90.4606 14.208 90.4606 12.64C90.4606 10.928 90.6926 9.584 91.1566 8.608C91.6366 7.616 92.2766 6.92 93.0766 6.52C93.8926 6.104 94.8046 5.896 95.8126 5.896C96.4846 5.896 97.1406 5.984 97.7806 6.16C98.4206 6.336 98.9486 6.608 99.3646 6.976C99.7806 7.328 99.9886 7.784 99.9886 8.344C99.9886 8.712 99.9086 9.008 99.7486 9.232C99.5886 9.456 99.3486 9.616 99.0286 9.712C98.7246 9.808 98.3326 9.856 97.8526 9.856C97.8526 9.344 97.7886 8.88 97.6606 8.464C97.5486 8.048 97.3486 7.72 97.0606 7.48C96.7726 7.224 96.3566 7.096 95.8126 7.096C95.2046 7.096 94.6686 7.256 94.2046 7.576C93.7566 7.896 93.4046 8.456 93.1486 9.256C92.9086 10.056 92.7886 11.176 92.7886 12.616C92.7886 13.752 92.9086 14.696 93.1486 15.448C93.4046 16.2 93.7966 16.76 94.3246 17.128C94.8526 17.496 95.5486 17.68 96.4126 17.68C96.9086 17.68 97.3646 17.608 97.7806 17.464C98.1966 17.32 98.5566 17.12 98.8606 16.864C99.1806 16.608 99.4286 16.32 99.6046 16C99.7326 16.096 99.8286 16.224 99.8926 16.384C99.9726 16.528 100.013 16.712 100.013 16.936C100.013 17.304 99.8606 17.664 99.5566 18.016C99.2526 18.368 98.7966 18.664 98.1886 18.904C97.5966 19.128 96.8446 19.24 95.9326 19.24ZM107.841 19.24C106.097 19.24 104.729 18.664 103.737 17.512C102.761 16.36 102.273 14.744 102.273 12.664C102.273 10.424 102.737 8.736 103.665 7.6C104.593 6.464 105.905 5.896 107.601 5.896C109.153 5.896 110.369 6.376 111.249 7.336C112.145 8.296 112.593 9.728 112.593 11.632V12.736L104.601 12.736C104.633 13.904 104.785 14.856 105.057 15.592C105.329 16.328 105.721 16.872 106.233 17.224C106.761 17.56 107.409 17.728 108.177 17.728C108.737 17.728 109.233 17.648 109.665 17.488C110.113 17.328 110.497 17.12 110.817 16.864C111.153 16.608 111.417 16.336 111.609 16.048C111.721 16.096 111.825 16.192 111.921 16.336C112.017 16.48 112.065 16.656 112.065 16.864C112.065 17.184 111.913 17.528 111.609 17.896C111.305 18.264 110.841 18.584 110.217 18.856C109.593 19.112 108.801 19.24 107.841 19.24ZM110.169 11.44C110.169 10.592 110.081 9.848 109.905 9.208C109.745 8.568 109.473 8.072 109.089 7.72C108.705 7.368 108.193 7.192 107.553 7.192C106.961 7.192 106.457 7.36 106.041 7.696C105.641 8.016 105.321 8.488 105.081 9.112C104.857 9.736 104.713 10.512 104.649 11.44L110.169 11.44ZM114.469 19V17.992H114.781C115.149 17.992 115.469 17.952 115.741 17.872C116.013 17.792 116.229 17.632 116.389 17.392C116.549 17.136 116.629 16.76 116.629 16.264V8.776C116.629 8.296 116.549 7.944 116.389 7.72C116.229 7.48 116.005 7.328 115.717 7.264C115.445 7.184 115.133 7.144 114.781 7.144H114.709V6.136H118.477L118.789 8.08H118.909C119.229 7.472 119.573 7.016 119.941 6.712C120.309 6.392 120.709 6.176 121.141 6.064C121.573 5.952 122.037 5.896 122.533 5.896C123.045 5.896 123.525 5.968 123.973 6.112C124.437 6.256 124.845 6.488 125.197 6.808C125.549 7.112 125.821 7.536 126.013 8.08H126.205C126.525 7.472 126.877 7.016 127.261 6.712C127.661 6.392 128.085 6.176 128.533 6.064C128.997 5.952 129.477 5.896 129.973 5.896C131.205 5.896 132.165 6.272 132.853 7.024C133.541 7.76 133.885 8.952 133.885 10.6V16.264C133.885 16.76 133.965 17.136 134.125 17.392C134.285 17.632 134.501 17.792 134.773 17.872C135.061 17.952 135.381 17.992 135.733 17.992H135.805V19H131.629V10.72C131.629 9.68 131.437 8.872 131.053 8.296C130.685 7.72 130.037 7.432 129.109 7.432C128.453 7.432 127.925 7.6 127.525 7.936C127.141 8.256 126.861 8.688 126.685 9.232C126.525 9.776 126.445 10.368 126.445 11.008V16.264C126.445 16.76 126.525 17.136 126.685 17.392C126.845 17.632 127.061 17.792 127.333 17.872C127.621 17.952 127.941 17.992 128.293 17.992H128.365V19L124.189 19V10.72C124.189 9.68 123.997 8.872 123.613 8.296C123.245 7.72 122.597 7.432 121.669 7.432C120.981 7.432 120.429 7.616 120.013 7.984C119.613 8.336 119.325 8.808 119.149 9.4C118.973 9.992 118.885 10.632 118.885 11.32V16.384C118.885 16.848 118.973 17.2 119.149 17.44C119.341 17.664 119.581 17.816 119.869 17.896C120.173 17.96 120.501 17.992 120.853 17.992H120.925V19H114.469ZM145.004 19.24C144.076 19.24 143.316 19.048 142.724 18.664C142.148 18.264 141.684 17.752 141.332 17.128H141.188L140.756 19H136.916V17.992H137.108C137.476 17.992 137.804 17.952 138.092 17.872C138.396 17.792 138.636 17.632 138.812 17.392C138.988 17.136 139.076 16.76 139.076 16.264V3.4C139.076 2.92 138.98 2.568 138.788 2.344C138.612 2.104 138.372 1.952 138.068 1.888C137.78 1.808 137.46 1.768 137.108 1.768L136.916 1.768V0.759999L141.332 0.759999V5.176C141.332 5.448 141.324 5.8 141.308 6.232C141.308 6.648 141.3 7.056 141.284 7.456C141.268 7.84 141.252 8.12 141.236 8.296H141.332C141.7 7.56 142.172 6.976 142.748 6.544C143.324 6.112 144.076 5.896 145.004 5.896C146.588 5.896 147.796 6.432 148.628 7.504C149.476 8.56 149.9 10.24 149.9 12.544C149.9 14.08 149.708 15.344 149.324 16.336C148.956 17.328 148.404 18.064 147.668 18.544C146.948 19.008 146.06 19.24 145.004 19.24ZM144.62 17.704C145.324 17.704 145.892 17.504 146.324 17.104C146.756 16.704 147.068 16.12 147.26 15.352C147.468 14.584 147.572 13.64 147.572 12.52C147.572 11.384 147.468 10.44 147.26 9.688C147.068 8.936 146.756 8.376 146.324 8.008C145.892 7.624 145.316 7.432 144.596 7.432C143.348 7.432 142.492 7.856 142.028 8.704C141.564 9.536 141.332 10.816 141.332 12.544C141.332 13.648 141.428 14.584 141.62 15.352C141.828 16.12 142.172 16.704 142.652 17.104C143.132 17.504 143.788 17.704 144.62 17.704ZM158.115 19.24C156.371 19.24 155.003 18.664 154.011 17.512C153.035 16.36 152.547 14.744 152.547 12.664C152.547 10.424 153.011 8.736 153.939 7.6C154.867 6.464 156.179 5.896 157.875 5.896C159.427 5.896 160.643 6.376 161.523 7.336C162.419 8.296 162.867 9.728 162.867 11.632V12.736L154.875 12.736C154.907 13.904 155.059 14.856 155.331 15.592C155.603 16.328 155.995 16.872 156.507 17.224C157.035 17.56 157.683 17.728 158.451 17.728C159.011 17.728 159.507 17.648 159.939 17.488C160.387 17.328 160.771 17.12 161.091 16.864C161.427 16.608 161.691 16.336 161.883 16.048C161.995 16.096 162.099 16.192 162.195 16.336C162.291 16.48 162.339 16.656 162.339 16.864C162.339 17.184 162.187 17.528 161.883 17.896C161.579 18.264 161.115 18.584 160.491 18.856C159.867 19.112 159.075 19.24 158.115 19.24ZM160.443 11.44C160.443 10.592 160.355 9.848 160.179 9.208C160.019 8.568 159.747 8.072 159.363 7.72C158.979 7.368 158.467 7.192 157.827 7.192C157.235 7.192 156.731 7.36 156.315 7.696C155.915 8.016 155.595 8.488 155.355 9.112C155.131 9.736 154.987 10.512 154.923 11.44H160.443ZM164.862 19V17.992H164.934C165.302 17.992 165.63 17.952 165.918 17.872C166.222 17.792 166.462 17.632 166.638 17.392C166.814 17.136 166.902 16.76 166.902 16.264V8.776C166.902 8.296 166.806 7.944 166.614 7.72C166.438 7.48 166.198 7.328 165.894 7.264C165.606 7.184 165.286 7.144 164.934 7.144H164.862V6.136H168.558L169.014 8.512H169.134C169.342 8.032 169.566 7.592 169.806 7.192C170.046 6.792 170.366 6.48 170.766 6.256C171.166 6.016 171.718 5.896 172.422 5.896C173.302 5.896 173.95 6.048 174.366 6.352C174.798 6.656 175.014 7.088 175.014 7.648C175.014 8.144 174.838 8.552 174.486 8.872C174.15 9.192 173.582 9.352 172.782 9.352C172.782 8.904 172.742 8.544 172.662 8.272C172.582 8 172.446 7.8 172.254 7.672C172.078 7.544 171.83 7.48 171.51 7.48C171.062 7.48 170.686 7.656 170.382 8.008C170.078 8.36 169.838 8.808 169.662 9.352C169.486 9.896 169.358 10.464 169.278 11.056C169.198 11.632 169.158 12.152 169.158 12.616V16.384C169.158 16.848 169.246 17.2 169.422 17.44C169.614 17.664 169.854 17.816 170.142 17.896C170.446 17.96 170.774 17.992 171.126 17.992H171.798V19H164.862Z" fill="white"/>
</svg>
