<svg width="52" height="19" viewBox="0 0 52 19" fill="none" xmlns="http://www.w3.org/2000/svg">
<path d="M0.670237 18.051L0.670237 15.843L4.39024 11.835C5.09424 11.099 5.67824 10.427 6.14224 9.81902C6.60624 9.21102 6.96624 8.64302 7.22224 8.11502C7.49424 7.57102 7.68624 7.03502 7.79824 6.50702C7.92624 5.97903 7.99024 5.41903 7.99024 4.82703C7.99024 4.21902 7.90224 3.70702 7.72624 3.29103C7.56624 2.87502 7.33424 2.56302 7.03024 2.35502C6.72624 2.14702 6.34224 2.04302 5.87824 2.04302C5.27024 2.04302 4.79024 2.20302 4.43824 2.52303C4.10224 2.84302 3.86224 3.29902 3.71824 3.89102C3.59024 4.46702 3.52624 5.16302 3.52624 5.97902C2.99824 5.97902 2.52624 5.91502 2.11024 5.78702C1.71024 5.64302 1.39824 5.41902 1.17424 5.11502C0.950237 4.81102 0.838237 4.41102 0.838237 3.91502C0.838237 3.30702 1.02224 2.76302 1.39024 2.28303C1.77424 1.78702 2.34224 1.39502 3.09424 1.10702C3.84624 0.819025 4.77424 0.675025 5.87824 0.675025C7.01424 0.675025 7.97424 0.835024 8.75824 1.15502C9.54224 1.47502 10.1342 1.93902 10.5342 2.54702C10.9502 3.13902 11.1582 3.84302 11.1582 4.65902C11.1582 5.10702 11.0942 5.54702 10.9662 5.97902C10.8382 6.41103 10.6462 6.85103 10.3902 7.29903C10.1342 7.74703 9.79824 8.23502 9.38224 8.76302C8.96624 9.27502 8.45424 9.84302 7.84624 10.467C7.25424 11.091 6.56624 11.787 5.78224 12.555L2.75824 15.675H8.32624C8.90224 15.675 9.34224 15.523 9.64624 15.219C9.96624 14.899 10.1982 14.483 10.3422 13.971L10.4862 13.347H11.7582L11.6382 18.051H0.670237ZM19.7165 18.291C18.3085 18.291 17.1805 17.923 16.3325 17.187C15.4845 16.451 14.8685 15.419 14.4845 14.091C14.1005 12.763 13.9085 11.211 13.9085 9.43502C13.9085 7.65902 14.1005 6.11502 14.4845 4.80302C14.8685 3.49102 15.4845 2.47503 16.3325 1.75502C17.1805 1.03502 18.3165 0.675025 19.7405 0.675025C21.0845 0.675025 22.1725 1.03502 23.0045 1.75502C23.8525 2.47503 24.4765 3.49903 24.8765 4.82703C25.2925 6.13903 25.5005 7.68303 25.5005 9.45903C25.5005 11.235 25.2925 12.787 24.8765 14.115C24.4765 15.427 23.8525 16.451 23.0045 17.187C22.1565 17.923 21.0605 18.291 19.7165 18.291ZM19.7165 16.827C20.2125 16.827 20.6205 16.667 20.9405 16.347C21.2765 16.011 21.5325 15.531 21.7085 14.907C21.9005 14.267 22.0365 13.491 22.1165 12.579C22.1965 11.667 22.2365 10.627 22.2365 9.45903C22.2365 8.29102 22.1965 7.25902 22.1165 6.36302C22.0525 5.45102 21.9245 4.68302 21.7325 4.05903C21.5405 3.43502 21.2765 2.96302 20.9405 2.64302C20.6205 2.30702 20.2205 2.13902 19.7405 2.13902C19.2445 2.13902 18.8285 2.30702 18.4925 2.64302C18.1565 2.96302 17.8925 3.43502 17.7005 4.05903C17.5085 4.68302 17.3725 5.45102 17.2925 6.36302C17.2125 7.25902 17.1725 8.29102 17.1725 9.45903C17.1725 10.627 17.2125 11.667 17.2925 12.579C17.3725 13.491 17.5085 14.267 17.7005 14.907C17.8925 15.531 18.1485 16.011 18.4685 16.347C18.8045 16.667 19.2205 16.827 19.7165 16.827ZM28.7307 18.051L28.7307 16.875H30.5547C30.8587 16.875 31.1227 16.835 31.3467 16.755C31.5707 16.659 31.7387 16.499 31.8507 16.275C31.9787 16.035 32.0427 15.699 32.0427 15.267L32.0427 3.00302C31.6427 3.49902 31.2667 3.93902 30.9147 4.32302C30.5627 4.69102 30.2267 4.97902 29.9067 5.18703C29.5867 5.39503 29.2667 5.49903 28.9467 5.49903C28.5787 5.49903 28.2667 5.35503 28.0107 5.06703C27.7547 4.77903 27.6267 4.39502 27.6267 3.91502C27.9467 3.83502 28.2827 3.73102 28.6347 3.60302C29.0027 3.45902 29.3947 3.26702 29.8107 3.02702C30.2427 2.77102 30.7227 2.45103 31.2507 2.06703L32.9307 0.819024H35.1867L35.1867 15.267C35.1867 15.651 35.2347 15.963 35.3307 16.203C35.4427 16.443 35.6107 16.619 35.8347 16.731C36.0587 16.827 36.3467 16.875 36.6987 16.875H38.3307V18.051H28.7307ZM45.257 18.291C44.329 18.291 43.585 18.171 43.025 17.931C42.481 17.691 42.089 17.387 41.849 17.019C41.609 16.635 41.489 16.243 41.489 15.843C41.489 15.507 41.577 15.227 41.753 15.003C41.929 14.779 42.177 14.627 42.497 14.547C42.657 14.979 42.857 15.371 43.097 15.723C43.337 16.059 43.641 16.331 44.009 16.539C44.377 16.747 44.817 16.851 45.329 16.851C46.113 16.851 46.761 16.595 47.273 16.083C47.785 15.555 48.177 14.771 48.449 13.731C48.737 12.691 48.905 11.387 48.953 9.81902C48.729 10.107 48.449 10.379 48.113 10.635C47.777 10.891 47.393 11.091 46.961 11.235C46.545 11.379 46.057 11.451 45.497 11.451C44.585 11.451 43.769 11.267 43.049 10.899C42.345 10.531 41.793 9.97903 41.393 9.24303C40.993 8.50703 40.793 7.60302 40.793 6.53102C40.793 5.37902 41.009 4.36302 41.441 3.48302C41.873 2.60302 42.489 1.91502 43.289 1.41902C44.089 0.923025 45.041 0.675025 46.145 0.675025C47.281 0.675025 48.289 0.955025 49.169 1.51503C50.049 2.07502 50.737 2.94702 51.233 4.13102C51.745 5.31502 52.001 6.85102 52.001 8.73903C52.001 10.035 51.873 11.259 51.617 12.411C51.377 13.563 50.985 14.579 50.441 15.459C49.897 16.339 49.193 17.035 48.329 17.547C47.481 18.043 46.457 18.291 45.257 18.291ZM46.337 9.84303C46.769 9.84303 47.153 9.77103 47.489 9.62703C47.841 9.46702 48.137 9.25902 48.377 9.00303C48.633 8.73102 48.833 8.43502 48.977 8.11502C48.961 7.05902 48.881 6.16302 48.737 5.42702C48.609 4.67502 48.425 4.05902 48.185 3.57902C47.945 3.09902 47.657 2.74703 47.321 2.52303C47.001 2.28302 46.641 2.16302 46.241 2.16302C45.745 2.16302 45.321 2.32302 44.969 2.64302C44.617 2.96302 44.345 3.43502 44.153 4.05903C43.977 4.66703 43.889 5.42702 43.889 6.33902C43.889 7.12302 43.977 7.77903 44.153 8.30702C44.345 8.81903 44.625 9.20303 44.993 9.45903C45.361 9.71503 45.809 9.84303 46.337 9.84303Z" fill="#F1AE12"/>
</svg>
