<svg width="182" height="65" viewBox="0 0 182 65" fill="none" xmlns="http://www.w3.org/2000/svg">
<path d="M3.13588 19V17.248L7.14388 12.616C7.78388 11.88 8.31988 11.216 8.75188 10.624C9.18388 10.032 9.52788 9.48 9.78388 8.968C10.0559 8.456 10.2479 7.952 10.3599 7.456C10.4879 6.944 10.5519 6.416 10.5519 5.872C10.5519 5.264 10.4639 4.736 10.2879 4.288C10.1119 3.824 9.83988 3.464 9.47188 3.208C9.11988 2.952 8.66388 2.824 8.10388 2.824C7.38388 2.824 6.83188 2.992 6.44788 3.328C6.06388 3.664 5.79988 4.104 5.65588 4.648C5.52788 5.176 5.46388 5.76 5.46388 6.4C5.07988 6.4 4.72788 6.36 4.40788 6.28C4.10388 6.184 3.85588 6.024 3.66388 5.8C3.48788 5.56 3.39988 5.24 3.39988 4.84C3.39988 4.216 3.57588 3.664 3.92788 3.184C4.27988 2.704 4.80788 2.328 5.51188 2.056C6.21588 1.768 7.07988 1.624 8.10388 1.624C9.11188 1.624 9.97588 1.792 10.6959 2.128C11.4319 2.448 11.9919 2.912 12.3759 3.52C12.7759 4.112 12.9759 4.816 12.9759 5.632C12.9759 6.08 12.9119 6.52 12.7839 6.952C12.6719 7.384 12.5039 7.816 12.2799 8.248C12.0559 8.68 11.7839 9.128 11.4639 9.592C11.1439 10.04 10.7759 10.512 10.3599 11.008C9.94388 11.504 9.47988 12.032 8.96788 12.592L4.91188 17.08H10.4559C11.1759 17.08 11.6639 16.896 11.9199 16.528C12.1759 16.16 12.3599 15.744 12.4719 15.28L12.5679 14.848H13.5759L13.4559 19H3.13588ZM21.7981 19.24C20.4861 19.24 19.4141 18.872 18.5821 18.136C17.7501 17.4 17.1341 16.368 16.7341 15.04C16.3501 13.712 16.1581 12.16 16.1581 10.384C16.1581 8.608 16.3501 7.064 16.7341 5.752C17.1341 4.44 17.7501 3.424 18.5821 2.704C19.4141 1.984 20.4941 1.624 21.8221 1.624C23.0701 1.624 24.1101 1.984 24.9421 2.704C25.7741 3.424 26.3901 4.448 26.7901 5.776C27.2061 7.088 27.4141 8.632 27.4141 10.408C27.4141 12.184 27.2061 13.736 26.7901 15.064C26.3741 16.376 25.7501 17.4 24.9181 18.136C24.1021 18.872 23.0621 19.24 21.7981 19.24ZM21.7981 17.944C22.3741 17.944 22.8621 17.776 23.2621 17.44C23.6621 17.104 23.9821 16.616 24.2221 15.976C24.4621 15.32 24.6381 14.528 24.7501 13.6C24.8621 12.656 24.9181 11.592 24.9181 10.408C24.9181 9.224 24.8621 8.168 24.7501 7.24C24.6541 6.312 24.4781 5.528 24.2221 4.888C23.9821 4.248 23.6621 3.76 23.2621 3.424C22.8781 3.088 22.3981 2.92 21.8221 2.92C21.2301 2.92 20.7341 3.088 20.3341 3.424C19.9341 3.76 19.6061 4.248 19.3501 4.888C19.1101 5.528 18.9341 6.312 18.8221 7.24C18.7101 8.168 18.6541 9.224 18.6541 10.408C18.6541 11.592 18.7101 12.656 18.8221 13.6C18.9341 14.528 19.1101 15.32 19.3501 15.976C19.5901 16.616 19.9101 17.104 20.3101 17.44C20.7261 17.776 21.2221 17.944 21.7981 17.944ZM30.7884 19V17.992H32.3964C32.7644 17.992 33.0924 17.952 33.3804 17.872C33.6844 17.792 33.9244 17.632 34.1004 17.392C34.2764 17.136 34.3644 16.76 34.3644 16.264V3.664C33.9644 4.16 33.5884 4.6 33.2364 4.984C32.8844 5.352 32.5484 5.64 32.2284 5.848C31.9084 6.056 31.5884 6.16 31.2684 6.16C30.9164 6.16 30.6284 6.04 30.4044 5.8C30.1804 5.56 30.0684 5.248 30.0684 4.864C30.3884 4.784 30.7164 4.68 31.0524 4.552C31.3884 4.408 31.7564 4.216 32.1564 3.976C32.5724 3.72 33.0444 3.4 33.5724 3.016L35.2524 1.768H36.7884V16.264C36.7884 16.76 36.8764 17.136 37.0524 17.392C37.2284 17.632 37.4684 17.792 37.7724 17.872C38.0764 17.952 38.4044 17.992 38.7564 17.992H39.9324V19L30.7884 19ZM47.3386 19.264C46.4426 19.264 45.7386 19.16 45.2266 18.952C44.7146 18.744 44.3546 18.488 44.1466 18.184C43.9546 17.864 43.8586 17.536 43.8586 17.2C43.8586 16.896 43.9306 16.648 44.0746 16.456C44.2346 16.248 44.4026 16.112 44.5786 16.048C44.7226 16.384 44.9146 16.696 45.1546 16.984C45.3946 17.272 45.6986 17.504 46.0666 17.68C46.4346 17.856 46.8666 17.944 47.3626 17.944C48.2586 17.944 48.9866 17.68 49.5466 17.152C50.1226 16.624 50.5546 15.832 50.8426 14.776C51.1466 13.704 51.3226 12.368 51.3706 10.768C51.1466 11.04 50.8666 11.304 50.5306 11.56C50.1946 11.816 49.8026 12.024 49.3546 12.184C48.9066 12.328 48.4026 12.4 47.8426 12.4C46.9146 12.4 46.0906 12.224 45.3706 11.872C44.6666 11.504 44.1146 10.96 43.7146 10.24C43.3146 9.504 43.1146 8.6 43.1146 7.528C43.1146 6.376 43.3146 5.36 43.7146 4.48C44.1306 3.584 44.7226 2.888 45.4906 2.392C46.2586 1.88 47.1786 1.624 48.2506 1.624C49.3386 1.624 50.2986 1.904 51.1306 2.464C51.9786 3.024 52.6426 3.896 53.1226 5.08C53.6026 6.264 53.8426 7.8 53.8426 9.688C53.8426 10.952 53.7226 12.16 53.4826 13.312C53.2426 14.448 52.8586 15.464 52.3306 16.36C51.8186 17.256 51.1466 17.968 50.3146 18.496C49.4986 19.008 48.5066 19.264 47.3386 19.264ZM48.3706 10.984C48.8986 10.984 49.3626 10.896 49.7626 10.72C50.1626 10.528 50.4986 10.288 50.7706 10C51.0426 9.696 51.2506 9.376 51.3946 9.04C51.3786 7.968 51.2906 7.048 51.1306 6.28C50.9706 5.512 50.7546 4.88 50.4826 4.384C50.2106 3.888 49.8826 3.528 49.4986 3.304C49.1306 3.064 48.7146 2.944 48.2506 2.944C47.6906 2.944 47.2106 3.112 46.8106 3.448C46.4106 3.784 46.1066 4.272 45.8986 4.912C45.6906 5.552 45.5866 6.344 45.5866 7.288C45.5866 8.168 45.6906 8.88 45.8986 9.424C46.1066 9.968 46.4186 10.368 46.8346 10.624C47.2506 10.864 47.7626 10.984 48.3706 10.984ZM62.4433 19V17.992H62.7553C63.1233 17.992 63.4513 17.952 63.7393 17.872C64.0433 17.792 64.2833 17.632 64.4593 17.392C64.6353 17.136 64.7233 16.76 64.7233 16.264V4.504C64.7233 4.024 64.6273 3.672 64.4353 3.448C64.2593 3.208 64.0193 3.056 63.7153 2.992C63.4273 2.912 63.1073 2.872 62.7553 2.872H62.4433V1.864L66.8353 1.864L75.4273 15.136V4.504C75.4273 4.024 75.3313 3.672 75.1393 3.448C74.9633 3.208 74.7233 3.056 74.4193 2.992C74.1313 2.912 73.8113 2.872 73.4593 2.872H73.1473V1.864L79.1713 1.864V2.872H78.8593C78.5073 2.872 78.1793 2.912 77.8753 2.992C77.5713 3.072 77.3313 3.232 77.1553 3.472C76.9793 3.712 76.8913 4.088 76.8913 4.6V19H75.1873L66.1873 5.176V16.264C66.1873 16.76 66.2753 17.136 66.4513 17.392C66.6273 17.632 66.8673 17.792 67.1713 17.872C67.4753 17.952 67.8033 17.992 68.1553 17.992H68.4673V19H62.4433ZM86.7239 19.24C84.9959 19.24 83.6359 18.688 82.6439 17.584C81.6519 16.48 81.1559 14.8 81.1559 12.544C81.1559 10.304 81.6279 8.64 82.5719 7.552C83.5319 6.448 84.9399 5.896 86.7959 5.896C88.5239 5.896 89.8839 6.448 90.8759 7.552C91.8679 8.64 92.3639 10.304 92.3639 12.544C92.3639 14.8 91.8839 16.48 90.9239 17.584C89.9799 18.688 88.5799 19.24 86.7239 19.24ZM86.7719 17.992C87.5719 17.992 88.2119 17.792 88.6919 17.392C89.1719 16.976 89.5159 16.36 89.7239 15.544C89.9319 14.728 90.0359 13.728 90.0359 12.544C90.0359 11.344 89.9239 10.352 89.6999 9.568C89.4919 8.768 89.1479 8.168 88.6679 7.768C88.1879 7.368 87.5479 7.168 86.7479 7.168C85.9479 7.168 85.3079 7.368 84.8279 7.768C84.3479 8.168 84.0039 8.768 83.7959 9.568C83.5879 10.352 83.4839 11.344 83.4839 12.544C83.4839 13.728 83.5879 14.728 83.7959 15.544C84.0199 16.36 84.3719 16.976 84.8519 17.392C85.3319 17.792 85.9719 17.992 86.7719 17.992ZM95.5595 8.416C95.4475 8.08 95.3115 7.824 95.1515 7.648C95.0075 7.456 94.8235 7.328 94.5995 7.264C94.3915 7.184 94.1195 7.144 93.7835 7.144V6.136H99.7835V7.144H99.4715C98.9915 7.144 98.6315 7.24 98.3915 7.432C98.1515 7.608 98.0315 7.896 98.0315 8.296C98.0315 8.424 98.0475 8.56 98.0795 8.704C98.1115 8.848 98.1595 9.008 98.2235 9.184L99.8555 13.72C99.9995 14.104 100.144 14.528 100.288 14.992C100.432 15.44 100.56 15.872 100.672 16.288C100.8 16.688 100.904 17.032 100.984 17.32C101.048 17.096 101.144 16.8 101.272 16.432C101.4 16.064 101.544 15.672 101.704 15.256C101.88 14.824 102.04 14.416 102.184 14.032L103.912 9.352C103.992 9.16 104.048 8.976 104.08 8.8C104.112 8.608 104.128 8.448 104.128 8.32C104.128 7.904 103.992 7.608 103.72 7.432C103.464 7.24 103.072 7.144 102.544 7.144H102.376V6.136L107.512 6.136V7.144H107.224C106.92 7.144 106.664 7.192 106.456 7.288C106.264 7.384 106.088 7.568 105.928 7.84C105.768 8.112 105.592 8.504 105.4 9.016L101.608 19H99.4235L95.5595 8.416ZM114.474 19.24C112.73 19.24 111.362 18.664 110.37 17.512C109.394 16.36 108.906 14.744 108.906 12.664C108.906 10.424 109.37 8.736 110.298 7.6C111.226 6.464 112.538 5.896 114.234 5.896C115.786 5.896 117.002 6.376 117.882 7.336C118.778 8.296 119.226 9.728 119.226 11.632V12.736H111.234C111.266 13.904 111.418 14.856 111.69 15.592C111.962 16.328 112.354 16.872 112.866 17.224C113.394 17.56 114.042 17.728 114.81 17.728C115.37 17.728 115.866 17.648 116.298 17.488C116.746 17.328 117.13 17.12 117.45 16.864C117.786 16.608 118.05 16.336 118.242 16.048C118.354 16.096 118.458 16.192 118.554 16.336C118.65 16.48 118.698 16.656 118.698 16.864C118.698 17.184 118.546 17.528 118.242 17.896C117.938 18.264 117.474 18.584 116.85 18.856C116.226 19.112 115.434 19.24 114.474 19.24ZM116.802 11.44C116.802 10.592 116.714 9.848 116.538 9.208C116.378 8.568 116.106 8.072 115.722 7.72C115.338 7.368 114.826 7.192 114.186 7.192C113.594 7.192 113.09 7.36 112.674 7.696C112.274 8.016 111.954 8.488 111.714 9.112C111.49 9.736 111.346 10.512 111.282 11.44H116.802ZM121.102 19V17.992H121.414C121.782 17.992 122.102 17.952 122.374 17.872C122.646 17.792 122.862 17.632 123.022 17.392C123.182 17.136 123.262 16.76 123.262 16.264V8.776C123.262 8.296 123.182 7.944 123.022 7.72C122.862 7.48 122.638 7.328 122.35 7.264C122.078 7.184 121.766 7.144 121.414 7.144H121.342V6.136H125.11L125.422 8.08H125.542C125.862 7.472 126.206 7.016 126.574 6.712C126.942 6.392 127.342 6.176 127.774 6.064C128.206 5.952 128.67 5.896 129.166 5.896C129.678 5.896 130.158 5.968 130.606 6.112C131.07 6.256 131.478 6.488 131.83 6.808C132.182 7.112 132.454 7.536 132.646 8.08H132.838C133.158 7.472 133.51 7.016 133.894 6.712C134.294 6.392 134.718 6.176 135.166 6.064C135.63 5.952 136.11 5.896 136.606 5.896C137.838 5.896 138.798 6.272 139.486 7.024C140.174 7.76 140.518 8.952 140.518 10.6V16.264C140.518 16.76 140.598 17.136 140.758 17.392C140.918 17.632 141.134 17.792 141.406 17.872C141.694 17.952 142.014 17.992 142.366 17.992H142.438V19H138.262V10.72C138.262 9.68 138.07 8.872 137.686 8.296C137.318 7.72 136.67 7.432 135.742 7.432C135.086 7.432 134.558 7.6 134.158 7.936C133.774 8.256 133.494 8.688 133.318 9.232C133.158 9.776 133.078 10.368 133.078 11.008V16.264C133.078 16.76 133.158 17.136 133.318 17.392C133.478 17.632 133.694 17.792 133.966 17.872C134.254 17.952 134.574 17.992 134.926 17.992H134.998V19H130.822V10.72C130.822 9.68 130.63 8.872 130.246 8.296C129.878 7.72 129.23 7.432 128.302 7.432C127.614 7.432 127.062 7.616 126.646 7.984C126.246 8.336 125.958 8.808 125.782 9.4C125.606 9.992 125.518 10.632 125.518 11.32V16.384C125.518 16.848 125.606 17.2 125.782 17.44C125.974 17.664 126.214 17.816 126.502 17.896C126.806 17.96 127.134 17.992 127.486 17.992H127.558V19H121.102ZM151.637 19.24C150.709 19.24 149.949 19.048 149.357 18.664C148.781 18.264 148.317 17.752 147.965 17.128H147.821L147.389 19H143.549V17.992H143.741C144.109 17.992 144.437 17.952 144.725 17.872C145.029 17.792 145.269 17.632 145.445 17.392C145.621 17.136 145.709 16.76 145.709 16.264V3.4C145.709 2.92 145.613 2.568 145.421 2.344C145.245 2.104 145.005 1.952 144.701 1.888C144.413 1.808 144.093 1.768 143.741 1.768H143.549V0.759999H147.965V5.176C147.965 5.448 147.957 5.8 147.941 6.232C147.941 6.648 147.933 7.056 147.917 7.456C147.901 7.84 147.885 8.12 147.869 8.296H147.965C148.333 7.56 148.805 6.976 149.381 6.544C149.957 6.112 150.709 5.896 151.637 5.896C153.221 5.896 154.429 6.432 155.261 7.504C156.109 8.56 156.533 10.24 156.533 12.544C156.533 14.08 156.341 15.344 155.957 16.336C155.589 17.328 155.037 18.064 154.301 18.544C153.581 19.008 152.693 19.24 151.637 19.24ZM151.253 17.704C151.957 17.704 152.525 17.504 152.957 17.104C153.389 16.704 153.701 16.12 153.893 15.352C154.101 14.584 154.205 13.64 154.205 12.52C154.205 11.384 154.101 10.44 153.893 9.688C153.701 8.936 153.389 8.376 152.957 8.008C152.525 7.624 151.949 7.432 151.229 7.432C149.981 7.432 149.125 7.856 148.661 8.704C148.197 9.536 147.965 10.816 147.965 12.544C147.965 13.648 148.061 14.584 148.253 15.352C148.461 16.12 148.805 16.704 149.285 17.104C149.765 17.504 150.421 17.704 151.253 17.704ZM164.747 19.24C163.003 19.24 161.635 18.664 160.643 17.512C159.667 16.36 159.179 14.744 159.179 12.664C159.179 10.424 159.643 8.736 160.571 7.6C161.499 6.464 162.811 5.896 164.507 5.896C166.059 5.896 167.275 6.376 168.155 7.336C169.051 8.296 169.499 9.728 169.499 11.632V12.736H161.507C161.539 13.904 161.691 14.856 161.963 15.592C162.235 16.328 162.627 16.872 163.139 17.224C163.667 17.56 164.315 17.728 165.083 17.728C165.643 17.728 166.139 17.648 166.571 17.488C167.019 17.328 167.403 17.12 167.723 16.864C168.059 16.608 168.323 16.336 168.515 16.048C168.627 16.096 168.731 16.192 168.827 16.336C168.923 16.48 168.971 16.656 168.971 16.864C168.971 17.184 168.819 17.528 168.515 17.896C168.211 18.264 167.747 18.584 167.123 18.856C166.499 19.112 165.707 19.24 164.747 19.24ZM167.075 11.44C167.075 10.592 166.987 9.848 166.811 9.208C166.651 8.568 166.379 8.072 165.995 7.72C165.611 7.368 165.099 7.192 164.459 7.192C163.867 7.192 163.363 7.36 162.947 7.696C162.547 8.016 162.227 8.488 161.987 9.112C161.763 9.736 161.619 10.512 161.555 11.44H167.075ZM171.495 19V17.992H171.567C171.935 17.992 172.263 17.952 172.551 17.872C172.855 17.792 173.095 17.632 173.271 17.392C173.447 17.136 173.535 16.76 173.535 16.264V8.776C173.535 8.296 173.439 7.944 173.247 7.72C173.071 7.48 172.831 7.328 172.527 7.264C172.239 7.184 171.919 7.144 171.567 7.144H171.495V6.136H175.191L175.647 8.512H175.767C175.975 8.032 176.199 7.592 176.439 7.192C176.679 6.792 176.999 6.48 177.399 6.256C177.799 6.016 178.351 5.896 179.055 5.896C179.935 5.896 180.583 6.048 180.999 6.352C181.431 6.656 181.647 7.088 181.647 7.648C181.647 8.144 181.471 8.552 181.119 8.872C180.783 9.192 180.215 9.352 179.415 9.352C179.415 8.904 179.375 8.544 179.295 8.272C179.215 8 179.079 7.8 178.887 7.672C178.711 7.544 178.463 7.48 178.143 7.48C177.695 7.48 177.319 7.656 177.015 8.008C176.711 8.36 176.471 8.808 176.295 9.352C176.119 9.896 175.991 10.464 175.911 11.056C175.831 11.632 175.791 12.152 175.791 12.616V16.384C175.791 16.848 175.879 17.2 176.055 17.44C176.247 17.664 176.487 17.816 176.775 17.896C177.079 17.96 177.407 17.992 177.759 17.992H178.431V19H171.495Z" fill="white"/>
<path d="M8.855 45.416C8.311 45.416 7.823 45.536 7.391 45.776C6.959 46 6.591 46.336 6.287 46.784C5.983 47.216 5.751 47.744 5.591 48.368C5.431 48.992 5.351 49.704 5.351 50.504C5.351 51.576 5.487 52.48 5.759 53.216C6.031 53.952 6.447 54.512 7.007 54.896C7.567 55.264 8.271 55.448 9.119 55.448C9.871 55.448 10.599 55.344 11.303 55.136C12.023 54.928 12.743 54.672 13.463 54.368V58.28C12.711 58.616 11.935 58.856 11.135 59C10.351 59.16 9.511 59.24 8.615 59.24C6.759 59.24 5.239 58.872 4.055 58.136C2.871 57.4 1.999 56.376 1.439 55.064C0.879 53.736 0.599 52.208 0.599 50.48C0.599 49.184 0.775 48 1.127 46.928C1.495 45.84 2.031 44.904 2.735 44.12C3.439 43.32 4.303 42.704 5.327 42.272C6.367 41.84 7.559 41.624 8.903 41.624C9.735 41.624 10.607 41.72 11.519 41.912C12.431 42.104 13.327 42.408 14.207 42.824L12.791 46.472C12.167 46.168 11.535 45.92 10.895 45.728C10.255 45.52 9.575 45.416 8.855 45.416ZM14.9369 45.728H19.7609L22.0169 53.336C22.0489 53.448 22.0809 53.584 22.1129 53.744C22.1449 53.904 22.1689 54.072 22.1849 54.248C22.2169 54.424 22.2329 54.6 22.2329 54.776H22.3289C22.3609 54.456 22.4009 54.184 22.4489 53.96C22.5129 53.72 22.5689 53.52 22.6169 53.36L24.9209 45.728L29.6009 45.728L24.3449 59.84C23.9449 60.912 23.4729 61.816 22.9289 62.552C22.4009 63.288 21.7449 63.84 20.9609 64.208C20.1769 64.576 19.2009 64.76 18.0329 64.76C17.6169 64.76 17.2569 64.736 16.9529 64.688C16.6489 64.656 16.3849 64.616 16.1609 64.568V60.968C16.3369 61 16.5449 61.032 16.7849 61.064C17.0409 61.096 17.3049 61.112 17.5769 61.112C18.0889 61.112 18.4969 61.008 18.8009 60.8C19.1209 60.592 19.3849 60.32 19.5929 59.984C19.8009 59.664 19.9769 59.312 20.1209 58.928L20.1689 58.808L14.9369 45.728ZM37.2414 59.24C35.8974 59.24 34.7294 59 33.7374 58.52C32.7454 58.04 31.9774 57.296 31.4334 56.288C30.8894 55.28 30.6174 53.992 30.6174 52.424C30.6174 50.808 30.9214 49.496 31.5294 48.488C32.1374 47.464 32.9614 46.712 34.0014 46.232C35.0574 45.736 36.2574 45.488 37.6014 45.488C38.4174 45.488 39.1854 45.576 39.9054 45.752C40.6414 45.928 41.3214 46.176 41.9454 46.496L40.6014 49.88C40.0574 49.64 39.5454 49.448 39.0654 49.304C38.6014 49.16 38.1134 49.088 37.6014 49.088C37.1374 49.088 36.7294 49.208 36.3774 49.448C36.0254 49.688 35.7534 50.056 35.5614 50.552C35.3694 51.032 35.2734 51.648 35.2734 52.4C35.2734 53.168 35.3694 53.784 35.5614 54.248C35.7694 54.712 36.0494 55.056 36.4014 55.28C36.7534 55.488 37.1614 55.592 37.6254 55.592C38.2814 55.592 38.9374 55.488 39.5934 55.28C40.2654 55.072 40.8974 54.784 41.4894 54.416V58.064C40.9454 58.416 40.3294 58.704 39.6414 58.928C38.9534 59.136 38.1534 59.24 37.2414 59.24ZM48.7149 59H44.1309V40.76H48.7149V59ZM64.5607 52.328C64.5607 53.432 64.4087 54.416 64.1047 55.28C63.8007 56.144 63.3607 56.872 62.7847 57.464C62.2087 58.04 61.5127 58.48 60.6967 58.784C59.8807 59.088 58.9527 59.24 57.9127 59.24C56.9527 59.24 56.0647 59.088 55.2487 58.784C54.4487 58.48 53.7527 58.04 53.1607 57.464C52.5847 56.872 52.1287 56.144 51.7927 55.28C51.4727 54.416 51.3127 53.432 51.3127 52.328C51.3127 50.856 51.5767 49.616 52.1047 48.608C52.6487 47.584 53.4167 46.808 54.4087 46.28C55.4007 45.752 56.5927 45.488 57.9847 45.488C59.2647 45.488 60.3927 45.752 61.3687 46.28C62.3607 46.808 63.1367 47.584 63.6967 48.608C64.2727 49.616 64.5607 50.856 64.5607 52.328ZM55.9687 52.328C55.9687 53.08 56.0327 53.72 56.1607 54.248C56.2887 54.776 56.4967 55.176 56.7847 55.448C57.0887 55.704 57.4807 55.832 57.9607 55.832C58.4407 55.832 58.8167 55.704 59.0887 55.448C59.3767 55.176 59.5847 54.776 59.7127 54.248C59.8407 53.72 59.9047 53.08 59.9047 52.328C59.9047 51.576 59.8407 50.944 59.7127 50.432C59.5847 49.92 59.3767 49.536 59.0887 49.28C58.8007 49.024 58.4167 48.896 57.9367 48.896C57.2487 48.896 56.7447 49.184 56.4247 49.76C56.1207 50.336 55.9687 51.192 55.9687 52.328ZM75.4739 45.488C76.8499 45.488 77.9699 45.872 78.8339 46.64C79.6979 47.408 80.1299 48.648 80.1299 50.36V59H75.5459V51.752C75.5459 50.872 75.4179 50.208 75.1619 49.76C74.9059 49.312 74.4979 49.088 73.9379 49.088C73.0739 49.088 72.4899 49.44 72.1859 50.144C71.8979 50.848 71.7539 51.864 71.7539 53.192V59H67.1699V45.728H70.6259L71.2499 47.48H71.4179C71.7059 47.064 72.0419 46.712 72.4259 46.424C72.8259 46.12 73.2739 45.888 73.7699 45.728C74.2819 45.568 74.8499 45.488 75.4739 45.488ZM89.2241 45.488C90.5201 45.488 91.6321 45.712 92.5601 46.16C93.5041 46.608 94.2241 47.28 94.7201 48.176C95.2321 49.072 95.4881 50.2 95.4881 51.56V53.6L87.3041 53.6C87.3361 54.288 87.5921 54.856 88.0721 55.304C88.5681 55.752 89.2801 55.976 90.2081 55.976C91.0401 55.976 91.8001 55.896 92.4881 55.736C93.1761 55.576 93.8881 55.32 94.6241 54.968V58.256C93.9841 58.592 93.2801 58.84 92.5121 59C91.7601 59.16 90.8081 59.24 89.6561 59.24C88.3121 59.24 87.1121 59.008 86.0561 58.544C85.0161 58.064 84.1921 57.32 83.5841 56.312C82.9761 55.304 82.6721 54.016 82.6721 52.448C82.6721 50.848 82.9441 49.536 83.4881 48.512C84.0481 47.488 84.8161 46.728 85.7921 46.232C86.7841 45.736 87.9281 45.488 89.2241 45.488ZM89.3921 48.608C88.8481 48.608 88.3921 48.776 88.0241 49.112C87.6721 49.448 87.4641 49.984 87.4001 50.72H91.3361C91.3361 50.32 91.2561 49.968 91.0961 49.664C90.9521 49.344 90.7361 49.088 90.4481 48.896C90.1601 48.704 89.8081 48.608 89.3921 48.608ZM110.558 41.864C112.206 41.864 113.534 42.032 114.542 42.368C115.55 42.688 116.286 43.168 116.75 43.808C117.214 44.432 117.446 45.208 117.446 46.136C117.446 46.888 117.31 47.528 117.038 48.056C116.766 48.568 116.422 48.976 116.006 49.28C115.606 49.584 115.19 49.792 114.758 49.904V50.024C115.222 50.136 115.686 50.328 116.15 50.6C116.614 50.872 116.998 51.28 117.302 51.824C117.622 52.352 117.782 53.072 117.782 53.984C117.782 55.024 117.518 55.92 116.99 56.672C116.462 57.424 115.71 58 114.734 58.4C113.758 58.8 112.598 59 111.254 59H104.582V41.864H110.558ZM110.606 48.44C111.374 48.44 111.91 48.28 112.214 47.96C112.534 47.64 112.694 47.256 112.694 46.808C112.694 46.344 112.518 45.992 112.166 45.752C111.814 45.496 111.262 45.368 110.51 45.368H109.214V48.44H110.606ZM109.214 51.824V55.424H110.846C111.646 55.424 112.206 55.256 112.526 54.92C112.846 54.568 113.006 54.128 113.006 53.6C113.006 53.296 112.934 53.008 112.79 52.736C112.662 52.464 112.43 52.248 112.094 52.088C111.774 51.912 111.326 51.824 110.75 51.824H109.214ZM133.402 45.728V59H129.946L129.37 57.344H129.106C128.834 57.792 128.482 58.16 128.05 58.448C127.634 58.72 127.17 58.92 126.658 59.048C126.162 59.176 125.642 59.24 125.098 59.24C124.234 59.24 123.45 59.072 122.746 58.736C122.042 58.4 121.482 57.872 121.066 57.152C120.666 56.432 120.466 55.504 120.466 54.368V45.728H125.05V52.976C125.05 53.84 125.17 54.496 125.41 54.944C125.666 55.392 126.074 55.616 126.634 55.616C127.21 55.616 127.658 55.464 127.978 55.16C128.298 54.84 128.514 54.376 128.626 53.768C128.754 53.16 128.818 52.416 128.818 51.536V45.728L133.402 45.728ZM141.152 59H136.568V40.76H141.152V59ZM148.91 44.888C148.91 45.352 148.894 45.8 148.862 46.232C148.83 46.664 148.79 47.064 148.742 47.432H148.91C149.246 46.888 149.694 46.432 150.254 46.064C150.814 45.68 151.542 45.488 152.438 45.488C153.814 45.488 154.942 46.072 155.822 47.24C156.702 48.408 157.142 50.104 157.142 52.328C157.142 53.832 156.934 55.104 156.518 56.144C156.118 57.168 155.55 57.944 154.814 58.472C154.094 58.984 153.254 59.24 152.294 59.24C151.366 59.24 150.654 59.08 150.158 58.76C149.662 58.424 149.246 58.072 148.91 57.704H148.622L147.902 59H144.326V40.76H148.91V44.888ZM150.758 49.088C150.342 49.088 149.99 49.192 149.702 49.4C149.43 49.592 149.23 49.888 149.102 50.288C148.974 50.688 148.91 51.208 148.91 51.848V52.496C148.91 53.52 149.046 54.288 149.318 54.8C149.606 55.296 150.102 55.544 150.806 55.544C151.35 55.544 151.766 55.272 152.054 54.728C152.342 54.168 152.486 53.352 152.486 52.28C152.486 51.224 152.342 50.432 152.054 49.904C151.782 49.36 151.35 49.088 150.758 49.088ZM172.66 45.728V59H169.204L168.628 57.344H168.364C168.092 57.792 167.74 58.16 167.308 58.448C166.892 58.72 166.428 58.92 165.916 59.048C165.42 59.176 164.9 59.24 164.356 59.24C163.492 59.24 162.708 59.072 162.004 58.736C161.3 58.4 160.74 57.872 160.324 57.152C159.924 56.432 159.724 55.504 159.724 54.368V45.728L164.308 45.728V52.976C164.308 53.84 164.428 54.496 164.668 54.944C164.924 55.392 165.332 55.616 165.892 55.616C166.468 55.616 166.916 55.464 167.236 55.16C167.556 54.84 167.772 54.376 167.884 53.768C168.012 53.16 168.076 52.416 168.076 51.536V45.728H172.66ZM180.41 59L175.826 59V40.76H180.41V59Z" fill="#F1AE12"/>
</svg>
