<svg width="154" height="65" viewBox="0 0 154 65" fill="none" xmlns="http://www.w3.org/2000/svg">
<path d="M37.5265 19V17.248L41.5345 12.616C42.1745 11.88 42.7105 11.216 43.1425 10.624C43.5745 10.032 43.9185 9.48 44.1745 8.968C44.4465 8.456 44.6385 7.952 44.7505 7.456C44.8785 6.944 44.9425 6.416 44.9425 5.872C44.9425 5.264 44.8545 4.736 44.6785 4.288C44.5025 3.824 44.2305 3.464 43.8625 3.208C43.5105 2.952 43.0545 2.824 42.4945 2.824C41.7745 2.824 41.2225 2.992 40.8385 3.328C40.4545 3.664 40.1905 4.104 40.0465 4.648C39.9185 5.176 39.8545 5.76 39.8545 6.4C39.4705 6.4 39.1185 6.36 38.7985 6.28C38.4945 6.184 38.2465 6.024 38.0545 5.8C37.8785 5.56 37.7905 5.24 37.7905 4.84C37.7905 4.216 37.9665 3.664 38.3185 3.184C38.6705 2.704 39.1985 2.328 39.9025 2.056C40.6065 1.768 41.4705 1.624 42.4945 1.624C43.5025 1.624 44.3665 1.792 45.0865 2.128C45.8225 2.448 46.3825 2.912 46.7665 3.52C47.1665 4.112 47.3665 4.816 47.3665 5.632C47.3665 6.08 47.3025 6.52 47.1745 6.952C47.0625 7.384 46.8945 7.816 46.6705 8.248C46.4465 8.68 46.1745 9.128 45.8545 9.592C45.5345 10.04 45.1665 10.512 44.7505 11.008C44.3345 11.504 43.8705 12.032 43.3585 12.592L39.3025 17.08H44.8465C45.5665 17.08 46.0545 16.896 46.3105 16.528C46.5665 16.16 46.7505 15.744 46.8625 15.28L46.9585 14.848H47.9665L47.8465 19H37.5265ZM56.1888 19.24C54.8768 19.24 53.8048 18.872 52.9728 18.136C52.1408 17.4 51.5248 16.368 51.1248 15.04C50.7408 13.712 50.5488 12.16 50.5488 10.384C50.5488 8.608 50.7408 7.064 51.1248 5.752C51.5248 4.44 52.1408 3.424 52.9728 2.704C53.8048 1.984 54.8848 1.624 56.2128 1.624C57.4608 1.624 58.5008 1.984 59.3328 2.704C60.1648 3.424 60.7808 4.448 61.1808 5.776C61.5968 7.088 61.8047 8.632 61.8047 10.408C61.8047 12.184 61.5968 13.736 61.1808 15.064C60.7648 16.376 60.1408 17.4 59.3088 18.136C58.4928 18.872 57.4528 19.24 56.1888 19.24ZM56.1888 17.944C56.7648 17.944 57.2528 17.776 57.6528 17.44C58.0528 17.104 58.3728 16.616 58.6128 15.976C58.8528 15.32 59.0288 14.528 59.1408 13.6C59.2528 12.656 59.3088 11.592 59.3088 10.408C59.3088 9.224 59.2528 8.168 59.1408 7.24C59.0448 6.312 58.8688 5.528 58.6128 4.888C58.3728 4.248 58.0528 3.76 57.6528 3.424C57.2688 3.088 56.7888 2.92 56.2128 2.92C55.6208 2.92 55.1248 3.088 54.7248 3.424C54.3248 3.76 53.9968 4.248 53.7408 4.888C53.5008 5.528 53.3248 6.312 53.2128 7.24C53.1008 8.168 53.0448 9.224 53.0448 10.408C53.0448 11.592 53.1008 12.656 53.2128 13.6C53.3248 14.528 53.5008 15.32 53.7408 15.976C53.9808 16.616 54.3008 17.104 54.7008 17.44C55.1168 17.776 55.6128 17.944 56.1888 17.944ZM65.179 19V17.992H66.787C67.155 17.992 67.483 17.952 67.771 17.872C68.075 17.792 68.315 17.632 68.491 17.392C68.667 17.136 68.755 16.76 68.755 16.264V3.664C68.355 4.16 67.979 4.6 67.627 4.984C67.275 5.352 66.939 5.64 66.619 5.848C66.299 6.056 65.979 6.16 65.659 6.16C65.307 6.16 65.019 6.04 64.795 5.8C64.571 5.56 64.459 5.248 64.459 4.864C64.779 4.784 65.107 4.68 65.443 4.552C65.779 4.408 66.147 4.216 66.547 3.976C66.963 3.72 67.435 3.4 67.963 3.016L69.643 1.768H71.179V16.264C71.179 16.76 71.267 17.136 71.443 17.392C71.619 17.632 71.859 17.792 72.163 17.872C72.467 17.952 72.795 17.992 73.147 17.992H74.323V19L65.179 19ZM81.7293 19.264C80.8333 19.264 80.1293 19.16 79.6173 18.952C79.1053 18.744 78.7453 18.488 78.5373 18.184C78.3453 17.864 78.2493 17.536 78.2493 17.2C78.2493 16.896 78.3213 16.648 78.4653 16.456C78.6253 16.248 78.7933 16.112 78.9693 16.048C79.1133 16.384 79.3053 16.696 79.5453 16.984C79.7853 17.272 80.0893 17.504 80.4573 17.68C80.8253 17.856 81.2573 17.944 81.7533 17.944C82.6493 17.944 83.3773 17.68 83.9373 17.152C84.5133 16.624 84.9453 15.832 85.2333 14.776C85.5373 13.704 85.7133 12.368 85.7613 10.768C85.5373 11.04 85.2573 11.304 84.9213 11.56C84.5853 11.816 84.1933 12.024 83.7453 12.184C83.2973 12.328 82.7933 12.4 82.2333 12.4C81.3053 12.4 80.4813 12.224 79.7613 11.872C79.0573 11.504 78.5053 10.96 78.1053 10.24C77.7053 9.504 77.5053 8.6 77.5053 7.528C77.5053 6.376 77.7053 5.36 78.1053 4.48C78.5213 3.584 79.1133 2.888 79.8813 2.392C80.6493 1.88 81.5693 1.624 82.6413 1.624C83.7293 1.624 84.6893 1.904 85.5213 2.464C86.3693 3.024 87.0333 3.896 87.5133 5.08C87.9933 6.264 88.2333 7.8 88.2333 9.688C88.2333 10.952 88.1133 12.16 87.8733 13.312C87.6333 14.448 87.2493 15.464 86.7213 16.36C86.2093 17.256 85.5373 17.968 84.7053 18.496C83.8893 19.008 82.8973 19.264 81.7293 19.264ZM82.7613 10.984C83.2893 10.984 83.7533 10.896 84.1533 10.72C84.5533 10.528 84.8893 10.288 85.1613 10C85.4333 9.696 85.6413 9.376 85.7853 9.04C85.7693 7.968 85.6813 7.048 85.5213 6.28C85.3613 5.512 85.1453 4.88 84.8733 4.384C84.6013 3.888 84.2733 3.528 83.8893 3.304C83.5213 3.064 83.1053 2.944 82.6413 2.944C82.0813 2.944 81.6013 3.112 81.2013 3.448C80.8013 3.784 80.4973 4.272 80.2893 4.912C80.0813 5.552 79.9773 6.344 79.9773 7.288C79.9773 8.168 80.0813 8.88 80.2893 9.424C80.4973 9.968 80.8093 10.368 81.2253 10.624C81.6413 10.864 82.1533 10.984 82.7613 10.984ZM95.9219 19V17.992H96.3779C96.6979 17.992 96.9539 17.944 97.1459 17.848C97.3379 17.752 97.5139 17.568 97.6739 17.296C97.8339 17.024 98.0099 16.632 98.2019 16.12L103.53 1.864H105.402L110.826 16.72C110.954 17.056 111.09 17.32 111.234 17.512C111.378 17.688 111.554 17.816 111.762 17.896C111.97 17.96 112.226 17.992 112.53 17.992H112.842V19H106.242V17.992H106.794C107.274 17.992 107.634 17.904 107.874 17.728C108.114 17.536 108.234 17.24 108.234 16.84C108.234 16.744 108.226 16.656 108.21 16.576C108.194 16.48 108.17 16.384 108.138 16.288C108.122 16.176 108.09 16.064 108.042 15.952L107.082 13.264L100.77 13.264L99.8579 15.784C99.8099 15.912 99.7699 16.04 99.7379 16.168C99.7059 16.296 99.6819 16.416 99.6659 16.528C99.6499 16.624 99.6419 16.72 99.6419 16.816C99.6419 17.216 99.7699 17.512 100.026 17.704C100.298 17.896 100.698 17.992 101.226 17.992L101.778 17.992V19L95.9219 19ZM101.226 12.064L106.65 12.064L105.162 7.864C105.002 7.384 104.842 6.928 104.682 6.496C104.538 6.064 104.402 5.648 104.274 5.248C104.162 4.848 104.058 4.456 103.962 4.072C103.898 4.36 103.826 4.64 103.746 4.912C103.682 5.184 103.602 5.464 103.506 5.752C103.426 6.024 103.33 6.32 103.218 6.64C103.122 6.944 103.002 7.28 102.858 7.648L101.226 12.064ZM113.276 24.76V23.752H113.468C113.836 23.752 114.164 23.712 114.452 23.632C114.756 23.552 114.996 23.384 115.172 23.128C115.348 22.888 115.436 22.52 115.436 22.024V8.776C115.436 8.296 115.34 7.944 115.148 7.72C114.972 7.48 114.732 7.328 114.428 7.264C114.14 7.184 113.82 7.144 113.468 7.144H113.156V6.136H117.356L117.596 8.296H117.692C118.06 7.56 118.532 6.976 119.108 6.544C119.684 6.112 120.436 5.896 121.364 5.896C122.948 5.896 124.156 6.432 124.988 7.504C125.836 8.56 126.26 10.24 126.26 12.544C126.26 14.864 125.836 16.56 124.988 17.632C124.156 18.704 122.948 19.24 121.364 19.24C120.436 19.24 119.676 19.048 119.084 18.664C118.508 18.264 118.044 17.752 117.692 17.128H117.596C117.628 17.432 117.644 17.76 117.644 18.112C117.66 18.448 117.668 18.768 117.668 19.072C117.684 19.376 117.692 19.632 117.692 19.84V22.144C117.692 22.608 117.78 22.952 117.956 23.176C118.148 23.416 118.388 23.568 118.676 23.632C118.98 23.712 119.308 23.752 119.66 23.752H119.732V24.76H113.276ZM120.98 17.704C121.684 17.704 122.252 17.504 122.684 17.104C123.116 16.704 123.428 16.12 123.62 15.352C123.828 14.584 123.932 13.64 123.932 12.52C123.932 11.384 123.828 10.44 123.62 9.688C123.428 8.936 123.116 8.376 122.684 8.008C122.252 7.624 121.676 7.432 120.956 7.432C120.124 7.432 119.468 7.616 118.988 7.984C118.524 8.352 118.188 8.92 117.98 9.688C117.788 10.44 117.692 11.392 117.692 12.544C117.692 13.648 117.788 14.584 117.98 15.352C118.188 16.12 118.532 16.704 119.012 17.104C119.492 17.504 120.148 17.704 120.98 17.704ZM128.378 19V17.992H128.45C128.818 17.992 129.146 17.952 129.434 17.872C129.738 17.792 129.978 17.632 130.154 17.392C130.33 17.136 130.418 16.76 130.418 16.264V8.776C130.418 8.296 130.322 7.944 130.13 7.72C129.954 7.48 129.714 7.328 129.41 7.264C129.122 7.184 128.802 7.144 128.45 7.144H128.378V6.136H132.074L132.53 8.512H132.65C132.858 8.032 133.082 7.592 133.322 7.192C133.562 6.792 133.882 6.48 134.282 6.256C134.682 6.016 135.234 5.896 135.938 5.896C136.818 5.896 137.466 6.048 137.882 6.352C138.314 6.656 138.53 7.088 138.53 7.648C138.53 8.144 138.354 8.552 138.002 8.872C137.666 9.192 137.098 9.352 136.298 9.352C136.298 8.904 136.258 8.544 136.178 8.272C136.098 8 135.962 7.8 135.77 7.672C135.594 7.544 135.346 7.48 135.026 7.48C134.578 7.48 134.202 7.656 133.898 8.008C133.594 8.36 133.354 8.808 133.178 9.352C133.002 9.896 132.874 10.464 132.794 11.056C132.714 11.632 132.674 12.152 132.674 12.616V16.384C132.674 16.848 132.762 17.2 132.938 17.44C133.13 17.664 133.37 17.816 133.658 17.896C133.962 17.96 134.29 17.992 134.642 17.992H135.314V19H128.378ZM139.435 19V17.992H139.747C140.099 17.992 140.419 17.96 140.707 17.896C141.011 17.816 141.251 17.664 141.427 17.44C141.619 17.2 141.715 16.848 141.715 16.384V8.776C141.715 8.296 141.619 7.944 141.427 7.72C141.251 7.48 141.011 7.328 140.707 7.264C140.419 7.184 140.099 7.144 139.747 7.144H139.675V6.136H143.971V16.264C143.971 16.76 144.059 17.136 144.235 17.392C144.411 17.632 144.651 17.792 144.955 17.872C145.259 17.952 145.587 17.992 145.939 17.992H146.251V19H139.435ZM142.747 3.736C142.363 3.736 142.035 3.624 141.763 3.4C141.507 3.176 141.379 2.792 141.379 2.248C141.379 1.688 141.507 1.304 141.763 1.096C142.035 0.871999 142.363 0.759999 142.747 0.759999C143.115 0.759999 143.435 0.871999 143.707 1.096C143.979 1.304 144.115 1.688 144.115 2.248C144.115 2.792 143.979 3.176 143.707 3.4C143.435 3.624 143.115 3.736 142.747 3.736ZM146.882 19V17.992H147.194C147.562 17.992 147.89 17.952 148.178 17.872C148.482 17.792 148.722 17.632 148.898 17.392C149.074 17.136 149.162 16.76 149.162 16.264V3.4C149.162 2.92 149.066 2.568 148.874 2.344C148.698 2.104 148.458 1.952 148.154 1.888C147.866 1.808 147.546 1.768 147.194 1.768H146.882V0.759999L151.418 0.759999V16.264C151.418 16.76 151.506 17.136 151.682 17.392C151.858 17.632 152.098 17.792 152.402 17.872C152.706 17.952 153.034 17.992 153.386 17.992H153.698V19L146.882 19Z" fill="white"/>
<path d="M8.34719 45.416C7.80319 45.416 7.31519 45.536 6.88319 45.776C6.45119 46 6.08319 46.336 5.77919 46.784C5.47519 47.216 5.24319 47.744 5.08319 48.368C4.92319 48.992 4.84319 49.704 4.84319 50.504C4.84319 51.576 4.97919 52.48 5.25119 53.216C5.52319 53.952 5.93919 54.512 6.49919 54.896C7.05919 55.264 7.76319 55.448 8.61119 55.448C9.36319 55.448 10.0912 55.344 10.7952 55.136C11.5152 54.928 12.2352 54.672 12.9552 54.368V58.28C12.2032 58.616 11.4272 58.856 10.6272 59C9.84319 59.16 9.00319 59.24 8.10719 59.24C6.25119 59.24 4.73119 58.872 3.54719 58.136C2.36319 57.4 1.49119 56.376 0.931188 55.064C0.371188 53.736 0.0911876 52.208 0.0911876 50.48C0.0911876 49.184 0.267188 48 0.619188 46.928C0.987188 45.84 1.52319 44.904 2.22719 44.12C2.93119 43.32 3.79519 42.704 4.81919 42.272C5.85919 41.84 7.05119 41.624 8.39519 41.624C9.22719 41.624 10.0992 41.72 11.0112 41.912C11.9232 42.104 12.8192 42.408 13.6992 42.824L12.2832 46.472C11.6592 46.168 11.0272 45.92 10.3872 45.728C9.74719 45.52 9.06719 45.416 8.34719 45.416ZM14.4291 45.728H19.2531L21.5091 53.336C21.5411 53.448 21.5731 53.584 21.6051 53.744C21.6371 53.904 21.6611 54.072 21.6771 54.248C21.7091 54.424 21.7251 54.6 21.7251 54.776H21.8211C21.8531 54.456 21.8931 54.184 21.9411 53.96C22.0051 53.72 22.0611 53.52 22.1091 53.36L24.4131 45.728H29.0931L23.8371 59.84C23.4371 60.912 22.9651 61.816 22.4211 62.552C21.8931 63.288 21.2371 63.84 20.4531 64.208C19.6691 64.576 18.6931 64.76 17.5251 64.76C17.1091 64.76 16.7491 64.736 16.4451 64.688C16.1411 64.656 15.8771 64.616 15.6531 64.568V60.968C15.8291 61 16.0371 61.032 16.2771 61.064C16.5331 61.096 16.7971 61.112 17.0691 61.112C17.5811 61.112 17.9891 61.008 18.2931 60.8C18.6131 60.592 18.8771 60.32 19.0851 59.984C19.2931 59.664 19.4691 59.312 19.6131 58.928L19.6611 58.808L14.4291 45.728ZM36.7336 59.24C35.3896 59.24 34.2216 59 33.2296 58.52C32.2376 58.04 31.4696 57.296 30.9256 56.288C30.3816 55.28 30.1096 53.992 30.1096 52.424C30.1096 50.808 30.4136 49.496 31.0216 48.488C31.6296 47.464 32.4536 46.712 33.4936 46.232C34.5496 45.736 35.7496 45.488 37.0936 45.488C37.9096 45.488 38.6776 45.576 39.3976 45.752C40.1336 45.928 40.8136 46.176 41.4376 46.496L40.0936 49.88C39.5496 49.64 39.0376 49.448 38.5576 49.304C38.0936 49.16 37.6056 49.088 37.0936 49.088C36.6296 49.088 36.2216 49.208 35.8696 49.448C35.5176 49.688 35.2456 50.056 35.0536 50.552C34.8616 51.032 34.7656 51.648 34.7656 52.4C34.7656 53.168 34.8616 53.784 35.0536 54.248C35.2616 54.712 35.5416 55.056 35.8936 55.28C36.2456 55.488 36.6536 55.592 37.1176 55.592C37.7736 55.592 38.4296 55.488 39.0856 55.28C39.7576 55.072 40.3896 54.784 40.9816 54.416V58.064C40.4376 58.416 39.8216 58.704 39.1336 58.928C38.4456 59.136 37.6456 59.24 36.7336 59.24ZM48.2071 59H43.6231V40.76H48.2071V59ZM64.0529 52.328C64.0529 53.432 63.9009 54.416 63.5969 55.28C63.2929 56.144 62.8529 56.872 62.2769 57.464C61.7009 58.04 61.0049 58.48 60.1889 58.784C59.3729 59.088 58.4449 59.24 57.4049 59.24C56.4449 59.24 55.5569 59.088 54.7409 58.784C53.9409 58.48 53.2449 58.04 52.6529 57.464C52.0769 56.872 51.6209 56.144 51.2849 55.28C50.9649 54.416 50.8049 53.432 50.8049 52.328C50.8049 50.856 51.0689 49.616 51.5969 48.608C52.1409 47.584 52.9089 46.808 53.9009 46.28C54.8929 45.752 56.0849 45.488 57.4769 45.488C58.7569 45.488 59.8849 45.752 60.8609 46.28C61.8529 46.808 62.6289 47.584 63.1889 48.608C63.7649 49.616 64.0529 50.856 64.0529 52.328ZM55.4609 52.328C55.4609 53.08 55.5249 53.72 55.6529 54.248C55.7809 54.776 55.9889 55.176 56.2769 55.448C56.5809 55.704 56.9729 55.832 57.4529 55.832C57.9329 55.832 58.3089 55.704 58.5809 55.448C58.8689 55.176 59.0769 54.776 59.2049 54.248C59.3329 53.72 59.3969 53.08 59.3969 52.328C59.3969 51.576 59.3329 50.944 59.2049 50.432C59.0769 49.92 58.8689 49.536 58.5809 49.28C58.2929 49.024 57.9089 48.896 57.4289 48.896C56.7409 48.896 56.2369 49.184 55.9169 49.76C55.6129 50.336 55.4609 51.192 55.4609 52.328ZM74.9661 45.488C76.3421 45.488 77.4621 45.872 78.3261 46.64C79.1901 47.408 79.6221 48.648 79.6221 50.36V59H75.0381V51.752C75.0381 50.872 74.9101 50.208 74.6541 49.76C74.3981 49.312 73.9901 49.088 73.4301 49.088C72.5661 49.088 71.9821 49.44 71.6781 50.144C71.3901 50.848 71.2461 51.864 71.2461 53.192V59H66.6621V45.728H70.1181L70.7421 47.48H70.9101C71.1981 47.064 71.5341 46.712 71.9181 46.424C72.3181 46.12 72.7661 45.888 73.2621 45.728C73.7741 45.568 74.3421 45.488 74.9661 45.488ZM88.7163 45.488C90.0123 45.488 91.1243 45.712 92.0523 46.16C92.9963 46.608 93.7163 47.28 94.2123 48.176C94.7243 49.072 94.9803 50.2 94.9803 51.56V53.6H86.7963C86.8283 54.288 87.0843 54.856 87.5643 55.304C88.0603 55.752 88.7723 55.976 89.7003 55.976C90.5323 55.976 91.2923 55.896 91.9803 55.736C92.6683 55.576 93.3803 55.32 94.1163 54.968V58.256C93.4763 58.592 92.7723 58.84 92.0043 59C91.2523 59.16 90.3003 59.24 89.1483 59.24C87.8043 59.24 86.6043 59.008 85.5483 58.544C84.5083 58.064 83.6843 57.32 83.0763 56.312C82.4683 55.304 82.1643 54.016 82.1643 52.448C82.1643 50.848 82.4363 49.536 82.9803 48.512C83.5403 47.488 84.3083 46.728 85.2843 46.232C86.2763 45.736 87.4203 45.488 88.7163 45.488ZM88.8843 48.608C88.3403 48.608 87.8843 48.776 87.5163 49.112C87.1643 49.448 86.9563 49.984 86.8923 50.72H90.8283C90.8283 50.32 90.7483 49.968 90.5883 49.664C90.4443 49.344 90.2283 49.088 89.9403 48.896C89.6523 48.704 89.3003 48.608 88.8843 48.608ZM108.635 59H104.075V41.864L114.203 41.864V45.584L108.635 45.584V48.848L113.771 48.848V52.568L108.635 52.568V59ZM123.228 45.488C124.908 45.488 126.22 45.904 127.164 46.736C128.108 47.568 128.58 48.752 128.58 50.288V59L125.412 59L124.524 57.248H124.428C124.06 57.712 123.676 58.096 123.276 58.4C122.892 58.688 122.444 58.896 121.932 59.024C121.42 59.168 120.796 59.24 120.06 59.24C119.292 59.24 118.604 59.088 117.996 58.784C117.388 58.464 116.908 57.992 116.556 57.368C116.204 56.728 116.028 55.92 116.028 54.944C116.028 53.52 116.516 52.464 117.492 51.776C118.484 51.088 119.916 50.704 121.788 50.624L123.996 50.552V50.36C123.996 49.768 123.852 49.352 123.564 49.112C123.276 48.856 122.884 48.728 122.388 48.728C121.86 48.728 121.276 48.824 120.636 49.016C119.996 49.192 119.348 49.424 118.692 49.712L117.372 46.688C118.14 46.288 119.004 45.992 119.964 45.8C120.94 45.592 122.028 45.488 123.228 45.488ZM122.964 53.12C122.132 53.152 121.54 53.304 121.188 53.576C120.852 53.832 120.684 54.2 120.684 54.68C120.684 55.128 120.804 55.464 121.044 55.688C121.284 55.896 121.604 56 122.004 56C122.564 56 123.036 55.824 123.42 55.472C123.82 55.12 124.02 54.664 124.02 54.104V53.072L122.964 53.12ZM140.005 45.488C141.381 45.488 142.501 45.872 143.365 46.64C144.229 47.408 144.661 48.648 144.661 50.36V59H140.077V51.752C140.077 50.872 139.949 50.208 139.693 49.76C139.437 49.312 139.029 49.088 138.469 49.088C137.605 49.088 137.021 49.44 136.717 50.144C136.429 50.848 136.285 51.864 136.285 53.192V59H131.701V45.728H135.157L135.781 47.48H135.949C136.237 47.064 136.573 46.712 136.957 46.424C137.357 46.12 137.805 45.888 138.301 45.728C138.813 45.568 139.381 45.488 140.005 45.488ZM152.387 45.728V59H147.803V45.728H152.387ZM150.107 40.376C150.763 40.376 151.331 40.512 151.811 40.784C152.307 41.056 152.555 41.6 152.555 42.416C152.555 43.2 152.307 43.736 151.811 44.024C151.331 44.296 150.763 44.432 150.107 44.432C149.435 44.432 148.859 44.296 148.379 44.024C147.915 43.736 147.683 43.2 147.683 42.416C147.683 41.6 147.915 41.056 148.379 40.784C148.859 40.512 149.435 40.376 150.107 40.376Z" fill="#F1AE12"/>
</svg>
