<svg width="133" height="20" viewBox="0 0 133 20" fill="none" xmlns="http://www.w3.org/2000/svg">
<path d="M0.464 19L0.464 17.248L4.472 12.616C5.112 11.88 5.648 11.216 6.08 10.624C6.512 10.032 6.856 9.48 7.112 8.968C7.384 8.456 7.576 7.952 7.688 7.456C7.816 6.944 7.88 6.416 7.88 5.872C7.88 5.264 7.792 4.736 7.616 4.288C7.44 3.824 7.168 3.464 6.8 3.208C6.448 2.952 5.992 2.824 5.432 2.824C4.712 2.824 4.16 2.992 3.776 3.328C3.392 3.664 3.128 4.104 2.984 4.648C2.856 5.176 2.792 5.76 2.792 6.4C2.408 6.4 2.056 6.36 1.736 6.28C1.432 6.184 1.184 6.024 0.992 5.8C0.816 5.56 0.728 5.24 0.728 4.84C0.728 4.216 0.904 3.664 1.256 3.184C1.608 2.704 2.136 2.328 2.84 2.056C3.544 1.768 4.408 1.624 5.432 1.624C6.44 1.624 7.304 1.792 8.024 2.128C8.76 2.448 9.32 2.912 9.704 3.52C10.104 4.112 10.304 4.816 10.304 5.632C10.304 6.08 10.24 6.52 10.112 6.952C10 7.384 9.832 7.816 9.608 8.248C9.384 8.68 9.112 9.128 8.792 9.592C8.472 10.04 8.104 10.512 7.688 11.008C7.272 11.504 6.808 12.032 6.296 12.592L2.24 17.08L7.784 17.08C8.504 17.08 8.992 16.896 9.248 16.528C9.504 16.16 9.688 15.744 9.8 15.28L9.896 14.848H10.904L10.784 19L0.464 19ZM19.1263 19.24C17.8143 19.24 16.7423 18.872 15.9103 18.136C15.0783 17.4 14.4623 16.368 14.0623 15.04C13.6783 13.712 13.4863 12.16 13.4863 10.384C13.4863 8.608 13.6783 7.064 14.0623 5.752C14.4623 4.44 15.0783 3.424 15.9103 2.704C16.7423 1.984 17.8223 1.624 19.1503 1.624C20.3983 1.624 21.4383 1.984 22.2703 2.704C23.1023 3.424 23.7183 4.448 24.1183 5.776C24.5343 7.088 24.7422 8.632 24.7422 10.408C24.7422 12.184 24.5343 13.736 24.1183 15.064C23.7023 16.376 23.0783 17.4 22.2463 18.136C21.4303 18.872 20.3903 19.24 19.1263 19.24ZM19.1263 17.944C19.7023 17.944 20.1903 17.776 20.5903 17.44C20.9903 17.104 21.3103 16.616 21.5503 15.976C21.7903 15.32 21.9663 14.528 22.0783 13.6C22.1903 12.656 22.2463 11.592 22.2463 10.408C22.2463 9.224 22.1903 8.168 22.0783 7.24C21.9823 6.312 21.8063 5.528 21.5503 4.888C21.3103 4.248 20.9903 3.76 20.5903 3.424C20.2063 3.088 19.7263 2.92 19.1503 2.92C18.5583 2.92 18.0623 3.088 17.6623 3.424C17.2623 3.76 16.9343 4.248 16.6783 4.888C16.4383 5.528 16.2623 6.312 16.1503 7.24C16.0383 8.168 15.9823 9.224 15.9823 10.408C15.9823 11.592 16.0383 12.656 16.1503 13.6C16.2623 14.528 16.4383 15.32 16.6783 15.976C16.9183 16.616 17.2383 17.104 17.6383 17.44C18.0543 17.776 18.5503 17.944 19.1263 17.944ZM28.1165 19V17.992H29.7245C30.0925 17.992 30.4205 17.952 30.7085 17.872C31.0125 17.792 31.2525 17.632 31.4285 17.392C31.6045 17.136 31.6925 16.76 31.6925 16.264V3.664C31.2925 4.16 30.9165 4.6 30.5645 4.984C30.2125 5.352 29.8765 5.64 29.5565 5.848C29.2365 6.056 28.9165 6.16 28.5965 6.16C28.2445 6.16 27.9565 6.04 27.7325 5.8C27.5085 5.56 27.3965 5.248 27.3965 4.864C27.7165 4.784 28.0445 4.68 28.3805 4.552C28.7165 4.408 29.0845 4.216 29.4845 3.976C29.9005 3.72 30.3725 3.4 30.9005 3.016L32.5805 1.768H34.1165V16.264C34.1165 16.76 34.2045 17.136 34.3805 17.392C34.5565 17.632 34.7965 17.792 35.1005 17.872C35.4045 17.952 35.7325 17.992 36.0845 17.992H37.2605V19H28.1165ZM44.6668 19.264C43.7708 19.264 43.0668 19.16 42.5548 18.952C42.0428 18.744 41.6828 18.488 41.4748 18.184C41.2828 17.864 41.1868 17.536 41.1868 17.2C41.1868 16.896 41.2588 16.648 41.4028 16.456C41.5628 16.248 41.7308 16.112 41.9068 16.048C42.0508 16.384 42.2428 16.696 42.4828 16.984C42.7228 17.272 43.0268 17.504 43.3948 17.68C43.7628 17.856 44.1948 17.944 44.6908 17.944C45.5868 17.944 46.3148 17.68 46.8748 17.152C47.4508 16.624 47.8828 15.832 48.1708 14.776C48.4748 13.704 48.6508 12.368 48.6988 10.768C48.4748 11.04 48.1948 11.304 47.8588 11.56C47.5228 11.816 47.1308 12.024 46.6828 12.184C46.2348 12.328 45.7308 12.4 45.1708 12.4C44.2428 12.4 43.4188 12.224 42.6988 11.872C41.9948 11.504 41.4428 10.96 41.0428 10.24C40.6428 9.504 40.4428 8.6 40.4428 7.528C40.4428 6.376 40.6428 5.36 41.0428 4.48C41.4588 3.584 42.0508 2.888 42.8188 2.392C43.5868 1.88 44.5068 1.624 45.5788 1.624C46.6668 1.624 47.6268 1.904 48.4588 2.464C49.3068 3.024 49.9708 3.896 50.4508 5.08C50.9308 6.264 51.1708 7.8 51.1708 9.688C51.1708 10.952 51.0508 12.16 50.8108 13.312C50.5708 14.448 50.1868 15.464 49.6588 16.36C49.1468 17.256 48.4748 17.968 47.6428 18.496C46.8268 19.008 45.8348 19.264 44.6668 19.264ZM45.6988 10.984C46.2268 10.984 46.6908 10.896 47.0908 10.72C47.4908 10.528 47.8268 10.288 48.0988 10C48.3708 9.696 48.5788 9.376 48.7228 9.04C48.7068 7.968 48.6188 7.048 48.4588 6.28C48.2988 5.512 48.0828 4.88 47.8108 4.384C47.5388 3.888 47.2108 3.528 46.8268 3.304C46.4588 3.064 46.0428 2.944 45.5788 2.944C45.0188 2.944 44.5388 3.112 44.1388 3.448C43.7388 3.784 43.4348 4.272 43.2268 4.912C43.0188 5.552 42.9148 6.344 42.9148 7.288C42.9148 8.168 43.0188 8.88 43.2268 9.424C43.4348 9.968 43.7468 10.368 44.1628 10.624C44.5788 10.864 45.0908 10.984 45.6988 10.984ZM59.7714 19V17.992H60.0834C60.4354 17.992 60.7554 17.96 61.0434 17.896C61.3474 17.816 61.5874 17.664 61.7634 17.44C61.9554 17.2 62.0514 16.848 62.0514 16.384V4.504C62.0514 4.024 61.9554 3.672 61.7634 3.448C61.5874 3.208 61.3474 3.056 61.0434 2.992C60.7554 2.912 60.4354 2.872 60.0834 2.872H59.7714V1.864L65.2434 1.864L70.2114 15.592L75.1314 1.864L80.4594 1.864V2.872H80.1474C79.7954 2.872 79.4674 2.912 79.1634 2.992C78.8594 3.072 78.6194 3.232 78.4434 3.472C78.2674 3.712 78.1794 4.088 78.1794 4.6V16.264C78.1794 16.76 78.2674 17.136 78.4434 17.392C78.6194 17.632 78.8594 17.792 79.1634 17.872C79.4674 17.952 79.7954 17.992 80.1474 17.992H80.4594V19L74.0754 19V17.992H74.1474C74.4994 17.992 74.7954 17.96 75.0354 17.896C75.2914 17.816 75.4914 17.672 75.6354 17.464C75.7794 17.24 75.8594 16.912 75.8754 16.48V3.664L70.3794 19H69.0834L63.5154 3.712V16.264C63.5154 16.76 63.5794 17.136 63.7074 17.392C63.8514 17.632 64.0514 17.792 64.3074 17.872C64.5794 17.952 64.8914 17.992 65.2434 17.992H65.3154V19H59.7714ZM86.3028 19.24C85.5988 19.24 84.9588 19.104 84.3828 18.832C83.8228 18.544 83.3828 18.12 83.0628 17.56C82.7428 16.984 82.5828 16.264 82.5828 15.4C82.5828 14.12 83.0308 13.176 83.9268 12.568C84.8388 11.96 86.2148 11.624 88.0548 11.56L90.0468 11.488V10.048C90.0468 9.472 89.9988 8.968 89.9028 8.536C89.8068 8.088 89.5988 7.736 89.2788 7.48C88.9588 7.224 88.4708 7.096 87.8148 7.096C87.2068 7.096 86.7428 7.208 86.4228 7.432C86.1028 7.656 85.8868 7.968 85.7748 8.368C85.6788 8.752 85.6308 9.2 85.6308 9.712C84.9588 9.712 84.4468 9.6 84.0948 9.376C83.7588 9.136 83.5908 8.744 83.5908 8.2C83.5908 7.64 83.7828 7.192 84.1668 6.856C84.5668 6.52 85.0948 6.28 85.7508 6.136C86.4068 5.976 87.1268 5.896 87.9108 5.896C89.3828 5.896 90.4788 6.208 91.1988 6.832C91.9348 7.456 92.3028 8.528 92.3028 10.048V16.264C92.3028 16.712 92.3508 17.064 92.4468 17.32C92.5428 17.56 92.7028 17.736 92.9268 17.848C93.1508 17.944 93.4388 17.992 93.7908 17.992H93.8628V19L90.6228 19L90.2388 16.936H90.0468C89.7108 17.384 89.3828 17.784 89.0628 18.136C88.7428 18.472 88.3668 18.744 87.9348 18.952C87.5188 19.144 86.9748 19.24 86.3028 19.24ZM86.8548 17.752C87.5108 17.752 88.0708 17.616 88.5348 17.344C89.0148 17.072 89.3828 16.688 89.6388 16.192C89.9108 15.68 90.0468 15.088 90.0468 14.416V12.472L88.5108 12.544C87.5988 12.576 86.8788 12.712 86.3508 12.952C85.8388 13.192 85.4708 13.528 85.2468 13.96C85.0228 14.376 84.9108 14.896 84.9108 15.52C84.9108 16.016 84.9828 16.432 85.1268 16.768C85.2708 17.088 85.4868 17.336 85.7748 17.512C86.0628 17.672 86.4228 17.752 86.8548 17.752ZM95.6982 19V17.992H95.7703C96.1383 17.992 96.4663 17.952 96.7543 17.872C97.0583 17.792 97.2983 17.632 97.4743 17.392C97.6503 17.136 97.7383 16.76 97.7383 16.264V8.776C97.7383 8.296 97.6423 7.944 97.4503 7.72C97.2743 7.48 97.0343 7.328 96.7303 7.264C96.4423 7.184 96.1223 7.144 95.7703 7.144H95.6982V6.136L99.3943 6.136L99.8503 8.512H99.9703C100.178 8.032 100.402 7.592 100.642 7.192C100.882 6.792 101.202 6.48 101.602 6.256C102.002 6.016 102.554 5.896 103.258 5.896C104.138 5.896 104.786 6.048 105.202 6.352C105.634 6.656 105.85 7.088 105.85 7.648C105.85 8.144 105.674 8.552 105.322 8.872C104.986 9.192 104.418 9.352 103.618 9.352C103.618 8.904 103.578 8.544 103.498 8.272C103.418 8 103.282 7.8 103.09 7.672C102.914 7.544 102.666 7.48 102.346 7.48C101.898 7.48 101.522 7.656 101.218 8.008C100.914 8.36 100.674 8.808 100.498 9.352C100.322 9.896 100.194 10.464 100.114 11.056C100.034 11.632 99.9943 12.152 99.9943 12.616V16.384C99.9943 16.848 100.082 17.2 100.258 17.44C100.45 17.664 100.69 17.816 100.978 17.896C101.282 17.96 101.61 17.992 101.962 17.992H102.634V19H95.6982ZM112.995 19.24C111.939 19.24 110.995 19.016 110.163 18.568C109.347 18.12 108.699 17.416 108.219 16.456C107.755 15.48 107.523 14.208 107.523 12.64C107.523 10.928 107.755 9.584 108.219 8.608C108.699 7.616 109.339 6.92 110.139 6.52C110.955 6.104 111.867 5.896 112.875 5.896C113.547 5.896 114.203 5.984 114.843 6.16C115.483 6.336 116.011 6.608 116.427 6.976C116.843 7.328 117.051 7.784 117.051 8.344C117.051 8.712 116.971 9.008 116.811 9.232C116.651 9.456 116.411 9.616 116.091 9.712C115.787 9.808 115.395 9.856 114.915 9.856C114.915 9.344 114.851 8.88 114.723 8.464C114.611 8.048 114.411 7.72 114.123 7.48C113.835 7.224 113.419 7.096 112.875 7.096C112.267 7.096 111.731 7.256 111.267 7.576C110.819 7.896 110.467 8.456 110.211 9.256C109.971 10.056 109.851 11.176 109.851 12.616C109.851 13.752 109.971 14.696 110.211 15.448C110.467 16.2 110.859 16.76 111.387 17.128C111.915 17.496 112.611 17.68 113.475 17.68C113.971 17.68 114.427 17.608 114.843 17.464C115.259 17.32 115.619 17.12 115.923 16.864C116.243 16.608 116.491 16.32 116.667 16C116.795 16.096 116.891 16.224 116.955 16.384C117.035 16.528 117.075 16.712 117.075 16.936C117.075 17.304 116.923 17.664 116.619 18.016C116.315 18.368 115.859 18.664 115.251 18.904C114.659 19.128 113.907 19.24 112.995 19.24ZM118.448 19V17.992H118.64C119.008 17.992 119.336 17.952 119.624 17.872C119.928 17.792 120.168 17.632 120.344 17.392C120.52 17.136 120.608 16.76 120.608 16.264V3.4C120.608 2.92 120.512 2.568 120.32 2.344C120.144 2.104 119.904 1.952 119.6 1.888C119.312 1.808 118.992 1.768 118.64 1.768H118.448V0.759999L122.864 0.759999V6.04C122.864 6.328 122.856 6.632 122.84 6.952C122.824 7.256 122.808 7.52 122.792 7.744C122.776 7.968 122.768 8.08 122.768 8.08H122.888C123.128 7.6 123.416 7.2 123.752 6.88C124.104 6.544 124.496 6.296 124.928 6.136C125.376 5.976 125.872 5.896 126.416 5.896C127.792 5.896 128.84 6.272 129.56 7.024C130.296 7.76 130.664 8.952 130.664 10.6V16.264C130.664 16.76 130.744 17.136 130.904 17.392C131.064 17.632 131.28 17.792 131.552 17.872C131.84 17.952 132.16 17.992 132.512 17.992H132.584V19H128.408V10.72C128.408 9.68 128.208 8.872 127.808 8.296C127.424 7.72 126.744 7.432 125.768 7.432C125.112 7.432 124.568 7.592 124.136 7.912C123.704 8.232 123.384 8.688 123.176 9.28C122.968 9.856 122.864 10.536 122.864 11.32V16.384C122.864 16.848 122.952 17.2 123.128 17.44C123.32 17.664 123.56 17.816 123.848 17.896C124.152 17.96 124.48 17.992 124.832 17.992H124.904V19H118.448Z" fill="white"/>
</svg>
