<svg width="207" height="64" viewBox="0 0 207 64" fill="none" xmlns="http://www.w3.org/2000/svg">
<path d="M99.4562 18V16.248L103.464 11.616C104.104 10.88 104.64 10.216 105.072 9.624C105.504 9.032 105.848 8.48 106.104 7.968C106.376 7.456 106.568 6.952 106.68 6.456C106.808 5.944 106.872 5.416 106.872 4.872C106.872 4.264 106.784 3.736 106.608 3.288C106.432 2.824 106.16 2.464 105.792 2.208C105.44 1.952 104.984 1.824 104.424 1.824C103.704 1.824 103.152 1.992 102.768 2.328C102.384 2.664 102.12 3.104 101.976 3.648C101.848 4.176 101.784 4.76 101.784 5.4C101.4 5.4 101.048 5.36 100.728 5.28C100.424 5.184 100.176 5.024 99.9842 4.8C99.8082 4.56 99.7202 4.24 99.7202 3.84C99.7202 3.216 99.8962 2.664 100.248 2.184C100.6 1.704 101.128 1.328 101.832 1.056C102.536 0.767999 103.4 0.623999 104.424 0.623999C105.432 0.623999 106.296 0.791999 107.016 1.128C107.752 1.448 108.312 1.912 108.696 2.52C109.096 3.112 109.296 3.816 109.296 4.632C109.296 5.08 109.232 5.52 109.104 5.952C108.992 6.384 108.824 6.816 108.6 7.248C108.376 7.68 108.104 8.128 107.784 8.592C107.464 9.04 107.096 9.512 106.68 10.008C106.264 10.504 105.8 11.032 105.288 11.592L101.232 16.08H106.776C107.496 16.08 107.984 15.896 108.24 15.528C108.496 15.16 108.68 14.744 108.792 14.28L108.888 13.848H109.896L109.776 18H99.4562ZM118.118 18.24C116.806 18.24 115.734 17.872 114.902 17.136C114.07 16.4 113.454 15.368 113.054 14.04C112.67 12.712 112.478 11.16 112.478 9.384C112.478 7.608 112.67 6.064 113.054 4.752C113.454 3.44 114.07 2.424 114.902 1.704C115.734 0.983999 116.814 0.623999 118.142 0.623999C119.39 0.623999 120.43 0.983999 121.262 1.704C122.094 2.424 122.71 3.448 123.11 4.776C123.526 6.088 123.734 7.632 123.734 9.408C123.734 11.184 123.526 12.736 123.11 14.064C122.694 15.376 122.07 16.4 121.238 17.136C120.422 17.872 119.382 18.24 118.118 18.24ZM118.118 16.944C118.694 16.944 119.182 16.776 119.582 16.44C119.982 16.104 120.302 15.616 120.542 14.976C120.782 14.32 120.958 13.528 121.07 12.6C121.182 11.656 121.238 10.592 121.238 9.408C121.238 8.224 121.182 7.168 121.07 6.24C120.974 5.312 120.798 4.528 120.542 3.888C120.302 3.248 119.982 2.76 119.582 2.424C119.198 2.088 118.718 1.92 118.142 1.92C117.55 1.92 117.054 2.088 116.654 2.424C116.254 2.76 115.926 3.248 115.67 3.888C115.43 4.528 115.254 5.312 115.142 6.24C115.03 7.168 114.974 8.224 114.974 9.408C114.974 10.592 115.03 11.656 115.142 12.6C115.254 13.528 115.43 14.32 115.67 14.976C115.91 15.616 116.23 16.104 116.63 16.44C117.046 16.776 117.542 16.944 118.118 16.944ZM126.269 18V16.248L130.277 11.616C130.917 10.88 131.453 10.216 131.885 9.624C132.317 9.032 132.661 8.48 132.917 7.968C133.189 7.456 133.381 6.952 133.493 6.456C133.621 5.944 133.685 5.416 133.685 4.872C133.685 4.264 133.597 3.736 133.421 3.288C133.245 2.824 132.973 2.464 132.605 2.208C132.253 1.952 131.797 1.824 131.237 1.824C130.517 1.824 129.965 1.992 129.581 2.328C129.197 2.664 128.933 3.104 128.789 3.648C128.661 4.176 128.597 4.76 128.597 5.4C128.213 5.4 127.861 5.36 127.541 5.28C127.237 5.184 126.989 5.024 126.797 4.8C126.621 4.56 126.533 4.24 126.533 3.84C126.533 3.216 126.709 2.664 127.061 2.184C127.413 1.704 127.941 1.328 128.645 1.056C129.349 0.767999 130.213 0.623999 131.237 0.623999C132.245 0.623999 133.109 0.791999 133.829 1.128C134.565 1.448 135.125 1.912 135.509 2.52C135.909 3.112 136.109 3.816 136.109 4.632C136.109 5.08 136.045 5.52 135.917 5.952C135.805 6.384 135.637 6.816 135.413 7.248C135.189 7.68 134.917 8.128 134.597 8.592C134.277 9.04 133.909 9.512 133.493 10.008C133.077 10.504 132.613 11.032 132.101 11.592L128.045 16.08L133.589 16.08C134.309 16.08 134.797 15.896 135.053 15.528C135.309 15.16 135.493 14.744 135.605 14.28L135.701 13.848H136.709L136.589 18L126.269 18ZM144.931 18.24C143.619 18.24 142.547 17.872 141.715 17.136C140.883 16.4 140.267 15.368 139.867 14.04C139.483 12.712 139.291 11.16 139.291 9.384C139.291 7.608 139.483 6.064 139.867 4.752C140.267 3.44 140.883 2.424 141.715 1.704C142.547 0.983999 143.627 0.623999 144.955 0.623999C146.203 0.623999 147.243 0.983999 148.075 1.704C148.907 2.424 149.523 3.448 149.923 4.776C150.339 6.088 150.547 7.632 150.547 9.408C150.547 11.184 150.339 12.736 149.923 14.064C149.507 15.376 148.883 16.4 148.051 17.136C147.235 17.872 146.195 18.24 144.931 18.24ZM144.931 16.944C145.507 16.944 145.995 16.776 146.395 16.44C146.795 16.104 147.115 15.616 147.355 14.976C147.595 14.32 147.771 13.528 147.883 12.6C147.995 11.656 148.051 10.592 148.051 9.408C148.051 8.224 147.995 7.168 147.883 6.24C147.787 5.312 147.611 4.528 147.355 3.888C147.115 3.248 146.795 2.76 146.395 2.424C146.011 2.088 145.531 1.92 144.955 1.92C144.363 1.92 143.867 2.088 143.467 2.424C143.067 2.76 142.739 3.248 142.483 3.888C142.243 4.528 142.067 5.312 141.955 6.24C141.843 7.168 141.787 8.224 141.787 9.408C141.787 10.592 141.843 11.656 141.955 12.6C142.067 13.528 142.243 14.32 142.483 14.976C142.723 15.616 143.043 16.104 143.443 16.44C143.859 16.776 144.355 16.944 144.931 16.944ZM158.764 18V16.992H159.076C159.428 16.992 159.748 16.96 160.036 16.896C160.34 16.816 160.58 16.664 160.756 16.44C160.948 16.2 161.044 15.848 161.044 15.384V3.504C161.044 3.024 160.948 2.672 160.756 2.448C160.58 2.208 160.34 2.056 160.036 1.992C159.748 1.912 159.428 1.872 159.076 1.872H158.764V0.863999L164.236 0.863999L169.204 14.592L174.124 0.863999L179.452 0.863999V1.872H179.14C178.788 1.872 178.46 1.912 178.156 1.992C177.852 2.072 177.612 2.232 177.436 2.472C177.26 2.712 177.172 3.088 177.172 3.6V15.264C177.172 15.76 177.26 16.136 177.436 16.392C177.612 16.632 177.852 16.792 178.156 16.872C178.46 16.952 178.788 16.992 179.14 16.992H179.452V18H173.068V16.992H173.14C173.492 16.992 173.788 16.96 174.028 16.896C174.284 16.816 174.484 16.672 174.628 16.464C174.772 16.24 174.852 15.912 174.868 15.48V2.664L169.372 18H168.076L162.508 2.712V15.264C162.508 15.76 162.572 16.136 162.7 16.392C162.844 16.632 163.044 16.792 163.3 16.872C163.572 16.952 163.884 16.992 164.236 16.992H164.308V18L158.764 18ZM185.295 18.24C184.591 18.24 183.951 18.104 183.375 17.832C182.815 17.544 182.375 17.12 182.055 16.56C181.735 15.984 181.575 15.264 181.575 14.4C181.575 13.12 182.023 12.176 182.919 11.568C183.831 10.96 185.207 10.624 187.047 10.56L189.039 10.488V9.048C189.039 8.472 188.991 7.968 188.895 7.536C188.799 7.088 188.591 6.736 188.271 6.48C187.951 6.224 187.463 6.096 186.807 6.096C186.199 6.096 185.735 6.208 185.415 6.432C185.095 6.656 184.879 6.968 184.767 7.368C184.671 7.752 184.623 8.2 184.623 8.712C183.951 8.712 183.439 8.6 183.087 8.376C182.751 8.136 182.583 7.744 182.583 7.2C182.583 6.64 182.775 6.192 183.159 5.856C183.559 5.52 184.087 5.28 184.743 5.136C185.399 4.976 186.119 4.896 186.903 4.896C188.375 4.896 189.471 5.208 190.191 5.832C190.927 6.456 191.295 7.528 191.295 9.048V15.264C191.295 15.712 191.343 16.064 191.439 16.32C191.535 16.56 191.695 16.736 191.919 16.848C192.143 16.944 192.431 16.992 192.783 16.992H192.855V18H189.615L189.231 15.936H189.039C188.703 16.384 188.375 16.784 188.055 17.136C187.735 17.472 187.359 17.744 186.927 17.952C186.511 18.144 185.967 18.24 185.295 18.24ZM185.847 16.752C186.503 16.752 187.063 16.616 187.527 16.344C188.007 16.072 188.375 15.688 188.631 15.192C188.903 14.68 189.039 14.088 189.039 13.416V11.472L187.503 11.544C186.591 11.576 185.871 11.712 185.343 11.952C184.831 12.192 184.463 12.528 184.239 12.96C184.015 13.376 183.903 13.896 183.903 14.52C183.903 15.016 183.975 15.432 184.119 15.768C184.263 16.088 184.479 16.336 184.767 16.512C185.055 16.672 185.415 16.752 185.847 16.752ZM194.342 22.632C195.158 22.632 195.862 22.512 196.454 22.272C197.046 22.032 197.55 21.696 197.966 21.264C198.382 20.848 198.734 20.352 199.022 19.776C199.31 19.2 199.55 18.576 199.742 17.904L195.302 7.416C195.158 7.08 195.014 6.824 194.87 6.648C194.726 6.456 194.558 6.328 194.366 6.264C194.174 6.184 193.918 6.144 193.598 6.144H193.526V5.136L199.286 5.136V6.144H199.214C198.734 6.144 198.374 6.24 198.134 6.432C197.894 6.608 197.774 6.896 197.774 7.296C197.774 7.424 197.79 7.56 197.822 7.704C197.854 7.848 197.902 8.008 197.966 8.184L199.718 12.456C199.83 12.728 199.942 13.024 200.054 13.344C200.182 13.664 200.302 13.984 200.414 14.304C200.526 14.624 200.622 14.928 200.702 15.216C200.782 15.504 200.838 15.744 200.87 15.936C200.982 15.472 201.126 14.992 201.302 14.496C201.494 14 201.67 13.512 201.83 13.032L203.438 8.352C203.518 8.16 203.574 7.976 203.606 7.8C203.638 7.608 203.654 7.448 203.654 7.32C203.654 6.904 203.518 6.608 203.246 6.432C202.99 6.24 202.598 6.144 202.07 6.144H201.998V5.136H206.99V6.144H206.918C206.614 6.144 206.358 6.192 206.15 6.288C205.942 6.384 205.758 6.568 205.598 6.84C205.454 7.112 205.286 7.504 205.094 8.016L201.446 18.096C201.03 19.264 200.63 20.216 200.246 20.952C199.862 21.688 199.43 22.256 198.95 22.656C198.486 23.072 197.902 23.36 197.198 23.52C196.494 23.68 195.614 23.76 194.558 23.76H194.342V22.632Z" fill="white"/>
<path d="M9.17531 44.416C8.63131 44.416 8.14331 44.536 7.71131 44.776C7.27931 45 6.91131 45.336 6.60731 45.784C6.30331 46.216 6.07131 46.744 5.91131 47.368C5.75131 47.992 5.67131 48.704 5.67131 49.504C5.67131 50.576 5.80731 51.48 6.07931 52.216C6.35131 52.952 6.76731 53.512 7.32731 53.896C7.88731 54.264 8.59131 54.448 9.43931 54.448C10.1913 54.448 10.9193 54.344 11.6233 54.136C12.3433 53.928 13.0633 53.672 13.7833 53.368V57.28C13.0313 57.616 12.2553 57.856 11.4553 58C10.6713 58.16 9.83131 58.24 8.93531 58.24C7.07931 58.24 5.55931 57.872 4.37531 57.136C3.19131 56.4 2.31931 55.376 1.75931 54.064C1.19931 52.736 0.919313 51.208 0.919313 49.48C0.919313 48.184 1.09531 47 1.44731 45.928C1.81531 44.84 2.35131 43.904 3.05531 43.12C3.75931 42.32 4.62331 41.704 5.64731 41.272C6.68731 40.84 7.87931 40.624 9.22331 40.624C10.0553 40.624 10.9273 40.72 11.8393 40.912C12.7513 41.104 13.6473 41.408 14.5273 41.824L13.1113 45.472C12.4873 45.168 11.8553 44.92 11.2153 44.728C10.5753 44.52 9.89531 44.416 9.17531 44.416ZM15.2572 44.728H20.0813L22.3372 52.336C22.3693 52.448 22.4013 52.584 22.4333 52.744C22.4653 52.904 22.4893 53.072 22.5053 53.248C22.5373 53.424 22.5533 53.6 22.5533 53.776H22.6493C22.6813 53.456 22.7213 53.184 22.7693 52.96C22.8333 52.72 22.8893 52.52 22.9373 52.36L25.2413 44.728H29.9213L24.6653 58.84C24.2653 59.912 23.7933 60.816 23.2493 61.552C22.7213 62.288 22.0653 62.84 21.2812 63.208C20.4973 63.576 19.5213 63.76 18.3533 63.76C17.9373 63.76 17.5773 63.736 17.2733 63.688C16.9693 63.656 16.7053 63.616 16.4813 63.568V59.968C16.6573 60 16.8653 60.032 17.1053 60.064C17.3613 60.096 17.6253 60.112 17.8973 60.112C18.4093 60.112 18.8173 60.008 19.1213 59.8C19.4413 59.592 19.7053 59.32 19.9133 58.984C20.1213 58.664 20.2973 58.312 20.4413 57.928L20.4893 57.808L15.2572 44.728ZM37.5617 58.24C36.2177 58.24 35.0497 58 34.0577 57.52C33.0657 57.04 32.2977 56.296 31.7537 55.288C31.2097 54.28 30.9377 52.992 30.9377 51.424C30.9377 49.808 31.2417 48.496 31.8497 47.488C32.4577 46.464 33.2817 45.712 34.3217 45.232C35.3777 44.736 36.5777 44.488 37.9217 44.488C38.7377 44.488 39.5057 44.576 40.2257 44.752C40.9617 44.928 41.6417 45.176 42.2657 45.496L40.9217 48.88C40.3777 48.64 39.8657 48.448 39.3857 48.304C38.9217 48.16 38.4337 48.088 37.9217 48.088C37.4577 48.088 37.0497 48.208 36.6977 48.448C36.3457 48.688 36.0737 49.056 35.8817 49.552C35.6897 50.032 35.5937 50.648 35.5937 51.4C35.5937 52.168 35.6897 52.784 35.8817 53.248C36.0897 53.712 36.3697 54.056 36.7217 54.28C37.0737 54.488 37.4817 54.592 37.9457 54.592C38.6017 54.592 39.2577 54.488 39.9137 54.28C40.5857 54.072 41.2177 53.784 41.8097 53.416V57.064C41.2657 57.416 40.6497 57.704 39.9617 57.928C39.2737 58.136 38.4737 58.24 37.5617 58.24ZM49.0352 58H44.4512V39.76H49.0352V58ZM64.881 51.328C64.881 52.432 64.729 53.416 64.425 54.28C64.121 55.144 63.681 55.872 63.105 56.464C62.529 57.04 61.833 57.48 61.017 57.784C60.201 58.088 59.273 58.24 58.233 58.24C57.273 58.24 56.385 58.088 55.569 57.784C54.769 57.48 54.073 57.04 53.481 56.464C52.905 55.872 52.449 55.144 52.113 54.28C51.793 53.416 51.633 52.432 51.633 51.328C51.633 49.856 51.897 48.616 52.425 47.608C52.969 46.584 53.737 45.808 54.729 45.28C55.721 44.752 56.913 44.488 58.305 44.488C59.585 44.488 60.713 44.752 61.689 45.28C62.681 45.808 63.457 46.584 64.017 47.608C64.593 48.616 64.881 49.856 64.881 51.328ZM56.289 51.328C56.289 52.08 56.353 52.72 56.481 53.248C56.609 53.776 56.817 54.176 57.105 54.448C57.409 54.704 57.801 54.832 58.281 54.832C58.761 54.832 59.137 54.704 59.409 54.448C59.697 54.176 59.905 53.776 60.033 53.248C60.161 52.72 60.225 52.08 60.225 51.328C60.225 50.576 60.161 49.944 60.033 49.432C59.905 48.92 59.697 48.536 59.409 48.28C59.121 48.024 58.737 47.896 58.257 47.896C57.569 47.896 57.065 48.184 56.745 48.76C56.441 49.336 56.289 50.192 56.289 51.328ZM75.7943 44.488C77.1703 44.488 78.2903 44.872 79.1543 45.64C80.0183 46.408 80.4503 47.648 80.4503 49.36V58H75.8663V50.752C75.8663 49.872 75.7383 49.208 75.4823 48.76C75.2263 48.312 74.8183 48.088 74.2583 48.088C73.3943 48.088 72.8103 48.44 72.5063 49.144C72.2183 49.848 72.0742 50.864 72.0742 52.192V58H67.4902V44.728L70.9463 44.728L71.5703 46.48H71.7383C72.0263 46.064 72.3623 45.712 72.7463 45.424C73.1463 45.12 73.5943 44.888 74.0903 44.728C74.6023 44.568 75.1703 44.488 75.7943 44.488ZM89.5444 44.488C90.8404 44.488 91.9524 44.712 92.8804 45.16C93.8244 45.608 94.5444 46.28 95.0404 47.176C95.5524 48.072 95.8084 49.2 95.8084 50.56V52.6H87.6244C87.6564 53.288 87.9124 53.856 88.3924 54.304C88.8884 54.752 89.6004 54.976 90.5284 54.976C91.3604 54.976 92.1204 54.896 92.8084 54.736C93.4964 54.576 94.2084 54.32 94.9444 53.968V57.256C94.3044 57.592 93.6004 57.84 92.8324 58C92.0804 58.16 91.1284 58.24 89.9764 58.24C88.6324 58.24 87.4324 58.008 86.3764 57.544C85.3364 57.064 84.5124 56.32 83.9044 55.312C83.2964 54.304 82.9924 53.016 82.9924 51.448C82.9924 49.848 83.2644 48.536 83.8084 47.512C84.3684 46.488 85.1364 45.728 86.1124 45.232C87.1044 44.736 88.2484 44.488 89.5444 44.488ZM89.7124 47.608C89.1684 47.608 88.7124 47.776 88.3444 48.112C87.9924 48.448 87.7844 48.984 87.7204 49.72H91.6564C91.6564 49.32 91.5764 48.968 91.4164 48.664C91.2724 48.344 91.0564 48.088 90.7684 47.896C90.4804 47.704 90.1284 47.608 89.7124 47.608ZM115.415 58L114.575 54.784H109.007L108.143 58H103.055L108.647 40.792H114.815L120.479 58H115.415ZM112.871 48.184C112.791 47.88 112.679 47.448 112.535 46.888C112.391 46.312 112.247 45.72 112.103 45.112C111.959 44.504 111.847 44.008 111.767 43.624C111.703 44.008 111.599 44.488 111.455 45.064C111.327 45.64 111.191 46.208 111.047 46.768C110.919 47.328 110.807 47.8 110.711 48.184L109.967 50.992H113.615L112.871 48.184ZM138.253 44.488C139.773 44.488 140.933 44.872 141.733 45.64C142.533 46.408 142.933 47.648 142.933 49.36V58H138.349V50.776C138.349 49.768 138.213 49.072 137.941 48.688C137.669 48.288 137.269 48.088 136.741 48.088C136.005 48.088 135.493 48.416 135.205 49.072C134.917 49.712 134.773 50.624 134.773 51.808V58H130.189V50.776C130.189 50.136 130.133 49.624 130.021 49.24C129.909 48.84 129.741 48.552 129.517 48.376C129.293 48.184 129.005 48.088 128.653 48.088C128.125 48.088 127.709 48.248 127.405 48.568C127.117 48.888 126.917 49.352 126.805 49.96C126.693 50.568 126.637 51.312 126.637 52.192V58H122.053V44.728H125.509L126.181 46.36H126.301C126.541 45.992 126.845 45.672 127.213 45.4C127.581 45.112 128.021 44.888 128.533 44.728C129.045 44.568 129.629 44.488 130.285 44.488C131.261 44.488 132.061 44.656 132.685 44.992C133.325 45.312 133.845 45.76 134.245 46.336H134.389C134.805 45.744 135.341 45.288 135.997 44.968C136.669 44.648 137.421 44.488 138.253 44.488ZM154.165 44.488C155.637 44.488 156.789 45.08 157.621 46.264C158.453 47.432 158.869 49.12 158.869 51.328C158.869 52.832 158.653 54.104 158.221 55.144C157.805 56.168 157.229 56.944 156.493 57.472C155.773 57.984 154.949 58.24 154.021 58.24C153.397 58.24 152.869 58.16 152.437 58C152.005 57.84 151.645 57.648 151.357 57.424C151.069 57.184 150.829 56.944 150.637 56.704H150.493C150.525 57.008 150.557 57.336 150.589 57.688C150.621 58.04 150.637 58.448 150.637 58.912V63.76H146.053V44.728H149.773L150.421 46.408H150.637C150.861 46.056 151.125 45.736 151.429 45.448C151.749 45.16 152.133 44.928 152.581 44.752C153.029 44.576 153.557 44.488 154.165 44.488ZM152.437 48.088C151.989 48.088 151.637 48.2 151.381 48.424C151.125 48.632 150.941 48.944 150.829 49.36C150.717 49.776 150.653 50.304 150.637 50.944V51.304C150.637 52.008 150.685 52.6 150.781 53.08C150.893 53.56 151.085 53.928 151.357 54.184C151.629 54.424 151.997 54.544 152.461 54.544C152.845 54.544 153.165 54.44 153.421 54.232C153.693 54.008 153.893 53.656 154.021 53.176C154.149 52.696 154.213 52.064 154.213 51.28C154.213 50.112 154.061 49.288 153.757 48.808C153.453 48.328 153.013 48.088 152.437 48.088ZM166.059 42.352C166.059 43.328 166.035 44.152 165.987 44.824C165.939 45.496 165.899 46.008 165.867 46.36H166.083C166.371 45.896 166.691 45.528 167.043 45.256C167.411 44.984 167.819 44.792 168.267 44.68C168.715 44.552 169.203 44.488 169.731 44.488C170.611 44.488 171.403 44.656 172.107 44.992C172.811 45.328 173.371 45.856 173.787 46.576C174.219 47.28 174.435 48.208 174.435 49.36V58H169.827V50.752C169.827 49.872 169.699 49.208 169.443 48.76C169.187 48.312 168.787 48.088 168.243 48.088C167.699 48.088 167.267 48.248 166.947 48.568C166.627 48.888 166.395 49.352 166.251 49.96C166.123 50.552 166.059 51.288 166.059 52.168V58H161.475V39.76H166.059V42.352ZM184.033 44.488C185.713 44.488 187.025 44.904 187.969 45.736C188.913 46.568 189.385 47.752 189.385 49.288V58H186.217L185.329 56.248H185.233C184.865 56.712 184.481 57.096 184.081 57.4C183.697 57.688 183.249 57.896 182.737 58.024C182.225 58.168 181.601 58.24 180.865 58.24C180.097 58.24 179.409 58.088 178.801 57.784C178.193 57.464 177.713 56.992 177.361 56.368C177.009 55.728 176.833 54.92 176.833 53.944C176.833 52.52 177.321 51.464 178.297 50.776C179.289 50.088 180.721 49.704 182.593 49.624L184.801 49.552V49.36C184.801 48.768 184.657 48.352 184.369 48.112C184.081 47.856 183.689 47.728 183.193 47.728C182.665 47.728 182.081 47.824 181.441 48.016C180.801 48.192 180.153 48.424 179.497 48.712L178.177 45.688C178.945 45.288 179.809 44.992 180.769 44.8C181.745 44.592 182.833 44.488 184.033 44.488ZM183.769 52.12C182.937 52.152 182.345 52.304 181.993 52.576C181.657 52.832 181.489 53.2 181.489 53.68C181.489 54.128 181.609 54.464 181.849 54.688C182.089 54.896 182.409 55 182.809 55C183.369 55 183.841 54.824 184.225 54.472C184.625 54.12 184.825 53.664 184.825 53.104V52.072L183.769 52.12ZM200.81 44.488C202.186 44.488 203.306 44.872 204.17 45.64C205.034 46.408 205.466 47.648 205.466 49.36V58H200.882V50.752C200.882 49.872 200.754 49.208 200.498 48.76C200.242 48.312 199.834 48.088 199.274 48.088C198.41 48.088 197.826 48.44 197.522 49.144C197.234 49.848 197.09 50.864 197.09 52.192V58H192.506V44.728H195.962L196.586 46.48H196.754C197.042 46.064 197.378 45.712 197.762 45.424C198.162 45.12 198.61 44.888 199.106 44.728C199.618 44.568 200.186 44.488 200.81 44.488Z" fill="#F1AE12"/>
</svg>
