<svg width="52" height="18" viewBox="0 0 52 18" fill="none" xmlns="http://www.w3.org/2000/svg">
<path d="M0.792055 17.54L0.792055 15.332L4.51206 11.324C5.21606 10.588 5.80006 9.91604 6.26406 9.30804C6.72806 8.70004 7.08806 8.13204 7.34406 7.60404C7.61606 7.06004 7.80806 6.52404 7.92006 5.99604C8.04806 5.46804 8.11206 4.90804 8.11206 4.31604C8.11206 3.70804 8.02406 3.19604 7.84806 2.78004C7.68806 2.36404 7.45606 2.05204 7.15206 1.84404C6.84806 1.63604 6.46406 1.53204 6.00006 1.53204C5.39206 1.53204 4.91206 1.69204 4.56006 2.01204C4.22406 2.33204 3.98406 2.78804 3.84006 3.38004C3.71206 3.95604 3.64806 4.65204 3.64806 5.46804C3.12006 5.46804 2.64806 5.40404 2.23206 5.27604C1.83206 5.13204 1.52006 4.90804 1.29606 4.60404C1.07206 4.30004 0.960055 3.90004 0.960055 3.40404C0.960055 2.79604 1.14406 2.25204 1.51206 1.77204C1.89606 1.27604 2.46406 0.884038 3.21606 0.596038C3.96806 0.308038 4.89606 0.164038 6.00006 0.164038C7.13606 0.164038 8.09606 0.324038 8.88006 0.644038C9.66406 0.964038 10.2561 1.42804 10.6561 2.03604C11.0721 2.62804 11.2801 3.33204 11.2801 4.14804C11.2801 4.59604 11.2161 5.03604 11.0881 5.46804C10.9601 5.90004 10.7681 6.34004 10.5121 6.78804C10.2561 7.23604 9.92006 7.72404 9.50406 8.25204C9.08806 8.76404 8.57606 9.33204 7.96806 9.95604C7.37606 10.58 6.68806 11.276 5.90406 12.044L2.88006 15.164L8.44806 15.164C9.02406 15.164 9.46406 15.012 9.76806 14.708C10.0881 14.388 10.3201 13.972 10.4641 13.46L10.6081 12.836H11.8801L11.7601 17.54L0.792055 17.54ZM19.8383 17.78C18.4303 17.78 17.3023 17.412 16.4543 16.676C15.6063 15.94 14.9903 14.908 14.6063 13.58C14.2223 12.252 14.0303 10.7 14.0303 8.92404C14.0303 7.14804 14.2223 5.60404 14.6063 4.29204C14.9903 2.98004 15.6063 1.96404 16.4543 1.24404C17.3023 0.524038 18.4383 0.164038 19.8623 0.164038C21.2063 0.164038 22.2943 0.524038 23.1263 1.24404C23.9743 1.96404 24.5983 2.98804 24.9983 4.31604C25.4143 5.62804 25.6223 7.17204 25.6223 8.94804C25.6223 10.724 25.4143 12.276 24.9983 13.604C24.5983 14.916 23.9743 15.94 23.1263 16.676C22.2783 17.412 21.1823 17.78 19.8383 17.78ZM19.8383 16.316C20.3343 16.316 20.7423 16.156 21.0623 15.836C21.3983 15.5 21.6543 15.02 21.8303 14.396C22.0223 13.756 22.1583 12.98 22.2383 12.068C22.3183 11.156 22.3583 10.116 22.3583 8.94804C22.3583 7.78004 22.3183 6.74804 22.2383 5.85204C22.1743 4.94004 22.0463 4.17204 21.8543 3.54804C21.6623 2.92404 21.3983 2.45204 21.0623 2.13204C20.7423 1.79604 20.3423 1.62804 19.8623 1.62804C19.3663 1.62804 18.9503 1.79604 18.6143 2.13204C18.2783 2.45204 18.0143 2.92404 17.8223 3.54804C17.6303 4.17204 17.4943 4.94004 17.4143 5.85204C17.3343 6.74804 17.2943 7.78004 17.2943 8.94804C17.2943 10.116 17.3343 11.156 17.4143 12.068C17.4943 12.98 17.6303 13.756 17.8223 14.396C18.0143 15.02 18.2703 15.5 18.5903 15.836C18.9263 16.156 19.3423 16.316 19.8383 16.316ZM27.6046 17.54V15.332L31.3246 11.324C32.0286 10.588 32.6126 9.91604 33.0766 9.30804C33.5406 8.70004 33.9006 8.13204 34.1566 7.60404C34.4286 7.06004 34.6206 6.52404 34.7326 5.99604C34.8606 5.46804 34.9246 4.90804 34.9246 4.31604C34.9246 3.70804 34.8366 3.19604 34.6606 2.78004C34.5006 2.36404 34.2686 2.05204 33.9646 1.84404C33.6606 1.63604 33.2766 1.53204 32.8126 1.53204C32.2046 1.53204 31.7246 1.69204 31.3726 2.01204C31.0366 2.33204 30.7966 2.78804 30.6526 3.38004C30.5246 3.95604 30.4606 4.65204 30.4606 5.46804C29.9326 5.46804 29.4606 5.40404 29.0446 5.27604C28.6446 5.13204 28.3326 4.90804 28.1086 4.60404C27.8846 4.30004 27.7726 3.90004 27.7726 3.40404C27.7726 2.79604 27.9566 2.25204 28.3246 1.77204C28.7086 1.27604 29.2766 0.884038 30.0286 0.596038C30.7806 0.308038 31.7086 0.164038 32.8126 0.164038C33.9486 0.164038 34.9086 0.324038 35.6926 0.644038C36.4766 0.964038 37.0686 1.42804 37.4686 2.03604C37.8846 2.62804 38.0926 3.33204 38.0926 4.14804C38.0926 4.59604 38.0286 5.03604 37.9006 5.46804C37.7726 5.90004 37.5806 6.34004 37.3246 6.78804C37.0686 7.23604 36.7326 7.72404 36.3166 8.25204C35.9006 8.76404 35.3886 9.33204 34.7806 9.95604C34.1886 10.58 33.5006 11.276 32.7166 12.044L29.6926 15.164H35.2606C35.8366 15.164 36.2766 15.012 36.5806 14.708C36.9006 14.388 37.1326 13.972 37.2766 13.46L37.4206 12.836H38.6926L38.5726 17.54H27.6046ZM42.2588 17.54V16.364H44.0828C44.3868 16.364 44.6508 16.324 44.8748 16.244C45.0988 16.148 45.2668 15.988 45.3788 15.764C45.5068 15.524 45.5708 15.188 45.5708 14.756V2.49204C45.1708 2.98804 44.7948 3.42804 44.4428 3.81204C44.0908 4.18004 43.7548 4.46804 43.4348 4.67604C43.1148 4.88404 42.7948 4.98804 42.4748 4.98804C42.1068 4.98804 41.7948 4.84404 41.5388 4.55604C41.2828 4.26804 41.1548 3.88404 41.1548 3.40404C41.4748 3.32404 41.8108 3.22004 42.1628 3.09204C42.5308 2.94804 42.9228 2.75604 43.3388 2.51604C43.7708 2.26004 44.2508 1.94004 44.7788 1.55604L46.4588 0.308038H48.7148V14.756C48.7148 15.14 48.7628 15.452 48.8588 15.692C48.9708 15.932 49.1388 16.108 49.3628 16.22C49.5868 16.316 49.8748 16.364 50.2268 16.364H51.8588V17.54H42.2588Z" fill="#F1AE12"/>
</svg>
