<svg width="160" height="64" viewBox="0 0 160 64" fill="none" xmlns="http://www.w3.org/2000/svg">
<path d="M52.4562 18V16.248L56.4642 11.616C57.1042 10.88 57.6402 10.216 58.0722 9.624C58.5042 9.032 58.8482 8.48 59.1042 7.968C59.3762 7.456 59.5682 6.952 59.6802 6.456C59.8082 5.944 59.8722 5.416 59.8722 4.872C59.8722 4.264 59.7842 3.736 59.6082 3.288C59.4322 2.824 59.1602 2.464 58.7922 2.208C58.4402 1.952 57.9842 1.824 57.4242 1.824C56.7042 1.824 56.1522 1.992 55.7682 2.328C55.3842 2.664 55.1202 3.104 54.9762 3.648C54.8482 4.176 54.7842 4.76 54.7842 5.4C54.4002 5.4 54.0482 5.36 53.7282 5.28C53.4242 5.184 53.1762 5.024 52.9842 4.8C52.8082 4.56 52.7202 4.24 52.7202 3.84C52.7202 3.216 52.8962 2.664 53.2482 2.184C53.6002 1.704 54.1282 1.328 54.8322 1.056C55.5362 0.767999 56.4002 0.623999 57.4242 0.623999C58.4322 0.623999 59.2962 0.791999 60.0162 1.128C60.7522 1.448 61.3122 1.912 61.6962 2.52C62.0962 3.112 62.2962 3.816 62.2962 4.632C62.2962 5.08 62.2322 5.52 62.1042 5.952C61.9922 6.384 61.8242 6.816 61.6002 7.248C61.3762 7.68 61.1042 8.128 60.7842 8.592C60.4642 9.04 60.0962 9.512 59.6802 10.008C59.2642 10.504 58.8002 11.032 58.2882 11.592L54.2322 16.08L59.7762 16.08C60.4962 16.08 60.9842 15.896 61.2402 15.528C61.4962 15.16 61.6802 14.744 61.7922 14.28L61.8882 13.848H62.8962L62.7762 18L52.4562 18ZM71.1184 18.24C69.8064 18.24 68.7344 17.872 67.9024 17.136C67.0704 16.4 66.4544 15.368 66.0544 14.04C65.6704 12.712 65.4784 11.16 65.4784 9.384C65.4784 7.608 65.6704 6.064 66.0544 4.752C66.4544 3.44 67.0704 2.424 67.9024 1.704C68.7344 0.983999 69.8144 0.623999 71.1424 0.623999C72.3904 0.623999 73.4304 0.983999 74.2624 1.704C75.0944 2.424 75.7104 3.448 76.1104 4.776C76.5264 6.088 76.7344 7.632 76.7344 9.408C76.7344 11.184 76.5264 12.736 76.1104 14.064C75.6944 15.376 75.0704 16.4 74.2384 17.136C73.4224 17.872 72.3824 18.24 71.1184 18.24ZM71.1184 16.944C71.6944 16.944 72.1824 16.776 72.5824 16.44C72.9824 16.104 73.3024 15.616 73.5424 14.976C73.7824 14.32 73.9584 13.528 74.0704 12.6C74.1824 11.656 74.2384 10.592 74.2384 9.408C74.2384 8.224 74.1824 7.168 74.0704 6.24C73.9744 5.312 73.7984 4.528 73.5424 3.888C73.3024 3.248 72.9824 2.76 72.5824 2.424C72.1984 2.088 71.7184 1.92 71.1424 1.92C70.5504 1.92 70.0544 2.088 69.6544 2.424C69.2544 2.76 68.9264 3.248 68.6704 3.888C68.4304 4.528 68.2544 5.312 68.1424 6.24C68.0304 7.168 67.9744 8.224 67.9744 9.408C67.9744 10.592 68.0304 11.656 68.1424 12.6C68.2544 13.528 68.4304 14.32 68.6704 14.976C68.9104 15.616 69.2304 16.104 69.6304 16.44C70.0464 16.776 70.5424 16.944 71.1184 16.944ZM79.2687 18V16.248L83.2767 11.616C83.9167 10.88 84.4527 10.216 84.8847 9.624C85.3167 9.032 85.6607 8.48 85.9167 7.968C86.1887 7.456 86.3807 6.952 86.4927 6.456C86.6207 5.944 86.6847 5.416 86.6847 4.872C86.6847 4.264 86.5967 3.736 86.4207 3.288C86.2447 2.824 85.9727 2.464 85.6047 2.208C85.2527 1.952 84.7967 1.824 84.2367 1.824C83.5167 1.824 82.9647 1.992 82.5807 2.328C82.1967 2.664 81.9327 3.104 81.7887 3.648C81.6607 4.176 81.5967 4.76 81.5967 5.4C81.2127 5.4 80.8607 5.36 80.5407 5.28C80.2367 5.184 79.9887 5.024 79.7967 4.8C79.6207 4.56 79.5327 4.24 79.5327 3.84C79.5327 3.216 79.7087 2.664 80.0607 2.184C80.4127 1.704 80.9407 1.328 81.6447 1.056C82.3487 0.767999 83.2127 0.623999 84.2367 0.623999C85.2447 0.623999 86.1087 0.791999 86.8287 1.128C87.5647 1.448 88.1247 1.912 88.5087 2.52C88.9087 3.112 89.1087 3.816 89.1087 4.632C89.1087 5.08 89.0447 5.52 88.9167 5.952C88.8047 6.384 88.6367 6.816 88.4127 7.248C88.1887 7.68 87.9167 8.128 87.5967 8.592C87.2767 9.04 86.9087 9.512 86.4927 10.008C86.0767 10.504 85.6127 11.032 85.1007 11.592L81.0447 16.08H86.5887C87.3087 16.08 87.7967 15.896 88.0527 15.528C88.3087 15.16 88.4927 14.744 88.6047 14.28L88.7007 13.848H89.7087L89.5887 18H79.2687ZM93.5149 18V16.992H95.1229C95.4909 16.992 95.8189 16.952 96.1069 16.872C96.4109 16.792 96.6509 16.632 96.8269 16.392C97.0029 16.136 97.0909 15.76 97.0909 15.264V2.664C96.6909 3.16 96.3149 3.6 95.9629 3.984C95.6109 4.352 95.2749 4.64 94.9549 4.848C94.6349 5.056 94.3149 5.16 93.9949 5.16C93.6429 5.16 93.3549 5.04 93.1309 4.8C92.9069 4.56 92.7949 4.248 92.7949 3.864C93.1149 3.784 93.4429 3.68 93.7789 3.552C94.1149 3.408 94.4829 3.216 94.8829 2.976C95.2989 2.72 95.7709 2.4 96.2989 2.016L97.9789 0.767999H99.5149V15.264C99.5149 15.76 99.6029 16.136 99.7789 16.392C99.9549 16.632 100.195 16.792 100.499 16.872C100.803 16.952 101.131 16.992 101.483 16.992H102.659V18H93.5149ZM111.764 18V16.992H112.076C112.428 16.992 112.748 16.96 113.036 16.896C113.34 16.816 113.58 16.664 113.756 16.44C113.948 16.2 114.044 15.848 114.044 15.384V3.504C114.044 3.024 113.948 2.672 113.756 2.448C113.58 2.208 113.34 2.056 113.036 1.992C112.748 1.912 112.428 1.872 112.076 1.872H111.764V0.863999H117.236L122.204 14.592L127.124 0.863999L132.452 0.863999V1.872H132.14C131.788 1.872 131.46 1.912 131.156 1.992C130.852 2.072 130.612 2.232 130.436 2.472C130.26 2.712 130.172 3.088 130.172 3.6V15.264C130.172 15.76 130.26 16.136 130.436 16.392C130.612 16.632 130.852 16.792 131.156 16.872C131.46 16.952 131.788 16.992 132.14 16.992H132.452V18H126.068V16.992H126.14C126.492 16.992 126.788 16.96 127.028 16.896C127.284 16.816 127.484 16.672 127.628 16.464C127.772 16.24 127.852 15.912 127.868 15.48V2.664L122.372 18H121.076L115.508 2.712V15.264C115.508 15.76 115.572 16.136 115.7 16.392C115.844 16.632 116.044 16.792 116.3 16.872C116.572 16.952 116.884 16.992 117.236 16.992H117.308V18H111.764ZM138.295 18.24C137.591 18.24 136.951 18.104 136.375 17.832C135.815 17.544 135.375 17.12 135.055 16.56C134.735 15.984 134.575 15.264 134.575 14.4C134.575 13.12 135.023 12.176 135.919 11.568C136.831 10.96 138.207 10.624 140.047 10.56L142.039 10.488V9.048C142.039 8.472 141.991 7.968 141.895 7.536C141.799 7.088 141.591 6.736 141.271 6.48C140.951 6.224 140.463 6.096 139.807 6.096C139.199 6.096 138.735 6.208 138.415 6.432C138.095 6.656 137.879 6.968 137.767 7.368C137.671 7.752 137.623 8.2 137.623 8.712C136.951 8.712 136.439 8.6 136.087 8.376C135.751 8.136 135.583 7.744 135.583 7.2C135.583 6.64 135.775 6.192 136.159 5.856C136.559 5.52 137.087 5.28 137.743 5.136C138.399 4.976 139.119 4.896 139.903 4.896C141.375 4.896 142.471 5.208 143.191 5.832C143.927 6.456 144.295 7.528 144.295 9.048V15.264C144.295 15.712 144.343 16.064 144.439 16.32C144.535 16.56 144.695 16.736 144.919 16.848C145.143 16.944 145.431 16.992 145.783 16.992H145.855V18H142.615L142.231 15.936H142.039C141.703 16.384 141.375 16.784 141.055 17.136C140.735 17.472 140.359 17.744 139.927 17.952C139.511 18.144 138.967 18.24 138.295 18.24ZM138.847 16.752C139.503 16.752 140.063 16.616 140.527 16.344C141.007 16.072 141.375 15.688 141.631 15.192C141.903 14.68 142.039 14.088 142.039 13.416V11.472L140.503 11.544C139.591 11.576 138.871 11.712 138.343 11.952C137.831 12.192 137.463 12.528 137.239 12.96C137.015 13.376 136.903 13.896 136.903 14.52C136.903 15.016 136.975 15.432 137.119 15.768C137.263 16.088 137.479 16.336 137.767 16.512C138.055 16.672 138.415 16.752 138.847 16.752ZM147.342 22.632C148.158 22.632 148.862 22.512 149.454 22.272C150.046 22.032 150.55 21.696 150.966 21.264C151.382 20.848 151.734 20.352 152.022 19.776C152.31 19.2 152.55 18.576 152.742 17.904L148.302 7.416C148.158 7.08 148.014 6.824 147.87 6.648C147.726 6.456 147.558 6.328 147.366 6.264C147.174 6.184 146.918 6.144 146.598 6.144H146.526V5.136H152.286V6.144H152.214C151.734 6.144 151.374 6.24 151.134 6.432C150.894 6.608 150.774 6.896 150.774 7.296C150.774 7.424 150.79 7.56 150.822 7.704C150.854 7.848 150.902 8.008 150.966 8.184L152.718 12.456C152.83 12.728 152.942 13.024 153.054 13.344C153.182 13.664 153.302 13.984 153.414 14.304C153.526 14.624 153.622 14.928 153.702 15.216C153.782 15.504 153.838 15.744 153.87 15.936C153.982 15.472 154.126 14.992 154.302 14.496C154.494 14 154.67 13.512 154.83 13.032L156.438 8.352C156.518 8.16 156.574 7.976 156.606 7.8C156.638 7.608 156.654 7.448 156.654 7.32C156.654 6.904 156.518 6.608 156.246 6.432C155.99 6.24 155.598 6.144 155.07 6.144H154.998V5.136L159.99 5.136V6.144H159.918C159.614 6.144 159.358 6.192 159.15 6.288C158.942 6.384 158.758 6.568 158.598 6.84C158.454 7.112 158.286 7.504 158.094 8.016L154.446 18.096C154.03 19.264 153.63 20.216 153.246 20.952C152.862 21.688 152.43 22.256 151.95 22.656C151.486 23.072 150.902 23.36 150.198 23.52C149.494 23.68 148.614 23.76 147.558 23.76H147.342V22.632Z" fill="white"/>
<path d="M9.07375 44.416C8.52975 44.416 8.04175 44.536 7.60975 44.776C7.17775 45 6.80975 45.336 6.50575 45.784C6.20175 46.216 5.96975 46.744 5.80975 47.368C5.64975 47.992 5.56975 48.704 5.56975 49.504C5.56975 50.576 5.70575 51.48 5.97775 52.216C6.24975 52.952 6.66575 53.512 7.22575 53.896C7.78575 54.264 8.48975 54.448 9.33775 54.448C10.0898 54.448 10.8178 54.344 11.5218 54.136C12.2418 53.928 12.9618 53.672 13.6818 53.368V57.28C12.9298 57.616 12.1538 57.856 11.3538 58C10.5698 58.16 9.72975 58.24 8.83375 58.24C6.97775 58.24 5.45775 57.872 4.27375 57.136C3.08975 56.4 2.21775 55.376 1.65775 54.064C1.09775 52.736 0.81775 51.208 0.81775 49.48C0.81775 48.184 0.99375 47 1.34575 45.928C1.71375 44.84 2.24975 43.904 2.95375 43.12C3.65775 42.32 4.52175 41.704 5.54575 41.272C6.58575 40.84 7.77775 40.624 9.12175 40.624C9.95375 40.624 10.8258 40.72 11.7378 40.912C12.6498 41.104 13.5458 41.408 14.4258 41.824L13.0098 45.472C12.3858 45.168 11.7538 44.92 11.1138 44.728C10.4738 44.52 9.79375 44.416 9.07375 44.416ZM15.1557 44.728H19.9797L22.2357 52.336C22.2677 52.448 22.2997 52.584 22.3317 52.744C22.3637 52.904 22.3877 53.072 22.4037 53.248C22.4357 53.424 22.4517 53.6 22.4517 53.776H22.5477C22.5797 53.456 22.6197 53.184 22.6677 52.96C22.7317 52.72 22.7877 52.52 22.8357 52.36L25.1397 44.728H29.8197L24.5637 58.84C24.1637 59.912 23.6917 60.816 23.1477 61.552C22.6197 62.288 21.9637 62.84 21.1797 63.208C20.3957 63.576 19.4197 63.76 18.2517 63.76C17.8357 63.76 17.4757 63.736 17.1717 63.688C16.8677 63.656 16.6037 63.616 16.3797 63.568V59.968C16.5557 60 16.7637 60.032 17.0037 60.064C17.2597 60.096 17.5237 60.112 17.7957 60.112C18.3077 60.112 18.7157 60.008 19.0197 59.8C19.3397 59.592 19.6037 59.32 19.8117 58.984C20.0197 58.664 20.1957 58.312 20.3397 57.928L20.3877 57.808L15.1557 44.728ZM37.4601 58.24C36.1161 58.24 34.9481 58 33.9561 57.52C32.9641 57.04 32.1961 56.296 31.6521 55.288C31.1081 54.28 30.8361 52.992 30.8361 51.424C30.8361 49.808 31.1401 48.496 31.7481 47.488C32.3561 46.464 33.1801 45.712 34.2201 45.232C35.2761 44.736 36.4761 44.488 37.8201 44.488C38.6361 44.488 39.4041 44.576 40.1241 44.752C40.8601 44.928 41.5401 45.176 42.1641 45.496L40.8201 48.88C40.2761 48.64 39.7641 48.448 39.2841 48.304C38.8201 48.16 38.3321 48.088 37.8201 48.088C37.3561 48.088 36.9481 48.208 36.5961 48.448C36.2441 48.688 35.9721 49.056 35.7801 49.552C35.5881 50.032 35.4921 50.648 35.4921 51.4C35.4921 52.168 35.5881 52.784 35.7801 53.248C35.9881 53.712 36.2681 54.056 36.6201 54.28C36.9721 54.488 37.3801 54.592 37.8441 54.592C38.5001 54.592 39.1561 54.488 39.8121 54.28C40.4841 54.072 41.1161 53.784 41.7081 53.416V57.064C41.1641 57.416 40.5481 57.704 39.8601 57.928C39.1721 58.136 38.3721 58.24 37.4601 58.24ZM48.9336 58H44.3496V39.76H48.9336V58ZM64.7794 51.328C64.7794 52.432 64.6274 53.416 64.3234 54.28C64.0194 55.144 63.5794 55.872 63.0034 56.464C62.4274 57.04 61.7314 57.48 60.9154 57.784C60.0994 58.088 59.1714 58.24 58.1314 58.24C57.1714 58.24 56.2834 58.088 55.4674 57.784C54.6674 57.48 53.9714 57.04 53.3794 56.464C52.8034 55.872 52.3474 55.144 52.0114 54.28C51.6914 53.416 51.5314 52.432 51.5314 51.328C51.5314 49.856 51.7954 48.616 52.3234 47.608C52.8674 46.584 53.6354 45.808 54.6274 45.28C55.6194 44.752 56.8114 44.488 58.2034 44.488C59.4834 44.488 60.6114 44.752 61.5874 45.28C62.5794 45.808 63.3554 46.584 63.9154 47.608C64.4914 48.616 64.7794 49.856 64.7794 51.328ZM56.1874 51.328C56.1874 52.08 56.2514 52.72 56.3794 53.248C56.5074 53.776 56.7154 54.176 57.0034 54.448C57.3074 54.704 57.6994 54.832 58.1794 54.832C58.6594 54.832 59.0354 54.704 59.3074 54.448C59.5954 54.176 59.8034 53.776 59.9314 53.248C60.0594 52.72 60.1234 52.08 60.1234 51.328C60.1234 50.576 60.0594 49.944 59.9314 49.432C59.8034 48.92 59.5954 48.536 59.3074 48.28C59.0194 48.024 58.6354 47.896 58.1554 47.896C57.4674 47.896 56.9634 48.184 56.6434 48.76C56.3394 49.336 56.1874 50.192 56.1874 51.328ZM75.6927 44.488C77.0687 44.488 78.1887 44.872 79.0527 45.64C79.9167 46.408 80.3487 47.648 80.3487 49.36V58H75.7647V50.752C75.7647 49.872 75.6367 49.208 75.3807 48.76C75.1247 48.312 74.7167 48.088 74.1567 48.088C73.2927 48.088 72.7087 48.44 72.4047 49.144C72.1167 49.848 71.9727 50.864 71.9727 52.192V58H67.3887V44.728H70.8447L71.4687 46.48H71.6367C71.9247 46.064 72.2607 45.712 72.6447 45.424C73.0447 45.12 73.4927 44.888 73.9887 44.728C74.5007 44.568 75.0687 44.488 75.6927 44.488ZM89.4428 44.488C90.7388 44.488 91.8508 44.712 92.7788 45.16C93.7228 45.608 94.4428 46.28 94.9388 47.176C95.4508 48.072 95.7068 49.2 95.7068 50.56V52.6H87.5228C87.5548 53.288 87.8108 53.856 88.2908 54.304C88.7868 54.752 89.4988 54.976 90.4268 54.976C91.2588 54.976 92.0188 54.896 92.7068 54.736C93.3948 54.576 94.1068 54.32 94.8428 53.968V57.256C94.2028 57.592 93.4988 57.84 92.7308 58C91.9788 58.16 91.0268 58.24 89.8748 58.24C88.5308 58.24 87.3308 58.008 86.2748 57.544C85.2348 57.064 84.4108 56.32 83.8028 55.312C83.1948 54.304 82.8908 53.016 82.8908 51.448C82.8908 49.848 83.1628 48.536 83.7068 47.512C84.2668 46.488 85.0348 45.728 86.0108 45.232C87.0028 44.736 88.1468 44.488 89.4428 44.488ZM89.6108 47.608C89.0668 47.608 88.6108 47.776 88.2428 48.112C87.8908 48.448 87.6828 48.984 87.6188 49.72H91.5548C91.5548 49.32 91.4748 48.968 91.3148 48.664C91.1708 48.344 90.9548 48.088 90.6668 47.896C90.3788 47.704 90.0268 47.608 89.6108 47.608ZM110.921 47.224L113.873 40.864H118.889L113.249 51.304V58H108.593V51.448L102.953 40.864H107.993L110.921 47.224ZM125.759 44.488C127.439 44.488 128.751 44.904 129.695 45.736C130.639 46.568 131.111 47.752 131.111 49.288V58H127.943L127.055 56.248H126.959C126.591 56.712 126.207 57.096 125.807 57.4C125.423 57.688 124.975 57.896 124.463 58.024C123.951 58.168 123.327 58.24 122.591 58.24C121.823 58.24 121.135 58.088 120.527 57.784C119.919 57.464 119.439 56.992 119.087 56.368C118.735 55.728 118.559 54.92 118.559 53.944C118.559 52.52 119.047 51.464 120.023 50.776C121.015 50.088 122.447 49.704 124.319 49.624L126.527 49.552V49.36C126.527 48.768 126.383 48.352 126.095 48.112C125.807 47.856 125.415 47.728 124.919 47.728C124.391 47.728 123.807 47.824 123.167 48.016C122.527 48.192 121.879 48.424 121.223 48.712L119.903 45.688C120.671 45.288 121.535 44.992 122.495 44.8C123.471 44.592 124.559 44.488 125.759 44.488ZM125.495 52.12C124.663 52.152 124.071 52.304 123.719 52.576C123.383 52.832 123.215 53.2 123.215 53.68C123.215 54.128 123.335 54.464 123.575 54.688C123.815 54.896 124.135 55 124.535 55C125.095 55 125.567 54.824 125.951 54.472C126.351 54.12 126.551 53.664 126.551 53.104V52.072L125.495 52.12ZM140.712 44.488C142.392 44.488 143.704 44.904 144.648 45.736C145.592 46.568 146.064 47.752 146.064 49.288V58H142.896L142.008 56.248H141.912C141.544 56.712 141.16 57.096 140.76 57.4C140.376 57.688 139.928 57.896 139.416 58.024C138.904 58.168 138.28 58.24 137.544 58.24C136.776 58.24 136.088 58.088 135.48 57.784C134.872 57.464 134.392 56.992 134.04 56.368C133.688 55.728 133.512 54.92 133.512 53.944C133.512 52.52 134 51.464 134.976 50.776C135.968 50.088 137.4 49.704 139.272 49.624L141.48 49.552V49.36C141.48 48.768 141.336 48.352 141.048 48.112C140.76 47.856 140.368 47.728 139.872 47.728C139.344 47.728 138.76 47.824 138.12 48.016C137.48 48.192 136.832 48.424 136.176 48.712L134.856 45.688C135.624 45.288 136.488 44.992 137.448 44.8C138.424 44.592 139.512 44.488 140.712 44.488ZM140.448 52.12C139.616 52.152 139.024 52.304 138.672 52.576C138.336 52.832 138.168 53.2 138.168 53.68C138.168 54.128 138.288 54.464 138.528 54.688C138.768 54.896 139.088 55 139.488 55C140.048 55 140.52 54.824 140.904 54.472C141.304 54.12 141.504 53.664 141.504 53.104V52.072L140.448 52.12ZM159.05 53.92C159.05 54.752 158.858 55.496 158.474 56.152C158.106 56.808 157.506 57.32 156.674 57.688C155.858 58.056 154.778 58.24 153.434 58.24C152.49 58.24 151.642 58.184 150.89 58.072C150.154 57.976 149.402 57.784 148.634 57.496V53.824C149.482 54.208 150.338 54.488 151.202 54.664C152.066 54.824 152.746 54.904 153.242 54.904C153.754 54.904 154.13 54.848 154.37 54.736C154.61 54.624 154.73 54.456 154.73 54.232C154.73 54.04 154.65 53.872 154.49 53.728C154.33 53.584 154.042 53.424 153.626 53.248C153.226 53.072 152.65 52.832 151.898 52.528C151.162 52.224 150.546 51.896 150.05 51.544C149.57 51.176 149.21 50.744 148.97 50.248C148.73 49.736 148.61 49.12 148.61 48.4C148.61 47.104 149.106 46.128 150.098 45.472C151.106 44.816 152.434 44.488 154.082 44.488C154.962 44.488 155.786 44.584 156.554 44.776C157.322 44.968 158.122 45.248 158.954 45.616L157.706 48.568C157.274 48.36 156.826 48.184 156.362 48.04C155.914 47.896 155.49 47.784 155.09 47.704C154.706 47.624 154.378 47.584 154.106 47.584C153.754 47.584 153.474 47.632 153.266 47.728C153.074 47.824 152.978 47.96 152.978 48.136C152.978 48.296 153.042 48.44 153.17 48.568C153.314 48.696 153.578 48.84 153.962 49C154.346 49.16 154.906 49.392 155.642 49.696C156.41 50 157.042 50.336 157.538 50.704C158.05 51.056 158.426 51.488 158.666 52C158.922 52.496 159.05 53.136 159.05 53.92Z" fill="#F1AE12"/>
</svg>
