<svg width="151" height="24" viewBox="0 0 151 24" fill="none" xmlns="http://www.w3.org/2000/svg">
<path d="M0.464 18L0.464 16.248L4.472 11.616C5.112 10.88 5.648 10.216 6.08 9.624C6.512 9.032 6.856 8.48 7.112 7.968C7.384 7.456 7.576 6.952 7.688 6.456C7.816 5.944 7.88 5.416 7.88 4.872C7.88 4.264 7.792 3.736 7.616 3.288C7.44 2.824 7.168 2.464 6.8 2.208C6.448 1.952 5.992 1.824 5.432 1.824C4.712 1.824 4.16 1.992 3.776 2.328C3.392 2.664 3.128 3.104 2.984 3.648C2.856 4.176 2.792 4.76 2.792 5.4C2.408 5.4 2.056 5.36 1.736 5.28C1.432 5.184 1.184 5.024 0.992 4.8C0.816 4.56 0.728 4.24 0.728 3.84C0.728 3.216 0.904 2.664 1.256 2.184C1.608 1.704 2.136 1.328 2.84 1.056C3.544 0.767999 4.408 0.623999 5.432 0.623999C6.44 0.623999 7.304 0.791999 8.024 1.128C8.76 1.448 9.32 1.912 9.704 2.52C10.104 3.112 10.304 3.816 10.304 4.632C10.304 5.08 10.24 5.52 10.112 5.952C10 6.384 9.832 6.816 9.608 7.248C9.384 7.68 9.112 8.128 8.792 8.592C8.472 9.04 8.104 9.512 7.688 10.008C7.272 10.504 6.808 11.032 6.296 11.592L2.24 16.08L7.784 16.08C8.504 16.08 8.992 15.896 9.248 15.528C9.504 15.16 9.688 14.744 9.8 14.28L9.896 13.848H10.904L10.784 18L0.464 18ZM19.1263 18.24C17.8143 18.24 16.7423 17.872 15.9103 17.136C15.0783 16.4 14.4623 15.368 14.0623 14.04C13.6783 12.712 13.4863 11.16 13.4863 9.384C13.4863 7.608 13.6783 6.064 14.0623 4.752C14.4623 3.44 15.0783 2.424 15.9103 1.704C16.7423 0.983999 17.8223 0.623999 19.1503 0.623999C20.3983 0.623999 21.4383 0.983999 22.2703 1.704C23.1023 2.424 23.7183 3.448 24.1183 4.776C24.5343 6.088 24.7422 7.632 24.7422 9.408C24.7422 11.184 24.5343 12.736 24.1183 14.064C23.7023 15.376 23.0783 16.4 22.2463 17.136C21.4303 17.872 20.3903 18.24 19.1263 18.24ZM19.1263 16.944C19.7023 16.944 20.1903 16.776 20.5903 16.44C20.9903 16.104 21.3103 15.616 21.5503 14.976C21.7903 14.32 21.9663 13.528 22.0783 12.6C22.1903 11.656 22.2463 10.592 22.2463 9.408C22.2463 8.224 22.1903 7.168 22.0783 6.24C21.9823 5.312 21.8063 4.528 21.5503 3.888C21.3103 3.248 20.9903 2.76 20.5903 2.424C20.2063 2.088 19.7263 1.92 19.1503 1.92C18.5583 1.92 18.0623 2.088 17.6623 2.424C17.2623 2.76 16.9343 3.248 16.6783 3.888C16.4383 4.528 16.2623 5.312 16.1503 6.24C16.0383 7.168 15.9823 8.224 15.9823 9.408C15.9823 10.592 16.0383 11.656 16.1503 12.6C16.2623 13.528 16.4383 14.32 16.6783 14.976C16.9183 15.616 17.2383 16.104 17.6383 16.44C18.0543 16.776 18.5503 16.944 19.1263 16.944ZM27.2765 18V16.248L31.2845 11.616C31.9245 10.88 32.4605 10.216 32.8925 9.624C33.3245 9.032 33.6685 8.48 33.9245 7.968C34.1965 7.456 34.3885 6.952 34.5005 6.456C34.6285 5.944 34.6925 5.416 34.6925 4.872C34.6925 4.264 34.6045 3.736 34.4285 3.288C34.2525 2.824 33.9805 2.464 33.6125 2.208C33.2605 1.952 32.8045 1.824 32.2445 1.824C31.5245 1.824 30.9725 1.992 30.5885 2.328C30.2045 2.664 29.9405 3.104 29.7965 3.648C29.6685 4.176 29.6045 4.76 29.6045 5.4C29.2205 5.4 28.8685 5.36 28.5485 5.28C28.2445 5.184 27.9965 5.024 27.8045 4.8C27.6285 4.56 27.5405 4.24 27.5405 3.84C27.5405 3.216 27.7165 2.664 28.0685 2.184C28.4205 1.704 28.9485 1.328 29.6525 1.056C30.3565 0.767999 31.2205 0.623999 32.2445 0.623999C33.2525 0.623999 34.1165 0.791999 34.8365 1.128C35.5725 1.448 36.1325 1.912 36.5165 2.52C36.9165 3.112 37.1165 3.816 37.1165 4.632C37.1165 5.08 37.0525 5.52 36.9245 5.952C36.8125 6.384 36.6445 6.816 36.4205 7.248C36.1965 7.68 35.9245 8.128 35.6045 8.592C35.2845 9.04 34.9165 9.512 34.5005 10.008C34.0845 10.504 33.6205 11.032 33.1085 11.592L29.0525 16.08H34.5965C35.3165 16.08 35.8045 15.896 36.0605 15.528C36.3165 15.16 36.5005 14.744 36.6125 14.28L36.7085 13.848H37.7165L37.5965 18H27.2765ZM40.6828 18V16.248L44.6908 11.616C45.3308 10.88 45.8668 10.216 46.2988 9.624C46.7308 9.032 47.0748 8.48 47.3308 7.968C47.6028 7.456 47.7948 6.952 47.9068 6.456C48.0348 5.944 48.0988 5.416 48.0988 4.872C48.0988 4.264 48.0108 3.736 47.8348 3.288C47.6588 2.824 47.3868 2.464 47.0188 2.208C46.6668 1.952 46.2108 1.824 45.6508 1.824C44.9308 1.824 44.3788 1.992 43.9948 2.328C43.6108 2.664 43.3468 3.104 43.2028 3.648C43.0748 4.176 43.0108 4.76 43.0108 5.4C42.6268 5.4 42.2748 5.36 41.9548 5.28C41.6508 5.184 41.4028 5.024 41.2108 4.8C41.0348 4.56 40.9468 4.24 40.9468 3.84C40.9468 3.216 41.1228 2.664 41.4748 2.184C41.8268 1.704 42.3548 1.328 43.0588 1.056C43.7628 0.767999 44.6268 0.623999 45.6508 0.623999C46.6588 0.623999 47.5228 0.791999 48.2428 1.128C48.9788 1.448 49.5388 1.912 49.9228 2.52C50.3228 3.112 50.5228 3.816 50.5228 4.632C50.5228 5.08 50.4588 5.52 50.3308 5.952C50.2188 6.384 50.0508 6.816 49.8268 7.248C49.6028 7.68 49.3308 8.128 49.0108 8.592C48.6908 9.04 48.3228 9.512 47.9068 10.008C47.4908 10.504 47.0268 11.032 46.5148 11.592L42.4588 16.08H48.0028C48.7228 16.08 49.2108 15.896 49.4668 15.528C49.7228 15.16 49.9068 14.744 50.0188 14.28L50.1148 13.848H51.1228L51.0028 18L40.6828 18ZM58.5954 23.76L58.5954 22.632H58.8114C59.4994 22.632 60.0834 22.496 60.5634 22.224C61.0434 21.968 61.4114 21.512 61.6674 20.856C61.9234 20.216 62.0514 19.336 62.0514 18.216V3.504C62.0514 3.024 61.9554 2.672 61.7634 2.448C61.5874 2.208 61.3474 2.056 61.0434 1.992C60.7554 1.912 60.4354 1.872 60.0834 1.872H59.7714V0.863999L66.7554 0.863999V1.872H66.4434C66.0914 1.872 65.7634 1.912 65.4594 1.992C65.1554 2.072 64.9154 2.232 64.7394 2.472C64.5634 2.712 64.4754 3.088 64.4754 3.6V18.192C64.4754 19.264 64.3314 20.16 64.0434 20.88C63.7714 21.6 63.3874 22.168 62.8914 22.584C62.3954 23 61.8114 23.296 61.1394 23.472C60.4834 23.664 59.7714 23.76 59.0034 23.76H58.5954ZM72.3575 18.24C71.6535 18.24 71.0135 18.104 70.4375 17.832C69.8775 17.544 69.4375 17.12 69.1175 16.56C68.7975 15.984 68.6375 15.264 68.6375 14.4C68.6375 13.12 69.0855 12.176 69.9815 11.568C70.8935 10.96 72.2695 10.624 74.1095 10.56L76.1015 10.488V9.048C76.1015 8.472 76.0535 7.968 75.9575 7.536C75.8615 7.088 75.6535 6.736 75.3335 6.48C75.0135 6.224 74.5255 6.096 73.8695 6.096C73.2615 6.096 72.7975 6.208 72.4775 6.432C72.1575 6.656 71.9415 6.968 71.8295 7.368C71.7335 7.752 71.6855 8.2 71.6855 8.712C71.0135 8.712 70.5015 8.6 70.1495 8.376C69.8135 8.136 69.6455 7.744 69.6455 7.2C69.6455 6.64 69.8375 6.192 70.2215 5.856C70.6215 5.52 71.1495 5.28 71.8055 5.136C72.4615 4.976 73.1815 4.896 73.9655 4.896C75.4375 4.896 76.5335 5.208 77.2535 5.832C77.9895 6.456 78.3575 7.528 78.3575 9.048V15.264C78.3575 15.712 78.4055 16.064 78.5015 16.32C78.5975 16.56 78.7575 16.736 78.9815 16.848C79.2055 16.944 79.4935 16.992 79.8455 16.992H79.9175V18H76.6775L76.2935 15.936H76.1015C75.7655 16.384 75.4375 16.784 75.1175 17.136C74.7975 17.472 74.4215 17.744 73.9895 17.952C73.5735 18.144 73.0295 18.24 72.3575 18.24ZM72.9095 16.752C73.5655 16.752 74.1255 16.616 74.5895 16.344C75.0695 16.072 75.4375 15.688 75.6935 15.192C75.9655 14.68 76.1015 14.088 76.1015 13.416V11.472L74.5655 11.544C73.6535 11.576 72.9335 11.712 72.4055 11.952C71.8935 12.192 71.5255 12.528 71.3015 12.96C71.0775 13.376 70.9655 13.896 70.9655 14.52C70.9655 15.016 71.0375 15.432 71.1815 15.768C71.3255 16.088 71.5415 16.336 71.8295 16.512C72.1175 16.672 72.4775 16.752 72.9095 16.752ZM81.6329 18V16.992H81.8249C82.1929 16.992 82.5209 16.952 82.8089 16.872C83.1129 16.792 83.3529 16.632 83.5289 16.392C83.7049 16.136 83.7929 15.76 83.7929 15.264V7.776C83.7929 7.296 83.7049 6.944 83.5289 6.72C83.3529 6.48 83.1209 6.328 82.8329 6.264C82.5449 6.184 82.2249 6.144 81.8729 6.144H81.7529V5.136H85.6409L85.9529 7.08H86.0729C86.4089 6.472 86.7609 6.016 87.1289 5.712C87.5129 5.392 87.9289 5.176 88.3769 5.064C88.8249 4.952 89.3049 4.896 89.8169 4.896C91.0809 4.896 92.0649 5.272 92.7689 6.024C93.4889 6.76 93.8489 7.952 93.8489 9.6V15.264C93.8489 15.76 93.9209 16.136 94.0649 16.392C94.2249 16.632 94.4409 16.792 94.7129 16.872C94.9849 16.952 95.2969 16.992 95.6489 16.992H95.7689V18L91.5929 18V9.72C91.5929 8.68 91.3929 7.872 90.9929 7.296C90.6089 6.72 89.9289 6.432 88.9529 6.432C88.2329 6.432 87.6569 6.616 87.2249 6.984C86.8089 7.336 86.5049 7.808 86.3129 8.4C86.1369 8.992 86.0489 9.632 86.0489 10.32V15.384C86.0489 15.848 86.1369 16.2 86.3129 16.44C86.4889 16.664 86.7209 16.816 87.0089 16.896C87.2969 16.96 87.6169 16.992 87.9689 16.992H88.0889V18H81.6329ZM102.982 18.24C101.718 18.24 100.742 17.872 100.054 17.136C99.3657 16.384 99.0217 15.184 99.0217 13.536V7.776C99.0217 7.296 98.9257 6.944 98.7337 6.72C98.5577 6.48 98.3177 6.328 98.0137 6.264C97.7257 6.184 97.4057 6.144 97.0537 6.144H96.9817V5.136H101.278V13.416C101.278 14.104 101.35 14.696 101.494 15.192C101.654 15.688 101.918 16.064 102.286 16.32C102.654 16.576 103.158 16.704 103.798 16.704C104.502 16.704 105.078 16.544 105.526 16.224C105.974 15.888 106.302 15.432 106.51 14.856C106.718 14.264 106.822 13.584 106.822 12.816V7.872C106.822 7.36 106.734 6.984 106.558 6.744C106.382 6.504 106.142 6.344 105.838 6.264C105.55 6.184 105.222 6.144 104.854 6.144H104.782V5.136L109.078 5.136V15.384C109.078 15.848 109.166 16.2 109.342 16.44C109.534 16.664 109.774 16.816 110.062 16.896C110.366 16.96 110.694 16.992 111.046 16.992H111.118V18L107.302 18L106.99 16.056H106.87C106.63 16.504 106.358 16.872 106.054 17.16C105.766 17.448 105.462 17.672 105.142 17.832C104.822 17.976 104.478 18.08 104.11 18.144C103.742 18.208 103.366 18.24 102.982 18.24ZM116.584 18.24C115.88 18.24 115.24 18.104 114.664 17.832C114.104 17.544 113.664 17.12 113.344 16.56C113.024 15.984 112.864 15.264 112.864 14.4C112.864 13.12 113.312 12.176 114.208 11.568C115.12 10.96 116.496 10.624 118.336 10.56L120.328 10.488V9.048C120.328 8.472 120.28 7.968 120.184 7.536C120.088 7.088 119.88 6.736 119.56 6.48C119.24 6.224 118.752 6.096 118.096 6.096C117.488 6.096 117.024 6.208 116.704 6.432C116.384 6.656 116.168 6.968 116.056 7.368C115.96 7.752 115.912 8.2 115.912 8.712C115.24 8.712 114.728 8.6 114.376 8.376C114.04 8.136 113.872 7.744 113.872 7.2C113.872 6.64 114.064 6.192 114.448 5.856C114.848 5.52 115.376 5.28 116.032 5.136C116.688 4.976 117.408 4.896 118.192 4.896C119.664 4.896 120.76 5.208 121.48 5.832C122.216 6.456 122.584 7.528 122.584 9.048V15.264C122.584 15.712 122.632 16.064 122.728 16.32C122.824 16.56 122.984 16.736 123.208 16.848C123.432 16.944 123.72 16.992 124.072 16.992H124.144V18H120.904L120.52 15.936H120.328C119.992 16.384 119.664 16.784 119.344 17.136C119.024 17.472 118.648 17.744 118.216 17.952C117.8 18.144 117.256 18.24 116.584 18.24ZM117.136 16.752C117.792 16.752 118.352 16.616 118.816 16.344C119.296 16.072 119.664 15.688 119.92 15.192C120.192 14.68 120.328 14.088 120.328 13.416V11.472L118.792 11.544C117.88 11.576 117.16 11.712 116.632 11.952C116.12 12.192 115.752 12.528 115.528 12.96C115.304 13.376 115.192 13.896 115.192 14.52C115.192 15.016 115.264 15.432 115.408 15.768C115.552 16.088 115.768 16.336 116.056 16.512C116.344 16.672 116.704 16.752 117.136 16.752ZM125.979 18V16.992H126.052C126.42 16.992 126.748 16.952 127.036 16.872C127.34 16.792 127.58 16.632 127.756 16.392C127.932 16.136 128.02 15.76 128.02 15.264V7.776C128.02 7.296 127.924 6.944 127.732 6.72C127.556 6.48 127.316 6.328 127.012 6.264C126.724 6.184 126.404 6.144 126.052 6.144H125.979V5.136H129.676L130.132 7.512H130.252C130.46 7.032 130.684 6.592 130.924 6.192C131.164 5.792 131.484 5.48 131.884 5.256C132.284 5.016 132.836 4.896 133.54 4.896C134.42 4.896 135.068 5.048 135.484 5.352C135.916 5.656 136.132 6.088 136.132 6.648C136.132 7.144 135.956 7.552 135.604 7.872C135.268 8.192 134.7 8.352 133.9 8.352C133.9 7.904 133.86 7.544 133.78 7.272C133.7 7 133.564 6.8 133.372 6.672C133.196 6.544 132.948 6.48 132.628 6.48C132.18 6.48 131.804 6.656 131.5 7.008C131.196 7.36 130.956 7.808 130.78 8.352C130.604 8.896 130.476 9.464 130.396 10.056C130.316 10.632 130.276 11.152 130.276 11.616V15.384C130.276 15.848 130.364 16.2 130.54 16.44C130.732 16.664 130.972 16.816 131.26 16.896C131.564 16.96 131.892 16.992 132.243 16.992H132.916V18L125.979 18ZM137.396 22.632C138.212 22.632 138.916 22.512 139.508 22.272C140.1 22.032 140.604 21.696 141.02 21.264C141.436 20.848 141.788 20.352 142.076 19.776C142.364 19.2 142.604 18.576 142.796 17.904L138.356 7.416C138.212 7.08 138.068 6.824 137.924 6.648C137.78 6.456 137.612 6.328 137.42 6.264C137.228 6.184 136.972 6.144 136.652 6.144H136.58V5.136L142.34 5.136V6.144H142.268C141.788 6.144 141.428 6.24 141.188 6.432C140.948 6.608 140.828 6.896 140.828 7.296C140.828 7.424 140.844 7.56 140.876 7.704C140.908 7.848 140.956 8.008 141.02 8.184L142.772 12.456C142.884 12.728 142.996 13.024 143.108 13.344C143.236 13.664 143.356 13.984 143.468 14.304C143.58 14.624 143.676 14.928 143.756 15.216C143.836 15.504 143.892 15.744 143.924 15.936C144.036 15.472 144.18 14.992 144.356 14.496C144.548 14 144.724 13.512 144.884 13.032L146.492 8.352C146.572 8.16 146.628 7.976 146.66 7.8C146.692 7.608 146.708 7.448 146.708 7.32C146.708 6.904 146.572 6.608 146.3 6.432C146.044 6.24 145.652 6.144 145.124 6.144H145.052V5.136L150.044 5.136V6.144H149.972C149.668 6.144 149.412 6.192 149.204 6.288C148.996 6.384 148.812 6.568 148.652 6.84C148.508 7.112 148.34 7.504 148.148 8.016L144.5 18.096C144.084 19.264 143.684 20.216 143.3 20.952C142.916 21.688 142.484 22.256 142.004 22.656C141.54 23.072 140.956 23.36 140.252 23.52C139.548 23.68 138.668 23.76 137.612 23.76H137.396V22.632Z" fill="white"/>
</svg>
