<svg width="52" height="19" viewBox="0 0 52 19" fill="none" xmlns="http://www.w3.org/2000/svg">
<path d="M0.565819 17.9324L0.565819 15.7244L4.28582 11.7164C4.98982 10.9804 5.57382 10.3084 6.03782 9.70037C6.50182 9.09237 6.86182 8.52437 7.11782 7.99637C7.38982 7.45237 7.58182 6.91637 7.69382 6.38837C7.82182 5.86037 7.88582 5.30037 7.88582 4.70837C7.88582 4.10037 7.79782 3.58837 7.62182 3.17237C7.46182 2.75637 7.22982 2.44437 6.92582 2.23637C6.62182 2.02837 6.23782 1.92437 5.77382 1.92437C5.16582 1.92437 4.68582 2.08437 4.33382 2.40437C3.99782 2.72437 3.75782 3.18037 3.61382 3.77237C3.48582 4.34837 3.42182 5.04437 3.42182 5.86037C2.89382 5.86037 2.42182 5.79637 2.00582 5.66837C1.60582 5.52437 1.29382 5.30037 1.06982 4.99637C0.845819 4.69237 0.733819 4.29237 0.733819 3.79637C0.733819 3.18837 0.917819 2.64437 1.28582 2.16437C1.66982 1.66837 2.23782 1.27637 2.98982 0.988372C3.74182 0.700372 4.66982 0.556372 5.77382 0.556372C6.90982 0.556372 7.86982 0.716372 8.65382 1.03637C9.43782 1.35637 10.0298 1.82037 10.4298 2.42837C10.8458 3.02037 11.0538 3.72437 11.0538 4.54037C11.0538 4.98837 10.9898 5.42837 10.8618 5.86037C10.7338 6.29237 10.5418 6.73237 10.2858 7.18037C10.0298 7.62837 9.69382 8.11637 9.27782 8.64437C8.86182 9.15637 8.34982 9.72437 7.74182 10.3484C7.14982 10.9724 6.46182 11.6684 5.67782 12.4364L2.65382 15.5564H8.22182C8.79782 15.5564 9.23782 15.4044 9.54182 15.1004C9.86182 14.7804 10.0938 14.3644 10.2378 13.8524L10.3818 13.2284H11.6538L11.5338 17.9324L0.565819 17.9324ZM19.6121 18.1724C18.2041 18.1724 17.0761 17.8044 16.2281 17.0684C15.3801 16.3324 14.7641 15.3004 14.3801 13.9724C13.9961 12.6444 13.8041 11.0924 13.8041 9.31637C13.8041 7.54037 13.9961 5.99637 14.3801 4.68437C14.7641 3.37237 15.3801 2.35637 16.2281 1.63637C17.0761 0.916372 18.2121 0.556372 19.6361 0.556372C20.9801 0.556372 22.0681 0.916372 22.9001 1.63637C23.7481 2.35637 24.3721 3.38037 24.7721 4.70837C25.1881 6.02037 25.3961 7.56437 25.3961 9.34037C25.3961 11.1164 25.1881 12.6684 24.7721 13.9964C24.3721 15.3084 23.7481 16.3324 22.9001 17.0684C22.0521 17.8044 20.9561 18.1724 19.6121 18.1724ZM19.6121 16.7084C20.1081 16.7084 20.5161 16.5484 20.8361 16.2284C21.1721 15.8924 21.4281 15.4124 21.6041 14.7884C21.7961 14.1484 21.9321 13.3724 22.0121 12.4604C22.0921 11.5484 22.1321 10.5084 22.1321 9.34037C22.1321 8.17237 22.0921 7.14037 22.0121 6.24437C21.9481 5.33237 21.8201 4.56437 21.6281 3.94037C21.4361 3.31637 21.1721 2.84437 20.8361 2.52437C20.5161 2.18837 20.1161 2.02037 19.6361 2.02037C19.1401 2.02037 18.7241 2.18837 18.3881 2.52437C18.0521 2.84437 17.7881 3.31637 17.5961 3.94037C17.4041 4.56437 17.2681 5.33237 17.1881 6.24437C17.1081 7.14037 17.0681 8.17237 17.0681 9.34037C17.0681 10.5084 17.1081 11.5484 17.1881 12.4604C17.2681 13.3724 17.4041 14.1484 17.5961 14.7884C17.7881 15.4124 18.0441 15.8924 18.3641 16.2284C18.7001 16.5484 19.1161 16.7084 19.6121 16.7084ZM27.3783 17.9324V15.7244L31.0983 11.7164C31.8023 10.9804 32.3863 10.3084 32.8503 9.70037C33.3143 9.09237 33.6743 8.52437 33.9303 7.99637C34.2023 7.45237 34.3943 6.91637 34.5063 6.38837C34.6343 5.86037 34.6983 5.30037 34.6983 4.70837C34.6983 4.10037 34.6103 3.58837 34.4343 3.17237C34.2743 2.75637 34.0423 2.44437 33.7383 2.23637C33.4343 2.02837 33.0503 1.92437 32.5863 1.92437C31.9783 1.92437 31.4983 2.08437 31.1463 2.40437C30.8103 2.72437 30.5703 3.18037 30.4263 3.77237C30.2983 4.34837 30.2343 5.04437 30.2343 5.86037C29.7063 5.86037 29.2343 5.79637 28.8183 5.66837C28.4183 5.52437 28.1063 5.30037 27.8823 4.99637C27.6583 4.69237 27.5463 4.29237 27.5463 3.79637C27.5463 3.18837 27.7303 2.64437 28.0983 2.16437C28.4823 1.66837 29.0503 1.27637 29.8023 0.988372C30.5543 0.700372 31.4823 0.556372 32.5863 0.556372C33.7223 0.556372 34.6823 0.716372 35.4663 1.03637C36.2503 1.35637 36.8423 1.82037 37.2423 2.42837C37.6583 3.02037 37.8663 3.72437 37.8663 4.54037C37.8663 4.98837 37.8023 5.42837 37.6743 5.86037C37.5463 6.29237 37.3543 6.73237 37.0983 7.18037C36.8423 7.62837 36.5063 8.11637 36.0903 8.64437C35.6743 9.15637 35.1623 9.72437 34.5543 10.3484C33.9623 10.9724 33.2743 11.6684 32.4903 12.4364L29.4663 15.5564L35.0343 15.5564C35.6103 15.5564 36.0503 15.4044 36.3543 15.1004C36.6743 14.7804 36.9063 14.3644 37.0503 13.8524L37.1943 13.2284H38.4663L38.3463 17.9324L27.3783 17.9324ZM45.5846 18.1724C44.4326 18.1724 43.4886 18.0444 42.7526 17.7884C42.0326 17.5164 41.4966 17.1724 41.1446 16.7564C40.8086 16.3244 40.6406 15.8604 40.6406 15.3644C40.6406 14.8044 40.8166 14.3804 41.1686 14.0924C41.5366 13.7884 41.9766 13.6364 42.4886 13.6364C42.4886 14.2604 42.6086 14.7964 42.8486 15.2444C43.1046 15.6924 43.4566 16.0364 43.9046 16.2764C44.3526 16.5164 44.8806 16.6364 45.4886 16.6364C46.0486 16.6364 46.5686 16.5244 47.0486 16.3004C47.5286 16.0764 47.9126 15.7004 48.2006 15.1724C48.5046 14.6444 48.6566 13.9164 48.6566 12.9884C48.6566 12.3484 48.4966 11.7884 48.1766 11.3084C47.8726 10.8284 47.4246 10.4524 46.8326 10.1804C46.2566 9.90837 45.5526 9.77237 44.7206 9.77237H43.4966V8.38037H44.7686C45.4566 8.38037 46.0486 8.23637 46.5446 7.94837C47.0406 7.64437 47.4166 7.22037 47.6726 6.67637C47.9446 6.13237 48.0806 5.50037 48.0806 4.78037C48.0806 3.88437 47.9046 3.18837 47.5526 2.69237C47.2006 2.18037 46.6406 1.92437 45.8726 1.92437C45.2486 1.92437 44.7686 2.10037 44.4326 2.45237C44.1126 2.80437 43.8886 3.26037 43.7606 3.82037C43.6486 4.36437 43.5926 4.95637 43.5926 5.59637C42.7606 5.59637 42.0966 5.45237 41.6006 5.16437C41.1206 4.86037 40.8806 4.36437 40.8806 3.67637C40.8806 3.08437 41.0726 2.55637 41.4566 2.09237C41.8406 1.61237 42.4086 1.23637 43.1606 0.964373C43.9126 0.692372 44.8406 0.556372 45.9446 0.556372C47.5926 0.556372 48.8966 0.892372 49.8566 1.56437C50.8166 2.23637 51.2966 3.18837 51.2966 4.42037C51.2966 5.14037 51.1366 5.78837 50.8166 6.36437C50.4966 6.94037 50.0566 7.43637 49.4966 7.85237C48.9366 8.26837 48.2966 8.58037 47.5766 8.78837C48.0406 8.86837 48.5206 8.99637 49.0166 9.17237C49.5286 9.34837 50.0006 9.59637 50.4326 9.91637C50.8646 10.2364 51.2166 10.6524 51.4886 11.1644C51.7606 11.6604 51.8966 12.2764 51.8966 13.0124C51.8966 13.9724 51.7126 14.7884 51.3446 15.4604C50.9926 16.1164 50.5046 16.6444 49.8806 17.0444C49.2726 17.4444 48.5926 17.7324 47.8406 17.9084C47.1046 18.0844 46.3526 18.1724 45.5846 18.1724Z" fill="#F1AE12"/>
</svg>
