<svg width="360" height="115" viewBox="0 0 360 115" fill="none" xmlns="http://www.w3.org/2000/svg">
<path d="M106.878 25V22.056L111.838 16.712C112.776 15.7307 113.555 14.8347 114.174 14.024C114.792 13.2133 115.272 12.456 115.614 11.752C115.976 11.0267 116.232 10.312 116.382 9.608C116.552 8.904 116.638 8.15733 116.638 7.368C116.638 6.55733 116.52 5.87467 116.286 5.32C116.072 4.76533 115.763 4.34933 115.358 4.072C114.952 3.79467 114.44 3.656 113.822 3.656C113.011 3.656 112.371 3.86933 111.902 4.296C111.454 4.72267 111.134 5.33067 110.942 6.12C110.771 6.888 110.686 7.816 110.686 8.904C109.982 8.904 109.352 8.81867 108.798 8.648C108.264 8.456 107.848 8.15733 107.549 7.752C107.251 7.34667 107.102 6.81333 107.102 6.152C107.102 5.34133 107.347 4.616 107.838 3.976C108.35 3.31467 109.107 2.792 110.11 2.408C111.112 2.024 112.35 1.832 113.822 1.832C115.336 1.832 116.616 2.04533 117.662 2.472C118.707 2.89867 119.496 3.51733 120.03 4.328C120.584 5.11733 120.862 6.056 120.862 7.144C120.862 7.74133 120.776 8.328 120.606 8.904C120.435 9.48 120.179 10.0667 119.838 10.664C119.496 11.2613 119.048 11.912 118.494 12.616C117.939 13.2987 117.256 14.056 116.446 14.888C115.656 15.72 114.739 16.648 113.694 17.672L109.661 21.832H117.086C117.854 21.832 118.44 21.6293 118.846 21.224C119.272 20.7973 119.582 20.2427 119.774 19.56L119.966 18.728L121.662 18.728L121.502 25L106.878 25ZM132.049 25.32C130.342 25.32 128.923 25.0427 127.793 24.488C126.683 23.9333 125.851 23.1973 125.297 22.28C124.742 21.3627 124.465 20.3387 124.465 19.208C124.465 18.248 124.667 17.4267 125.073 16.744C125.478 16.04 126.033 15.432 126.737 14.92C127.462 14.3867 128.294 13.896 129.233 13.448C128.401 12.9573 127.686 12.4347 127.089 11.88C126.491 11.304 126.022 10.664 125.681 9.96C125.361 9.256 125.201 8.47733 125.201 7.624C125.201 6.62133 125.435 5.68267 125.905 4.808C126.374 3.93333 127.131 3.21867 128.177 2.664C129.243 2.10933 130.662 1.832 132.433 1.832C133.883 1.832 135.099 2.07733 136.081 2.568C137.062 3.03733 137.798 3.688 138.289 4.52C138.801 5.352 139.057 6.312 139.057 7.4C139.057 8.72267 138.662 9.768 137.873 10.536C137.105 11.2827 136.059 11.9973 134.737 12.68C135.931 13.2347 136.923 13.832 137.713 14.472C138.502 15.0907 139.089 15.7627 139.472 16.488C139.856 17.2133 140.049 18.024 140.049 18.92C140.049 20.9467 139.334 22.5253 137.905 23.656C136.497 24.7653 134.545 25.32 132.049 25.32ZM132.209 23.624C133.403 23.624 134.363 23.24 135.089 22.472C135.814 21.704 136.177 20.7227 136.177 19.528C136.177 18.9947 136.081 18.5147 135.889 18.088C135.697 17.64 135.398 17.224 134.993 16.84C134.609 16.456 134.097 16.0827 133.457 15.72C132.817 15.336 132.049 14.9413 131.153 14.536C130.321 15.0267 129.638 15.6667 129.105 16.456C128.593 17.224 128.337 18.184 128.337 19.336C128.337 20.616 128.678 21.6507 129.361 22.44C130.043 23.2293 130.993 23.624 132.209 23.624ZM132.913 11.72C133.553 11.3787 134.054 11.016 134.417 10.632C134.801 10.2267 135.067 9.75733 135.217 9.224C135.387 8.69067 135.473 8.06133 135.473 7.336C135.473 6.696 135.355 6.09867 135.121 5.544C134.907 4.968 134.555 4.49867 134.065 4.136C133.595 3.752 132.987 3.56 132.241 3.56C131.238 3.56 130.47 3.912 129.937 4.616C129.403 5.29867 129.137 6.17333 129.137 7.24C129.137 7.98667 129.275 8.62667 129.553 9.16C129.851 9.672 130.278 10.1307 130.833 10.536C131.409 10.9413 132.102 11.336 132.913 11.72ZM150.564 25.32C149.049 25.32 147.705 24.9253 146.532 24.136C145.38 23.3467 144.473 22.1307 143.812 20.488C143.15 18.824 142.82 16.6907 142.82 14.088C142.82 12.4027 143.001 10.824 143.364 9.352C143.726 7.88 144.27 6.57867 144.996 5.448C145.721 4.31733 146.638 3.432 147.748 2.792C148.857 2.152 150.158 1.832 151.652 1.832C152.974 1.832 154.03 2.00267 154.82 2.344C155.63 2.664 156.217 3.09067 156.58 3.624C156.964 4.136 157.156 4.69066 157.156 5.288C157.156 5.928 156.9 6.472 156.388 6.92C155.876 7.34667 155.033 7.56 153.86 7.56C153.86 6.89867 153.785 6.26933 153.636 5.672C153.486 5.05333 153.241 4.552 152.9 4.168C152.558 3.784 152.078 3.592 151.46 3.592C150.542 3.592 149.753 3.93333 149.092 4.616C148.43 5.29867 147.918 6.29067 147.556 7.592C147.193 8.89333 146.969 10.4933 146.884 12.392C147.204 12.1573 147.566 11.944 147.972 11.752C148.398 11.5387 148.889 11.368 149.444 11.24C149.998 11.112 150.638 11.048 151.364 11.048C153.305 11.048 154.852 11.6347 156.004 12.808C157.177 13.96 157.764 15.5707 157.764 17.64C157.764 19.1333 157.486 20.4667 156.932 21.64C156.377 22.792 155.566 23.6987 154.5 24.36C153.433 25 152.121 25.32 150.564 25.32ZM150.66 23.336C151.3 23.336 151.833 23.144 152.26 22.76C152.708 22.376 153.049 21.7893 153.284 21C153.518 20.2107 153.636 19.1973 153.636 17.96C153.636 16.7867 153.508 15.8267 153.252 15.08C152.996 14.312 152.622 13.7573 152.132 13.416C151.662 13.0533 151.076 12.872 150.372 12.872C149.924 12.872 149.476 12.9573 149.028 13.128C148.58 13.2773 148.164 13.48 147.78 13.736C147.396 13.992 147.086 14.2587 146.852 14.536C146.873 16.0933 146.98 17.4267 147.172 18.536C147.364 19.6453 147.62 20.5627 147.94 21.288C148.281 21.992 148.676 22.5147 149.124 22.856C149.593 23.176 150.105 23.336 150.66 23.336ZM175.119 25.32C173.604 25.32 172.442 24.9467 171.631 24.2C170.842 23.4533 170.447 22.152 170.447 20.296V9.896H168.015V8.392C168.591 8.392 169.135 8.27467 169.647 8.04C170.159 7.80533 170.586 7.51733 170.927 7.176C171.247 6.81333 171.535 6.36533 171.791 5.832C172.047 5.29867 172.25 4.648 172.399 3.88H174.607V7.848L178.735 7.848V9.896H174.607V20.136C174.607 21.1387 174.788 21.8853 175.151 22.376C175.535 22.8453 176.09 23.08 176.815 23.08C177.242 23.08 177.626 23.0587 177.967 23.016C178.33 22.952 178.682 22.8773 179.023 22.792V24.616C178.703 24.7653 178.191 24.9147 177.487 25.064C176.804 25.2347 176.015 25.32 175.119 25.32ZM180.296 25V23.432H180.712C181.074 23.432 181.437 23.3893 181.799 23.304C182.184 23.1973 182.493 22.9947 182.728 22.696C182.984 22.3973 183.112 21.9493 183.112 21.352V11.432C183.112 10.8347 182.984 10.3973 182.728 10.12C182.472 9.82133 182.162 9.62933 181.799 9.544C181.437 9.45867 181.074 9.416 180.712 9.416H180.424V7.848L187.272 7.848V21.288C187.272 21.9067 187.389 22.376 187.624 22.696C187.858 22.9947 188.168 23.1973 188.552 23.304C188.936 23.3893 189.309 23.432 189.672 23.432H190.056V25L180.296 25ZM185.032 4.84C184.37 4.84 183.805 4.66933 183.336 4.328C182.888 3.98667 182.664 3.432 182.664 2.664C182.664 1.87467 182.888 1.32 183.336 0.999998C183.805 0.658665 184.381 0.487999 185.064 0.487999C185.704 0.487999 186.258 0.658665 186.728 0.999998C187.197 1.32 187.432 1.87467 187.432 2.664C187.432 3.432 187.197 3.98667 186.728 4.328C186.258 4.66933 185.693 4.84 185.032 4.84ZM191.299 25V23.432H191.491C191.981 23.432 192.408 23.3787 192.771 23.272C193.155 23.1653 193.453 22.952 193.667 22.632C193.88 22.312 193.987 21.832 193.987 21.192V11.464C193.987 10.8453 193.88 10.3867 193.667 10.088C193.475 9.78933 193.197 9.59733 192.835 9.512C192.493 9.40533 192.088 9.352 191.618 9.352H191.523V7.848L197.603 7.848L198.019 10.248H198.179C198.605 9.43733 199.064 8.84 199.555 8.456C200.045 8.05067 200.579 7.784 201.155 7.656C201.752 7.528 202.381 7.464 203.043 7.464C203.789 7.464 204.472 7.56 205.091 7.752C205.709 7.944 206.253 8.24267 206.722 8.648C207.192 9.032 207.555 9.56533 207.811 10.248H208.067C208.493 9.43733 208.973 8.84 209.507 8.456C210.04 8.05067 210.605 7.784 211.203 7.656C211.821 7.528 212.472 7.464 213.155 7.464C214.797 7.464 216.077 7.95467 216.995 8.936C217.933 9.91733 218.403 11.496 218.403 13.672V21.16C218.403 21.8213 218.488 22.312 218.659 22.632C218.851 22.952 219.117 23.1653 219.459 23.272C219.8 23.3787 220.205 23.432 220.675 23.432H220.771V25L214.243 25V14.28C214.243 12.8933 214.029 11.8267 213.603 11.08C213.176 10.312 212.44 9.928 211.395 9.928C210.648 9.928 210.04 10.1413 209.571 10.568C209.123 10.9947 208.792 11.56 208.579 12.264C208.387 12.968 208.291 13.736 208.291 14.568V21.16C208.291 21.8 208.376 22.2907 208.547 22.632C208.739 22.952 209.005 23.1653 209.347 23.272C209.688 23.3787 210.093 23.432 210.562 23.432H210.659V25H204.131V14.28C204.131 12.8933 203.917 11.8267 203.491 11.08C203.064 10.312 202.328 9.928 201.283 9.928C200.493 9.928 199.864 10.1627 199.395 10.632C198.947 11.1013 198.627 11.72 198.435 12.488C198.243 13.256 198.147 14.088 198.147 14.984V21.32C198.147 21.9387 198.253 22.3973 198.467 22.696C198.68 22.9947 198.968 23.1973 199.331 23.304C199.693 23.3893 200.109 23.432 200.579 23.432H200.675V25H191.299ZM231.162 25.32C228.602 25.32 226.628 24.552 225.242 23.016C223.876 21.4587 223.194 19.2933 223.194 16.52C223.194 13.5333 223.855 11.2827 225.178 9.768C226.522 8.232 228.399 7.464 230.81 7.464C233.05 7.464 234.799 8.11467 236.058 9.416C237.338 10.696 237.978 12.6053 237.978 15.144V16.712H227.418C227.46 18.2053 227.652 19.4213 227.994 20.36C228.356 21.2773 228.858 21.96 229.498 22.408C230.159 22.856 230.959 23.08 231.898 23.08C232.644 23.08 233.306 22.9733 233.882 22.76C234.479 22.5253 234.991 22.2267 235.418 21.864C235.844 21.48 236.186 21.064 236.442 20.616C236.676 20.7227 236.858 20.904 236.986 21.16C237.135 21.3947 237.21 21.672 237.21 21.992C237.21 22.5253 236.986 23.048 236.538 23.56C236.111 24.072 235.45 24.4987 234.554 24.84C233.679 25.16 232.548 25.32 231.162 25.32ZM233.722 14.792C233.722 13.704 233.626 12.7547 233.434 11.944C233.242 11.1333 232.932 10.5147 232.506 10.088C232.1 9.64 231.546 9.416 230.842 9.416C230.159 9.416 229.572 9.61867 229.082 10.024C228.612 10.4293 228.239 11.0373 227.962 11.848C227.706 12.6373 227.546 13.6187 227.482 14.792H233.722ZM246.542 25.32C245.177 25.32 244.046 25.1707 243.15 24.872C242.276 24.5733 241.625 24.1573 241.198 23.624C240.772 23.0693 240.558 22.4293 240.558 21.704C240.558 21.0427 240.708 20.552 241.006 20.232C241.305 19.8907 241.657 19.6667 242.062 19.56C242.468 19.432 242.83 19.368 243.15 19.368C243.15 20.2 243.278 20.936 243.534 21.576C243.812 22.1947 244.206 22.6853 244.718 23.048C245.23 23.3893 245.86 23.56 246.606 23.56C247.737 23.56 248.569 23.3253 249.102 22.856C249.636 22.3867 249.902 21.8 249.902 21.096C249.902 20.6053 249.785 20.1893 249.55 19.848C249.337 19.5067 248.942 19.176 248.366 18.856C247.79 18.536 246.99 18.184 245.966 17.8C244.857 17.3733 243.918 16.9253 243.15 16.456C242.382 15.9653 241.806 15.4 241.422 14.76C241.038 14.12 240.846 13.32 240.846 12.36C240.846 10.76 241.444 9.55467 242.638 8.744C243.833 7.912 245.412 7.496 247.374 7.496C248.612 7.496 249.614 7.63467 250.382 7.912C251.15 8.18933 251.716 8.56267 252.078 9.032C252.441 9.48 252.622 9.96 252.622 10.472C252.622 11.1333 252.388 11.6453 251.918 12.008C251.47 12.3707 250.745 12.552 249.742 12.552C249.742 11.4853 249.508 10.664 249.038 10.088C248.569 9.49067 247.865 9.192 246.926 9.192C246.393 9.192 245.913 9.27733 245.486 9.448C245.081 9.61867 244.761 9.87467 244.526 10.216C244.292 10.536 244.174 10.9307 244.174 11.4C244.174 11.8693 244.302 12.2853 244.558 12.648C244.814 12.9893 245.252 13.32 245.87 13.64C246.489 13.96 247.332 14.312 248.398 14.696C249.422 15.08 250.286 15.5067 250.99 15.976C251.716 16.424 252.27 16.968 252.654 17.608C253.038 18.248 253.23 19.016 253.23 19.912C253.23 21.64 252.633 22.9733 251.438 23.912C250.265 24.8507 248.633 25.32 246.542 25.32ZM3.88763 67.24C3.18363 67.24 2.54363 67.104 1.96763 66.832C1.40763 66.544 0.959625 66.112 0.623625 65.536C0.303625 64.96 0.143625 64.232 0.143625 63.352C0.143625 62.072 0.591625 61.12 1.48763 60.496C2.38363 59.872 3.73563 59.528 5.54363 59.464L7.53563 59.392V58.024C7.53563 57.48 7.49563 57 7.41563 56.584C7.33563 56.152 7.16763 55.816 6.91163 55.576C6.67163 55.336 6.28763 55.216 5.75963 55.216C5.27963 55.216 4.90363 55.328 4.63163 55.552C4.35963 55.776 4.17563 56.088 4.07963 56.488C3.98363 56.872 3.93563 57.312 3.93563 57.808C3.00763 57.808 2.31163 57.696 1.84763 57.472C1.38363 57.232 1.15163 56.824 1.15163 56.248C1.15163 55.672 1.35963 55.208 1.77563 54.856C2.20763 54.504 2.78363 54.248 3.50363 54.088C4.22363 53.928 5.00763 53.848 5.85563 53.848C7.45563 53.848 8.65563 54.16 9.45563 54.784C10.2556 55.392 10.6556 56.448 10.6556 57.952V64.12C10.6556 64.552 10.6956 64.896 10.7756 65.152C10.8716 65.392 11.0316 65.568 11.2556 65.68C11.4796 65.776 11.7676 65.824 12.1196 65.824H12.1916V67H8.20763L7.72763 65.2H7.53563C7.18363 65.632 6.84763 66 6.52763 66.304C6.22363 66.608 5.86363 66.84 5.44763 67C5.04763 67.16 4.52763 67.24 3.88763 67.24ZM4.91963 65.584C5.46363 65.584 5.92763 65.456 6.31163 65.2C6.69563 64.944 6.99163 64.576 7.19963 64.096C7.42363 63.616 7.53563 63.056 7.53563 62.416V60.568L6.28763 60.64C5.53563 60.672 4.94363 60.8 4.51163 61.024C4.09563 61.248 3.79163 61.56 3.59963 61.96C3.42363 62.36 3.33563 62.856 3.33563 63.448C3.33563 63.928 3.39163 64.328 3.50363 64.648C3.61563 64.952 3.79163 65.184 4.03163 65.344C4.27163 65.504 4.56763 65.584 4.91963 65.584ZM13.6547 67V65.824H13.7267C14.0947 65.824 14.4147 65.784 14.6867 65.704C14.9747 65.624 15.1987 65.464 15.3587 65.224C15.5347 64.968 15.6227 64.592 15.6227 64.096V56.944C15.6227 56.464 15.5427 56.112 15.3827 55.888C15.2227 55.648 15.0067 55.496 14.7347 55.432C14.4627 55.352 14.1507 55.312 13.7987 55.312H13.7267V54.136H18.1427L18.5987 56.2H18.7187C18.9267 55.72 19.1587 55.304 19.4147 54.952C19.6867 54.6 20.0307 54.336 20.4467 54.16C20.8627 53.968 21.4067 53.872 22.0787 53.872C22.9907 53.872 23.6627 54.032 24.0947 54.352C24.5427 54.672 24.7667 55.136 24.7667 55.744C24.7667 56.384 24.5347 56.896 24.0707 57.28C23.6067 57.648 22.9267 57.832 22.0307 57.832C22.0307 57.384 21.9907 57.024 21.9107 56.752C21.8467 56.464 21.7267 56.248 21.5507 56.104C21.3747 55.96 21.1347 55.888 20.8307 55.888C20.3987 55.888 20.0467 56.048 19.7747 56.368C19.5027 56.672 19.2867 57.056 19.1267 57.52C18.9827 57.984 18.8787 58.464 18.8147 58.96C18.7667 59.456 18.7427 59.872 18.7427 60.208V64.216C18.7427 64.68 18.8227 65.032 18.9827 65.272C19.1427 65.496 19.3587 65.648 19.6307 65.728C19.9027 65.792 20.1987 65.824 20.5187 65.824H21.2627V67H13.6547ZM32.301 67.24C30.381 67.24 28.901 66.664 27.861 65.512C26.837 64.344 26.325 62.72 26.325 60.64C26.325 58.4 26.821 56.712 27.813 55.576C28.821 54.424 30.229 53.848 32.037 53.848C33.717 53.848 35.029 54.336 35.973 55.312C36.933 56.272 37.413 57.704 37.413 59.608V60.784H29.493C29.525 61.904 29.669 62.816 29.925 63.52C30.197 64.208 30.573 64.72 31.053 65.056C31.549 65.392 32.149 65.56 32.853 65.56C33.413 65.56 33.909 65.48 34.341 65.32C34.789 65.144 35.173 64.92 35.493 64.648C35.813 64.36 36.069 64.048 36.261 63.712C36.437 63.792 36.573 63.928 36.669 64.12C36.781 64.296 36.837 64.504 36.837 64.744C36.837 65.144 36.669 65.536 36.333 65.92C36.013 66.304 35.517 66.624 34.845 66.88C34.189 67.12 33.341 67.24 32.301 67.24ZM34.221 59.344C34.221 58.528 34.149 57.816 34.005 57.208C33.861 56.6 33.629 56.136 33.309 55.816C33.005 55.48 32.589 55.312 32.061 55.312C31.549 55.312 31.109 55.464 30.741 55.768C30.389 56.072 30.109 56.528 29.901 57.136C29.709 57.728 29.589 58.464 29.541 59.344H34.221ZM43.3564 67.24C42.6524 67.24 42.0124 67.104 41.4364 66.832C40.8764 66.544 40.4284 66.112 40.0924 65.536C39.7724 64.96 39.6124 64.232 39.6124 63.352C39.6124 62.072 40.0604 61.12 40.9564 60.496C41.8524 59.872 43.2044 59.528 45.0124 59.464L47.0044 59.392V58.024C47.0044 57.48 46.9644 57 46.8844 56.584C46.8044 56.152 46.6364 55.816 46.3804 55.576C46.1404 55.336 45.7564 55.216 45.2284 55.216C44.7484 55.216 44.3724 55.328 44.1004 55.552C43.8284 55.776 43.6444 56.088 43.5484 56.488C43.4524 56.872 43.4044 57.312 43.4044 57.808C42.4764 57.808 41.7804 57.696 41.3164 57.472C40.8524 57.232 40.6204 56.824 40.6204 56.248C40.6204 55.672 40.8284 55.208 41.2444 54.856C41.6764 54.504 42.2524 54.248 42.9724 54.088C43.6924 53.928 44.4764 53.848 45.3244 53.848C46.9244 53.848 48.1244 54.16 48.9244 54.784C49.7244 55.392 50.1244 56.448 50.1244 57.952V64.12C50.1244 64.552 50.1644 64.896 50.2444 65.152C50.3404 65.392 50.5004 65.568 50.7244 65.68C50.9484 65.776 51.2364 65.824 51.5884 65.824H51.6604V67H47.6764L47.1964 65.2H47.0044C46.6524 65.632 46.3164 66 45.9964 66.304C45.6924 66.608 45.3324 66.84 44.9164 67C44.5164 67.16 43.9964 67.24 43.3564 67.24ZM44.3884 65.584C44.9324 65.584 45.3964 65.456 45.7804 65.2C46.1644 64.944 46.4604 64.576 46.6684 64.096C46.8924 63.616 47.0044 63.056 47.0044 62.416V60.568L45.7564 60.64C45.0044 60.672 44.4124 60.8 43.9804 61.024C43.5644 61.248 43.2604 61.56 43.0684 61.96C42.8924 62.36 42.8044 62.856 42.8044 63.448C42.8044 63.928 42.8604 64.328 42.9724 64.648C43.0844 64.952 43.2604 65.184 43.5004 65.344C43.7404 65.504 44.0364 65.584 44.3884 65.584ZM65.9098 67.24C64.0698 67.24 62.6138 66.688 61.5418 65.584C60.4858 64.48 59.9578 62.792 59.9578 60.52C59.9578 58.28 60.4618 56.608 61.4698 55.504C62.4938 54.4 63.9978 53.848 65.9818 53.848C67.8378 53.848 69.2938 54.4 70.3498 55.504C71.4058 56.608 71.9338 58.28 71.9338 60.52C71.9338 62.792 71.4218 64.48 70.3978 65.584C69.3898 66.688 67.8938 67.24 65.9098 67.24ZM65.9578 65.824C66.6458 65.824 67.1898 65.632 67.5898 65.248C68.0058 64.848 68.3018 64.248 68.4778 63.448C68.6538 62.648 68.7418 61.672 68.7418 60.52C68.7418 59.352 68.6458 58.384 68.4538 57.616C68.2778 56.848 67.9818 56.272 67.5658 55.888C67.1658 55.488 66.6218 55.288 65.9338 55.288C65.2618 55.288 64.7178 55.488 64.3018 55.888C63.8858 56.272 63.5898 56.848 63.4138 57.616C63.2378 58.384 63.1498 59.352 63.1498 60.52C63.1498 61.688 63.2378 62.664 63.4138 63.448C63.6058 64.232 63.9018 64.824 64.3018 65.224C64.7178 65.624 65.2698 65.824 65.9578 65.824ZM73.653 67V65.824H74.109C74.397 65.824 74.677 65.792 74.949 65.728C75.221 65.648 75.445 65.496 75.621 65.272C75.813 65.032 75.909 64.68 75.909 64.216V55.576H73.749V54.136H75.909V53.128C75.909 51.672 76.293 50.544 77.061 49.744C77.845 48.944 79.013 48.544 80.565 48.544C81.525 48.544 82.269 48.616 82.797 48.76C83.341 48.904 83.725 49.104 83.949 49.36C84.189 49.616 84.309 49.912 84.309 50.248C84.309 50.584 84.213 50.864 84.021 51.088C83.829 51.296 83.533 51.456 83.133 51.568C82.749 51.68 82.285 51.736 81.741 51.736C81.741 51.464 81.693 51.176 81.597 50.872C81.517 50.568 81.381 50.312 81.189 50.104C80.997 49.896 80.733 49.792 80.397 49.792C79.885 49.792 79.525 50.032 79.317 50.512C79.125 50.992 79.029 51.744 79.029 52.768V54.136H82.365V55.576H79.029V64.216C79.029 64.68 79.117 65.032 79.293 65.272C79.469 65.496 79.701 65.648 79.989 65.728C80.277 65.792 80.557 65.824 80.829 65.824H81.885V67H73.653ZM88.3732 72.76V71.464H88.7092C89.3013 71.464 89.8293 71.328 90.2933 71.056C90.7573 70.8 91.1253 70.352 91.3973 69.712C91.6853 69.088 91.8293 68.224 91.8293 67.12V52.552C91.8293 52.104 91.7573 51.776 91.6133 51.568C91.4693 51.344 91.2853 51.2 91.0613 51.136C90.8373 51.072 90.5893 51.04 90.3173 51.04H89.5732V49.864H97.3733V51.04H96.6293C96.3573 51.04 96.1013 51.08 95.8613 51.16C95.6213 51.224 95.4293 51.368 95.2853 51.592C95.1573 51.816 95.0933 52.168 95.0933 52.648V67.096C95.0933 68.184 94.9333 69.088 94.6133 69.808C94.2933 70.544 93.8533 71.12 93.2933 71.536C92.7333 71.968 92.0853 72.28 91.3493 72.472C90.6133 72.664 89.8533 72.76 89.0693 72.76H88.3732ZM102.817 67.24C102.113 67.24 101.473 67.104 100.897 66.832C100.337 66.544 99.8893 66.112 99.5533 65.536C99.2333 64.96 99.0733 64.232 99.0733 63.352C99.0733 62.072 99.5213 61.12 100.417 60.496C101.313 59.872 102.665 59.528 104.473 59.464L106.465 59.392V58.024C106.465 57.48 106.425 57 106.345 56.584C106.265 56.152 106.097 55.816 105.841 55.576C105.601 55.336 105.217 55.216 104.689 55.216C104.209 55.216 103.833 55.328 103.561 55.552C103.289 55.776 103.105 56.088 103.009 56.488C102.913 56.872 102.865 57.312 102.865 57.808C101.937 57.808 101.241 57.696 100.777 57.472C100.313 57.232 100.081 56.824 100.081 56.248C100.081 55.672 100.289 55.208 100.705 54.856C101.137 54.504 101.713 54.248 102.433 54.088C103.153 53.928 103.937 53.848 104.785 53.848C106.385 53.848 107.585 54.16 108.385 54.784C109.185 55.392 109.585 56.448 109.585 57.952V64.12C109.585 64.552 109.625 64.896 109.705 65.152C109.801 65.392 109.961 65.568 110.185 65.68C110.409 65.776 110.697 65.824 111.049 65.824H111.121V67H107.137L106.657 65.2H106.465C106.113 65.632 105.777 66 105.457 66.304C105.153 66.608 104.793 66.84 104.377 67C103.977 67.16 103.457 67.24 102.817 67.24ZM103.849 65.584C104.393 65.584 104.857 65.456 105.241 65.2C105.625 64.944 105.921 64.576 106.129 64.096C106.353 63.616 106.465 63.056 106.465 62.416V60.568L105.217 60.64C104.465 60.672 103.873 60.8 103.441 61.024C103.025 61.248 102.721 61.56 102.529 61.96C102.353 62.36 102.265 62.856 102.265 63.448C102.265 63.928 102.321 64.328 102.433 64.648C102.545 64.952 102.721 65.184 102.961 65.344C103.201 65.504 103.497 65.584 103.849 65.584ZM117.6 72.76C115.792 72.76 114.44 72.464 113.544 71.872C112.664 71.296 112.224 70.456 112.224 69.352C112.224 68.76 112.352 68.264 112.608 67.864C112.864 67.464 113.232 67.152 113.712 66.928C114.192 66.688 114.744 66.536 115.368 66.472C114.984 66.312 114.624 66.064 114.288 65.728C113.952 65.376 113.784 64.928 113.784 64.384C113.784 63.888 113.952 63.448 114.288 63.064C114.64 62.68 115.112 62.32 115.704 61.984C115 61.712 114.432 61.256 114 60.616C113.568 59.976 113.352 59.2 113.352 58.288C113.352 56.896 113.744 55.808 114.528 55.024C115.328 54.24 116.544 53.848 118.176 53.848C118.752 53.848 119.288 53.928 119.784 54.088C120.296 54.232 120.704 54.408 121.008 54.616C121.248 54.36 121.488 54.136 121.728 53.944C121.968 53.736 122.224 53.576 122.496 53.464C122.784 53.352 123.096 53.296 123.432 53.296C123.976 53.296 124.376 53.432 124.632 53.704C124.904 53.96 125.04 54.264 125.04 54.616C125.04 54.952 124.928 55.256 124.704 55.528C124.48 55.8 124.08 55.936 123.504 55.936C123.504 55.664 123.424 55.44 123.264 55.264C123.104 55.088 122.896 55 122.64 55C122.48 55 122.32 55.024 122.16 55.072C122 55.12 121.864 55.184 121.752 55.264C122.056 55.616 122.312 56.048 122.52 56.56C122.728 57.072 122.832 57.64 122.832 58.264C122.832 59.464 122.456 60.464 121.704 61.264C120.952 62.048 119.776 62.44 118.176 62.44C118 62.44 117.768 62.432 117.48 62.416C117.208 62.384 116.992 62.36 116.832 62.344C116.576 62.472 116.352 62.648 116.16 62.872C115.968 63.096 115.872 63.368 115.872 63.688C115.872 63.944 115.968 64.144 116.16 64.288C116.368 64.432 116.696 64.504 117.144 64.504H119.976C121 64.504 121.832 64.656 122.472 64.96C123.112 65.248 123.584 65.664 123.888 66.208C124.192 66.752 124.344 67.392 124.344 68.128C124.344 69.568 123.792 70.696 122.688 71.512C121.6 72.344 119.904 72.76 117.6 72.76ZM117.648 71.416C118.672 71.416 119.488 71.312 120.096 71.104C120.704 70.896 121.136 70.6 121.392 70.216C121.664 69.832 121.8 69.368 121.8 68.824C121.8 68.232 121.616 67.824 121.248 67.6C120.896 67.392 120.368 67.288 119.664 67.288H117.048C116.68 67.288 116.312 67.336 115.944 67.432C115.592 67.528 115.296 67.712 115.056 67.984C114.832 68.272 114.72 68.704 114.72 69.28C114.72 69.728 114.816 70.112 115.008 70.432C115.216 70.752 115.536 70.992 115.968 71.152C116.4 71.328 116.96 71.416 117.648 71.416ZM118.104 61.12C118.584 61.12 118.952 61.016 119.208 60.808C119.48 60.584 119.664 60.256 119.76 59.824C119.872 59.392 119.928 58.864 119.928 58.24C119.928 57.6 119.872 57.056 119.76 56.608C119.648 56.144 119.456 55.792 119.184 55.552C118.928 55.312 118.56 55.192 118.08 55.192C117.632 55.192 117.272 55.32 117 55.576C116.728 55.816 116.536 56.168 116.424 56.632C116.312 57.08 116.256 57.624 116.256 58.264C116.256 58.872 116.312 59.392 116.424 59.824C116.552 60.24 116.752 60.56 117.024 60.784C117.296 61.008 117.656 61.12 118.104 61.12ZM130.099 67.24C129.395 67.24 128.755 67.104 128.179 66.832C127.619 66.544 127.171 66.112 126.835 65.536C126.515 64.96 126.355 64.232 126.355 63.352C126.355 62.072 126.803 61.12 127.699 60.496C128.595 59.872 129.947 59.528 131.755 59.464L133.747 59.392V58.024C133.747 57.48 133.707 57 133.627 56.584C133.547 56.152 133.379 55.816 133.123 55.576C132.883 55.336 132.499 55.216 131.971 55.216C131.491 55.216 131.115 55.328 130.843 55.552C130.571 55.776 130.387 56.088 130.291 56.488C130.195 56.872 130.147 57.312 130.147 57.808C129.219 57.808 128.523 57.696 128.059 57.472C127.595 57.232 127.363 56.824 127.363 56.248C127.363 55.672 127.571 55.208 127.987 54.856C128.419 54.504 128.995 54.248 129.715 54.088C130.435 53.928 131.219 53.848 132.067 53.848C133.667 53.848 134.867 54.16 135.667 54.784C136.467 55.392 136.867 56.448 136.867 57.952V64.12C136.867 64.552 136.907 64.896 136.987 65.152C137.083 65.392 137.243 65.568 137.467 65.68C137.691 65.776 137.979 65.824 138.331 65.824H138.403V67H134.419L133.939 65.2H133.747C133.395 65.632 133.059 66 132.739 66.304C132.435 66.608 132.075 66.84 131.659 67C131.259 67.16 130.739 67.24 130.099 67.24ZM131.131 65.584C131.675 65.584 132.139 65.456 132.523 65.2C132.907 64.944 133.203 64.576 133.411 64.096C133.635 63.616 133.747 63.056 133.747 62.416V60.568L132.499 60.64C131.747 60.672 131.155 60.8 130.723 61.024C130.307 61.248 130.003 61.56 129.811 61.96C129.635 62.36 129.547 62.856 129.547 63.448C129.547 63.928 129.603 64.328 129.715 64.648C129.827 64.952 130.003 65.184 130.243 65.344C130.483 65.504 130.779 65.584 131.131 65.584ZM139.818 67V65.824H139.914C140.282 65.824 140.61 65.784 140.898 65.704C141.186 65.624 141.41 65.464 141.57 65.224C141.746 64.984 141.834 64.624 141.834 64.144V56.896C141.834 56.432 141.754 56.088 141.594 55.864C141.434 55.64 141.218 55.496 140.946 55.432C140.69 55.352 140.386 55.312 140.034 55.312H139.938V54.136H144.546L144.858 55.936H144.978C145.298 55.328 145.642 54.88 146.01 54.592C146.394 54.288 146.802 54.088 147.234 53.992C147.682 53.896 148.162 53.848 148.674 53.848C149.922 53.848 150.898 54.216 151.602 54.952C152.306 55.688 152.658 56.872 152.658 58.504V64.12C152.658 64.616 152.722 64.984 152.85 65.224C152.994 65.464 153.186 65.624 153.426 65.704C153.682 65.784 153.986 65.824 154.338 65.824H154.434V67H149.538V58.96C149.538 57.92 149.37 57.12 149.034 56.56C148.714 55.984 148.154 55.696 147.354 55.696C146.746 55.696 146.266 55.872 145.914 56.224C145.578 56.576 145.33 57.04 145.17 57.616C145.026 58.192 144.954 58.816 144.954 59.488V64.24C144.954 64.704 145.026 65.048 145.17 65.272C145.33 65.496 145.546 65.648 145.818 65.728C146.09 65.792 146.402 65.824 146.754 65.824H146.85V67H139.818ZM155.638 67V65.824H155.734C156.102 65.824 156.43 65.784 156.718 65.704C157.006 65.624 157.23 65.464 157.39 65.224C157.566 64.984 157.654 64.624 157.654 64.144V56.896C157.654 56.432 157.574 56.088 157.414 55.864C157.254 55.64 157.038 55.496 156.766 55.432C156.51 55.352 156.206 55.312 155.854 55.312H155.758V54.136H160.366L160.678 55.936H160.798C161.118 55.328 161.462 54.88 161.83 54.592C162.214 54.288 162.622 54.088 163.054 53.992C163.502 53.896 163.982 53.848 164.494 53.848C165.742 53.848 166.718 54.216 167.422 54.952C168.126 55.688 168.478 56.872 168.478 58.504V64.12C168.478 64.616 168.542 64.984 168.67 65.224C168.814 65.464 169.006 65.624 169.246 65.704C169.502 65.784 169.806 65.824 170.158 65.824H170.254V67H165.358V58.96C165.358 57.92 165.19 57.12 164.854 56.56C164.534 55.984 163.974 55.696 163.174 55.696C162.566 55.696 162.086 55.872 161.734 56.224C161.398 56.576 161.15 57.04 160.99 57.616C160.846 58.192 160.774 58.816 160.774 59.488V64.24C160.774 64.704 160.846 65.048 160.99 65.272C161.15 65.496 161.366 65.648 161.638 65.728C161.91 65.792 162.222 65.824 162.574 65.824H162.67V67H155.638ZM175.778 67.24C175.074 67.24 174.434 67.104 173.858 66.832C173.298 66.544 172.85 66.112 172.514 65.536C172.194 64.96 172.034 64.232 172.034 63.352C172.034 62.072 172.482 61.12 173.378 60.496C174.274 59.872 175.626 59.528 177.434 59.464L179.426 59.392V58.024C179.426 57.48 179.386 57 179.306 56.584C179.226 56.152 179.058 55.816 178.802 55.576C178.562 55.336 178.178 55.216 177.65 55.216C177.17 55.216 176.794 55.328 176.522 55.552C176.25 55.776 176.066 56.088 175.97 56.488C175.874 56.872 175.826 57.312 175.826 57.808C174.898 57.808 174.202 57.696 173.738 57.472C173.274 57.232 173.042 56.824 173.042 56.248C173.042 55.672 173.25 55.208 173.666 54.856C174.098 54.504 174.674 54.248 175.394 54.088C176.114 53.928 176.898 53.848 177.746 53.848C179.346 53.848 180.546 54.16 181.346 54.784C182.146 55.392 182.546 56.448 182.546 57.952V64.12C182.546 64.552 182.586 64.896 182.666 65.152C182.762 65.392 182.922 65.568 183.146 65.68C183.37 65.776 183.658 65.824 184.01 65.824H184.082V67H180.098L179.618 65.2H179.426C179.074 65.632 178.738 66 178.418 66.304C178.114 66.608 177.754 66.84 177.338 67C176.938 67.16 176.418 67.24 175.778 67.24ZM176.81 65.584C177.354 65.584 177.818 65.456 178.202 65.2C178.586 64.944 178.882 64.576 179.09 64.096C179.314 63.616 179.426 63.056 179.426 62.416V60.568L178.178 60.64C177.426 60.672 176.834 60.8 176.402 61.024C175.986 61.248 175.682 61.56 175.49 61.96C175.314 62.36 175.226 62.856 175.226 63.448C175.226 63.928 175.282 64.328 175.394 64.648C175.506 64.952 175.682 65.184 175.922 65.344C176.162 65.504 176.458 65.584 176.81 65.584ZM190.753 67.24C189.617 67.24 188.745 66.96 188.137 66.4C187.545 65.84 187.249 64.864 187.249 63.472V55.672H185.425V54.544C185.857 54.544 186.265 54.456 186.649 54.28C187.033 54.104 187.353 53.888 187.609 53.632C187.849 53.36 188.065 53.024 188.257 52.624C188.449 52.224 188.601 51.736 188.713 51.16H190.369V54.136H193.465V55.672H190.369V63.352C190.369 64.104 190.505 64.664 190.777 65.032C191.065 65.384 191.481 65.56 192.025 65.56C192.345 65.56 192.633 65.544 192.889 65.512C193.161 65.464 193.425 65.408 193.681 65.344V66.712C193.441 66.824 193.057 66.936 192.529 67.048C192.017 67.176 191.425 67.24 190.753 67.24ZM194.636 67V65.824H194.756C195.124 65.824 195.444 65.784 195.716 65.704C196.004 65.624 196.236 65.464 196.412 65.224C196.588 64.984 196.676 64.624 196.676 64.144L196.652 51.448C196.652 51 196.556 50.672 196.364 50.464C196.172 50.24 195.94 50.096 195.668 50.032C195.396 49.968 195.124 49.936 194.852 49.936H194.588V48.76H199.772V53.224C199.772 53.592 199.756 53.984 199.724 54.4C199.708 54.8 199.684 55.152 199.652 55.456C199.636 55.744 199.628 55.888 199.628 55.888H199.796C200.084 55.328 200.412 54.904 200.78 54.616C201.148 54.312 201.548 54.112 201.98 54.016C202.428 53.904 202.908 53.848 203.42 53.848C204.7 53.848 205.692 54.216 206.396 54.952C207.116 55.688 207.476 56.872 207.476 58.504V64.12C207.476 64.616 207.54 64.984 207.668 65.224C207.812 65.464 208.012 65.624 208.268 65.704C208.524 65.784 208.828 65.824 209.18 65.824H209.252V67H204.356V58.96C204.356 57.92 204.196 57.12 203.876 56.56C203.556 55.984 202.988 55.696 202.172 55.696C201.596 55.696 201.132 55.864 200.78 56.2C200.428 56.536 200.172 56.992 200.012 57.568C199.852 58.144 199.772 58.784 199.772 59.488L199.796 64.24C199.796 64.704 199.868 65.048 200.012 65.272C200.172 65.496 200.388 65.648 200.66 65.728C200.932 65.792 201.244 65.824 201.596 65.824H201.668V67L194.636 67ZM216.909 67V65.824H217.653C217.941 65.824 218.197 65.792 218.421 65.728C218.645 65.648 218.821 65.496 218.949 65.272C219.093 65.032 219.165 64.68 219.165 64.216V52.552C219.165 52.104 219.093 51.776 218.949 51.568C218.805 51.344 218.621 51.2 218.397 51.136C218.173 51.072 217.925 51.04 217.653 51.04H216.909V49.864H224.037C226.181 49.864 227.765 50.32 228.789 51.232C229.829 52.128 230.349 53.36 230.349 54.928C230.349 55.648 230.221 56.336 229.965 56.992C229.725 57.632 229.333 58.216 228.789 58.744C228.261 59.256 227.557 59.664 226.677 59.968C225.813 60.256 224.757 60.4 223.509 60.4H222.429V64.336C222.429 64.768 222.501 65.096 222.645 65.32C222.789 65.528 222.973 65.664 223.197 65.728C223.437 65.792 223.693 65.824 223.965 65.824H225.165V67H216.909ZM223.269 59.104C223.909 59.104 224.453 59.032 224.901 58.888C225.365 58.728 225.741 58.488 226.029 58.168C226.317 57.848 226.525 57.432 226.653 56.92C226.781 56.392 226.845 55.76 226.845 55.024C226.845 54.144 226.741 53.424 226.533 52.864C226.325 52.304 225.981 51.888 225.501 51.616C225.037 51.328 224.413 51.184 223.629 51.184H222.429V59.104H223.269ZM237.477 67.24C236.213 67.24 235.245 66.864 234.573 66.112C233.901 65.344 233.565 64.144 233.565 62.512V56.992C233.565 56.512 233.493 56.152 233.349 55.912C233.205 55.672 232.997 55.512 232.725 55.432C232.469 55.352 232.157 55.312 231.789 55.312H231.741V54.136H236.685V62.032C236.685 62.736 236.741 63.336 236.853 63.832C236.981 64.328 237.197 64.712 237.501 64.984C237.805 65.256 238.221 65.392 238.749 65.392C239.341 65.392 239.821 65.24 240.189 64.936C240.557 64.616 240.829 64.176 241.005 63.616C241.181 63.056 241.269 62.4 241.269 61.648V56.92C241.269 56.44 241.181 56.088 241.005 55.864C240.845 55.64 240.629 55.496 240.357 55.432C240.085 55.352 239.781 55.312 239.445 55.312H239.373V54.136H244.389V64.288C244.389 64.752 244.461 65.096 244.605 65.32C244.765 65.528 244.981 65.664 245.253 65.728C245.525 65.792 245.821 65.824 246.141 65.824H246.285V67H241.869L241.413 65.2H241.293C241.053 65.632 240.789 65.984 240.501 66.256C240.213 66.512 239.909 66.712 239.589 66.856C239.269 67 238.933 67.096 238.581 67.144C238.229 67.208 237.861 67.24 237.477 67.24ZM247.467 67V65.824H247.539C247.907 65.824 248.227 65.784 248.499 65.704C248.787 65.624 249.011 65.464 249.171 65.224C249.347 64.968 249.435 64.592 249.435 64.096V56.944C249.435 56.464 249.355 56.112 249.195 55.888C249.035 55.648 248.819 55.496 248.547 55.432C248.275 55.352 247.963 55.312 247.611 55.312H247.539V54.136L251.955 54.136L252.411 56.2H252.531C252.739 55.72 252.971 55.304 253.227 54.952C253.499 54.6 253.843 54.336 254.259 54.16C254.675 53.968 255.219 53.872 255.891 53.872C256.803 53.872 257.475 54.032 257.907 54.352C258.355 54.672 258.579 55.136 258.579 55.744C258.579 56.384 258.347 56.896 257.883 57.28C257.419 57.648 256.739 57.832 255.843 57.832C255.843 57.384 255.803 57.024 255.723 56.752C255.659 56.464 255.539 56.248 255.363 56.104C255.187 55.96 254.947 55.888 254.643 55.888C254.211 55.888 253.859 56.048 253.587 56.368C253.315 56.672 253.099 57.056 252.939 57.52C252.795 57.984 252.691 58.464 252.627 58.96C252.579 59.456 252.555 59.872 252.555 60.208V64.216C252.555 64.68 252.635 65.032 252.795 65.272C252.955 65.496 253.171 65.648 253.443 65.728C253.715 65.792 254.011 65.824 254.331 65.824H255.075V67H247.467ZM259.394 67V65.824H259.706C259.978 65.824 260.25 65.792 260.521 65.728C260.81 65.648 261.042 65.496 261.218 65.272C261.41 65.048 261.506 64.712 261.506 64.264V56.824C261.506 56.376 261.41 56.048 261.218 55.84C261.026 55.616 260.794 55.472 260.521 55.408C260.25 55.344 259.978 55.312 259.706 55.312H259.49V54.136H264.626V64.216C264.626 64.68 264.714 65.032 264.89 65.272C265.066 65.496 265.298 65.648 265.586 65.728C265.874 65.792 266.154 65.824 266.426 65.824H266.714V67L259.394 67ZM262.946 51.88C262.45 51.88 262.026 51.752 261.674 51.496C261.338 51.24 261.17 50.824 261.17 50.248C261.17 49.656 261.338 49.24 261.674 49C262.026 48.744 262.458 48.616 262.97 48.616C263.45 48.616 263.866 48.744 264.218 49C264.57 49.24 264.746 49.656 264.746 50.248C264.746 50.824 264.57 51.24 264.218 51.496C263.866 51.752 263.442 51.88 262.946 51.88ZM276.976 67V65.824H277.816C278.104 65.824 278.36 65.792 278.584 65.728C278.808 65.648 278.984 65.496 279.112 65.272C279.256 65.048 279.328 64.704 279.328 64.24V51.232H277.264C276.784 51.232 276.408 51.312 276.136 51.472C275.864 51.616 275.664 51.824 275.536 52.096C275.408 52.368 275.32 52.68 275.272 53.032L275.128 54.352H273.664L273.784 49.864L288.184 49.864L288.304 54.352H286.84L286.672 53.032C286.64 52.68 286.552 52.368 286.408 52.096C286.28 51.824 286.08 51.616 285.808 51.472C285.536 51.312 285.16 51.232 284.68 51.232L282.616 51.232V64.216C282.616 64.68 282.68 65.032 282.808 65.272C282.936 65.496 283.12 65.648 283.36 65.728C283.6 65.792 283.856 65.824 284.128 65.824H284.968V67H276.976ZM294.918 67.24C292.998 67.24 291.518 66.664 290.478 65.512C289.454 64.344 288.942 62.72 288.942 60.64C288.942 58.4 289.438 56.712 290.43 55.576C291.438 54.424 292.846 53.848 294.654 53.848C296.334 53.848 297.646 54.336 298.59 55.312C299.55 56.272 300.03 57.704 300.03 59.608V60.784H292.11C292.142 61.904 292.286 62.816 292.542 63.52C292.814 64.208 293.19 64.72 293.67 65.056C294.166 65.392 294.766 65.56 295.47 65.56C296.03 65.56 296.526 65.48 296.958 65.32C297.406 65.144 297.79 64.92 298.11 64.648C298.43 64.36 298.686 64.048 298.878 63.712C299.054 63.792 299.19 63.928 299.286 64.12C299.398 64.296 299.454 64.504 299.454 64.744C299.454 65.144 299.286 65.536 298.95 65.92C298.63 66.304 298.134 66.624 297.462 66.88C296.806 67.12 295.958 67.24 294.918 67.24ZM296.838 59.344C296.838 58.528 296.766 57.816 296.622 57.208C296.478 56.6 296.246 56.136 295.926 55.816C295.622 55.48 295.206 55.312 294.678 55.312C294.166 55.312 293.726 55.464 293.358 55.768C293.006 56.072 292.726 56.528 292.518 57.136C292.326 57.728 292.206 58.464 292.158 59.344H296.838ZM301.654 67V65.824H301.798C302.166 65.824 302.486 65.784 302.758 65.704C303.046 65.624 303.27 65.464 303.43 65.224C303.59 64.984 303.67 64.624 303.67 64.144V56.848C303.67 56.384 303.59 56.04 303.43 55.816C303.286 55.592 303.078 55.448 302.806 55.384C302.55 55.304 302.246 55.264 301.894 55.264H301.822V54.136H306.382L306.694 55.936H306.814C307.134 55.328 307.478 54.88 307.846 54.592C308.214 54.288 308.614 54.088 309.046 53.992C309.494 53.896 309.966 53.848 310.462 53.848C311.022 53.848 311.534 53.92 311.998 54.064C312.462 54.208 312.87 54.432 313.222 54.736C313.574 55.024 313.846 55.424 314.038 55.936H314.23C314.55 55.328 314.91 54.88 315.31 54.592C315.71 54.288 316.134 54.088 316.582 53.992C317.046 53.896 317.534 53.848 318.046 53.848C319.278 53.848 320.238 54.216 320.926 54.952C321.63 55.688 321.982 56.872 321.982 58.504V64.12C321.982 64.616 322.046 64.984 322.174 65.224C322.318 65.464 322.518 65.624 322.774 65.704C323.03 65.784 323.334 65.824 323.686 65.824H323.758V67H318.862V58.96C318.862 57.92 318.702 57.12 318.382 56.56C318.062 55.984 317.51 55.696 316.726 55.696C316.166 55.696 315.71 55.856 315.358 56.176C315.022 56.496 314.774 56.92 314.614 57.448C314.47 57.976 314.398 58.552 314.398 59.176V64.12C314.398 64.6 314.462 64.968 314.59 65.224C314.734 65.464 314.934 65.624 315.19 65.704C315.446 65.784 315.75 65.824 316.102 65.824H316.174V67H311.278V58.96C311.278 57.92 311.118 57.12 310.798 56.56C310.478 55.984 309.926 55.696 309.142 55.696C308.55 55.696 308.078 55.872 307.726 56.224C307.39 56.576 307.15 57.04 307.006 57.616C306.862 58.192 306.79 58.816 306.79 59.488V64.24C306.79 64.704 306.87 65.048 307.03 65.272C307.19 65.496 307.406 65.648 307.678 65.728C307.95 65.792 308.262 65.824 308.614 65.824H308.686V67H301.654ZM324.735 72.76V71.584H324.975C325.263 71.584 325.543 71.544 325.815 71.464C326.103 71.4 326.335 71.248 326.511 71.008C326.703 70.784 326.799 70.44 326.799 69.976V56.968C326.799 56.472 326.719 56.112 326.559 55.888C326.399 55.648 326.183 55.496 325.911 55.432C325.655 55.352 325.367 55.312 325.047 55.312H324.831V54.136H329.343L329.703 56.128H329.799C330.151 55.456 330.615 54.92 331.191 54.52C331.783 54.104 332.543 53.896 333.471 53.896C335.055 53.896 336.263 54.432 337.095 55.504C337.943 56.576 338.367 58.272 338.367 60.592C338.367 62.912 337.951 64.608 337.119 65.68C336.287 66.736 335.087 67.264 333.519 67.264C332.607 67.264 331.863 67.088 331.287 66.736C330.711 66.368 330.247 65.88 329.895 65.272H329.751C329.783 65.528 329.807 65.84 329.823 66.208C329.855 66.576 329.879 66.928 329.895 67.264C329.911 67.6 329.919 67.88 329.919 68.104V70C329.919 70.464 330.007 70.808 330.183 71.032C330.375 71.256 330.607 71.4 330.879 71.464C331.167 71.544 331.447 71.584 331.719 71.584H332.079V72.76H324.735ZM332.679 65.584C333.287 65.584 333.775 65.4 334.143 65.032C334.511 64.648 334.775 64.088 334.935 63.352C335.111 62.616 335.199 61.696 335.199 60.592C335.199 59.504 335.111 58.592 334.935 57.856C334.775 57.104 334.511 56.544 334.143 56.176C333.775 55.792 333.287 55.6 332.679 55.6C331.975 55.6 331.415 55.784 330.999 56.152C330.599 56.52 330.319 57.08 330.159 57.832C329.999 58.584 329.919 59.504 329.919 60.592C329.919 61.696 329.999 62.624 330.159 63.376C330.319 64.112 330.599 64.664 330.999 65.032C331.415 65.4 331.975 65.584 332.679 65.584ZM339.923 67V65.824H340.235C340.523 65.824 340.803 65.792 341.075 65.728C341.347 65.648 341.571 65.496 341.747 65.272C341.939 65.032 342.035 64.68 342.035 64.216V51.448C342.035 51 341.939 50.672 341.747 50.464C341.555 50.24 341.323 50.096 341.051 50.032C340.779 49.968 340.507 49.936 340.235 49.936H339.923V48.76H345.155V64.216C345.155 64.68 345.243 65.032 345.419 65.272C345.611 65.496 345.843 65.648 346.115 65.728C346.403 65.792 346.683 65.824 346.955 65.824H347.267V67H339.923ZM354.801 67.24C352.881 67.24 351.401 66.664 350.361 65.512C349.337 64.344 348.825 62.72 348.825 60.64C348.825 58.4 349.321 56.712 350.313 55.576C351.321 54.424 352.729 53.848 354.537 53.848C356.217 53.848 357.529 54.336 358.473 55.312C359.433 56.272 359.913 57.704 359.913 59.608V60.784H351.993C352.025 61.904 352.169 62.816 352.425 63.52C352.697 64.208 353.073 64.72 353.553 65.056C354.049 65.392 354.649 65.56 355.353 65.56C355.913 65.56 356.409 65.48 356.841 65.32C357.289 65.144 357.673 64.92 357.993 64.648C358.313 64.36 358.569 64.048 358.761 63.712C358.937 63.792 359.073 63.928 359.169 64.12C359.281 64.296 359.337 64.504 359.337 64.744C359.337 65.144 359.169 65.536 358.833 65.92C358.513 66.304 358.017 66.624 357.345 66.88C356.689 67.12 355.841 67.24 354.801 67.24ZM356.721 59.344C356.721 58.528 356.649 57.816 356.505 57.208C356.361 56.6 356.129 56.136 355.809 55.816C355.505 55.48 355.089 55.312 354.561 55.312C354.049 55.312 353.609 55.464 353.241 55.768C352.889 56.072 352.609 56.528 352.401 57.136C352.209 57.728 352.089 58.464 352.041 59.344H356.721ZM136.916 109.24C135.156 109.24 133.684 108.872 132.5 108.136C131.332 107.4 130.452 106.376 129.86 105.064C129.284 103.736 128.996 102.184 128.996 100.408C128.996 98.68 129.3 97.16 129.908 95.848C130.516 94.52 131.42 93.488 132.62 92.752C133.82 92 135.3 91.624 137.06 91.624C138.228 91.624 139.196 91.744 139.964 91.984C140.748 92.224 141.332 92.552 141.716 92.968C142.1 93.384 142.292 93.848 142.292 94.36C142.292 94.936 142.052 95.408 141.572 95.776C141.108 96.128 140.46 96.304 139.628 96.304C139.628 95.792 139.54 95.288 139.364 94.792C139.204 94.296 138.924 93.888 138.524 93.568C138.14 93.232 137.612 93.064 136.94 93.064C135.852 93.064 134.98 93.352 134.324 93.928C133.684 94.504 133.22 95.336 132.932 96.424C132.644 97.512 132.5 98.84 132.5 100.408C132.5 101.896 132.66 103.168 132.98 104.224C133.316 105.28 133.844 106.08 134.564 106.624C135.284 107.168 136.228 107.44 137.396 107.44C138.18 107.44 138.852 107.336 139.412 107.128C139.972 106.904 140.444 106.624 140.828 106.288C141.212 105.952 141.54 105.608 141.812 105.256C141.94 105.352 142.044 105.488 142.124 105.664C142.204 105.84 142.244 106.04 142.244 106.264C142.244 106.584 142.148 106.92 141.956 107.272C141.764 107.608 141.46 107.928 141.044 108.232C140.628 108.536 140.076 108.784 139.388 108.976C138.716 109.152 137.892 109.24 136.916 109.24ZM150.367 109.24C148.527 109.24 147.071 108.688 145.999 107.584C144.943 106.48 144.415 104.792 144.415 102.52C144.415 100.28 144.919 98.608 145.927 97.504C146.951 96.4 148.455 95.848 150.439 95.848C152.295 95.848 153.751 96.4 154.807 97.504C155.863 98.608 156.391 100.28 156.391 102.52C156.391 104.792 155.879 106.48 154.855 107.584C153.847 108.688 152.351 109.24 150.367 109.24ZM150.415 107.824C151.103 107.824 151.647 107.632 152.047 107.248C152.463 106.848 152.759 106.248 152.935 105.448C153.111 104.648 153.199 103.672 153.199 102.52C153.199 101.352 153.103 100.384 152.911 99.616C152.735 98.848 152.439 98.272 152.023 97.888C151.623 97.488 151.079 97.288 150.391 97.288C149.719 97.288 149.175 97.488 148.759 97.888C148.343 98.272 148.047 98.848 147.871 99.616C147.695 100.384 147.607 101.352 147.607 102.52C147.607 103.688 147.695 104.664 147.871 105.448C148.063 106.232 148.359 106.824 148.759 107.224C149.175 107.624 149.727 107.824 150.415 107.824ZM158.134 109V107.824H158.278C158.646 107.824 158.966 107.784 159.238 107.704C159.526 107.624 159.75 107.464 159.91 107.224C160.07 106.984 160.15 106.624 160.15 106.144V98.848C160.15 98.384 160.07 98.04 159.91 97.816C159.766 97.592 159.558 97.448 159.286 97.384C159.03 97.304 158.726 97.264 158.374 97.264H158.302V96.136H162.862L163.174 97.936H163.294C163.614 97.328 163.958 96.88 164.326 96.592C164.694 96.288 165.094 96.088 165.526 95.992C165.974 95.896 166.446 95.848 166.942 95.848C167.502 95.848 168.014 95.92 168.478 96.064C168.942 96.208 169.35 96.432 169.702 96.736C170.054 97.024 170.326 97.424 170.518 97.936H170.71C171.03 97.328 171.39 96.88 171.79 96.592C172.19 96.288 172.614 96.088 173.062 95.992C173.526 95.896 174.014 95.848 174.526 95.848C175.758 95.848 176.718 96.216 177.406 96.952C178.11 97.688 178.462 98.872 178.462 100.504V106.12C178.462 106.616 178.526 106.984 178.654 107.224C178.798 107.464 178.998 107.624 179.254 107.704C179.51 107.784 179.814 107.824 180.166 107.824H180.238V109H175.342L175.342 100.96C175.342 99.92 175.182 99.12 174.862 98.56C174.542 97.984 173.99 97.696 173.206 97.696C172.646 97.696 172.19 97.856 171.838 98.176C171.502 98.496 171.254 98.92 171.094 99.448C170.95 99.976 170.878 100.552 170.878 101.176V106.12C170.878 106.6 170.942 106.968 171.07 107.224C171.214 107.464 171.414 107.624 171.67 107.704C171.926 107.784 172.23 107.824 172.582 107.824H172.654V109H167.758L167.758 100.96C167.758 99.92 167.598 99.12 167.278 98.56C166.958 97.984 166.406 97.696 165.622 97.696C165.03 97.696 164.558 97.872 164.206 98.224C163.87 98.576 163.63 99.04 163.486 99.616C163.342 100.192 163.27 100.816 163.27 101.488V106.24C163.27 106.704 163.35 107.048 163.51 107.272C163.67 107.496 163.886 107.648 164.158 107.728C164.43 107.792 164.742 107.824 165.094 107.824H165.166V109H158.134ZM181.215 114.76V113.584H181.455C181.743 113.584 182.023 113.544 182.295 113.464C182.583 113.4 182.815 113.248 182.991 113.008C183.183 112.784 183.279 112.44 183.279 111.976L183.279 98.968C183.279 98.472 183.199 98.112 183.039 97.888C182.879 97.648 182.663 97.496 182.391 97.432C182.135 97.352 181.847 97.312 181.527 97.312H181.311V96.136H185.823L186.183 98.128H186.279C186.631 97.456 187.095 96.92 187.671 96.52C188.263 96.104 189.023 95.896 189.951 95.896C191.535 95.896 192.743 96.432 193.575 97.504C194.423 98.576 194.847 100.272 194.847 102.592C194.847 104.912 194.431 106.608 193.599 107.68C192.767 108.736 191.567 109.264 189.999 109.264C189.087 109.264 188.343 109.088 187.767 108.736C187.191 108.368 186.727 107.88 186.375 107.272H186.231C186.263 107.528 186.287 107.84 186.303 108.208C186.335 108.576 186.359 108.928 186.375 109.264C186.391 109.6 186.399 109.88 186.399 110.104V112C186.399 112.464 186.487 112.808 186.663 113.032C186.855 113.256 187.087 113.4 187.359 113.464C187.647 113.544 187.927 113.584 188.199 113.584H188.559V114.76H181.215ZM189.159 107.584C189.767 107.584 190.255 107.4 190.623 107.032C190.991 106.648 191.255 106.088 191.415 105.352C191.591 104.616 191.679 103.696 191.679 102.592C191.679 101.504 191.591 100.592 191.415 99.856C191.255 99.104 190.991 98.544 190.623 98.176C190.255 97.792 189.767 97.6 189.159 97.6C188.455 97.6 187.895 97.784 187.479 98.152C187.079 98.52 186.799 99.08 186.639 99.832C186.479 100.584 186.399 101.504 186.399 102.592C186.399 103.696 186.479 104.624 186.639 105.376C186.799 106.112 187.079 106.664 187.479 107.032C187.895 107.4 188.455 107.584 189.159 107.584ZM196.403 109V107.824H196.715C197.003 107.824 197.283 107.792 197.555 107.728C197.827 107.648 198.051 107.496 198.227 107.272C198.419 107.032 198.515 106.68 198.515 106.216V93.448C198.515 93 198.419 92.672 198.227 92.464C198.035 92.24 197.803 92.096 197.531 92.032C197.259 91.968 196.987 91.936 196.715 91.936H196.403V90.76L201.635 90.76V106.216C201.635 106.68 201.723 107.032 201.899 107.272C202.091 107.496 202.323 107.648 202.595 107.728C202.883 107.792 203.163 107.824 203.435 107.824H203.747V109L196.403 109ZM211.281 109.24C209.361 109.24 207.881 108.664 206.841 107.512C205.817 106.344 205.305 104.72 205.305 102.64C205.305 100.4 205.801 98.712 206.793 97.576C207.801 96.424 209.209 95.848 211.017 95.848C212.697 95.848 214.009 96.336 214.953 97.312C215.913 98.272 216.393 99.704 216.393 101.608V102.784H208.473C208.505 103.904 208.649 104.816 208.905 105.52C209.177 106.208 209.553 106.72 210.033 107.056C210.529 107.392 211.129 107.56 211.833 107.56C212.393 107.56 212.889 107.48 213.321 107.32C213.769 107.144 214.153 106.92 214.473 106.648C214.793 106.36 215.049 106.048 215.241 105.712C215.417 105.792 215.553 105.928 215.649 106.12C215.761 106.296 215.817 106.504 215.817 106.744C215.817 107.144 215.649 107.536 215.313 107.92C214.993 108.304 214.497 108.624 213.825 108.88C213.169 109.12 212.321 109.24 211.281 109.24ZM213.201 101.344C213.201 100.528 213.129 99.816 212.985 99.208C212.841 98.6 212.609 98.136 212.289 97.816C211.985 97.48 211.569 97.312 211.041 97.312C210.529 97.312 210.089 97.464 209.721 97.768C209.369 98.072 209.089 98.528 208.881 99.136C208.689 99.728 208.569 100.464 208.521 101.344H213.201ZM217.681 109V107.824H217.897C218.281 107.824 218.609 107.784 218.881 107.704C219.153 107.608 219.409 107.448 219.649 107.224C219.905 107 220.193 106.688 220.513 106.288L223.537 102.544L220.513 98.584C220.289 98.296 220.057 98.064 219.817 97.888C219.593 97.696 219.369 97.552 219.145 97.456C218.921 97.36 218.689 97.312 218.449 97.312H218.137V96.136H225.121V97.312H225.049C224.505 97.312 224.137 97.384 223.945 97.528C223.769 97.656 223.681 97.816 223.681 98.008C223.681 98.168 223.721 98.328 223.801 98.488C223.897 98.648 224.041 98.856 224.233 99.112L225.673 100.936L226.849 99.4C227.025 99.16 227.169 98.92 227.281 98.68C227.393 98.44 227.449 98.216 227.449 98.008C227.449 97.72 227.329 97.536 227.089 97.456C226.865 97.36 226.569 97.312 226.201 97.312H226.129V96.136H231.553V97.312H231.337C231.033 97.312 230.761 97.352 230.521 97.432C230.281 97.496 230.033 97.64 229.777 97.864C229.537 98.088 229.249 98.416 228.913 98.848L226.441 101.968L229.969 106.552C230.209 106.856 230.433 107.104 230.641 107.296C230.865 107.488 231.081 107.624 231.289 107.704C231.497 107.784 231.697 107.824 231.889 107.824H232.201V109H225.121V107.824H225.241C225.721 107.824 226.081 107.76 226.321 107.632C226.561 107.488 226.681 107.288 226.681 107.032C226.681 106.856 226.625 106.664 226.513 106.456C226.401 106.232 226.153 105.872 225.769 105.376L224.305 103.528L222.625 105.712C222.481 105.904 222.353 106.12 222.241 106.36C222.129 106.584 222.073 106.808 222.073 107.032C222.073 107.288 222.185 107.488 222.409 107.632C222.649 107.76 223.033 107.824 223.561 107.824H223.633V109H217.681Z" fill="#F1AE12"/>
</svg>
