<svg width="225" height="65" viewBox="0 0 225 65" fill="none" xmlns="http://www.w3.org/2000/svg">
<path d="M0.523438 19V17.992H0.979438C1.29944 17.992 1.55544 17.944 1.74744 17.848C1.93944 17.752 2.11544 17.568 2.27544 17.296C2.43544 17.024 2.61144 16.632 2.80344 16.12L8.13144 1.864L10.0034 1.864L15.4274 16.72C15.5554 17.056 15.6914 17.32 15.8354 17.512C15.9794 17.688 16.1554 17.816 16.3634 17.896C16.5714 17.96 16.8274 17.992 17.1314 17.992H17.4434V19L10.8434 19V17.992H11.3954C11.8754 17.992 12.2354 17.904 12.4754 17.728C12.7154 17.536 12.8354 17.24 12.8354 16.84C12.8354 16.744 12.8274 16.656 12.8114 16.576C12.7954 16.48 12.7714 16.384 12.7394 16.288C12.7234 16.176 12.6914 16.064 12.6434 15.952L11.6834 13.264H5.37144L4.45944 15.784C4.41144 15.912 4.37144 16.04 4.33944 16.168C4.30744 16.296 4.28344 16.416 4.26744 16.528C4.25144 16.624 4.24344 16.72 4.24344 16.816C4.24344 17.216 4.37144 17.512 4.62744 17.704C4.89944 17.896 5.29944 17.992 5.82744 17.992H6.37944V19H0.523438ZM5.82744 12.064H11.2514L9.76344 7.864C9.60344 7.384 9.44344 6.928 9.28344 6.496C9.13944 6.064 9.00344 5.648 8.87544 5.248C8.76344 4.848 8.65944 4.456 8.56344 4.072C8.49944 4.36 8.42744 4.64 8.34744 4.912C8.28344 5.184 8.20344 5.464 8.10744 5.752C8.02744 6.024 7.93144 6.32 7.81944 6.64C7.72344 6.944 7.60344 7.28 7.45944 7.648L5.82744 12.064ZM17.8876 8.416C17.7756 8.08 17.6396 7.824 17.4796 7.648C17.3356 7.456 17.1516 7.328 16.9276 7.264C16.7196 7.184 16.4476 7.144 16.1116 7.144V6.136H22.1116V7.144H21.7996C21.3196 7.144 20.9596 7.24 20.7196 7.432C20.4796 7.608 20.3596 7.896 20.3596 8.296C20.3596 8.424 20.3756 8.56 20.4076 8.704C20.4396 8.848 20.4876 9.008 20.5516 9.184L22.1836 13.72C22.3276 14.104 22.4716 14.528 22.6156 14.992C22.7596 15.44 22.8876 15.872 22.9996 16.288C23.1276 16.688 23.2316 17.032 23.3116 17.32C23.3756 17.096 23.4716 16.8 23.5996 16.432C23.7276 16.064 23.8716 15.672 24.0316 15.256C24.2076 14.824 24.3676 14.416 24.5116 14.032L26.2396 9.352C26.3196 9.16 26.3756 8.976 26.4076 8.8C26.4396 8.608 26.4556 8.448 26.4556 8.32C26.4556 7.904 26.3196 7.608 26.0476 7.432C25.7916 7.24 25.3996 7.144 24.8716 7.144H24.7036V6.136L29.8396 6.136V7.144H29.5516C29.2476 7.144 28.9916 7.192 28.7836 7.288C28.5916 7.384 28.4156 7.568 28.2556 7.84C28.0956 8.112 27.9196 8.504 27.7276 9.016L23.9356 19H21.7516L17.8876 8.416ZM36.8021 19.24C35.0581 19.24 33.6901 18.664 32.6981 17.512C31.7221 16.36 31.2341 14.744 31.2341 12.664C31.2341 10.424 31.6981 8.736 32.6261 7.6C33.5541 6.464 34.8661 5.896 36.5621 5.896C38.1141 5.896 39.3301 6.376 40.2101 7.336C41.1061 8.296 41.5541 9.728 41.5541 11.632V12.736H33.5621C33.5941 13.904 33.7461 14.856 34.0181 15.592C34.2901 16.328 34.6821 16.872 35.1941 17.224C35.7221 17.56 36.3701 17.728 37.1381 17.728C37.6981 17.728 38.1941 17.648 38.6261 17.488C39.0741 17.328 39.4581 17.12 39.7781 16.864C40.1141 16.608 40.3781 16.336 40.5701 16.048C40.6821 16.096 40.7861 16.192 40.8821 16.336C40.9781 16.48 41.0261 16.656 41.0261 16.864C41.0261 17.184 40.8741 17.528 40.5701 17.896C40.2661 18.264 39.8021 18.584 39.1781 18.856C38.5541 19.112 37.7621 19.24 36.8021 19.24ZM39.1301 11.44C39.1301 10.592 39.0421 9.848 38.8661 9.208C38.7061 8.568 38.4341 8.072 38.0501 7.72C37.6661 7.368 37.1541 7.192 36.5141 7.192C35.9221 7.192 35.4181 7.36 35.0021 7.696C34.6021 8.016 34.2821 8.488 34.0421 9.112C33.8181 9.736 33.6741 10.512 33.6101 11.44H39.1301ZM43.5498 19L43.5498 17.992H43.6218C43.9898 17.992 44.3178 17.952 44.6058 17.872C44.9098 17.792 45.1498 17.632 45.3258 17.392C45.5018 17.136 45.5898 16.76 45.5898 16.264V8.776C45.5898 8.296 45.4938 7.944 45.3018 7.72C45.1258 7.48 44.8858 7.328 44.5818 7.264C44.2938 7.184 43.9738 7.144 43.6218 7.144H43.5498V6.136L47.2458 6.136L47.7018 8.512H47.8218C48.0298 8.032 48.2538 7.592 48.4938 7.192C48.7338 6.792 49.0538 6.48 49.4538 6.256C49.8538 6.016 50.4058 5.896 51.1098 5.896C51.9898 5.896 52.6378 6.048 53.0538 6.352C53.4858 6.656 53.7018 7.088 53.7018 7.648C53.7018 8.144 53.5258 8.552 53.1738 8.872C52.8378 9.192 52.2698 9.352 51.4698 9.352C51.4698 8.904 51.4298 8.544 51.3498 8.272C51.2698 8 51.1338 7.8 50.9418 7.672C50.7658 7.544 50.5178 7.48 50.1978 7.48C49.7498 7.48 49.3738 7.656 49.0698 8.008C48.7658 8.36 48.5258 8.808 48.3498 9.352C48.1738 9.896 48.0458 10.464 47.9658 11.056C47.8858 11.632 47.8458 12.152 47.8458 12.616V16.384C47.8458 16.848 47.9338 17.2 48.1098 17.44C48.3018 17.664 48.5418 17.816 48.8298 17.896C49.1338 17.96 49.4618 17.992 49.8138 17.992H50.4858L50.4858 19L43.5498 19ZM58.5059 19.24C57.8019 19.24 57.1619 19.104 56.5859 18.832C56.0259 18.544 55.5859 18.12 55.2659 17.56C54.9459 16.984 54.7859 16.264 54.7859 15.4C54.7859 14.12 55.2339 13.176 56.1299 12.568C57.0419 11.96 58.4179 11.624 60.2579 11.56L62.2499 11.488V10.048C62.2499 9.472 62.2019 8.968 62.1059 8.536C62.0099 8.088 61.8019 7.736 61.4819 7.48C61.1619 7.224 60.6739 7.096 60.0179 7.096C59.4099 7.096 58.9459 7.208 58.6259 7.432C58.3059 7.656 58.0899 7.968 57.9779 8.368C57.8819 8.752 57.8339 9.2 57.8339 9.712C57.1619 9.712 56.6499 9.6 56.2979 9.376C55.9619 9.136 55.7939 8.744 55.7939 8.2C55.7939 7.64 55.9859 7.192 56.3699 6.856C56.7699 6.52 57.2979 6.28 57.9539 6.136C58.6099 5.976 59.3299 5.896 60.1139 5.896C61.5859 5.896 62.6819 6.208 63.4019 6.832C64.1379 7.456 64.5059 8.528 64.5059 10.048V16.264C64.5059 16.712 64.5539 17.064 64.6499 17.32C64.7459 17.56 64.9059 17.736 65.1299 17.848C65.3539 17.944 65.6419 17.992 65.9939 17.992H66.0659V19L62.8259 19L62.4419 16.936H62.2499C61.9139 17.384 61.5859 17.784 61.2659 18.136C60.9459 18.472 60.5699 18.744 60.1379 18.952C59.7219 19.144 59.1779 19.24 58.5059 19.24ZM59.0579 17.752C59.7139 17.752 60.2739 17.616 60.7379 17.344C61.2179 17.072 61.5859 16.688 61.8419 16.192C62.1139 15.68 62.2499 15.088 62.2499 14.416V12.472L60.7139 12.544C59.8019 12.576 59.0819 12.712 58.5539 12.952C58.0419 13.192 57.6739 13.528 57.4499 13.96C57.2259 14.376 57.1139 14.896 57.1139 15.52C57.1139 16.016 57.1859 16.432 57.3299 16.768C57.4739 17.088 57.6899 17.336 57.9779 17.512C58.2659 17.672 58.6259 17.752 59.0579 17.752ZM72.6534 24.76C70.9894 24.76 69.7414 24.448 68.9094 23.824C68.0774 23.216 67.6614 22.36 67.6614 21.256C67.6614 20.632 67.7974 20.104 68.0694 19.672C68.3574 19.256 68.7254 18.928 69.1734 18.688C69.6374 18.448 70.1334 18.28 70.6614 18.184C70.3414 18.04 70.0374 17.808 69.7494 17.488C69.4774 17.152 69.3414 16.728 69.3414 16.216C69.3414 15.736 69.4614 15.32 69.7014 14.968C69.9574 14.616 70.3574 14.28 70.9014 13.96C70.2134 13.672 69.6774 13.2 69.2934 12.544C68.9254 11.872 68.7414 11.136 68.7414 10.336C68.7414 8.96 69.1174 7.88 69.8694 7.096C70.6214 6.296 71.7494 5.896 73.2534 5.896C73.8294 5.896 74.3734 5.976 74.8854 6.136C75.3974 6.296 75.7654 6.48 75.9894 6.688C76.1494 6.512 76.3414 6.328 76.5654 6.136C76.7894 5.928 77.0454 5.752 77.3334 5.608C77.6374 5.464 77.9654 5.392 78.3174 5.392C78.7974 5.392 79.1494 5.52 79.3734 5.776C79.6134 6.016 79.7334 6.304 79.7334 6.64C79.7334 6.976 79.6294 7.272 79.4214 7.528C79.2294 7.768 78.9094 7.888 78.4614 7.888C78.4614 7.712 78.4054 7.536 78.2934 7.36C78.1974 7.168 77.9894 7.072 77.6694 7.072C77.4614 7.072 77.2774 7.096 77.1174 7.144C76.9574 7.192 76.7974 7.264 76.6374 7.36C76.9094 7.696 77.1334 8.096 77.3094 8.56C77.4854 9.008 77.5734 9.576 77.5734 10.264C77.5734 11.448 77.2134 12.432 76.4934 13.216C75.7894 14 74.7094 14.392 73.2534 14.392C73.0614 14.392 72.8374 14.384 72.5814 14.368C72.3414 14.336 72.1414 14.304 71.9814 14.272C71.6774 14.432 71.4134 14.632 71.1894 14.872C70.9654 15.112 70.8534 15.416 70.8534 15.784C70.8534 16.072 70.9414 16.296 71.1174 16.456C71.3094 16.616 71.7174 16.696 72.3414 16.696H75.0534C76.0134 16.696 76.7814 16.856 77.3574 17.176C77.9334 17.48 78.3494 17.904 78.6054 18.448C78.8774 18.976 79.0134 19.584 79.0134 20.272C79.0134 21.648 78.4934 22.736 77.4534 23.536C76.4294 24.352 74.8294 24.76 72.6534 24.76ZM72.7014 23.584C73.8534 23.584 74.7414 23.456 75.3654 23.2C75.9894 22.96 76.4214 22.616 76.6614 22.168C76.9174 21.736 77.0454 21.24 77.0454 20.68C77.0454 19.944 76.8374 19.448 76.4214 19.192C76.0054 18.952 75.3974 18.832 74.5974 18.832H72.2454C71.7974 18.832 71.3734 18.888 70.9734 19C70.5734 19.128 70.2454 19.352 69.9894 19.672C69.7334 19.992 69.6054 20.472 69.6054 21.112C69.6054 21.576 69.6934 21.992 69.8694 22.36C70.0454 22.744 70.3574 23.04 70.8054 23.248C71.2534 23.472 71.8854 23.584 72.7014 23.584ZM73.1814 13.24C73.7094 13.24 74.1254 13.136 74.4294 12.928C74.7494 12.72 74.9734 12.392 75.1014 11.944C75.2454 11.496 75.3174 10.928 75.3174 10.24C75.3174 9.52 75.2454 8.928 75.1014 8.464C74.9574 7.984 74.7254 7.632 74.4054 7.408C74.1014 7.184 73.6854 7.072 73.1574 7.072C72.6454 7.072 72.2294 7.192 71.9094 7.432C71.5894 7.656 71.3574 8.008 71.2134 8.488C71.0694 8.952 70.9974 9.544 70.9974 10.264C70.9974 10.936 71.0694 11.496 71.2134 11.944C71.3734 12.376 71.6134 12.704 71.9334 12.928C72.2534 13.136 72.6694 13.24 73.1814 13.24ZM86.9114 19.24C85.1674 19.24 83.7994 18.664 82.8074 17.512C81.8314 16.36 81.3434 14.744 81.3434 12.664C81.3434 10.424 81.8074 8.736 82.7354 7.6C83.6634 6.464 84.9754 5.896 86.6714 5.896C88.2234 5.896 89.4394 6.376 90.3194 7.336C91.2154 8.296 91.6634 9.728 91.6634 11.632V12.736H83.6714C83.7034 13.904 83.8554 14.856 84.1274 15.592C84.3994 16.328 84.7914 16.872 85.3034 17.224C85.8314 17.56 86.4794 17.728 87.2474 17.728C87.8074 17.728 88.3034 17.648 88.7354 17.488C89.1834 17.328 89.5674 17.12 89.8874 16.864C90.2234 16.608 90.4874 16.336 90.6794 16.048C90.7914 16.096 90.8954 16.192 90.9914 16.336C91.0874 16.48 91.1354 16.656 91.1354 16.864C91.1354 17.184 90.9834 17.528 90.6794 17.896C90.3754 18.264 89.9114 18.584 89.2874 18.856C88.6634 19.112 87.8714 19.24 86.9114 19.24ZM89.2394 11.44C89.2394 10.592 89.1514 9.848 88.9754 9.208C88.8154 8.568 88.5434 8.072 88.1594 7.72C87.7754 7.368 87.2634 7.192 86.6234 7.192C86.0314 7.192 85.5274 7.36 85.1114 7.696C84.7114 8.016 84.3914 8.488 84.1514 9.112C83.9274 9.736 83.7834 10.512 83.7194 11.44H89.2394ZM99.5336 19V17.992H99.7256C100.094 17.992 100.422 17.952 100.71 17.872C101.014 17.792 101.254 17.632 101.43 17.392C101.606 17.136 101.694 16.76 101.694 16.264V3.4C101.694 2.92 101.598 2.568 101.406 2.344C101.23 2.104 100.99 1.952 100.686 1.888C100.398 1.808 100.078 1.768 99.7256 1.768H99.5336V0.759999L103.95 0.759999V6.04C103.95 6.328 103.942 6.632 103.926 6.952C103.91 7.256 103.894 7.52 103.878 7.744C103.862 7.968 103.854 8.08 103.854 8.08H103.974C104.214 7.6 104.502 7.2 104.838 6.88C105.19 6.544 105.582 6.296 106.014 6.136C106.462 5.976 106.958 5.896 107.502 5.896C108.878 5.896 109.926 6.272 110.646 7.024C111.382 7.76 111.75 8.952 111.75 10.6V16.264C111.75 16.76 111.83 17.136 111.99 17.392C112.15 17.632 112.366 17.792 112.638 17.872C112.926 17.952 113.246 17.992 113.598 17.992H113.67V19H109.494V10.72C109.494 9.68 109.294 8.872 108.894 8.296C108.51 7.72 107.83 7.432 106.854 7.432C106.198 7.432 105.654 7.592 105.222 7.912C104.79 8.232 104.47 8.688 104.262 9.28C104.054 9.856 103.95 10.536 103.95 11.32V16.384C103.95 16.848 104.038 17.2 104.214 17.44C104.406 17.664 104.646 17.816 104.934 17.896C105.238 17.96 105.566 17.992 105.918 17.992H105.99V19H99.5336ZM119.256 19.24C118.552 19.24 117.912 19.104 117.336 18.832C116.776 18.544 116.336 18.12 116.016 17.56C115.696 16.984 115.536 16.264 115.536 15.4C115.536 14.12 115.984 13.176 116.88 12.568C117.792 11.96 119.168 11.624 121.008 11.56L123 11.488V10.048C123 9.472 122.952 8.968 122.856 8.536C122.76 8.088 122.552 7.736 122.232 7.48C121.912 7.224 121.424 7.096 120.768 7.096C120.16 7.096 119.696 7.208 119.376 7.432C119.056 7.656 118.84 7.968 118.728 8.368C118.632 8.752 118.584 9.2 118.584 9.712C117.912 9.712 117.4 9.6 117.048 9.376C116.712 9.136 116.544 8.744 116.544 8.2C116.544 7.64 116.736 7.192 117.12 6.856C117.52 6.52 118.048 6.28 118.704 6.136C119.36 5.976 120.08 5.896 120.864 5.896C122.336 5.896 123.432 6.208 124.152 6.832C124.888 7.456 125.256 8.528 125.256 10.048V16.264C125.256 16.712 125.304 17.064 125.4 17.32C125.496 17.56 125.656 17.736 125.88 17.848C126.104 17.944 126.392 17.992 126.744 17.992H126.816V19H123.576L123.192 16.936H123C122.664 17.384 122.336 17.784 122.016 18.136C121.696 18.472 121.32 18.744 120.888 18.952C120.472 19.144 119.928 19.24 119.256 19.24ZM119.808 17.752C120.464 17.752 121.024 17.616 121.488 17.344C121.968 17.072 122.336 16.688 122.592 16.192C122.864 15.68 123 15.088 123 14.416V12.472L121.464 12.544C120.552 12.576 119.832 12.712 119.304 12.952C118.792 13.192 118.424 13.528 118.2 13.96C117.976 14.376 117.864 14.896 117.864 15.52C117.864 16.016 117.936 16.432 118.08 16.768C118.224 17.088 118.44 17.336 118.728 17.512C119.016 17.672 119.376 17.752 119.808 17.752ZM128.531 19V17.992H128.723C129.091 17.992 129.419 17.952 129.707 17.872C130.011 17.792 130.251 17.632 130.427 17.392C130.603 17.136 130.691 16.76 130.691 16.264V8.776C130.691 8.296 130.603 7.944 130.427 7.72C130.251 7.48 130.019 7.328 129.731 7.264C129.443 7.184 129.123 7.144 128.771 7.144H128.651V6.136L132.539 6.136L132.851 8.08H132.971C133.307 7.472 133.659 7.016 134.027 6.712C134.411 6.392 134.827 6.176 135.275 6.064C135.723 5.952 136.203 5.896 136.715 5.896C137.979 5.896 138.963 6.272 139.667 7.024C140.387 7.76 140.747 8.952 140.747 10.6V16.264C140.747 16.76 140.819 17.136 140.963 17.392C141.123 17.632 141.339 17.792 141.611 17.872C141.883 17.952 142.195 17.992 142.547 17.992H142.667V19H138.491V10.72C138.491 9.68 138.291 8.872 137.891 8.296C137.507 7.72 136.827 7.432 135.851 7.432C135.131 7.432 134.555 7.616 134.123 7.984C133.707 8.336 133.403 8.808 133.211 9.4C133.035 9.992 132.947 10.632 132.947 11.32V16.384C132.947 16.848 133.035 17.2 133.211 17.44C133.387 17.664 133.619 17.816 133.907 17.896C134.195 17.96 134.515 17.992 134.867 17.992H134.987V19L128.531 19ZM149.544 19.24C148.488 19.24 147.592 19.008 146.856 18.544C146.136 18.08 145.584 17.36 145.2 16.384C144.832 15.392 144.648 14.128 144.648 12.592C144.648 11.04 144.832 9.776 145.2 8.8C145.584 7.808 146.136 7.08 146.856 6.616C147.592 6.136 148.488 5.896 149.544 5.896C150.472 5.896 151.224 6.096 151.8 6.496C152.392 6.88 152.864 7.384 153.216 8.008H153.36C153.328 7.736 153.296 7.448 153.264 7.144C153.248 6.84 153.232 6.536 153.216 6.232C153.216 5.912 153.216 5.624 153.216 5.368V3.4C153.216 2.92 153.12 2.568 152.928 2.344C152.752 2.104 152.512 1.952 152.208 1.888C151.92 1.808 151.6 1.768 151.248 1.768H151.056V0.759999L155.472 0.759999V16.36C155.472 16.824 155.56 17.176 155.736 17.416C155.928 17.656 156.168 17.816 156.456 17.896C156.76 17.96 157.088 17.992 157.44 17.992H157.632V19H153.576L153.312 16.84H153.216C152.864 17.576 152.4 18.16 151.824 18.592C151.248 19.024 150.488 19.24 149.544 19.24ZM149.952 17.704C151.2 17.704 152.056 17.288 152.52 16.456C152.984 15.608 153.216 14.32 153.216 12.592C153.216 11.472 153.112 10.536 152.904 9.784C152.712 9.016 152.376 8.432 151.896 8.032C151.432 7.632 150.776 7.432 149.928 7.432C149.224 7.432 148.656 7.632 148.224 8.032C147.792 8.432 147.472 9.016 147.264 9.784C147.072 10.552 146.976 11.496 146.976 12.616C146.976 13.752 147.072 14.696 147.264 15.448C147.472 16.2 147.792 16.768 148.224 17.152C148.672 17.52 149.248 17.704 149.952 17.704ZM158.502 24.76V23.752H158.694C159.062 23.752 159.39 23.712 159.678 23.632C159.982 23.552 160.222 23.384 160.398 23.128C160.574 22.888 160.662 22.52 160.662 22.024V8.776C160.662 8.296 160.566 7.944 160.374 7.72C160.198 7.48 159.958 7.328 159.654 7.264C159.366 7.184 159.046 7.144 158.694 7.144H158.382V6.136H162.582L162.822 8.296H162.918C163.286 7.56 163.758 6.976 164.334 6.544C164.91 6.112 165.662 5.896 166.59 5.896C168.174 5.896 169.382 6.432 170.214 7.504C171.062 8.56 171.486 10.24 171.486 12.544C171.486 14.864 171.062 16.56 170.214 17.632C169.382 18.704 168.174 19.24 166.59 19.24C165.662 19.24 164.902 19.048 164.31 18.664C163.734 18.264 163.27 17.752 162.918 17.128H162.822C162.854 17.432 162.87 17.76 162.87 18.112C162.886 18.448 162.894 18.768 162.894 19.072C162.91 19.376 162.918 19.632 162.918 19.84V22.144C162.918 22.608 163.006 22.952 163.182 23.176C163.374 23.416 163.614 23.568 163.902 23.632C164.206 23.712 164.534 23.752 164.886 23.752H164.958V24.76H158.502ZM166.206 17.704C166.91 17.704 167.478 17.504 167.91 17.104C168.342 16.704 168.654 16.12 168.846 15.352C169.054 14.584 169.158 13.64 169.158 12.52C169.158 11.384 169.054 10.44 168.846 9.688C168.654 8.936 168.342 8.376 167.91 8.008C167.478 7.624 166.902 7.432 166.182 7.432C165.35 7.432 164.694 7.616 164.214 7.984C163.75 8.352 163.414 8.92 163.206 9.688C163.014 10.44 162.918 11.392 162.918 12.544C162.918 13.648 163.014 14.584 163.206 15.352C163.414 16.12 163.758 16.704 164.238 17.104C164.718 17.504 165.374 17.704 166.206 17.704ZM179.365 19.24C178.101 19.24 177.125 18.872 176.437 18.136C175.749 17.384 175.405 16.184 175.405 14.536V8.776C175.405 8.296 175.309 7.944 175.117 7.72C174.941 7.48 174.701 7.328 174.396 7.264C174.109 7.184 173.789 7.144 173.437 7.144H173.365V6.136H177.661V14.416C177.661 15.104 177.733 15.696 177.877 16.192C178.037 16.688 178.301 17.064 178.669 17.32C179.037 17.576 179.541 17.704 180.181 17.704C180.885 17.704 181.461 17.544 181.909 17.224C182.357 16.888 182.685 16.432 182.893 15.856C183.101 15.264 183.205 14.584 183.205 13.816V8.872C183.205 8.36 183.117 7.984 182.941 7.744C182.765 7.504 182.525 7.344 182.221 7.264C181.933 7.184 181.605 7.144 181.237 7.144H181.165V6.136L185.461 6.136V16.384C185.461 16.848 185.549 17.2 185.725 17.44C185.917 17.664 186.157 17.816 186.445 17.896C186.749 17.96 187.077 17.992 187.429 17.992H187.501V19H183.685L183.373 17.056H183.253C183.013 17.504 182.741 17.872 182.437 18.16C182.149 18.448 181.845 18.672 181.525 18.832C181.205 18.976 180.861 19.08 180.493 19.144C180.125 19.208 179.749 19.24 179.365 19.24ZM188.719 19V17.992H189.031C189.399 17.992 189.719 17.952 189.991 17.872C190.263 17.792 190.479 17.632 190.639 17.392C190.799 17.136 190.879 16.76 190.879 16.264V8.776C190.879 8.296 190.799 7.944 190.639 7.72C190.479 7.48 190.255 7.328 189.967 7.264C189.695 7.184 189.383 7.144 189.031 7.144H188.959V6.136H192.727L193.039 8.08H193.159C193.479 7.472 193.823 7.016 194.191 6.712C194.559 6.392 194.959 6.176 195.391 6.064C195.823 5.952 196.287 5.896 196.783 5.896C197.295 5.896 197.775 5.968 198.223 6.112C198.687 6.256 199.095 6.488 199.447 6.808C199.799 7.112 200.071 7.536 200.263 8.08H200.455C200.775 7.472 201.127 7.016 201.511 6.712C201.911 6.392 202.335 6.176 202.783 6.064C203.247 5.952 203.727 5.896 204.223 5.896C205.455 5.896 206.415 6.272 207.103 7.024C207.791 7.76 208.135 8.952 208.135 10.6V16.264C208.135 16.76 208.215 17.136 208.375 17.392C208.535 17.632 208.751 17.792 209.023 17.872C209.311 17.952 209.631 17.992 209.983 17.992H210.055V19H205.879V10.72C205.879 9.68 205.687 8.872 205.303 8.296C204.935 7.72 204.287 7.432 203.359 7.432C202.703 7.432 202.175 7.6 201.775 7.936C201.391 8.256 201.111 8.688 200.935 9.232C200.775 9.776 200.695 10.368 200.695 11.008V16.264C200.695 16.76 200.775 17.136 200.935 17.392C201.095 17.632 201.311 17.792 201.583 17.872C201.871 17.952 202.191 17.992 202.543 17.992H202.615V19L198.439 19V10.72C198.439 9.68 198.247 8.872 197.863 8.296C197.495 7.72 196.847 7.432 195.919 7.432C195.231 7.432 194.679 7.616 194.263 7.984C193.863 8.336 193.575 8.808 193.399 9.4C193.223 9.992 193.135 10.632 193.135 11.32V16.384C193.135 16.848 193.223 17.2 193.399 17.44C193.591 17.664 193.831 17.816 194.119 17.896C194.423 17.96 194.751 17.992 195.103 17.992H195.175V19H188.719ZM211.166 24.76V23.752H211.358C211.726 23.752 212.054 23.712 212.342 23.632C212.646 23.552 212.886 23.384 213.062 23.128C213.238 22.888 213.326 22.52 213.326 22.024V8.776C213.326 8.296 213.23 7.944 213.038 7.72C212.862 7.48 212.622 7.328 212.318 7.264C212.03 7.184 211.71 7.144 211.358 7.144H211.046V6.136H215.246L215.486 8.296H215.582C215.95 7.56 216.422 6.976 216.998 6.544C217.574 6.112 218.326 5.896 219.254 5.896C220.838 5.896 222.046 6.432 222.878 7.504C223.726 8.56 224.15 10.24 224.15 12.544C224.15 14.864 223.726 16.56 222.878 17.632C222.046 18.704 220.838 19.24 219.254 19.24C218.326 19.24 217.566 19.048 216.974 18.664C216.398 18.264 215.934 17.752 215.582 17.128H215.486C215.518 17.432 215.534 17.76 215.534 18.112C215.55 18.448 215.558 18.768 215.558 19.072C215.574 19.376 215.582 19.632 215.582 19.84V22.144C215.582 22.608 215.67 22.952 215.846 23.176C216.038 23.416 216.278 23.568 216.566 23.632C216.87 23.712 217.198 23.752 217.55 23.752H217.622V24.76H211.166ZM218.87 17.704C219.574 17.704 220.142 17.504 220.574 17.104C221.006 16.704 221.318 16.12 221.51 15.352C221.718 14.584 221.822 13.64 221.822 12.52C221.822 11.384 221.718 10.44 221.51 9.688C221.318 8.936 221.006 8.376 220.574 8.008C220.142 7.624 219.566 7.432 218.846 7.432C218.014 7.432 217.358 7.616 216.878 7.984C216.414 8.352 216.078 8.92 215.87 9.688C215.678 10.44 215.582 11.392 215.582 12.544C215.582 13.648 215.678 14.584 215.87 15.352C216.078 16.12 216.422 16.704 216.902 17.104C217.382 17.504 218.038 17.704 218.87 17.704ZM45.85 59V57.992H46.042C46.41 57.992 46.738 57.952 47.026 57.872C47.33 57.792 47.57 57.632 47.746 57.392C47.922 57.136 48.01 56.76 48.01 56.264V43.4C48.01 42.92 47.914 42.568 47.722 42.344C47.546 42.104 47.306 41.952 47.002 41.888C46.714 41.808 46.394 41.768 46.042 41.768H45.85V40.76H50.266V46.04C50.266 46.328 50.258 46.632 50.242 46.952C50.226 47.256 50.21 47.52 50.194 47.744C50.178 47.968 50.17 48.08 50.17 48.08H50.29C50.53 47.6 50.818 47.2 51.154 46.88C51.506 46.544 51.898 46.296 52.33 46.136C52.778 45.976 53.274 45.896 53.818 45.896C55.194 45.896 56.242 46.272 56.962 47.024C57.698 47.76 58.066 48.952 58.066 50.6V56.264C58.066 56.76 58.146 57.136 58.306 57.392C58.466 57.632 58.682 57.792 58.954 57.872C59.242 57.952 59.562 57.992 59.914 57.992H59.986V59H55.81V50.72C55.81 49.68 55.61 48.872 55.21 48.296C54.826 47.72 54.146 47.432 53.17 47.432C52.514 47.432 51.97 47.592 51.538 47.912C51.106 48.232 50.786 48.688 50.578 49.28C50.37 49.856 50.266 50.536 50.266 51.32V56.384C50.266 56.848 50.354 57.2 50.53 57.44C50.722 57.664 50.962 57.816 51.25 57.896C51.554 57.96 51.882 57.992 52.234 57.992H52.306V59H45.85ZM67.5403 59.24C65.7963 59.24 64.4283 58.664 63.4363 57.512C62.4603 56.36 61.9723 54.744 61.9723 52.664C61.9723 50.424 62.4363 48.736 63.3643 47.6C64.2923 46.464 65.6043 45.896 67.3003 45.896C68.8523 45.896 70.0683 46.376 70.9483 47.336C71.8443 48.296 72.2923 49.728 72.2923 51.632V52.736L64.3003 52.736C64.3323 53.904 64.4843 54.856 64.7563 55.592C65.0283 56.328 65.4203 56.872 65.9323 57.224C66.4603 57.56 67.1083 57.728 67.8763 57.728C68.4363 57.728 68.9323 57.648 69.3643 57.488C69.8123 57.328 70.1963 57.12 70.5163 56.864C70.8523 56.608 71.1163 56.336 71.3083 56.048C71.4203 56.096 71.5243 56.192 71.6203 56.336C71.7163 56.48 71.7643 56.656 71.7643 56.864C71.7643 57.184 71.6123 57.528 71.3083 57.896C71.0043 58.264 70.5403 58.584 69.9163 58.856C69.2923 59.112 68.5003 59.24 67.5403 59.24ZM69.8683 51.44C69.8683 50.592 69.7803 49.848 69.6043 49.208C69.4443 48.568 69.1723 48.072 68.7883 47.72C68.4043 47.368 67.8923 47.192 67.2523 47.192C66.6603 47.192 66.1563 47.36 65.7403 47.696C65.3403 48.016 65.0203 48.488 64.7803 49.112C64.5563 49.736 64.4123 50.512 64.3483 51.44H69.8683ZM74.0481 59V57.992H74.3601C74.7121 57.992 75.0321 57.96 75.3201 57.896C75.6241 57.816 75.8641 57.664 76.0401 57.44C76.2321 57.2 76.3281 56.848 76.3281 56.384V48.776C76.3281 48.296 76.2321 47.944 76.0401 47.72C75.8641 47.48 75.6241 47.328 75.3201 47.264C75.0321 47.184 74.7121 47.144 74.3601 47.144H74.2881V46.136H78.5841L78.5841 56.264C78.5841 56.76 78.6721 57.136 78.8481 57.392C79.0241 57.632 79.2641 57.792 79.5681 57.872C79.8721 57.952 80.2001 57.992 80.5521 57.992H80.8641V59H74.0481ZM77.3601 43.736C76.9761 43.736 76.6481 43.624 76.3761 43.4C76.1201 43.176 75.9921 42.792 75.9921 42.248C75.9921 41.688 76.1201 41.304 76.3761 41.096C76.6481 40.872 76.9761 40.76 77.3601 40.76C77.7281 40.76 78.0481 40.872 78.3201 41.096C78.5921 41.304 78.7281 41.688 78.7281 42.248C78.7281 42.792 78.5921 43.176 78.3201 43.4C78.0481 43.624 77.7281 43.736 77.3601 43.736ZM86.7276 64.76C85.0636 64.76 83.8156 64.448 82.9836 63.824C82.1516 63.216 81.7356 62.36 81.7356 61.256C81.7356 60.632 81.8716 60.104 82.1436 59.672C82.4316 59.256 82.7996 58.928 83.2476 58.688C83.7116 58.448 84.2076 58.28 84.7356 58.184C84.4156 58.04 84.1116 57.808 83.8236 57.488C83.5516 57.152 83.4156 56.728 83.4156 56.216C83.4156 55.736 83.5356 55.32 83.7756 54.968C84.0316 54.616 84.4316 54.28 84.9756 53.96C84.2876 53.672 83.7516 53.2 83.3676 52.544C82.9996 51.872 82.8156 51.136 82.8156 50.336C82.8156 48.96 83.1916 47.88 83.9436 47.096C84.6956 46.296 85.8236 45.896 87.3276 45.896C87.9036 45.896 88.4476 45.976 88.9596 46.136C89.4716 46.296 89.8396 46.48 90.0636 46.688C90.2236 46.512 90.4156 46.328 90.6396 46.136C90.8636 45.928 91.1196 45.752 91.4076 45.608C91.7116 45.464 92.0396 45.392 92.3916 45.392C92.8716 45.392 93.2236 45.52 93.4476 45.776C93.6876 46.016 93.8076 46.304 93.8076 46.64C93.8076 46.976 93.7036 47.272 93.4956 47.528C93.3036 47.768 92.9836 47.888 92.5356 47.888C92.5356 47.712 92.4796 47.536 92.3676 47.36C92.2716 47.168 92.0636 47.072 91.7436 47.072C91.5356 47.072 91.3516 47.096 91.1916 47.144C91.0316 47.192 90.8716 47.264 90.7116 47.36C90.9836 47.696 91.2076 48.096 91.3836 48.56C91.5596 49.008 91.6476 49.576 91.6476 50.264C91.6476 51.448 91.2876 52.432 90.5676 53.216C89.8636 54 88.7836 54.392 87.3276 54.392C87.1356 54.392 86.9116 54.384 86.6556 54.368C86.4156 54.336 86.2156 54.304 86.0556 54.272C85.7516 54.432 85.4876 54.632 85.2636 54.872C85.0396 55.112 84.9276 55.416 84.9276 55.784C84.9276 56.072 85.0156 56.296 85.1916 56.456C85.3836 56.616 85.7916 56.696 86.4156 56.696L89.1276 56.696C90.0876 56.696 90.8556 56.856 91.4316 57.176C92.0076 57.48 92.4236 57.904 92.6796 58.448C92.9516 58.976 93.0876 59.584 93.0876 60.272C93.0876 61.648 92.5676 62.736 91.5276 63.536C90.5036 64.352 88.9036 64.76 86.7276 64.76ZM86.7756 63.584C87.9276 63.584 88.8156 63.456 89.4396 63.2C90.0636 62.96 90.4956 62.616 90.7356 62.168C90.9916 61.736 91.1196 61.24 91.1196 60.68C91.1196 59.944 90.9116 59.448 90.4956 59.192C90.0796 58.952 89.4716 58.832 88.6716 58.832H86.3196C85.8716 58.832 85.4476 58.888 85.0476 59C84.6476 59.128 84.3196 59.352 84.0636 59.672C83.8076 59.992 83.6796 60.472 83.6796 61.112C83.6796 61.576 83.7676 61.992 83.9436 62.36C84.1196 62.744 84.4316 63.04 84.8796 63.248C85.3276 63.472 85.9596 63.584 86.7756 63.584ZM87.2556 53.24C87.7836 53.24 88.1996 53.136 88.5036 52.928C88.8236 52.72 89.0476 52.392 89.1756 51.944C89.3196 51.496 89.3916 50.928 89.3916 50.24C89.3916 49.52 89.3196 48.928 89.1756 48.464C89.0316 47.984 88.7996 47.632 88.4796 47.408C88.1756 47.184 87.7596 47.072 87.2316 47.072C86.7196 47.072 86.3036 47.192 85.9836 47.432C85.6636 47.656 85.4316 48.008 85.2876 48.488C85.1436 48.952 85.0716 49.544 85.0716 50.264C85.0716 50.936 85.1436 51.496 85.2876 51.944C85.4476 52.376 85.6876 52.704 86.0076 52.928C86.3276 53.136 86.7436 53.24 87.2556 53.24ZM94.5297 59V57.992H94.7217C95.0897 57.992 95.4177 57.952 95.7057 57.872C96.0097 57.792 96.2497 57.632 96.4257 57.392C96.6017 57.136 96.6897 56.76 96.6897 56.264L96.6897 43.4C96.6897 42.92 96.5937 42.568 96.4017 42.344C96.2257 42.104 95.9857 41.952 95.6817 41.888C95.3937 41.808 95.0737 41.768 94.7217 41.768H94.5297V40.76H98.9457V46.04C98.9457 46.328 98.9377 46.632 98.9217 46.952C98.9057 47.256 98.8897 47.52 98.8737 47.744C98.8577 47.968 98.8497 48.08 98.8497 48.08H98.9697C99.2097 47.6 99.4977 47.2 99.8337 46.88C100.186 46.544 100.578 46.296 101.01 46.136C101.458 45.976 101.954 45.896 102.498 45.896C103.874 45.896 104.922 46.272 105.642 47.024C106.378 47.76 106.746 48.952 106.746 50.6V56.264C106.746 56.76 106.826 57.136 106.986 57.392C107.146 57.632 107.362 57.792 107.634 57.872C107.922 57.952 108.242 57.992 108.594 57.992H108.666V59H104.49V50.72C104.49 49.68 104.29 48.872 103.89 48.296C103.506 47.72 102.826 47.432 101.85 47.432C101.194 47.432 100.65 47.592 100.218 47.912C99.7857 48.232 99.4657 48.688 99.2577 49.28C99.0497 49.856 98.9457 50.536 98.9457 51.32V56.384C98.9457 56.848 99.0337 57.2 99.2097 57.44C99.4017 57.664 99.6417 57.816 99.9297 57.896C100.234 57.96 100.562 57.992 100.914 57.992H100.986V59H94.5297ZM115.092 59.24C113.876 59.24 112.988 58.968 112.428 58.424C111.884 57.864 111.612 56.896 111.612 55.52L111.612 47.504H109.788V46.544C110.076 46.544 110.396 46.488 110.748 46.376C111.1 46.248 111.404 46.048 111.66 45.776C111.932 45.488 112.156 45.136 112.332 44.72C112.508 44.304 112.652 43.792 112.764 43.184H113.868V46.136H117.012V47.504H113.868L113.868 55.592C113.868 56.408 114.036 57.008 114.372 57.392C114.708 57.776 115.148 57.968 115.692 57.968C115.98 57.968 116.244 57.952 116.484 57.92C116.724 57.888 116.972 57.848 117.228 57.8V58.856C117.02 58.952 116.708 59.04 116.292 59.12C115.876 59.2 115.476 59.24 115.092 59.24ZM125.564 48.776V47.36H135.86V48.776H125.564ZM125.564 53.504V52.088H135.86V53.504H125.564Z" fill="white"/>
<path d="M149.573 59.24C148.517 59.24 147.653 59.12 146.981 58.88C146.309 58.624 145.813 58.296 145.493 57.896C145.189 57.48 145.037 57.04 145.037 56.576C145.037 56.096 145.173 55.72 145.445 55.448C145.733 55.176 146.101 55.04 146.549 55.04C146.549 55.6 146.669 56.104 146.909 56.552C147.149 56.984 147.493 57.328 147.941 57.584C148.405 57.824 148.957 57.944 149.597 57.944C150.237 57.944 150.821 57.824 151.349 57.584C151.893 57.328 152.333 56.92 152.669 56.36C153.005 55.8 153.173 55.04 153.173 54.08C153.173 53.408 152.997 52.824 152.645 52.328C152.293 51.816 151.789 51.424 151.133 51.152C150.493 50.88 149.725 50.744 148.829 50.744H148.061V49.52H148.829C149.533 49.52 150.165 49.368 150.725 49.064C151.301 48.76 151.757 48.328 152.093 47.768C152.429 47.208 152.597 46.552 152.597 45.8C152.597 44.856 152.397 44.128 151.997 43.616C151.613 43.088 150.957 42.824 150.029 42.824C149.309 42.824 148.757 42.992 148.373 43.328C147.989 43.664 147.725 44.104 147.581 44.648C147.453 45.176 147.389 45.76 147.389 46.4C146.813 46.4 146.325 46.296 145.925 46.088C145.525 45.864 145.325 45.448 145.325 44.84C145.325 44.216 145.501 43.664 145.853 43.184C146.205 42.704 146.733 42.328 147.437 42.056C148.141 41.768 149.005 41.624 150.029 41.624C151.549 41.624 152.765 41.96 153.677 42.632C154.605 43.288 155.069 44.224 155.069 45.44C155.069 46.16 154.901 46.824 154.565 47.432C154.229 48.024 153.773 48.536 153.197 48.968C152.621 49.384 151.965 49.68 151.229 49.856C151.677 49.904 152.157 50.008 152.669 50.168C153.181 50.312 153.661 50.544 154.109 50.864C154.573 51.184 154.949 51.608 155.237 52.136C155.525 52.648 155.669 53.304 155.669 54.104C155.669 55.064 155.485 55.88 155.117 56.552C154.749 57.208 154.261 57.736 153.653 58.136C153.045 58.52 152.381 58.8 151.661 58.976C150.957 59.152 150.261 59.24 149.573 59.24ZM163.933 59V57.992H164.245C164.613 57.992 164.941 57.952 165.229 57.872C165.533 57.792 165.773 57.632 165.949 57.392C166.125 57.136 166.213 56.76 166.213 56.264V47.264H164.029V46.136H166.213V44.936C166.213 43.512 166.589 42.424 167.341 41.672C168.109 40.904 169.149 40.52 170.461 40.52C171.293 40.52 171.949 40.592 172.429 40.736C172.925 40.88 173.277 41.08 173.485 41.336C173.709 41.576 173.821 41.864 173.821 42.2C173.821 42.488 173.733 42.736 173.557 42.944C173.397 43.136 173.165 43.288 172.861 43.4C172.573 43.496 172.237 43.544 171.853 43.544C171.853 43.224 171.805 42.92 171.709 42.632C171.613 42.328 171.453 42.088 171.229 41.912C171.005 41.72 170.685 41.624 170.269 41.624C169.581 41.624 169.109 41.888 168.853 42.416C168.597 42.944 168.469 43.712 168.469 44.72V46.136H171.853V47.264H168.469V56.264C168.469 56.76 168.557 57.136 168.733 57.392C168.909 57.632 169.149 57.792 169.453 57.872C169.757 57.952 170.085 57.992 170.437 57.992H171.349V59H163.933ZM177.905 59.24C176.689 59.24 175.801 58.968 175.241 58.424C174.697 57.864 174.425 56.896 174.425 55.52V47.504L172.601 47.504V46.544C172.889 46.544 173.209 46.488 173.561 46.376C173.913 46.248 174.217 46.048 174.473 45.776C174.745 45.488 174.969 45.136 175.145 44.72C175.321 44.304 175.465 43.792 175.577 43.184H176.681V46.136H179.825V47.504H176.681V55.592C176.681 56.408 176.849 57.008 177.185 57.392C177.521 57.776 177.961 57.968 178.505 57.968C178.793 57.968 179.057 57.952 179.297 57.92C179.537 57.888 179.785 57.848 180.041 57.8V58.856C179.833 58.952 179.521 59.04 179.105 59.12C178.689 59.2 178.289 59.24 177.905 59.24Z" fill="#F1AE12"/>
</svg>
