<svg width="245" height="60" viewBox="0 0 245 60" fill="none" xmlns="http://www.w3.org/2000/svg">
<path d="M9.03025 19.24C7.17425 19.24 5.63025 18.872 4.39825 18.136C3.18225 17.4 2.27025 16.376 1.66225 15.064C1.07025 13.736 0.77425 12.184 0.77425 10.408C0.77425 8.68 1.08625 7.16 1.71025 5.848C2.35025 4.52 3.29425 3.488 4.54225 2.752C5.79025 2 7.33425 1.624 9.17425 1.624C10.3583 1.624 11.3423 1.744 12.1263 1.984C12.9103 2.208 13.4943 2.528 13.8783 2.944C14.2783 3.344 14.4783 3.8 14.4783 4.312C14.4783 4.824 14.2623 5.232 13.8303 5.536C13.3983 5.84 12.8703 5.992 12.2463 5.992C12.2463 5.496 12.1423 5.016 11.9343 4.552C11.7423 4.072 11.4143 3.68 10.9503 3.376C10.4863 3.056 9.86225 2.896 9.07825 2.896C7.71825 2.896 6.62225 3.192 5.79025 3.784C4.97425 4.36 4.37425 5.208 3.99025 6.328C3.62225 7.448 3.43825 8.808 3.43825 10.408C3.43825 12.008 3.63025 13.368 4.01425 14.488C4.41425 15.592 5.04625 16.432 5.91025 17.008C6.79025 17.584 7.95825 17.872 9.41425 17.872C9.87825 17.872 10.3263 17.848 10.7583 17.8C11.1903 17.752 11.5743 17.68 11.9103 17.584V13.72C11.9103 13.24 11.8143 12.888 11.6223 12.664C11.4463 12.424 11.2063 12.272 10.9023 12.208C10.6143 12.128 10.2943 12.088 9.94225 12.088H9.84625L9.84625 11.08H16.0863V12.088H15.9903C15.6863 12.088 15.4063 12.128 15.1503 12.208C14.9103 12.288 14.7103 12.448 14.5503 12.688C14.4063 12.928 14.3343 13.304 14.3343 13.816V18.136C13.5343 18.504 12.7103 18.784 11.8623 18.976C11.0143 19.152 10.0703 19.24 9.03025 19.24ZM17.3311 19V17.992H17.4031C17.7711 17.992 18.0991 17.952 18.3871 17.872C18.6911 17.792 18.9311 17.632 19.1071 17.392C19.2831 17.136 19.3711 16.76 19.3711 16.264V8.776C19.3711 8.296 19.2751 7.944 19.0831 7.72C18.9071 7.48 18.6671 7.328 18.3631 7.264C18.0751 7.184 17.7551 7.144 17.4031 7.144H17.3311V6.136H21.0271L21.4831 8.512H21.6031C21.8111 8.032 22.0351 7.592 22.2751 7.192C22.5151 6.792 22.8351 6.48 23.2351 6.256C23.6351 6.016 24.1871 5.896 24.8911 5.896C25.7711 5.896 26.4191 6.048 26.8351 6.352C27.2671 6.656 27.4831 7.088 27.4831 7.648C27.4831 8.144 27.3071 8.552 26.9551 8.872C26.6191 9.192 26.0511 9.352 25.2511 9.352C25.2511 8.904 25.2111 8.544 25.1311 8.272C25.0511 8 24.9151 7.8 24.7231 7.672C24.5471 7.544 24.2991 7.48 23.9791 7.48C23.5311 7.48 23.1551 7.656 22.8511 8.008C22.5471 8.36 22.3071 8.808 22.1311 9.352C21.9551 9.896 21.8271 10.464 21.7471 11.056C21.6671 11.632 21.6271 12.152 21.6271 12.616V16.384C21.6271 16.848 21.7151 17.2 21.8911 17.44C22.0831 17.664 22.3231 17.816 22.6111 17.896C22.9151 17.96 23.2431 17.992 23.5951 17.992H24.2671V19L17.3311 19ZM34.7239 19.24C32.9959 19.24 31.6359 18.688 30.6439 17.584C29.6519 16.48 29.1559 14.8 29.1559 12.544C29.1559 10.304 29.6279 8.64 30.5719 7.552C31.5319 6.448 32.9399 5.896 34.7959 5.896C36.5239 5.896 37.8839 6.448 38.8759 7.552C39.8679 8.64 40.3639 10.304 40.3639 12.544C40.3639 14.8 39.8839 16.48 38.9239 17.584C37.9799 18.688 36.5799 19.24 34.7239 19.24ZM34.7719 17.992C35.5719 17.992 36.2119 17.792 36.6919 17.392C37.1719 16.976 37.5159 16.36 37.7239 15.544C37.9319 14.728 38.0359 13.728 38.0359 12.544C38.0359 11.344 37.9239 10.352 37.6999 9.568C37.4919 8.768 37.1479 8.168 36.6679 7.768C36.1879 7.368 35.5479 7.168 34.7479 7.168C33.9479 7.168 33.3079 7.368 32.8279 7.768C32.3479 8.168 32.0039 8.768 31.7959 9.568C31.5879 10.352 31.4839 11.344 31.4839 12.544C31.4839 13.728 31.5879 14.728 31.7959 15.544C32.0199 16.36 32.3719 16.976 32.8519 17.392C33.3319 17.792 33.9719 17.992 34.7719 17.992ZM48.2395 19.24C46.9755 19.24 45.9995 18.872 45.3115 18.136C44.6235 17.384 44.2795 16.184 44.2795 14.536V8.776C44.2795 8.296 44.1835 7.944 43.9915 7.72C43.8155 7.48 43.5755 7.328 43.2715 7.264C42.9835 7.184 42.6635 7.144 42.3115 7.144H42.2395V6.136H46.5355V14.416C46.5355 15.104 46.6075 15.696 46.7515 16.192C46.9115 16.688 47.1755 17.064 47.5435 17.32C47.9115 17.576 48.4155 17.704 49.0555 17.704C49.7595 17.704 50.3355 17.544 50.7835 17.224C51.2315 16.888 51.5595 16.432 51.7675 15.856C51.9755 15.264 52.0795 14.584 52.0795 13.816V8.872C52.0795 8.36 51.9915 7.984 51.8155 7.744C51.6395 7.504 51.3995 7.344 51.0955 7.264C50.8075 7.184 50.4795 7.144 50.1115 7.144H50.0395V6.136H54.3355V16.384C54.3355 16.848 54.4235 17.2 54.5995 17.44C54.7915 17.664 55.0315 17.816 55.3195 17.896C55.6235 17.96 55.9515 17.992 56.3035 17.992H56.3755L56.3755 19H52.5595L52.2475 17.056H52.1275C51.8875 17.504 51.6155 17.872 51.3115 18.16C51.0235 18.448 50.7195 18.672 50.3995 18.832C50.0795 18.976 49.7355 19.08 49.3675 19.144C48.9995 19.208 48.6235 19.24 48.2395 19.24ZM57.5939 19L57.5939 17.992H57.7859C58.1539 17.992 58.4819 17.952 58.7699 17.872C59.0739 17.792 59.3139 17.632 59.4899 17.392C59.6659 17.136 59.7539 16.76 59.7539 16.264V8.776C59.7539 8.296 59.6659 7.944 59.4899 7.72C59.3139 7.48 59.0819 7.328 58.7939 7.264C58.5059 7.184 58.1859 7.144 57.8339 7.144H57.7139V6.136H61.6019L61.9139 8.08H62.0339C62.3699 7.472 62.7219 7.016 63.0899 6.712C63.4739 6.392 63.8899 6.176 64.3379 6.064C64.7859 5.952 65.2659 5.896 65.7779 5.896C67.0419 5.896 68.0259 6.272 68.7299 7.024C69.4499 7.76 69.8099 8.952 69.8099 10.6V16.264C69.8099 16.76 69.8819 17.136 70.0259 17.392C70.1859 17.632 70.4019 17.792 70.6739 17.872C70.9459 17.952 71.2579 17.992 71.6099 17.992H71.7299V19H67.5539V10.72C67.5539 9.68 67.3539 8.872 66.9539 8.296C66.5699 7.72 65.8899 7.432 64.9139 7.432C64.1939 7.432 63.6179 7.616 63.1859 7.984C62.7699 8.336 62.4659 8.808 62.2739 9.4C62.0979 9.992 62.0099 10.632 62.0099 11.32V16.384C62.0099 16.848 62.0979 17.2 62.2739 17.44C62.4499 17.664 62.6819 17.816 62.9699 17.896C63.2579 17.96 63.5779 17.992 63.9299 17.992H64.0499V19H57.5939ZM78.6066 19.24C77.5506 19.24 76.6546 19.008 75.9186 18.544C75.1986 18.08 74.6466 17.36 74.2626 16.384C73.8946 15.392 73.7106 14.128 73.7106 12.592C73.7106 11.04 73.8946 9.776 74.2626 8.8C74.6466 7.808 75.1986 7.08 75.9186 6.616C76.6546 6.136 77.5506 5.896 78.6066 5.896C79.5346 5.896 80.2866 6.096 80.8626 6.496C81.4546 6.88 81.9266 7.384 82.2786 8.008H82.4226C82.3906 7.736 82.3586 7.448 82.3266 7.144C82.3106 6.84 82.2946 6.536 82.2786 6.232C82.2786 5.912 82.2786 5.624 82.2786 5.368V3.4C82.2786 2.92 82.1826 2.568 81.9906 2.344C81.8146 2.104 81.5746 1.952 81.2706 1.888C80.9826 1.808 80.6626 1.768 80.3106 1.768H80.1186V0.759999H84.5346V16.36C84.5346 16.824 84.6226 17.176 84.7986 17.416C84.9906 17.656 85.2306 17.816 85.5186 17.896C85.8226 17.96 86.1506 17.992 86.5026 17.992H86.6946V19H82.6386L82.3746 16.84H82.2786C81.9266 17.576 81.4626 18.16 80.8866 18.592C80.3106 19.024 79.5506 19.24 78.6066 19.24ZM79.0146 17.704C80.2626 17.704 81.1186 17.288 81.5826 16.456C82.0466 15.608 82.2786 14.32 82.2786 12.592C82.2786 11.472 82.1746 10.536 81.9666 9.784C81.7746 9.016 81.4386 8.432 80.9586 8.032C80.4946 7.632 79.8386 7.432 78.9906 7.432C78.2866 7.432 77.7186 7.632 77.2866 8.032C76.8546 8.432 76.5346 9.016 76.3266 9.784C76.1346 10.552 76.0386 11.496 76.0386 12.616C76.0386 13.752 76.1346 14.696 76.3266 15.448C76.5346 16.2 76.8546 16.768 77.2866 17.152C77.7346 17.52 78.3106 17.704 79.0146 17.704ZM94.2792 19V17.992H94.5912C94.9592 17.992 95.2872 17.952 95.5752 17.872C95.8792 17.792 96.1192 17.632 96.2952 17.392C96.4712 17.136 96.5592 16.76 96.5592 16.264V4.6C96.5592 4.088 96.4712 3.712 96.2952 3.472C96.1192 3.232 95.8792 3.072 95.5752 2.992C95.2872 2.912 94.9592 2.872 94.5912 2.872H94.2792V1.864L101.263 1.864V2.872H100.951C100.599 2.872 100.271 2.912 99.9672 2.992C99.6792 3.056 99.4392 3.208 99.2472 3.448C99.0712 3.672 98.9832 4.024 98.9832 4.504V17.8H103.711C104.191 17.8 104.575 17.696 104.863 17.488C105.167 17.264 105.391 16.984 105.535 16.648C105.679 16.312 105.775 15.976 105.823 15.64L106.063 13.84H107.311L107.143 19H94.2792ZM115.208 19.24C113.464 19.24 112.096 18.664 111.104 17.512C110.128 16.36 109.64 14.744 109.64 12.664C109.64 10.424 110.104 8.736 111.032 7.6C111.96 6.464 113.272 5.896 114.968 5.896C116.52 5.896 117.736 6.376 118.616 7.336C119.512 8.296 119.96 9.728 119.96 11.632V12.736H111.968C112 13.904 112.152 14.856 112.424 15.592C112.696 16.328 113.088 16.872 113.6 17.224C114.128 17.56 114.776 17.728 115.544 17.728C116.104 17.728 116.6 17.648 117.032 17.488C117.48 17.328 117.864 17.12 118.184 16.864C118.52 16.608 118.784 16.336 118.976 16.048C119.088 16.096 119.192 16.192 119.288 16.336C119.384 16.48 119.432 16.656 119.432 16.864C119.432 17.184 119.28 17.528 118.976 17.896C118.672 18.264 118.208 18.584 117.584 18.856C116.96 19.112 116.168 19.24 115.208 19.24ZM117.536 11.44C117.536 10.592 117.448 9.848 117.272 9.208C117.112 8.568 116.84 8.072 116.456 7.72C116.072 7.368 115.56 7.192 114.92 7.192C114.328 7.192 113.824 7.36 113.408 7.696C113.008 8.016 112.688 8.488 112.448 9.112C112.224 9.736 112.08 10.512 112.016 11.44H117.536ZM123.036 8.416C122.924 8.08 122.788 7.824 122.628 7.648C122.484 7.456 122.3 7.328 122.076 7.264C121.868 7.184 121.596 7.144 121.26 7.144V6.136L127.26 6.136V7.144H126.948C126.468 7.144 126.108 7.24 125.868 7.432C125.628 7.608 125.508 7.896 125.508 8.296C125.508 8.424 125.524 8.56 125.556 8.704C125.588 8.848 125.636 9.008 125.7 9.184L127.332 13.72C127.476 14.104 127.62 14.528 127.764 14.992C127.908 15.44 128.036 15.872 128.148 16.288C128.276 16.688 128.38 17.032 128.46 17.32C128.524 17.096 128.62 16.8 128.748 16.432C128.876 16.064 129.02 15.672 129.18 15.256C129.356 14.824 129.516 14.416 129.66 14.032L131.388 9.352C131.468 9.16 131.524 8.976 131.556 8.8C131.588 8.608 131.604 8.448 131.604 8.32C131.604 7.904 131.468 7.608 131.196 7.432C130.94 7.24 130.548 7.144 130.02 7.144H129.852V6.136H134.988V7.144H134.7C134.396 7.144 134.14 7.192 133.932 7.288C133.74 7.384 133.564 7.568 133.404 7.84C133.244 8.112 133.068 8.504 132.876 9.016L129.084 19H126.9L123.036 8.416ZM141.951 19.24C140.207 19.24 138.839 18.664 137.847 17.512C136.871 16.36 136.383 14.744 136.383 12.664C136.383 10.424 136.847 8.736 137.775 7.6C138.703 6.464 140.015 5.896 141.711 5.896C143.263 5.896 144.479 6.376 145.359 7.336C146.255 8.296 146.703 9.728 146.703 11.632V12.736L138.711 12.736C138.743 13.904 138.895 14.856 139.167 15.592C139.439 16.328 139.831 16.872 140.343 17.224C140.871 17.56 141.519 17.728 142.287 17.728C142.847 17.728 143.343 17.648 143.775 17.488C144.223 17.328 144.607 17.12 144.927 16.864C145.263 16.608 145.527 16.336 145.719 16.048C145.831 16.096 145.935 16.192 146.031 16.336C146.127 16.48 146.175 16.656 146.175 16.864C146.175 17.184 146.023 17.528 145.719 17.896C145.415 18.264 144.951 18.584 144.327 18.856C143.703 19.112 142.911 19.24 141.951 19.24ZM144.279 11.44C144.279 10.592 144.191 9.848 144.015 9.208C143.855 8.568 143.583 8.072 143.199 7.72C142.815 7.368 142.303 7.192 141.663 7.192C141.071 7.192 140.567 7.36 140.151 7.696C139.751 8.016 139.431 8.488 139.191 9.112C138.967 9.736 138.823 10.512 138.759 11.44L144.279 11.44ZM148.218 19V17.992H148.53C148.898 17.992 149.226 17.952 149.514 17.872C149.818 17.792 150.058 17.632 150.234 17.392C150.41 17.136 150.498 16.76 150.498 16.264V3.4C150.498 2.92 150.402 2.568 150.21 2.344C150.034 2.104 149.794 1.952 149.49 1.888C149.202 1.808 148.882 1.768 148.53 1.768H148.218V0.759999H152.754V16.264C152.754 16.76 152.842 17.136 153.018 17.392C153.194 17.632 153.434 17.792 153.738 17.872C154.042 17.952 154.37 17.992 154.722 17.992H155.034V19H148.218ZM167.786 19.24C166.73 19.24 165.834 19.008 165.098 18.544C164.378 18.08 163.826 17.36 163.442 16.384C163.074 15.392 162.89 14.128 162.89 12.592C162.89 11.04 163.074 9.776 163.442 8.8C163.826 7.808 164.378 7.08 165.098 6.616C165.834 6.136 166.73 5.896 167.786 5.896C168.714 5.896 169.466 6.096 170.042 6.496C170.634 6.88 171.106 7.384 171.458 8.008H171.602C171.57 7.736 171.538 7.448 171.506 7.144C171.49 6.84 171.474 6.536 171.458 6.232C171.458 5.912 171.458 5.624 171.458 5.368V3.4C171.458 2.92 171.362 2.568 171.17 2.344C170.994 2.104 170.754 1.952 170.45 1.888C170.162 1.808 169.842 1.768 169.49 1.768H169.298V0.759999L173.714 0.759999V16.36C173.714 16.824 173.802 17.176 173.978 17.416C174.17 17.656 174.41 17.816 174.698 17.896C175.002 17.96 175.33 17.992 175.682 17.992H175.874V19H171.818L171.554 16.84H171.458C171.106 17.576 170.642 18.16 170.066 18.592C169.49 19.024 168.73 19.24 167.786 19.24ZM168.194 17.704C169.442 17.704 170.298 17.288 170.762 16.456C171.226 15.608 171.458 14.32 171.458 12.592C171.458 11.472 171.354 10.536 171.146 9.784C170.954 9.016 170.618 8.432 170.138 8.032C169.674 7.632 169.018 7.432 168.17 7.432C167.466 7.432 166.898 7.632 166.466 8.032C166.034 8.432 165.714 9.016 165.506 9.784C165.314 10.552 165.218 11.496 165.218 12.616C165.218 13.752 165.314 14.696 165.506 15.448C165.714 16.2 166.034 16.768 166.466 17.152C166.914 17.52 167.49 17.704 168.194 17.704ZM177.104 19V17.992H177.177C177.545 17.992 177.873 17.952 178.161 17.872C178.465 17.792 178.705 17.632 178.881 17.392C179.057 17.136 179.145 16.76 179.145 16.264V8.776C179.145 8.296 179.049 7.944 178.857 7.72C178.681 7.48 178.441 7.328 178.137 7.264C177.849 7.184 177.529 7.144 177.177 7.144H177.104V6.136H180.801L181.257 8.512H181.377C181.585 8.032 181.809 7.592 182.049 7.192C182.289 6.792 182.609 6.48 183.009 6.256C183.409 6.016 183.961 5.896 184.665 5.896C185.545 5.896 186.193 6.048 186.609 6.352C187.041 6.656 187.257 7.088 187.257 7.648C187.257 8.144 187.081 8.552 186.729 8.872C186.393 9.192 185.825 9.352 185.025 9.352C185.025 8.904 184.985 8.544 184.905 8.272C184.825 8 184.689 7.8 184.497 7.672C184.321 7.544 184.073 7.48 183.753 7.48C183.305 7.48 182.929 7.656 182.625 8.008C182.321 8.36 182.081 8.808 181.905 9.352C181.729 9.896 181.601 10.464 181.521 11.056C181.441 11.632 181.401 12.152 181.401 12.616V16.384C181.401 16.848 181.489 17.2 181.665 17.44C181.857 17.664 182.097 17.816 182.385 17.896C182.689 17.96 183.017 17.992 183.368 17.992H184.041V19H177.104ZM194.497 19.24C192.769 19.24 191.409 18.688 190.417 17.584C189.425 16.48 188.929 14.8 188.929 12.544C188.929 10.304 189.401 8.64 190.345 7.552C191.305 6.448 192.713 5.896 194.569 5.896C196.297 5.896 197.657 6.448 198.649 7.552C199.641 8.64 200.137 10.304 200.137 12.544C200.137 14.8 199.657 16.48 198.697 17.584C197.753 18.688 196.353 19.24 194.497 19.24ZM194.545 17.992C195.345 17.992 195.985 17.792 196.465 17.392C196.945 16.976 197.289 16.36 197.497 15.544C197.705 14.728 197.809 13.728 197.809 12.544C197.809 11.344 197.697 10.352 197.473 9.568C197.265 8.768 196.921 8.168 196.441 7.768C195.961 7.368 195.321 7.168 194.521 7.168C193.721 7.168 193.081 7.368 192.601 7.768C192.121 8.168 191.777 8.768 191.569 9.568C191.361 10.352 191.257 11.344 191.257 12.544C191.257 13.728 191.361 14.728 191.569 15.544C191.793 16.36 192.145 16.976 192.625 17.392C193.105 17.792 193.745 17.992 194.545 17.992ZM201.893 24.76V23.752H202.085C202.453 23.752 202.781 23.712 203.069 23.632C203.373 23.552 203.613 23.384 203.789 23.128C203.965 22.888 204.053 22.52 204.053 22.024V8.776C204.053 8.296 203.957 7.944 203.765 7.72C203.589 7.48 203.349 7.328 203.045 7.264C202.757 7.184 202.437 7.144 202.085 7.144H201.773V6.136H205.973L206.213 8.296H206.309C206.677 7.56 207.149 6.976 207.725 6.544C208.301 6.112 209.053 5.896 209.981 5.896C211.565 5.896 212.773 6.432 213.605 7.504C214.453 8.56 214.877 10.24 214.877 12.544C214.877 14.864 214.453 16.56 213.605 17.632C212.773 18.704 211.565 19.24 209.981 19.24C209.053 19.24 208.293 19.048 207.701 18.664C207.125 18.264 206.661 17.752 206.309 17.128H206.213C206.245 17.432 206.261 17.76 206.261 18.112C206.277 18.448 206.285 18.768 206.285 19.072C206.301 19.376 206.309 19.632 206.309 19.84V22.144C206.309 22.608 206.397 22.952 206.573 23.176C206.765 23.416 207.005 23.568 207.293 23.632C207.597 23.712 207.925 23.752 208.277 23.752H208.349V24.76H201.893ZM209.597 17.704C210.301 17.704 210.869 17.504 211.301 17.104C211.733 16.704 212.045 16.12 212.237 15.352C212.445 14.584 212.549 13.64 212.549 12.52C212.549 11.384 212.445 10.44 212.237 9.688C212.045 8.936 211.733 8.376 211.301 8.008C210.869 7.624 210.293 7.432 209.573 7.432C208.741 7.432 208.085 7.616 207.605 7.984C207.141 8.352 206.805 8.92 206.597 9.688C206.405 10.44 206.309 11.392 206.309 12.544C206.309 13.648 206.405 14.584 206.597 15.352C206.805 16.12 207.149 16.704 207.629 17.104C208.109 17.504 208.765 17.704 209.597 17.704ZM222.99 19V17.992H223.302C223.654 17.992 223.974 17.96 224.262 17.896C224.566 17.816 224.806 17.664 224.982 17.44C225.174 17.2 225.27 16.848 225.27 16.384V8.776C225.27 8.296 225.174 7.944 224.982 7.72C224.806 7.48 224.566 7.328 224.262 7.264C223.974 7.184 223.654 7.144 223.302 7.144H223.229V6.136L227.526 6.136V16.264C227.526 16.76 227.614 17.136 227.79 17.392C227.966 17.632 228.206 17.792 228.51 17.872C228.814 17.952 229.142 17.992 229.493 17.992H229.806V19L222.99 19ZM226.302 3.736C225.918 3.736 225.59 3.624 225.318 3.4C225.062 3.176 224.934 2.792 224.934 2.248C224.934 1.688 225.062 1.304 225.318 1.096C225.59 0.871999 225.918 0.759999 226.302 0.759999C226.67 0.759999 226.99 0.871999 227.262 1.096C227.534 1.304 227.67 1.688 227.67 2.248C227.67 2.792 227.534 3.176 227.262 3.4C226.99 3.624 226.67 3.736 226.302 3.736ZM230.797 19V17.992H230.989C231.357 17.992 231.685 17.952 231.973 17.872C232.277 17.792 232.517 17.632 232.693 17.392C232.869 17.136 232.957 16.76 232.957 16.264V8.776C232.957 8.296 232.869 7.944 232.693 7.72C232.517 7.48 232.285 7.328 231.997 7.264C231.709 7.184 231.389 7.144 231.037 7.144H230.917V6.136H234.805L235.117 8.08H235.237C235.573 7.472 235.925 7.016 236.293 6.712C236.677 6.392 237.093 6.176 237.541 6.064C237.989 5.952 238.469 5.896 238.981 5.896C240.245 5.896 241.229 6.272 241.933 7.024C242.653 7.76 243.013 8.952 243.013 10.6V16.264C243.013 16.76 243.085 17.136 243.229 17.392C243.389 17.632 243.605 17.792 243.877 17.872C244.149 17.952 244.461 17.992 244.813 17.992H244.933V19L240.757 19V10.72C240.757 9.68 240.557 8.872 240.157 8.296C239.773 7.72 239.093 7.432 238.117 7.432C237.397 7.432 236.821 7.616 236.389 7.984C235.973 8.336 235.669 8.808 235.477 9.4C235.301 9.992 235.213 10.632 235.213 11.32V16.384C235.213 16.848 235.301 17.2 235.477 17.44C235.653 17.664 235.885 17.816 236.173 17.896C236.461 17.96 236.781 17.992 237.133 17.992H237.253V19H230.797ZM68.8624 59V57.248L72.8704 52.616C73.5104 51.88 74.0464 51.216 74.4784 50.624C74.9104 50.032 75.2544 49.48 75.5104 48.968C75.7824 48.456 75.9744 47.952 76.0864 47.456C76.2144 46.944 76.2784 46.416 76.2784 45.872C76.2784 45.264 76.1904 44.736 76.0144 44.288C75.8384 43.824 75.5664 43.464 75.1984 43.208C74.8464 42.952 74.3904 42.824 73.8304 42.824C73.1104 42.824 72.5584 42.992 72.1744 43.328C71.7904 43.664 71.5264 44.104 71.3824 44.648C71.2544 45.176 71.1904 45.76 71.1904 46.4C70.8064 46.4 70.4544 46.36 70.1344 46.28C69.8304 46.184 69.5824 46.024 69.3904 45.8C69.2144 45.56 69.1264 45.24 69.1264 44.84C69.1264 44.216 69.3024 43.664 69.6544 43.184C70.0064 42.704 70.5344 42.328 71.2384 42.056C71.9424 41.768 72.8064 41.624 73.8304 41.624C74.8384 41.624 75.7024 41.792 76.4224 42.128C77.1584 42.448 77.7184 42.912 78.1024 43.52C78.5024 44.112 78.7024 44.816 78.7024 45.632C78.7024 46.08 78.6384 46.52 78.5104 46.952C78.3984 47.384 78.2304 47.816 78.0064 48.248C77.7824 48.68 77.5104 49.128 77.1904 49.592C76.8704 50.04 76.5024 50.512 76.0864 51.008C75.6704 51.504 75.2064 52.032 74.6944 52.592L70.6384 57.08H76.1824C76.9024 57.08 77.3904 56.896 77.6464 56.528C77.9024 56.16 78.0864 55.744 78.1984 55.28L78.2944 54.848H79.3024L79.1824 59H68.8624ZM87.5247 59.24C86.2127 59.24 85.1407 58.872 84.3087 58.136C83.4767 57.4 82.8607 56.368 82.4607 55.04C82.0767 53.712 81.8847 52.16 81.8847 50.384C81.8847 48.608 82.0767 47.064 82.4607 45.752C82.8607 44.44 83.4767 43.424 84.3087 42.704C85.1407 41.984 86.2207 41.624 87.5487 41.624C88.7967 41.624 89.8367 41.984 90.6687 42.704C91.5007 43.424 92.1167 44.448 92.5167 45.776C92.9327 47.088 93.1407 48.632 93.1407 50.408C93.1407 52.184 92.9327 53.736 92.5167 55.064C92.1007 56.376 91.4767 57.4 90.6447 58.136C89.8287 58.872 88.7887 59.24 87.5247 59.24ZM87.5247 57.944C88.1007 57.944 88.5887 57.776 88.9887 57.44C89.3887 57.104 89.7087 56.616 89.9487 55.976C90.1887 55.32 90.3647 54.528 90.4767 53.6C90.5887 52.656 90.6447 51.592 90.6447 50.408C90.6447 49.224 90.5887 48.168 90.4767 47.24C90.3807 46.312 90.2047 45.528 89.9487 44.888C89.7087 44.248 89.3887 43.76 88.9887 43.424C88.6047 43.088 88.1247 42.92 87.5487 42.92C86.9567 42.92 86.4607 43.088 86.0607 43.424C85.6607 43.76 85.3327 44.248 85.0767 44.888C84.8367 45.528 84.6607 46.312 84.5487 47.24C84.4367 48.168 84.3807 49.224 84.3807 50.408C84.3807 51.592 84.4367 52.656 84.5487 53.6C84.6607 54.528 84.8367 55.32 85.0767 55.976C85.3167 56.616 85.6367 57.104 86.0367 57.44C86.4527 57.776 86.9487 57.944 87.5247 57.944ZM96.5149 59V57.992H98.1229C98.4909 57.992 98.8189 57.952 99.1069 57.872C99.4109 57.792 99.6509 57.632 99.8269 57.392C100.003 57.136 100.091 56.76 100.091 56.264L100.091 43.664C99.6909 44.16 99.3149 44.6 98.9629 44.984C98.6109 45.352 98.2749 45.64 97.9549 45.848C97.6349 46.056 97.3149 46.16 96.9949 46.16C96.6429 46.16 96.3549 46.04 96.1309 45.8C95.9069 45.56 95.7949 45.248 95.7949 44.864C96.1149 44.784 96.4429 44.68 96.7789 44.552C97.1149 44.408 97.4829 44.216 97.8829 43.976C98.2989 43.72 98.7709 43.4 99.2989 43.016L100.979 41.768H102.515L102.515 56.264C102.515 56.76 102.603 57.136 102.779 57.392C102.955 57.632 103.195 57.792 103.499 57.872C103.803 57.952 104.131 57.992 104.483 57.992H105.659V59L96.5149 59ZM112.777 59V57.992H113.449C113.817 57.992 114.145 57.952 114.433 57.872C114.737 57.792 114.977 57.632 115.153 57.392C115.329 57.136 115.417 56.76 115.417 56.264V54.296H108.025V53.312L115.441 41.864L117.721 41.864L117.721 52.952H120.697V54.296H117.721V56.264C117.721 56.76 117.809 57.136 117.985 57.392C118.161 57.632 118.401 57.792 118.705 57.872C119.009 57.952 119.337 57.992 119.689 57.992H120.001V59H112.777ZM109.753 52.952H115.417V48.512C115.417 48.16 115.417 47.776 115.417 47.36C115.433 46.944 115.441 46.512 115.441 46.064C115.457 45.616 115.473 45.176 115.489 44.744C115.521 44.312 115.553 43.912 115.585 43.544C115.505 43.704 115.377 43.944 115.201 44.264C115.025 44.584 114.825 44.936 114.601 45.32C114.377 45.688 114.161 46.048 113.953 46.4C113.745 46.736 113.569 47.016 113.425 47.24L109.753 52.952ZM128.818 48.776V47.36H139.114V48.776H128.818ZM128.818 53.504V52.088H139.114V53.504H128.818Z" fill="white"/>
<path d="M148.362 59V57.248L152.37 52.616C153.01 51.88 153.546 51.216 153.978 50.624C154.41 50.032 154.754 49.48 155.01 48.968C155.282 48.456 155.474 47.952 155.586 47.456C155.714 46.944 155.778 46.416 155.778 45.872C155.778 45.264 155.69 44.736 155.514 44.288C155.338 43.824 155.066 43.464 154.698 43.208C154.346 42.952 153.89 42.824 153.33 42.824C152.61 42.824 152.058 42.992 151.674 43.328C151.29 43.664 151.026 44.104 150.882 44.648C150.754 45.176 150.69 45.76 150.69 46.4C150.306 46.4 149.954 46.36 149.634 46.28C149.33 46.184 149.082 46.024 148.89 45.8C148.714 45.56 148.626 45.24 148.626 44.84C148.626 44.216 148.802 43.664 149.154 43.184C149.506 42.704 150.034 42.328 150.738 42.056C151.442 41.768 152.306 41.624 153.33 41.624C154.338 41.624 155.202 41.792 155.922 42.128C156.658 42.448 157.218 42.912 157.602 43.52C158.002 44.112 158.202 44.816 158.202 45.632C158.202 46.08 158.138 46.52 158.01 46.952C157.898 47.384 157.73 47.816 157.506 48.248C157.282 48.68 157.01 49.128 156.69 49.592C156.37 50.04 156.002 50.512 155.586 51.008C155.17 51.504 154.706 52.032 154.194 52.592L150.138 57.08H155.682C156.402 57.08 156.89 56.896 157.146 56.528C157.402 56.16 157.586 55.744 157.698 55.28L157.794 54.848H158.802L158.682 59H148.362ZM160.953 59V57.992H161.265C161.633 57.992 161.961 57.952 162.249 57.872C162.553 57.792 162.793 57.632 162.969 57.392C163.145 57.136 163.233 56.76 163.233 56.264V47.264H161.049V46.136H163.233V44.936C163.233 43.512 163.609 42.424 164.361 41.672C165.129 40.904 166.169 40.52 167.481 40.52C168.313 40.52 168.969 40.592 169.449 40.736C169.945 40.88 170.297 41.08 170.505 41.336C170.729 41.576 170.841 41.864 170.841 42.2C170.841 42.488 170.753 42.736 170.577 42.944C170.417 43.136 170.185 43.288 169.881 43.4C169.593 43.496 169.257 43.544 168.873 43.544C168.873 43.224 168.825 42.92 168.729 42.632C168.633 42.328 168.473 42.088 168.249 41.912C168.025 41.72 167.705 41.624 167.289 41.624C166.601 41.624 166.129 41.888 165.873 42.416C165.617 42.944 165.489 43.712 165.489 44.72V46.136H168.873V47.264H165.489V56.264C165.489 56.76 165.577 57.136 165.753 57.392C165.929 57.632 166.169 57.792 166.473 57.872C166.777 57.952 167.105 57.992 167.457 57.992L168.369 57.992V59L160.953 59ZM174.924 59.24C173.708 59.24 172.82 58.968 172.26 58.424C171.716 57.864 171.444 56.896 171.444 55.52V47.504H169.62V46.544C169.908 46.544 170.228 46.488 170.58 46.376C170.932 46.248 171.236 46.048 171.492 45.776C171.764 45.488 171.988 45.136 172.164 44.72C172.34 44.304 172.484 43.792 172.596 43.184H173.7V46.136H176.844V47.504H173.7V55.592C173.7 56.408 173.868 57.008 174.204 57.392C174.54 57.776 174.98 57.968 175.524 57.968C175.812 57.968 176.076 57.952 176.316 57.92C176.556 57.888 176.804 57.848 177.06 57.8V58.856C176.852 58.952 176.54 59.04 176.124 59.12C175.708 59.2 175.308 59.24 174.924 59.24Z" fill="#F1AE12"/>
</svg>
