<svg width="245" height="60" viewBox="0 0 245 60" fill="none" xmlns="http://www.w3.org/2000/svg">
<path d="M8.53025 19.24C6.67425 19.24 5.13025 18.872 3.89825 18.136C2.68225 17.4 1.77025 16.376 1.16225 15.064C0.57025 13.736 0.27425 12.184 0.27425 10.408C0.27425 8.68 0.58625 7.16 1.21025 5.848C1.85025 4.52 2.79425 3.488 4.04225 2.752C5.29025 2 6.83425 1.624 8.67425 1.624C9.85825 1.624 10.8423 1.744 11.6263 1.984C12.4103 2.208 12.9943 2.528 13.3783 2.944C13.7783 3.344 13.9783 3.8 13.9783 4.312C13.9783 4.824 13.7623 5.232 13.3303 5.536C12.8983 5.84 12.3703 5.992 11.7463 5.992C11.7463 5.496 11.6423 5.016 11.4343 4.552C11.2423 4.072 10.9143 3.68 10.4503 3.376C9.98625 3.056 9.36225 2.896 8.57825 2.896C7.21825 2.896 6.12225 3.192 5.29025 3.784C4.47425 4.36 3.87425 5.208 3.49025 6.328C3.12225 7.448 2.93825 8.808 2.93825 10.408C2.93825 12.008 3.13025 13.368 3.51425 14.488C3.91425 15.592 4.54625 16.432 5.41025 17.008C6.29025 17.584 7.45825 17.872 8.91425 17.872C9.37825 17.872 9.82625 17.848 10.2583 17.8C10.6903 17.752 11.0743 17.68 11.4103 17.584V13.72C11.4103 13.24 11.3143 12.888 11.1223 12.664C10.9463 12.424 10.7063 12.272 10.4023 12.208C10.1143 12.128 9.79425 12.088 9.44225 12.088H9.34625V11.08H15.5863V12.088H15.4903C15.1863 12.088 14.9063 12.128 14.6503 12.208C14.4103 12.288 14.2103 12.448 14.0503 12.688C13.9063 12.928 13.8343 13.304 13.8343 13.816V18.136C13.0343 18.504 12.2103 18.784 11.3623 18.976C10.5143 19.152 9.57025 19.24 8.53025 19.24ZM16.8311 19V17.992H16.9031C17.2711 17.992 17.5991 17.952 17.8871 17.872C18.1911 17.792 18.4311 17.632 18.6071 17.392C18.7831 17.136 18.8711 16.76 18.8711 16.264V8.776C18.8711 8.296 18.7751 7.944 18.5831 7.72C18.4071 7.48 18.1671 7.328 17.8631 7.264C17.5751 7.184 17.2551 7.144 16.9031 7.144H16.8311V6.136L20.5271 6.136L20.9831 8.512H21.1031C21.3111 8.032 21.5351 7.592 21.7751 7.192C22.0151 6.792 22.3351 6.48 22.7351 6.256C23.1351 6.016 23.6871 5.896 24.3911 5.896C25.2711 5.896 25.9191 6.048 26.3351 6.352C26.7671 6.656 26.9831 7.088 26.9831 7.648C26.9831 8.144 26.8071 8.552 26.4551 8.872C26.1191 9.192 25.5511 9.352 24.7511 9.352C24.7511 8.904 24.7111 8.544 24.6311 8.272C24.5511 8 24.4151 7.8 24.2231 7.672C24.0471 7.544 23.7991 7.48 23.4791 7.48C23.0311 7.48 22.6551 7.656 22.3511 8.008C22.0471 8.36 21.8071 8.808 21.6311 9.352C21.4551 9.896 21.3271 10.464 21.2471 11.056C21.1671 11.632 21.1271 12.152 21.1271 12.616V16.384C21.1271 16.848 21.2151 17.2 21.3911 17.44C21.5831 17.664 21.8231 17.816 22.1111 17.896C22.4151 17.96 22.7431 17.992 23.0951 17.992H23.7671V19L16.8311 19ZM34.2239 19.24C32.4959 19.24 31.1359 18.688 30.1439 17.584C29.1519 16.48 28.6559 14.8 28.6559 12.544C28.6559 10.304 29.1279 8.64 30.0719 7.552C31.0319 6.448 32.4399 5.896 34.2959 5.896C36.0239 5.896 37.3839 6.448 38.3759 7.552C39.3679 8.64 39.8639 10.304 39.8639 12.544C39.8639 14.8 39.3839 16.48 38.4239 17.584C37.4799 18.688 36.0799 19.24 34.2239 19.24ZM34.2719 17.992C35.0719 17.992 35.7119 17.792 36.1919 17.392C36.6719 16.976 37.0159 16.36 37.2239 15.544C37.4319 14.728 37.5359 13.728 37.5359 12.544C37.5359 11.344 37.4239 10.352 37.1999 9.568C36.9919 8.768 36.6479 8.168 36.1679 7.768C35.6879 7.368 35.0479 7.168 34.2479 7.168C33.4479 7.168 32.8079 7.368 32.3279 7.768C31.8479 8.168 31.5039 8.768 31.2959 9.568C31.0879 10.352 30.9839 11.344 30.9839 12.544C30.9839 13.728 31.0879 14.728 31.2959 15.544C31.5199 16.36 31.8719 16.976 32.3519 17.392C32.8319 17.792 33.4719 17.992 34.2719 17.992ZM47.7395 19.24C46.4755 19.24 45.4995 18.872 44.8115 18.136C44.1235 17.384 43.7795 16.184 43.7795 14.536V8.776C43.7795 8.296 43.6835 7.944 43.4915 7.72C43.3155 7.48 43.0755 7.328 42.7715 7.264C42.4835 7.184 42.1635 7.144 41.8115 7.144H41.7395V6.136H46.0355V14.416C46.0355 15.104 46.1075 15.696 46.2515 16.192C46.4115 16.688 46.6755 17.064 47.0435 17.32C47.4115 17.576 47.9155 17.704 48.5555 17.704C49.2595 17.704 49.8355 17.544 50.2835 17.224C50.7315 16.888 51.0595 16.432 51.2675 15.856C51.4755 15.264 51.5795 14.584 51.5795 13.816V8.872C51.5795 8.36 51.4915 7.984 51.3155 7.744C51.1395 7.504 50.8995 7.344 50.5955 7.264C50.3075 7.184 49.9795 7.144 49.6115 7.144H49.5395V6.136L53.8355 6.136V16.384C53.8355 16.848 53.9235 17.2 54.0995 17.44C54.2915 17.664 54.5315 17.816 54.8195 17.896C55.1235 17.96 55.4515 17.992 55.8035 17.992H55.8755L55.8755 19H52.0595L51.7475 17.056H51.6275C51.3875 17.504 51.1155 17.872 50.8115 18.16C50.5235 18.448 50.2195 18.672 49.8995 18.832C49.5795 18.976 49.2355 19.08 48.8675 19.144C48.4995 19.208 48.1235 19.24 47.7395 19.24ZM57.0939 19V17.992H57.2859C57.6539 17.992 57.9819 17.952 58.2699 17.872C58.5739 17.792 58.8139 17.632 58.9899 17.392C59.1659 17.136 59.2539 16.76 59.2539 16.264V8.776C59.2539 8.296 59.1659 7.944 58.9899 7.72C58.8139 7.48 58.5819 7.328 58.2939 7.264C58.0059 7.184 57.6859 7.144 57.3339 7.144H57.2139V6.136H61.1019L61.4139 8.08H61.5339C61.8699 7.472 62.2219 7.016 62.5899 6.712C62.9739 6.392 63.3899 6.176 63.8379 6.064C64.2859 5.952 64.7659 5.896 65.2779 5.896C66.5419 5.896 67.5259 6.272 68.2299 7.024C68.9499 7.76 69.3099 8.952 69.3099 10.6V16.264C69.3099 16.76 69.3819 17.136 69.5259 17.392C69.6859 17.632 69.9019 17.792 70.1739 17.872C70.4459 17.952 70.7579 17.992 71.1099 17.992H71.2299V19L67.0539 19V10.72C67.0539 9.68 66.8539 8.872 66.4539 8.296C66.0699 7.72 65.3899 7.432 64.4139 7.432C63.6939 7.432 63.1179 7.616 62.6859 7.984C62.2699 8.336 61.9659 8.808 61.7739 9.4C61.5979 9.992 61.5099 10.632 61.5099 11.32V16.384C61.5099 16.848 61.5979 17.2 61.7739 17.44C61.9499 17.664 62.1819 17.816 62.4699 17.896C62.7579 17.96 63.0779 17.992 63.4299 17.992H63.5499V19H57.0939ZM78.1066 19.24C77.0506 19.24 76.1546 19.008 75.4186 18.544C74.6986 18.08 74.1466 17.36 73.7626 16.384C73.3946 15.392 73.2106 14.128 73.2106 12.592C73.2106 11.04 73.3946 9.776 73.7626 8.8C74.1466 7.808 74.6986 7.08 75.4186 6.616C76.1546 6.136 77.0506 5.896 78.1066 5.896C79.0346 5.896 79.7866 6.096 80.3626 6.496C80.9546 6.88 81.4266 7.384 81.7786 8.008H81.9226C81.8906 7.736 81.8586 7.448 81.8266 7.144C81.8106 6.84 81.7946 6.536 81.7786 6.232C81.7786 5.912 81.7786 5.624 81.7786 5.368V3.4C81.7786 2.92 81.6826 2.568 81.4906 2.344C81.3146 2.104 81.0746 1.952 80.7706 1.888C80.4826 1.808 80.1626 1.768 79.8106 1.768H79.6186V0.759999L84.0346 0.759999V16.36C84.0346 16.824 84.1226 17.176 84.2986 17.416C84.4906 17.656 84.7306 17.816 85.0186 17.896C85.3226 17.96 85.6506 17.992 86.0026 17.992H86.1946V19L82.1386 19L81.8746 16.84H81.7786C81.4266 17.576 80.9626 18.16 80.3866 18.592C79.8106 19.024 79.0506 19.24 78.1066 19.24ZM78.5146 17.704C79.7626 17.704 80.6186 17.288 81.0826 16.456C81.5466 15.608 81.7786 14.32 81.7786 12.592C81.7786 11.472 81.6746 10.536 81.4666 9.784C81.2746 9.016 80.9386 8.432 80.4586 8.032C79.9946 7.632 79.3386 7.432 78.4906 7.432C77.7866 7.432 77.2186 7.632 76.7866 8.032C76.3546 8.432 76.0346 9.016 75.8266 9.784C75.6346 10.552 75.5386 11.496 75.5386 12.616C75.5386 13.752 75.6346 14.696 75.8266 15.448C76.0346 16.2 76.3546 16.768 76.7866 17.152C77.2346 17.52 77.8106 17.704 78.5146 17.704ZM93.7792 19V17.992H94.0912C94.4592 17.992 94.7872 17.952 95.0752 17.872C95.3792 17.792 95.6192 17.632 95.7952 17.392C95.9712 17.136 96.0592 16.76 96.0592 16.264V4.6C96.0592 4.088 95.9712 3.712 95.7952 3.472C95.6192 3.232 95.3792 3.072 95.0752 2.992C94.7872 2.912 94.4592 2.872 94.0912 2.872H93.7792V1.864L100.763 1.864V2.872H100.451C100.099 2.872 99.7712 2.912 99.4672 2.992C99.1792 3.056 98.9392 3.208 98.7472 3.448C98.5712 3.672 98.4832 4.024 98.4832 4.504V17.8L103.211 17.8C103.691 17.8 104.075 17.696 104.363 17.488C104.667 17.264 104.891 16.984 105.035 16.648C105.179 16.312 105.275 15.976 105.323 15.64L105.563 13.84H106.811L106.643 19L93.7792 19ZM114.708 19.24C112.964 19.24 111.596 18.664 110.604 17.512C109.628 16.36 109.14 14.744 109.14 12.664C109.14 10.424 109.604 8.736 110.532 7.6C111.46 6.464 112.772 5.896 114.468 5.896C116.02 5.896 117.236 6.376 118.116 7.336C119.012 8.296 119.46 9.728 119.46 11.632V12.736L111.468 12.736C111.5 13.904 111.652 14.856 111.924 15.592C112.196 16.328 112.588 16.872 113.1 17.224C113.628 17.56 114.276 17.728 115.044 17.728C115.604 17.728 116.1 17.648 116.532 17.488C116.98 17.328 117.364 17.12 117.684 16.864C118.02 16.608 118.284 16.336 118.476 16.048C118.588 16.096 118.692 16.192 118.788 16.336C118.884 16.48 118.932 16.656 118.932 16.864C118.932 17.184 118.78 17.528 118.476 17.896C118.172 18.264 117.708 18.584 117.084 18.856C116.46 19.112 115.668 19.24 114.708 19.24ZM117.036 11.44C117.036 10.592 116.948 9.848 116.772 9.208C116.612 8.568 116.34 8.072 115.956 7.72C115.572 7.368 115.06 7.192 114.42 7.192C113.828 7.192 113.324 7.36 112.908 7.696C112.508 8.016 112.188 8.488 111.948 9.112C111.724 9.736 111.58 10.512 111.516 11.44H117.036ZM122.536 8.416C122.424 8.08 122.288 7.824 122.128 7.648C121.984 7.456 121.8 7.328 121.576 7.264C121.368 7.184 121.096 7.144 120.76 7.144V6.136H126.76V7.144H126.448C125.968 7.144 125.608 7.24 125.368 7.432C125.128 7.608 125.008 7.896 125.008 8.296C125.008 8.424 125.024 8.56 125.056 8.704C125.088 8.848 125.136 9.008 125.2 9.184L126.832 13.72C126.976 14.104 127.12 14.528 127.264 14.992C127.408 15.44 127.536 15.872 127.648 16.288C127.776 16.688 127.88 17.032 127.96 17.32C128.024 17.096 128.12 16.8 128.248 16.432C128.376 16.064 128.52 15.672 128.68 15.256C128.856 14.824 129.016 14.416 129.16 14.032L130.888 9.352C130.968 9.16 131.024 8.976 131.056 8.8C131.088 8.608 131.104 8.448 131.104 8.32C131.104 7.904 130.968 7.608 130.696 7.432C130.44 7.24 130.048 7.144 129.52 7.144H129.352V6.136H134.488V7.144H134.2C133.896 7.144 133.64 7.192 133.432 7.288C133.24 7.384 133.064 7.568 132.904 7.84C132.744 8.112 132.568 8.504 132.376 9.016L128.584 19H126.4L122.536 8.416ZM141.451 19.24C139.707 19.24 138.339 18.664 137.347 17.512C136.371 16.36 135.883 14.744 135.883 12.664C135.883 10.424 136.347 8.736 137.275 7.6C138.203 6.464 139.515 5.896 141.211 5.896C142.763 5.896 143.979 6.376 144.859 7.336C145.755 8.296 146.203 9.728 146.203 11.632V12.736H138.211C138.243 13.904 138.395 14.856 138.667 15.592C138.939 16.328 139.331 16.872 139.843 17.224C140.371 17.56 141.019 17.728 141.787 17.728C142.347 17.728 142.843 17.648 143.275 17.488C143.723 17.328 144.107 17.12 144.427 16.864C144.763 16.608 145.027 16.336 145.219 16.048C145.331 16.096 145.435 16.192 145.531 16.336C145.627 16.48 145.675 16.656 145.675 16.864C145.675 17.184 145.523 17.528 145.219 17.896C144.915 18.264 144.451 18.584 143.827 18.856C143.203 19.112 142.411 19.24 141.451 19.24ZM143.779 11.44C143.779 10.592 143.691 9.848 143.515 9.208C143.355 8.568 143.083 8.072 142.699 7.72C142.315 7.368 141.803 7.192 141.163 7.192C140.571 7.192 140.067 7.36 139.651 7.696C139.251 8.016 138.931 8.488 138.691 9.112C138.467 9.736 138.323 10.512 138.259 11.44H143.779ZM147.718 19V17.992H148.03C148.398 17.992 148.726 17.952 149.014 17.872C149.318 17.792 149.558 17.632 149.734 17.392C149.91 17.136 149.998 16.76 149.998 16.264V3.4C149.998 2.92 149.902 2.568 149.71 2.344C149.534 2.104 149.294 1.952 148.99 1.888C148.702 1.808 148.382 1.768 148.03 1.768H147.718V0.759999L152.254 0.759999V16.264C152.254 16.76 152.342 17.136 152.518 17.392C152.694 17.632 152.934 17.792 153.238 17.872C153.542 17.952 153.87 17.992 154.222 17.992H154.534V19L147.718 19ZM167.286 19.24C166.23 19.24 165.334 19.008 164.598 18.544C163.878 18.08 163.326 17.36 162.942 16.384C162.574 15.392 162.39 14.128 162.39 12.592C162.39 11.04 162.574 9.776 162.942 8.8C163.326 7.808 163.878 7.08 164.598 6.616C165.334 6.136 166.23 5.896 167.286 5.896C168.214 5.896 168.966 6.096 169.542 6.496C170.134 6.88 170.606 7.384 170.958 8.008H171.102C171.07 7.736 171.038 7.448 171.006 7.144C170.99 6.84 170.974 6.536 170.958 6.232C170.958 5.912 170.958 5.624 170.958 5.368V3.4C170.958 2.92 170.862 2.568 170.67 2.344C170.494 2.104 170.254 1.952 169.95 1.888C169.662 1.808 169.342 1.768 168.99 1.768H168.798V0.759999H173.214V16.36C173.214 16.824 173.302 17.176 173.478 17.416C173.67 17.656 173.91 17.816 174.198 17.896C174.502 17.96 174.83 17.992 175.182 17.992H175.374V19H171.318L171.054 16.84H170.958C170.606 17.576 170.142 18.16 169.566 18.592C168.99 19.024 168.23 19.24 167.286 19.24ZM167.694 17.704C168.942 17.704 169.798 17.288 170.262 16.456C170.726 15.608 170.958 14.32 170.958 12.592C170.958 11.472 170.854 10.536 170.646 9.784C170.454 9.016 170.118 8.432 169.638 8.032C169.174 7.632 168.518 7.432 167.67 7.432C166.966 7.432 166.398 7.632 165.966 8.032C165.534 8.432 165.214 9.016 165.006 9.784C164.814 10.552 164.718 11.496 164.718 12.616C164.718 13.752 164.814 14.696 165.006 15.448C165.214 16.2 165.534 16.768 165.966 17.152C166.414 17.52 166.99 17.704 167.694 17.704ZM176.604 19V17.992H176.677C177.045 17.992 177.373 17.952 177.661 17.872C177.965 17.792 178.205 17.632 178.381 17.392C178.557 17.136 178.645 16.76 178.645 16.264V8.776C178.645 8.296 178.549 7.944 178.357 7.72C178.181 7.48 177.941 7.328 177.637 7.264C177.349 7.184 177.029 7.144 176.677 7.144H176.604V6.136H180.301L180.757 8.512H180.877C181.085 8.032 181.309 7.592 181.549 7.192C181.789 6.792 182.109 6.48 182.509 6.256C182.909 6.016 183.461 5.896 184.165 5.896C185.045 5.896 185.693 6.048 186.109 6.352C186.541 6.656 186.757 7.088 186.757 7.648C186.757 8.144 186.581 8.552 186.229 8.872C185.893 9.192 185.325 9.352 184.525 9.352C184.525 8.904 184.485 8.544 184.405 8.272C184.325 8 184.189 7.8 183.997 7.672C183.821 7.544 183.573 7.48 183.253 7.48C182.805 7.48 182.429 7.656 182.125 8.008C181.821 8.36 181.581 8.808 181.405 9.352C181.229 9.896 181.101 10.464 181.021 11.056C180.941 11.632 180.901 12.152 180.901 12.616V16.384C180.901 16.848 180.989 17.2 181.165 17.44C181.357 17.664 181.597 17.816 181.885 17.896C182.189 17.96 182.517 17.992 182.868 17.992H183.541V19H176.604ZM193.997 19.24C192.269 19.24 190.909 18.688 189.917 17.584C188.925 16.48 188.429 14.8 188.429 12.544C188.429 10.304 188.901 8.64 189.845 7.552C190.805 6.448 192.213 5.896 194.069 5.896C195.797 5.896 197.157 6.448 198.149 7.552C199.141 8.64 199.637 10.304 199.637 12.544C199.637 14.8 199.157 16.48 198.197 17.584C197.253 18.688 195.853 19.24 193.997 19.24ZM194.045 17.992C194.845 17.992 195.485 17.792 195.965 17.392C196.445 16.976 196.789 16.36 196.997 15.544C197.205 14.728 197.309 13.728 197.309 12.544C197.309 11.344 197.197 10.352 196.973 9.568C196.765 8.768 196.421 8.168 195.941 7.768C195.461 7.368 194.821 7.168 194.021 7.168C193.221 7.168 192.581 7.368 192.101 7.768C191.621 8.168 191.277 8.768 191.069 9.568C190.861 10.352 190.757 11.344 190.757 12.544C190.757 13.728 190.861 14.728 191.069 15.544C191.293 16.36 191.645 16.976 192.125 17.392C192.605 17.792 193.245 17.992 194.045 17.992ZM201.393 24.76V23.752H201.585C201.953 23.752 202.281 23.712 202.569 23.632C202.873 23.552 203.113 23.384 203.289 23.128C203.465 22.888 203.553 22.52 203.553 22.024V8.776C203.553 8.296 203.457 7.944 203.265 7.72C203.089 7.48 202.849 7.328 202.545 7.264C202.257 7.184 201.937 7.144 201.585 7.144H201.273V6.136L205.473 6.136L205.713 8.296H205.809C206.177 7.56 206.649 6.976 207.225 6.544C207.801 6.112 208.553 5.896 209.481 5.896C211.065 5.896 212.273 6.432 213.105 7.504C213.953 8.56 214.377 10.24 214.377 12.544C214.377 14.864 213.953 16.56 213.105 17.632C212.273 18.704 211.065 19.24 209.481 19.24C208.553 19.24 207.793 19.048 207.201 18.664C206.625 18.264 206.161 17.752 205.809 17.128H205.713C205.745 17.432 205.761 17.76 205.761 18.112C205.777 18.448 205.785 18.768 205.785 19.072C205.801 19.376 205.809 19.632 205.809 19.84V22.144C205.809 22.608 205.897 22.952 206.073 23.176C206.265 23.416 206.505 23.568 206.793 23.632C207.097 23.712 207.425 23.752 207.777 23.752H207.849V24.76H201.393ZM209.097 17.704C209.801 17.704 210.369 17.504 210.801 17.104C211.233 16.704 211.545 16.12 211.737 15.352C211.945 14.584 212.049 13.64 212.049 12.52C212.049 11.384 211.945 10.44 211.737 9.688C211.545 8.936 211.233 8.376 210.801 8.008C210.369 7.624 209.793 7.432 209.073 7.432C208.241 7.432 207.585 7.616 207.105 7.984C206.641 8.352 206.305 8.92 206.097 9.688C205.905 10.44 205.809 11.392 205.809 12.544C205.809 13.648 205.905 14.584 206.097 15.352C206.305 16.12 206.649 16.704 207.129 17.104C207.609 17.504 208.265 17.704 209.097 17.704ZM222.49 19V17.992H222.802C223.154 17.992 223.474 17.96 223.762 17.896C224.066 17.816 224.306 17.664 224.482 17.44C224.674 17.2 224.77 16.848 224.77 16.384V8.776C224.77 8.296 224.674 7.944 224.482 7.72C224.306 7.48 224.066 7.328 223.762 7.264C223.474 7.184 223.154 7.144 222.802 7.144H222.729V6.136H227.026V16.264C227.026 16.76 227.114 17.136 227.29 17.392C227.466 17.632 227.706 17.792 228.01 17.872C228.314 17.952 228.642 17.992 228.993 17.992H229.306V19H222.49ZM225.802 3.736C225.418 3.736 225.09 3.624 224.818 3.4C224.562 3.176 224.434 2.792 224.434 2.248C224.434 1.688 224.562 1.304 224.818 1.096C225.09 0.871999 225.418 0.759999 225.802 0.759999C226.17 0.759999 226.49 0.871999 226.762 1.096C227.034 1.304 227.17 1.688 227.17 2.248C227.17 2.792 227.034 3.176 226.762 3.4C226.49 3.624 226.17 3.736 225.802 3.736ZM230.297 19V17.992H230.489C230.857 17.992 231.185 17.952 231.473 17.872C231.777 17.792 232.017 17.632 232.193 17.392C232.369 17.136 232.457 16.76 232.457 16.264V8.776C232.457 8.296 232.369 7.944 232.193 7.72C232.017 7.48 231.785 7.328 231.497 7.264C231.209 7.184 230.889 7.144 230.537 7.144H230.417V6.136H234.305L234.617 8.08H234.737C235.073 7.472 235.425 7.016 235.793 6.712C236.177 6.392 236.593 6.176 237.041 6.064C237.489 5.952 237.969 5.896 238.481 5.896C239.745 5.896 240.729 6.272 241.433 7.024C242.153 7.76 242.513 8.952 242.513 10.6V16.264C242.513 16.76 242.585 17.136 242.729 17.392C242.889 17.632 243.105 17.792 243.377 17.872C243.649 17.952 243.961 17.992 244.313 17.992H244.433V19H240.257V10.72C240.257 9.68 240.057 8.872 239.657 8.296C239.273 7.72 238.593 7.432 237.617 7.432C236.897 7.432 236.321 7.616 235.889 7.984C235.473 8.336 235.169 8.808 234.977 9.4C234.801 9.992 234.713 10.632 234.713 11.32V16.384C234.713 16.848 234.801 17.2 234.977 17.44C235.153 17.664 235.385 17.816 235.673 17.896C235.961 17.96 236.281 17.992 236.633 17.992H236.753V19H230.297ZM61.6593 59V57.248L65.6673 52.616C66.3073 51.88 66.8433 51.216 67.2753 50.624C67.7073 50.032 68.0513 49.48 68.3073 48.968C68.5793 48.456 68.7713 47.952 68.8833 47.456C69.0113 46.944 69.0753 46.416 69.0753 45.872C69.0753 45.264 68.9873 44.736 68.8113 44.288C68.6353 43.824 68.3633 43.464 67.9953 43.208C67.6433 42.952 67.1873 42.824 66.6273 42.824C65.9073 42.824 65.3553 42.992 64.9713 43.328C64.5873 43.664 64.3233 44.104 64.1793 44.648C64.0513 45.176 63.9873 45.76 63.9873 46.4C63.6033 46.4 63.2513 46.36 62.9313 46.28C62.6273 46.184 62.3793 46.024 62.1873 45.8C62.0113 45.56 61.9233 45.24 61.9233 44.84C61.9233 44.216 62.0993 43.664 62.4513 43.184C62.8033 42.704 63.3313 42.328 64.0353 42.056C64.7393 41.768 65.6033 41.624 66.6273 41.624C67.6353 41.624 68.4993 41.792 69.2193 42.128C69.9553 42.448 70.5153 42.912 70.8993 43.52C71.2993 44.112 71.4993 44.816 71.4993 45.632C71.4993 46.08 71.4353 46.52 71.3073 46.952C71.1953 47.384 71.0273 47.816 70.8033 48.248C70.5793 48.68 70.3073 49.128 69.9873 49.592C69.6673 50.04 69.2993 50.512 68.8833 51.008C68.4673 51.504 68.0033 52.032 67.4913 52.592L63.4353 57.08H68.9793C69.6993 57.08 70.1873 56.896 70.4433 56.528C70.6993 56.16 70.8833 55.744 70.9953 55.28L71.0913 54.848H72.0993L71.9793 59H61.6593ZM80.3216 59.24C79.0096 59.24 77.9376 58.872 77.1056 58.136C76.2736 57.4 75.6576 56.368 75.2576 55.04C74.8736 53.712 74.6816 52.16 74.6816 50.384C74.6816 48.608 74.8736 47.064 75.2576 45.752C75.6576 44.44 76.2736 43.424 77.1056 42.704C77.9376 41.984 79.0176 41.624 80.3456 41.624C81.5936 41.624 82.6336 41.984 83.4656 42.704C84.2976 43.424 84.9136 44.448 85.3136 45.776C85.7296 47.088 85.9376 48.632 85.9376 50.408C85.9376 52.184 85.7296 53.736 85.3136 55.064C84.8976 56.376 84.2736 57.4 83.4416 58.136C82.6256 58.872 81.5856 59.24 80.3216 59.24ZM80.3216 57.944C80.8976 57.944 81.3856 57.776 81.7856 57.44C82.1856 57.104 82.5056 56.616 82.7456 55.976C82.9856 55.32 83.1616 54.528 83.2736 53.6C83.3856 52.656 83.4416 51.592 83.4416 50.408C83.4416 49.224 83.3856 48.168 83.2736 47.24C83.1776 46.312 83.0016 45.528 82.7456 44.888C82.5056 44.248 82.1856 43.76 81.7856 43.424C81.4016 43.088 80.9216 42.92 80.3456 42.92C79.7536 42.92 79.2576 43.088 78.8576 43.424C78.4576 43.76 78.1296 44.248 77.8736 44.888C77.6336 45.528 77.4576 46.312 77.3456 47.24C77.2336 48.168 77.1776 49.224 77.1776 50.408C77.1776 51.592 77.2336 52.656 77.3456 53.6C77.4576 54.528 77.6336 55.32 77.8736 55.976C78.1136 56.616 78.4336 57.104 78.8336 57.44C79.2496 57.776 79.7456 57.944 80.3216 57.944ZM89.3118 59V57.992H90.9198C91.2878 57.992 91.6158 57.952 91.9038 57.872C92.2078 57.792 92.4478 57.632 92.6238 57.392C92.7998 57.136 92.8878 56.76 92.8878 56.264L92.8878 43.664C92.4878 44.16 92.1118 44.6 91.7598 44.984C91.4078 45.352 91.0718 45.64 90.7518 45.848C90.4318 46.056 90.1118 46.16 89.7918 46.16C89.4398 46.16 89.1518 46.04 88.9278 45.8C88.7038 45.56 88.5918 45.248 88.5918 44.864C88.9118 44.784 89.2398 44.68 89.5758 44.552C89.9118 44.408 90.2798 44.216 90.6798 43.976C91.0958 43.72 91.5678 43.4 92.0958 43.016L93.7758 41.768H95.3118L95.3118 56.264C95.3118 56.76 95.3998 57.136 95.5758 57.392C95.7518 57.632 95.9918 57.792 96.2958 57.872C96.5998 57.952 96.9278 57.992 97.2798 57.992H98.4558V59L89.3118 59ZM106.966 59.24C105.766 59.24 104.758 59.04 103.942 58.64C103.142 58.224 102.534 57.672 102.118 56.984C101.718 56.296 101.518 55.536 101.518 54.704C101.518 53.936 101.678 53.288 101.998 52.76C102.318 52.232 102.75 51.776 103.294 51.392C103.854 51.008 104.478 50.648 105.166 50.312C104.558 49.96 104.022 49.576 103.558 49.16C103.094 48.744 102.726 48.272 102.454 47.744C102.198 47.2 102.07 46.592 102.07 45.92C102.07 45.184 102.246 44.488 102.598 43.832C102.95 43.176 103.502 42.648 104.254 42.248C105.022 41.832 106.022 41.624 107.254 41.624C108.262 41.624 109.118 41.8 109.822 42.152C110.526 42.504 111.062 42.992 111.43 43.616C111.798 44.24 111.982 44.952 111.982 45.752C111.982 46.808 111.686 47.632 111.094 48.224C110.502 48.8 109.718 49.328 108.742 49.808C109.542 50.176 110.238 50.584 110.83 51.032C111.422 51.48 111.886 51.984 112.222 52.544C112.558 53.088 112.726 53.712 112.726 54.416C112.726 55.936 112.206 57.12 111.166 57.968C110.126 58.816 108.726 59.24 106.966 59.24ZM107.086 58.136C108.126 58.136 108.958 57.84 109.582 57.248C110.222 56.64 110.542 55.872 110.542 54.944C110.542 54.528 110.462 54.152 110.302 53.816C110.158 53.464 109.918 53.128 109.582 52.808C109.262 52.488 108.83 52.176 108.286 51.872C107.742 51.552 107.086 51.224 106.318 50.888C105.566 51.288 104.966 51.816 104.518 52.472C104.07 53.128 103.846 53.904 103.846 54.8C103.846 55.792 104.118 56.6 104.662 57.224C105.206 57.832 106.014 58.136 107.086 58.136ZM107.566 49.256C108.174 48.952 108.638 48.64 108.958 48.32C109.294 47.984 109.526 47.608 109.654 47.192C109.782 46.76 109.846 46.264 109.846 45.704C109.846 45.208 109.758 44.736 109.582 44.288C109.406 43.84 109.118 43.472 108.718 43.184C108.318 42.896 107.782 42.752 107.11 42.752C106.214 42.752 105.526 43.024 105.046 43.568C104.566 44.112 104.326 44.8 104.326 45.632C104.326 46.208 104.446 46.704 104.686 47.12C104.926 47.536 105.286 47.912 105.766 48.248C106.246 48.584 106.846 48.92 107.566 49.256ZM121.615 48.776V47.36H131.911V48.776H121.615ZM121.615 53.504V52.088H131.911V53.504H121.615Z" fill="white"/>
<path d="M141.999 59V57.992H143.607C143.975 57.992 144.303 57.952 144.591 57.872C144.895 57.792 145.135 57.632 145.311 57.392C145.487 57.136 145.575 56.76 145.575 56.264V43.664C145.175 44.16 144.799 44.6 144.447 44.984C144.095 45.352 143.759 45.64 143.439 45.848C143.119 46.056 142.799 46.16 142.479 46.16C142.127 46.16 141.839 46.04 141.615 45.8C141.391 45.56 141.279 45.248 141.279 44.864C141.599 44.784 141.927 44.68 142.263 44.552C142.599 44.408 142.967 44.216 143.367 43.976C143.783 43.72 144.255 43.4 144.783 43.016L146.463 41.768H147.999V56.264C147.999 56.76 148.087 57.136 148.263 57.392C148.439 57.632 148.679 57.792 148.983 57.872C149.287 57.952 149.615 57.992 149.967 57.992H151.143V59H141.999ZM159.822 59.24C158.51 59.24 157.438 58.872 156.606 58.136C155.774 57.4 155.158 56.368 154.758 55.04C154.374 53.712 154.182 52.16 154.182 50.384C154.182 48.608 154.374 47.064 154.758 45.752C155.158 44.44 155.774 43.424 156.606 42.704C157.438 41.984 158.518 41.624 159.846 41.624C161.094 41.624 162.134 41.984 162.966 42.704C163.798 43.424 164.414 44.448 164.814 45.776C165.23 47.088 165.438 48.632 165.438 50.408C165.438 52.184 165.23 53.736 164.814 55.064C164.398 56.376 163.774 57.4 162.942 58.136C162.126 58.872 161.086 59.24 159.822 59.24ZM159.822 57.944C160.398 57.944 160.886 57.776 161.286 57.44C161.686 57.104 162.006 56.616 162.246 55.976C162.486 55.32 162.662 54.528 162.774 53.6C162.886 52.656 162.942 51.592 162.942 50.408C162.942 49.224 162.886 48.168 162.774 47.24C162.678 46.312 162.502 45.528 162.246 44.888C162.006 44.248 161.686 43.76 161.286 43.424C160.902 43.088 160.422 42.92 159.846 42.92C159.254 42.92 158.758 43.088 158.358 43.424C157.958 43.76 157.63 44.248 157.374 44.888C157.134 45.528 156.958 46.312 156.846 47.24C156.734 48.168 156.678 49.224 156.678 50.408C156.678 51.592 156.734 52.656 156.846 53.6C156.958 54.528 157.134 55.32 157.374 55.976C157.614 56.616 157.934 57.104 158.334 57.44C158.75 57.776 159.246 57.944 159.822 57.944ZM167.156 59V57.992H167.468C167.836 57.992 168.164 57.952 168.452 57.872C168.756 57.792 168.996 57.632 169.172 57.392C169.348 57.136 169.436 56.76 169.436 56.264V47.264H167.252V46.136H169.436V44.936C169.436 43.512 169.812 42.424 170.564 41.672C171.332 40.904 172.372 40.52 173.684 40.52C174.516 40.52 175.172 40.592 175.652 40.736C176.148 40.88 176.5 41.08 176.708 41.336C176.932 41.576 177.044 41.864 177.044 42.2C177.044 42.488 176.956 42.736 176.78 42.944C176.62 43.136 176.388 43.288 176.084 43.4C175.796 43.496 175.46 43.544 175.076 43.544C175.076 43.224 175.028 42.92 174.932 42.632C174.836 42.328 174.676 42.088 174.452 41.912C174.228 41.72 173.908 41.624 173.492 41.624C172.804 41.624 172.332 41.888 172.076 42.416C171.82 42.944 171.692 43.712 171.692 44.72V46.136H175.076V47.264H171.692V56.264C171.692 56.76 171.78 57.136 171.956 57.392C172.132 57.632 172.372 57.792 172.676 57.872C172.98 57.952 173.308 57.992 173.66 57.992H174.572V59H167.156ZM181.127 59.24C179.911 59.24 179.023 58.968 178.463 58.424C177.919 57.864 177.647 56.896 177.647 55.52V47.504H175.823V46.544C176.111 46.544 176.431 46.488 176.783 46.376C177.135 46.248 177.439 46.048 177.695 45.776C177.967 45.488 178.191 45.136 178.367 44.72C178.543 44.304 178.687 43.792 178.799 43.184H179.903V46.136H183.047V47.504H179.903V55.592C179.903 56.408 180.071 57.008 180.407 57.392C180.743 57.776 181.183 57.968 181.727 57.968C182.015 57.968 182.279 57.952 182.519 57.92C182.759 57.888 183.007 57.848 183.263 57.8V58.856C183.055 58.952 182.743 59.04 182.327 59.12C181.911 59.2 181.511 59.24 181.127 59.24Z" fill="#F1AE12"/>
</svg>
