<svg width="184" height="60" viewBox="0 0 184 60" fill="none" xmlns="http://www.w3.org/2000/svg">
<path d="M8.96384 19.24C7.10784 19.24 5.56384 18.872 4.33184 18.136C3.11584 17.4 2.20384 16.376 1.59584 15.064C1.00384 13.736 0.707844 12.184 0.707844 10.408C0.707844 8.68 1.01984 7.16 1.64384 5.848C2.28384 4.52 3.22784 3.488 4.47584 2.752C5.72384 2 7.26784 1.624 9.10784 1.624C10.2918 1.624 11.2758 1.744 12.0598 1.984C12.8438 2.208 13.4278 2.528 13.8118 2.944C14.2118 3.344 14.4118 3.8 14.4118 4.312C14.4118 4.824 14.1958 5.232 13.7638 5.536C13.3318 5.84 12.8038 5.992 12.1798 5.992C12.1798 5.496 12.0758 5.016 11.8678 4.552C11.6758 4.072 11.3478 3.68 10.8838 3.376C10.4198 3.056 9.79584 2.896 9.01184 2.896C7.65184 2.896 6.55584 3.192 5.72384 3.784C4.90784 4.36 4.30784 5.208 3.92384 6.328C3.55584 7.448 3.37184 8.808 3.37184 10.408C3.37184 12.008 3.56384 13.368 3.94784 14.488C4.34784 15.592 4.97984 16.432 5.84384 17.008C6.72384 17.584 7.89184 17.872 9.34784 17.872C9.81184 17.872 10.2598 17.848 10.6918 17.8C11.1238 17.752 11.5078 17.68 11.8438 17.584V13.72C11.8438 13.24 11.7478 12.888 11.5558 12.664C11.3798 12.424 11.1398 12.272 10.8358 12.208C10.5478 12.128 10.2278 12.088 9.87584 12.088H9.77984V11.08L16.0198 11.08V12.088H15.9238C15.6198 12.088 15.3398 12.128 15.0838 12.208C14.8438 12.288 14.6438 12.448 14.4838 12.688C14.3398 12.928 14.2678 13.304 14.2678 13.816V18.136C13.4678 18.504 12.6438 18.784 11.7958 18.976C10.9478 19.152 10.0038 19.24 8.96384 19.24ZM17.2647 19L17.2647 17.992H17.3367C17.7047 17.992 18.0327 17.952 18.3207 17.872C18.6247 17.792 18.8647 17.632 19.0407 17.392C19.2167 17.136 19.3047 16.76 19.3047 16.264V8.776C19.3047 8.296 19.2087 7.944 19.0167 7.72C18.8407 7.48 18.6007 7.328 18.2967 7.264C18.0087 7.184 17.6887 7.144 17.3367 7.144H17.2647V6.136H20.9607L21.4167 8.512H21.5367C21.7447 8.032 21.9687 7.592 22.2087 7.192C22.4487 6.792 22.7687 6.48 23.1687 6.256C23.5687 6.016 24.1207 5.896 24.8247 5.896C25.7047 5.896 26.3527 6.048 26.7687 6.352C27.2007 6.656 27.4167 7.088 27.4167 7.648C27.4167 8.144 27.2407 8.552 26.8887 8.872C26.5527 9.192 25.9847 9.352 25.1847 9.352C25.1847 8.904 25.1447 8.544 25.0647 8.272C24.9847 8 24.8487 7.8 24.6567 7.672C24.4807 7.544 24.2327 7.48 23.9127 7.48C23.4647 7.48 23.0887 7.656 22.7847 8.008C22.4807 8.36 22.2407 8.808 22.0647 9.352C21.8887 9.896 21.7607 10.464 21.6807 11.056C21.6007 11.632 21.5607 12.152 21.5607 12.616V16.384C21.5607 16.848 21.6487 17.2 21.8247 17.44C22.0167 17.664 22.2567 17.816 22.5447 17.896C22.8487 17.96 23.1767 17.992 23.5287 17.992H24.2007L24.2007 19H17.2647ZM34.6575 19.24C32.9295 19.24 31.5695 18.688 30.5775 17.584C29.5855 16.48 29.0895 14.8 29.0895 12.544C29.0895 10.304 29.5615 8.64 30.5055 7.552C31.4655 6.448 32.8735 5.896 34.7295 5.896C36.4575 5.896 37.8175 6.448 38.8095 7.552C39.8015 8.64 40.2975 10.304 40.2975 12.544C40.2975 14.8 39.8175 16.48 38.8575 17.584C37.9135 18.688 36.5135 19.24 34.6575 19.24ZM34.7055 17.992C35.5055 17.992 36.1455 17.792 36.6255 17.392C37.1055 16.976 37.4495 16.36 37.6575 15.544C37.8655 14.728 37.9695 13.728 37.9695 12.544C37.9695 11.344 37.8575 10.352 37.6335 9.568C37.4255 8.768 37.0815 8.168 36.6015 7.768C36.1215 7.368 35.4815 7.168 34.6815 7.168C33.8815 7.168 33.2415 7.368 32.7615 7.768C32.2815 8.168 31.9375 8.768 31.7295 9.568C31.5215 10.352 31.4175 11.344 31.4175 12.544C31.4175 13.728 31.5215 14.728 31.7295 15.544C31.9535 16.36 32.3055 16.976 32.7855 17.392C33.2655 17.792 33.9055 17.992 34.7055 17.992ZM48.1731 19.24C46.9091 19.24 45.9331 18.872 45.2451 18.136C44.5571 17.384 44.2131 16.184 44.2131 14.536V8.776C44.2131 8.296 44.1171 7.944 43.9251 7.72C43.7491 7.48 43.5091 7.328 43.2051 7.264C42.9171 7.184 42.5971 7.144 42.2451 7.144H42.1731V6.136H46.4691V14.416C46.4691 15.104 46.5411 15.696 46.6851 16.192C46.8451 16.688 47.1091 17.064 47.4771 17.32C47.8451 17.576 48.3491 17.704 48.9891 17.704C49.6931 17.704 50.2691 17.544 50.7171 17.224C51.1651 16.888 51.4931 16.432 51.7011 15.856C51.9091 15.264 52.0131 14.584 52.0131 13.816V8.872C52.0131 8.36 51.9251 7.984 51.7491 7.744C51.5731 7.504 51.3331 7.344 51.0291 7.264C50.7411 7.184 50.4131 7.144 50.0451 7.144H49.9731V6.136H54.2691V16.384C54.2691 16.848 54.3571 17.2 54.5331 17.44C54.7251 17.664 54.9651 17.816 55.2531 17.896C55.5571 17.96 55.8851 17.992 56.2371 17.992H56.3091V19H52.4931L52.1811 17.056H52.0611C51.8211 17.504 51.5491 17.872 51.2451 18.16C50.9571 18.448 50.6531 18.672 50.3331 18.832C50.0131 18.976 49.6691 19.08 49.3011 19.144C48.9331 19.208 48.5571 19.24 48.1731 19.24ZM57.5275 19V17.992H57.7195C58.0875 17.992 58.4155 17.952 58.7035 17.872C59.0075 17.792 59.2475 17.632 59.4235 17.392C59.5995 17.136 59.6875 16.76 59.6875 16.264V8.776C59.6875 8.296 59.5995 7.944 59.4235 7.72C59.2475 7.48 59.0155 7.328 58.7275 7.264C58.4395 7.184 58.1195 7.144 57.7675 7.144H57.6475V6.136H61.5355L61.8475 8.08H61.9675C62.3035 7.472 62.6555 7.016 63.0235 6.712C63.4075 6.392 63.8235 6.176 64.2715 6.064C64.7195 5.952 65.1995 5.896 65.7115 5.896C66.9755 5.896 67.9595 6.272 68.6635 7.024C69.3835 7.76 69.7435 8.952 69.7435 10.6V16.264C69.7435 16.76 69.8155 17.136 69.9595 17.392C70.1195 17.632 70.3355 17.792 70.6075 17.872C70.8795 17.952 71.1915 17.992 71.5435 17.992H71.6635V19H67.4875V10.72C67.4875 9.68 67.2875 8.872 66.8875 8.296C66.5035 7.72 65.8235 7.432 64.8475 7.432C64.1275 7.432 63.5515 7.616 63.1195 7.984C62.7035 8.336 62.3995 8.808 62.2075 9.4C62.0315 9.992 61.9435 10.632 61.9435 11.32V16.384C61.9435 16.848 62.0315 17.2 62.2075 17.44C62.3835 17.664 62.6155 17.816 62.9035 17.896C63.1915 17.96 63.5115 17.992 63.8635 17.992H63.9835V19L57.5275 19ZM78.5402 19.24C77.4842 19.24 76.5882 19.008 75.8522 18.544C75.1322 18.08 74.5802 17.36 74.1962 16.384C73.8282 15.392 73.6442 14.128 73.6442 12.592C73.6442 11.04 73.8282 9.776 74.1962 8.8C74.5802 7.808 75.1322 7.08 75.8522 6.616C76.5882 6.136 77.4842 5.896 78.5402 5.896C79.4682 5.896 80.2202 6.096 80.7962 6.496C81.3882 6.88 81.8602 7.384 82.2122 8.008H82.3562C82.3242 7.736 82.2922 7.448 82.2602 7.144C82.2442 6.84 82.2282 6.536 82.2122 6.232C82.2122 5.912 82.2122 5.624 82.2122 5.368V3.4C82.2122 2.92 82.1162 2.568 81.9242 2.344C81.7482 2.104 81.5082 1.952 81.2042 1.888C80.9162 1.808 80.5962 1.768 80.2442 1.768H80.0522V0.759999H84.4682V16.36C84.4682 16.824 84.5562 17.176 84.7322 17.416C84.9242 17.656 85.1642 17.816 85.4522 17.896C85.7562 17.96 86.0842 17.992 86.4362 17.992H86.6282V19H82.5722L82.3082 16.84H82.2122C81.8602 17.576 81.3962 18.16 80.8202 18.592C80.2442 19.024 79.4842 19.24 78.5402 19.24ZM78.9482 17.704C80.1962 17.704 81.0522 17.288 81.5162 16.456C81.9802 15.608 82.2122 14.32 82.2122 12.592C82.2122 11.472 82.1082 10.536 81.9002 9.784C81.7082 9.016 81.3722 8.432 80.8922 8.032C80.4282 7.632 79.7722 7.432 78.9242 7.432C78.2202 7.432 77.6522 7.632 77.2202 8.032C76.7882 8.432 76.4682 9.016 76.2602 9.784C76.0682 10.552 75.9722 11.496 75.9722 12.616C75.9722 13.752 76.0682 14.696 76.2602 15.448C76.4682 16.2 76.7882 16.768 77.2202 17.152C77.6682 17.52 78.2442 17.704 78.9482 17.704ZM94.2128 19V17.992H94.5248C94.8928 17.992 95.2208 17.952 95.5088 17.872C95.8128 17.792 96.0528 17.632 96.2288 17.392C96.4048 17.136 96.4928 16.76 96.4928 16.264V4.6C96.4928 4.088 96.4048 3.712 96.2288 3.472C96.0528 3.232 95.8128 3.072 95.5088 2.992C95.2208 2.912 94.8928 2.872 94.5248 2.872H94.2128V1.864H101.197V2.872H100.885C100.533 2.872 100.205 2.912 99.9008 2.992C99.6128 3.056 99.3728 3.208 99.1808 3.448C99.0048 3.672 98.9168 4.024 98.9168 4.504V17.8H103.645C104.125 17.8 104.509 17.696 104.797 17.488C105.101 17.264 105.325 16.984 105.469 16.648C105.613 16.312 105.709 15.976 105.757 15.64L105.997 13.84H107.245L107.077 19L94.2128 19ZM115.142 19.24C113.398 19.24 112.03 18.664 111.038 17.512C110.062 16.36 109.574 14.744 109.574 12.664C109.574 10.424 110.038 8.736 110.966 7.6C111.894 6.464 113.206 5.896 114.902 5.896C116.454 5.896 117.67 6.376 118.55 7.336C119.446 8.296 119.894 9.728 119.894 11.632V12.736L111.902 12.736C111.934 13.904 112.086 14.856 112.358 15.592C112.63 16.328 113.022 16.872 113.534 17.224C114.062 17.56 114.71 17.728 115.478 17.728C116.038 17.728 116.534 17.648 116.966 17.488C117.414 17.328 117.798 17.12 118.118 16.864C118.454 16.608 118.718 16.336 118.91 16.048C119.022 16.096 119.126 16.192 119.222 16.336C119.318 16.48 119.366 16.656 119.366 16.864C119.366 17.184 119.214 17.528 118.91 17.896C118.606 18.264 118.142 18.584 117.518 18.856C116.894 19.112 116.102 19.24 115.142 19.24ZM117.47 11.44C117.47 10.592 117.382 9.848 117.206 9.208C117.046 8.568 116.774 8.072 116.39 7.72C116.006 7.368 115.494 7.192 114.854 7.192C114.262 7.192 113.758 7.36 113.342 7.696C112.942 8.016 112.622 8.488 112.382 9.112C112.158 9.736 112.014 10.512 111.95 11.44L117.47 11.44ZM122.97 8.416C122.858 8.08 122.722 7.824 122.562 7.648C122.418 7.456 122.234 7.328 122.01 7.264C121.802 7.184 121.53 7.144 121.194 7.144V6.136H127.194V7.144H126.882C126.402 7.144 126.042 7.24 125.802 7.432C125.562 7.608 125.442 7.896 125.442 8.296C125.442 8.424 125.458 8.56 125.49 8.704C125.522 8.848 125.57 9.008 125.634 9.184L127.266 13.72C127.41 14.104 127.554 14.528 127.698 14.992C127.842 15.44 127.97 15.872 128.082 16.288C128.21 16.688 128.314 17.032 128.394 17.32C128.458 17.096 128.554 16.8 128.682 16.432C128.81 16.064 128.954 15.672 129.114 15.256C129.29 14.824 129.45 14.416 129.594 14.032L131.322 9.352C131.402 9.16 131.458 8.976 131.49 8.8C131.522 8.608 131.538 8.448 131.538 8.32C131.538 7.904 131.402 7.608 131.13 7.432C130.874 7.24 130.482 7.144 129.954 7.144H129.786V6.136L134.922 6.136V7.144H134.634C134.33 7.144 134.074 7.192 133.866 7.288C133.674 7.384 133.498 7.568 133.338 7.84C133.178 8.112 133.002 8.504 132.81 9.016L129.018 19H126.834L122.97 8.416ZM141.884 19.24C140.14 19.24 138.772 18.664 137.78 17.512C136.804 16.36 136.316 14.744 136.316 12.664C136.316 10.424 136.78 8.736 137.708 7.6C138.636 6.464 139.948 5.896 141.644 5.896C143.196 5.896 144.412 6.376 145.292 7.336C146.188 8.296 146.636 9.728 146.636 11.632V12.736H138.644C138.676 13.904 138.828 14.856 139.1 15.592C139.372 16.328 139.764 16.872 140.276 17.224C140.804 17.56 141.452 17.728 142.22 17.728C142.78 17.728 143.276 17.648 143.708 17.488C144.156 17.328 144.54 17.12 144.86 16.864C145.196 16.608 145.46 16.336 145.652 16.048C145.764 16.096 145.868 16.192 145.964 16.336C146.06 16.48 146.108 16.656 146.108 16.864C146.108 17.184 145.956 17.528 145.652 17.896C145.348 18.264 144.884 18.584 144.26 18.856C143.636 19.112 142.844 19.24 141.884 19.24ZM144.212 11.44C144.212 10.592 144.124 9.848 143.948 9.208C143.788 8.568 143.516 8.072 143.132 7.72C142.748 7.368 142.236 7.192 141.596 7.192C141.004 7.192 140.5 7.36 140.084 7.696C139.684 8.016 139.364 8.488 139.124 9.112C138.9 9.736 138.756 10.512 138.692 11.44H144.212ZM148.152 19V17.992H148.464C148.832 17.992 149.16 17.952 149.448 17.872C149.752 17.792 149.992 17.632 150.168 17.392C150.344 17.136 150.432 16.76 150.432 16.264V3.4C150.432 2.92 150.336 2.568 150.144 2.344C149.968 2.104 149.728 1.952 149.424 1.888C149.136 1.808 148.816 1.768 148.464 1.768H148.152V0.759999H152.688V16.264C152.688 16.76 152.776 17.136 152.952 17.392C153.128 17.632 153.368 17.792 153.672 17.872C153.976 17.952 154.304 17.992 154.656 17.992H154.968V19L148.152 19ZM162.056 19V17.992H162.368C162.72 17.992 163.04 17.96 163.328 17.896C163.632 17.816 163.872 17.664 164.048 17.44C164.24 17.2 164.336 16.848 164.336 16.384V8.776C164.336 8.296 164.24 7.944 164.048 7.72C163.872 7.48 163.632 7.328 163.328 7.264C163.04 7.184 162.72 7.144 162.368 7.144H162.296V6.136L166.592 6.136V16.264C166.592 16.76 166.68 17.136 166.856 17.392C167.032 17.632 167.272 17.792 167.576 17.872C167.88 17.952 168.208 17.992 168.56 17.992H168.872V19L162.056 19ZM165.368 3.736C164.984 3.736 164.656 3.624 164.384 3.4C164.128 3.176 164 2.792 164 2.248C164 1.688 164.128 1.304 164.384 1.096C164.656 0.871999 164.984 0.759999 165.368 0.759999C165.736 0.759999 166.056 0.871999 166.328 1.096C166.6 1.304 166.736 1.688 166.736 2.248C166.736 2.792 166.6 3.176 166.328 3.4C166.056 3.624 165.736 3.736 165.368 3.736ZM169.863 19V17.992H170.055C170.423 17.992 170.751 17.952 171.039 17.872C171.343 17.792 171.583 17.632 171.759 17.392C171.935 17.136 172.023 16.76 172.023 16.264V8.776C172.023 8.296 171.935 7.944 171.759 7.72C171.583 7.48 171.351 7.328 171.063 7.264C170.775 7.184 170.455 7.144 170.103 7.144H169.983V6.136H173.871L174.183 8.08H174.303C174.639 7.472 174.991 7.016 175.359 6.712C175.743 6.392 176.159 6.176 176.607 6.064C177.055 5.952 177.535 5.896 178.047 5.896C179.311 5.896 180.295 6.272 180.999 7.024C181.719 7.76 182.079 8.952 182.079 10.6V16.264C182.079 16.76 182.151 17.136 182.295 17.392C182.455 17.632 182.671 17.792 182.943 17.872C183.215 17.952 183.527 17.992 183.879 17.992H183.999V19L179.823 19V10.72C179.823 9.68 179.623 8.872 179.223 8.296C178.839 7.72 178.159 7.432 177.183 7.432C176.463 7.432 175.887 7.616 175.455 7.984C175.039 8.336 174.735 8.808 174.543 9.4C174.367 9.992 174.279 10.632 174.279 11.32V16.384C174.279 16.848 174.367 17.2 174.543 17.44C174.719 17.664 174.951 17.816 175.239 17.896C175.527 17.96 175.847 17.992 176.199 17.992H176.319V19H169.863ZM11.4913 59V57.248L15.4993 52.616C16.1393 51.88 16.6753 51.216 17.1073 50.624C17.5393 50.032 17.8833 49.48 18.1393 48.968C18.4113 48.456 18.6033 47.952 18.7153 47.456C18.8433 46.944 18.9073 46.416 18.9073 45.872C18.9073 45.264 18.8193 44.736 18.6433 44.288C18.4673 43.824 18.1953 43.464 17.8273 43.208C17.4753 42.952 17.0193 42.824 16.4593 42.824C15.7393 42.824 15.1873 42.992 14.8033 43.328C14.4193 43.664 14.1553 44.104 14.0113 44.648C13.8833 45.176 13.8193 45.76 13.8193 46.4C13.4353 46.4 13.0833 46.36 12.7633 46.28C12.4593 46.184 12.2113 46.024 12.0193 45.8C11.8433 45.56 11.7553 45.24 11.7553 44.84C11.7553 44.216 11.9313 43.664 12.2833 43.184C12.6353 42.704 13.1633 42.328 13.8673 42.056C14.5713 41.768 15.4353 41.624 16.4593 41.624C17.4673 41.624 18.3313 41.792 19.0513 42.128C19.7873 42.448 20.3473 42.912 20.7313 43.52C21.1313 44.112 21.3313 44.816 21.3313 45.632C21.3313 46.08 21.2673 46.52 21.1393 46.952C21.0273 47.384 20.8593 47.816 20.6353 48.248C20.4113 48.68 20.1393 49.128 19.8193 49.592C19.4993 50.04 19.1313 50.512 18.7153 51.008C18.2993 51.504 17.8353 52.032 17.3233 52.592L13.2673 57.08H18.8113C19.5313 57.08 20.0193 56.896 20.2753 56.528C20.5313 56.16 20.7153 55.744 20.8273 55.28L20.9233 54.848H21.9313L21.8113 59H11.4913ZM30.1536 59.24C28.8416 59.24 27.7696 58.872 26.9376 58.136C26.1056 57.4 25.4896 56.368 25.0896 55.04C24.7056 53.712 24.5136 52.16 24.5136 50.384C24.5136 48.608 24.7056 47.064 25.0896 45.752C25.4896 44.44 26.1056 43.424 26.9376 42.704C27.7696 41.984 28.8496 41.624 30.1776 41.624C31.4256 41.624 32.4656 41.984 33.2976 42.704C34.1296 43.424 34.7456 44.448 35.1456 45.776C35.5616 47.088 35.7696 48.632 35.7696 50.408C35.7696 52.184 35.5616 53.736 35.1456 55.064C34.7296 56.376 34.1056 57.4 33.2736 58.136C32.4576 58.872 31.4176 59.24 30.1536 59.24ZM30.1536 57.944C30.7296 57.944 31.2176 57.776 31.6176 57.44C32.0176 57.104 32.3376 56.616 32.5776 55.976C32.8176 55.32 32.9936 54.528 33.1056 53.6C33.2176 52.656 33.2736 51.592 33.2736 50.408C33.2736 49.224 33.2176 48.168 33.1056 47.24C33.0096 46.312 32.8336 45.528 32.5776 44.888C32.3376 44.248 32.0176 43.76 31.6176 43.424C31.2336 43.088 30.7536 42.92 30.1776 42.92C29.5856 42.92 29.0896 43.088 28.6896 43.424C28.2896 43.76 27.9616 44.248 27.7056 44.888C27.4656 45.528 27.2896 46.312 27.1776 47.24C27.0656 48.168 27.0096 49.224 27.0096 50.408C27.0096 51.592 27.0656 52.656 27.1776 53.6C27.2896 54.528 27.4656 55.32 27.7056 55.976C27.9456 56.616 28.2656 57.104 28.6656 57.44C29.0816 57.776 29.5776 57.944 30.1536 57.944ZM39.1438 59V57.992H40.7518C41.1198 57.992 41.4478 57.952 41.7358 57.872C42.0398 57.792 42.2798 57.632 42.4558 57.392C42.6318 57.136 42.7198 56.76 42.7198 56.264L42.7198 43.664C42.3198 44.16 41.9438 44.6 41.5918 44.984C41.2398 45.352 40.9038 45.64 40.5838 45.848C40.2638 46.056 39.9438 46.16 39.6238 46.16C39.2718 46.16 38.9838 46.04 38.7598 45.8C38.5358 45.56 38.4238 45.248 38.4238 44.864C38.7438 44.784 39.0718 44.68 39.4078 44.552C39.7438 44.408 40.1118 44.216 40.5118 43.976C40.9278 43.72 41.3998 43.4 41.9278 43.016L43.6078 41.768H45.1438L45.1438 56.264C45.1438 56.76 45.2318 57.136 45.4078 57.392C45.5838 57.632 45.8238 57.792 46.1278 57.872C46.4318 57.952 46.7598 57.992 47.1118 57.992H48.2878V59H39.1438ZM51.7101 59V57.248L55.7181 52.616C56.3581 51.88 56.8941 51.216 57.3261 50.624C57.7581 50.032 58.1021 49.48 58.3581 48.968C58.6301 48.456 58.8221 47.952 58.9341 47.456C59.0621 46.944 59.1261 46.416 59.1261 45.872C59.1261 45.264 59.0381 44.736 58.8621 44.288C58.6861 43.824 58.4141 43.464 58.0461 43.208C57.6941 42.952 57.2381 42.824 56.6781 42.824C55.9581 42.824 55.4061 42.992 55.0221 43.328C54.6381 43.664 54.3741 44.104 54.2301 44.648C54.1021 45.176 54.0381 45.76 54.0381 46.4C53.6541 46.4 53.3021 46.36 52.9821 46.28C52.6781 46.184 52.4301 46.024 52.2381 45.8C52.0621 45.56 51.9741 45.24 51.9741 44.84C51.9741 44.216 52.1501 43.664 52.5021 43.184C52.8541 42.704 53.3821 42.328 54.0861 42.056C54.7901 41.768 55.6541 41.624 56.6781 41.624C57.6861 41.624 58.5501 41.792 59.2701 42.128C60.0061 42.448 60.5661 42.912 60.9501 43.52C61.3501 44.112 61.5501 44.816 61.5501 45.632C61.5501 46.08 61.4861 46.52 61.3581 46.952C61.2461 47.384 61.0781 47.816 60.8541 48.248C60.6301 48.68 60.3581 49.128 60.0381 49.592C59.7181 50.04 59.3501 50.512 58.9341 51.008C58.5181 51.504 58.0541 52.032 57.5421 52.592L53.4861 57.08H59.0301C59.7501 57.08 60.2381 56.896 60.4941 56.528C60.7501 56.16 60.9341 55.744 61.0461 55.28L61.1421 54.848H62.1501L62.0301 59H51.7101ZM71.4467 48.776V47.36H81.7427V48.776H71.4467ZM71.4467 53.504V52.088H81.7427V53.504H71.4467Z" fill="white"/>
<path d="M90.1993 59V57.992H90.3913C90.7593 57.992 91.0873 57.952 91.3753 57.872C91.6793 57.792 91.9193 57.632 92.0953 57.392C92.2713 57.136 92.3593 56.76 92.3593 56.264V48.776C92.3593 48.296 92.2713 47.944 92.0953 47.72C91.9193 47.48 91.6873 47.328 91.3993 47.264C91.1113 47.184 90.7913 47.144 90.4393 47.144H90.3193V46.136H94.2073L94.5193 48.08H94.6393C94.9753 47.472 95.3273 47.016 95.6953 46.712C96.0793 46.392 96.4953 46.176 96.9433 46.064C97.3913 45.952 97.8713 45.896 98.3833 45.896C99.6473 45.896 100.631 46.272 101.335 47.024C102.055 47.76 102.415 48.952 102.415 50.6V56.264C102.415 56.76 102.487 57.136 102.631 57.392C102.791 57.632 103.007 57.792 103.279 57.872C103.551 57.952 103.863 57.992 104.215 57.992H104.335V59H100.159V50.72C100.159 49.68 99.9593 48.872 99.5593 48.296C99.1753 47.72 98.4953 47.432 97.5193 47.432C96.7993 47.432 96.2233 47.616 95.7913 47.984C95.3753 48.336 95.0713 48.808 94.8793 49.4C94.7033 49.992 94.6153 50.632 94.6153 51.32V56.384C94.6153 56.848 94.7033 57.2 94.8793 57.44C95.0553 57.664 95.2873 57.816 95.5753 57.896C95.8633 57.96 96.1833 57.992 96.5353 57.992H96.6553V59H90.1993ZM109.916 59.24C109.212 59.24 108.572 59.104 107.996 58.832C107.436 58.544 106.996 58.12 106.676 57.56C106.356 56.984 106.196 56.264 106.196 55.4C106.196 54.12 106.644 53.176 107.54 52.568C108.452 51.96 109.828 51.624 111.668 51.56L113.66 51.488V50.048C113.66 49.472 113.612 48.968 113.516 48.536C113.42 48.088 113.212 47.736 112.892 47.48C112.572 47.224 112.084 47.096 111.428 47.096C110.82 47.096 110.356 47.208 110.036 47.432C109.716 47.656 109.5 47.968 109.388 48.368C109.292 48.752 109.244 49.2 109.244 49.712C108.572 49.712 108.06 49.6 107.708 49.376C107.372 49.136 107.204 48.744 107.204 48.2C107.204 47.64 107.396 47.192 107.78 46.856C108.18 46.52 108.708 46.28 109.364 46.136C110.02 45.976 110.74 45.896 111.524 45.896C112.996 45.896 114.092 46.208 114.812 46.832C115.548 47.456 115.916 48.528 115.916 50.048V56.264C115.916 56.712 115.964 57.064 116.06 57.32C116.156 57.56 116.316 57.736 116.54 57.848C116.764 57.944 117.052 57.992 117.404 57.992H117.476V59H114.236L113.852 56.936H113.66C113.324 57.384 112.996 57.784 112.676 58.136C112.356 58.472 111.98 58.744 111.548 58.952C111.132 59.144 110.588 59.24 109.916 59.24ZM110.468 57.752C111.124 57.752 111.684 57.616 112.148 57.344C112.628 57.072 112.996 56.688 113.252 56.192C113.524 55.68 113.66 55.088 113.66 54.416V52.472L112.124 52.544C111.212 52.576 110.492 52.712 109.964 52.952C109.452 53.192 109.084 53.528 108.86 53.96C108.636 54.376 108.524 54.896 108.524 55.52C108.524 56.016 108.596 56.432 108.74 56.768C108.884 57.088 109.1 57.336 109.388 57.512C109.676 57.672 110.036 57.752 110.468 57.752ZM124.28 59.24C123.064 59.24 122.176 58.968 121.616 58.424C121.072 57.864 120.8 56.896 120.8 55.52V47.504H118.976V46.544C119.264 46.544 119.584 46.488 119.936 46.376C120.288 46.248 120.592 46.048 120.848 45.776C121.12 45.488 121.344 45.136 121.52 44.72C121.696 44.304 121.84 43.792 121.952 43.184H123.056V46.136L126.2 46.136V47.504L123.056 47.504V55.592C123.056 56.408 123.224 57.008 123.56 57.392C123.896 57.776 124.336 57.968 124.88 57.968C125.168 57.968 125.432 57.952 125.672 57.92C125.912 57.888 126.16 57.848 126.416 57.8V58.856C126.208 58.952 125.896 59.04 125.48 59.12C125.064 59.2 124.664 59.24 124.28 59.24ZM133.509 59.24C132.245 59.24 131.269 58.872 130.581 58.136C129.893 57.384 129.549 56.184 129.549 54.536V48.776C129.549 48.296 129.453 47.944 129.261 47.72C129.085 47.48 128.845 47.328 128.541 47.264C128.253 47.184 127.933 47.144 127.581 47.144H127.509V46.136H131.805V54.416C131.805 55.104 131.877 55.696 132.021 56.192C132.181 56.688 132.445 57.064 132.813 57.32C133.181 57.576 133.685 57.704 134.325 57.704C135.029 57.704 135.605 57.544 136.053 57.224C136.501 56.888 136.829 56.432 137.037 55.856C137.245 55.264 137.349 54.584 137.349 53.816V48.872C137.349 48.36 137.261 47.984 137.085 47.744C136.909 47.504 136.669 47.344 136.365 47.264C136.077 47.184 135.749 47.144 135.381 47.144H135.309V46.136H139.605V56.384C139.605 56.848 139.693 57.2 139.869 57.44C140.061 57.664 140.301 57.816 140.589 57.896C140.893 57.96 141.221 57.992 141.573 57.992H141.645V59L137.829 59L137.517 57.056H137.397C137.157 57.504 136.885 57.872 136.581 58.16C136.293 58.448 135.989 58.672 135.669 58.832C135.349 58.976 135.005 59.08 134.637 59.144C134.269 59.208 133.893 59.24 133.509 59.24ZM142.983 59V57.992H143.055C143.423 57.992 143.751 57.952 144.039 57.872C144.343 57.792 144.583 57.632 144.759 57.392C144.935 57.136 145.023 56.76 145.023 56.264V48.776C145.023 48.296 144.927 47.944 144.735 47.72C144.559 47.48 144.319 47.328 144.015 47.264C143.727 47.184 143.407 47.144 143.055 47.144H142.983V46.136H146.679L147.135 48.512H147.255C147.463 48.032 147.687 47.592 147.927 47.192C148.167 46.792 148.487 46.48 148.887 46.256C149.287 46.016 149.839 45.896 150.543 45.896C151.423 45.896 152.071 46.048 152.487 46.352C152.919 46.656 153.135 47.088 153.135 47.648C153.135 48.144 152.959 48.552 152.607 48.872C152.271 49.192 151.703 49.352 150.903 49.352C150.903 48.904 150.863 48.544 150.783 48.272C150.703 48 150.567 47.8 150.375 47.672C150.199 47.544 149.951 47.48 149.631 47.48C149.183 47.48 148.807 47.656 148.503 48.008C148.199 48.36 147.959 48.808 147.783 49.352C147.607 49.896 147.479 50.464 147.399 51.056C147.319 51.632 147.279 52.152 147.279 52.616V56.384C147.279 56.848 147.367 57.2 147.543 57.44C147.735 57.664 147.975 57.816 148.263 57.896C148.567 57.96 148.895 57.992 149.247 57.992H149.919V59H142.983ZM157.94 59.24C157.236 59.24 156.596 59.104 156.02 58.832C155.46 58.544 155.02 58.12 154.7 57.56C154.38 56.984 154.22 56.264 154.22 55.4C154.22 54.12 154.668 53.176 155.564 52.568C156.476 51.96 157.852 51.624 159.692 51.56L161.684 51.488V50.048C161.684 49.472 161.636 48.968 161.54 48.536C161.444 48.088 161.236 47.736 160.916 47.48C160.596 47.224 160.108 47.096 159.452 47.096C158.844 47.096 158.38 47.208 158.06 47.432C157.74 47.656 157.524 47.968 157.412 48.368C157.316 48.752 157.268 49.2 157.268 49.712C156.596 49.712 156.084 49.6 155.732 49.376C155.396 49.136 155.228 48.744 155.228 48.2C155.228 47.64 155.42 47.192 155.804 46.856C156.204 46.52 156.732 46.28 157.388 46.136C158.044 45.976 158.764 45.896 159.548 45.896C161.02 45.896 162.116 46.208 162.836 46.832C163.572 47.456 163.94 48.528 163.94 50.048V56.264C163.94 56.712 163.988 57.064 164.084 57.32C164.18 57.56 164.34 57.736 164.564 57.848C164.788 57.944 165.076 57.992 165.428 57.992H165.5V59H162.26L161.876 56.936H161.684C161.348 57.384 161.02 57.784 160.7 58.136C160.38 58.472 160.004 58.744 159.572 58.952C159.156 59.144 158.612 59.24 157.94 59.24ZM158.492 57.752C159.148 57.752 159.708 57.616 160.172 57.344C160.652 57.072 161.02 56.688 161.276 56.192C161.548 55.68 161.684 55.088 161.684 54.416V52.472L160.148 52.544C159.236 52.576 158.516 52.712 157.988 52.952C157.476 53.192 157.108 53.528 156.884 53.96C156.66 54.376 156.548 54.896 156.548 55.52C156.548 56.016 156.62 56.432 156.764 56.768C156.908 57.088 157.124 57.336 157.412 57.512C157.7 57.672 158.06 57.752 158.492 57.752ZM166.855 59V57.992H167.167C167.535 57.992 167.863 57.952 168.151 57.872C168.455 57.792 168.695 57.632 168.871 57.392C169.047 57.136 169.135 56.76 169.135 56.264V43.4C169.135 42.92 169.039 42.568 168.847 42.344C168.671 42.104 168.431 41.952 168.127 41.888C167.839 41.808 167.519 41.768 167.167 41.768H166.855V40.76H171.391V56.264C171.391 56.76 171.479 57.136 171.655 57.392C171.831 57.632 172.071 57.792 172.375 57.872C172.679 57.952 173.007 57.992 173.359 57.992H173.671V59H166.855Z" fill="#F1AE12"/>
</svg>
