<svg width="13" height="122" viewBox="0 0 13 122" fill="none" xmlns="http://www.w3.org/2000/svg">
<path d="M6.40234 0.211914L0.628842 10.2119L12.1758 10.2119L6.40234 0.211914ZM5.40234 9.32677L5.40234 15.4033L7.40234 15.4033L7.40234 9.32677L5.40234 9.32677ZM5.40234 21.4799L5.40235 27.5565L7.40235 27.5565L7.40234 21.4799L5.40234 21.4799ZM5.40235 33.6331L5.40235 39.7096L7.40235 39.7096L7.40235 33.6331L5.40235 33.6331ZM5.40235 45.7862L5.40235 51.8628L7.40235 51.8628L7.40235 45.7862L5.40235 45.7862ZM5.40235 57.9394L5.40235 64.0159L7.40235 64.0159L7.40235 57.9394L5.40235 57.9394ZM5.40235 70.0925L5.40235 76.1691L7.40235 76.1691L7.40235 70.0925L5.40235 70.0925ZM5.40235 82.2457L5.40235 88.3222L7.40235 88.3222L7.40235 82.2457L5.40235 82.2457ZM5.40235 94.3988L5.40235 100.475L7.40235 100.475L7.40235 94.3988L5.40235 94.3988ZM5.40235 106.552L5.40235 112.629L7.40235 112.629L7.40235 106.552L5.40235 106.552ZM5.40235 118.705L5.40235 121.743L7.40235 121.743L7.40235 118.705L5.40235 118.705Z" fill="#F1AE12"/>
</svg>
