<svg width="522" height="18" viewBox="0 0 522 18" fill="none" xmlns="http://www.w3.org/2000/svg">
<path d="M1.14441e-05 9L15 17.6603V0.339746L1.14441e-05 9ZM522 7.5H519.992V10.5H522V7.5ZM515.977 7.5L511.962 7.5V10.5L515.977 10.5V7.5ZM507.946 7.5H503.931V10.5H507.946V7.5ZM499.915 7.5L495.9 7.5V10.5H499.915V7.5ZM491.885 7.5L487.869 7.5V10.5H491.885V7.5ZM483.854 7.5L479.838 7.5V10.5H483.854V7.5ZM475.823 7.5L471.808 7.5V10.5L475.823 10.5V7.5ZM467.792 7.5H463.777V10.5H467.792V7.5ZM459.762 7.5L455.746 7.5V10.5L459.762 10.5V7.5ZM451.731 7.5H447.715V10.5H451.731V7.5ZM443.7 7.5H439.685V10.5L443.7 10.5V7.5ZM435.669 7.5H431.654V10.5H435.669V7.5ZM427.638 7.5L423.623 7.5V10.5L427.638 10.5V7.5ZM419.608 7.5L415.592 7.5V10.5H419.608V7.5ZM411.577 7.5L407.562 7.5V10.5H411.577V7.5ZM403.546 7.5L399.531 7.5V10.5H403.546V7.5ZM395.515 7.5H391.5V10.5H395.515V7.5ZM387.485 7.5L383.469 7.5V10.5L387.485 10.5V7.5ZM379.454 7.5H375.439V10.5H379.454V7.5ZM371.423 7.5H367.408V10.5L371.423 10.5V7.5ZM363.392 7.5H359.377V10.5H363.392V7.5ZM355.362 7.5L351.346 7.5V10.5H355.362V7.5ZM347.331 7.5L343.316 7.5V10.5H347.331V7.5ZM339.3 7.5L335.285 7.5V10.5H339.3V7.5ZM331.269 7.5L327.254 7.5V10.5H331.269V7.5ZM323.239 7.5H319.223V10.5H323.239V7.5ZM315.208 7.5L311.192 7.5V10.5H315.208V7.5ZM307.177 7.5H303.162V10.5H307.177V7.5ZM299.146 7.5H295.131V10.5L299.146 10.5V7.5ZM291.116 7.5H287.1V10.5H291.116V7.5ZM283.085 7.5L279.069 7.5V10.5L283.085 10.5V7.5ZM275.054 7.5H271.039V10.5H275.054V7.5ZM267.023 7.5L263.008 7.5V10.5H267.023V7.5ZM258.992 7.5L254.977 7.5V10.5H258.992V7.5ZM250.962 7.5L246.946 7.5V10.5H250.962V7.5ZM242.931 7.5L238.916 7.5V10.5L242.931 10.5V7.5ZM234.9 7.5H230.885V10.5H234.9V7.5ZM226.869 7.5H222.854V10.5L226.869 10.5V7.5ZM218.839 7.5H214.823V10.5H218.839V7.5ZM210.808 7.5L206.793 7.5V10.5H210.808V7.5ZM202.777 7.5H198.762V10.5H202.777V7.5ZM194.746 7.5L190.731 7.5V10.5L194.746 10.5V7.5ZM186.716 7.5L182.7 7.5V10.5H186.716V7.5ZM178.685 7.5L174.67 7.5V10.5H178.685V7.5ZM170.654 7.5L166.639 7.5V10.5H170.654V7.5ZM162.623 7.5H158.608V10.5H162.623V7.5ZM154.593 7.5H150.577V10.5L154.593 10.5V7.5ZM146.562 7.5H142.546V10.5H146.562V7.5ZM138.531 7.5L134.516 7.5V10.5L138.531 10.5V7.5ZM130.5 7.5H126.485V10.5H130.5V7.5ZM122.47 7.5L118.454 7.5V10.5H122.47V7.5ZM114.439 7.5L110.423 7.5V10.5H114.439V7.5ZM106.408 7.5L102.393 7.5V10.5H106.408V7.5ZM98.3773 7.5L94.3619 7.5V10.5L98.3773 10.5V7.5ZM90.3465 7.5H86.3311V10.5H90.3465V7.5ZM82.3157 7.5L78.3004 7.5V10.5L82.3157 10.5V7.5ZM74.285 7.5H70.2696V10.5H74.285V7.5ZM66.2542 7.5L62.2388 7.5V10.5L66.2542 10.5V7.5ZM58.2235 7.5H54.2081V10.5H58.2235V7.5ZM50.1927 7.5L46.1773 7.5V10.5L50.1927 10.5V7.5ZM42.1619 7.5L38.1466 7.5V10.5H42.1619V7.5ZM34.1312 7.5L30.1158 7.5V10.5H34.1312V7.5ZM26.1004 7.5L22.085 7.5V10.5H26.1004V7.5ZM18.0697 7.5H14.0543V10.5H18.0697V7.5ZM10.0389 7.5L6.02352 7.5V10.5L10.0389 10.5V7.5Z" fill="#F1AE12"/>
</svg>
