<svg width="284" height="18" viewBox="0 0 284 18" fill="none" xmlns="http://www.w3.org/2000/svg">
<path d="M1.33514e-05 9L15 17.6603V0.339746L1.33514e-05 9ZM284 7.5H282.028V10.5H284V7.5ZM278.083 7.5L274.139 7.5V10.5L278.083 10.5V7.5ZM270.194 7.5L266.25 7.5V10.5L270.194 10.5V7.5ZM262.306 7.5H258.361V10.5H262.306V7.5ZM254.417 7.5L250.472 7.5V10.5H254.417V7.5ZM246.528 7.5L242.583 7.5V10.5L246.528 10.5V7.5ZM238.639 7.5L234.694 7.5V10.5H238.639V7.5ZM230.75 7.5H226.806V10.5H230.75V7.5ZM222.861 7.5L218.917 7.5V10.5H222.861V7.5ZM214.972 7.5L211.028 7.5V10.5H214.972V7.5ZM207.083 7.5H203.139V10.5H207.083V7.5ZM199.194 7.5L195.25 7.5V10.5H199.194V7.5ZM191.306 7.5L187.361 7.5V10.5L191.306 10.5V7.5ZM183.417 7.5L179.472 7.5V10.5H183.417V7.5ZM175.528 7.5H171.583V10.5H175.528V7.5ZM167.639 7.5L163.694 7.5V10.5L167.639 10.5V7.5ZM159.75 7.5L155.806 7.5V10.5L159.75 10.5V7.5ZM151.861 7.5H147.917V10.5H151.861V7.5ZM143.972 7.5L140.028 7.5V10.5L143.972 10.5V7.5ZM136.083 7.5L132.139 7.5V10.5L136.083 10.5V7.5ZM128.194 7.5L124.25 7.5V10.5H128.194V7.5ZM120.306 7.5L116.361 7.5V10.5H120.306V7.5ZM112.417 7.5L108.472 7.5V10.5L112.417 10.5V7.5ZM104.528 7.5L100.583 7.5V10.5H104.528V7.5ZM96.639 7.5H92.6945V10.5H96.639V7.5ZM88.7501 7.5L84.8056 7.5V10.5H88.7501V7.5ZM80.8612 7.5L76.9167 7.5V10.5H80.8612V7.5ZM72.9723 7.5H69.0279V10.5H72.9723V7.5ZM65.0834 7.5L61.139 7.5V10.5H65.0834V7.5ZM57.1945 7.5H53.2501V10.5L57.1945 10.5V7.5ZM49.3056 7.5L45.3612 7.5V10.5H49.3056V7.5ZM41.4168 7.5H37.4723V10.5H41.4168V7.5ZM33.5279 7.5L29.5834 7.5V10.5L33.5279 10.5V7.5ZM25.639 7.5L21.6945 7.5V10.5L25.639 10.5V7.5ZM17.7501 7.5H13.8056V10.5H17.7501V7.5ZM9.86115 7.5L5.91671 7.5V10.5H9.86115V7.5Z" fill="#F1AE12"/>
</svg>
