<svg width="13" height="267" viewBox="0 0 13 267" fill="none" xmlns="http://www.w3.org/2000/svg">
<path d="M6.26416 0.0471191L0.490657 10.0471L12.0377 10.0471L6.26416 0.0471191ZM5.26416 9.13599L5.26416 15.1952L7.26416 15.1952L7.26416 9.13599L5.26416 9.13599ZM5.26416 21.2545L5.26416 27.3137L7.26416 27.3137L7.26416 21.2545L5.26416 21.2545ZM5.26416 33.373L5.26416 39.4322L7.26416 39.4322L7.26416 33.373L5.26416 33.373ZM5.26416 45.4915L5.26416 51.5507L7.26416 51.5507L7.26416 45.4915L5.26416 45.4915ZM5.26416 57.61L5.26416 63.6692L7.26416 63.6692L7.26416 57.61L5.26416 57.61ZM5.26416 69.7285L5.26416 75.7877L7.26416 75.7877L7.26416 69.7285L5.26416 69.7285ZM5.26416 81.847L5.26416 87.9062L7.26416 87.9062L7.26416 81.847L5.26416 81.847ZM5.26415 93.9655L5.26415 100.025L7.26415 100.025L7.26415 93.9655L5.26415 93.9655ZM5.26415 106.084L5.26415 112.143L7.26415 112.143L7.26415 106.084L5.26415 106.084ZM5.26415 118.202L5.26415 124.262L7.26415 124.262L7.26415 118.202L5.26415 118.202ZM5.26415 130.321L5.26415 136.38L7.26415 136.38L7.26415 130.321L5.26415 130.321ZM5.26415 142.439L5.26415 148.499L7.26415 148.499L7.26415 142.439L5.26415 142.439ZM5.26415 154.558L5.26415 160.617L7.26415 160.617L7.26415 154.558L5.26415 154.558ZM5.26415 166.676L5.26415 172.736L7.26415 172.736L7.26415 166.676L5.26415 166.676ZM5.26415 178.795L5.26415 184.854L7.26415 184.854L7.26415 178.795L5.26415 178.795ZM5.26415 190.913L5.26415 196.973L7.26415 196.973L7.26415 190.913L5.26415 190.913ZM5.26415 203.032L5.26415 209.091L7.26415 209.091L7.26415 203.032L5.26415 203.032ZM5.26415 215.15L5.26415 221.21L7.26415 221.21L7.26415 215.15L5.26415 215.15ZM5.26415 227.269L5.26415 233.328L7.26415 233.328L7.26415 227.269L5.26415 227.269ZM5.26415 239.387L5.26415 245.447L7.26415 245.447L7.26415 239.387L5.26415 239.387ZM5.26415 251.506L5.26415 257.565L7.26415 257.565L7.26415 251.506L5.26415 251.506ZM5.26415 263.624L5.26415 266.654L7.26415 266.654L7.26415 263.624L5.26415 263.624Z" fill="#F1AE12"/>
</svg>
