<svg width="13" height="89" viewBox="0 0 13 89" fill="none" xmlns="http://www.w3.org/2000/svg">
<path d="M6.52393 0.464722L0.750424 10.4647L12.2974 10.4647L6.52393 0.464722ZM5.52393 9.86085L5.52393 16.1249L7.52393 16.1249L7.52393 9.86085L5.52393 9.86085ZM5.52393 22.389L5.52393 28.6531L7.52393 28.6531L7.52393 22.389L5.52393 22.389ZM5.52393 34.9172L5.52393 41.1813L7.52393 41.1813L7.52393 34.9172L5.52393 34.9172ZM5.52393 47.4454L5.52393 53.7095L7.52393 53.7095L7.52393 47.4454L5.52393 47.4454ZM5.52393 59.9736L5.52393 66.2376L7.52393 66.2376L7.52393 59.9736L5.52393 59.9736ZM5.52393 72.5017L5.52393 78.7658L7.52393 78.7658L7.52393 72.5017L5.52393 72.5017ZM5.52393 85.0299L5.52393 88.162L7.52393 88.162L7.52393 85.0299L5.52393 85.0299Z" fill="#F1AE12"/>
</svg>
