<svg width="59" height="7" viewBox="0 0 59 7" fill="none" xmlns="http://www.w3.org/2000/svg">
<path d="M58.5747 3.51392L55.688 0.627165L52.8012 3.51392L55.688 6.40067L58.5747 3.51392ZM0.487337 3.51392L3.37409 6.40067L6.26084 3.51392L3.37409 0.627165L0.487337 3.51392ZM55.688 3.01392L52.4184 3.01392V4.01392H55.688V3.01392ZM45.8791 3.01392L39.3399 3.01392V4.01392L45.8791 4.01392V3.01392ZM32.8007 3.01392L26.2614 3.01392V4.01392L32.8007 4.01392V3.01392ZM19.7222 3.01392L13.1829 3.01392V4.01392L19.7222 4.01392V3.01392ZM6.64371 3.01392L3.37409 3.01392V4.01392H6.64371V3.01392Z" fill="white"/>
</svg>
