<svg width="721" height="18" viewBox="0 0 721 18" fill="none" xmlns="http://www.w3.org/2000/svg">
<path d="M0 9L15 17.6603V0.339746L0 9ZM721 7.5H718.997V10.5H721V7.5ZM714.992 7.5L710.986 7.5V10.5L714.992 10.5V7.5ZM706.981 7.5L702.975 7.5V10.5L706.981 10.5V7.5ZM698.969 7.5H694.964V10.5H698.969V7.5ZM690.958 7.5L686.953 7.5V10.5L690.958 10.5V7.5ZM682.947 7.5L678.942 7.5V10.5L682.947 10.5V7.5ZM674.936 7.5H670.931V10.5H674.936V7.5ZM666.925 7.5L662.919 7.5V10.5L666.925 10.5V7.5ZM658.914 7.5L654.908 7.5V10.5L658.914 10.5V7.5ZM650.903 7.5H646.897V10.5H650.903V7.5ZM642.892 7.5L638.886 7.5V10.5L642.892 10.5V7.5ZM634.881 7.5L630.875 7.5V10.5L634.881 10.5V7.5ZM626.869 7.5H622.864V10.5H626.869V7.5ZM618.858 7.5L614.853 7.5V10.5H618.858V7.5ZM610.847 7.5L606.842 7.5V10.5L610.847 10.5V7.5ZM602.836 7.5H598.831V10.5H602.836V7.5ZM594.825 7.5L590.819 7.5V10.5H594.825V7.5ZM586.814 7.5L582.808 7.5V10.5L586.814 10.5V7.5ZM578.803 7.5H574.797V10.5H578.803V7.5ZM570.792 7.5L566.786 7.5V10.5H570.792V7.5ZM562.781 7.5L558.775 7.5V10.5L562.781 10.5V7.5ZM554.769 7.5H550.764V10.5H554.769V7.5ZM546.758 7.5L542.753 7.5V10.5H546.758V7.5ZM538.747 7.5L534.742 7.5V10.5L538.747 10.5V7.5ZM530.736 7.5H526.731V10.5H530.736V7.5ZM522.725 7.5L518.719 7.5V10.5H522.725V7.5ZM514.714 7.5L510.708 7.5V10.5L514.714 10.5V7.5ZM506.703 7.5H502.697V10.5H506.703V7.5ZM498.692 7.5L494.686 7.5V10.5H498.692V7.5ZM490.681 7.5H486.675V10.5L490.681 10.5V7.5ZM482.67 7.5L478.664 7.5V10.5H482.67V7.5ZM474.658 7.5L470.653 7.5V10.5H474.658V7.5ZM466.647 7.5H462.642V10.5L466.647 10.5V7.5ZM458.636 7.5L454.631 7.5V10.5H458.636V7.5ZM450.625 7.5L446.619 7.5V10.5H450.625V7.5ZM442.614 7.5H438.608V10.5L442.614 10.5V7.5ZM434.603 7.5L430.597 7.5V10.5H434.603V7.5ZM426.592 7.5H422.586V10.5H426.592V7.5ZM418.581 7.5L414.575 7.5V10.5L418.581 10.5V7.5ZM410.57 7.5L406.564 7.5V10.5H410.57V7.5ZM402.558 7.5H398.553V10.5H402.558V7.5ZM394.547 7.5L390.542 7.5V10.5L394.547 10.5V7.5ZM386.536 7.5L382.531 7.5V10.5H386.536V7.5ZM378.525 7.5H374.52V10.5H378.525V7.5ZM370.514 7.5L366.508 7.5V10.5L370.514 10.5V7.5ZM362.503 7.5L358.497 7.5V10.5H362.503V7.5ZM354.492 7.5H350.486V10.5H354.492V7.5ZM346.481 7.5L342.475 7.5V10.5L346.481 10.5V7.5ZM338.47 7.5L334.464 7.5V10.5H338.47V7.5ZM330.458 7.5H326.453V10.5H330.458V7.5ZM322.447 7.5L318.442 7.5V10.5L322.447 10.5V7.5ZM314.436 7.5L310.431 7.5V10.5H314.436V7.5ZM306.425 7.5H302.42V10.5H306.425V7.5ZM298.414 7.5L294.408 7.5V10.5H298.414V7.5ZM290.403 7.5L286.397 7.5V10.5H290.403V7.5ZM282.392 7.5H278.386V10.5H282.392V7.5ZM274.381 7.5L270.375 7.5V10.5H274.381V7.5ZM266.37 7.5L262.364 7.5V10.5H266.37V7.5ZM258.358 7.5H254.353V10.5H258.358V7.5ZM250.347 7.5L246.342 7.5V10.5H250.347V7.5ZM242.336 7.5L238.331 7.5V10.5H242.336V7.5ZM234.325 7.5H230.32V10.5H234.325V7.5ZM226.314 7.5L222.308 7.5V10.5H226.314V7.5ZM218.303 7.5L214.297 7.5V10.5H218.303V7.5ZM210.292 7.5H206.286V10.5H210.292V7.5ZM202.281 7.5L198.275 7.5V10.5H202.281V7.5ZM194.27 7.5L190.264 7.5V10.5H194.27V7.5ZM186.258 7.5H182.253V10.5H186.258V7.5ZM178.247 7.5L174.242 7.5V10.5H178.247V7.5ZM170.236 7.5L166.231 7.5V10.5H170.236V7.5ZM162.225 7.5H158.22V10.5H162.225V7.5ZM154.214 7.5L150.208 7.5V10.5H154.214V7.5ZM146.203 7.5L142.197 7.5V10.5H146.203V7.5ZM138.192 7.5H134.186V10.5H138.192V7.5ZM130.181 7.5L126.175 7.5V10.5H130.181V7.5ZM122.17 7.5L118.164 7.5V10.5H122.17V7.5ZM114.159 7.5H110.153V10.5H114.159V7.5ZM106.147 7.5L102.142 7.5V10.5H106.147V7.5ZM98.1363 7.5L94.1307 7.5V10.5L98.1363 10.5V7.5ZM90.1252 7.5H86.1196V10.5H90.1252V7.5ZM82.1141 7.5L78.1085 7.5V10.5H82.1141V7.5ZM74.103 7.5L70.0974 7.5V10.5L74.103 10.5V7.5ZM66.0919 7.5H62.0863V10.5H66.0919V7.5ZM58.0807 7.5L54.0752 7.5V10.5H58.0807V7.5ZM50.0696 7.5L46.0641 7.5V10.5L50.0696 10.5V7.5ZM42.0586 7.5H38.053V10.5H42.0586V7.5ZM34.0474 7.5L30.0419 7.5V10.5H34.0474V7.5ZM26.0363 7.5L22.0308 7.5V10.5L26.0363 10.5V7.5ZM18.0252 7.5H14.0197V10.5H18.0252V7.5ZM10.0141 7.5L6.00854 7.5V10.5H10.0141V7.5Z" fill="#F1AE12"/>
</svg>
