<svg width="185" height="65" viewBox="0 0 185 65" fill="none" xmlns="http://www.w3.org/2000/svg">
<path d="M24.4136 18.6466V17.6386H24.9656C25.3176 17.6386 25.6376 17.6066 25.9256 17.5426C26.2296 17.4626 26.4696 17.3106 26.6456 17.0866C26.8376 16.8466 26.9336 16.4946 26.9336 16.0306V2.71061H24.6296C24.1656 2.71061 23.7976 2.80661 23.5256 2.99861C23.2536 3.17461 23.0536 3.41461 22.9256 3.71861C22.7976 4.00661 22.7096 4.32661 22.6616 4.67861L22.5416 5.71061H21.2936L21.4136 1.51061L34.9256 1.51061L35.0456 5.71061H33.7976L33.6776 4.67861C33.6456 4.32661 33.5576 4.00661 33.4136 3.71861C33.2856 3.41461 33.0856 3.17461 32.8136 2.99861C32.5416 2.80661 32.1656 2.71061 31.6856 2.71061H29.3576V15.9106C29.3576 16.4066 29.4456 16.7826 29.6216 17.0386C29.7976 17.2786 30.0376 17.4386 30.3416 17.5186C30.6456 17.5986 30.9736 17.6386 31.3256 17.6386H31.8776V18.6466H24.4136ZM35.9644 18.6466V17.6386H36.1564C36.5244 17.6386 36.8524 17.5986 37.1404 17.5186C37.4444 17.4386 37.6844 17.2786 37.8604 17.0386C38.0364 16.7826 38.1244 16.4066 38.1244 15.9106V3.04661C38.1244 2.56661 38.0284 2.21461 37.8364 1.99061C37.6604 1.75061 37.4204 1.59861 37.1164 1.53461C36.8284 1.45461 36.5084 1.41461 36.1564 1.41461H35.9644V0.406605L40.3804 0.406605V5.68661C40.3804 5.97461 40.3724 6.27861 40.3564 6.59861C40.3404 6.90261 40.3244 7.16661 40.3084 7.39061C40.2924 7.61461 40.2844 7.72661 40.2844 7.72661L40.4044 7.72661C40.6444 7.24661 40.9324 6.84661 41.2684 6.52661C41.6204 6.19061 42.0124 5.94261 42.4444 5.78261C42.8924 5.62261 43.3884 5.54261 43.9324 5.54261C45.3084 5.54261 46.3564 5.91861 47.0764 6.67061C47.8124 7.40661 48.1804 8.59861 48.1804 10.2466V15.9106C48.1804 16.4066 48.2604 16.7826 48.4204 17.0386C48.5804 17.2786 48.7964 17.4386 49.0684 17.5186C49.3564 17.5986 49.6764 17.6386 50.0284 17.6386H50.1004V18.6466H45.9244V10.3666C45.9244 9.32661 45.7244 8.51861 45.3244 7.94261C44.9404 7.36661 44.2604 7.07861 43.2844 7.07861C42.6284 7.07861 42.0844 7.23861 41.6524 7.55861C41.2204 7.87861 40.9004 8.33461 40.6924 8.92661C40.4844 9.50261 40.3804 10.1826 40.3804 10.9666V16.0306C40.3804 16.4946 40.4684 16.8466 40.6444 17.0866C40.8364 17.3106 41.0764 17.4626 41.3644 17.5426C41.6684 17.6066 41.9964 17.6386 42.3484 17.6386H42.4204V18.6466L35.9644 18.6466ZM57.6548 18.8866C55.9108 18.8866 54.5428 18.3106 53.5508 17.1586C52.5748 16.0066 52.0868 14.3906 52.0868 12.3106C52.0868 10.0706 52.5508 8.38261 53.4788 7.24661C54.4068 6.11061 55.7188 5.54261 57.4148 5.54261C58.9668 5.54261 60.1828 6.02261 61.0628 6.98261C61.9588 7.94261 62.4068 9.37461 62.4068 11.2786V12.3826L54.4148 12.3826C54.4468 13.5506 54.5988 14.5026 54.8708 15.2386C55.1428 15.9746 55.5348 16.5186 56.0468 16.8706C56.5748 17.2066 57.2228 17.3746 57.9908 17.3746C58.5508 17.3746 59.0468 17.2946 59.4788 17.1346C59.9268 16.9746 60.3108 16.7666 60.6308 16.5106C60.9668 16.2546 61.2308 15.9826 61.4228 15.6946C61.5348 15.7426 61.6388 15.8386 61.7348 15.9826C61.8308 16.1266 61.8788 16.3026 61.8788 16.5106C61.8788 16.8306 61.7268 17.1746 61.4228 17.5426C61.1188 17.9106 60.6548 18.2306 60.0308 18.5026C59.4068 18.7586 58.6148 18.8866 57.6548 18.8866ZM59.9828 11.0866C59.9828 10.2386 59.8948 9.49461 59.7188 8.85461C59.5588 8.21461 59.2868 7.71861 58.9028 7.36661C58.5188 7.01461 58.0068 6.83861 57.3668 6.83861C56.7748 6.83861 56.2708 7.00661 55.8548 7.34261C55.4548 7.66261 55.1348 8.13461 54.8948 8.75861C54.6708 9.38261 54.5268 10.1586 54.4628 11.0866L59.9828 11.0866ZM74.8849 18.8866C74.0849 18.8866 73.3889 18.7906 72.7969 18.5986C72.2049 18.4066 71.7409 18.1266 71.4049 17.7586C71.0849 17.3746 70.9249 16.9026 70.9249 16.3426C70.9249 15.9106 71.0129 15.5746 71.1889 15.3346C71.3649 15.0946 71.5649 14.9266 71.7889 14.8306C72.0289 14.7346 72.2449 14.6866 72.4369 14.6866C72.4369 15.2466 72.5169 15.7586 72.6769 16.2226C72.8369 16.6866 73.1089 17.0546 73.4929 17.3266C73.8769 17.5986 74.3889 17.7346 75.0289 17.7346C75.8769 17.7346 76.5249 17.5346 76.9729 17.1346C77.4369 16.7186 77.6689 16.1906 77.6689 15.5506C77.6689 15.1506 77.5809 14.8226 77.4049 14.5666C77.2449 14.3106 76.9489 14.0626 76.5169 13.8226C76.1009 13.5666 75.5009 13.2706 74.7169 12.9346C73.9009 12.5666 73.2209 12.2146 72.6769 11.8786C72.1489 11.5266 71.7489 11.1266 71.4769 10.6786C71.2209 10.2146 71.0929 9.63861 71.0929 8.95061C71.0929 7.86261 71.5009 7.03061 72.3169 6.45461C73.1489 5.86261 74.2449 5.56661 75.6049 5.56661C76.3729 5.56661 77.0129 5.67061 77.5249 5.87861C78.0529 6.07061 78.4449 6.33461 78.7009 6.67061C78.9729 7.00661 79.1089 7.37461 79.1089 7.77461C79.1089 8.20661 78.9569 8.55861 78.6529 8.83061C78.3649 9.08661 77.9409 9.21461 77.3809 9.21461C77.3809 8.41461 77.2129 7.79061 76.8769 7.34261C76.5409 6.89461 76.0209 6.67061 75.3169 6.67061C74.7729 6.67061 74.3329 6.75061 73.9969 6.91061C73.6609 7.07061 73.4129 7.29461 73.2529 7.58261C73.1089 7.87061 73.0369 8.20661 73.0369 8.59061C73.0369 8.99061 73.1329 9.32661 73.3249 9.59861C73.5329 9.87061 73.8529 10.1266 74.2849 10.3666C74.7329 10.5906 75.3089 10.8466 76.0129 11.1346C76.8609 11.4866 77.5489 11.8386 78.0769 12.1906C78.6049 12.5426 78.9889 12.9506 79.2289 13.4146C79.4849 13.8786 79.6129 14.4466 79.6129 15.1186C79.6129 16.3666 79.1809 17.3106 78.3169 17.9506C77.4529 18.5746 76.3089 18.8866 74.8849 18.8866ZM87.561 18.8866C85.817 18.8866 84.449 18.3106 83.457 17.1586C82.481 16.0066 81.993 14.3906 81.993 12.3106C81.993 10.0706 82.457 8.38261 83.385 7.24661C84.313 6.11061 85.625 5.54261 87.321 5.54261C88.873 5.54261 90.089 6.02261 90.969 6.98261C91.865 7.94261 92.313 9.37461 92.313 11.2786V12.3826L84.321 12.3826C84.353 13.5506 84.505 14.5026 84.777 15.2386C85.049 15.9746 85.441 16.5186 85.953 16.8706C86.481 17.2066 87.129 17.3746 87.897 17.3746C88.457 17.3746 88.953 17.2946 89.385 17.1346C89.833 16.9746 90.217 16.7666 90.537 16.5106C90.873 16.2546 91.137 15.9826 91.329 15.6946C91.441 15.7426 91.545 15.8386 91.641 15.9826C91.737 16.1266 91.785 16.3026 91.785 16.5106C91.785 16.8306 91.633 17.1746 91.329 17.5426C91.025 17.9106 90.561 18.2306 89.937 18.5026C89.313 18.7586 88.521 18.8866 87.561 18.8866ZM89.889 11.0866C89.889 10.2386 89.801 9.49461 89.625 8.85461C89.465 8.21461 89.193 7.71861 88.809 7.36661C88.425 7.01461 87.913 6.83861 87.273 6.83861C86.681 6.83861 86.177 7.00661 85.761 7.34261C85.361 7.66261 85.041 8.13461 84.801 8.75861C84.577 9.38261 84.433 10.1586 84.369 11.0866L89.889 11.0866ZM98.4368 18.8866C97.7328 18.8866 97.0928 18.7506 96.5168 18.4786C95.9568 18.1906 95.5168 17.7666 95.1968 17.2066C94.8768 16.6306 94.7168 15.9106 94.7168 15.0466C94.7168 13.7666 95.1648 12.8226 96.0608 12.2146C96.9728 11.6066 98.3488 11.2706 100.189 11.2066L102.181 11.1346V9.69461C102.181 9.11861 102.133 8.61461 102.037 8.18261C101.941 7.73461 101.733 7.38261 101.413 7.12661C101.093 6.87061 100.605 6.74261 99.9488 6.74261C99.3408 6.74261 98.8768 6.85461 98.5568 7.07861C98.2368 7.30261 98.0208 7.61461 97.9088 8.01461C97.8128 8.39861 97.7648 8.84661 97.7648 9.35861C97.0928 9.35861 96.5808 9.24661 96.2288 9.02261C95.8928 8.78261 95.7248 8.39061 95.7248 7.84661C95.7248 7.28661 95.9168 6.83861 96.3008 6.50261C96.7008 6.16661 97.2288 5.92661 97.8848 5.78261C98.5408 5.62261 99.2608 5.54261 100.045 5.54261C101.517 5.54261 102.613 5.85461 103.333 6.47861C104.069 7.10261 104.437 8.17461 104.437 9.69461V15.9106C104.437 16.3586 104.485 16.7106 104.581 16.9666C104.677 17.2066 104.837 17.3826 105.061 17.4946C105.285 17.5906 105.573 17.6386 105.925 17.6386H105.997V18.6466L102.757 18.6466L102.373 16.5826H102.181C101.845 17.0306 101.517 17.4306 101.197 17.7826C100.877 18.1186 100.501 18.3906 100.069 18.5986C99.6528 18.7906 99.1088 18.8866 98.4368 18.8866ZM98.9888 17.3986C99.6448 17.3986 100.205 17.2626 100.669 16.9906C101.149 16.7186 101.517 16.3346 101.773 15.8386C102.045 15.3266 102.181 14.7346 102.181 14.0626V12.1186L100.645 12.1906C99.7328 12.2226 99.0128 12.3586 98.4848 12.5986C97.9728 12.8386 97.6048 13.1746 97.3808 13.6066C97.1568 14.0226 97.0448 14.5426 97.0448 15.1666C97.0448 15.6626 97.1168 16.0786 97.2608 16.4146C97.4048 16.7346 97.6208 16.9826 97.9088 17.1586C98.1968 17.3186 98.5568 17.3986 98.9888 17.3986ZM115.075 8.06261C114.963 7.72661 114.827 7.47061 114.667 7.29461C114.523 7.10261 114.347 6.97461 114.139 6.91061C113.947 6.83061 113.691 6.79061 113.371 6.79061H113.299V5.78261H119.227V6.79061H118.915C118.435 6.79061 118.075 6.86261 117.835 7.00661C117.595 7.13461 117.475 7.39861 117.475 7.79861C117.475 7.92661 117.491 8.08661 117.523 8.27861C117.571 8.47061 117.619 8.65461 117.667 8.83061L118.795 12.8626C118.907 13.2466 119.011 13.6786 119.107 14.1586C119.219 14.6226 119.323 15.0706 119.419 15.5026C119.515 15.9186 119.587 16.2626 119.635 16.5346H119.707C119.755 16.2626 119.827 15.9346 119.923 15.5506C120.035 15.1666 120.155 14.7586 120.283 14.3266C120.427 13.8946 120.563 13.4866 120.691 13.1026L123.187 5.85461H124.699L127.099 12.9586C127.195 13.2466 127.291 13.5586 127.387 13.8946C127.499 14.2146 127.603 14.5426 127.699 14.8786C127.795 15.2146 127.883 15.5266 127.963 15.8146C128.043 16.1026 128.099 16.3426 128.131 16.5346H128.203C128.251 16.2626 128.315 15.9586 128.395 15.6226C128.491 15.2706 128.595 14.8786 128.707 14.4466C128.835 14.0146 128.979 13.5426 129.139 13.0306L130.339 9.16661C130.403 8.95861 130.451 8.74261 130.483 8.51861C130.531 8.27861 130.555 8.09461 130.555 7.96661C130.555 7.55061 130.419 7.25461 130.147 7.07861C129.891 6.88661 129.499 6.79061 128.971 6.79061H128.803V5.78261H133.939V6.79061H133.627C133.323 6.79061 133.067 6.83861 132.859 6.93461C132.651 7.01461 132.467 7.19061 132.307 7.46261C132.147 7.73461 131.987 8.13461 131.827 8.66261L128.731 18.6466H126.811L123.523 8.61461L120.115 18.6466H118.219L115.075 8.06261ZM138.89 18.8866C138.186 18.8866 137.546 18.7506 136.97 18.4786C136.41 18.1906 135.97 17.7666 135.65 17.2066C135.33 16.6306 135.17 15.9106 135.17 15.0466C135.17 13.7666 135.618 12.8226 136.514 12.2146C137.426 11.6066 138.802 11.2706 140.642 11.2066L142.634 11.1346V9.69461C142.634 9.11861 142.586 8.61461 142.49 8.18261C142.394 7.73461 142.186 7.38261 141.866 7.12661C141.546 6.87061 141.058 6.74261 140.402 6.74261C139.794 6.74261 139.33 6.85461 139.01 7.07861C138.69 7.30261 138.474 7.61461 138.362 8.01461C138.266 8.39861 138.218 8.84661 138.218 9.35861C137.546 9.35861 137.034 9.24661 136.682 9.02261C136.346 8.78261 136.178 8.39061 136.178 7.84661C136.178 7.28661 136.37 6.83861 136.754 6.50261C137.154 6.16661 137.682 5.92661 138.338 5.78261C138.994 5.62261 139.714 5.54261 140.498 5.54261C141.97 5.54261 143.066 5.85461 143.786 6.47861C144.522 7.10261 144.89 8.17461 144.89 9.69461V15.9106C144.89 16.3586 144.938 16.7106 145.034 16.9666C145.13 17.2066 145.29 17.3826 145.514 17.4946C145.738 17.5906 146.026 17.6386 146.378 17.6386H146.45V18.6466H143.21L142.826 16.5826H142.634C142.298 17.0306 141.97 17.4306 141.65 17.7826C141.33 18.1186 140.954 18.3906 140.522 18.5986C140.106 18.7906 139.562 18.8866 138.89 18.8866ZM139.442 17.3986C140.098 17.3986 140.658 17.2626 141.122 16.9906C141.602 16.7186 141.97 16.3346 142.226 15.8386C142.498 15.3266 142.634 14.7346 142.634 14.0626V12.1186L141.098 12.1906C140.186 12.2226 139.466 12.3586 138.938 12.5986C138.426 12.8386 138.058 13.1746 137.834 13.6066C137.61 14.0226 137.498 14.5426 137.498 15.1666C137.498 15.6626 137.57 16.0786 137.714 16.4146C137.858 16.7346 138.074 16.9826 138.362 17.1586C138.65 17.3186 139.01 17.3986 139.442 17.3986ZM152.533 18.8866C151.733 18.8866 151.037 18.7906 150.445 18.5986C149.853 18.4066 149.389 18.1266 149.053 17.7586C148.733 17.3746 148.573 16.9026 148.573 16.3426C148.573 15.9106 148.661 15.5746 148.837 15.3346C149.013 15.0946 149.213 14.9266 149.437 14.8306C149.677 14.7346 149.893 14.6866 150.085 14.6866C150.085 15.2466 150.165 15.7586 150.325 16.2226C150.485 16.6866 150.757 17.0546 151.141 17.3266C151.525 17.5986 152.037 17.7346 152.677 17.7346C153.525 17.7346 154.173 17.5346 154.621 17.1346C155.085 16.7186 155.317 16.1906 155.317 15.5506C155.317 15.1506 155.229 14.8226 155.053 14.5666C154.893 14.3106 154.597 14.0626 154.165 13.8226C153.749 13.5666 153.149 13.2706 152.365 12.9346C151.549 12.5666 150.869 12.2146 150.325 11.8786C149.797 11.5266 149.397 11.1266 149.125 10.6786C148.869 10.2146 148.741 9.63861 148.741 8.95061C148.741 7.86261 149.149 7.03061 149.965 6.45461C150.797 5.86261 151.893 5.56661 153.253 5.56661C154.021 5.56661 154.661 5.67061 155.173 5.87861C155.701 6.07061 156.093 6.33461 156.349 6.67061C156.621 7.00661 156.757 7.37461 156.757 7.77461C156.757 8.20661 156.605 8.55861 156.301 8.83061C156.013 9.08661 155.589 9.21461 155.029 9.21461C155.029 8.41461 154.861 7.79061 154.525 7.34261C154.189 6.89461 153.669 6.67061 152.965 6.67061C152.421 6.67061 151.981 6.75061 151.645 6.91061C151.309 7.07061 151.061 7.29461 150.901 7.58261C150.757 7.87061 150.685 8.20661 150.685 8.59061C150.685 8.99061 150.781 9.32661 150.973 9.59861C151.181 9.87061 151.501 10.1266 151.933 10.3666C152.381 10.5906 152.957 10.8466 153.661 11.1346C154.509 11.4866 155.197 11.8386 155.725 12.1906C156.253 12.5426 156.637 12.9506 156.877 13.4146C157.133 13.8786 157.261 14.4466 157.261 15.1186C157.261 16.3666 156.829 17.3106 155.965 17.9506C155.101 18.5746 153.957 18.8866 152.533 18.8866ZM4.74602 58.9106C3.85002 58.9106 3.14602 58.8066 2.63402 58.5986C2.12202 58.3906 1.76202 58.1346 1.55402 57.8306C1.36202 57.5106 1.26602 57.1826 1.26602 56.8466C1.26602 56.5426 1.33802 56.2946 1.48202 56.1026C1.64202 55.8946 1.81002 55.7586 1.98602 55.6946C2.13002 56.0306 2.32202 56.3426 2.56202 56.6306C2.80202 56.9186 3.10602 57.1506 3.47402 57.3266C3.84202 57.5026 4.27402 57.5906 4.77002 57.5906C5.66602 57.5906 6.39402 57.3266 6.95402 56.7986C7.53002 56.2706 7.96202 55.4786 8.25002 54.4226C8.55402 53.3506 8.73002 52.0146 8.77802 50.4146C8.55402 50.6866 8.27402 50.9506 7.93802 51.2066C7.60202 51.4626 7.21002 51.6706 6.76202 51.8306C6.31402 51.9746 5.81002 52.0466 5.25002 52.0466C4.32202 52.0466 3.49802 51.8706 2.77802 51.5186C2.07402 51.1506 1.52202 50.6066 1.12202 49.8866C0.722019 49.1506 0.522019 48.2466 0.522019 47.1746C0.522019 46.0226 0.722019 45.0066 1.12202 44.1266C1.53802 43.2306 2.13002 42.5346 2.89802 42.0386C3.66602 41.5266 4.58602 41.2706 5.65802 41.2706C6.74602 41.2706 7.70602 41.5506 8.53802 42.1106C9.38602 42.6706 10.05 43.5426 10.53 44.7266C11.01 45.9106 11.25 47.4466 11.25 49.3346C11.25 50.5986 11.13 51.8066 10.89 52.9586C10.65 54.0946 10.266 55.1106 9.73802 56.0066C9.22602 56.9026 8.55402 57.6146 7.72202 58.1426C6.90602 58.6546 5.91402 58.9106 4.74602 58.9106ZM5.77802 50.6306C6.30602 50.6306 6.77002 50.5426 7.17002 50.3666C7.57002 50.1746 7.90602 49.9346 8.17802 49.6466C8.45002 49.3426 8.65802 49.0226 8.80202 48.6866C8.78602 47.6146 8.69802 46.6946 8.53802 45.9266C8.37802 45.1586 8.16202 44.5266 7.89002 44.0306C7.61802 43.5346 7.29002 43.1746 6.90602 42.9506C6.53802 42.7106 6.12202 42.5906 5.65802 42.5906C5.09802 42.5906 4.61802 42.7586 4.21802 43.0946C3.81802 43.4306 3.51402 43.9186 3.30602 44.5586C3.09802 45.1986 2.99402 45.9906 2.99402 46.9346C2.99402 47.8146 3.09802 48.5266 3.30602 49.0706C3.51402 49.6146 3.82602 50.0146 4.24202 50.2706C4.65802 50.5106 5.17002 50.6306 5.77802 50.6306ZM18.5603 58.8866C17.3763 58.8866 16.4563 58.7586 15.8003 58.5026C15.1443 58.2466 14.6803 57.9346 14.4083 57.5666C14.1523 57.1826 14.0243 56.8146 14.0243 56.4626C14.0243 56.0146 14.1443 55.6706 14.3843 55.4306C14.6403 55.1746 15.0243 55.0466 15.5363 55.0466C15.5363 55.4946 15.6403 55.9026 15.8483 56.2706C16.0723 56.6386 16.4003 56.9346 16.8323 57.1586C17.2643 57.3666 17.8003 57.4706 18.4403 57.4706C19.0963 57.4706 19.6803 57.3426 20.1923 57.0866C20.7203 56.8306 21.1283 56.4066 21.4163 55.8146C21.7203 55.2226 21.8723 54.4226 21.8723 53.4146C21.8723 52.5666 21.7203 51.8706 21.4163 51.3266C21.1123 50.7666 20.6883 50.3506 20.1443 50.0786C19.6003 49.8066 18.9603 49.6706 18.2243 49.6706C17.6803 49.6706 17.2243 49.6946 16.8563 49.7426C16.4883 49.7906 16.1843 49.8546 15.9443 49.9346C15.7043 50.0146 15.4803 50.1026 15.2723 50.1986L14.6963 50.0306L15.4643 41.5106H23.4803L23.6003 45.1346H22.5923L22.4963 44.4146C22.4643 44.1906 22.4083 44.0066 22.3283 43.8626C22.2643 43.7186 22.1443 43.6146 21.9683 43.5506C21.7923 43.4706 21.5363 43.4306 21.2003 43.4306H16.5443L16.0883 48.7346C16.2483 48.6706 16.4563 48.6146 16.7123 48.5666C16.9683 48.5026 17.2803 48.4546 17.6483 48.4226C18.0163 48.3746 18.4323 48.3506 18.8963 48.3506C19.9363 48.3506 20.8643 48.5426 21.6803 48.9266C22.5123 49.2946 23.1683 49.8546 23.6483 50.6066C24.1283 51.3426 24.3683 52.2786 24.3683 53.4146C24.3683 54.0706 24.2803 54.6786 24.1043 55.2386C23.9443 55.7986 23.7043 56.3026 23.3843 56.7506C23.0643 57.1986 22.6643 57.5826 22.1843 57.9026C21.7203 58.2226 21.1843 58.4706 20.5763 58.6466C19.9683 58.8066 19.2963 58.8866 18.5603 58.8866ZM32.9449 53.0066V51.2066H39.1849V53.0066H32.9449ZM48.313 58.6466V57.6386H49.921C50.289 57.6386 50.617 57.5986 50.905 57.5186C51.209 57.4386 51.449 57.2786 51.625 57.0386C51.801 56.7826 51.889 56.4066 51.889 55.9106L51.889 43.3106C51.489 43.8066 51.113 44.2466 50.761 44.6306C50.409 44.9986 50.073 45.2866 49.753 45.4946C49.433 45.7026 49.113 45.8066 48.793 45.8066C48.441 45.8066 48.153 45.6866 47.929 45.4466C47.705 45.2066 47.593 44.8946 47.593 44.5106C47.913 44.4306 48.241 44.3266 48.577 44.1986C48.913 44.0546 49.281 43.8626 49.681 43.6226C50.097 43.3666 50.569 43.0466 51.097 42.6626L52.777 41.4146H54.313L54.313 55.9106C54.313 56.4066 54.401 56.7826 54.577 57.0386C54.753 57.2786 54.993 57.4386 55.297 57.5186C55.601 57.5986 55.929 57.6386 56.281 57.6386H57.457V58.6466H48.313ZM66.1352 58.8866C64.8232 58.8866 63.7512 58.5186 62.9192 57.7826C62.0872 57.0466 61.4712 56.0146 61.0712 54.6866C60.6872 53.3586 60.4952 51.8066 60.4952 50.0306C60.4952 48.2546 60.6872 46.7106 61.0712 45.3986C61.4712 44.0866 62.0872 43.0706 62.9192 42.3506C63.7512 41.6306 64.8312 41.2706 66.1592 41.2706C67.4072 41.2706 68.4472 41.6306 69.2792 42.3506C70.1112 43.0706 70.7272 44.0946 71.1272 45.4226C71.5432 46.7346 71.7512 48.2786 71.7512 50.0546C71.7512 51.8306 71.5432 53.3826 71.1272 54.7106C70.7112 56.0226 70.0872 57.0466 69.2552 57.7826C68.4392 58.5186 67.3992 58.8866 66.1352 58.8866ZM66.1352 57.5906C66.7112 57.5906 67.1992 57.4226 67.5992 57.0866C67.9992 56.7506 68.3192 56.2626 68.5592 55.6226C68.7992 54.9666 68.9752 54.1746 69.0872 53.2466C69.1992 52.3026 69.2552 51.2386 69.2552 50.0546C69.2552 48.8706 69.1992 47.8146 69.0872 46.8866C68.9912 45.9586 68.8152 45.1746 68.5592 44.5346C68.3192 43.8946 67.9992 43.4066 67.5992 43.0706C67.2152 42.7346 66.7352 42.5666 66.1592 42.5666C65.5672 42.5666 65.0712 42.7346 64.6712 43.0706C64.2712 43.4066 63.9432 43.8946 63.6872 44.5346C63.4472 45.1746 63.2712 45.9586 63.1592 46.8866C63.0472 47.8146 62.9912 48.8706 62.9912 50.0546C62.9912 51.2386 63.0472 52.3026 63.1592 53.2466C63.2712 54.1746 63.4472 54.9666 63.6872 55.6226C63.9272 56.2626 64.2472 56.7506 64.6472 57.0866C65.0632 57.4226 65.5592 57.5906 66.1352 57.5906ZM79.5415 58.8866C78.2295 58.8866 77.1575 58.5186 76.3255 57.7826C75.4935 57.0466 74.8775 56.0146 74.4775 54.6866C74.0935 53.3586 73.9015 51.8066 73.9015 50.0306C73.9015 48.2546 74.0935 46.7106 74.4775 45.3986C74.8775 44.0866 75.4935 43.0706 76.3255 42.3506C77.1575 41.6306 78.2375 41.2706 79.5655 41.2706C80.8135 41.2706 81.8535 41.6306 82.6855 42.3506C83.5175 43.0706 84.1335 44.0946 84.5335 45.4226C84.9495 46.7346 85.1575 48.2786 85.1575 50.0546C85.1575 51.8306 84.9495 53.3826 84.5335 54.7106C84.1175 56.0226 83.4935 57.0466 82.6615 57.7826C81.8455 58.5186 80.8055 58.8866 79.5415 58.8866ZM79.5415 57.5906C80.1175 57.5906 80.6055 57.4226 81.0055 57.0866C81.4055 56.7506 81.7255 56.2626 81.9655 55.6226C82.2055 54.9666 82.3815 54.1746 82.4935 53.2466C82.6055 52.3026 82.6615 51.2386 82.6615 50.0546C82.6615 48.8706 82.6055 47.8146 82.4935 46.8866C82.3975 45.9586 82.2215 45.1746 81.9655 44.5346C81.7255 43.8946 81.4055 43.4066 81.0055 43.0706C80.6215 42.7346 80.1415 42.5666 79.5655 42.5666C78.9735 42.5666 78.4775 42.7346 78.0775 43.0706C77.6775 43.4066 77.3495 43.8946 77.0935 44.5346C76.8535 45.1746 76.6775 45.9586 76.5655 46.8866C76.4535 47.8146 76.3975 48.8706 76.3975 50.0546C76.3975 51.2386 76.4535 52.3026 76.5655 53.2466C76.6775 54.1746 76.8535 54.9666 77.0935 55.6226C77.3335 56.2626 77.6535 56.7506 78.0535 57.0866C78.4695 57.4226 78.9655 57.5906 79.5415 57.5906ZM93.1341 58.6466V57.6386H93.4461C93.8141 57.6386 94.1341 57.5986 94.4061 57.5186C94.6781 57.4386 94.8941 57.2786 95.0541 57.0386C95.2141 56.7826 95.2941 56.4066 95.2941 55.9106L95.2941 48.4226C95.2941 47.9426 95.2141 47.5906 95.0541 47.3666C94.8941 47.1266 94.6701 46.9746 94.3821 46.9106C94.1101 46.8306 93.7981 46.7906 93.4461 46.7906H93.3741V45.7826L97.1421 45.7826L97.4541 47.7266H97.5741C97.8941 47.1186 98.2381 46.6626 98.6061 46.3586C98.9741 46.0386 99.3741 45.8226 99.8061 45.7106C100.238 45.5986 100.702 45.5426 101.198 45.5426C101.71 45.5426 102.19 45.6146 102.638 45.7586C103.102 45.9026 103.51 46.1346 103.862 46.4546C104.214 46.7586 104.486 47.1826 104.678 47.7266H104.87C105.19 47.1186 105.542 46.6626 105.926 46.3586C106.326 46.0386 106.75 45.8226 107.198 45.7106C107.662 45.5986 108.142 45.5426 108.638 45.5426C109.87 45.5426 110.83 45.9186 111.518 46.6706C112.206 47.4066 112.55 48.5986 112.55 50.2466V55.9106C112.55 56.4066 112.63 56.7826 112.79 57.0386C112.95 57.2786 113.166 57.4386 113.438 57.5186C113.726 57.5986 114.046 57.6386 114.398 57.6386H114.47V58.6466H110.294L110.294 50.3666C110.294 49.3266 110.102 48.5186 109.718 47.9426C109.35 47.3666 108.702 47.0786 107.774 47.0786C107.118 47.0786 106.59 47.2466 106.19 47.5826C105.806 47.9026 105.526 48.3346 105.35 48.8786C105.19 49.4226 105.11 50.0146 105.11 50.6546V55.9106C105.11 56.4066 105.19 56.7826 105.35 57.0386C105.51 57.2786 105.726 57.4386 105.998 57.5186C106.286 57.5986 106.606 57.6386 106.958 57.6386H107.03V58.6466H102.854L102.854 50.3666C102.854 49.3266 102.662 48.5186 102.278 47.9426C101.91 47.3666 101.262 47.0786 100.334 47.0786C99.6461 47.0786 99.0941 47.2626 98.6781 47.6306C98.2781 47.9826 97.9901 48.4546 97.8141 49.0466C97.6381 49.6386 97.5501 50.2786 97.5501 50.9666V56.0306C97.5501 56.4946 97.6381 56.8466 97.8141 57.0866C98.0061 57.3106 98.2461 57.4626 98.5341 57.5426C98.8381 57.6066 99.1661 57.6386 99.5181 57.6386H99.5901V58.6466H93.1341ZM126.304 58.8866C125.6 58.8866 124.96 58.7506 124.384 58.4786C123.824 58.1906 123.384 57.7666 123.064 57.2066C122.744 56.6306 122.584 55.9106 122.584 55.0466C122.584 53.7666 123.032 52.8226 123.928 52.2146C124.84 51.6066 126.216 51.2706 128.056 51.2066L130.048 51.1346V49.6946C130.048 49.1186 130 48.6146 129.904 48.1826C129.808 47.7346 129.6 47.3826 129.28 47.1266C128.96 46.8706 128.472 46.7426 127.816 46.7426C127.208 46.7426 126.744 46.8546 126.424 47.0786C126.104 47.3026 125.888 47.6146 125.776 48.0146C125.68 48.3986 125.632 48.8466 125.632 49.3586C124.96 49.3586 124.448 49.2466 124.096 49.0226C123.76 48.7826 123.592 48.3906 123.592 47.8466C123.592 47.2866 123.784 46.8386 124.168 46.5026C124.568 46.1666 125.096 45.9266 125.752 45.7826C126.408 45.6226 127.128 45.5426 127.912 45.5426C129.384 45.5426 130.48 45.8546 131.2 46.4786C131.936 47.1026 132.304 48.1746 132.304 49.6946V55.9106C132.304 56.3586 132.352 56.7106 132.448 56.9666C132.544 57.2066 132.704 57.3826 132.928 57.4946C133.152 57.5906 133.44 57.6386 133.792 57.6386H133.864V58.6466H130.624L130.24 56.5826H130.048C129.712 57.0306 129.384 57.4306 129.064 57.7826C128.744 58.1186 128.368 58.3906 127.936 58.5986C127.52 58.7906 126.976 58.8866 126.304 58.8866ZM126.856 57.3986C127.512 57.3986 128.072 57.2626 128.536 56.9906C129.016 56.7186 129.384 56.3346 129.64 55.8386C129.912 55.3266 130.048 54.7346 130.048 54.0626V52.1186L128.512 52.1906C127.6 52.2226 126.88 52.3586 126.352 52.5986C125.84 52.8386 125.472 53.1746 125.248 53.6066C125.024 54.0226 124.912 54.5426 124.912 55.1666C124.912 55.6626 124.984 56.0786 125.128 56.4146C125.272 56.7346 125.488 56.9826 125.776 57.1586C126.064 57.3186 126.424 57.3986 126.856 57.3986ZM136.707 48.0626C136.595 47.7266 136.459 47.4706 136.299 47.2946C136.155 47.1026 135.979 46.9746 135.771 46.9106C135.579 46.8306 135.323 46.7906 135.003 46.7906H134.931V45.7826H140.859V46.7906H140.547C140.067 46.7906 139.707 46.8626 139.467 47.0066C139.227 47.1346 139.107 47.3986 139.107 47.7986C139.107 47.9266 139.123 48.0866 139.155 48.2786C139.203 48.4706 139.251 48.6546 139.299 48.8306L140.427 52.8626C140.539 53.2466 140.643 53.6786 140.739 54.1586C140.851 54.6226 140.955 55.0706 141.051 55.5026C141.147 55.9186 141.219 56.2626 141.267 56.5346H141.339C141.387 56.2626 141.459 55.9346 141.555 55.5506C141.667 55.1666 141.787 54.7586 141.915 54.3266C142.059 53.8946 142.195 53.4866 142.323 53.1026L144.819 45.8546H146.331L148.731 52.9586C148.827 53.2466 148.923 53.5586 149.019 53.8946C149.131 54.2146 149.235 54.5426 149.331 54.8786C149.427 55.2146 149.515 55.5266 149.595 55.8146C149.675 56.1026 149.731 56.3426 149.763 56.5346H149.835C149.883 56.2626 149.947 55.9586 150.027 55.6226C150.123 55.2706 150.227 54.8786 150.339 54.4466C150.467 54.0146 150.611 53.5426 150.771 53.0306L151.971 49.1666C152.035 48.9586 152.083 48.7426 152.115 48.5186C152.163 48.2786 152.187 48.0946 152.187 47.9666C152.187 47.5506 152.051 47.2546 151.779 47.0786C151.523 46.8866 151.131 46.7906 150.603 46.7906H150.435V45.7826H155.571V46.7906H155.259C154.955 46.7906 154.699 46.8386 154.491 46.9346C154.283 47.0146 154.099 47.1906 153.939 47.4626C153.779 47.7346 153.619 48.1346 153.459 48.6626L150.363 58.6466H148.443L145.155 48.6146L141.747 58.6466H139.851L136.707 48.0626ZM160.523 58.8866C159.819 58.8866 159.179 58.7506 158.603 58.4786C158.043 58.1906 157.603 57.7666 157.283 57.2066C156.963 56.6306 156.803 55.9106 156.803 55.0466C156.803 53.7666 157.251 52.8226 158.147 52.2146C159.059 51.6066 160.435 51.2706 162.275 51.2066L164.267 51.1346V49.6946C164.267 49.1186 164.219 48.6146 164.123 48.1826C164.027 47.7346 163.819 47.3826 163.499 47.1266C163.179 46.8706 162.691 46.7426 162.035 46.7426C161.427 46.7426 160.963 46.8546 160.643 47.0786C160.323 47.3026 160.107 47.6146 159.995 48.0146C159.899 48.3986 159.851 48.8466 159.851 49.3586C159.179 49.3586 158.667 49.2466 158.315 49.0226C157.979 48.7826 157.811 48.3906 157.811 47.8466C157.811 47.2866 158.003 46.8386 158.387 46.5026C158.787 46.1666 159.315 45.9266 159.971 45.7826C160.627 45.6226 161.347 45.5426 162.131 45.5426C163.603 45.5426 164.699 45.8546 165.419 46.4786C166.155 47.1026 166.523 48.1746 166.523 49.6946V55.9106C166.523 56.3586 166.571 56.7106 166.667 56.9666C166.763 57.2066 166.923 57.3826 167.147 57.4946C167.371 57.5906 167.659 57.6386 168.011 57.6386H168.083V58.6466H164.843L164.459 56.5826H164.267C163.931 57.0306 163.603 57.4306 163.283 57.7826C162.963 58.1186 162.587 58.3906 162.155 58.5986C161.739 58.7906 161.195 58.8866 160.523 58.8866ZM161.075 57.3986C161.731 57.3986 162.291 57.2626 162.755 56.9906C163.235 56.7186 163.603 56.3346 163.859 55.8386C164.131 55.3266 164.267 54.7346 164.267 54.0626V52.1186L162.731 52.1906C161.819 52.2226 161.099 52.3586 160.571 52.5986C160.059 52.8386 159.691 53.1746 159.467 53.6066C159.243 54.0226 159.131 54.5426 159.131 55.1666C159.131 55.6626 159.203 56.0786 159.347 56.4146C159.491 56.7346 159.707 56.9826 159.995 57.1586C160.283 57.3186 160.643 57.3986 161.075 57.3986ZM169.569 63.2786C170.385 63.2786 171.089 63.1586 171.681 62.9186C172.273 62.6786 172.777 62.3426 173.193 61.9106C173.609 61.4946 173.961 60.9986 174.249 60.4226C174.537 59.8466 174.777 59.2226 174.969 58.5506L170.529 48.0626C170.385 47.7266 170.241 47.4706 170.097 47.2946C169.953 47.1026 169.785 46.9746 169.593 46.9106C169.401 46.8306 169.145 46.7906 168.825 46.7906H168.753V45.7826H174.513V46.7906H174.441C173.961 46.7906 173.601 46.8866 173.361 47.0786C173.121 47.2546 173.001 47.5426 173.001 47.9426C173.001 48.0706 173.017 48.2066 173.049 48.3506C173.081 48.4946 173.129 48.6546 173.193 48.8306L174.945 53.1026C175.057 53.3746 175.169 53.6706 175.281 53.9906C175.409 54.3106 175.529 54.6306 175.641 54.9506C175.753 55.2706 175.849 55.5746 175.929 55.8626C176.009 56.1506 176.065 56.3906 176.097 56.5826C176.209 56.1186 176.353 55.6386 176.529 55.1426C176.721 54.6466 176.897 54.1586 177.057 53.6786L178.665 48.9986C178.745 48.8066 178.801 48.6226 178.833 48.4466C178.865 48.2546 178.881 48.0946 178.881 47.9666C178.881 47.5506 178.745 47.2546 178.473 47.0786C178.217 46.8866 177.825 46.7906 177.297 46.7906H177.225V45.7826H182.217V46.7906H182.145C181.841 46.7906 181.585 46.8386 181.377 46.9346C181.169 47.0306 180.985 47.2146 180.825 47.4866C180.681 47.7586 180.513 48.1506 180.321 48.6626L176.673 58.7426C176.257 59.9106 175.857 60.8626 175.473 61.5986C175.089 62.3346 174.657 62.9026 174.177 63.3026C173.713 63.7186 173.129 64.0066 172.425 64.1666C171.721 64.3266 170.841 64.4066 169.785 64.4066H169.569V63.2786ZM183.071 58.8146C182.655 58.8146 182.295 58.6946 181.991 58.4546C181.703 58.2146 181.559 57.7906 181.559 57.1826C181.559 56.5586 181.703 56.1346 181.991 55.9106C182.295 55.6706 182.655 55.5506 183.071 55.5506C183.487 55.5506 183.839 55.6706 184.127 55.9106C184.431 56.1346 184.583 56.5586 184.583 57.1826C184.583 57.7906 184.431 58.2146 184.127 58.4546C183.839 58.6946 183.487 58.8146 183.071 58.8146Z" fill="white"/>
</svg>
