<svg width="172" height="65" viewBox="0 0 172 65" fill="none" xmlns="http://www.w3.org/2000/svg">
<path d="M18.2529 18.3162L18.2529 17.3082H18.8049C19.1569 17.3082 19.4769 17.2762 19.7649 17.2122C20.0689 17.1322 20.3089 16.9802 20.4849 16.7562C20.6769 16.5162 20.7729 16.1642 20.7729 15.7002V2.38016H18.4689C18.0049 2.38016 17.6369 2.47616 17.3649 2.66816C17.0929 2.84416 16.8929 3.08416 16.7649 3.38816C16.6369 3.67616 16.5489 3.99616 16.5009 4.34816L16.3809 5.38016H15.1329L15.2529 1.18016L28.7649 1.18016L28.8849 5.38016H27.6369L27.5169 4.34816C27.4849 3.99616 27.3969 3.67616 27.2529 3.38816C27.1249 3.08416 26.9249 2.84416 26.6529 2.66816C26.3809 2.47616 26.0049 2.38016 25.5249 2.38016H23.1969V15.5802C23.1969 16.0762 23.2849 16.4522 23.4609 16.7082C23.6369 16.9482 23.8769 17.1082 24.1809 17.1882C24.4849 17.2682 24.8129 17.3082 25.1649 17.3082H25.7169L25.7169 18.3162H18.2529ZM29.8036 18.3162L29.8036 17.3082H29.9956C30.3636 17.3082 30.6916 17.2682 30.9796 17.1882C31.2836 17.1082 31.5236 16.9482 31.6996 16.7082C31.8756 16.4522 31.9636 16.0762 31.9636 15.5802L31.9636 2.71616C31.9636 2.23616 31.8676 1.88416 31.6756 1.66016C31.4996 1.42016 31.2596 1.26816 30.9556 1.20416C30.6676 1.12416 30.3476 1.08416 29.9956 1.08416H29.8036V0.0761609H34.2196V5.35616C34.2196 5.64416 34.2116 5.94816 34.1956 6.26816C34.1796 6.57216 34.1636 6.83616 34.1476 7.06016C34.1316 7.28416 34.1236 7.39616 34.1236 7.39616H34.2436C34.4836 6.91616 34.7716 6.51616 35.1076 6.19616C35.4596 5.86016 35.8516 5.61216 36.2836 5.45216C36.7316 5.29216 37.2276 5.21216 37.7716 5.21216C39.1476 5.21216 40.1956 5.58816 40.9156 6.34016C41.6516 7.07616 42.0196 8.26816 42.0196 9.91616V15.5802C42.0196 16.0762 42.0996 16.4522 42.2596 16.7082C42.4196 16.9482 42.6356 17.1082 42.9076 17.1882C43.1956 17.2682 43.5156 17.3082 43.8676 17.3082H43.9396V18.3162H39.7636V10.0362C39.7636 8.99616 39.5636 8.18816 39.1636 7.61216C38.7796 7.03616 38.0996 6.74816 37.1236 6.74816C36.4676 6.74816 35.9236 6.90816 35.4916 7.22816C35.0596 7.54816 34.7396 8.00416 34.5316 8.59616C34.3236 9.17216 34.2196 9.85216 34.2196 10.6362V15.7002C34.2196 16.1642 34.3076 16.5162 34.4836 16.7562C34.6756 16.9802 34.9156 17.1322 35.2036 17.2122C35.5076 17.2762 35.8356 17.3082 36.1876 17.3082H36.2596V18.3162L29.8036 18.3162ZM51.494 18.5562C49.75 18.5562 48.382 17.9802 47.39 16.8282C46.414 15.6762 45.926 14.0602 45.926 11.9802C45.926 9.74016 46.39 8.05216 47.318 6.91616C48.246 5.78016 49.558 5.21216 51.254 5.21216C52.806 5.21216 54.022 5.69216 54.902 6.65216C55.798 7.61216 56.246 9.04416 56.246 10.9482V12.0522H48.254C48.286 13.2202 48.438 14.1722 48.71 14.9082C48.982 15.6442 49.374 16.1882 49.886 16.5402C50.414 16.8762 51.062 17.0442 51.83 17.0442C52.39 17.0442 52.886 16.9642 53.318 16.8042C53.766 16.6442 54.15 16.4362 54.47 16.1802C54.806 15.9242 55.07 15.6522 55.262 15.3642C55.374 15.4122 55.478 15.5082 55.574 15.6522C55.67 15.7962 55.718 15.9722 55.718 16.1802C55.718 16.5002 55.566 16.8442 55.262 17.2122C54.958 17.5802 54.494 17.9002 53.87 18.1722C53.246 18.4282 52.454 18.5562 51.494 18.5562ZM53.822 10.7562C53.822 9.90816 53.734 9.16416 53.558 8.52416C53.398 7.88416 53.126 7.38816 52.742 7.03616C52.358 6.68416 51.846 6.50816 51.206 6.50816C50.614 6.50816 50.11 6.67616 49.694 7.01216C49.294 7.33216 48.974 7.80416 48.734 8.42816C48.51 9.05216 48.366 9.82816 48.302 10.7562H53.822ZM68.7241 18.5562C67.9241 18.5562 67.2281 18.4602 66.6361 18.2682C66.0441 18.0762 65.5801 17.7962 65.2441 17.4282C64.9241 17.0442 64.7641 16.5722 64.7641 16.0122C64.7641 15.5802 64.8521 15.2442 65.0281 15.0042C65.2041 14.7642 65.4041 14.5962 65.6281 14.5002C65.8681 14.4042 66.0841 14.3562 66.2761 14.3562C66.2761 14.9162 66.3561 15.4282 66.5161 15.8922C66.6761 16.3562 66.9481 16.7242 67.3321 16.9962C67.7161 17.2682 68.2281 17.4042 68.8681 17.4042C69.7161 17.4042 70.3641 17.2042 70.8121 16.8042C71.2761 16.3882 71.5081 15.8602 71.5081 15.2202C71.5081 14.8202 71.4201 14.4922 71.2441 14.2362C71.0841 13.9802 70.7881 13.7322 70.3561 13.4922C69.9401 13.2362 69.3401 12.9402 68.5561 12.6042C67.7401 12.2362 67.0601 11.8842 66.5161 11.5482C65.9881 11.1962 65.5881 10.7962 65.3161 10.3482C65.0601 9.88416 64.9321 9.30816 64.9321 8.62016C64.9321 7.53216 65.3401 6.70016 66.1561 6.12416C66.9881 5.53216 68.0841 5.23616 69.4441 5.23616C70.2121 5.23616 70.8521 5.34016 71.3641 5.54816C71.8921 5.74016 72.2841 6.00416 72.5401 6.34016C72.8121 6.67616 72.9481 7.04416 72.9481 7.44416C72.9481 7.87616 72.7961 8.22816 72.4921 8.50016C72.2041 8.75616 71.7801 8.88416 71.2201 8.88416C71.2201 8.08416 71.0521 7.46016 70.7161 7.01216C70.3801 6.56416 69.8601 6.34016 69.1561 6.34016C68.6121 6.34016 68.1721 6.42016 67.8361 6.58016C67.5001 6.74016 67.2521 6.96416 67.0921 7.25216C66.9481 7.54016 66.8761 7.87616 66.8761 8.26016C66.8761 8.66016 66.9721 8.99616 67.1641 9.26816C67.3721 9.54016 67.6921 9.79616 68.1241 10.0362C68.5721 10.2602 69.1481 10.5162 69.8521 10.8042C70.7001 11.1562 71.3881 11.5082 71.9161 11.8602C72.4441 12.2122 72.8281 12.6202 73.0681 13.0842C73.3241 13.5482 73.4521 14.1162 73.4521 14.7882C73.4521 16.0362 73.0201 16.9802 72.1561 17.6202C71.2921 18.2442 70.1481 18.5562 68.7241 18.5562ZM81.4002 18.5562C79.6562 18.5562 78.2882 17.9802 77.2962 16.8282C76.3202 15.6762 75.8322 14.0602 75.8322 11.9802C75.8322 9.74016 76.2962 8.05216 77.2242 6.91616C78.1522 5.78016 79.4642 5.21216 81.1602 5.21216C82.7122 5.21216 83.9282 5.69216 84.8082 6.65216C85.7042 7.61216 86.1522 9.04416 86.1522 10.9482V12.0522H78.1602C78.1922 13.2202 78.3442 14.1722 78.6162 14.9082C78.8882 15.6442 79.2802 16.1882 79.7922 16.5402C80.3202 16.8762 80.9682 17.0442 81.7362 17.0442C82.2962 17.0442 82.7922 16.9642 83.2242 16.8042C83.6722 16.6442 84.0562 16.4362 84.3762 16.1802C84.7122 15.9242 84.9762 15.6522 85.1682 15.3642C85.2802 15.4122 85.3842 15.5082 85.4802 15.6522C85.5762 15.7962 85.6242 15.9722 85.6242 16.1802C85.6242 16.5002 85.4722 16.8442 85.1682 17.2122C84.8642 17.5802 84.4002 17.9002 83.7762 18.1722C83.1522 18.4282 82.3602 18.5562 81.4002 18.5562ZM83.7282 10.7562C83.7282 9.90816 83.6402 9.16416 83.4642 8.52416C83.3042 7.88416 83.0322 7.38816 82.6482 7.03616C82.2642 6.68416 81.7522 6.50816 81.1122 6.50816C80.5202 6.50816 80.0162 6.67616 79.6002 7.01216C79.2002 7.33216 78.8802 7.80416 78.6402 8.42816C78.4162 9.05216 78.2722 9.82816 78.2082 10.7562H83.7282ZM92.276 18.5562C91.572 18.5562 90.932 18.4202 90.356 18.1482C89.796 17.8602 89.356 17.4362 89.036 16.8762C88.716 16.3002 88.556 15.5802 88.556 14.7162C88.556 13.4362 89.004 12.4922 89.9 11.8842C90.812 11.2762 92.188 10.9402 94.028 10.8762L96.02 10.8042V9.36416C96.02 8.78816 95.972 8.28416 95.876 7.85216C95.78 7.40416 95.572 7.05216 95.252 6.79616C94.932 6.54016 94.444 6.41216 93.788 6.41216C93.18 6.41216 92.716 6.52416 92.396 6.74816C92.076 6.97216 91.86 7.28416 91.748 7.68416C91.652 8.06816 91.604 8.51616 91.604 9.02816C90.932 9.02816 90.42 8.91616 90.068 8.69216C89.732 8.45216 89.564 8.06016 89.564 7.51616C89.564 6.95616 89.756 6.50816 90.14 6.17216C90.54 5.83616 91.068 5.59616 91.724 5.45216C92.38 5.29216 93.1 5.21216 93.884 5.21216C95.356 5.21216 96.452 5.52416 97.172 6.14816C97.908 6.77216 98.276 7.84416 98.276 9.36416V15.5802C98.276 16.0282 98.324 16.3802 98.42 16.6362C98.516 16.8762 98.676 17.0522 98.9 17.1642C99.124 17.2602 99.412 17.3082 99.764 17.3082H99.836V18.3162H96.596L96.212 16.2522H96.02C95.684 16.7002 95.356 17.1002 95.036 17.4522C94.716 17.7882 94.34 18.0602 93.908 18.2682C93.492 18.4602 92.948 18.5562 92.276 18.5562ZM92.828 17.0682C93.484 17.0682 94.044 16.9322 94.508 16.6602C94.988 16.3882 95.356 16.0042 95.612 15.5082C95.884 14.9962 96.02 14.4042 96.02 13.7322V11.7882L94.484 11.8602C93.572 11.8922 92.852 12.0282 92.324 12.2682C91.812 12.5082 91.444 12.8442 91.22 13.2762C90.996 13.6922 90.884 14.2122 90.884 14.8362C90.884 15.3322 90.956 15.7482 91.1 16.0842C91.244 16.4042 91.46 16.6522 91.748 16.8282C92.036 16.9882 92.396 17.0682 92.828 17.0682ZM108.914 7.73216C108.802 7.39616 108.666 7.14016 108.506 6.96416C108.362 6.77216 108.186 6.64416 107.978 6.58016C107.786 6.50016 107.53 6.46016 107.21 6.46016H107.138V5.45216L113.066 5.45216V6.46016H112.754C112.274 6.46016 111.914 6.53216 111.674 6.67616C111.434 6.80416 111.314 7.06816 111.314 7.46816C111.314 7.59616 111.33 7.75616 111.362 7.94816C111.41 8.14016 111.458 8.32416 111.506 8.50016L112.634 12.5322C112.746 12.9162 112.85 13.3482 112.946 13.8282C113.058 14.2922 113.162 14.7402 113.258 15.1722C113.354 15.5882 113.426 15.9322 113.474 16.2042H113.546C113.594 15.9322 113.666 15.6042 113.762 15.2202C113.874 14.8362 113.994 14.4282 114.122 13.9962C114.266 13.5642 114.402 13.1562 114.53 12.7722L117.026 5.52416H118.538L120.938 12.6282C121.034 12.9162 121.13 13.2282 121.226 13.5642C121.338 13.8842 121.442 14.2122 121.538 14.5482C121.634 14.8842 121.722 15.1962 121.802 15.4842C121.882 15.7722 121.938 16.0122 121.97 16.2042H122.042C122.09 15.9322 122.154 15.6282 122.234 15.2922C122.33 14.9402 122.434 14.5482 122.546 14.1162C122.674 13.6842 122.818 13.2122 122.978 12.7002L124.178 8.83616C124.242 8.62816 124.29 8.41216 124.322 8.18816C124.37 7.94816 124.394 7.76416 124.394 7.63616C124.394 7.22016 124.258 6.92416 123.986 6.74816C123.73 6.55616 123.338 6.46016 122.81 6.46016H122.642V5.45216H127.778V6.46016H127.466C127.162 6.46016 126.906 6.50816 126.698 6.60416C126.49 6.68416 126.306 6.86016 126.146 7.13216C125.986 7.40416 125.826 7.80416 125.666 8.33216L122.57 18.3162H120.65L117.362 8.28416L113.954 18.3162L112.058 18.3162L108.914 7.73216ZM132.729 18.5562C132.025 18.5562 131.385 18.4202 130.809 18.1482C130.249 17.8602 129.809 17.4362 129.489 16.8762C129.169 16.3002 129.009 15.5802 129.009 14.7162C129.009 13.4362 129.457 12.4922 130.353 11.8842C131.265 11.2762 132.641 10.9402 134.481 10.8762L136.473 10.8042V9.36416C136.473 8.78816 136.425 8.28416 136.329 7.85216C136.233 7.40416 136.025 7.05216 135.705 6.79616C135.385 6.54016 134.897 6.41216 134.241 6.41216C133.633 6.41216 133.169 6.52416 132.849 6.74816C132.529 6.97216 132.313 7.28416 132.201 7.68416C132.105 8.06816 132.057 8.51616 132.057 9.02816C131.385 9.02816 130.873 8.91616 130.521 8.69216C130.185 8.45216 130.017 8.06016 130.017 7.51616C130.017 6.95616 130.209 6.50816 130.593 6.17216C130.993 5.83616 131.521 5.59616 132.177 5.45216C132.833 5.29216 133.553 5.21216 134.337 5.21216C135.809 5.21216 136.905 5.52416 137.625 6.14816C138.361 6.77216 138.729 7.84416 138.729 9.36416V15.5802C138.729 16.0282 138.777 16.3802 138.873 16.6362C138.969 16.8762 139.129 17.0522 139.353 17.1642C139.577 17.2602 139.865 17.3082 140.217 17.3082H140.289V18.3162L137.049 18.3162L136.665 16.2522H136.473C136.137 16.7002 135.809 17.1002 135.489 17.4522C135.169 17.7882 134.793 18.0602 134.361 18.2682C133.945 18.4602 133.401 18.5562 132.729 18.5562ZM133.281 17.0682C133.937 17.0682 134.497 16.9322 134.961 16.6602C135.441 16.3882 135.809 16.0042 136.065 15.5082C136.337 14.9962 136.473 14.4042 136.473 13.7322V11.7882L134.937 11.8602C134.025 11.8922 133.305 12.0282 132.777 12.2682C132.265 12.5082 131.897 12.8442 131.673 13.2762C131.449 13.6922 131.337 14.2122 131.337 14.8362C131.337 15.3322 131.409 15.7482 131.553 16.0842C131.697 16.4042 131.913 16.6522 132.201 16.8282C132.489 16.9882 132.849 17.0682 133.281 17.0682ZM146.373 18.5562C145.573 18.5562 144.877 18.4602 144.285 18.2682C143.693 18.0762 143.229 17.7962 142.893 17.4282C142.573 17.0442 142.413 16.5722 142.413 16.0122C142.413 15.5802 142.501 15.2442 142.677 15.0042C142.853 14.7642 143.053 14.5962 143.277 14.5002C143.517 14.4042 143.733 14.3562 143.925 14.3562C143.925 14.9162 144.005 15.4282 144.165 15.8922C144.325 16.3562 144.597 16.7242 144.981 16.9962C145.365 17.2682 145.877 17.4042 146.517 17.4042C147.365 17.4042 148.013 17.2042 148.461 16.8042C148.925 16.3882 149.157 15.8602 149.157 15.2202C149.157 14.8202 149.069 14.4922 148.893 14.2362C148.733 13.9802 148.437 13.7322 148.005 13.4922C147.589 13.2362 146.989 12.9402 146.205 12.6042C145.389 12.2362 144.709 11.8842 144.165 11.5482C143.637 11.1962 143.237 10.7962 142.965 10.3482C142.709 9.88416 142.581 9.30816 142.581 8.62016C142.581 7.53216 142.989 6.70016 143.805 6.12416C144.637 5.53216 145.733 5.23616 147.093 5.23616C147.861 5.23616 148.501 5.34016 149.013 5.54816C149.541 5.74016 149.933 6.00416 150.189 6.34016C150.461 6.67616 150.597 7.04416 150.597 7.44416C150.597 7.87616 150.445 8.22816 150.141 8.50016C149.853 8.75616 149.429 8.88416 148.869 8.88416C148.869 8.08416 148.701 7.46016 148.365 7.01216C148.029 6.56416 147.509 6.34016 146.805 6.34016C146.261 6.34016 145.821 6.42016 145.485 6.58016C145.149 6.74016 144.901 6.96416 144.741 7.25216C144.597 7.54016 144.525 7.87616 144.525 8.26016C144.525 8.66016 144.621 8.99616 144.813 9.26816C145.021 9.54016 145.341 9.79616 145.773 10.0362C146.221 10.2602 146.797 10.5162 147.501 10.8042C148.349 11.1562 149.037 11.5082 149.565 11.8602C150.093 12.2122 150.477 12.6202 150.717 13.0842C150.973 13.5482 151.101 14.1162 151.101 14.7882C151.101 16.0362 150.669 16.9802 149.805 17.6202C148.941 18.2442 147.797 18.5562 146.373 18.5562ZM5.00036 58.3162V57.3082H5.67236C6.04036 57.3082 6.36836 57.2682 6.65636 57.1882C6.96036 57.1082 7.20036 56.9482 7.37636 56.7082C7.55236 56.4522 7.64036 56.0762 7.64036 55.5802V53.6122H0.248363L0.248363 52.6282L7.66436 41.1802H9.94436L9.94436 52.2682H12.9204V53.6122H9.94436V55.5802C9.94436 56.0762 10.0324 56.4522 10.2084 56.7082C10.3844 56.9482 10.6244 57.1082 10.9284 57.1882C11.2324 57.2682 11.5604 57.3082 11.9124 57.3082H12.2244V58.3162H5.00036ZM1.97636 52.2682H7.64036L7.64036 47.8282C7.64036 47.4762 7.64036 47.0922 7.64036 46.6762C7.65636 46.2602 7.66436 45.8282 7.66436 45.3802C7.68036 44.9322 7.69636 44.4922 7.71236 44.0602C7.74436 43.6282 7.77636 43.2282 7.80836 42.8602C7.72836 43.0202 7.60036 43.2602 7.42436 43.5802C7.24836 43.9002 7.04836 44.2522 6.82436 44.6362C6.60036 45.0042 6.38436 45.3642 6.17636 45.7162C5.96836 46.0522 5.79236 46.3322 5.64836 46.5562L1.97636 52.2682ZM19.1026 58.5562C17.9186 58.5562 16.9986 58.4282 16.3426 58.1722C15.6866 57.9162 15.2226 57.6042 14.9506 57.2362C14.6946 56.8522 14.5666 56.4842 14.5666 56.1322C14.5666 55.6842 14.6866 55.3402 14.9266 55.1002C15.1826 54.8442 15.5666 54.7162 16.0786 54.7162C16.0786 55.1642 16.1826 55.5722 16.3906 55.9402C16.6146 56.3082 16.9426 56.6042 17.3746 56.8282C17.8066 57.0362 18.3426 57.1402 18.9826 57.1402C19.6386 57.1402 20.2226 57.0122 20.7346 56.7562C21.2626 56.5002 21.6706 56.0762 21.9586 55.4842C22.2626 54.8922 22.4146 54.0922 22.4146 53.0842C22.4146 52.2362 22.2626 51.5402 21.9586 50.9962C21.6546 50.4362 21.2306 50.0202 20.6866 49.7482C20.1426 49.4762 19.5026 49.3402 18.7666 49.3402C18.2226 49.3402 17.7666 49.3642 17.3986 49.4122C17.0306 49.4602 16.7266 49.5242 16.4866 49.6042C16.2466 49.6842 16.0226 49.7722 15.8146 49.8682L15.2386 49.7002L16.0066 41.1802L24.0226 41.1802L24.1426 44.8042L23.1346 44.8042L23.0386 44.0842C23.0066 43.8602 22.9506 43.6762 22.8706 43.5322C22.8066 43.3882 22.6866 43.2842 22.5106 43.2202C22.3346 43.1402 22.0786 43.1002 21.7426 43.1002H17.0866L16.6306 48.4042C16.7906 48.3402 16.9986 48.2842 17.2546 48.2362C17.5106 48.1722 17.8226 48.1242 18.1906 48.0922C18.5586 48.0442 18.9746 48.0202 19.4386 48.0202C20.4786 48.0202 21.4066 48.2122 22.2226 48.5962C23.0546 48.9642 23.7106 49.5242 24.1906 50.2762C24.6706 51.0122 24.9106 51.9482 24.9106 53.0842C24.9106 53.7402 24.8226 54.3482 24.6466 54.9082C24.4866 55.4682 24.2466 55.9722 23.9266 56.4202C23.6066 56.8682 23.2066 57.2522 22.7266 57.5722C22.2626 57.8922 21.7266 58.1402 21.1186 58.3162C20.5106 58.4762 19.8386 58.5562 19.1026 58.5562ZM33.4872 52.6762V50.8762H39.7272V52.6762H33.4872ZM52.4073 58.5562C51.2233 58.5562 50.3033 58.4282 49.6473 58.1722C48.9913 57.9162 48.5273 57.6042 48.2553 57.2362C47.9993 56.8522 47.8713 56.4842 47.8713 56.1322C47.8713 55.6842 47.9913 55.3402 48.2313 55.1002C48.4873 54.8442 48.8713 54.7162 49.3833 54.7162C49.3833 55.1642 49.4873 55.5722 49.6953 55.9402C49.9193 56.3082 50.2473 56.6042 50.6793 56.8282C51.1113 57.0362 51.6473 57.1402 52.2873 57.1402C52.9433 57.1402 53.5273 57.0122 54.0393 56.7562C54.5673 56.5002 54.9753 56.0762 55.2633 55.4842C55.5673 54.8922 55.7193 54.0922 55.7193 53.0842C55.7193 52.2362 55.5673 51.5402 55.2633 50.9962C54.9593 50.4362 54.5353 50.0202 53.9913 49.7482C53.4473 49.4762 52.8073 49.3402 52.0713 49.3402C51.5273 49.3402 51.0713 49.3642 50.7033 49.4122C50.3353 49.4602 50.0313 49.5242 49.7913 49.6042C49.5513 49.6842 49.3273 49.7722 49.1193 49.8682L48.5433 49.7002L49.3113 41.1802H57.3273L57.4473 44.8042H56.4393L56.3433 44.0842C56.3113 43.8602 56.2553 43.6762 56.1753 43.5322C56.1113 43.3882 55.9913 43.2842 55.8153 43.2202C55.6393 43.1402 55.3833 43.1002 55.0473 43.1002H50.3913L49.9353 48.4042C50.0953 48.3402 50.3033 48.2842 50.5593 48.2362C50.8153 48.1722 51.1273 48.1242 51.4953 48.0922C51.8633 48.0442 52.2793 48.0202 52.7433 48.0202C53.7833 48.0202 54.7113 48.2122 55.5273 48.5962C56.3593 48.9642 57.0153 49.5242 57.4953 50.2762C57.9753 51.0122 58.2153 51.9482 58.2153 53.0842C58.2153 53.7402 58.1273 54.3482 57.9513 54.9082C57.7913 55.4682 57.5513 55.9722 57.2313 56.4202C56.9113 56.8682 56.5113 57.2522 56.0313 57.5722C55.5673 57.8922 55.0313 58.1402 54.4233 58.3162C53.8153 58.4762 53.1433 58.5562 52.4073 58.5562ZM66.6776 58.5562C65.3656 58.5562 64.2936 58.1882 63.4616 57.4522C62.6296 56.7162 62.0136 55.6842 61.6136 54.3562C61.2296 53.0282 61.0376 51.4762 61.0376 49.7002C61.0376 47.9242 61.2296 46.3802 61.6136 45.0682C62.0136 43.7562 62.6296 42.7402 63.4616 42.0202C64.2936 41.3002 65.3736 40.9402 66.7016 40.9402C67.9496 40.9402 68.9896 41.3002 69.8216 42.0202C70.6536 42.7402 71.2696 43.7642 71.6696 45.0922C72.0856 46.4042 72.2936 47.9482 72.2936 49.7242C72.2936 51.5002 72.0856 53.0522 71.6696 54.3802C71.2536 55.6922 70.6296 56.7162 69.7976 57.4522C68.9816 58.1882 67.9416 58.5562 66.6776 58.5562ZM66.6776 57.2602C67.2536 57.2602 67.7416 57.0922 68.1416 56.7562C68.5416 56.4202 68.8616 55.9322 69.1016 55.2922C69.3416 54.6362 69.5176 53.8442 69.6296 52.9162C69.7416 51.9722 69.7976 50.9082 69.7976 49.7242C69.7976 48.5402 69.7416 47.4842 69.6296 46.5562C69.5336 45.6282 69.3576 44.8442 69.1016 44.2042C68.8616 43.5642 68.5416 43.0762 68.1416 42.7402C67.7576 42.4042 67.2776 42.2362 66.7016 42.2362C66.1096 42.2362 65.6136 42.4042 65.2136 42.7402C64.8136 43.0762 64.4856 43.5642 64.2296 44.2042C63.9896 44.8442 63.8136 45.6282 63.7016 46.5562C63.5896 47.4842 63.5336 48.5402 63.5336 49.7242C63.5336 50.9082 63.5896 51.9722 63.7016 52.9162C63.8136 53.8442 63.9896 54.6362 64.2296 55.2922C64.4696 55.9322 64.7896 56.4202 65.1896 56.7562C65.6056 57.0922 66.1016 57.2602 66.6776 57.2602ZM80.2702 58.3162V57.3082H80.5822C80.9502 57.3082 81.2702 57.2682 81.5422 57.1882C81.8142 57.1082 82.0302 56.9482 82.1902 56.7082C82.3502 56.4522 82.4302 56.0762 82.4302 55.5802V48.0922C82.4302 47.6122 82.3502 47.2602 82.1902 47.0362C82.0302 46.7962 81.8062 46.6442 81.5182 46.5802C81.2462 46.5002 80.9342 46.4602 80.5822 46.4602H80.5102V45.4522H84.2782L84.5902 47.3962H84.7102C85.0302 46.7882 85.3742 46.3322 85.7422 46.0282C86.1102 45.7082 86.5102 45.4922 86.9422 45.3802C87.3742 45.2682 87.8382 45.2122 88.3342 45.2122C88.8462 45.2122 89.3262 45.2842 89.7742 45.4282C90.2382 45.5722 90.6462 45.8042 90.9982 46.1242C91.3502 46.4282 91.6222 46.8522 91.8142 47.3962H92.0062C92.3262 46.7882 92.6782 46.3322 93.0622 46.0282C93.4622 45.7082 93.8862 45.4922 94.3342 45.3802C94.7982 45.2682 95.2782 45.2122 95.7742 45.2122C97.0062 45.2122 97.9662 45.5882 98.6542 46.3402C99.3422 47.0762 99.6862 48.2682 99.6862 49.9162V55.5802C99.6862 56.0762 99.7662 56.4522 99.9262 56.7082C100.086 56.9482 100.302 57.1082 100.574 57.1882C100.862 57.2682 101.182 57.3082 101.534 57.3082H101.606V58.3162H97.4302V50.0362C97.4302 48.9962 97.2382 48.1882 96.8542 47.6122C96.4862 47.0362 95.8382 46.7482 94.9102 46.7482C94.2542 46.7482 93.7262 46.9162 93.3262 47.2522C92.9422 47.5722 92.6622 48.0042 92.4862 48.5482C92.3262 49.0922 92.2462 49.6842 92.2462 50.3242V55.5802C92.2462 56.0762 92.3262 56.4522 92.4862 56.7082C92.6462 56.9482 92.8622 57.1082 93.1342 57.1882C93.4222 57.2682 93.7422 57.3082 94.0942 57.3082H94.1662V58.3162H89.9902V50.0362C89.9902 48.9962 89.7982 48.1882 89.4142 47.6122C89.0462 47.0362 88.3982 46.7482 87.4702 46.7482C86.7822 46.7482 86.2302 46.9322 85.8142 47.3002C85.4142 47.6522 85.1262 48.1242 84.9502 48.7162C84.7742 49.3082 84.6862 49.9482 84.6862 50.6362V55.7002C84.6862 56.1642 84.7742 56.5162 84.9502 56.7562C85.1422 56.9802 85.3822 57.1322 85.6702 57.2122C85.9742 57.2762 86.3022 57.3082 86.6542 57.3082H86.7262V58.3162H80.2702ZM113.44 58.5562C112.736 58.5562 112.096 58.4202 111.52 58.1482C110.96 57.8602 110.52 57.4362 110.2 56.8762C109.88 56.3002 109.72 55.5802 109.72 54.7162C109.72 53.4362 110.168 52.4922 111.064 51.8842C111.976 51.2762 113.352 50.9402 115.192 50.8762L117.184 50.8042V49.3642C117.184 48.7882 117.136 48.2842 117.04 47.8522C116.944 47.4042 116.736 47.0522 116.416 46.7962C116.096 46.5402 115.608 46.4122 114.952 46.4122C114.344 46.4122 113.88 46.5242 113.56 46.7482C113.24 46.9722 113.024 47.2842 112.912 47.6842C112.816 48.0682 112.768 48.5162 112.768 49.0282C112.096 49.0282 111.584 48.9162 111.232 48.6922C110.896 48.4522 110.728 48.0602 110.728 47.5162C110.728 46.9562 110.92 46.5082 111.304 46.1722C111.704 45.8362 112.232 45.5962 112.888 45.4522C113.544 45.2922 114.264 45.2122 115.048 45.2122C116.52 45.2122 117.616 45.5242 118.336 46.1482C119.072 46.7722 119.44 47.8442 119.44 49.3642V55.5802C119.44 56.0282 119.488 56.3802 119.584 56.6362C119.68 56.8762 119.84 57.0522 120.064 57.1642C120.288 57.2602 120.576 57.3082 120.928 57.3082H121V58.3162H117.76L117.376 56.2522H117.184C116.848 56.7002 116.52 57.1002 116.2 57.4522C115.88 57.7882 115.504 58.0602 115.072 58.2682C114.656 58.4602 114.112 58.5562 113.44 58.5562ZM113.992 57.0682C114.648 57.0682 115.208 56.9322 115.672 56.6602C116.152 56.3882 116.52 56.0042 116.776 55.5082C117.048 54.9962 117.184 54.4042 117.184 53.7322V51.7882L115.648 51.8602C114.736 51.8922 114.016 52.0282 113.488 52.2682C112.976 52.5082 112.608 52.8442 112.384 53.2762C112.16 53.6922 112.048 54.2122 112.048 54.8362C112.048 55.3322 112.12 55.7482 112.264 56.0842C112.408 56.4042 112.624 56.6522 112.912 56.8282C113.2 56.9882 113.56 57.0682 113.992 57.0682ZM123.843 47.7322C123.731 47.3962 123.595 47.1402 123.435 46.9642C123.291 46.7722 123.115 46.6442 122.907 46.5802C122.715 46.5002 122.459 46.4602 122.139 46.4602H122.067V45.4522L127.995 45.4522V46.4602H127.683C127.203 46.4602 126.843 46.5322 126.603 46.6762C126.363 46.8042 126.243 47.0682 126.243 47.4682C126.243 47.5962 126.259 47.7562 126.291 47.9482C126.339 48.1402 126.387 48.3242 126.435 48.5002L127.563 52.5322C127.675 52.9162 127.779 53.3482 127.875 53.8282C127.987 54.2922 128.091 54.7402 128.187 55.1722C128.283 55.5882 128.355 55.9322 128.403 56.2042H128.475C128.523 55.9322 128.595 55.6042 128.691 55.2202C128.803 54.8362 128.923 54.4282 129.051 53.9962C129.195 53.5642 129.331 53.1562 129.459 52.7722L131.955 45.5242H133.467L135.867 52.6282C135.963 52.9162 136.059 53.2282 136.155 53.5642C136.267 53.8842 136.371 54.2122 136.467 54.5482C136.563 54.8842 136.651 55.1962 136.731 55.4842C136.811 55.7722 136.867 56.0122 136.899 56.2042H136.971C137.019 55.9322 137.083 55.6282 137.163 55.2922C137.259 54.9402 137.363 54.5482 137.475 54.1162C137.603 53.6842 137.747 53.2122 137.907 52.7002L139.107 48.8362C139.171 48.6282 139.219 48.4122 139.251 48.1882C139.299 47.9482 139.323 47.7642 139.323 47.6362C139.323 47.2202 139.187 46.9242 138.915 46.7482C138.659 46.5562 138.267 46.4602 137.739 46.4602H137.571V45.4522H142.707V46.4602H142.395C142.091 46.4602 141.835 46.5082 141.627 46.6042C141.419 46.6842 141.235 46.8602 141.075 47.1322C140.915 47.4042 140.755 47.8042 140.595 48.3322L137.499 58.3162H135.579L132.291 48.2842L128.883 58.3162H126.987L123.843 47.7322ZM147.659 58.5562C146.955 58.5562 146.315 58.4202 145.739 58.1482C145.179 57.8602 144.739 57.4362 144.419 56.8762C144.099 56.3002 143.939 55.5802 143.939 54.7162C143.939 53.4362 144.387 52.4922 145.283 51.8842C146.195 51.2762 147.571 50.9402 149.411 50.8762L151.403 50.8042V49.3642C151.403 48.7882 151.355 48.2842 151.259 47.8522C151.163 47.4042 150.955 47.0522 150.635 46.7962C150.315 46.5402 149.827 46.4122 149.171 46.4122C148.563 46.4122 148.099 46.5242 147.779 46.7482C147.459 46.9722 147.243 47.2842 147.131 47.6842C147.035 48.0682 146.987 48.5162 146.987 49.0282C146.315 49.0282 145.803 48.9162 145.451 48.6922C145.115 48.4522 144.947 48.0602 144.947 47.5162C144.947 46.9562 145.139 46.5082 145.523 46.1722C145.923 45.8362 146.451 45.5962 147.107 45.4522C147.763 45.2922 148.483 45.2122 149.267 45.2122C150.739 45.2122 151.835 45.5242 152.555 46.1482C153.291 46.7722 153.659 47.8442 153.659 49.3642V55.5802C153.659 56.0282 153.707 56.3802 153.803 56.6362C153.899 56.8762 154.059 57.0522 154.283 57.1642C154.507 57.2602 154.795 57.3082 155.147 57.3082H155.219V58.3162H151.979L151.595 56.2522H151.403C151.067 56.7002 150.739 57.1002 150.419 57.4522C150.099 57.7882 149.723 58.0602 149.291 58.2682C148.875 58.4602 148.331 58.5562 147.659 58.5562ZM148.211 57.0682C148.867 57.0682 149.427 56.9322 149.891 56.6602C150.371 56.3882 150.739 56.0042 150.995 55.5082C151.267 54.9962 151.403 54.4042 151.403 53.7322V51.7882L149.867 51.8602C148.955 51.8922 148.235 52.0282 147.707 52.2682C147.195 52.5082 146.827 52.8442 146.603 53.2762C146.379 53.6922 146.267 54.2122 146.267 54.8362C146.267 55.3322 146.339 55.7482 146.483 56.0842C146.627 56.4042 146.843 56.6522 147.131 56.8282C147.419 56.9882 147.779 57.0682 148.211 57.0682ZM156.705 62.9482C157.521 62.9482 158.225 62.8282 158.817 62.5882C159.409 62.3482 159.913 62.0122 160.329 61.5802C160.745 61.1642 161.097 60.6682 161.385 60.0922C161.673 59.5162 161.913 58.8922 162.105 58.2202L157.665 47.7322C157.521 47.3962 157.377 47.1402 157.233 46.9642C157.089 46.7722 156.921 46.6442 156.729 46.5802C156.537 46.5002 156.281 46.4602 155.961 46.4602H155.889V45.4522H161.649V46.4602H161.577C161.097 46.4602 160.737 46.5562 160.497 46.7482C160.257 46.9242 160.137 47.2122 160.137 47.6122C160.137 47.7402 160.153 47.8762 160.185 48.0202C160.217 48.1642 160.265 48.3242 160.329 48.5002L162.081 52.7722C162.193 53.0442 162.305 53.3402 162.417 53.6602C162.545 53.9802 162.665 54.3002 162.777 54.6202C162.889 54.9402 162.985 55.2442 163.065 55.5322C163.145 55.8202 163.201 56.0602 163.233 56.2522C163.345 55.7882 163.489 55.3082 163.665 54.8122C163.857 54.3162 164.033 53.8282 164.193 53.3482L165.801 48.6682C165.881 48.4762 165.937 48.2922 165.969 48.1162C166.001 47.9242 166.017 47.7642 166.017 47.6362C166.017 47.2202 165.881 46.9242 165.609 46.7482C165.353 46.5562 164.961 46.4602 164.433 46.4602H164.361V45.4522H169.353V46.4602H169.281C168.977 46.4602 168.721 46.5082 168.513 46.6042C168.305 46.7002 168.121 46.8842 167.961 47.1562C167.817 47.4282 167.649 47.8202 167.457 48.3322L163.809 58.4122C163.393 59.5802 162.993 60.5322 162.609 61.2682C162.225 62.0042 161.793 62.5722 161.313 62.9722C160.849 63.3882 160.265 63.6762 159.561 63.8362C158.857 63.9962 157.977 64.0762 156.921 64.0762H156.705V62.9482ZM170.208 58.4842C169.792 58.4842 169.432 58.3642 169.128 58.1242C168.84 57.8842 168.696 57.4602 168.696 56.8522C168.696 56.2282 168.84 55.8042 169.128 55.5802C169.432 55.3402 169.792 55.2202 170.208 55.2202C170.624 55.2202 170.976 55.3402 171.264 55.5802C171.568 55.8042 171.72 56.2282 171.72 56.8522C171.72 57.4602 171.568 57.8842 171.264 58.1242C170.976 58.3642 170.624 58.4842 170.208 58.4842Z" fill="white"/>
</svg>
