<svg width="195" height="65" viewBox="0 0 195 65" fill="none" xmlns="http://www.w3.org/2000/svg">
<path d="M29.5736 19.0347V18.0267H30.1256C30.4776 18.0267 30.7976 17.9947 31.0856 17.9307C31.3896 17.8507 31.6296 17.6987 31.8056 17.4747C31.9976 17.2347 32.0936 16.8827 32.0936 16.4187L32.0936 3.09867H29.7896C29.3256 3.09867 28.9576 3.19467 28.6856 3.38667C28.4136 3.56267 28.2136 3.80267 28.0856 4.10667C27.9576 4.39467 27.8696 4.71467 27.8216 5.06667L27.7016 6.09867H26.4536L26.5736 1.89867H40.0856L40.2056 6.09867H38.9576L38.8376 5.06667C38.8056 4.71467 38.7176 4.39467 38.5736 4.10667C38.4456 3.80267 38.2456 3.56267 37.9736 3.38667C37.7016 3.19467 37.3256 3.09867 36.8456 3.09867H34.5176L34.5176 16.2987C34.5176 16.7947 34.6056 17.1707 34.7816 17.4267C34.9576 17.6667 35.1976 17.8267 35.5016 17.9067C35.8056 17.9867 36.1336 18.0267 36.4856 18.0267H37.0376V19.0347L29.5736 19.0347ZM41.1244 19.0347V18.0267H41.3164C41.6844 18.0267 42.0124 17.9867 42.3004 17.9067C42.6044 17.8267 42.8444 17.6667 43.0204 17.4267C43.1964 17.1707 43.2844 16.7947 43.2844 16.2987L43.2844 3.43467C43.2844 2.95467 43.1884 2.60267 42.9964 2.37867C42.8204 2.13867 42.5804 1.98667 42.2764 1.92267C41.9884 1.84267 41.6684 1.80267 41.3164 1.80267H41.1244V0.794667H45.5404V6.07467C45.5404 6.36267 45.5324 6.66667 45.5164 6.98667C45.5004 7.29067 45.4844 7.55467 45.4684 7.77867C45.4524 8.00267 45.4444 8.11467 45.4444 8.11467H45.5644C45.8044 7.63467 46.0924 7.23467 46.4284 6.91467C46.7804 6.57867 47.1724 6.33067 47.6044 6.17067C48.0524 6.01067 48.5484 5.93067 49.0924 5.93067C50.4684 5.93067 51.5164 6.30667 52.2364 7.05867C52.9724 7.79467 53.3404 8.98667 53.3404 10.6347V16.2987C53.3404 16.7947 53.4204 17.1707 53.5804 17.4267C53.7404 17.6667 53.9564 17.8267 54.2284 17.9067C54.5164 17.9867 54.8364 18.0267 55.1884 18.0267H55.2604V19.0347H51.0844V10.7547C51.0844 9.71467 50.8844 8.90667 50.4844 8.33067C50.1004 7.75467 49.4204 7.46667 48.4444 7.46667C47.7884 7.46667 47.2444 7.62667 46.8124 7.94667C46.3804 8.26667 46.0604 8.72267 45.8524 9.31467C45.6444 9.89067 45.5404 10.5707 45.5404 11.3547V16.4187C45.5404 16.8827 45.6284 17.2347 45.8044 17.4747C45.9964 17.6987 46.2364 17.8507 46.5244 17.9307C46.8284 17.9947 47.1564 18.0267 47.5084 18.0267H47.5804V19.0347H41.1244ZM62.8148 19.2747C61.0708 19.2747 59.7028 18.6987 58.7108 17.5467C57.7348 16.3947 57.2468 14.7787 57.2468 12.6987C57.2468 10.4587 57.7108 8.77067 58.6388 7.63467C59.5668 6.49867 60.8788 5.93067 62.5748 5.93067C64.1268 5.93067 65.3428 6.41067 66.2228 7.37067C67.1188 8.33067 67.5668 9.76267 67.5668 11.6667V12.7707L59.5748 12.7707C59.6068 13.9387 59.7588 14.8907 60.0308 15.6267C60.3028 16.3627 60.6948 16.9067 61.2068 17.2587C61.7348 17.5947 62.3828 17.7627 63.1508 17.7627C63.7108 17.7627 64.2068 17.6827 64.6388 17.5227C65.0868 17.3627 65.4708 17.1547 65.7908 16.8987C66.1268 16.6427 66.3908 16.3707 66.5828 16.0827C66.6948 16.1307 66.7988 16.2267 66.8948 16.3707C66.9908 16.5147 67.0388 16.6907 67.0388 16.8987C67.0388 17.2187 66.8868 17.5627 66.5828 17.9307C66.2788 18.2987 65.8148 18.6187 65.1908 18.8907C64.5668 19.1467 63.7748 19.2747 62.8148 19.2747ZM65.1428 11.4747C65.1428 10.6267 65.0548 9.88267 64.8788 9.24267C64.7188 8.60267 64.4468 8.10667 64.0628 7.75467C63.6788 7.40267 63.1668 7.22667 62.5268 7.22667C61.9348 7.22667 61.4308 7.39467 61.0148 7.73067C60.6148 8.05067 60.2948 8.52267 60.0548 9.14667C59.8308 9.77067 59.6868 10.5467 59.6228 11.4747L65.1428 11.4747ZM80.0449 19.2747C79.2449 19.2747 78.5489 19.1787 77.9569 18.9867C77.3649 18.7947 76.9009 18.5147 76.5649 18.1467C76.2449 17.7627 76.0849 17.2907 76.0849 16.7307C76.0849 16.2987 76.1729 15.9627 76.3489 15.7227C76.5249 15.4827 76.7249 15.3147 76.9489 15.2187C77.1889 15.1227 77.4049 15.0747 77.5969 15.0747C77.5969 15.6347 77.6769 16.1467 77.8369 16.6107C77.9969 17.0747 78.2689 17.4427 78.6529 17.7147C79.0369 17.9867 79.5489 18.1227 80.1889 18.1227C81.0369 18.1227 81.6849 17.9227 82.1329 17.5227C82.5969 17.1067 82.8289 16.5787 82.8289 15.9387C82.8289 15.5387 82.7409 15.2107 82.5649 14.9547C82.4049 14.6987 82.1089 14.4507 81.6769 14.2107C81.2609 13.9547 80.6609 13.6587 79.8769 13.3227C79.0609 12.9547 78.3809 12.6027 77.8369 12.2667C77.3089 11.9147 76.9089 11.5147 76.6369 11.0667C76.3809 10.6027 76.2529 10.0267 76.2529 9.33867C76.2529 8.25067 76.6609 7.41867 77.4769 6.84267C78.3089 6.25067 79.4049 5.95467 80.7649 5.95467C81.5329 5.95467 82.1729 6.05867 82.6849 6.26667C83.2129 6.45867 83.6049 6.72267 83.8609 7.05867C84.1329 7.39467 84.2689 7.76267 84.2689 8.16267C84.2689 8.59467 84.1169 8.94667 83.8129 9.21867C83.5249 9.47467 83.1009 9.60267 82.5409 9.60267C82.5409 8.80267 82.3729 8.17867 82.0369 7.73067C81.7009 7.28267 81.1809 7.05867 80.4769 7.05867C79.9329 7.05867 79.4929 7.13867 79.1569 7.29867C78.8209 7.45867 78.5729 7.68267 78.4129 7.97067C78.2689 8.25867 78.1969 8.59467 78.1969 8.97867C78.1969 9.37867 78.2929 9.71467 78.4849 9.98667C78.6929 10.2587 79.0129 10.5147 79.4449 10.7547C79.8929 10.9787 80.4689 11.2347 81.1729 11.5227C82.0209 11.8747 82.7089 12.2267 83.2369 12.5787C83.7649 12.9307 84.1489 13.3387 84.3889 13.8027C84.6449 14.2667 84.7729 14.8347 84.7729 15.5067C84.7729 16.7547 84.3409 17.6987 83.4769 18.3387C82.6129 18.9627 81.4689 19.2747 80.0449 19.2747ZM92.721 19.2747C90.977 19.2747 89.609 18.6987 88.617 17.5467C87.641 16.3947 87.153 14.7787 87.153 12.6987C87.153 10.4587 87.617 8.77067 88.545 7.63467C89.473 6.49867 90.785 5.93067 92.481 5.93067C94.033 5.93067 95.249 6.41067 96.129 7.37067C97.025 8.33067 97.473 9.76267 97.473 11.6667V12.7707L89.481 12.7707C89.513 13.9387 89.665 14.8907 89.937 15.6267C90.209 16.3627 90.601 16.9067 91.113 17.2587C91.641 17.5947 92.289 17.7627 93.057 17.7627C93.617 17.7627 94.113 17.6827 94.545 17.5227C94.993 17.3627 95.377 17.1547 95.697 16.8987C96.033 16.6427 96.297 16.3707 96.489 16.0827C96.601 16.1307 96.705 16.2267 96.801 16.3707C96.897 16.5147 96.945 16.6907 96.945 16.8987C96.945 17.2187 96.793 17.5627 96.489 17.9307C96.185 18.2987 95.721 18.6187 95.097 18.8907C94.473 19.1467 93.681 19.2747 92.721 19.2747ZM95.049 11.4747C95.049 10.6267 94.961 9.88267 94.785 9.24267C94.625 8.60267 94.353 8.10667 93.969 7.75467C93.585 7.40267 93.073 7.22667 92.433 7.22667C91.841 7.22667 91.337 7.39467 90.921 7.73067C90.521 8.05067 90.201 8.52267 89.961 9.14667C89.737 9.77067 89.593 10.5467 89.529 11.4747L95.049 11.4747ZM103.597 19.2747C102.893 19.2747 102.253 19.1387 101.677 18.8667C101.117 18.5787 100.677 18.1547 100.357 17.5947C100.037 17.0187 99.8768 16.2987 99.8768 15.4347C99.8768 14.1547 100.325 13.2107 101.221 12.6027C102.133 11.9947 103.509 11.6587 105.349 11.5947L107.341 11.5227V10.0827C107.341 9.50667 107.293 9.00267 107.197 8.57067C107.101 8.12267 106.893 7.77067 106.573 7.51467C106.253 7.25867 105.765 7.13067 105.109 7.13067C104.501 7.13067 104.037 7.24267 103.717 7.46667C103.397 7.69067 103.181 8.00267 103.069 8.40267C102.973 8.78667 102.925 9.23467 102.925 9.74667C102.253 9.74667 101.741 9.63467 101.389 9.41067C101.053 9.17067 100.885 8.77867 100.885 8.23467C100.885 7.67467 101.077 7.22667 101.461 6.89067C101.861 6.55467 102.389 6.31467 103.045 6.17067C103.701 6.01067 104.421 5.93067 105.205 5.93067C106.677 5.93067 107.773 6.24267 108.493 6.86667C109.229 7.49067 109.597 8.56267 109.597 10.0827V16.2987C109.597 16.7467 109.645 17.0987 109.741 17.3547C109.837 17.5947 109.997 17.7707 110.221 17.8827C110.445 17.9787 110.733 18.0267 111.085 18.0267H111.157V19.0347H107.917L107.533 16.9707H107.341C107.005 17.4187 106.677 17.8187 106.357 18.1707C106.037 18.5067 105.661 18.7787 105.229 18.9867C104.813 19.1787 104.269 19.2747 103.597 19.2747ZM104.149 17.7867C104.805 17.7867 105.365 17.6507 105.829 17.3787C106.309 17.1067 106.677 16.7227 106.933 16.2267C107.205 15.7147 107.341 15.1227 107.341 14.4507V12.5067L105.805 12.5787C104.893 12.6107 104.173 12.7467 103.645 12.9867C103.133 13.2267 102.765 13.5627 102.541 13.9947C102.317 14.4107 102.205 14.9307 102.205 15.5547C102.205 16.0507 102.277 16.4667 102.421 16.8027C102.565 17.1227 102.781 17.3707 103.069 17.5467C103.357 17.7067 103.717 17.7867 104.149 17.7867ZM120.235 8.45067C120.123 8.11467 119.987 7.85867 119.827 7.68267C119.683 7.49067 119.507 7.36267 119.299 7.29867C119.107 7.21867 118.851 7.17867 118.531 7.17867H118.459V6.17067L124.387 6.17067V7.17867H124.075C123.595 7.17867 123.235 7.25067 122.995 7.39467C122.755 7.52267 122.635 7.78667 122.635 8.18667C122.635 8.31467 122.651 8.47467 122.683 8.66667C122.731 8.85867 122.779 9.04267 122.827 9.21867L123.955 13.2507C124.067 13.6347 124.171 14.0667 124.267 14.5467C124.379 15.0107 124.483 15.4587 124.579 15.8907C124.675 16.3067 124.747 16.6507 124.795 16.9227H124.867C124.915 16.6507 124.987 16.3227 125.083 15.9387C125.195 15.5547 125.315 15.1467 125.443 14.7147C125.587 14.2827 125.723 13.8747 125.851 13.4907L128.347 6.24267H129.859L132.259 13.3467C132.355 13.6347 132.451 13.9467 132.547 14.2827C132.659 14.6027 132.763 14.9307 132.859 15.2667C132.955 15.6027 133.043 15.9147 133.123 16.2027C133.203 16.4907 133.259 16.7307 133.291 16.9227H133.363C133.411 16.6507 133.475 16.3467 133.555 16.0107C133.651 15.6587 133.755 15.2667 133.867 14.8347C133.995 14.4027 134.139 13.9307 134.299 13.4187L135.499 9.55467C135.563 9.34667 135.611 9.13067 135.643 8.90667C135.691 8.66667 135.715 8.48267 135.715 8.35467C135.715 7.93867 135.579 7.64267 135.307 7.46667C135.051 7.27467 134.659 7.17867 134.131 7.17867H133.963V6.17067H139.099V7.17867H138.787C138.483 7.17867 138.227 7.22667 138.019 7.32267C137.811 7.40267 137.627 7.57867 137.467 7.85067C137.307 8.12267 137.147 8.52267 136.987 9.05067L133.891 19.0347H131.971L128.683 9.00267L125.275 19.0347H123.379L120.235 8.45067ZM144.05 19.2747C143.346 19.2747 142.706 19.1387 142.13 18.8667C141.57 18.5787 141.13 18.1547 140.81 17.5947C140.49 17.0187 140.33 16.2987 140.33 15.4347C140.33 14.1547 140.778 13.2107 141.674 12.6027C142.586 11.9947 143.962 11.6587 145.802 11.5947L147.794 11.5227V10.0827C147.794 9.50667 147.746 9.00267 147.65 8.57067C147.554 8.12267 147.346 7.77067 147.026 7.51467C146.706 7.25867 146.218 7.13067 145.562 7.13067C144.954 7.13067 144.49 7.24267 144.17 7.46667C143.85 7.69067 143.634 8.00267 143.522 8.40267C143.426 8.78667 143.378 9.23467 143.378 9.74667C142.706 9.74667 142.194 9.63467 141.842 9.41067C141.506 9.17067 141.338 8.77867 141.338 8.23467C141.338 7.67467 141.53 7.22667 141.914 6.89067C142.314 6.55467 142.842 6.31467 143.498 6.17067C144.154 6.01067 144.874 5.93067 145.658 5.93067C147.13 5.93067 148.226 6.24267 148.946 6.86667C149.682 7.49067 150.05 8.56267 150.05 10.0827V16.2987C150.05 16.7467 150.098 17.0987 150.194 17.3547C150.29 17.5947 150.45 17.7707 150.674 17.8827C150.898 17.9787 151.186 18.0267 151.538 18.0267H151.61V19.0347L148.37 19.0347L147.986 16.9707H147.794C147.458 17.4187 147.13 17.8187 146.81 18.1707C146.49 18.5067 146.114 18.7787 145.682 18.9867C145.266 19.1787 144.722 19.2747 144.05 19.2747ZM144.602 17.7867C145.258 17.7867 145.818 17.6507 146.282 17.3787C146.762 17.1067 147.13 16.7227 147.386 16.2267C147.658 15.7147 147.794 15.1227 147.794 14.4507V12.5067L146.258 12.5787C145.346 12.6107 144.626 12.7467 144.098 12.9867C143.586 13.2267 143.218 13.5627 142.994 13.9947C142.77 14.4107 142.658 14.9307 142.658 15.5547C142.658 16.0507 142.73 16.4667 142.874 16.8027C143.018 17.1227 143.234 17.3707 143.522 17.5467C143.81 17.7067 144.17 17.7867 144.602 17.7867ZM157.693 19.2747C156.893 19.2747 156.197 19.1787 155.605 18.9867C155.013 18.7947 154.549 18.5147 154.213 18.1467C153.893 17.7627 153.733 17.2907 153.733 16.7307C153.733 16.2987 153.821 15.9627 153.997 15.7227C154.173 15.4827 154.373 15.3147 154.597 15.2187C154.837 15.1227 155.053 15.0747 155.245 15.0747C155.245 15.6347 155.325 16.1467 155.485 16.6107C155.645 17.0747 155.917 17.4427 156.301 17.7147C156.685 17.9867 157.197 18.1227 157.837 18.1227C158.685 18.1227 159.333 17.9227 159.781 17.5227C160.245 17.1067 160.477 16.5787 160.477 15.9387C160.477 15.5387 160.389 15.2107 160.213 14.9547C160.053 14.6987 159.757 14.4507 159.325 14.2107C158.909 13.9547 158.309 13.6587 157.525 13.3227C156.709 12.9547 156.029 12.6027 155.485 12.2667C154.957 11.9147 154.557 11.5147 154.285 11.0667C154.029 10.6027 153.901 10.0267 153.901 9.33867C153.901 8.25067 154.309 7.41867 155.125 6.84267C155.957 6.25067 157.053 5.95467 158.413 5.95467C159.181 5.95467 159.821 6.05867 160.333 6.26667C160.861 6.45867 161.253 6.72267 161.509 7.05867C161.781 7.39467 161.917 7.76267 161.917 8.16267C161.917 8.59467 161.765 8.94667 161.461 9.21867C161.173 9.47467 160.749 9.60267 160.189 9.60267C160.189 8.80267 160.021 8.17867 159.685 7.73067C159.349 7.28267 158.829 7.05867 158.125 7.05867C157.581 7.05867 157.141 7.13867 156.805 7.29867C156.469 7.45867 156.221 7.68267 156.061 7.97067C155.917 8.25867 155.845 8.59467 155.845 8.97867C155.845 9.37867 155.941 9.71467 156.133 9.98667C156.341 10.2587 156.661 10.5147 157.093 10.7547C157.541 10.9787 158.117 11.2347 158.821 11.5227C159.669 11.8747 160.357 12.2267 160.885 12.5787C161.413 12.9307 161.797 13.3387 162.037 13.8027C162.293 14.2667 162.421 14.8347 162.421 15.5067C162.421 16.7547 161.989 17.6987 161.125 18.3387C160.261 18.9627 159.117 19.2747 157.693 19.2747ZM4.26863 59.2747C3.56463 59.2747 2.92463 59.1387 2.34863 58.8667C1.78863 58.5787 1.34863 58.1547 1.02863 57.5947C0.708633 57.0187 0.548633 56.2987 0.548633 55.4347C0.548633 54.1547 0.996633 53.2107 1.89263 52.6027C2.80463 51.9947 4.18063 51.6587 6.02063 51.5947L8.01263 51.5227V50.0827C8.01263 49.5067 7.96463 49.0027 7.86863 48.5707C7.77263 48.1227 7.56463 47.7707 7.24463 47.5147C6.92463 47.2587 6.43663 47.1307 5.78063 47.1307C5.17263 47.1307 4.70863 47.2427 4.38863 47.4667C4.06863 47.6907 3.85263 48.0027 3.74063 48.4027C3.64463 48.7867 3.59663 49.2347 3.59663 49.7467C2.92463 49.7467 2.41263 49.6347 2.06063 49.4107C1.72463 49.1707 1.55663 48.7787 1.55663 48.2347C1.55663 47.6747 1.74863 47.2267 2.13263 46.8907C2.53263 46.5547 3.06063 46.3147 3.71663 46.1707C4.37263 46.0107 5.09263 45.9307 5.87663 45.9307C7.34863 45.9307 8.44463 46.2427 9.16463 46.8667C9.90063 47.4907 10.2686 48.5627 10.2686 50.0827V56.2987C10.2686 56.7467 10.3166 57.0987 10.4126 57.3547C10.5086 57.5947 10.6686 57.7707 10.8926 57.8827C11.1166 57.9787 11.4046 58.0267 11.7566 58.0267H11.8286V59.0347H8.58863L8.20463 56.9707H8.01263C7.67663 57.4187 7.34863 57.8187 7.02863 58.1707C6.70863 58.5067 6.33263 58.7787 5.90063 58.9867C5.48463 59.1787 4.94063 59.2747 4.26863 59.2747ZM4.82063 57.7867C5.47663 57.7867 6.03663 57.6507 6.50063 57.3787C6.98063 57.1067 7.34863 56.7227 7.60463 56.2267C7.87663 55.7147 8.01263 55.1227 8.01263 54.4507V52.5067L6.47663 52.5787C5.56463 52.6107 4.84463 52.7467 4.31663 52.9867C3.80463 53.2267 3.43663 53.5627 3.21263 53.9947C2.98863 54.4107 2.87663 54.9307 2.87663 55.5547C2.87663 56.0507 2.94863 56.4667 3.09263 56.8027C3.23663 57.1227 3.45263 57.3707 3.74063 57.5467C4.02863 57.7067 4.38863 57.7867 4.82063 57.7867ZM19.7544 59.0347V58.0267H20.0664C20.4344 58.0267 20.7624 57.9867 21.0504 57.9067C21.3544 57.8267 21.5944 57.6667 21.7704 57.4267C21.9464 57.1707 22.0344 56.7947 22.0344 56.2987V47.2987H19.8504V46.1707H22.0344V44.9707C22.0344 43.5467 22.4104 42.4587 23.1624 41.7067C23.9304 40.9387 24.9704 40.5547 26.2824 40.5547C27.1144 40.5547 27.7704 40.6267 28.2504 40.7707C28.7464 40.9147 29.0984 41.1147 29.3064 41.3707C29.5304 41.6107 29.6424 41.8987 29.6424 42.2347C29.6424 42.5227 29.5544 42.7707 29.3784 42.9787C29.2184 43.1707 28.9864 43.3227 28.6824 43.4347C28.3944 43.5307 28.0584 43.5787 27.6744 43.5787C27.6744 43.2587 27.6264 42.9547 27.5304 42.6667C27.4344 42.3627 27.2744 42.1227 27.0504 41.9467C26.8264 41.7547 26.5064 41.6587 26.0904 41.6587C25.4024 41.6587 24.9304 41.9227 24.6744 42.4507C24.4184 42.9787 24.2904 43.7467 24.2904 44.7547V46.1707H27.6744V47.2987H24.2904V56.2987C24.2904 56.7947 24.3784 57.1707 24.5544 57.4267C24.7304 57.6667 24.9704 57.8267 25.2744 57.9067C25.5784 57.9867 25.9064 58.0267 26.2584 58.0267H27.1704V59.0347H19.7544ZM34.8538 59.2747C33.1098 59.2747 31.7418 58.6987 30.7498 57.5467C29.7738 56.3947 29.2858 54.7787 29.2858 52.6987C29.2858 50.4587 29.7498 48.7707 30.6778 47.6347C31.6058 46.4987 32.9178 45.9307 34.6138 45.9307C36.1658 45.9307 37.3818 46.4107 38.2618 47.3707C39.1578 48.3307 39.6058 49.7627 39.6058 51.6667V52.7707H31.6138C31.6458 53.9387 31.7978 54.8907 32.0698 55.6267C32.3418 56.3627 32.7338 56.9067 33.2458 57.2587C33.7738 57.5947 34.4218 57.7627 35.1898 57.7627C35.7498 57.7627 36.2458 57.6827 36.6778 57.5227C37.1258 57.3627 37.5098 57.1547 37.8298 56.8987C38.1658 56.6427 38.4298 56.3707 38.6218 56.0827C38.7338 56.1307 38.8378 56.2267 38.9338 56.3707C39.0298 56.5147 39.0778 56.6907 39.0778 56.8987C39.0778 57.2187 38.9258 57.5627 38.6218 57.9307C38.3178 58.2987 37.8538 58.6187 37.2298 58.8907C36.6058 59.1467 35.8138 59.2747 34.8538 59.2747ZM37.1818 51.4747C37.1818 50.6267 37.0938 49.8827 36.9178 49.2427C36.7578 48.6027 36.4858 48.1067 36.1018 47.7547C35.7178 47.4027 35.2058 47.2267 34.5658 47.2267C33.9738 47.2267 33.4698 47.3947 33.0538 47.7307C32.6538 48.0507 32.3338 48.5227 32.0938 49.1467C31.8698 49.7707 31.7258 50.5467 31.6618 51.4747H37.1818ZM42.6096 48.4507C42.4976 48.1147 42.3616 47.8587 42.2016 47.6827C42.0576 47.4907 41.8816 47.3627 41.6736 47.2987C41.4816 47.2187 41.2256 47.1787 40.9056 47.1787H40.8336V46.1707H46.7616V47.1787H46.4496C45.9696 47.1787 45.6096 47.2507 45.3696 47.3947C45.1296 47.5227 45.0096 47.7867 45.0096 48.1867C45.0096 48.3147 45.0256 48.4747 45.0576 48.6667C45.1056 48.8587 45.1536 49.0427 45.2016 49.2187L46.3296 53.2507C46.4416 53.6347 46.5456 54.0667 46.6416 54.5467C46.7536 55.0107 46.8576 55.4587 46.9536 55.8907C47.0496 56.3067 47.1216 56.6507 47.1696 56.9227H47.2416C47.2896 56.6507 47.3616 56.3227 47.4576 55.9387C47.5696 55.5547 47.6896 55.1467 47.8176 54.7147C47.9616 54.2827 48.0976 53.8747 48.2256 53.4907L50.7216 46.2427H52.2336L54.6336 53.3467C54.7296 53.6347 54.8256 53.9467 54.9216 54.2827C55.0336 54.6027 55.1376 54.9307 55.2336 55.2667C55.3296 55.6027 55.4176 55.9147 55.4976 56.2027C55.5776 56.4907 55.6336 56.7307 55.6656 56.9227H55.7376C55.7856 56.6507 55.8496 56.3467 55.9296 56.0107C56.0256 55.6587 56.1296 55.2667 56.2416 54.8347C56.3696 54.4027 56.5136 53.9307 56.6736 53.4187L57.8736 49.5547C57.9376 49.3467 57.9856 49.1307 58.0176 48.9067C58.0656 48.6667 58.0896 48.4827 58.0896 48.3547C58.0896 47.9387 57.9536 47.6427 57.6816 47.4667C57.4256 47.2747 57.0336 47.1787 56.5056 47.1787H56.3376V46.1707H61.4736V47.1787H61.1616C60.8576 47.1787 60.6016 47.2267 60.3936 47.3227C60.1856 47.4027 60.0016 47.5787 59.8416 47.8507C59.6816 48.1227 59.5216 48.5227 59.3616 49.0507L56.2656 59.0347H54.3456L51.0576 49.0027L47.6496 59.0347H45.7536L42.6096 48.4507ZM72.7793 59.2747C71.9793 59.2747 71.2833 59.1787 70.6913 58.9867C70.0993 58.7947 69.6353 58.5147 69.2993 58.1467C68.9793 57.7627 68.8193 57.2907 68.8193 56.7307C68.8193 56.2987 68.9073 55.9627 69.0833 55.7227C69.2593 55.4827 69.4593 55.3147 69.6833 55.2187C69.9233 55.1227 70.1393 55.0747 70.3313 55.0747C70.3313 55.6347 70.4113 56.1467 70.5713 56.6107C70.7313 57.0747 71.0033 57.4427 71.3873 57.7147C71.7713 57.9867 72.2833 58.1227 72.9233 58.1227C73.7713 58.1227 74.4193 57.9227 74.8673 57.5227C75.3313 57.1067 75.5633 56.5787 75.5633 55.9387C75.5633 55.5387 75.4753 55.2107 75.2993 54.9547C75.1393 54.6987 74.8433 54.4507 74.4113 54.2107C73.9953 53.9547 73.3953 53.6587 72.6113 53.3227C71.7953 52.9547 71.1153 52.6027 70.5713 52.2667C70.0433 51.9147 69.6433 51.5147 69.3713 51.0667C69.1153 50.6027 68.9873 50.0267 68.9873 49.3387C68.9873 48.2507 69.3953 47.4187 70.2113 46.8427C71.0433 46.2507 72.1393 45.9547 73.4993 45.9547C74.2673 45.9547 74.9073 46.0587 75.4193 46.2667C75.9473 46.4587 76.3393 46.7227 76.5953 47.0587C76.8673 47.3947 77.0033 47.7627 77.0033 48.1627C77.0033 48.5947 76.8513 48.9467 76.5473 49.2187C76.2593 49.4747 75.8353 49.6027 75.2753 49.6027C75.2753 48.8027 75.1073 48.1787 74.7713 47.7307C74.4353 47.2827 73.9153 47.0587 73.2113 47.0587C72.6673 47.0587 72.2273 47.1387 71.8913 47.2987C71.5553 47.4587 71.3073 47.6827 71.1473 47.9707C71.0033 48.2587 70.9313 48.5947 70.9313 48.9787C70.9313 49.3787 71.0273 49.7147 71.2193 49.9867C71.4273 50.2587 71.7473 50.5147 72.1793 50.7547C72.6273 50.9787 73.2033 51.2347 73.9073 51.5227C74.7553 51.8747 75.4433 52.2267 75.9713 52.5787C76.4993 52.9307 76.8833 53.3387 77.1233 53.8027C77.3793 54.2667 77.5073 54.8347 77.5073 55.5067C77.5073 56.7547 77.0753 57.6987 76.2113 58.3387C75.3473 58.9627 74.2033 59.2747 72.7793 59.2747ZM84.3274 59.2747C83.1114 59.2747 82.2234 59.0027 81.6634 58.4587C81.1194 57.8987 80.8474 56.9307 80.8474 55.5547V47.5387H79.0234V46.5787C79.3114 46.5787 79.6314 46.5227 79.9834 46.4107C80.3354 46.2827 80.6394 46.0827 80.8954 45.8107C81.1674 45.5227 81.3914 45.1707 81.5674 44.7547C81.7434 44.3387 81.8874 43.8267 81.9994 43.2187H83.1034V46.1707H86.2474V47.5387H83.1034V55.6267C83.1034 56.4427 83.2714 57.0427 83.6074 57.4267C83.9434 57.8107 84.3834 58.0027 84.9274 58.0027C85.2154 58.0027 85.4794 57.9867 85.7194 57.9547C85.9594 57.9227 86.2074 57.8827 86.4634 57.8347V58.8907C86.2554 58.9867 85.9434 59.0747 85.5274 59.1547C85.1114 59.2347 84.7114 59.2747 84.3274 59.2747ZM93.8929 59.2747C92.1489 59.2747 90.7809 58.6987 89.7889 57.5467C88.8129 56.3947 88.3249 54.7787 88.3249 52.6987C88.3249 50.4587 88.7889 48.7707 89.7169 47.6347C90.6449 46.4987 91.9569 45.9307 93.6529 45.9307C95.2049 45.9307 96.4209 46.4107 97.3009 47.3707C98.1969 48.3307 98.6449 49.7627 98.6449 51.6667V52.7707H90.6529C90.6849 53.9387 90.8369 54.8907 91.1089 55.6267C91.3809 56.3627 91.7729 56.9067 92.2849 57.2587C92.8129 57.5947 93.4609 57.7627 94.2289 57.7627C94.7889 57.7627 95.2849 57.6827 95.7169 57.5227C96.1649 57.3627 96.5489 57.1547 96.8689 56.8987C97.2049 56.6427 97.4689 56.3707 97.6609 56.0827C97.7729 56.1307 97.8769 56.2267 97.9729 56.3707C98.0689 56.5147 98.1169 56.6907 98.1169 56.8987C98.1169 57.2187 97.9649 57.5627 97.6609 57.9307C97.3569 58.2987 96.8929 58.6187 96.2689 58.8907C95.6449 59.1467 94.8529 59.2747 93.8929 59.2747ZM96.2209 51.4747C96.2209 50.6267 96.1329 49.8827 95.9569 49.2427C95.7969 48.6027 95.5249 48.1067 95.1409 47.7547C94.7569 47.4027 94.2449 47.2267 93.6049 47.2267C93.0129 47.2267 92.5089 47.3947 92.0929 47.7307C91.6929 48.0507 91.3729 48.5227 91.1329 49.1467C90.9089 49.7707 90.7649 50.5467 90.7009 51.4747H96.2209ZM100.281 64.7947V63.7867H100.473C100.841 63.7867 101.169 63.7467 101.457 63.6667C101.761 63.5867 102.001 63.4187 102.177 63.1627C102.353 62.9227 102.441 62.5547 102.441 62.0587V48.8107C102.441 48.3307 102.345 47.9787 102.153 47.7547C101.977 47.5147 101.737 47.3627 101.433 47.2987C101.145 47.2187 100.825 47.1787 100.473 47.1787H100.161V46.1707H104.361L104.601 48.3307H104.697C105.065 47.5947 105.537 47.0107 106.113 46.5787C106.689 46.1467 107.441 45.9307 108.369 45.9307C109.953 45.9307 111.161 46.4667 111.993 47.5387C112.841 48.5947 113.265 50.2747 113.265 52.5787C113.265 54.8987 112.841 56.5947 111.993 57.6667C111.161 58.7387 109.953 59.2747 108.369 59.2747C107.441 59.2747 106.681 59.0827 106.089 58.6987C105.513 58.2987 105.049 57.7867 104.697 57.1627H104.601C104.633 57.4667 104.649 57.7947 104.649 58.1467C104.665 58.4827 104.673 58.8027 104.673 59.1067C104.689 59.4107 104.697 59.6667 104.697 59.8747V62.1787C104.697 62.6427 104.785 62.9867 104.961 63.2107C105.153 63.4507 105.393 63.6027 105.681 63.6667C105.985 63.7467 106.313 63.7867 106.665 63.7867H106.737V64.7947H100.281ZM107.985 57.7387C108.689 57.7387 109.257 57.5387 109.689 57.1387C110.121 56.7387 110.433 56.1547 110.625 55.3867C110.833 54.6187 110.937 53.6747 110.937 52.5547C110.937 51.4187 110.833 50.4747 110.625 49.7227C110.433 48.9707 110.121 48.4107 109.689 48.0427C109.257 47.6587 108.681 47.4667 107.961 47.4667C107.129 47.4667 106.473 47.6507 105.993 48.0187C105.529 48.3867 105.193 48.9547 104.985 49.7227C104.793 50.4747 104.697 51.4267 104.697 52.5787C104.697 53.6827 104.793 54.6187 104.985 55.3867C105.193 56.1547 105.537 56.7387 106.017 57.1387C106.497 57.5387 107.153 57.7387 107.985 57.7387ZM119.631 59.2747C118.831 59.2747 118.135 59.1787 117.543 58.9867C116.951 58.7947 116.487 58.5147 116.151 58.1467C115.831 57.7627 115.671 57.2907 115.671 56.7307C115.671 56.2987 115.759 55.9627 115.935 55.7227C116.111 55.4827 116.311 55.3147 116.535 55.2187C116.775 55.1227 116.991 55.0747 117.183 55.0747C117.183 55.6347 117.263 56.1467 117.423 56.6107C117.583 57.0747 117.855 57.4427 118.239 57.7147C118.623 57.9867 119.135 58.1227 119.775 58.1227C120.623 58.1227 121.271 57.9227 121.719 57.5227C122.183 57.1067 122.415 56.5787 122.415 55.9387C122.415 55.5387 122.327 55.2107 122.151 54.9547C121.991 54.6987 121.695 54.4507 121.263 54.2107C120.847 53.9547 120.247 53.6587 119.463 53.3227C118.647 52.9547 117.967 52.6027 117.423 52.2667C116.895 51.9147 116.495 51.5147 116.223 51.0667C115.967 50.6027 115.839 50.0267 115.839 49.3387C115.839 48.2507 116.247 47.4187 117.063 46.8427C117.895 46.2507 118.991 45.9547 120.351 45.9547C121.119 45.9547 121.759 46.0587 122.271 46.2667C122.799 46.4587 123.191 46.7227 123.447 47.0587C123.719 47.3947 123.855 47.7627 123.855 48.1627C123.855 48.5947 123.703 48.9467 123.399 49.2187C123.111 49.4747 122.687 49.6027 122.127 49.6027C122.127 48.8027 121.959 48.1787 121.623 47.7307C121.287 47.2827 120.767 47.0587 120.063 47.0587C119.519 47.0587 119.079 47.1387 118.743 47.2987C118.407 47.4587 118.159 47.6827 117.999 47.9707C117.855 48.2587 117.783 48.5947 117.783 48.9787C117.783 49.3787 117.879 49.7147 118.071 49.9867C118.279 50.2587 118.599 50.5147 119.031 50.7547C119.479 50.9787 120.055 51.2347 120.759 51.5227C121.607 51.8747 122.295 52.2267 122.823 52.5787C123.351 52.9307 123.735 53.3387 123.975 53.8027C124.231 54.2667 124.359 54.8347 124.359 55.5067C124.359 56.7547 123.927 57.6987 123.063 58.3387C122.199 58.9627 121.055 59.2747 119.631 59.2747ZM136.573 59.2747C135.869 59.2747 135.229 59.1387 134.653 58.8667C134.093 58.5787 133.653 58.1547 133.333 57.5947C133.013 57.0187 132.853 56.2987 132.853 55.4347C132.853 54.1547 133.301 53.2107 134.197 52.6027C135.109 51.9947 136.485 51.6587 138.325 51.5947L140.317 51.5227V50.0827C140.317 49.5067 140.269 49.0027 140.173 48.5707C140.077 48.1227 139.869 47.7707 139.549 47.5147C139.229 47.2587 138.741 47.1307 138.085 47.1307C137.477 47.1307 137.013 47.2427 136.693 47.4667C136.373 47.6907 136.157 48.0027 136.045 48.4027C135.949 48.7867 135.901 49.2347 135.901 49.7467C135.229 49.7467 134.717 49.6347 134.365 49.4107C134.029 49.1707 133.861 48.7787 133.861 48.2347C133.861 47.6747 134.053 47.2267 134.437 46.8907C134.837 46.5547 135.365 46.3147 136.021 46.1707C136.677 46.0107 137.397 45.9307 138.181 45.9307C139.653 45.9307 140.749 46.2427 141.469 46.8667C142.205 47.4907 142.573 48.5627 142.573 50.0827V56.2987C142.573 56.7467 142.621 57.0987 142.717 57.3547C142.813 57.5947 142.973 57.7707 143.197 57.8827C143.421 57.9787 143.709 58.0267 144.061 58.0267H144.133V59.0347H140.893L140.509 56.9707H140.317C139.981 57.4187 139.653 57.8187 139.333 58.1707C139.013 58.5067 138.637 58.7787 138.205 58.9867C137.789 59.1787 137.245 59.2747 136.573 59.2747ZM137.125 57.7867C137.781 57.7867 138.341 57.6507 138.805 57.3787C139.285 57.1067 139.653 56.7227 139.909 56.2267C140.181 55.7147 140.317 55.1227 140.317 54.4507V52.5067L138.781 52.5787C137.869 52.6107 137.149 52.7467 136.621 52.9867C136.109 53.2267 135.741 53.5627 135.517 53.9947C135.293 54.4107 135.181 54.9307 135.181 55.5547C135.181 56.0507 135.253 56.4667 135.397 56.8027C135.541 57.1227 135.757 57.3707 136.045 57.5467C136.333 57.7067 136.693 57.7867 137.125 57.7867ZM146.977 48.4507C146.865 48.1147 146.729 47.8587 146.569 47.6827C146.425 47.4907 146.249 47.3627 146.041 47.2987C145.849 47.2187 145.593 47.1787 145.273 47.1787H145.201V46.1707H151.129V47.1787H150.817C150.337 47.1787 149.977 47.2507 149.737 47.3947C149.497 47.5227 149.377 47.7867 149.377 48.1867C149.377 48.3147 149.393 48.4747 149.425 48.6667C149.473 48.8587 149.521 49.0427 149.569 49.2187L150.697 53.2507C150.809 53.6347 150.913 54.0667 151.009 54.5467C151.121 55.0107 151.225 55.4587 151.321 55.8907C151.417 56.3067 151.489 56.6507 151.537 56.9227H151.609C151.657 56.6507 151.729 56.3227 151.825 55.9387C151.937 55.5547 152.057 55.1467 152.185 54.7147C152.329 54.2827 152.465 53.8747 152.593 53.4907L155.089 46.2427H156.601L159.001 53.3467C159.097 53.6347 159.193 53.9467 159.289 54.2827C159.401 54.6027 159.505 54.9307 159.601 55.2667C159.697 55.6027 159.785 55.9147 159.865 56.2027C159.945 56.4907 160.001 56.7307 160.033 56.9227H160.105C160.153 56.6507 160.217 56.3467 160.297 56.0107C160.393 55.6587 160.497 55.2667 160.609 54.8347C160.737 54.4027 160.881 53.9307 161.041 53.4187L162.241 49.5547C162.305 49.3467 162.353 49.1307 162.385 48.9067C162.433 48.6667 162.457 48.4827 162.457 48.3547C162.457 47.9387 162.321 47.6427 162.049 47.4667C161.793 47.2747 161.401 47.1787 160.873 47.1787H160.705V46.1707H165.841V47.1787H165.529C165.225 47.1787 164.969 47.2267 164.761 47.3227C164.553 47.4027 164.369 47.5787 164.209 47.8507C164.049 48.1227 163.889 48.5227 163.729 49.0507L160.633 59.0347H158.713L155.425 49.0027L152.017 59.0347H150.121L146.977 48.4507ZM170.792 59.2747C170.088 59.2747 169.448 59.1387 168.872 58.8667C168.312 58.5787 167.872 58.1547 167.552 57.5947C167.232 57.0187 167.072 56.2987 167.072 55.4347C167.072 54.1547 167.52 53.2107 168.416 52.6027C169.328 51.9947 170.704 51.6587 172.544 51.5947L174.536 51.5227V50.0827C174.536 49.5067 174.488 49.0027 174.392 48.5707C174.296 48.1227 174.088 47.7707 173.768 47.5147C173.448 47.2587 172.96 47.1307 172.304 47.1307C171.696 47.1307 171.232 47.2427 170.912 47.4667C170.592 47.6907 170.376 48.0027 170.264 48.4027C170.168 48.7867 170.12 49.2347 170.12 49.7467C169.448 49.7467 168.936 49.6347 168.584 49.4107C168.248 49.1707 168.08 48.7787 168.08 48.2347C168.08 47.6747 168.272 47.2267 168.656 46.8907C169.056 46.5547 169.584 46.3147 170.24 46.1707C170.896 46.0107 171.616 45.9307 172.4 45.9307C173.872 45.9307 174.968 46.2427 175.688 46.8667C176.424 47.4907 176.792 48.5627 176.792 50.0827V56.2987C176.792 56.7467 176.84 57.0987 176.936 57.3547C177.032 57.5947 177.192 57.7707 177.416 57.8827C177.64 57.9787 177.928 58.0267 178.28 58.0267H178.352V59.0347H175.112L174.728 56.9707H174.536C174.2 57.4187 173.872 57.8187 173.552 58.1707C173.232 58.5067 172.856 58.7787 172.424 58.9867C172.008 59.1787 171.464 59.2747 170.792 59.2747ZM171.344 57.7867C172 57.7867 172.56 57.6507 173.024 57.3787C173.504 57.1067 173.872 56.7227 174.128 56.2267C174.4 55.7147 174.536 55.1227 174.536 54.4507V52.5067L173 52.5787C172.088 52.6107 171.368 52.7467 170.84 52.9867C170.328 53.2267 169.96 53.5627 169.736 53.9947C169.512 54.4107 169.4 54.9307 169.4 55.5547C169.4 56.0507 169.472 56.4667 169.616 56.8027C169.76 57.1227 169.976 57.3707 170.264 57.5467C170.552 57.7067 170.912 57.7867 171.344 57.7867ZM179.839 63.6667C180.655 63.6667 181.359 63.5467 181.951 63.3067C182.543 63.0667 183.047 62.7307 183.463 62.2987C183.879 61.8827 184.231 61.3867 184.519 60.8107C184.807 60.2347 185.047 59.6107 185.239 58.9387L180.799 48.4507C180.655 48.1147 180.511 47.8587 180.367 47.6827C180.223 47.4907 180.055 47.3627 179.863 47.2987C179.671 47.2187 179.415 47.1787 179.095 47.1787H179.023V46.1707H184.783V47.1787H184.711C184.231 47.1787 183.871 47.2747 183.631 47.4667C183.391 47.6427 183.271 47.9307 183.271 48.3307C183.271 48.4587 183.287 48.5947 183.319 48.7387C183.351 48.8827 183.399 49.0427 183.463 49.2187L185.215 53.4907C185.327 53.7627 185.439 54.0587 185.551 54.3787C185.679 54.6987 185.799 55.0187 185.911 55.3387C186.023 55.6587 186.119 55.9627 186.199 56.2507C186.279 56.5387 186.335 56.7787 186.367 56.9707C186.479 56.5067 186.623 56.0267 186.799 55.5307C186.991 55.0347 187.167 54.5467 187.327 54.0667L188.935 49.3867C189.015 49.1947 189.071 49.0107 189.103 48.8347C189.135 48.6427 189.151 48.4827 189.151 48.3547C189.151 47.9387 189.015 47.6427 188.743 47.4667C188.487 47.2747 188.095 47.1787 187.567 47.1787H187.495V46.1707H192.487V47.1787H192.415C192.111 47.1787 191.855 47.2267 191.647 47.3227C191.439 47.4187 191.255 47.6027 191.095 47.8747C190.951 48.1467 190.783 48.5387 190.591 49.0507L186.943 59.1307C186.527 60.2987 186.127 61.2507 185.743 61.9867C185.359 62.7227 184.927 63.2907 184.447 63.6907C183.983 64.1067 183.399 64.3947 182.695 64.5547C181.991 64.7147 181.111 64.7947 180.055 64.7947H179.839V63.6667ZM193.341 59.2027C192.925 59.2027 192.565 59.0827 192.261 58.8427C191.973 58.6027 191.829 58.1787 191.829 57.5707C191.829 56.9467 191.973 56.5227 192.261 56.2987C192.565 56.0587 192.925 55.9387 193.341 55.9387C193.757 55.9387 194.109 56.0587 194.397 56.2987C194.701 56.5227 194.853 56.9467 194.853 57.5707C194.853 58.1787 194.701 58.6027 194.397 58.8427C194.109 59.0827 193.757 59.2027 193.341 59.2027Z" fill="white"/>
</svg>
