<svg width="171" height="65" viewBox="0 0 171 65" fill="none" xmlns="http://www.w3.org/2000/svg">
<path d="M17.1315 18.6094V17.6014H17.6835C18.0355 17.6014 18.3555 17.5694 18.6435 17.5054C18.9475 17.4254 19.1875 17.2734 19.3635 17.0494C19.5555 16.8094 19.6515 16.4574 19.6515 15.9934V2.67337H17.3475C16.8835 2.67337 16.5155 2.76937 16.2435 2.96137C15.9715 3.13737 15.7715 3.37737 15.6435 3.68137C15.5155 3.96937 15.4275 4.28937 15.3795 4.64137L15.2595 5.67337H14.0115L14.1315 1.47337L27.6435 1.47337L27.7635 5.67337L26.5155 5.67337L26.3955 4.64137C26.3635 4.28937 26.2755 3.96937 26.1315 3.68137C26.0035 3.37737 25.8035 3.13737 25.5315 2.96137C25.2595 2.76937 24.8835 2.67337 24.4035 2.67337H22.0755V15.8734C22.0755 16.3694 22.1635 16.7454 22.3395 17.0014C22.5155 17.2414 22.7555 17.4014 23.0595 17.4814C23.3635 17.5614 23.6915 17.6014 24.0435 17.6014H24.5955V18.6094H17.1315ZM28.6823 18.6094V17.6014H28.8743C29.2423 17.6014 29.5703 17.5614 29.8583 17.4814C30.1623 17.4014 30.4023 17.2414 30.5783 17.0014C30.7543 16.7454 30.8423 16.3694 30.8423 15.8734L30.8423 3.00937C30.8423 2.52937 30.7463 2.17737 30.5543 1.95337C30.3783 1.71337 30.1383 1.56137 29.8343 1.49737C29.5463 1.41737 29.2263 1.37737 28.8743 1.37737H28.6823V0.369374H33.0983V5.64937C33.0983 5.93737 33.0903 6.24137 33.0743 6.56137C33.0583 6.86537 33.0423 7.12937 33.0263 7.35337C33.0103 7.57737 33.0023 7.68937 33.0023 7.68937H33.1223C33.3623 7.20937 33.6503 6.80937 33.9863 6.48938C34.3383 6.15337 34.7303 5.90537 35.1623 5.74537C35.6103 5.58537 36.1063 5.50537 36.6503 5.50537C38.0263 5.50537 39.0743 5.88137 39.7943 6.63337C40.5303 7.36937 40.8983 8.56137 40.8983 10.2094V15.8734C40.8983 16.3694 40.9783 16.7454 41.1383 17.0014C41.2983 17.2414 41.5143 17.4014 41.7863 17.4814C42.0743 17.5614 42.3943 17.6014 42.7463 17.6014H42.8183V18.6094H38.6423V10.3294C38.6423 9.28937 38.4423 8.48137 38.0423 7.90537C37.6583 7.32937 36.9783 7.04137 36.0023 7.04137C35.3463 7.04137 34.8023 7.20137 34.3703 7.52137C33.9383 7.84137 33.6183 8.29737 33.4103 8.88937C33.2023 9.46537 33.0983 10.1454 33.0983 10.9294V15.9934C33.0983 16.4574 33.1863 16.8094 33.3623 17.0494C33.5543 17.2734 33.7943 17.4254 34.0823 17.5054C34.3863 17.5694 34.7143 17.6014 35.0663 17.6014H35.1383V18.6094H28.6823ZM50.3727 18.8494C48.6287 18.8494 47.2607 18.2734 46.2687 17.1214C45.2927 15.9694 44.8047 14.3534 44.8047 12.2734C44.8047 10.0334 45.2687 8.34537 46.1967 7.20937C47.1247 6.07337 48.4367 5.50537 50.1327 5.50537C51.6847 5.50537 52.9007 5.98537 53.7807 6.94537C54.6767 7.90537 55.1247 9.33737 55.1247 11.2414V12.3454L47.1327 12.3454C47.1647 13.5134 47.3167 14.4654 47.5887 15.2014C47.8607 15.9374 48.2527 16.4814 48.7647 16.8334C49.2927 17.1694 49.9407 17.3374 50.7087 17.3374C51.2687 17.3374 51.7647 17.2574 52.1967 17.0974C52.6447 16.9374 53.0287 16.7294 53.3487 16.4734C53.6847 16.2174 53.9487 15.9454 54.1407 15.6574C54.2527 15.7054 54.3567 15.8014 54.4527 15.9454C54.5487 16.0894 54.5967 16.2654 54.5967 16.4734C54.5967 16.7934 54.4447 17.1374 54.1407 17.5054C53.8367 17.8734 53.3727 18.1934 52.7487 18.4654C52.1247 18.7214 51.3327 18.8494 50.3727 18.8494ZM52.7007 11.0494C52.7007 10.2014 52.6127 9.45737 52.4367 8.81737C52.2767 8.17737 52.0047 7.68137 51.6207 7.32937C51.2367 6.97737 50.7247 6.80137 50.0847 6.80137C49.4927 6.80137 48.9887 6.96937 48.5727 7.30537C48.1727 7.62537 47.8527 8.09737 47.6127 8.72137C47.3887 9.34537 47.2447 10.1214 47.1807 11.0494L52.7007 11.0494ZM67.6028 18.8494C66.8028 18.8494 66.1068 18.7534 65.5148 18.5614C64.9228 18.3694 64.4588 18.0894 64.1228 17.7214C63.8028 17.3374 63.6428 16.8654 63.6428 16.3054C63.6428 15.8734 63.7308 15.5374 63.9068 15.2974C64.0828 15.0574 64.2828 14.8894 64.5068 14.7934C64.7468 14.6974 64.9628 14.6494 65.1548 14.6494C65.1548 15.2094 65.2348 15.7214 65.3948 16.1854C65.5548 16.6494 65.8268 17.0174 66.2108 17.2894C66.5948 17.5614 67.1068 17.6974 67.7468 17.6974C68.5948 17.6974 69.2428 17.4974 69.6908 17.0974C70.1548 16.6814 70.3868 16.1534 70.3868 15.5134C70.3868 15.1134 70.2988 14.7854 70.1228 14.5294C69.9628 14.2734 69.6668 14.0254 69.2348 13.7854C68.8188 13.5294 68.2188 13.2334 67.4348 12.8974C66.6188 12.5294 65.9388 12.1774 65.3948 11.8414C64.8668 11.4894 64.4668 11.0894 64.1948 10.6414C63.9388 10.1774 63.8108 9.60137 63.8108 8.91337C63.8108 7.82537 64.2188 6.99337 65.0348 6.41737C65.8668 5.82537 66.9628 5.52937 68.3228 5.52937C69.0908 5.52937 69.7308 5.63337 70.2428 5.84137C70.7708 6.03337 71.1628 6.29737 71.4188 6.63337C71.6908 6.96937 71.8268 7.33737 71.8268 7.73737C71.8268 8.16937 71.6748 8.52137 71.3708 8.79337C71.0828 9.04937 70.6588 9.17737 70.0988 9.17737C70.0988 8.37737 69.9308 7.75337 69.5948 7.30537C69.2588 6.85737 68.7388 6.63337 68.0348 6.63337C67.4908 6.63337 67.0508 6.71337 66.7148 6.87337C66.3788 7.03337 66.1308 7.25737 65.9708 7.54537C65.8268 7.83337 65.7548 8.16937 65.7548 8.55337C65.7548 8.95337 65.8508 9.28937 66.0428 9.56137C66.2508 9.83337 66.5708 10.0894 67.0028 10.3294C67.4508 10.5534 68.0268 10.8094 68.7308 11.0974C69.5788 11.4494 70.2668 11.8014 70.7948 12.1534C71.3228 12.5054 71.7068 12.9134 71.9468 13.3774C72.2028 13.8414 72.3308 14.4094 72.3308 15.0814C72.3308 16.3294 71.8988 17.2734 71.0348 17.9134C70.1708 18.5374 69.0268 18.8494 67.6028 18.8494ZM80.2789 18.8494C78.5349 18.8494 77.1669 18.2734 76.1749 17.1214C75.1989 15.9694 74.7109 14.3534 74.7109 12.2734C74.7109 10.0334 75.1749 8.34537 76.1029 7.20937C77.0309 6.07337 78.3429 5.50537 80.0389 5.50537C81.5909 5.50537 82.8069 5.98537 83.6869 6.94537C84.5829 7.90537 85.0309 9.33737 85.0309 11.2414V12.3454H77.0389C77.0709 13.5134 77.2229 14.4654 77.4949 15.2014C77.7669 15.9374 78.1589 16.4814 78.6709 16.8334C79.1989 17.1694 79.8469 17.3374 80.6149 17.3374C81.1749 17.3374 81.6709 17.2574 82.1029 17.0974C82.5509 16.9374 82.9349 16.7294 83.2549 16.4734C83.5909 16.2174 83.8549 15.9454 84.0469 15.6574C84.1589 15.7054 84.2629 15.8014 84.3589 15.9454C84.4549 16.0894 84.5029 16.2654 84.5029 16.4734C84.5029 16.7934 84.3509 17.1374 84.0469 17.5054C83.7429 17.8734 83.2789 18.1934 82.6549 18.4654C82.0309 18.7214 81.2389 18.8494 80.2789 18.8494ZM82.6069 11.0494C82.6069 10.2014 82.5189 9.45737 82.3429 8.81737C82.1829 8.17737 81.9109 7.68137 81.5269 7.32937C81.1429 6.97737 80.6309 6.80137 79.9909 6.80137C79.3989 6.80137 78.8949 6.96937 78.4789 7.30537C78.0789 7.62537 77.7589 8.09737 77.5189 8.72137C77.2949 9.34537 77.1509 10.1214 77.0869 11.0494H82.6069ZM91.1547 18.8494C90.4507 18.8494 89.8107 18.7134 89.2347 18.4414C88.6747 18.1534 88.2347 17.7294 87.9147 17.1694C87.5947 16.5934 87.4347 15.8734 87.4347 15.0094C87.4347 13.7294 87.8827 12.7854 88.7787 12.1774C89.6907 11.5694 91.0667 11.2334 92.9067 11.1694L94.8987 11.0974V9.65737C94.8987 9.08137 94.8507 8.57737 94.7547 8.14537C94.6587 7.69737 94.4507 7.34537 94.1307 7.08937C93.8107 6.83337 93.3227 6.70537 92.6667 6.70537C92.0587 6.70537 91.5947 6.81737 91.2747 7.04137C90.9547 7.26537 90.7387 7.57737 90.6267 7.97737C90.5307 8.36137 90.4827 8.80937 90.4827 9.32137C89.8107 9.32137 89.2987 9.20937 88.9467 8.98537C88.6107 8.74537 88.4427 8.35337 88.4427 7.80937C88.4427 7.24937 88.6347 6.80137 89.0187 6.46537C89.4187 6.12937 89.9467 5.88937 90.6027 5.74537C91.2587 5.58537 91.9787 5.50537 92.7627 5.50537C94.2347 5.50537 95.3307 5.81737 96.0507 6.44137C96.7867 7.06537 97.1547 8.13737 97.1547 9.65737V15.8734C97.1547 16.3214 97.2027 16.6734 97.2987 16.9294C97.3947 17.1694 97.5547 17.3454 97.7787 17.4574C98.0027 17.5534 98.2907 17.6014 98.6427 17.6014H98.7147V18.6094H95.4747L95.0907 16.5454H94.8987C94.5627 16.9934 94.2347 17.3934 93.9147 17.7454C93.5947 18.0814 93.2187 18.3534 92.7867 18.5614C92.3707 18.7534 91.8267 18.8494 91.1547 18.8494ZM91.7067 17.3614C92.3627 17.3614 92.9227 17.2254 93.3867 16.9534C93.8667 16.6814 94.2347 16.2974 94.4907 15.8014C94.7627 15.2894 94.8987 14.6974 94.8987 14.0254V12.0814L93.3627 12.1534C92.4507 12.1854 91.7307 12.3214 91.2027 12.5614C90.6907 12.8014 90.3227 13.1374 90.0987 13.5694C89.8747 13.9854 89.7627 14.5054 89.7627 15.1294C89.7627 15.6254 89.8347 16.0414 89.9787 16.3774C90.1227 16.6974 90.3387 16.9454 90.6267 17.1214C90.9147 17.2814 91.2747 17.3614 91.7067 17.3614ZM107.792 8.02537C107.68 7.68937 107.544 7.43337 107.384 7.25737C107.24 7.06537 107.064 6.93737 106.856 6.87337C106.664 6.79337 106.408 6.75337 106.088 6.75337H106.016V5.74537H111.944V6.75337H111.632C111.152 6.75337 110.792 6.82537 110.552 6.96937C110.312 7.09737 110.192 7.36137 110.192 7.76137C110.192 7.88937 110.208 8.04937 110.24 8.24137C110.288 8.43337 110.336 8.61737 110.384 8.79337L111.512 12.8254C111.624 13.2094 111.728 13.6414 111.824 14.1214C111.936 14.5854 112.04 15.0334 112.136 15.4654C112.232 15.8814 112.304 16.2254 112.352 16.4974H112.424C112.472 16.2254 112.544 15.8974 112.64 15.5134C112.752 15.1294 112.872 14.7214 113 14.2894C113.144 13.8574 113.28 13.4494 113.408 13.0654L115.904 5.81737H117.416L119.816 12.9214C119.912 13.2094 120.008 13.5214 120.104 13.8574C120.216 14.1774 120.32 14.5054 120.416 14.8414C120.512 15.1774 120.6 15.4894 120.68 15.7774C120.76 16.0654 120.816 16.3054 120.848 16.4974H120.92C120.968 16.2254 121.032 15.9214 121.112 15.5854C121.208 15.2334 121.312 14.8414 121.424 14.4094C121.552 13.9774 121.696 13.5054 121.856 12.9934L123.056 9.12937C123.12 8.92137 123.168 8.70537 123.2 8.48137C123.248 8.24137 123.272 8.05737 123.272 7.92937C123.272 7.51337 123.136 7.21737 122.864 7.04137C122.608 6.84937 122.216 6.75337 121.688 6.75337H121.52V5.74537L126.656 5.74537V6.75337H126.344C126.04 6.75337 125.784 6.80137 125.576 6.89737C125.368 6.97737 125.184 7.15337 125.024 7.42537C124.864 7.69737 124.704 8.09737 124.544 8.62537L121.448 18.6094H119.528L116.24 8.57737L112.832 18.6094H110.936L107.792 8.02537ZM131.608 18.8494C130.904 18.8494 130.264 18.7134 129.688 18.4414C129.128 18.1534 128.688 17.7294 128.368 17.1694C128.048 16.5934 127.888 15.8734 127.888 15.0094C127.888 13.7294 128.336 12.7854 129.232 12.1774C130.144 11.5694 131.52 11.2334 133.36 11.1694L135.352 11.0974V9.65737C135.352 9.08137 135.304 8.57737 135.208 8.14537C135.112 7.69737 134.904 7.34537 134.584 7.08937C134.264 6.83337 133.776 6.70537 133.12 6.70537C132.512 6.70537 132.048 6.81737 131.728 7.04137C131.408 7.26537 131.192 7.57737 131.08 7.97737C130.984 8.36137 130.936 8.80937 130.936 9.32137C130.264 9.32137 129.752 9.20937 129.4 8.98537C129.064 8.74537 128.896 8.35337 128.896 7.80937C128.896 7.24937 129.088 6.80137 129.472 6.46537C129.872 6.12937 130.4 5.88937 131.056 5.74537C131.712 5.58537 132.432 5.50537 133.216 5.50537C134.688 5.50537 135.784 5.81737 136.504 6.44137C137.24 7.06537 137.608 8.13737 137.608 9.65737V15.8734C137.608 16.3214 137.656 16.6734 137.752 16.9294C137.848 17.1694 138.008 17.3454 138.232 17.4574C138.456 17.5534 138.744 17.6014 139.096 17.6014H139.168V18.6094H135.928L135.544 16.5454H135.352C135.016 16.9934 134.688 17.3934 134.368 17.7454C134.048 18.0814 133.672 18.3534 133.24 18.5614C132.824 18.7534 132.28 18.8494 131.608 18.8494ZM132.16 17.3614C132.816 17.3614 133.376 17.2254 133.84 16.9534C134.32 16.6814 134.688 16.2974 134.944 15.8014C135.216 15.2894 135.352 14.6974 135.352 14.0254V12.0814L133.816 12.1534C132.904 12.1854 132.184 12.3214 131.656 12.5614C131.144 12.8014 130.776 13.1374 130.552 13.5694C130.328 13.9854 130.216 14.5054 130.216 15.1294C130.216 15.6254 130.288 16.0414 130.432 16.3774C130.576 16.6974 130.792 16.9454 131.08 17.1214C131.368 17.2814 131.728 17.3614 132.16 17.3614ZM145.251 18.8494C144.451 18.8494 143.755 18.7534 143.163 18.5614C142.571 18.3694 142.107 18.0894 141.771 17.7214C141.451 17.3374 141.291 16.8654 141.291 16.3054C141.291 15.8734 141.379 15.5374 141.555 15.2974C141.731 15.0574 141.931 14.8894 142.155 14.7934C142.395 14.6974 142.611 14.6494 142.803 14.6494C142.803 15.2094 142.883 15.7214 143.043 16.1854C143.203 16.6494 143.475 17.0174 143.859 17.2894C144.243 17.5614 144.755 17.6974 145.395 17.6974C146.243 17.6974 146.891 17.4974 147.339 17.0974C147.803 16.6814 148.035 16.1534 148.035 15.5134C148.035 15.1134 147.947 14.7854 147.771 14.5294C147.611 14.2734 147.315 14.0254 146.883 13.7854C146.467 13.5294 145.867 13.2334 145.083 12.8974C144.267 12.5294 143.587 12.1774 143.043 11.8414C142.515 11.4894 142.115 11.0894 141.843 10.6414C141.587 10.1774 141.459 9.60137 141.459 8.91337C141.459 7.82537 141.867 6.99337 142.683 6.41737C143.515 5.82537 144.611 5.52937 145.971 5.52937C146.739 5.52937 147.379 5.63337 147.891 5.84137C148.419 6.03337 148.811 6.29737 149.067 6.63337C149.339 6.96937 149.475 7.33737 149.475 7.73737C149.475 8.16937 149.323 8.52137 149.019 8.79337C148.731 9.04937 148.307 9.17737 147.747 9.17737C147.747 8.37737 147.579 7.75337 147.243 7.30537C146.907 6.85737 146.387 6.63337 145.683 6.63337C145.139 6.63337 144.699 6.71337 144.363 6.87337C144.027 7.03337 143.779 7.25737 143.619 7.54537C143.475 7.83337 143.403 8.16937 143.403 8.55337C143.403 8.95337 143.499 9.28937 143.691 9.56137C143.899 9.83337 144.219 10.0894 144.651 10.3294C145.099 10.5534 145.675 10.8094 146.379 11.0974C147.227 11.4494 147.915 11.8014 148.443 12.1534C148.971 12.5054 149.355 12.9134 149.595 13.3774C149.851 13.8414 149.979 14.4094 149.979 15.0814C149.979 16.3294 149.547 17.2734 148.683 17.9134C147.819 18.5374 146.675 18.8494 145.251 18.8494ZM4.57505 58.8494C3.39105 58.8494 2.47105 58.7214 1.81505 58.4654C1.15905 58.2094 0.695048 57.8974 0.423048 57.5294C0.167048 57.1454 0.0390476 56.7774 0.0390476 56.4254C0.0390476 55.9774 0.159048 55.6334 0.399048 55.3934C0.655048 55.1374 1.03905 55.0094 1.55105 55.0094C1.55105 55.4574 1.65505 55.8654 1.86305 56.2334C2.08705 56.6014 2.41505 56.8974 2.84705 57.1214C3.27905 57.3294 3.81505 57.4334 4.45505 57.4334C5.11105 57.4334 5.69505 57.3054 6.20705 57.0494C6.73505 56.7934 7.14305 56.3694 7.43105 55.7774C7.73505 55.1854 7.88705 54.3854 7.88705 53.3774C7.88705 52.5294 7.73505 51.8334 7.43105 51.2894C7.12705 50.7294 6.70305 50.3134 6.15905 50.0414C5.61505 49.7694 4.97505 49.6334 4.23905 49.6334C3.69505 49.6334 3.23905 49.6574 2.87105 49.7054C2.50305 49.7534 2.19905 49.8174 1.95905 49.8974C1.71905 49.9774 1.49505 50.0654 1.28705 50.1614L0.711048 49.9934L1.47905 41.4734H9.49505L9.61505 45.0974H8.60705L8.51105 44.3774C8.47905 44.1534 8.42305 43.9694 8.34305 43.8254C8.27905 43.6814 8.15905 43.5774 7.98305 43.5134C7.80705 43.4334 7.55105 43.3934 7.21505 43.3934H2.55905L2.10305 48.6974C2.26305 48.6334 2.47105 48.5774 2.72705 48.5294C2.98305 48.4654 3.29505 48.4174 3.66305 48.3854C4.03105 48.3374 4.44705 48.3134 4.91105 48.3134C5.95105 48.3134 6.87905 48.5054 7.69505 48.8894C8.52705 49.2574 9.18305 49.8174 9.66305 50.5694C10.143 51.3054 10.383 52.2414 10.383 53.3774C10.383 54.0334 10.295 54.6414 10.119 55.2014C9.95905 55.7614 9.71905 56.2654 9.39905 56.7134C9.07905 57.1614 8.67905 57.5454 8.19905 57.8654C7.73505 58.1854 7.19905 58.4334 6.59105 58.6094C5.98305 58.7694 5.31105 58.8494 4.57505 58.8494ZM17.9813 58.8494C16.7973 58.8494 15.8773 58.7214 15.2213 58.4654C14.5653 58.2094 14.1013 57.8974 13.8293 57.5294C13.5733 57.1454 13.4453 56.7774 13.4453 56.4254C13.4453 55.9774 13.5653 55.6334 13.8053 55.3934C14.0613 55.1374 14.4453 55.0094 14.9573 55.0094C14.9573 55.4574 15.0613 55.8654 15.2693 56.2334C15.4933 56.6014 15.8213 56.8974 16.2533 57.1214C16.6853 57.3294 17.2213 57.4334 17.8613 57.4334C18.5173 57.4334 19.1013 57.3054 19.6133 57.0494C20.1413 56.7934 20.5493 56.3694 20.8373 55.7774C21.1413 55.1854 21.2933 54.3854 21.2933 53.3774C21.2933 52.5294 21.1413 51.8334 20.8373 51.2894C20.5333 50.7294 20.1093 50.3134 19.5653 50.0414C19.0213 49.7694 18.3813 49.6334 17.6453 49.6334C17.1013 49.6334 16.6453 49.6574 16.2773 49.7054C15.9093 49.7534 15.6053 49.8174 15.3653 49.8974C15.1253 49.9774 14.9013 50.0654 14.6933 50.1614L14.1173 49.9934L14.8853 41.4734L22.9013 41.4734L23.0213 45.0974H22.0133L21.9173 44.3774C21.8853 44.1534 21.8293 43.9694 21.7493 43.8254C21.6853 43.6814 21.5653 43.5774 21.3893 43.5134C21.2133 43.4334 20.9573 43.3934 20.6213 43.3934H15.9653L15.5093 48.6974C15.6693 48.6334 15.8773 48.5774 16.1333 48.5294C16.3893 48.4654 16.7013 48.4174 17.0693 48.3854C17.4373 48.3374 17.8533 48.3134 18.3173 48.3134C19.3573 48.3134 20.2853 48.5054 21.1013 48.8894C21.9333 49.2574 22.5893 49.8174 23.0693 50.5694C23.5493 51.3054 23.7893 52.2414 23.7893 53.3774C23.7893 54.0334 23.7013 54.6414 23.5253 55.2014C23.3653 55.7614 23.1253 56.2654 22.8053 56.7134C22.4853 57.1614 22.0853 57.5454 21.6053 57.8654C21.1413 58.1854 20.6053 58.4334 19.9973 58.6094C19.3893 58.7694 18.7173 58.8494 17.9813 58.8494ZM32.3659 52.9694V51.1694H38.6059V52.9694H32.3659ZM52.462 58.8494C51.406 58.8494 50.454 58.5534 49.606 57.9614C48.774 57.3534 48.11 56.4014 47.614 55.1054C47.134 53.7934 46.894 52.0814 46.894 49.9694C46.894 48.8334 47.022 47.7454 47.278 46.7054C47.534 45.6494 47.918 44.7134 48.43 43.8974C48.942 43.0654 49.59 42.4174 50.374 41.9534C51.174 41.4734 52.102 41.2334 53.158 41.2334C54.054 41.2334 54.79 41.3534 55.366 41.5934C55.958 41.8334 56.398 42.1454 56.686 42.5294C56.974 42.9134 57.118 43.3214 57.118 43.7534C57.118 44.2014 56.958 44.5534 56.638 44.8094C56.334 45.0654 55.878 45.1934 55.27 45.1934C55.27 44.6654 55.198 44.1934 55.054 43.7774C54.926 43.3454 54.702 43.0094 54.382 42.7694C54.078 42.5134 53.67 42.3854 53.158 42.3854C52.358 42.3854 51.686 42.6574 51.142 43.2014C50.598 43.7294 50.182 44.5134 49.894 45.5534C49.606 46.5934 49.43 47.8894 49.366 49.4414C49.638 49.2174 49.934 49.0174 50.254 48.8414C50.59 48.6494 50.966 48.4974 51.382 48.3854C51.814 48.2574 52.286 48.1934 52.798 48.1934C54.27 48.1934 55.438 48.6334 56.302 49.5134C57.182 50.3774 57.622 51.5774 57.622 53.1134C57.622 54.2334 57.414 55.2254 56.998 56.0894C56.598 56.9534 56.014 57.6334 55.246 58.1294C54.478 58.6094 53.55 58.8494 52.462 58.8494ZM52.534 57.5294C53.11 57.5294 53.59 57.3854 53.974 57.0974C54.374 56.7934 54.67 56.3374 54.862 55.7294C55.07 55.1054 55.174 54.3134 55.174 53.3534C55.174 52.4414 55.062 51.6974 54.838 51.1214C54.63 50.5294 54.31 50.0974 53.878 49.8254C53.462 49.5534 52.942 49.4174 52.318 49.4174C51.902 49.4174 51.51 49.4894 51.142 49.6334C50.774 49.7614 50.438 49.9374 50.134 50.1614C49.83 50.3694 49.566 50.5854 49.342 50.8094C49.358 52.0094 49.438 53.0334 49.582 53.8814C49.742 54.7294 49.958 55.4254 50.23 55.9694C50.518 56.5134 50.854 56.9134 51.238 57.1694C51.622 57.4094 52.054 57.5294 52.534 57.5294ZM65.5562 58.8494C64.2442 58.8494 63.1722 58.4814 62.3402 57.7454C61.5082 57.0094 60.8922 55.9774 60.4922 54.6494C60.1082 53.3214 59.9162 51.7694 59.9162 49.9934C59.9162 48.2174 60.1082 46.6734 60.4922 45.3614C60.8922 44.0494 61.5082 43.0334 62.3402 42.3134C63.1722 41.5934 64.2522 41.2334 65.5802 41.2334C66.8282 41.2334 67.8682 41.5934 68.7002 42.3134C69.5322 43.0334 70.1482 44.0574 70.5482 45.3854C70.9642 46.6974 71.1722 48.2414 71.1722 50.0174C71.1722 51.7934 70.9642 53.3454 70.5482 54.6734C70.1322 55.9854 69.5082 57.0094 68.6762 57.7454C67.8602 58.4814 66.8202 58.8494 65.5562 58.8494ZM65.5562 57.5534C66.1322 57.5534 66.6202 57.3854 67.0202 57.0494C67.4202 56.7134 67.7402 56.2254 67.9802 55.5854C68.2202 54.9294 68.3962 54.1374 68.5082 53.2094C68.6202 52.2654 68.6762 51.2014 68.6762 50.0174C68.6762 48.8334 68.6202 47.7774 68.5082 46.8494C68.4122 45.9214 68.2362 45.1374 67.9802 44.4974C67.7402 43.8574 67.4202 43.3694 67.0202 43.0334C66.6362 42.6974 66.1562 42.5294 65.5802 42.5294C64.9882 42.5294 64.4922 42.6974 64.0922 43.0334C63.6922 43.3694 63.3642 43.8574 63.1082 44.4974C62.8682 45.1374 62.6922 45.9214 62.5802 46.8494C62.4682 47.7774 62.4122 48.8334 62.4122 50.0174C62.4122 51.2014 62.4682 52.2654 62.5802 53.2094C62.6922 54.1374 62.8682 54.9294 63.1082 55.5854C63.3482 56.2254 63.6682 56.7134 64.0682 57.0494C64.4842 57.3854 64.9802 57.5534 65.5562 57.5534ZM79.1489 58.6094V57.6014H79.4609C79.8289 57.6014 80.1489 57.5614 80.4209 57.4814C80.6929 57.4014 80.9089 57.2414 81.0689 57.0014C81.2289 56.7454 81.3089 56.3694 81.3089 55.8734V48.3854C81.3089 47.9054 81.2289 47.5534 81.0689 47.3294C80.9089 47.0894 80.6849 46.9374 80.3969 46.8734C80.1249 46.7934 79.8129 46.7534 79.4609 46.7534H79.3889V45.7454H83.1569L83.4689 47.6894H83.5889C83.9089 47.0814 84.2529 46.6254 84.6209 46.3214C84.9889 46.0014 85.3889 45.7854 85.8209 45.6734C86.2529 45.5614 86.7169 45.5054 87.2129 45.5054C87.7249 45.5054 88.2049 45.5774 88.6529 45.7214C89.1169 45.8654 89.5249 46.0974 89.8769 46.4174C90.2289 46.7214 90.5009 47.1454 90.6929 47.6894H90.8849C91.2049 47.0814 91.5569 46.6254 91.9409 46.3214C92.3409 46.0014 92.7649 45.7854 93.2129 45.6734C93.6769 45.5614 94.1569 45.5054 94.6529 45.5054C95.8849 45.5054 96.8449 45.8814 97.5329 46.6334C98.2209 47.3694 98.5649 48.5614 98.5649 50.2094V55.8734C98.5649 56.3694 98.6449 56.7454 98.8049 57.0014C98.9649 57.2414 99.1809 57.4014 99.4529 57.4814C99.7409 57.5614 100.061 57.6014 100.413 57.6014H100.485V58.6094H96.3089V50.3294C96.3089 49.2894 96.1169 48.4814 95.7329 47.9054C95.3649 47.3294 94.7169 47.0414 93.7889 47.0414C93.1329 47.0414 92.6049 47.2094 92.2049 47.5454C91.8209 47.8654 91.5409 48.2974 91.3649 48.8414C91.2049 49.3854 91.1249 49.9774 91.1249 50.6174V55.8734C91.1249 56.3694 91.2049 56.7454 91.3649 57.0014C91.5249 57.2414 91.7409 57.4014 92.0129 57.4814C92.3009 57.5614 92.6209 57.6014 92.9729 57.6014H93.0449V58.6094H88.8689V50.3294C88.8689 49.2894 88.6769 48.4814 88.2929 47.9054C87.9249 47.3294 87.2769 47.0414 86.3489 47.0414C85.6609 47.0414 85.1089 47.2254 84.6929 47.5934C84.2929 47.9454 84.0049 48.4174 83.8289 49.0094C83.6529 49.6014 83.5649 50.2414 83.5649 50.9294V55.9934C83.5649 56.4574 83.6529 56.8094 83.8289 57.0494C84.0209 57.2734 84.2609 57.4254 84.5489 57.5054C84.8529 57.5694 85.1809 57.6014 85.5329 57.6014H85.6049V58.6094H79.1489ZM112.319 58.8494C111.615 58.8494 110.975 58.7134 110.399 58.4414C109.839 58.1534 109.399 57.7294 109.079 57.1694C108.759 56.5934 108.599 55.8734 108.599 55.0094C108.599 53.7294 109.047 52.7854 109.943 52.1774C110.855 51.5694 112.231 51.2334 114.071 51.1694L116.063 51.0974V49.6574C116.063 49.0814 116.015 48.5774 115.919 48.1454C115.823 47.6974 115.615 47.3454 115.295 47.0894C114.975 46.8334 114.487 46.7054 113.831 46.7054C113.223 46.7054 112.759 46.8174 112.439 47.0414C112.119 47.2654 111.903 47.5774 111.791 47.9774C111.695 48.3614 111.647 48.8094 111.647 49.3214C110.975 49.3214 110.463 49.2094 110.111 48.9854C109.775 48.7454 109.607 48.3534 109.607 47.8094C109.607 47.2494 109.799 46.8014 110.183 46.4654C110.583 46.1294 111.111 45.8894 111.767 45.7454C112.423 45.5854 113.143 45.5054 113.927 45.5054C115.399 45.5054 116.495 45.8174 117.215 46.4414C117.951 47.0654 118.319 48.1374 118.319 49.6574V55.8734C118.319 56.3214 118.367 56.6734 118.463 56.9294C118.559 57.1694 118.719 57.3454 118.943 57.4574C119.167 57.5534 119.455 57.6014 119.807 57.6014H119.879V58.6094H116.639L116.255 56.5454H116.063C115.727 56.9934 115.399 57.3934 115.079 57.7454C114.759 58.0814 114.383 58.3534 113.951 58.5614C113.535 58.7534 112.991 58.8494 112.319 58.8494ZM112.871 57.3614C113.527 57.3614 114.087 57.2254 114.551 56.9534C115.031 56.6814 115.399 56.2974 115.655 55.8014C115.927 55.2894 116.063 54.6974 116.063 54.0254V52.0814L114.527 52.1534C113.615 52.1854 112.895 52.3214 112.367 52.5614C111.855 52.8014 111.487 53.1374 111.263 53.5694C111.039 53.9854 110.927 54.5054 110.927 55.1294C110.927 55.6254 110.999 56.0414 111.143 56.3774C111.287 56.6974 111.503 56.9454 111.791 57.1214C112.079 57.2814 112.439 57.3614 112.871 57.3614ZM122.722 48.0254C122.61 47.6894 122.474 47.4334 122.314 47.2574C122.17 47.0654 121.994 46.9374 121.786 46.8734C121.594 46.7934 121.338 46.7534 121.018 46.7534H120.946V45.7454H126.874V46.7534H126.562C126.082 46.7534 125.722 46.8254 125.482 46.9694C125.242 47.0974 125.122 47.3614 125.122 47.7614C125.122 47.8894 125.138 48.0494 125.17 48.2414C125.218 48.4334 125.266 48.6174 125.314 48.7934L126.442 52.8254C126.554 53.2094 126.658 53.6414 126.754 54.1214C126.866 54.5854 126.97 55.0334 127.066 55.4654C127.162 55.8814 127.234 56.2254 127.282 56.4974H127.354C127.402 56.2254 127.474 55.8974 127.57 55.5134C127.682 55.1294 127.802 54.7214 127.93 54.2894C128.074 53.8574 128.21 53.4494 128.338 53.0654L130.834 45.8174H132.346L134.746 52.9214C134.842 53.2094 134.938 53.5214 135.034 53.8574C135.146 54.1774 135.25 54.5054 135.346 54.8414C135.442 55.1774 135.53 55.4894 135.61 55.7774C135.69 56.0654 135.746 56.3054 135.778 56.4974H135.85C135.898 56.2254 135.962 55.9214 136.042 55.5854C136.138 55.2334 136.242 54.8414 136.354 54.4094C136.482 53.9774 136.626 53.5054 136.786 52.9934L137.986 49.1294C138.05 48.9214 138.098 48.7054 138.13 48.4814C138.178 48.2414 138.202 48.0574 138.202 47.9294C138.202 47.5134 138.066 47.2174 137.794 47.0414C137.538 46.8494 137.146 46.7534 136.618 46.7534H136.45V45.7454H141.586V46.7534H141.274C140.97 46.7534 140.714 46.8014 140.506 46.8974C140.298 46.9774 140.114 47.1534 139.954 47.4254C139.794 47.6974 139.634 48.0974 139.474 48.6254L136.378 58.6094H134.458L131.17 48.5774L127.762 58.6094H125.866L122.722 48.0254ZM146.537 58.8494C145.833 58.8494 145.193 58.7134 144.617 58.4414C144.057 58.1534 143.617 57.7294 143.297 57.1694C142.977 56.5934 142.817 55.8734 142.817 55.0094C142.817 53.7294 143.265 52.7854 144.161 52.1774C145.073 51.5694 146.449 51.2334 148.289 51.1694L150.281 51.0974V49.6574C150.281 49.0814 150.233 48.5774 150.137 48.1454C150.041 47.6974 149.833 47.3454 149.513 47.0894C149.193 46.8334 148.705 46.7054 148.049 46.7054C147.441 46.7054 146.977 46.8174 146.657 47.0414C146.337 47.2654 146.121 47.5774 146.009 47.9774C145.913 48.3614 145.865 48.8094 145.865 49.3214C145.193 49.3214 144.681 49.2094 144.329 48.9854C143.993 48.7454 143.825 48.3534 143.825 47.8094C143.825 47.2494 144.017 46.8014 144.401 46.4654C144.801 46.1294 145.329 45.8894 145.985 45.7454C146.641 45.5854 147.361 45.5054 148.145 45.5054C149.617 45.5054 150.713 45.8174 151.433 46.4414C152.169 47.0654 152.537 48.1374 152.537 49.6574V55.8734C152.537 56.3214 152.585 56.6734 152.681 56.9294C152.777 57.1694 152.937 57.3454 153.161 57.4574C153.385 57.5534 153.673 57.6014 154.025 57.6014H154.097V58.6094H150.857L150.473 56.5454H150.281C149.945 56.9934 149.617 57.3934 149.297 57.7454C148.977 58.0814 148.601 58.3534 148.169 58.5614C147.753 58.7534 147.209 58.8494 146.537 58.8494ZM147.089 57.3614C147.745 57.3614 148.305 57.2254 148.769 56.9534C149.249 56.6814 149.617 56.2974 149.873 55.8014C150.145 55.2894 150.281 54.6974 150.281 54.0254V52.0814L148.745 52.1534C147.833 52.1854 147.113 52.3214 146.585 52.5614C146.073 52.8014 145.705 53.1374 145.481 53.5694C145.257 53.9854 145.145 54.5054 145.145 55.1294C145.145 55.6254 145.217 56.0414 145.361 56.3774C145.505 56.6974 145.721 56.9454 146.009 57.1214C146.297 57.2814 146.657 57.3614 147.089 57.3614ZM155.584 63.2414C156.4 63.2414 157.104 63.1214 157.696 62.8814C158.288 62.6414 158.792 62.3054 159.208 61.8734C159.624 61.4574 159.976 60.9614 160.264 60.3854C160.552 59.8094 160.792 59.1854 160.984 58.5134L156.544 48.0254C156.4 47.6894 156.256 47.4334 156.112 47.2574C155.968 47.0654 155.8 46.9374 155.608 46.8734C155.416 46.7934 155.16 46.7534 154.84 46.7534H154.768V45.7454H160.528V46.7534H160.456C159.976 46.7534 159.616 46.8494 159.376 47.0414C159.136 47.2174 159.016 47.5054 159.016 47.9054C159.016 48.0334 159.032 48.1694 159.064 48.3134C159.096 48.4574 159.144 48.6174 159.208 48.7934L160.96 53.0654C161.072 53.3374 161.184 53.6334 161.296 53.9534C161.424 54.2734 161.544 54.5934 161.656 54.9134C161.768 55.2334 161.864 55.5374 161.944 55.8254C162.024 56.1134 162.08 56.3534 162.112 56.5454C162.224 56.0814 162.368 55.6014 162.544 55.1054C162.736 54.6094 162.912 54.1214 163.072 53.6414L164.68 48.9614C164.76 48.7694 164.816 48.5854 164.848 48.4094C164.88 48.2174 164.896 48.0574 164.896 47.9294C164.896 47.5134 164.76 47.2174 164.488 47.0414C164.232 46.8494 163.84 46.7534 163.312 46.7534H163.24V45.7454H168.232V46.7534H168.16C167.856 46.7534 167.6 46.8014 167.392 46.8974C167.184 46.9934 167 47.1774 166.84 47.4494C166.696 47.7214 166.528 48.1134 166.336 48.6254L162.688 58.7054C162.272 59.8734 161.872 60.8254 161.488 61.5614C161.104 62.2974 160.672 62.8654 160.192 63.2654C159.728 63.6814 159.144 63.9694 158.44 64.1294C157.736 64.2894 156.856 64.3694 155.8 64.3694H155.584V63.2414ZM169.086 58.7774C168.67 58.7774 168.31 58.6574 168.006 58.4174C167.718 58.1774 167.574 57.7534 167.574 57.1454C167.574 56.5214 167.718 56.0974 168.006 55.8734C168.31 55.6334 168.67 55.5134 169.086 55.5134C169.502 55.5134 169.854 55.6334 170.142 55.8734C170.446 56.0974 170.598 56.5214 170.598 57.1454C170.598 57.7534 170.446 58.1774 170.142 58.4174C169.854 58.6574 169.502 58.7774 169.086 58.7774Z" fill="white"/>
</svg>
