<svg width="112" height="166" viewBox="0 0 112 166" fill="none" xmlns="http://www.w3.org/2000/svg">
<path d="M2.36315 142.992L2.506 143.476L2.91227 143.776L27.9404 162.208L29.3825 163.27L30.1751 161.664L41.3904 138.936L46.7233 133.254L46.8948 133.072L46.9976 132.843L54.8055 115.483L62.2298 106.19L63.2583 104.903L61.8804 103.999L55.4371 99.7748L58.6714 93.0599C61.947 92.0907 66.4187 88.34 66.3695 79.9477C67.9676 79.5354 69.8345 78.7272 71.2578 77.3431C72.2037 76.4232 72.968 75.2322 73.2843 73.7429C73.5486 72.4985 73.4828 71.1282 73.0446 69.6394L83.7732 57.703L83.7941 57.6798L83.814 57.6557L88.271 52.2609L88.3305 52.1889L88.3806 52.11L93.0814 44.7133H95.3431H96.1497L96.5944 44.0403L100.924 37.4891L107.945 31.79L109.324 30.6712L107.991 29.4989L78.8482 3.87355L77.4493 2.64355L76.5459 4.27246L69.2019 17.5137L65.7961 14.6427L64.5093 13.5581L63.5792 14.9606L49.8652 35.6407L49.6152 36.0176V36.4697V42.7528L44.388 50.4638L43.9498 51.1102L44.2281 51.8399L46.0134 56.5219L36.4867 71.1677L36.4475 71.228L36.4142 71.2917L28.3365 86.7723L26.3289 85.1929L24.8926 84.0628L24.0643 85.6919L13.1208 107.217C12.1109 108.862 10.7897 111.436 10.0978 113.895C9.75019 115.129 9.52738 116.451 9.65701 117.658C9.7227 118.269 9.88538 118.886 10.1862 119.445C8.10955 121.208 5.68928 123.925 3.93178 127.364C1.76951 131.595 0.586917 136.976 2.36315 142.992Z" stroke="white" stroke-width="3"/>
</svg>
